P3
# ASCII PPM file
64 64
255

56 56 56
0 0 88
0 0 100
0 0 100
0 0 100
0 0 100
0 0 100
0 0 100
0 0 100
0 0 100
0 0 100
0 0 100
0 0 100
0 0 100
0 0 100
0 0 100
0 0 100
0 0 100
0 0 100
0 0 100
0 0 100
0 0 88
56 56 56
56 56 56
0 0 88
0 0 100
0 0 100
0 0 100
0 0 100
0 0 100
0 0 100
0 0 100
0 0 100
0 0 100
0 0 100
0 0 100
0 0 100
0 0 100
0 0 100
0 0 100
0 0 100
0 0 100
0 0 100
0 0 100
0 0 100
0 0 100
0 0 100
0 0 100
0 0 100
0 0 100
0 0 100
0 0 88
56 56 56
56 56 56
0 0 88
0 0 100
0 0 100
0 0 100
0 0 100
0 0 100
0 0 100
0 0 100
0 0 88
56 56 56

0 0 0
0 0 88
0 0 88
0 0 88
0 0 88
0 0 88
0 0 88
0 0 88
0 0 88
0 0 88
0 0 88
0 0 88
0 0 88
0 0 88
0 0 88
0 0 88
0 0 88
0 0 88
0 0 88
0 0 88
0 0 88
0 0 88
0 0 44
0 0 44
0 0 112
0 0 112
0 0 112
0 0 112
0 0 112
0 0 112
0 0 112
0 0 112
0 0 112
0 0 112
0 0 112
0 0 112
0 0 112
0 0 112
0 0 112
0 0 112
0 0 112
0 0 112
0 0 112
0 0 112
0 0 112
0 0 112
0 0 112
0 0 112
0 0 112
0 0 112
0 0 112
0 0 112
0 0 44
0 0 44
0 0 100
0 0 100
0 0 100
0 0 100
0 0 100
0 0 100
0 0 100
0 0 100
0 0 100
0 0 0

0 0 0
0 0 88
0 0 88
0 0 88
0 0 76
0 0 88
0 0 64
0 0 88
0 0 88
0 0 64
0 0 64
0 0 64
0 0 64
0 0 64
0 0 64
0 0 64
0 0 64
0 0 88
0 0 64
0 0 64
0 0 64
0 0 44
0 0 0
0 0 0
0 0 112
0 0 88
0 0 112
0 0 100
0 0 64
0 0 88
0 0 112
0 0 64
0 0 64
0 0 64
0 0 64
0 0 64
0 0 88
0 0 88
0 0 64
0 0 64
0 0 64
0 0 88
0 0 112
0 0 88
0 0 64
0 0 64
0 0 88
0 0 112
0 0 112
0 0 88
0 0 64
0 0 64
0 0 0
0 0 0
0 0 100
0 0 112
0 0 88
0 0 64
0 0 88
0 0 100
0 0 100
0 0 64
0 0 64
0 0 0

0 0 0
0 0 88
0 0 76
0 0 64
0 0 76
0 0 64
0 0 64
0 0 64
0 0 64
0 0 64
0 0 88
0 0 64
0 0 88
0 0 64
0 0 64
0 0 64
0 0 64
0 0 64
0 0 64
0 0 64
0 0 64
0 0 64
0 0 0
0 0 0
0 0 112
0 0 112
0 0 88
0 0 64
0 0 64
0 0 64
0 0 64
0 0 64
0 0 44
0 0 64
0 0 44
0 0 44
0 0 64
0 0 88
0 0 88
0 0 64
0 0 64
0 0 64
0 0 64
0 0 64
0 0 64
0 0 44
0 0 64
0 0 64
0 0 64
0 0 64
0 0 64
0 0 64
0 0 0
0 0 0
0 0 100
0 0 100
0 0 88
0 0 88
0 0 64
0 0 64
0 0 88
0 0 88
0 0 44
0 0 0

0 0 0
0 0 88
0 0 76
0 0 88
0 0 76
0 0 76
0 0 76
0 0 64
0 0 64
0 0 64
0 0 64
0 0 64
0 0 64
0 0 64
0 0 64
0 0 64
0 0 44
0 0 44
0 0 64
0 0 44
0 0 44
0 0 64
0 0 0
0 0 0
0 0 0
0 0 0
0 0 0
0 0 0
0 0 0
0 0 0
0 0 0
0 0 0
0 0 0
0 0 0
0 0 0
0 0 0
0 0 0
0 0 0
0 0 0
0 0 0
0 0 0
0 0 0
0 0 0
0 0 0
0 0 0
0 0 0
0 0 0
0 0 0
0 0 0
0 0 0
0 0 0
0 0 0
0 0 0
0 0 0
0 0 100
0 0 88
0 0 100
0 0 112
0 0 112
0 0 100
0 0 88
0 0 64
0 0 64
0 0 0

0 0 0
0 0 88
0 0 76
0 0 76
0 0 88
0 0 88
0 0 88
0 0 76
0 0 64
0 0 64
0 0 76
0 0 88
0 0 76
0 0 64
0 0 64
0 0 64
0 0 44
0 0 44
0 0 64
0 0 44
0 0 44
0 0 44
0 0 0
0 0 0
0 0 88
0 0 88
0 0 88
0 0 88
0 0 88
0 0 88
0 0 88
0 0 88
0 0 88
0 0 88
0 0 88
0 0 88
0 0 88
0 0 88
0 0 88
0 0 88
0 0 88
0 0 88
0 0 88
0 0 0
0 0 0
0 0 0
0 0 0
0 0 0
0 0 0
0 0 0
0 0 0
0 0 0
0 0 0
0 0 0
0 0 100
0 0 112
0 0 88
0 0 100
0 0 88
0 0 76
0 0 64
0 0 64
0 0 44
0 0 0

0 0 0
0 0 88
0 0 76
0 0 76
0 0 100
0 0 100
0 0 88
0 0 88
0 0 88
0 0 64
0 0 88
0 0 88
0 0 88
0 0 76
0 0 64
0 0 64
0 0 64
0 0 64
0 0 44
0 0 64
0 0 64
0 0 64
0 0 0
0 0 0
0 0 88
0 0 112
0 0 112
0 0 112
0 0 100
0 0 88
0 0 64
0 0 64
0 0 112
0 0 64
0 0 64
0 0 100
0 0 64
0 0 64
0 0 100
0 0 112
0 0 112
0 0 88
0 0 88
0 0 0
0 0 0
0 0 88
0 0 88
0 0 88
0 0 88
0 0 64
0 0 64
0 0 64
0 0 0
0 0 0
0 0 100
0 0 76
0 0 76
0 0 88
0 0 76
0 0 76
0 0 76
0 0 64
0 0 64
0 0 0

0 0 0
0 0 88
0 0 88
0 0 64
0 0 88
0 0 100
0 0 100
0 0 88
0 0 76
0 0 64
0 0 76
0 0 88
0 0 88
0 0 76
0 0 64
0 0 64
0 0 44
0 0 44
0 0 64
0 0 44
0 0 44
0 0 64
0 0 0
0 0 0
0 0 88
0 0 100
0 0 112
0 0 112
0 0 112
0 0 100
0 0 88
0 0 112
0 0 88
0 0 64
0 0 64
0 0 64
0 0 100
0 0 100
0 0 88
0 0 88
0 0 88
0 0 64
0 0 88
0 0 0
0 0 0
0 0 88
0 0 76
0 0 76
0 0 64
0 0 64
0 0 64
0 0 64
0 0 0
0 0 0
0 0 100
0 0 64
0 0 64
0 0 88
0 0 64
0 0 76
0 0 76
0 0 64
0 0 64
0 0 0

0 0 0
0 0 88
0 0 76
0 0 64
0 0 76
0 0 88
0 0 88
0 0 76
0 0 64
0 0 64
0 0 64
0 0 76
0 0 76
0 0 76
0 0 64
0 0 76
0 0 76
0 0 44
0 0 64
0 0 52
0 0 44
0 0 44
0 0 0
0 0 0
0 0 88
0 0 100
0 0 112
0 0 112
0 0 112
0 0 64
0 0 100
0 0 88
0 0 88
0 0 112
0 0 64
0 0 64
0 0 88
0 0 64
0 0 88
0 0 64
0 0 64
0 0 88
0 0 64
0 0 0
0 0 0
0 0 88
0 0 76
0 0 76
0 0 76
0 0 64
0 0 64
0 0 64
0 0 0
0 0 0
0 0 100
0 0 112
0 0 88
0 0 64
0 0 88
0 0 88
0 0 64
0 0 64
0 0 44
0 0 0

0 0 0
0 0 88
0 0 76
0 0 64
0 0 64
0 0 88
0 0 76
0 0 64
0 0 64
0 0 88
0 0 88
0 0 64
0 0 44
0 0 64
0 0 64
0 0 76
0 0 76
0 0 76
0 0 64
0 0 52
0 0 44
0 0 44
0 0 0
0 0 0
0 0 88
0 0 100
0 0 100
0 0 100
0 0 64
0 0 64
0 0 64
0 0 100
0 0 88
0 0 88
0 0 88
0 0 88
0 0 64
0 0 64
0 0 64
0 0 52
0 0 52
0 0 64
0 0 64
0 0 0
0 0 0
0 0 88
0 0 88
0 0 76
0 0 76
0 0 64
0 0 44
0 0 44
0 0 0
0 0 0
0 0 112
0 0 64
0 0 64
0 0 64
0 0 88
0 0 88
0 0 76
0 0 44
0 0 64
0 0 0

0 0 0
0 0 76
0 0 76
0 0 64
0 0 88
0 0 64
0 0 64
0 0 64
0 0 64
0 0 88
0 0 88
0 0 64
0 0 52
0 0 44
0 0 44
0 0 64
0 0 76
0 0 76
0 0 64
0 0 64
0 0 44
0 0 0
0 0 0
0 0 0
0 0 88
0 0 112
0 0 100
0 0 100
0 0 100
0 0 64
0 0 64
0 0 100
0 0 112
0 0 112
0 0 88
0 0 88
0 0 64
0 0 88
0 0 64
0 0 64
0 0 52
0 0 52
0 0 44
0 0 0
0 0 0
0 0 88
0 0 88
0 0 64
0 0 64
0 0 88
0 0 64
0 0 44
0 0 0
0 0 0
0 0 112
0 0 64
0 0 112
0 0 88
0 0 44
0 0 76
0 0 44
0 0 44
0 0 64
0 0 0

0 0 0
0 0 76
0 0 64
0 0 64
0 0 64
0 0 64
0 0 88
0 0 64
0 0 64
0 0 64
0 0 44
0 0 64
0 0 64
0 0 44
0 0 44
0 0 64
0 0 64
0 0 44
0 0 64
0 0 44
0 0 64
0 0 44
0 0 0
0 0 0
0 0 88
0 0 112
0 0 88
0 0 88
0 0 100
0 0 100
0 0 100
0 0 100
0 0 112
0 0 100
0 0 100
0 0 88
0 0 76
0 0 64
0 0 64
0 0 88
0 0 52
0 0 52
0 0 64
0 0 0
0 0 0
0 0 88
0 0 76
0 0 76
0 0 64
0 0 64
0 0 44
0 0 44
0 0 0
0 0 0
0 0 112
0 0 112
0 0 64
0 0 64
0 0 64
0 0 44
0 0 64
0 0 44
0 0 44
0 0 0

0 0 0
0 0 76
0 0 64
0 0 64
0 0 64
0 0 64
0 0 64
0 0 64
0 0 64
0 0 64
0 0 64
0 0 52
0 0 52
0 0 64
0 0 64
0 0 52
0 0 52
0 0 52
0 0 64
0 0 64
0 0 52
0 0 64
0 0 0
0 0 0
0 0 88
0 0 100
0 0 88
0 0 88
0 0 64
0 0 112
0 0 64
0 0 64
0 0 88
0 0 100
0 0 100
0 0 88
0 0 76
0 0 64
0 0 64
0 0 64
0 0 44
0 0 44
0 0 64
0 0 0
0 0 0
0 0 88
0 0 76
0 0 76
0 0 76
0 0 64
0 0 64
0 0 52
0 0 0
0 0 0
0 0 112
0 0 64
0 0 64
0 0 64
0 0 64
0 0 64
0 0 44
0 0 44
0 0 44
0 0 0

0 0 0
0 0 64
0 0 64
0 0 64
0 0 64
0 0 52
0 0 52
0 0 64
0 0 44
0 0 44
0 0 64
0 0 64
0 0 52
0 0 52
0 0 52
0 0 52
0 0 52
0 0 0
0 0 52
0 0 52
0 0 44
0 0 44
0 0 0
0 0 0
0 0 88
0 0 100
0 0 88
0 0 112
0 0 64
0 0 64
0 0 64
0 0 64
0 0 64
0 0 64
0 0 76
0 0 76
0 0 76
0 0 64
0 0 64
0 0 64
0 0 64
0 0 64
0 0 44
0 0 0
0 0 0
0 0 88
0 0 88
0 0 76
0 0 76
0 0 64
0 0 64
0 0 52
0 0 0
0 0 0
0 0 112
0 0 64
0 0 64
0 0 64
0 0 44
0 0 44
0 0 44
0 0 44
0 0 44
0 0 0

0 0 0
0 0 64
0 0 64
0 0 64
0 0 64
0 0 64
0 0 52
0 0 52
0 0 52
0 0 52
0 0 52
0 0 44
0 0 44
0 0 64
0 0 44
0 0 52
0 0 44
0 0 44
0 0 44
0 0 44
0 0 0
0 0 44
0 0 0
0 0 0
0 0 88
0 0 112
0 0 112
0 0 88
0 0 64
0 0 64
0 0 64
0 0 88
0 0 88
0 0 64
0 0 64
0 0 64
0 0 64
0 0 64
0 0 76
0 0 76
0 0 64
0 0 44
0 0 44
0 0 0
0 0 0
0 0 88
0 0 76
0 0 64
0 0 88
0 0 44
0 0 44
0 0 44
0 0 0
0 0 0
0 0 0
0 0 0
0 0 0
0 0 0
0 0 0
0 0 0
0 0 0
0 0 0
0 0 0
0 0 0

0 0 0
0 0 0
0 0 0
0 0 0
0 0 0
0 0 0
0 0 0
0 0 0
0 0 0
0 0 0
0 0 0
0 0 0
0 0 0
0 0 0
0 0 0
0 0 0
0 0 0
0 0 0
0 0 0
0 0 0
0 0 0
0 0 0
0 0 0
0 0 0
0 0 88
0 0 112
0 0 88
0 0 88
0 0 64
0 0 64
0 0 64
0 0 88
0 0 88
0 0 88
0 0 64
0 0 64
0 0 100
0 0 100
0 0 76
0 0 76
0 0 76
0 0 44
0 0 28
0 0 0
0 0 0
0 0 88
0 0 88
0 0 88
0 0 76
0 0 88
0 0 44
0 0 52
0 0 0
0 0 0
0 0 0
0 0 0
0 0 0
0 0 0
0 0 0
0 0 0
0 0 0
0 0 0
0 0 0
0 0 0

0 0 88
0 0 112
0 0 100
0 0 88
0 0 100
0 0 88
0 0 88
0 0 88
0 0 88
0 0 88
0 0 100
0 0 88
0 0 88
0 0 88
0 0 88
0 0 0
0 0 100
0 0 100
0 0 100
0 0 88
0 0 88
0 0 64
0 0 64
0 0 0
0 0 88
0 0 100
0 0 64
0 0 88
0 0 64
0 0 64
0 0 88
0 0 88
0 0 88
0 0 88
0 0 64
0 0 64
0 0 100
0 0 100
0 0 88
0 0 76
0 0 76
0 0 28
0 0 28
0 0 0
0 0 0
0 0 76
0 0 88
0 0 76
0 0 88
0 0 76
0 0 64
0 0 52
0 0 0
0 0 0
0 0 88
0 0 88
0 0 88
0 0 88
0 0 0
0 0 112
0 0 112
0 0 112
0 0 112
0 0 112

0 0 112
0 0 100
0 0 88
0 0 64
0 0 88
0 0 112
0 0 100
0 0 88
0 0 64
0 0 88
0 0 88
0 0 64
0 0 88
0 0 64
0 0 64
0 0 0
0 0 100
0 0 100
0 0 64
0 0 112
0 0 112
0 0 64
0 0 112
0 0 0
0 0 88
0 0 88
0 0 88
0 0 88
0 0 112
0 0 88
0 0 64
0 0 88
0 0 88
0 0 88
0 0 64
0 0 64
0 0 64
0 0 88
0 0 88
0 0 64
0 0 52
0 0 28
0 0 28
0 0 0
0 0 0
0 0 76
0 0 76
0 0 64
0 0 64
0 0 64
0 0 64
0 0 44
0 0 0
0 0 0
0 0 88
0 0 100
0 0 64
0 0 64
0 0 0
0 0 112
0 0 112
0 0 88
0 0 100
0 0 112

0 0 112
0 0 100
0 0 64
0 0 64
0 0 64
0 0 88
0 0 88
0 0 64
0 0 52
0 0 52
0 0 64
0 0 64
0 0 64
0 0 64
0 0 64
0 0 0
0 0 100
0 0 112
0 0 112
0 0 100
0 0 76
0 0 64
0 0 64
0 0 0
0 0 88
0 0 100
0 0 64
0 0 88
0 0 112
0 0 88
0 0 64
0 0 64
0 0 64
0 0 64
0 0 52
0 0 52
0 0 64
0 0 64
0 0 64
0 0 64
0 0 52
0 0 28
0 0 28
0 0 0
0 0 0
0 0 76
0 0 64
0 0 44
0 0 44
0 0 44
0 0 64
0 0 52
0 0 0
0 0 0
0 0 88
0 0 100
0 0 100
0 0 64
0 0 0
0 0 112
0 0 88
0 0 100
0 0 100
0 0 100

0 0 100
0 0 88
0 0 64
0 0 100
0 0 100
0 0 64
0 0 64
0 0 64
0 0 52
0 0 52
0 0 52
0 0 64
0 0 64
0 0 52
0 0 52
0 0 0
0 0 100
0 0 112
0 0 100
0 0 100
0 0 88
0 0 64
0 0 64
0 0 0
0 0 88
0 0 100
0 0 88
0 0 88
0 0 88
0 0 64
0 0 88
0 0 64
0 0 64
0 0 64
0 0 52
0 0 52
0 0 44
0 0 44
0 0 44
0 0 52
0 0 52
0 0 44
0 0 28
0 0 0
0 0 0
0 0 64
0 0 64
0 0 44
0 0 64
0 0 44
0 0 44
0 0 52
0 0 0
0 0 0
0 0 88
0 0 64
0 0 64
0 0 44
0 0 0
0 0 112
0 0 112
0 0 112
0 0 100
0 0 100

0 0 88
0 0 64
0 0 64
0 0 100
0 0 112
0 0 100
0 0 76
0 0 64
0 0 64
0 0 52
0 0 52
0 0 64
0 0 44
0 0 52
0 0 52
0 0 0
0 0 100
0 0 112
0 0 76
0 0 88
0 0 88
0 0 88
0 0 64
0 0 0
0 0 88
0 0 88
0 0 88
0 0 64
0 0 64
0 0 64
0 0 64
0 0 64
0 0 64
0 0 44
0 0 64
0 0 52
0 0 44
0 0 52
0 0 52
0 0 44
0 0 44
0 0 44
0 0 28
0 0 0
0 0 0
0 0 64
0 0 64
0 0 52
0 0 44
0 0 44
0 0 52
0 0 52
0 0 0
0 0 0
0 0 88
0 0 44
0 0 64
0 0 44
0 0 0
0 0 112
0 0 112
0 0 100
0 0 100
0 0 100

0 0 88
0 0 88
0 0 64
0 0 76
0 0 100
0 0 100
0 0 76
0 0 76
0 0 64
0 0 64
0 0 76
0 0 76
0 0 64
0 0 64
0 0 52
0 0 0
0 0 100
0 0 76
0 0 112
0 0 76
0 0 88
0 0 88
0 0 64
0 0 0
0 0 0
0 0 0
0 0 0
0 0 0
0 0 0
0 0 0
0 0 0
0 0 0
0 0 0
0 0 0
0 0 0
0 0 0
0 0 0
0 0 0
0 0 0
0 0 0
0 0 0
0 0 0
0 0 0
0 0 0
0 0 0
0 0 0
0 0 0
0 0 0
0 0 0
0 0 0
0 0 0
0 0 0
0 0 0
0 0 0
0 0 0
0 0 0
0 0 0
0 0 0
0 0 0
0 0 112
0 0 112
0 0 88
0 0 88
0 0 76

0 0 100
0 0 64
0 0 64
0 0 64
0 0 76
0 0 88
0 0 76
0 0 76
0 0 76
0 0 76
0 0 76
0 0 76
0 0 64
0 0 44
0 0 28
0 0 0
0 0 100
0 0 76
0 0 76
0 0 64
0 0 64
0 0 64
0 0 44
0 0 0
0 0 0
0 0 0
0 0 0
0 0 0
0 0 0
0 0 0
0 0 0
0 0 0
0 0 0
0 0 0
0 0 0
0 0 0
0 0 0
0 0 0
0 0 0
0 0 0
0 0 0
0 0 0
0 0 0
0 0 0
0 0 0
0 0 0
0 0 0
0 0 0
0 0 0
0 0 100
0 0 100
0 0 100
0 0 100
0 0 100
0 0 100
0 0 100
0 0 100
0 0 0
0 0 0
0 0 112
0 0 88
0 0 88
0 0 76
0 0 64

0 0 100
0 0 88
0 0 64
0 0 64
0 0 64
0 0 64
0 0 76
0 0 64
0 0 76
0 0 76
0 0 76
0 0 76
0 0 64
0 0 52
0 0 28
0 0 0
0 0 100
0 0 112
0 0 64
0 0 64
0 0 64
0 0 44
0 0 64
0 0 0
0 0 0
0 0 100
0 0 100
0 0 100
0 0 100
0 0 100
0 0 100
0 0 100
0 0 100
0 0 100
0 0 100
0 0 100
0 0 100
0 0 100
0 0 100
0 0 100
0 0 100
0 0 100
0 0 100
0 0 100
0 0 100
0 0 64
0 0 88
0 0 0
0 0 0
0 0 100
0 0 124
0 0 100
0 0 124
0 0 88
0 0 88
0 0 88
0 0 76
0 0 0
0 0 0
0 0 112
0 0 100
0 0 88
0 0 76
0 0 64

0 0 100
0 0 100
0 0 64
0 0 64
0 0 100
0 0 64
0 0 64
0 0 64
0 0 76
0 0 76
0 0 76
0 0 64
0 0 44
0 0 44
0 0 28
0 0 0
0 0 88
0 0 112
0 0 64
0 0 64
0 0 64
0 0 64
0 0 44
0 0 0
0 0 0
0 0 100
0 0 112
0 0 100
0 0 88
0 0 112
0 0 112
0 0 112
0 0 100
0 0 112
0 0 88
0 0 100
0 0 88
0 0 112
0 0 100
0 0 64
0 0 88
0 0 112
0 0 112
0 0 112
0 0 64
0 0 88
0 0 44
0 0 0
0 0 0
0 0 100
0 0 124
0 0 100
0 0 124
0 0 124
0 0 88
0 0 76
0 0 64
0 0 0
0 0 0
0 0 112
0 0 112
0 0 100
0 0 76
0 0 64

0 0 100
0 0 88
0 0 64
0 0 64
0 0 64
0 0 100
0 0 100
0 0 64
0 0 64
0 0 76
0 0 76
0 0 76
0 0 64
0 0 44
0 0 52
0 0 0
0 0 88
0 0 64
0 0 64
0 0 64
0 0 64
0 0 44
0 0 64
0 0 0
0 0 0
0 0 100
0 0 112
0 0 88
0 0 100
0 0 124
0 0 124
0 0 112
0 0 112
0 0 100
0 0 112
0 0 88
0 0 112
0 0 88
0 0 88
0 0 112
0 0 112
0 0 88
0 0 88
0 0 88
0 0 88
0 0 64
0 0 28
0 0 0
0 0 0
0 0 100
0 0 124
0 0 124
0 0 124
0 0 124
0 0 88
0 0 76
0 0 64
0 0 0
0 0 0
0 0 112
0 0 100
0 0 112
0 0 88
0 0 88

0 0 88
0 0 64
0 0 64
0 0 64
0 0 88
0 0 100
0 0 100
0 0 88
0 0 64
0 0 76
0 0 76
0 0 76
0 0 64
0 0 44
0 0 52
0 0 0
0 0 64
0 0 64
0 0 28
0 0 28
0 0 28
0 0 28
0 0 64
0 0 0
0 0 0
0 0 100
0 0 100
0 0 88
0 0 112
0 0 124
0 0 124
0 0 124
0 0 112
0 0 112
0 0 100
0 0 112
0 0 100
0 0 64
0 0 88
0 0 64
0 0 64
0 0 88
0 0 64
0 0 64
0 0 88
0 0 44
0 0 28
0 0 0
0 0 0
0 0 100
0 0 100
0 0 88
0 0 124
0 0 88
0 0 64
0 0 88
0 0 64
0 0 0
0 0 0
0 0 112
0 0 112
0 0 112
0 0 88
0 0 88

0 0 100
0 0 64
0 0 100
0 0 64
0 0 64
0 0 88
0 0 100
0 0 88
0 0 64
0 0 64
0 0 64
0 0 64
0 0 64
0 0 44
0 0 28
0 0 0
0 0 0
0 0 0
0 0 0
0 0 0
0 0 0
0 0 0
0 0 0
0 0 0
0 0 0
0 0 100
0 0 112
0 0 112
0 0 100
0 0 100
0 0 124
0 0 124
0 0 88
0 0 88
0 0 112
0 0 64
0 0 88
0 0 88
0 0 64
0 0 64
0 0 64
0 0 64
0 0 88
0 0 64
0 0 64
0 0 44
0 0 28
0 0 0
0 0 0
0 0 100
0 0 124
0 0 88
0 0 88
0 0 88
0 0 88
0 0 76
0 0 64
0 0 0
0 0 0
0 0 112
0 0 112
0 0 112
0 0 100
0 0 100

0 0 88
0 0 64
0 0 64
0 0 88
0 0 88
0 0 64
0 0 88
0 0 88
0 0 52
0 0 52
0 0 28
0 0 64
0 0 44
0 0 44
0 0 28
0 0 0
0 0 0
0 0 0
0 0 0
0 0 0
0 0 0
0 0 0
0 0 0
0 0 0
0 0 0
0 0 100
0 0 100
0 0 112
0 0 100
0 0 100
0 0 100
0 0 88
0 0 88
0 0 88
0 0 112
0 0 88
0 0 88
0 0 88
0 0 64
0 0 64
0 0 64
0 0 64
0 0 64
0 0 44
0 0 44
0 0 44
0 0 64
0 0 0
0 0 0
0 0 100
0 0 124
0 0 124
0 0 88
0 0 88
0 0 76
0 0 76
0 0 64
0 0 0
0 0 0
0 0 112
0 0 88
0 0 88
0 0 112
0 0 100

0 0 88
0 0 64
0 0 64
0 0 88
0 0 88
0 0 88
0 0 64
0 0 64
0 0 52
0 0 28
0 0 28
0 0 28
0 0 64
0 0 44
0 0 28
0 0 0
0 0 0
0 0 100
0 0 100
0 0 100
0 0 100
0 0 88
0 0 88
0 0 0
0 0 0
0 0 100
0 0 88
0 0 88
0 0 112
0 0 100
0 0 64
0 0 64
0 0 88
0 0 112
0 0 100
0 0 64
0 0 88
0 0 88
0 0 64
0 0 64
0 0 64
0 0 64
0 0 64
0 0 64
0 0 64
0 0 44
0 0 44
0 0 0
0 0 0
0 0 100
0 0 124
0 0 124
0 0 76
0 0 64
0 0 88
0 0 88
0 0 44
0 0 0
0 0 0
0 0 112
0 0 88
0 0 88
0 0 100
0 0 100

0 0 88
0 0 64
0 0 64
0 0 64
0 0 88
0 0 88
0 0 64
0 0 64
0 0 52
0 0 28
0 0 28
0 0 28
0 0 44
0 0 28
0 0 28
0 0 0
0 0 0
0 0 100
0 0 100
0 0 64
0 0 88
0 0 64
0 0 64
0 0 0
0 0 0
0 0 100
0 0 112
0 0 100
0 0 112
0 0 100
0 0 64
0 0 64
0 0 88
0 0 88
0 0 88
0 0 64
0 0 88
0 0 88
0 0 88
0 0 64
0 0 64
0 0 64
0 0 44
0 0 64
0 0 64
0 0 52
0 0 28
0 0 0
0 0 0
0 0 100
0 0 100
0 0 124
0 0 76
0 0 64
0 0 76
0 0 88
0 0 44
0 0 0
0 0 0
0 0 112
0 0 112
0 0 88
0 0 76
0 0 76

0 0 88
0 0 64
0 0 76
0 0 64
0 0 64
0 0 64
0 0 64
0 0 64
0 0 64
0 0 52
0 0 28
0 0 28
0 0 28
0 0 28
0 0 28
0 0 0
0 0 0
0 0 100
0 0 88
0 0 88
0 0 64
0 0 64
0 0 64
0 0 0
0 0 0
0 0 100
0 0 112
0 0 112
0 0 88
0 0 100
0 0 100
0 0 100
0 0 64
0 0 88
0 0 64
0 0 64
0 0 64
0 0 88
0 0 88
0 0 64
0 0 44
0 0 64
0 0 44
0 0 64
0 0 64
0 0 52
0 0 28
0 0 0
0 0 0
0 0 100
0 0 100
0 0 88
0 0 76
0 0 100
0 0 88
0 0 88
0 0 64
0 0 0
0 0 0
0 0 112
0 0 88
0 0 76
0 0 64
0 0 64

0 0 88
0 0 76
0 0 88
0 0 64
0 0 64
0 0 76
0 0 76
0 0 64
0 0 52
0 0 64
0 0 52
0 0 44
0 0 28
0 0 28
0 0 0
0 0 0
0 0 0
0 0 100
0 0 88
0 0 64
0 0 64
0 0 64
0 0 64
0 0 0
0 0 0
0 0 100
0 0 112
0 0 88
0 0 64
0 0 88
0 0 100
0 0 100
0 0 88
0 0 88
0 0 64
0 0 64
0 0 64
0 0 64
0 0 64
0 0 64
0 0 64
0 0 44
0 0 64
0 0 64
0 0 44
0 0 44
0 0 28
0 0 0
0 0 0
0 0 100
0 0 100
0 0 124
0 0 76
0 0 100
0 0 100
0 0 76
0 0 64
0 0 0
0 0 0
0 0 112
0 0 76
0 0 64
0 0 64
0 0 64

0 0 88
0 0 88
0 0 76
0 0 64
0 0 64
0 0 76
0 0 76
0 0 52
0 0 28
0 0 52
0 0 52
0 0 44
0 0 28
0 0 0
0 0 28
0 0 0
0 0 0
0 0 100
0 0 100
0 0 88
0 0 100
0 0 64
0 0 44
0 0 0
0 0 0
0 0 100
0 0 88
0 0 88
0 0 112
0 0 64
0 0 88
0 0 88
0 0 64
0 0 64
0 0 64
0 0 52
0 0 64
0 0 64
0 0 52
0 0 52
0 0 64
0 0 64
0 0 64
0 0 52
0 0 64
0 0 52
0 0 28
0 0 0
0 0 0
0 0 100
0 0 88
0 0 124
0 0 88
0 0 76
0 0 64
0 0 64
0 0 44
0 0 0
0 0 0
0 0 112
0 0 112
0 0 76
0 0 64
0 0 64

0 0 76
0 0 76
0 0 64
0 0 64
0 0 64
0 0 64
0 0 64
0 0 52
0 0 28
0 0 28
0 0 28
0 0 44
0 0 44
0 0 28
0 0 0
0 0 0
0 0 0
0 0 100
0 0 100
0 0 100
0 0 64
0 0 64
0 0 64
0 0 0
0 0 0
0 0 100
0 0 64
0 0 112
0 0 64
0 0 88
0 0 88
0 0 64
0 0 64
0 0 64
0 0 64
0 0 64
0 0 52
0 0 52
0 0 64
0 0 52
0 0 44
0 0 44
0 0 64
0 0 52
0 0 52
0 0 52
0 0 28
0 0 0
0 0 0
0 0 100
0 0 124
0 0 88
0 0 88
0 0 76
0 0 44
0 0 64
0 0 64
0 0 0
0 0 0
0 0 112
0 0 100
0 0 88
0 0 64
0 0 64

0 0 76
0 0 76
0 0 64
0 0 76
0 0 76
0 0 64
0 0 64
0 0 52
0 0 28
0 0 28
0 0 28
0 0 44
0 0 44
0 0 28
0 0 0
0 0 0
0 0 0
0 0 100
0 0 100
0 0 100
0 0 88
0 0 44
0 0 44
0 0 0
0 0 0
0 0 100
0 0 88
0 0 112
0 0 64
0 0 88
0 0 88
0 0 64
0 0 64
0 0 64
0 0 44
0 0 52
0 0 52
0 0 52
0 0 52
0 0 44
0 0 44
0 0 44
0 0 44
0 0 64
0 0 52
0 0 52
0 0 28
0 0 0
0 0 0
0 0 100
0 0 124
0 0 88
0 0 76
0 0 64
0 0 52
0 0 52
0 0 44
0 0 0
0 0 0
0 0 112
0 0 88
0 0 88
0 0 76
0 0 64

0 0 76
0 0 64
0 0 64
0 0 76
0 0 76
0 0 64
0 0 64
0 0 52
0 0 28
0 0 52
0 0 28
0 0 44
0 0 44
0 0 64
0 0 28
0 0 0
0 0 0
0 0 100
0 0 88
0 0 76
0 0 44
0 0 64
0 0 64
0 0 0
0 0 0
0 0 100
0 0 88
0 0 64
0 0 88
0 0 88
0 0 64
0 0 44
0 0 44
0 0 44
0 0 44
0 0 64
0 0 52
0 0 52
0 0 52
0 0 44
0 0 44
0 0 28
0 0 28
0 0 28
0 0 28
0 0 28
0 0 28
0 0 0
0 0 0
0 0 100
0 0 124
0 0 88
0 0 64
0 0 64
0 0 52
0 0 52
0 0 52
0 0 0
0 0 0
0 0 112
0 0 100
0 0 88
0 0 88
0 0 64

0 0 64
0 0 64
0 0 64
0 0 64
0 0 64
0 0 52
0 0 52
0 0 28
0 0 52
0 0 28
0 0 28
0 0 44
0 0 28
0 0 28
0 0 28
0 0 0
0 0 0
0 0 100
0 0 76
0 0 64
0 0 100
0 0 44
0 0 64
0 0 0
0 0 0
0 0 0
0 0 0
0 0 0
0 0 0
0 0 0
0 0 0
0 0 0
0 0 0
0 0 0
0 0 0
0 0 0
0 0 0
0 0 0
0 0 0
0 0 0
0 0 0
0 0 0
0 0 0
0 0 0
0 0 0
0 0 0
0 0 0
0 0 0
0 0 0
0 0 88
0 0 100
0 0 88
0 0 76
0 0 64
0 0 64
0 0 52
0 0 52
0 0 0
0 0 0
0 0 112
0 0 100
0 0 100
0 0 76
0 0 64

0 0 64
0 0 64
0 0 64
0 0 64
0 0 64
0 0 52
0 0 52
0 0 28
0 0 28
0 0 28
0 0 64
0 0 64
0 0 28
0 0 28
0 0 28
0 0 0
0 0 0
0 0 100
0 0 100
0 0 76
0 0 100
0 0 64
0 0 44
0 0 0
0 0 0
0 0 0
0 0 0
0 0 0
0 0 0
0 0 0
0 0 0
0 0 0
0 0 0
0 0 0
0 0 0
0 0 0
0 0 0
0 0 0
0 0 0
0 0 0
0 0 0
0 0 0
0 0 0
0 0 0
0 0 0
0 0 0
0 0 0
0 0 0
0 0 0
0 0 88
0 0 100
0 0 100
0 0 88
0 0 76
0 0 44
0 0 64
0 0 64
0 0 0
0 0 0
0 0 112
0 0 112
0 0 76
0 0 64
0 0 64

0 0 64
0 0 64
0 0 64
0 0 64
0 0 64
0 0 64
0 0 52
0 0 52
0 0 28
0 0 28
0 0 64
0 0 28
0 0 28
0 0 64
0 0 64
0 0 0
0 0 0
0 0 100
0 0 100
0 0 76
0 0 64
0 0 44
0 0 64
0 0 0
0 0 0
0 0 88
0 0 88
0 0 88
0 0 88
0 0 88
0 0 88
0 0 88
0 0 88
0 0 88
0 0 88
0 0 88
0 0 88
0 0 88
0 0 88
0 0 88
0 0 88
0 0 88
0 0 88
0 0 88
0 0 88
0 0 88
0 0 88
0 0 0
0 0 0
0 0 88
0 0 100
0 0 88
0 0 112
0 0 88
0 0 64
0 0 64
0 0 64
0 0 0
0 0 0
0 0 112
0 0 100
0 0 64
0 0 64
0 0 64

0 0 0
0 0 0
0 0 0
0 0 0
0 0 0
0 0 0
0 0 0
0 0 0
0 0 0
0 0 0
0 0 0
0 0 0
0 0 0
0 0 0
0 0 0
0 0 0
0 0 0
0 0 100
0 0 100
0 0 76
0 0 64
0 0 44
0 0 44
0 0 0
0 0 0
0 0 88
0 0 112
0 0 112
0 0 112
0 0 112
0 0 112
0 0 112
0 0 100
0 0 88
0 0 88
0 0 88
0 0 88
0 0 88
0 0 88
0 0 88
0 0 64
0 0 64
0 0 64
0 0 112
0 0 64
0 0 88
0 0 64
0 0 0
0 0 0
0 0 88
0 0 124
0 0 88
0 0 88
0 0 112
0 0 64
0 0 44
0 0 44
0 0 0
0 0 0
0 0 0
0 0 0
0 0 0
0 0 0
0 0 0

0 0 0
0 0 0
0 0 0
0 0 0
0 0 0
0 0 28
0 0 28
0 0 64
0 0 64
0 0 64
0 0 64
0 0 64
0 0 64
0 0 64
0 0 64
0 0 0
0 0 0
0 0 88
0 0 100
0 0 64
0 0 64
0 0 64
0 0 44
0 0 0
0 0 0
0 0 100
0 0 112
0 0 124
0 0 124
0 0 112
0 0 88
0 0 88
0 0 100
0 0 100
0 0 100
0 0 76
0 0 76
0 0 76
0 0 88
0 0 88
0 0 76
0 0 76
0 0 76
0 0 64
0 0 64
0 0 64
0 0 64
0 0 0
0 0 0
0 0 88
0 0 88
0 0 88
0 0 88
0 0 64
0 0 64
0 0 44
0 0 52
0 0 0
0 0 0
0 0 64
0 0 64
0 0 64
0 0 64
0 0 0

0 0 0
0 0 64
0 0 88
0 0 100
0 0 112
0 0 112
0 0 112
0 0 112
0 0 112
0 0 112
0 0 112
0 0 112
0 0 112
0 0 112
0 0 112
0 0 0
0 0 0
0 0 88
0 0 88
0 0 64
0 0 64
0 0 64
0 0 64
0 0 0
0 0 0
0 0 100
0 0 112
0 0 124
0 0 124
0 0 124
0 0 100
0 0 100
0 0 100
0 0 100
0 0 100
0 0 76
0 0 76
0 0 64
0 0 64
0 0 76
0 0 76
0 0 76
0 0 76
0 0 64
0 0 64
0 0 64
0 0 64
0 0 0
0 0 0
0 0 88
0 0 124
0 0 88
0 0 64
0 0 64
0 0 44
0 0 44
0 0 52
0 0 0
0 0 0
0 0 64
0 0 76
0 0 76
0 0 64
0 0 0

0 0 0
0 0 88
0 0 112
0 0 112
0 0 112
0 0 112
0 0 112
0 0 100
0 0 88
0 0 100
0 0 112
0 0 88
0 0 88
0 0 88
0 0 112
0 0 0
0 0 0
0 0 88
0 0 88
0 0 64
0 0 44
0 0 64
0 0 64
0 0 0
0 0 0
0 0 100
0 0 112
0 0 112
0 0 112
0 0 112
0 0 100
0 0 100
0 0 100
0 0 100
0 0 100
0 0 76
0 0 64
0 0 64
0 0 100
0 0 100
0 0 100
0 0 76
0 0 76
0 0 64
0 0 64
0 0 64
0 0 64
0 0 0
0 0 0
0 0 88
0 0 100
0 0 64
0 0 52
0 0 52
0 0 44
0 0 52
0 0 52
0 0 0
0 0 0
0 0 64
0 0 76
0 0 76
0 0 64
0 0 0

0 0 0
0 0 88
0 0 112
0 0 100
0 0 100
0 0 88
0 0 100
0 0 100
0 0 112
0 0 112
0 0 112
0 0 64
0 0 88
0 0 112
0 0 112
0 0 0
0 0 0
0 0 88
0 0 76
0 0 64
0 0 28
0 0 28
0 0 28
0 0 0
0 0 0
0 0 100
0 0 112
0 0 112
0 0 100
0 0 112
0 0 100
0 0 100
0 0 100
0 0 64
0 0 88
0 0 76
0 0 76
0 0 64
0 0 100
0 0 100
0 0 100
0 0 100
0 0 64
0 0 64
0 0 64
0 0 64
0 0 64
0 0 0
0 0 0
0 0 88
0 0 88
0 0 64
0 0 52
0 0 52
0 0 44
0 0 44
0 0 44
0 0 0
0 0 0
0 0 64
0 0 64
0 0 64
0 0 44
0 0 0

0 0 0
0 0 112
0 0 112
0 0 112
0 0 100
0 0 100
0 0 112
0 0 112
0 0 76
0 0 76
0 0 88
0 0 112
0 0 112
0 0 64
0 0 100
0 0 0
0 0 0
0 0 0
0 0 0
0 0 0
0 0 0
0 0 0
0 0 0
0 0 0
0 0 0
0 0 88
0 0 100
0 0 112
0 0 100
0 0 112
0 0 112
0 0 88
0 0 88
0 0 112
0 0 88
0 0 88
0 0 76
0 0 76
0 0 64
0 0 64
0 0 100
0 0 100
0 0 44
0 0 64
0 0 64
0 0 44
0 0 64
0 0 0
0 0 0
0 0 64
0 0 64
0 0 64
0 0 44
0 0 44
0 0 44
0 0 64
0 0 64
0 0 0
0 0 0
0 0 64
0 0 64
0 0 64
0 0 44
0 0 0

0 0 0
0 0 112
0 0 88
0 0 100
0 0 88
0 0 100
0 0 100
0 0 100
0 0 76
0 0 64
0 0 64
0 0 112
0 0 88
0 0 64
0 0 64
0 0 0
0 0 0
0 0 0
0 0 0
0 0 0
0 0 0
0 0 0
0 0 0
0 0 0
0 0 0
0 0 88
0 0 88
0 0 100
0 0 112
0 0 88
0 0 88
0 0 112
0 0 88
0 0 112
0 0 88
0 0 88
0 0 88
0 0 88
0 0 44
0 0 64
0 0 64
0 0 64
0 0 64
0 0 64
0 0 44
0 0 64
0 0 44
0 0 0
0 0 0
0 0 0
0 0 0
0 0 0
0 0 0
0 0 0
0 0 0
0 0 0
0 0 0
0 0 0
0 0 0
0 0 64
0 0 64
0 0 44
0 0 64
0 0 0

0 0 0
0 0 112
0 0 112
0 0 100
0 0 76
0 0 76
0 0 100
0 0 100
0 0 88
0 0 64
0 0 64
0 0 88
0 0 112
0 0 112
0 0 88
0 0 0
0 0 0
0 0 112
0 0 112
0 0 100
0 0 88
0 0 88
0 0 64
0 0 0
0 0 0
0 0 88
0 0 88
0 0 100
0 0 112
0 0 88
0 0 76
0 0 76
0 0 100
0 0 88
0 0 88
0 0 88
0 0 64
0 0 64
0 0 64
0 0 44
0 0 64
0 0 64
0 0 44
0 0 44
0 0 44
0 0 44
0 0 64
0 0 0
0 0 0
0 0 0
0 0 0
0 0 0
0 0 0
0 0 0
0 0 0
0 0 0
0 0 0
0 0 0
0 0 0
0 0 0
0 0 0
0 0 0
0 0 0
0 0 0

0 0 0
0 0 112
0 0 112
0 0 76
0 0 88
0 0 112
0 0 100
0 0 76
0 0 88
0 0 100
0 0 100
0 0 100
0 0 64
0 0 88
0 0 88
0 0 0
0 0 0
0 0 112
0 0 76
0 0 112
0 0 76
0 0 76
0 0 64
0 0 0
0 0 0
0 0 88
0 0 112
0 0 112
0 0 112
0 0 100
0 0 76
0 0 64
0 0 112
0 0 112
0 0 112
0 0 88
0 0 76
0 0 64
0 0 44
0 0 64
0 0 44
0 0 44
0 0 64
0 0 44
0 0 44
0 0 44
0 0 64
0 0 0
0 0 0
0 0 100
0 0 100
0 0 100
0 0 100
0 0 112
0 0 112
0 0 112
0 0 112
0 0 112
0 0 112
0 0 112
0 0 112
0 0 112
0 0 112
0 0 0

0 0 0
0 0 112
0 0 112
0 0 112
0 0 112
0 0 88
0 0 76
0 0 112
0 0 64
0 0 100
0 0 76
0 0 76
0 0 88
0 0 64
0 0 88
0 0 0
0 0 0
0 0 112
0 0 88
0 0 100
0 0 100
0 0 64
0 0 64
0 0 0
0 0 0
0 0 88
0 0 100
0 0 88
0 0 88
0 0 100
0 0 100
0 0 100
0 0 112
0 0 112
0 0 112
0 0 112
0 0 88
0 0 76
0 0 64
0 0 64
0 0 44
0 0 64
0 0 44
0 0 44
0 0 44
0 0 44
0 0 52
0 0 0
0 0 0
0 0 100
0 0 100
0 0 88
0 0 88
0 0 100
0 0 100
0 0 100
0 0 100
0 0 88
0 0 64
0 0 112
0 0 88
0 0 88
0 0 64
0 0 0

0 0 0
0 0 112
0 0 88
0 0 112
0 0 76
0 0 88
0 0 88
0 0 112
0 0 100
0 0 76
0 0 64
0 0 64
0 0 76
0 0 88
0 0 88
0 0 0
0 0 0
0 0 112
0 0 112
0 0 76
0 0 88
0 0 76
0 0 64
0 0 0
0 0 0
0 0 88
0 0 112
0 0 88
0 0 88
0 0 88
0 0 64
0 0 88
0 0 112
0 0 112
0 0 112
0 0 112
0 0 88
0 0 88
0 0 76
0 0 44
0 0 44
0 0 44
0 0 44
0 0 44
0 0 28
0 0 64
0 0 52
0 0 0
0 0 0
0 0 100
0 0 88
0 0 100
0 0 112
0 0 88
0 0 100
0 0 100
0 0 100
0 0 64
0 0 88
0 0 88
0 0 88
0 0 64
0 0 64
0 0 0

0 0 0
0 0 112
0 0 100
0 0 76
0 0 76
0 0 112
0 0 124
0 0 112
0 0 88
0 0 64
0 0 88
0 0 64
0 0 76
0 0 88
0 0 88
0 0 0
0 0 0
0 0 112
0 0 100
0 0 88
0 0 88
0 0 76
0 0 88
0 0 0
0 0 0
0 0 88
0 0 112
0 0 112
0 0 88
0 0 88
0 0 112
0 0 76
0 0 76
0 0 112
0 0 112
0 0 112
0 0 88
0 0 88
0 0 76
0 0 64
0 0 44
0 0 44
0 0 64
0 0 28
0 0 0
0 0 28
0 0 28
0 0 0
0 0 0
0 0 100
0 0 112
0 0 112
0 0 112
0 0 100
0 0 100
0 0 100
0 0 100
0 0 76
0 0 64
0 0 88
0 0 64
0 0 64
0 0 52
0 0 0

0 0 0
0 0 112
0 0 88
0 0 112
0 0 88
0 0 124
0 0 152
0 0 124
0 0 76
0 0 76
0 0 88
0 0 76
0 0 64
0 0 64
0 0 76
0 0 0
0 0 0
0 0 112
0 0 100
0 0 88
0 0 64
0 0 88
0 0 64
0 0 0
0 0 0
0 0 88
0 0 88
0 0 112
0 0 76
0 0 76
0 0 76
0 0 64
0 0 64
0 0 76
0 0 88
0 0 88
0 0 88
0 0 76
0 0 64
0 0 64
0 0 64
0 0 64
0 0 44
0 0 44
0 0 28
0 0 0
0 0 28
0 0 0
0 0 0
0 0 100
0 0 76
0 0 112
0 0 76
0 0 76
0 0 100
0 0 100
0 0 100
0 0 88
0 0 88
0 0 76
0 0 64
0 0 52
0 0 44
0 0 0

0 0 0
0 0 112
0 0 100
0 0 112
0 0 100
0 0 112
0 0 124
0 0 112
0 0 88
0 0 64
0 0 76
0 0 88
0 0 64
0 0 64
0 0 76
0 0 0
0 0 0
0 0 112
0 0 88
0 0 100
0 0 100
0 0 64
0 0 64
0 0 0
0 0 0
0 0 88
0 0 88
0 0 112
0 0 88
0 0 76
0 0 76
0 0 64
0 0 64
0 0 64
0 0 76
0 0 76
0 0 76
0 0 44
0 0 44
0 0 64
0 0 44
0 0 64
0 0 64
0 0 28
0 0 28
0 0 28
0 0 0
0 0 0
0 0 0
0 0 100
0 0 112
0 0 100
0 0 64
0 0 64
0 0 76
0 0 88
0 0 88
0 0 88
0 0 76
0 0 76
0 0 64
0 0 44
0 0 52
0 0 0

0 0 0
0 0 112
0 0 88
0 0 112
0 0 100
0 0 100
0 0 100
0 0 76
0 0 64
0 0 64
0 0 64
0 0 64
0 0 76
0 0 64
0 0 52
0 0 0
0 0 0
0 0 112
0 0 112
0 0 100
0 0 76
0 0 76
0 0 64
0 0 0
0 0 0
0 0 88
0 0 64
0 0 112
0 0 112
0 0 76
0 0 76
0 0 64
0 0 64
0 0 64
0 0 64
0 0 64
0 0 64
0 0 64
0 0 44
0 0 44
0 0 64
0 0 44
0 0 44
0 0 28
0 0 0
0 0 28
0 0 0
0 0 0
0 0 0
0 0 100
0 0 100
0 0 88
0 0 76
0 0 64
0 0 64
0 0 88
0 0 76
0 0 64
0 0 64
0 0 64
0 0 44
0 0 44
0 0 52
0 0 0

0 0 0
0 0 88
0 0 112
0 0 100
0 0 100
0 0 88
0 0 76
0 0 64
0 0 64
0 0 88
0 0 76
0 0 64
0 0 64
0 0 64
0 0 52
0 0 0
0 0 0
0 0 112
0 0 100
0 0 88
0 0 76
0 0 76
0 0 76
0 0 0
0 0 0
0 0 88
0 0 112
0 0 64
0 0 88
0 0 112
0 0 88
0 0 64
0 0 64
0 0 64
0 0 64
0 0 64
0 0 64
0 0 44
0 0 44
0 0 64
0 0 44
0 0 64
0 0 44
0 0 28
0 0 28
0 0 0
0 0 0
0 0 0
0 0 0
0 0 100
0 0 100
0 0 76
0 0 88
0 0 64
0 0 64
0 0 88
0 0 64
0 0 64
0 0 64
0 0 76
0 0 76
0 0 44
0 0 44
0 0 0

0 0 0
0 0 112
0 0 88
0 0 112
0 0 100
0 0 76
0 0 64
0 0 100
0 0 64
0 0 88
0 0 88
0 0 76
0 0 52
0 0 52
0 0 44
0 0 0
0 0 0
0 0 112
0 0 88
0 0 112
0 0 64
0 0 76
0 0 76
0 0 0
0 0 0
0 0 88
0 0 112
0 0 88
0 0 88
0 0 88
0 0 64
0 0 64
0 0 88
0 0 88
0 0 64
0 0 64
0 0 44
0 0 64
0 0 44
0 0 44
0 0 44
0 0 44
0 0 44
0 0 44
0 0 28
0 0 28
0 0 0
0 0 0
0 0 0
0 0 100
0 0 100
0 0 112
0 0 100
0 0 64
0 0 100
0 0 100
0 0 76
0 0 64
0 0 64
0 0 76
0 0 76
0 0 76
0 0 44
0 0 0

0 0 0
0 0 112
0 0 88
0 0 112
0 0 88
0 0 76
0 0 64
0 0 64
0 0 64
0 0 76
0 0 88
0 0 76
0 0 52
0 0 52
0 0 52
0 0 0
0 0 0
0 0 112
0 0 112
0 0 88
0 0 64
0 0 64
0 0 64
0 0 0
0 0 0
0 0 88
0 0 88
0 0 88
0 0 64
0 0 64
0 0 64
0 0 64
0 0 88
0 0 88
0 0 88
0 0 64
0 0 64
0 0 64
0 0 64
0 0 44
0 0 44
0 0 44
0 0 28
0 0 28
0 0 28
0 0 0
0 0 28
0 0 0
0 0 0
0 0 112
0 0 112
0 0 100
0 0 64
0 0 88
0 0 100
0 0 100
0 0 100
0 0 76
0 0 52
0 0 64
0 0 76
0 0 76
0 0 64
0 0 0

0 0 0
0 0 100
0 0 88
0 0 76
0 0 76
0 0 76
0 0 88
0 0 64
0 0 64
0 0 64
0 0 76
0 0 76
0 0 64
0 0 52
0 0 52
0 0 0
0 0 0
0 0 112
0 0 100
0 0 88
0 0 64
0 0 64
0 0 44
0 0 0
0 0 0
0 0 88
0 0 100
0 0 88
0 0 64
0 0 64
0 0 112
0 0 88
0 0 64
0 0 88
0 0 88
0 0 44
0 0 44
0 0 64
0 0 64
0 0 64
0 0 44
0 0 44
0 0 28
0 0 0
0 0 28
0 0 28
0 0 0
0 0 0
0 0 0
0 0 112
0 0 100
0 0 88
0 0 64
0 0 88
0 0 88
0 0 100
0 0 100
0 0 76
0 0 52
0 0 52
0 0 52
0 0 64
0 0 64
0 0 0

0 0 0
0 0 100
0 0 88
0 0 76
0 0 76
0 0 64
0 0 64
0 0 88
0 0 64
0 0 64
0 0 64
0 0 44
0 0 64
0 0 44
0 0 44
0 0 0
0 0 0
0 0 100
0 0 88
0 0 76
0 0 64
0 0 64
0 0 44
0 0 0
0 0 0
0 0 88
0 0 100
0 0 112
0 0 64
0 0 112
0 0 112
0 0 88
0 0 44
0 0 64
0 0 64
0 0 64
0 0 44
0 0 44
0 0 64
0 0 64
0 0 44
0 0 44
0 0 44
0 0 28
0 0 0
0 0 28
0 0 28
0 0 0
0 0 0
0 0 112
0 0 100
0 0 88
0 0 112
0 0 88
0 0 88
0 0 76
0 0 76
0 0 76
0 0 64
0 0 52
0 0 52
0 0 44
0 0 44
0 0 0

0 0 0
0 0 88
0 0 88
0 0 76
0 0 64
0 0 52
0 0 64
0 0 44
0 0 64
0 0 44
0 0 64
0 0 64
0 0 52
0 0 52
0 0 52
0 0 0
0 0 0
0 0 100
0 0 88
0 0 64
0 0 64
0 0 64
0 0 64
0 0 0
0 0 0
0 0 88
0 0 88
0 0 100
0 0 112
0 0 88
0 0 64
0 0 64
0 0 44
0 0 64
0 0 44
0 0 64
0 0 44
0 0 44
0 0 44
0 0 44
0 0 28
0 0 28
0 0 28
0 0 44
0 0 28
0 0 0
0 0 28
0 0 0
0 0 0
0 0 112
0 0 112
0 0 112
0 0 76
0 0 88
0 0 64
0 0 64
0 0 64
0 0 64
0 0 64
0 0 52
0 0 64
0 0 52
0 0 52
0 0 0

0 0 0
0 0 88
0 0 76
0 0 76
0 0 64
0 0 52
0 0 52
0 0 44
0 0 44
0 0 64
0 0 44
0 0 52
0 0 52
0 0 44
0 0 44
0 0 44
0 0 44
0 0 88
0 0 76
0 0 64
0 0 64
0 0 44
0 0 64
0 0 44
0 0 44
0 0 88
0 0 88
0 0 64
0 0 88
0 0 64
0 0 44
0 0 64
0 0 44
0 0 44
0 0 44
0 0 44
0 0 64
0 0 44
0 0 64
0 0 28
0 0 28
0 0 28
0 0 0
0 0 28
0 0 44
0 0 28
0 0 44
0 0 44
0 0 44
0 0 112
0 0 88
0 0 88
0 0 64
0 0 64
0 0 88
0 0 52
0 0 52
0 0 44
0 0 64
0 0 52
0 0 44
0 0 44
0 0 52
0 0 0

0 0 0
0 0 76
0 0 64
0 0 64
0 0 64
0 0 64
0 0 52
0 0 44
0 0 52
0 0 44
0 0 44
0 0 52
0 0 52
0 0 44
0 0 52
44 44 44
44 44 44
0 0 88
0 0 64
0 0 64
0 0 44
0 0 44
0 0 64
44 44 44
44 44 44
0 0 88
0 0 64
0 0 64
0 0 64
0 0 64
0 0 64
0 0 44
0 0 44
0 0 44
0 0 64
0 0 44
0 0 44
0 0 44
0 0 44
0 0 28
0 0 44
0 0 0
0 0 28
0 0 0
0 0 28
0 0 64
0 0 64
44 44 44
44 44 44
0 0 112
0 0 88
0 0 112
0 0 88
0 0 64
0 0 64
0 0 52
0 0 52
0 0 44
0 0 64
0 0 52
0 0 52
0 0 52
0 0 44
0 0 0

56 56 56
0 0 124
0 0 136
0 0 136
0 0 136
0 0 136
0 0 136
0 0 124
0 0 124
0 0 124
0 0 124
0 0 124
0 0 124
0 0 124
0 0 124
72 72 72
72 72 72
0 0 124
0 0 136
0 0 136
0 0 136
0 0 124
0 0 124
72 72 72
72 72 72
0 0 124
0 0 136
0 0 136
0 0 136
0 0 136
0 0 136
0 0 136
0 0 124
0 0 124
0 0 124
0 0 124
0 0 124
0 0 124
0 0 124
0 0 124
0 0 124
0 0 124
0 0 124
0 0 124
0 0 124
0 0 124
0 0 124
72 72 72
72 72 72
0 0 124
0 0 136
0 0 136
0 0 136
0 0 136
0 0 124
0 0 124
0 0 124
0 0 124
0 0 124
0 0 124
0 0 124
0 0 124
0 0 124
56 56 56

