P3
# ASCII PPM file
64 64
255

56 56 56
0 0 100
0 0 100
0 0 100
0 0 100
0 0 100
0 0 100
0 0 100
0 0 100
0 0 100
0 0 100
0 0 100
0 0 100
0 0 100
0 0 100
0 0 100
0 0 100
0 0 100
0 0 100
0 0 100
0 0 100
0 0 100
0 0 100
0 0 100
0 0 100
0 0 100
0 0 100
0 0 100
56 56 56
56 56 56
0 0 100
0 0 100
0 0 100
0 0 100
0 0 100
0 0 100
0 0 100
0 0 100
0 0 100
0 0 100
0 0 100
0 0 100
0 0 100
56 56 56
56 56 56
0 0 100
0 0 100
0 0 100
0 0 100
0 0 100
0 0 100
0 0 100
0 0 100
0 0 100
0 0 100
0 0 100
0 0 100
56 56 56
0 0 100
0 0 100
0 0 100
0 0 100
0 0 100
56 56 56

32 32 32
0 0 100
0 0 100
0 0 100
0 0 100
0 0 100
0 0 100
0 0 100
0 0 100
0 0 100
0 0 100
0 0 100
0 0 112
0 0 112
0 0 112
0 0 100
0 0 100
0 0 100
0 0 100
0 0 100
0 0 100
0 0 100
0 0 88
0 0 88
0 0 88
0 0 76
0 0 64
0 0 64
32 32 32
32 32 32
0 0 100
0 0 100
0 0 100
0 0 100
0 0 100
0 0 100
0 0 100
0 0 100
0 0 88
0 0 76
0 0 76
0 0 76
0 0 76
32 32 32
32 32 32
0 0 100
0 0 100
0 0 100
0 0 100
0 0 100
0 0 100
0 0 100
0 0 100
0 0 76
0 0 76
0 0 44
0 0 44
32 32 32
0 0 112
0 0 112
0 0 112
0 0 112
0 0 88
0 0 44

0 0 0
0 0 100
0 0 100
0 0 100
0 0 76
0 0 100
0 0 64
0 0 100
0 0 100
0 0 88
0 0 64
0 0 88
0 0 100
0 0 112
0 0 112
0 0 100
0 0 88
0 0 64
0 0 64
0 0 100
0 0 76
0 0 64
0 0 64
0 0 64
0 0 64
0 0 44
0 0 28
0 0 28
0 0 0
0 0 0
0 0 100
0 0 100
0 0 88
0 0 88
0 0 76
0 0 100
0 0 100
0 0 88
0 0 76
0 0 76
0 0 76
0 0 76
0 0 44
0 0 0
0 0 0
0 0 100
0 0 124
0 0 112
0 0 124
0 0 112
0 0 124
0 0 124
0 0 124
0 0 124
0 0 124
0 0 88
0 0 64
0 0 0
0 0 112
0 0 112
0 0 76
0 0 88
0 0 76
0 0 0

0 0 0
0 0 100
0 0 88
0 0 64
0 0 76
0 0 88
0 0 88
0 0 88
0 0 64
0 0 100
0 0 100
0 0 88
0 0 76
0 0 100
0 0 112
0 0 112
0 0 100
0 0 76
0 0 64
0 0 64
0 0 88
0 0 88
0 0 64
0 0 64
0 0 64
0 0 44
0 0 28
0 0 28
0 0 0
0 0 0
0 0 100
0 0 88
0 0 100
0 0 100
0 0 76
0 0 88
0 0 88
0 0 64
0 0 76
0 0 64
0 0 100
0 0 28
0 0 28
0 0 0
0 0 0
0 0 100
0 0 112
0 0 124
0 0 124
0 0 100
0 0 124
0 0 136
0 0 112
0 0 124
0 0 100
0 0 88
0 0 64
0 0 0
0 0 100
0 0 100
0 0 112
0 0 88
0 0 44
0 0 0

0 0 0
0 0 100
0 0 76
0 0 100
0 0 44
0 0 88
0 0 112
0 0 112
0 0 64
0 0 64
0 0 88
0 0 88
0 0 64
0 0 64
0 0 100
0 0 100
0 0 76
0 0 64
0 0 88
0 0 44
0 0 64
0 0 44
0 0 44
0 0 64
0 0 44
0 0 64
0 0 44
0 0 28
0 0 0
0 0 0
0 0 100
0 0 88
0 0 76
0 0 76
0 0 88
0 0 88
0 0 64
0 0 76
0 0 64
0 0 44
0 0 44
0 0 28
0 0 28
0 0 0
0 0 0
0 0 100
0 0 124
0 0 112
0 0 100
0 0 136
0 0 124
0 0 112
0 0 100
0 0 88
0 0 76
0 0 76
0 0 44
0 0 0
0 0 76
0 0 44
0 0 64
0 0 64
0 0 44
0 0 0

0 0 0
0 0 100
0 0 76
0 0 64
0 0 100
0 0 88
0 0 112
0 0 112
0 0 112
0 0 88
0 0 64
0 0 88
0 0 100
0 0 64
0 0 64
0 0 76
0 0 76
0 0 64
0 0 76
0 0 76
0 0 44
0 0 44
0 0 64
0 0 44
0 0 64
0 0 64
0 0 64
0 0 44
0 0 0
0 0 0
0 0 100
0 0 100
0 0 76
0 0 100
0 0 100
0 0 64
0 0 44
0 0 44
0 0 44
0 0 76
0 0 64
0 0 44
0 0 28
0 0 0
0 0 0
0 0 100
0 0 124
0 0 100
0 0 136
0 0 176
0 0 136
0 0 100
0 0 124
0 0 100
0 0 88
0 0 44
0 0 64
0 0 0
0 0 88
0 0 76
0 0 44
0 0 44
0 0 44
0 0 0

0 0 0
0 0 100
0 0 88
0 0 88
0 0 88
0 0 88
0 0 88
0 0 112
0 0 112
0 0 88
0 0 64
0 0 64
0 0 64
0 0 44
0 0 76
0 0 44
0 0 76
0 0 44
0 0 76
0 0 76
0 0 76
0 0 64
0 0 44
0 0 64
0 0 52
0 0 64
0 0 64
0 0 44
0 0 0
0 0 0
0 0 100
0 0 100
0 0 100
0 0 76
0 0 76
0 0 64
0 0 44
0 0 76
0 0 76
0 0 76
0 0 44
0 0 64
0 0 44
0 0 0
0 0 0
0 0 100
0 0 112
0 0 124
0 0 100
0 0 124
0 0 124
0 0 100
0 0 100
0 0 112
0 0 64
0 0 64
0 0 44
0 0 0
0 0 88
0 0 64
0 0 44
0 0 44
0 0 44
0 0 0

0 0 0
0 0 100
0 0 100
0 0 88
0 0 88
0 0 88
0 0 88
0 0 88
0 0 88
0 0 64
0 0 44
0 0 76
0 0 76
0 0 88
0 0 88
0 0 88
0 0 64
0 0 64
0 0 64
0 0 76
0 0 44
0 0 44
0 0 64
0 0 44
0 0 44
0 0 44
0 0 44
0 0 44
0 0 0
0 0 0
0 0 100
0 0 100
0 0 76
0 0 64
0 0 76
0 0 76
0 0 76
0 0 64
0 0 76
0 0 64
0 0 44
0 0 44
0 0 44
0 0 0
0 0 0
0 0 100
0 0 112
0 0 124
0 0 112
0 0 100
0 0 112
0 0 112
0 0 112
0 0 100
0 0 64
0 0 44
0 0 64
0 0 0
0 0 88
0 0 44
0 0 44
0 0 44
0 0 44
0 0 0

0 0 0
0 0 100
0 0 88
0 0 64
0 0 88
0 0 64
0 0 64
0 0 88
0 0 88
0 0 64
0 0 88
0 0 64
0 0 64
0 0 88
0 0 88
0 0 88
0 0 64
0 0 64
0 0 64
0 0 76
0 0 44
0 0 44
0 0 44
0 0 44
0 0 64
0 0 52
0 0 28
0 0 28
0 0 0
0 0 0
0 0 100
0 0 88
0 0 76
0 0 76
0 0 44
0 0 76
0 0 100
0 0 100
0 0 64
0 0 44
0 0 64
0 0 28
0 0 28
0 0 0
0 0 0
0 0 100
0 0 112
0 0 136
0 0 112
0 0 112
0 0 124
0 0 100
0 0 100
0 0 100
0 0 88
0 0 44
0 0 44
0 0 0
0 0 0
0 0 0
0 0 0
0 0 0
0 0 0
0 0 0

0 0 0
0 0 100
0 0 76
0 0 76
0 0 76
0 0 64
0 0 64
0 0 64
0 0 88
0 0 64
0 0 64
0 0 76
0 0 64
0 0 64
0 0 88
0 0 88
0 0 64
0 0 28
0 0 28
0 0 64
0 0 64
0 0 44
0 0 44
0 0 52
0 0 64
0 0 52
0 0 28
0 0 28
0 0 0
0 0 0
0 0 100
0 0 76
0 0 76
0 0 44
0 0 64
0 0 64
0 0 76
0 0 76
0 0 44
0 0 44
0 0 44
0 0 28
0 0 28
0 0 0
0 0 0
0 0 100
0 0 112
0 0 124
0 0 100
0 0 112
0 0 100
0 0 100
0 0 76
0 0 88
0 0 76
0 0 44
0 0 44
0 0 0
0 0 88
0 0 112
0 0 112
0 0 112
0 0 100
0 0 0

0 0 0
0 0 88
0 0 64
0 0 76
0 0 100
0 0 76
0 0 76
0 0 88
0 0 88
0 0 64
0 0 64
0 0 64
0 0 64
0 0 44
0 0 76
0 0 44
0 0 64
0 0 28
0 0 28
0 0 28
0 0 64
0 0 44
0 0 52
0 0 64
0 0 64
0 0 64
0 0 44
0 0 28
0 0 0
0 0 0
0 0 88
0 0 76
0 0 64
0 0 64
0 0 44
0 0 76
0 0 76
0 0 44
0 0 64
0 0 64
0 0 44
0 0 44
0 0 44
0 0 0
0 0 0
0 0 100
0 0 112
0 0 124
0 0 124
0 0 100
0 0 124
0 0 100
0 0 76
0 0 76
0 0 64
0 0 44
0 0 44
0 0 0
0 0 100
0 0 112
0 0 88
0 0 112
0 0 76
0 0 0

0 0 0
0 0 88
0 0 76
0 0 88
0 0 64
0 0 64
0 0 100
0 0 76
0 0 44
0 0 64
0 0 64
0 0 64
0 0 44
0 0 64
0 0 64
0 0 44
0 0 44
0 0 64
0 0 28
0 0 28
0 0 44
0 0 64
0 0 44
0 0 44
0 0 52
0 0 52
0 0 44
0 0 44
0 0 0
0 0 0
0 0 88
0 0 76
0 0 64
0 0 44
0 0 64
0 0 44
0 0 76
0 0 44
0 0 28
0 0 28
0 0 44
0 0 44
0 0 0
0 0 0
0 0 0
0 0 100
0 0 112
0 0 124
0 0 124
0 0 112
0 0 100
0 0 76
0 0 100
0 0 88
0 0 64
0 0 44
0 0 44
0 0 0
0 0 88
0 0 100
0 0 76
0 0 88
0 0 44
0 0 0

0 0 0
0 0 88
0 0 64
0 0 88
0 0 64
0 0 44
0 0 76
0 0 76
0 0 64
0 0 44
0 0 64
0 0 44
0 0 64
0 0 44
0 0 44
0 0 64
0 0 44
0 0 44
0 0 44
0 0 28
0 0 28
0 0 44
0 0 44
0 0 44
0 0 44
0 0 44
0 0 44
0 0 0
0 0 0
0 0 0
0 0 88
0 0 64
0 0 76
0 0 64
0 0 64
0 0 64
0 0 44
0 0 44
0 0 28
0 0 28
0 0 28
0 0 44
0 0 44
0 0 0
0 0 0
0 0 100
0 0 112
0 0 124
0 0 124
0 0 100
0 0 88
0 0 88
0 0 64
0 0 76
0 0 44
0 0 44
0 0 44
0 0 0
0 0 88
0 0 100
0 0 88
0 0 44
0 0 44
0 0 0

0 0 0
0 0 88
0 0 88
0 0 64
0 0 64
0 0 64
0 0 28
0 0 28
0 0 44
0 0 44
0 0 44
0 0 28
0 0 28
0 0 28
0 0 28
0 0 28
0 0 28
0 0 28
0 0 28
0 0 28
0 0 28
0 0 28
0 0 28
0 0 28
0 0 28
0 0 28
0 0 28
0 0 28
32 32 32
32 32 32
0 0 28
0 0 28
0 0 28
0 0 28
0 0 28
0 0 28
0 0 28
0 0 28
0 0 28
0 0 28
0 0 28
0 0 28
0 0 28
32 32 32
32 32 32
0 0 44
0 0 44
0 0 44
0 0 44
0 0 44
0 0 44
0 0 44
0 0 44
0 0 64
0 0 64
0 0 44
0 0 44
0 0 0
0 0 76
0 0 76
0 0 64
0 0 44
0 0 44
0 0 0

0 0 0
0 0 88
0 0 64
0 0 88
0 0 44
0 0 44
0 0 28
0 0 28
0 0 64
0 0 44
0 0 44
0 0 28
100 100 100
100 100 100
72 72 72
72 72 72
72 72 72
72 72 72
72 72 72
72 72 72
72 72 72
72 72 72
72 72 72
72 72 72
72 72 72
72 72 72
72 72 72
72 72 72
72 72 72
72 72 72
72 72 72
72 72 72
72 72 72
72 72 72
72 72 72
72 72 72
72 72 72
72 72 72
72 72 72
72 72 72
72 72 72
72 72 72
72 72 72
72 72 72
72 72 72
72 72 72
72 72 72
72 72 72
72 72 72
56 56 56
56 56 56
44 44 44
0 0 0
0 0 44
0 0 64
0 0 64
0 0 44
0 0 0
0 0 64
0 0 44
0 0 44
0 0 44
0 0 44
0 0 0

0 0 0
0 0 0
0 0 0
0 0 0
0 0 0
0 0 0
0 0 0
0 0 0
0 0 0
0 0 0
0 0 0
32 32 32
100 100 100
56 56 56
32 32 32
32 32 32
32 32 32
32 32 32
32 32 32
32 32 32
32 32 32
32 32 32
32 32 32
32 32 32
32 32 32
32 32 32
32 32 32
32 32 32
32 32 32
32 32 32
32 32 32
32 32 32
32 32 32
32 32 32
32 32 32
32 32 32
32 32 32
32 32 32
32 32 32
32 32 32
32 32 32
32 32 32
32 32 32
32 32 32
32 32 32
32 32 32
32 32 32
32 32 32
32 32 32
32 32 32
32 32 32
32 32 32
0 0 0
0 0 44
0 0 64
0 0 64
0 0 64
0 0 0
0 0 0
0 0 0
0 0 0
0 0 0
0 0 0
0 0 0

0 0 100
0 0 124
0 0 112
0 0 100
0 0 112
0 0 100
0 0 100
0 0 100
0 0 100
0 0 100
0 0 112
32 32 32
72 72 72
32 32 32
32 32 32
32 32 32
32 32 32
32 32 32
32 32 32
32 32 32
32 32 32
32 32 32
32 32 32
32 32 32
32 32 32
32 32 32
32 32 32
32 32 32
32 32 32
32 32 32
32 32 32
32 32 32
32 32 32
32 32 32
32 32 32
32 32 32
32 32 32
32 32 32
32 32 32
32 32 32
32 32 32
32 32 32
32 32 32
32 32 32
32 32 32
32 32 32
32 32 32
32 32 32
32 32 32
32 32 32
32 32 32
32 32 32
0 0 0
0 0 64
0 0 44
0 0 64
0 0 64
0 0 0
0 0 44
0 0 136
0 0 136
0 0 136
0 0 136
0 0 136

0 0 124
0 0 112
0 0 112
0 0 112
0 0 100
0 0 124
0 0 112
0 0 100
0 0 76
0 0 100
0 0 100
32 32 32
72 72 72
32 32 32
32 32 32
0 0 0
0 0 0
0 0 0
0 0 0
0 0 0
0 0 0
0 0 0
0 0 0
0 0 0
0 0 0
0 0 0
0 0 0
0 0 0
0 0 0
0 0 0
0 0 0
0 0 0
0 0 0
0 0 0
0 0 0
0 0 0
0 0 0
0 0 0
0 0 0
0 0 0
0 0 0
0 0 0
0 0 0
0 0 0
0 0 0
0 0 0
0 0 0
0 0 0
0 0 0
44 44 44
32 32 32
32 32 32
0 0 0
0 0 64
0 0 44
0 0 44
0 0 44
0 0 0
0 0 76
0 0 136
0 0 136
0 0 164
0 0 124
0 0 136

0 0 124
0 0 112
0 0 112
0 0 112
0 0 112
0 0 100
0 0 100
0 0 76
0 0 64
0 0 88
0 0 88
32 32 32
72 72 72
32 32 32
32 32 32
0 0 0
0 0 0
0 0 0
32 32 32
0 0 0
0 0 0
0 0 0
0 0 0
0 0 0
0 0 0
32 32 32
0 0 0
0 0 0
0 0 0
0 0 0
0 0 0
0 0 0
32 32 32
0 0 0
0 0 0
0 0 0
0 0 0
0 0 0
0 0 0
32 32 32
0 0 0
0 0 0
0 0 0
0 0 0
0 0 0
32 32 32
0 0 0
0 0 0
0 0 0
44 44 44
32 32 32
32 32 32
0 0 0
0 0 64
0 0 44
0 0 44
0 0 44
0 0 0
0 0 100
0 0 136
0 0 164
0 0 188
0 0 164
0 0 112

0 0 112
0 0 100
0 0 88
0 0 112
0 0 112
0 0 88
0 0 88
0 0 64
0 0 64
0 0 64
0 0 88
32 32 32
72 72 72
32 32 32
32 32 32
0 0 0
0 0 0
0 0 0
44 44 44
32 32 32
0 0 0
0 0 0
0 0 0
0 0 0
0 0 0
44 44 44
32 32 32
0 0 0
0 0 0
0 0 0
0 0 0
0 0 0
44 44 44
32 32 32
0 0 0
0 0 0
0 0 0
0 0 0
0 0 0
44 44 44
32 32 32
0 0 0
0 0 0
0 0 0
0 0 0
44 44 44
32 32 32
0 0 0
0 0 0
56 56 56
32 32 32
32 32 32
0 0 0
0 0 64
0 0 64
0 0 44
0 0 44
0 0 0
0 0 100
0 0 136
0 0 136
0 0 164
0 0 112
0 0 136

0 0 100
0 0 76
0 0 88
0 0 112
0 0 124
0 0 112
0 0 64
0 0 64
0 0 88
0 0 88
0 0 64
32 32 32
72 72 72
32 32 32
32 32 32
0 0 0
0 0 0
0 0 0
56 56 56
32 32 32
0 0 0
0 0 0
0 0 0
0 0 0
0 0 0
56 56 56
32 32 32
0 0 0
0 0 0
0 0 0
0 0 0
0 0 0
56 56 56
32 32 32
0 0 0
0 0 0
0 0 0
0 0 0
0 0 0
56 56 56
32 32 32
0 0 0
0 0 0
0 0 0
0 0 0
56 56 56
32 32 32
0 0 0
0 0 0
56 56 56
32 32 32
32 32 32
0 0 0
0 0 64
0 0 64
0 0 64
0 0 44
0 0 0
0 0 112
0 0 136
0 0 136
0 0 112
0 0 100
0 0 112

0 0 100
0 0 100
0 0 76
0 0 88
0 0 112
0 0 112
0 0 64
0 0 88
0 0 64
0 0 64
0 0 44
32 32 32
72 72 72
32 32 32
32 32 32
0 0 0
0 0 0
0 0 0
72 72 72
32 32 32
0 0 0
0 0 0
0 0 0
0 0 0
0 0 0
72 72 72
32 32 32
0 0 0
0 0 0
0 0 0
0 0 0
0 0 0
72 72 72
32 32 32
0 0 0
0 0 0
0 0 0
0 0 0
0 0 0
72 72 72
32 32 32
0 0 0
0 0 0
0 0 0
0 0 0
72 72 72
32 32 32
0 0 0
0 0 0
72 72 72
32 32 32
32 32 32
0 0 0
0 0 64
0 0 64
0 0 44
0 0 44
0 0 0
0 0 124
0 0 136
0 0 136
0 0 112
0 0 136
0 0 100

0 0 112
0 0 76
0 0 64
0 0 76
0 0 88
0 0 100
0 0 88
0 0 64
0 0 64
0 0 88
0 0 44
32 32 32
72 72 72
32 32 32
32 32 32
0 0 0
0 0 0
0 0 0
72 72 72
32 32 32
0 0 0
0 0 0
0 0 0
0 0 0
0 0 0
72 72 72
32 32 32
0 0 0
0 0 0
0 0 0
0 0 0
0 0 0
72 72 72
32 32 32
0 0 0
0 0 0
0 0 0
0 0 0
0 0 0
72 72 72
32 32 32
0 0 0
0 0 0
0 0 0
0 0 0
72 72 72
32 32 32
0 0 0
0 0 0
72 72 72
32 32 32
32 32 32
0 0 0
0 0 64
0 0 64
0 0 64
0 0 44
0 0 0
0 0 112
0 0 136
0 0 112
0 0 124
0 0 112
0 0 100

0 0 112
0 0 100
0 0 76
0 0 88
0 0 64
0 0 88
0 0 64
0 0 88
0 0 88
0 0 64
0 0 44
32 32 32
72 72 72
32 32 32
32 32 32
0 0 0
0 0 0
0 0 0
72 72 72
32 32 32
0 0 0
0 0 0
0 0 0
0 0 0
0 0 0
72 72 72
32 32 32
0 0 0
0 0 0
0 0 0
0 0 0
0 0 0
72 72 72
32 32 32
0 0 0
0 0 0
0 0 0
0 0 0
0 0 0
72 72 72
32 32 32
0 0 0
0 0 0
0 0 0
0 0 0
72 72 72
32 32 32
0 0 0
0 0 0
72 72 72
32 32 32
32 32 32
0 0 0
0 0 44
0 0 64
0 0 44
0 0 44
0 0 0
0 0 112
0 0 136
0 0 112
0 0 100
0 0 88
0 0 124

0 0 112
0 0 112
0 0 88
0 0 76
0 0 112
0 0 88
0 0 88
0 0 112
0 0 88
0 0 64
0 0 64
32 32 32
72 72 72
32 32 32
32 32 32
0 0 0
0 0 0
0 0 0
72 72 72
32 32 32
0 0 0
0 0 0
0 0 0
0 0 0
0 0 0
72 72 72
32 32 32
0 0 0
0 0 0
0 0 0
0 0 0
0 0 0
72 72 72
32 32 32
0 0 0
0 0 0
0 0 0
0 0 0
0 0 0
72 72 72
32 32 32
0 0 0
0 0 0
0 0 0
0 0 0
72 72 72
32 32 32
0 0 0
0 0 0
72 72 72
32 32 32
32 32 32
56 56 56
0 0 64
0 0 44
0 0 44
0 0 44
0 0 0
0 0 100
0 0 136
0 0 136
0 0 112
0 0 136
0 0 136

0 0 112
0 0 100
0 0 76
0 0 64
0 0 76
0 0 76
0 0 64
0 0 100
0 0 112
0 0 88
0 0 64
32 32 32
72 72 72
32 32 32
32 32 32
0 0 0
0 0 0
0 0 0
72 72 72
32 32 32
0 0 0
0 0 0
0 0 0
0 0 0
0 0 0
72 72 72
32 32 32
0 0 0
0 0 0
0 0 0
0 0 0
0 0 0
72 72 72
32 32 32
0 0 0
0 0 0
0 0 0
0 0 0
0 0 0
72 72 72
32 32 32
0 0 0
0 0 0
0 0 0
0 0 0
72 72 72
32 32 32
0 0 0
0 0 0
72 72 72
32 32 32
32 32 32
84 84 84
0 0 28
0 0 28
0 0 28
0 0 44
0 0 0
0 0 100
0 0 136
0 0 112
0 0 136
0 0 124
0 0 112

0 0 100
0 0 88
0 0 64
0 0 112
0 0 100
0 0 88
0 0 64
0 0 76
0 0 88
0 0 64
0 0 44
32 32 32
72 72 72
32 32 32
32 32 32
0 0 0
0 0 0
0 0 0
72 72 72
32 32 32
0 0 0
0 0 0
0 0 0
0 0 0
0 0 0
72 72 72
32 32 32
0 0 0
0 0 0
0 0 0
0 0 0
0 0 0
72 72 72
32 32 32
0 0 0
0 0 0
0 0 0
0 0 0
0 0 0
72 72 72
32 32 32
0 0 0
0 0 0
0 0 0
0 0 0
72 72 72
32 32 32
0 0 0
0 0 0
72 72 72
32 32 32
32 32 32
32 32 32
0 0 28
0 0 28
0 0 28
0 0 28
0 0 0
0 0 100
0 0 136
0 0 136
0 0 136
0 0 112
0 0 100

0 0 112
0 0 88
0 0 112
0 0 112
0 0 100
0 0 88
0 0 88
0 0 64
0 0 44
0 0 64
0 0 44
32 32 32
72 72 72
32 32 32
32 32 32
0 0 0
0 0 0
0 0 0
72 72 72
32 32 32
0 0 0
0 0 0
0 0 0
0 0 0
0 0 0
72 72 72
32 32 32
0 0 0
0 0 0
0 0 0
0 0 0
0 0 0
72 72 72
32 32 32
0 0 0
0 0 0
0 0 0
0 0 0
0 0 0
72 72 72
32 32 32
0 0 0
0 0 0
0 0 0
0 0 0
72 72 72
32 32 32
0 0 0
0 0 0
72 72 72
32 32 32
32 32 32
56 56 56
0 0 28
0 0 28
0 0 28
0 0 28
0 0 0
0 0 76
0 0 136
0 0 136
0 0 136
0 0 112
0 0 112

0 0 100
0 0 76
0 0 76
0 0 100
0 0 100
0 0 88
0 0 64
0 0 64
0 0 64
0 0 44
0 0 64
32 32 32
72 72 72
32 32 32
32 32 32
0 0 0
0 0 0
0 0 0
72 72 72
32 32 32
0 0 0
0 0 0
0 0 0
0 0 0
0 0 0
72 72 72
32 32 32
0 0 0
0 0 0
0 0 0
0 0 0
0 0 0
72 72 72
32 32 32
0 0 0
0 0 0
0 0 0
0 0 0
0 0 0
72 72 72
32 32 32
0 0 0
0 0 0
0 0 0
0 0 0
72 72 72
32 32 32
0 0 0
0 0 0
72 72 72
32 32 32
32 32 32
84 84 84
0 0 44
0 0 28
0 0 28
0 0 28
0 0 0
0 0 76
0 0 136
0 0 112
0 0 136
0 0 136
0 0 100

0 0 100
0 0 88
0 0 76
0 0 64
0 0 88
0 0 64
0 0 88
0 0 64
0 0 44
0 0 64
0 0 44
32 32 32
72 72 72
32 32 32
32 32 32
0 0 0
0 0 0
0 0 0
72 72 72
32 32 32
0 0 0
0 0 0
0 0 0
0 0 0
0 0 0
72 72 72
32 32 32
0 0 0
0 0 0
0 0 0
0 0 0
0 0 0
72 72 72
32 32 32
0 0 0
0 0 0
0 0 0
0 0 0
0 0 0
72 72 72
32 32 32
0 0 0
0 0 0
0 0 0
0 0 0
72 72 72
32 32 32
0 0 0
0 0 0
72 72 72
32 32 32
32 32 32
56 56 56
0 0 44
0 0 44
0 0 28
0 0 28
0 0 0
0 0 76
0 0 136
0 0 136
0 0 124
0 0 112
0 0 112

0 0 88
0 0 76
0 0 88
0 0 88
0 0 76
0 0 64
0 0 64
0 0 88
0 0 88
0 0 64
0 0 44
32 32 32
72 72 72
32 32 32
32 32 32
0 0 0
0 0 0
0 0 0
72 72 72
32 32 32
0 0 0
0 0 0
0 0 0
0 0 0
0 0 0
72 72 72
32 32 32
0 0 0
0 0 0
0 0 0
0 0 0
0 0 0
72 72 72
32 32 32
0 0 0
0 0 0
0 0 0
0 0 0
0 0 0
72 72 72
32 32 32
0 0 0
0 0 0
0 0 0
0 0 0
72 72 72
32 32 32
0 0 0
0 0 0
72 72 72
32 32 32
32 32 32
0 0 0
0 0 44
0 0 44
0 0 44
0 0 44
0 0 0
0 0 76
0 0 136
0 0 136
0 0 112
0 0 88
0 0 100

0 0 88
0 0 76
0 0 76
0 0 64
0 0 76
0 0 100
0 0 88
0 0 88
0 0 88
0 0 88
0 0 64
32 32 32
72 72 72
32 32 32
32 32 32
0 0 0
0 0 0
0 0 0
72 72 72
32 32 32
0 0 0
0 0 0
0 0 0
0 0 0
0 0 0
72 72 72
32 32 32
0 0 0
0 0 0
0 0 0
0 0 0
0 0 0
72 72 72
32 32 32
0 0 0
0 0 0
0 0 0
0 0 0
0 0 0
72 72 72
32 32 32
0 0 0
0 0 0
0 0 0
0 0 0
72 72 72
32 32 32
0 0 0
0 0 0
72 72 72
32 32 32
32 32 32
0 0 0
0 0 64
0 0 64
0 0 44
0 0 44
0 0 0
0 0 76
0 0 136
0 0 112
0 0 136
0 0 112
0 0 88

0 0 88
0 0 76
0 0 100
0 0 88
0 0 76
0 0 88
0 0 100
0 0 64
0 0 88
0 0 88
0 0 44
32 32 32
72 72 72
32 32 32
32 32 32
44 44 44
56 56 56
72 72 72
56 56 56
32 32 32
44 44 44
44 44 44
0 0 0
0 0 0
0 0 0
72 72 72
32 32 32
0 0 0
0 0 0
0 0 0
0 0 0
0 0 0
72 72 72
32 32 32
0 0 0
0 0 0
0 0 0
0 0 0
0 0 0
72 72 72
32 32 32
0 0 0
0 0 0
0 0 0
0 0 0
72 72 72
32 32 32
0 0 0
0 0 0
72 72 72
32 32 32
32 32 32
0 0 0
0 0 44
0 0 64
0 0 28
0 0 28
0 0 0
0 0 76
0 0 136
0 0 112
0 0 136
0 0 76
0 0 76

0 0 88
0 0 100
0 0 88
0 0 76
0 0 76
0 0 76
0 0 76
0 0 44
0 0 44
0 0 44
0 0 64
32 32 32
72 72 72
32 32 32
32 32 32
32 32 32
32 32 32
32 32 32
32 32 32
32 32 32
32 32 32
32 32 32
0 0 0
0 0 0
0 0 0
72 72 72
32 32 32
0 0 0
0 0 0
0 0 0
0 0 0
0 0 0
72 72 72
32 32 32
0 0 0
0 0 0
0 0 0
0 0 0
0 0 0
72 72 72
32 32 32
0 0 0
0 0 0
0 0 0
0 0 0
72 72 72
32 32 32
0 0 0
0 0 0
72 72 72
32 32 32
32 32 32
0 0 0
0 0 76
0 0 44
0 0 28
0 0 28
0 0 0
0 0 76
0 0 136
0 0 136
0 0 76
0 0 88
0 0 76

0 0 64
0 0 88
0 0 88
0 0 76
0 0 64
0 0 64
0 0 64
0 0 44
0 0 44
0 0 64
0 0 44
32 32 32
72 72 72
32 32 32
32 32 32
32 32 32
32 32 32
32 32 32
32 32 32
32 32 32
32 32 32
32 32 32
0 0 0
0 0 0
0 0 0
72 72 72
32 32 32
0 0 0
0 0 0
0 0 0
0 0 0
0 0 0
72 72 72
32 32 32
0 0 0
0 0 0
0 0 0
0 0 0
0 0 0
72 72 72
32 32 32
0 0 0
0 0 0
0 0 0
0 0 0
72 72 72
32 32 32
0 0 0
0 0 0
72 72 72
32 32 32
32 32 32
0 0 0
0 0 76
0 0 64
0 0 44
0 0 28
0 0 0
0 0 44
0 0 136
0 0 112
0 0 136
0 0 88
0 0 88

0 0 64
0 0 76
0 0 76
0 0 64
0 0 44
0 0 64
0 0 44
0 0 64
0 0 64
0 0 44
0 0 28
32 32 32
72 72 72
32 32 32
32 32 32
32 32 32
32 32 32
32 32 32
32 32 32
32 32 32
32 32 32
32 32 32
0 0 0
0 0 0
0 0 0
72 72 72
32 32 32
0 0 0
0 0 0
0 0 0
0 0 0
0 0 0
72 72 72
32 32 32
0 0 0
0 0 0
0 0 0
0 0 0
0 0 0
72 72 72
32 32 32
0 0 0
0 0 0
0 0 0
0 0 0
72 72 72
32 32 32
0 0 0
0 0 0
72 72 72
32 32 32
32 32 32
0 0 0
0 0 64
0 0 44
0 0 64
0 0 44
0 0 0
0 0 44
0 0 136
0 0 112
0 0 88
0 0 88
0 0 76

0 0 64
0 0 76
0 0 76
0 0 76
0 0 64
0 0 44
0 0 28
0 0 28
0 0 44
0 0 44
0 0 44
32 32 32
72 72 72
32 32 32
32 32 32
32 32 32
32 32 32
32 32 32
0 0 0
32 32 32
32 32 32
32 32 32
0 0 0
0 0 0
0 0 0
72 72 72
32 32 32
0 0 0
0 0 0
0 0 0
0 0 0
0 0 0
72 72 72
32 32 32
0 0 0
0 0 0
0 0 0
0 0 0
0 0 0
72 72 72
32 32 32
0 0 0
0 0 0
0 0 0
0 0 0
72 72 72
32 32 32
0 0 0
0 0 0
72 72 72
32 32 32
32 32 32
0 0 0
0 0 44
0 0 64
0 0 44
0 0 44
0 0 0
0 0 44
0 0 112
0 0 112
0 0 88
0 0 76
0 0 76

0 0 64
0 0 88
0 0 64
0 0 44
0 0 64
0 0 44
0 0 28
0 0 28
0 0 28
0 0 28
0 0 28
32 32 32
72 72 72
32 32 32
32 32 32
0 0 0
32 32 32
0 0 0
0 0 0
0 0 0
32 32 32
32 32 32
0 0 0
0 0 0
0 0 0
72 72 72
32 32 32
0 0 0
0 0 0
0 0 0
0 0 0
0 0 0
72 72 72
32 32 32
0 0 0
0 0 0
0 0 0
0 0 0
0 0 0
72 72 72
32 32 32
0 0 0
0 0 0
0 0 0
0 0 0
72 72 72
32 32 32
0 0 0
0 0 0
72 72 72
32 32 32
32 32 32
0 0 0
0 0 64
0 0 44
0 0 64
0 0 44
0 0 0
0 0 44
0 0 112
0 0 88
0 0 76
0 0 88
0 0 76

0 0 64
0 0 76
0 0 88
0 0 76
0 0 44
0 0 64
0 0 44
0 0 28
0 0 28
0 0 28
0 0 28
32 32 32
72 72 72
32 32 32
32 32 32
0 0 0
32 32 32
0 0 0
0 0 0
0 0 0
32 32 32
32 32 32
0 0 0
0 0 0
0 0 0
72 72 72
32 32 32
0 0 0
0 0 0
0 0 0
0 0 0
0 0 0
72 72 72
32 32 32
0 0 0
0 0 0
0 0 0
0 0 0
0 0 0
72 72 72
32 32 32
0 0 0
0 0 0
0 0 0
0 0 0
72 72 72
32 32 32
0 0 0
0 0 0
72 72 72
32 32 32
32 32 32
0 0 0
0 0 44
0 0 64
0 0 44
0 0 44
0 0 0
0 0 44
0 0 112
0 0 88
0 0 88
0 0 88
0 0 76

0 0 64
0 0 88
0 0 76
0 0 64
0 0 44
0 0 44
0 0 64
0 0 44
0 0 44
0 0 44
0 0 28
32 32 32
72 72 72
32 32 32
32 32 32
32 32 32
32 32 32
0 0 0
32 32 32
0 0 0
32 32 32
32 32 32
0 0 0
0 0 0
0 0 0
72 72 72
32 32 32
0 0 0
0 0 0
0 0 0
0 0 0
0 0 0
72 72 72
32 32 32
0 0 0
0 0 0
0 0 0
0 0 0
0 0 0
72 72 72
32 32 32
0 0 0
0 0 0
0 0 0
0 0 0
72 72 72
32 32 32
0 0 0
0 0 0
72 72 72
32 32 32
32 32 32
0 0 0
0 0 28
0 0 28
0 0 44
0 0 44
0 0 0
0 0 44
0 0 88
0 0 88
0 0 88
0 0 64
0 0 88

0 0 0
0 0 0
0 0 0
0 0 0
0 0 0
0 0 0
0 0 0
0 0 0
0 0 0
0 0 0
0 0 0
32 32 32
72 72 72
32 32 32
32 32 32
32 32 32
32 32 32
0 0 0
56 56 56
0 0 0
32 32 32
32 32 32
0 0 0
0 0 0
0 0 0
72 72 72
32 32 32
0 0 0
0 0 0
0 0 0
0 0 0
0 0 0
72 72 72
32 32 32
0 0 0
0 0 0
0 0 0
0 0 0
0 0 0
72 72 72
32 32 32
0 0 0
0 0 0
0 0 0
0 0 0
72 72 72
32 32 32
0 0 0
0 0 0
72 72 72
32 32 32
32 32 32
0 0 0
0 0 28
0 0 28
0 0 28
0 0 44
0 0 0
0 0 0
0 0 0
0 0 0
0 0 0
0 0 0
0 0 0

0 0 0
0 0 0
0 0 0
0 0 0
0 0 0
0 0 0
0 0 44
0 0 44
0 0 44
0 0 44
0 0 76
32 32 32
72 72 72
32 32 32
32 32 32
32 32 32
32 32 32
32 32 32
0 0 0
32 32 32
32 32 32
32 32 32
0 0 0
0 0 0
0 0 0
72 72 72
32 32 32
0 0 0
0 0 0
0 0 0
0 0 0
0 0 0
72 72 72
32 32 32
0 0 0
0 0 0
0 0 0
0 0 0
0 0 0
72 72 72
32 32 32
0 0 0
0 0 0
0 0 0
0 0 0
72 72 72
32 32 32
0 0 0
0 0 0
72 72 72
32 32 32
32 32 32
0 0 0
0 0 44
0 0 28
0 0 28
0 0 28
0 0 0
0 0 0
0 0 44
0 0 44
0 0 44
0 0 28
0 0 0

0 0 0
0 0 0
0 0 88
0 0 100
0 0 112
0 0 124
0 0 124
0 0 124
0 0 124
0 0 124
0 0 124
32 32 32
72 72 72
32 32 32
32 32 32
32 32 32
32 32 32
32 32 32
32 32 32
32 32 32
32 32 32
32 32 32
0 0 0
0 0 0
0 0 0
72 72 72
32 32 32
0 0 0
0 0 0
0 0 0
0 0 0
0 0 0
72 72 72
32 32 32
0 0 0
0 0 0
0 0 0
0 0 0
0 0 0
72 72 72
32 32 32
0 0 0
0 0 0
0 0 0
0 0 0
72 72 72
32 32 32
0 0 0
0 0 0
72 72 72
32 32 32
32 32 32
0 0 0
0 0 28
0 0 28
0 0 28
0 0 28
0 0 0
0 0 0
0 0 44
0 0 44
0 0 64
0 0 44
0 0 0

0 0 0
0 0 0
0 0 100
0 0 124
0 0 124
0 0 124
0 0 124
0 0 124
0 0 112
0 0 100
0 0 112
32 32 32
72 72 72
32 32 32
32 32 32
32 32 32
32 32 32
32 32 32
32 32 32
32 32 32
32 32 32
32 32 32
0 0 0
0 0 0
0 0 0
72 72 72
32 32 32
0 0 0
0 0 0
0 0 0
0 0 0
0 0 0
72 72 72
32 32 32
0 0 0
0 0 0
0 0 0
0 0 0
0 0 0
72 72 72
32 32 32
0 0 0
0 0 0
0 0 0
0 0 0
72 72 72
32 32 32
0 0 0
0 0 0
72 72 72
32 32 32
32 32 32
0 0 0
0 0 0
0 0 0
0 0 0
0 0 0
0 0 0
0 0 0
0 0 28
0 0 28
0 0 28
0 0 28
0 0 0

0 0 0
0 0 0
0 0 100
0 0 124
0 0 112
0 0 112
0 0 100
0 0 112
0 0 112
0 0 124
0 0 124
32 32 32
72 72 72
32 32 32
32 32 32
32 32 32
32 32 32
32 32 32
32 32 32
32 32 32
32 32 32
32 32 32
0 0 0
0 0 0
0 0 0
72 72 72
32 32 32
0 0 0
0 0 0
0 0 0
0 0 0
0 0 0
72 72 72
32 32 32
0 0 0
0 0 0
0 0 0
0 0 0
0 0 0
72 72 72
32 32 32
0 0 0
0 0 0
0 0 0
0 0 0
72 72 72
32 32 32
0 0 0
0 0 0
72 72 72
32 32 32
32 32 32
0 0 0
0 0 0
0 0 0
0 0 0
0 0 0
0 0 0
0 0 0
0 0 0
0 0 0
0 0 0
0 0 0
0 0 0

0 0 0
0 0 0
0 0 124
0 0 124
0 0 124
0 0 112
0 0 112
0 0 124
0 0 124
0 0 112
0 0 112
32 32 32
72 72 72
32 32 32
32 32 32
0 0 0
0 0 0
0 0 0
0 0 0
0 0 0
0 0 0
0 0 0
0 0 0
0 0 0
0 0 0
72 72 72
32 32 32
0 0 0
0 0 0
0 0 0
0 0 0
0 0 0
72 72 72
32 32 32
152 152 152
0 0 0
0 0 0
0 0 0
0 0 0
72 72 72
32 32 32
0 0 0
0 0 0
0 0 0
0 0 0
72 72 72
32 32 32
0 0 0
0 0 0
72 72 72
32 32 32
32 32 32
0 0 0
0 0 124
0 0 124
0 0 124
0 0 124
0 0 124
0 0 124
0 0 112
0 0 112
0 0 112
0 0 100
0 0 0

0 0 0
0 0 0
0 0 124
0 0 100
0 0 112
0 0 100
0 0 112
0 0 112
0 0 112
0 0 112
0 0 112
32 32 32
72 72 72
32 32 32
32 32 32
0 0 0
0 0 0
0 0 0
32 32 32
32 32 32
0 0 0
0 0 0
0 0 0
0 0 0
0 0 0
72 72 72
32 32 32
0 0 0
0 0 0
0 0 0
0 0 0
152 152 152
152 152 152
152 152 152
112 112 112
112 112 112
0 0 0
0 0 0
0 0 0
72 72 72
32 32 32
0 0 0
0 0 0
0 0 0
0 0 0
72 72 72
32 32 32
0 0 0
0 0 0
72 72 72
32 32 32
32 32 32
0 0 0
0 0 100
0 0 112
0 0 112
0 0 112
0 0 100
0 0 100
0 0 112
0 0 124
0 0 100
0 0 76
0 0 0

0 0 0
0 0 0
0 0 124
0 0 124
0 0 112
0 0 88
0 0 76
0 0 112
0 0 112
0 0 88
0 0 124
32 32 32
72 72 72
32 32 32
32 32 32
0 0 0
0 0 0
0 0 0
44 44 44
32 32 32
0 0 0
0 0 0
0 0 0
0 0 0
0 0 0
72 72 72
32 32 32
0 0 0
0 0 0
0 0 0
0 0 0
84 84 84
72 72 72
32 32 32
56 56 56
84 84 84
0 0 0
0 0 0
0 0 0
72 72 72
32 32 32
0 0 0
56 56 56
56 56 56
56 56 56
72 72 72
32 32 32
0 0 0
0 0 0
72 72 72
32 32 32
32 32 32
0 0 0
0 0 100
0 0 100
0 0 112
0 0 100
0 0 88
0 0 124
0 0 124
0 0 88
0 0 88
0 0 76
0 0 0

0 0 0
0 0 0
0 0 124
0 0 124
0 0 88
0 0 100
0 0 124
0 0 112
0 0 76
0 0 100
0 0 112
32 32 32
72 72 72
32 32 32
32 32 32
0 0 0
0 0 0
0 0 0
56 56 56
32 32 32
0 0 0
0 0 0
0 0 0
0 0 0
0 0 0
72 72 72
32 32 32
0 0 0
0 0 0
0 0 0
0 0 0
112 112 112
112 112 112
112 112 112
56 56 56
0 0 0
0 0 0
0 0 0
0 0 0
72 72 72
32 32 32
56 56 56
84 84 84
84 84 84
84 84 84
72 72 72
32 32 32
32 32 32
0 0 0
72 72 72
32 32 32
32 32 32
0 0 0
0 0 88
0 0 100
0 0 112
0 0 88
0 0 76
0 0 64
0 0 88
0 0 44
0 0 76
0 0 64
0 0 0

0 0 0
0 0 0
0 0 124
0 0 124
0 0 124
0 0 124
0 0 100
0 0 76
0 0 124
0 0 76
0 0 112
32 32 32
72 72 72
32 32 32
32 32 32
0 0 0
0 0 0
0 0 0
72 72 72
32 32 32
0 0 0
0 0 0
0 0 0
0 0 0
0 0 0
72 72 72
32 32 32
0 0 0
0 0 0
0 0 0
0 0 0
44 44 44
44 44 44
44 44 44
56 56 56
0 0 0
0 0 0
0 0 0
0 0 0
72 72 72
32 32 32
32 32 32
72 72 72
112 112 112
112 112 112
72 72 72
32 32 32
56 56 56
0 0 0
72 72 72
32 32 32
32 32 32
56 56 56
0 0 100
0 0 112
0 0 100
0 0 88
0 0 88
0 0 100
0 0 64
0 0 64
0 0 64
0 0 44
0 0 0

0 0 0
0 0 0
0 0 124
0 0 100
0 0 124
0 0 88
0 0 100
0 0 100
0 0 124
0 0 112
0 0 88
32 32 32
72 72 72
32 32 32
32 32 32
0 0 0
0 0 0
0 0 0
72 72 72
32 32 32
0 0 0
0 0 0
0 0 0
0 0 0
0 0 0
72 72 72
32 32 32
0 0 0
0 0 0
0 0 0
0 0 0
0 0 0
72 72 72
32 32 32
44 44 44
44 44 44
56 56 56
72 72 72
72 72 72
72 72 72
32 32 32
0 0 0
32 32 32
152 152 152
168 168 168
72 72 72
32 32 32
72 72 72
0 0 0
72 72 72
32 32 32
32 32 32
84 84 84
0 0 100
0 0 88
0 0 88
0 0 76
0 0 100
0 0 76
0 0 76
0 0 88
0 0 28
0 0 28
0 0 0

0 0 0
0 0 0
0 0 124
0 0 112
0 0 88
0 0 88
0 0 124
0 0 136
0 0 124
0 0 100
0 0 76
32 32 32
72 72 72
32 32 32
32 32 32
0 0 0
0 0 0
0 0 0
72 72 72
32 32 32
0 0 0
0 0 0
0 0 0
0 0 0
0 0 0
72 72 72
32 32 32
0 0 0
0 0 0
0 0 0
0 0 0
0 0 0
72 72 72
32 32 32
0 0 0
0 0 0
0 0 0
112 112 112
112 112 112
72 72 72
32 32 32
0 0 0
44 44 44
152 152 152
152 152 152
72 72 72
32 32 32
72 72 72
0 0 0
72 72 72
32 32 32
32 32 32
32 32 32
0 0 112
0 0 100
0 0 88
0 0 112
0 0 64
0 0 44
0 0 88
0 0 88
0 0 44
0 0 28
0 0 0

0 0 0
0 0 0
0 0 124
0 0 100
0 0 124
0 0 100
0 0 136
0 0 176
0 0 136
0 0 88
0 0 88
32 32 32
72 72 72
32 32 32
32 32 32
0 0 0
0 0 0
0 0 0
72 72 72
32 32 32
0 0 0
0 0 0
0 0 0
0 0 0
0 0 0
72 72 72
32 32 32
0 0 0
0 0 0
0 0 0
0 0 0
0 0 0
72 72 72
32 32 32
0 0 0
0 0 0
56 56 56
72 72 72
140 140 140
72 72 72
32 32 32
56 56 56
124 124 124
100 100 100
0 0 0
72 72 72
32 32 32
72 72 72
0 0 0
72 72 72
32 32 32
32 32 32
56 56 56
0 0 88
0 0 64
0 0 88
0 0 64
0 0 76
0 0 88
0 0 88
0 0 64
0 0 44
0 0 64
0 0 0

0 0 0
0 0 0
0 0 124
0 0 112
0 0 124
0 0 100
0 0 124
0 0 136
0 0 124
0 0 100
0 0 64
32 32 32
72 72 72
32 32 32
32 32 32
0 0 0
0 0 0
0 0 0
72 72 72
32 32 32
0 0 0
0 0 0
0 0 0
0 0 0
0 0 0
72 72 72
32 32 32
0 0 0
0 0 0
0 0 0
0 0 0
0 0 0
72 72 72
32 32 32
0 0 0
56 56 56
56 56 56
112 112 112
32 32 32
72 72 72
32 32 32
0 0 0
56 56 56
152 152 152
56 56 56
72 72 72
32 32 32
56 56 56
0 0 0
72 72 72
32 32 32
32 32 32
84 84 84
0 0 76
0 0 100
0 0 76
0 0 64
0 0 76
0 0 100
0 0 76
0 0 44
0 0 64
0 0 44
0 0 0

0 0 0
0 0 0
0 0 124
0 0 100
0 0 124
0 0 100
0 0 112
0 0 112
0 0 76
0 0 76
0 0 76
32 32 32
72 72 72
32 32 32
32 32 32
0 0 0
0 0 0
0 0 0
72 72 72
32 32 32
0 0 0
0 0 0
0 0 0
0 0 0
0 0 0
72 72 72
32 32 32
0 0 0
0 0 0
0 0 0
0 0 0
0 0 0
72 72 72
32 32 32
32 32 32
56 56 56
32 32 32
112 112 112
32 32 32
72 72 72
32 32 32
72 72 72
72 72 72
112 112 112
112 112 112
72 72 72
32 32 32
0 0 0
0 0 0
72 72 72
32 32 32
32 32 32
56 56 56
0 0 64
0 0 76
0 0 88
0 0 88
0 0 88
0 0 76
0 0 44
0 0 64
0 0 64
0 0 44
0 0 0

0 0 0
0 0 0
0 0 100
0 0 124
0 0 100
0 0 88
0 0 100
0 0 64
0 0 64
0 0 100
0 0 76
32 32 32
72 72 72
32 32 32
32 32 32
0 0 0
0 0 0
0 0 0
72 72 72
32 32 32
0 0 0
0 0 0
0 0 0
0 0 0
0 0 0
72 72 72
32 32 32
0 0 0
0 0 0
0 0 0
0 0 0
0 0 0
72 72 72
32 32 32
32 32 32
56 56 56
32 32 32
112 112 112
100 100 100
72 72 72
32 32 32
0 0 0
72 72 72
72 72 72
0 0 0
72 72 72
32 32 32
0 0 0
0 0 0
72 72 72
32 32 32
32 32 32
0 0 0
0 0 44
0 0 64
0 0 76
0 0 88
0 0 64
0 0 44
0 0 44
0 0 44
0 0 44
0 0 64
0 0 0

0 0 0
0 0 0
0 0 124
0 0 100
0 0 124
0 0 112
0 0 76
0 0 76
0 0 112
0 0 64
0 0 64
32 32 32
72 72 72
32 32 32
32 32 32
0 0 0
0 0 0
0 0 0
72 72 72
32 32 32
0 0 0
0 0 0
0 0 0
0 0 0
0 0 0
72 72 72
32 32 32
0 0 0
0 0 0
0 0 0
0 0 0
0 0 0
72 72 72
32 32 32
32 32 32
56 56 56
72 72 72
72 72 72
112 112 112
72 72 72
32 32 32
0 0 0
0 0 0
0 0 0
0 0 0
72 72 72
32 32 32
0 0 0
0 0 0
72 72 72
32 32 32
32 32 32
0 0 0
0 0 44
0 0 44
0 0 64
0 0 64
0 0 64
0 0 44
0 0 64
0 0 44
0 0 28
0 0 28
0 0 0

0 0 0
0 0 0
0 0 124
0 0 100
0 0 124
0 0 100
0 0 88
0 0 52
0 0 52
0 0 44
0 0 76
32 32 32
72 72 72
32 32 32
32 32 32
0 0 0
0 0 0
0 0 0
72 72 72
32 32 32
0 0 0
0 0 0
0 0 0
0 0 0
0 0 0
72 72 72
32 32 32
0 0 0
0 0 0
0 0 0
32 32 32
32 32 32
72 72 72
32 32 32
32 32 32
56 56 56
56 56 56
84 84 84
112 112 112
72 72 72
32 32 32
72 72 72
72 72 72
84 84 84
0 0 0
72 72 72
32 32 32
0 0 0
0 0 0
72 72 72
32 32 32
32 32 32
0 0 0
0 0 64
0 0 44
0 0 44
0 0 64
0 0 64
0 0 64
0 0 44
0 0 44
0 0 28
0 0 28
0 0 0

0 0 0
0 0 0
0 0 112
0 0 100
0 0 52
0 0 52
0 0 76
0 0 52
0 0 44
0 0 52
0 0 44
32 32 32
72 72 72
32 32 32
32 32 32
0 0 0
0 0 0
0 0 0
72 72 72
32 32 32
0 0 0
0 0 0
0 0 0
0 0 0
0 0 0
72 72 72
32 32 32
0 0 0
32 32 32
32 32 32
32 32 32
32 32 32
72 72 72
32 32 32
32 32 32
32 32 32
56 56 56
56 56 56
56 56 56
72 72 72
32 32 32
124 124 124
72 72 72
84 84 84
56 56 56
72 72 72
32 32 32
0 0 0
0 0 0
72 72 72
32 32 32
32 32 32
0 0 0
0 0 64
0 0 44
0 0 64
0 0 44
0 0 64
0 0 44
0 0 64
0 0 44
0 0 44
0 0 28
0 0 0

0 0 0
0 0 0
0 0 112
0 0 100
0 0 44
0 0 44
0 0 52
0 0 44
0 0 52
0 0 52
0 0 52
32 32 32
72 72 72
32 32 32
32 32 32
0 0 0
0 0 0
0 0 0
72 72 72
32 32 32
0 0 0
0 0 0
0 0 0
0 0 0
0 0 0
72 72 72
32 32 32
32 32 32
32 32 32
32 32 32
32 32 32
32 32 32
72 72 72
32 32 32
32 32 32
32 32 32
32 32 32
32 32 32
32 32 32
72 72 72
32 32 32
56 56 56
72 72 72
84 84 84
56 56 56
72 72 72
32 32 32
0 0 0
0 0 0
72 72 72
32 32 32
32 32 32
0 0 0
0 0 64
0 0 44
0 0 28
0 0 28
0 0 44
0 0 64
0 0 44
0 0 64
0 0 44
0 0 44
0 0 0

0 0 0
0 0 0
0 0 100
0 0 100
0 0 76
0 0 52
0 0 44
0 0 76
0 0 64
0 0 44
0 0 28
32 32 32
72 72 72
32 32 32
32 32 32
0 0 0
0 0 0
0 0 0
56 56 56
32 32 32
0 0 0
0 0 0
0 0 0
0 0 0
32 32 32
56 56 56
32 32 32
32 32 32
32 32 32
0 0 0
84 84 84
112 112 112
56 56 56
32 32 32
32 32 32
32 32 32
32 32 32
32 32 32
32 32 32
56 56 56
32 32 32
56 56 56
56 56 56
56 56 56
56 56 56
56 56 56
32 32 32
0 0 0
0 0 0
84 84 84
44 44 44
32 32 32
0 0 0
0 0 44
0 0 64
0 0 28
0 0 28
0 0 28
0 0 44
0 0 44
0 0 44
0 0 44
0 0 44
0 0 0

32 32 32
32 32 32
0 0 100
0 0 88
0 0 64
0 0 76
0 0 88
0 0 44
0 0 44
0 0 64
0 0 44
32 32 32
56 56 56
32 32 32
32 32 32
56 56 56
56 56 56
72 72 72
72 72 72
72 72 72
72 72 72
72 72 72
72 72 72
72 72 72
72 72 72
72 72 72
72 72 72
72 72 72
72 72 72
72 72 72
72 72 72
72 72 72
72 72 72
72 72 72
72 72 72
72 72 72
72 72 72
72 72 72
72 72 72
72 72 72
72 72 72
72 72 72
72 72 72
72 72 72
72 72 72
72 72 72
72 72 72
72 72 72
84 84 84
84 84 84
44 44 44
32 32 32
32 32 32
0 0 64
0 0 44
0 0 44
0 0 28
0 0 28
0 0 44
0 0 44
0 0 44
0 0 44
0 0 44
32 32 32

44 44 44
44 44 44
0 0 88
0 0 64
0 0 44
0 0 76
0 0 44
0 0 76
28 28 28
28 28 28
44 44 44
44 44 44
44 44 44
32 32 32
32 32 32
32 32 32
32 32 32
32 32 32
32 32 32
32 32 32
32 32 32
32 32 32
32 32 32
32 32 32
32 32 32
32 32 32
32 32 32
32 32 32
32 32 32
32 32 32
32 32 32
32 32 32
32 32 32
32 32 32
32 32 32
32 32 32
32 32 32
32 32 32
32 32 32
32 32 32
32 32 32
32 32 32
32 32 32
32 32 32
32 32 32
32 32 32
32 32 32
32 32 32
32 32 32
44 44 44
44 44 44
32 32 32
44 44 44
0 0 44
28 28 28
28 28 28
28 28 28
28 28 28
28 28 28
28 28 28
28 28 28
44 44 44
44 44 44
44 44 44

56 56 56
56 56 56
72 72 72
72 72 72
72 72 72
72 72 72
72 72 72
72 72 72
72 72 72
72 72 72
72 72 72
72 72 72
56 56 56
56 56 56
56 56 56
56 56 56
56 56 56
56 56 56
56 56 56
56 56 56
56 56 56
56 56 56
56 56 56
56 56 56
56 56 56
56 56 56
56 56 56
56 56 56
56 56 56
56 56 56
56 56 56
56 56 56
56 56 56
56 56 56
56 56 56
56 56 56
56 56 56
56 56 56
56 56 56
56 56 56
56 56 56
56 56 56
56 56 56
56 56 56
56 56 56
56 56 56
56 56 56
56 56 56
56 56 56
56 56 56
56 56 56
56 56 56
56 56 56
72 72 72
72 72 72
72 72 72
72 72 72
72 72 72
72 72 72
72 72 72
72 72 72
72 72 72
72 72 72
56 56 56

