P3
# ASCII PPM file
64 64
255

44 44 44
44 44 44
44 44 44
44 44 44
44 44 44
44 44 44
44 44 44
44 44 44
44 44 44
44 44 44
44 44 44
44 44 44
44 44 44
44 44 44
44 44 44
44 44 44
44 44 44
44 44 44
44 44 44
44 44 44
44 44 44
44 44 44
44 44 44
44 44 44
44 44 44
44 44 44
44 44 44
44 44 44
44 44 44
44 44 44
44 44 44
44 44 44
44 44 44
44 44 44
44 44 44
44 44 44
44 44 44
44 44 44
44 44 44
44 44 44
44 44 44
44 44 44
44 44 44
44 44 44
44 44 44
44 44 44
44 44 44
44 44 44
44 44 44
44 44 44
44 44 44
44 44 44
44 44 44
44 44 44
44 44 44
44 44 44
44 44 44
44 44 44
44 44 44
44 44 44
44 44 44
44 44 44
44 44 44
44 44 44

168 168 168
168 168 168
168 168 168
168 168 168
168 168 168
168 168 168
168 168 168
168 168 168
168 168 168
168 168 168
84 84 84
56 56 56
84 84 84
84 84 84
84 84 84
84 84 84
72 72 72
72 72 72
72 72 72
72 72 72
72 72 72
44 44 44
152 152 152
208 208 208
208 208 208
208 208 208
208 208 208
208 208 208
208 208 208
208 208 208
208 208 208
208 208 208
208 208 208
208 208 208
208 208 208
208 208 208
208 208 208
208 208 208
208 208 208
208 208 208
168 168 168
140 140 140
44 44 44
56 56 56
56 56 56
56 56 56
56 56 56
56 56 56
72 72 72
84 84 84
84 84 84
84 84 84
84 84 84
84 84 84
220 220 220
220 220 220
220 220 220
220 220 220
220 220 220
220 220 220
220 220 220
220 220 220
152 152 152
0 0 0

192 192 192
220 220 220
220 220 220
220 220 220
220 220 220
208 208 208
208 208 208
192 192 192
168 168 168
140 140 140
84 84 84
56 56 56
84 84 84
84 84 84
72 72 72
72 72 72
112 112 112
192 192 192
236 236 236
236 236 236
192 192 192
84 84 84
152 152 152
192 192 192
236 236 236
236 236 236
236 236 236
236 236 236
236 236 236
236 236 236
236 236 236
236 236 236
236 236 236
236 236 236
236 236 236
236 236 236
236 236 236
236 236 236
236 236 236
208 208 208
140 140 140
100 100 100
44 44 44
236 236 236
236 236 236
236 236 236
208 208 208
112 112 112
72 72 72
56 56 56
84 84 84
84 84 84
84 84 84
84 84 84
220 220 220
236 236 236
192 192 192
168 168 168
140 140 140
168 168 168
140 140 140
168 168 168
112 112 112
44 44 44

220 220 220
152 152 152
192 192 192
152 152 152
168 168 168
168 168 168
140 140 140
112 112 112
84 84 84
56 56 56
56 56 56
84 84 84
72 72 72
72 72 72
0 0 0
140 140 140
236 236 236
236 236 236
192 192 192
192 192 192
168 168 168
140 140 140
84 84 84
168 168 168
208 208 208
236 236 236
192 192 192
192 192 192
192 192 192
192 192 192
192 192 192
192 192 192
192 192 192
192 192 192
192 192 192
192 192 192
192 192 192
192 192 192
192 192 192
152 152 152
100 100 100
44 44 44
208 208 208
236 236 236
236 236 236
236 236 236
236 236 236
208 208 208
112 112 112
72 72 72
56 56 56
56 56 56
84 84 84
84 84 84
84 84 84
168 168 168
168 168 168
140 140 140
152 152 152
152 152 152
168 168 168
152 152 152
112 112 112
44 44 44

220 220 220
192 192 192
152 152 152
168 168 168
152 152 152
140 140 140
84 84 84
56 56 56
56 56 56
84 84 84
72 72 72
140 140 140
140 140 140
152 152 152
44 44 44
152 152 152
208 208 208
192 192 192
192 192 192
192 192 192
192 192 192
140 140 140
84 84 84
140 140 140
208 208 208
236 236 236
192 192 192
168 168 168
168 168 168
168 168 168
168 168 168
168 168 168
168 168 168
168 168 168
168 168 168
168 168 168
168 168 168
168 168 168
168 168 168
140 140 140
100 100 100
124 124 124
236 236 236
192 192 192
192 192 192
192 192 192
208 208 208
180 180 180
140 140 140
44 44 44
152 152 152
152 152 152
56 56 56
56 56 56
84 84 84
100 100 100
140 140 140
140 140 140
168 168 168
168 168 168
140 140 140
124 124 124
112 112 112
44 44 44

220 220 220
152 152 152
168 168 168
152 152 152
124 124 124
84 84 84
56 56 56
56 56 56
84 84 84
72 72 72
168 168 168
208 208 208
236 236 236
236 236 236
192 192 192
44 44 44
84 84 84
140 140 140
192 192 192
168 168 168
168 168 168
140 140 140
112 112 112
84 84 84
140 140 140
208 208 208
180 180 180
168 168 168
168 168 168
168 168 168
168 168 168
168 168 168
168 168 168
168 168 168
168 168 168
168 168 168
168 168 168
168 168 168
152 152 152
100 100 100
44 44 44
208 208 208
192 192 192
168 168 168
168 168 168
168 168 168
192 192 192
84 84 84
44 44 44
152 152 152
236 236 236
208 208 208
124 124 124
84 84 84
56 56 56
84 84 84
112 112 112
140 140 140
152 152 152
124 124 124
168 168 168
168 168 168
112 112 112
44 44 44

220 220 220
168 168 168
140 140 140
124 124 124
72 72 72
56 56 56
56 56 56
84 84 84
72 72 72
208 208 208
236 236 236
236 236 236
208 208 208
208 208 208
220 220 220
140 140 140
44 44 44
84 84 84
140 140 140
168 168 168
168 168 168
168 168 168
140 140 140
84 84 84
140 140 140
192 192 192
192 192 192
168 168 168
168 168 168
168 168 168
168 168 168
168 168 168
168 168 168
168 168 168
168 168 168
168 168 168
168 168 168
168 168 168
140 140 140
100 100 100
124 124 124
236 236 236
168 168 168
168 168 168
168 168 168
168 168 168
84 84 84
44 44 44
152 152 152
236 236 236
208 208 208
168 168 168
152 152 152
124 124 124
84 84 84
56 56 56
84 84 84
112 112 112
140 140 140
168 168 168
168 168 168
168 168 168
112 112 112
44 44 44

220 220 220
168 168 168
140 140 140
112 112 112
56 56 56
56 56 56
84 84 84
72 72 72
208 208 208
236 236 236
208 208 208
208 208 208
168 168 168
168 168 168
168 168 168
220 220 220
140 140 140
44 44 44
84 84 84
140 140 140
168 168 168
168 168 168
140 140 140
112 112 112
84 84 84
140 140 140
192 192 192
140 140 140
140 140 140
140 140 140
140 140 140
140 140 140
140 140 140
140 140 140
140 140 140
140 140 140
140 140 140
140 140 140
100 100 100
44 44 44
208 208 208
192 192 192
168 168 168
168 168 168
168 168 168
84 84 84
44 44 44
152 152 152
236 236 236
208 208 208
168 168 168
168 168 168
168 168 168
152 152 152
124 124 124
84 84 84
56 56 56
72 72 72
112 112 112
140 140 140
168 168 168
168 168 168
112 112 112
44 44 44

208 208 208
168 168 168
112 112 112
72 72 72
56 56 56
84 84 84
72 72 72
168 168 168
236 236 236
208 208 208
192 192 192
168 168 168
168 168 168
168 168 168
168 168 168
168 168 168
208 208 208
140 140 140
44 44 44
84 84 84
140 140 140
140 140 140
140 140 140
112 112 112
84 84 84
84 84 84
84 84 84
84 84 84
84 84 84
84 84 84
84 84 84
84 84 84
84 84 84
84 84 84
84 84 84
84 84 84
84 84 84
84 84 84
84 84 84
44 44 44
180 180 180
180 180 180
168 168 168
168 168 168
84 84 84
44 44 44
152 152 152
236 236 236
208 208 208
168 168 168
168 168 168
168 168 168
168 168 168
168 168 168
152 152 152
100 100 100
84 84 84
56 56 56
72 72 72
84 84 84
112 112 112
112 112 112
112 112 112
44 44 44

192 192 192
140 140 140
112 112 112
56 56 56
72 72 72
72 72 72
84 84 84
84 84 84
124 124 124
220 220 220
168 168 168
168 168 168
168 168 168
168 168 168
168 168 168
168 168 168
168 168 168
208 208 208
140 140 140
44 44 44
84 84 84
84 84 84
84 84 84
84 84 84
84 84 84
44 44 44
44 44 44
44 44 44
44 44 44
44 44 44
44 44 44
44 44 44
44 44 44
44 44 44
44 44 44
44 44 44
32 32 32
44 44 44
44 44 44
84 84 84
84 84 84
140 140 140
180 180 180
112 112 112
44 44 44
152 152 152
236 236 236
208 208 208
168 168 168
168 168 168
168 168 168
168 168 168
168 168 168
168 168 168
168 168 168
124 124 124
84 84 84
84 84 84
56 56 56
72 72 72
84 84 84
44 44 44
44 44 44
44 44 44

140 140 140
112 112 112
56 56 56
72 72 72
72 72 72
180 180 180
236 236 236
152 152 152
84 84 84
124 124 124
168 168 168
192 192 192
168 168 168
168 168 168
168 168 168
168 168 168
168 168 168
140 140 140
192 192 192
140 140 140
44 44 44
84 84 84
56 56 56
56 56 56
0 0 0
0 0 0
0 0 0
0 0 0
0 0 0
0 0 0
0 0 0
0 0 0
0 0 0
0 0 0
0 0 0
0 0 0
0 0 0
0 0 0
0 0 0
0 0 0
56 56 56
56 56 56
84 84 84
44 44 44
152 152 152
236 236 236
208 208 208
168 168 168
168 168 168
168 168 168
168 168 168
168 168 168
168 168 168
168 168 168
124 124 124
84 84 84
44 44 44
56 56 56
56 56 56
44 44 44
72 72 72
72 72 72
56 56 56
56 56 56

84 84 84
56 56 56
56 56 56
72 72 72
180 180 180
236 236 236
208 208 208
236 236 236
152 152 152
44 44 44
84 84 84
124 124 124
168 168 168
168 168 168
168 168 168
168 168 168
140 140 140
124 124 124
100 100 100
84 84 84
84 84 84
0 0 0
0 0 0
0 0 0
0 0 0
0 0 0
0 0 0
0 0 0
0 0 0
0 0 0
0 0 0
0 0 0
0 0 0
0 0 0
0 0 0
0 0 0
0 0 0
0 0 0
0 0 0
0 0 0
0 0 0
0 0 0
0 0 0
84 84 84
84 84 84
112 112 112
208 208 208
168 168 168
168 168 168
168 168 168
168 168 168
168 168 168
124 124 124
84 84 84
44 44 44
56 56 56
152 152 152
152 152 152
112 112 112
56 56 56
44 44 44
56 56 56
72 72 72
72 72 72

84 84 84
72 72 72
72 72 72
140 140 140
236 236 236
208 208 208
208 208 208
208 208 208
236 236 236
192 192 192
44 44 44
84 84 84
100 100 100
124 124 124
140 140 140
140 140 140
124 124 124
56 56 56
56 56 56
56 56 56
56 56 56
0 0 0
0 0 0
0 0 0
0 0 0
0 0 0
0 0 0
0 0 0
0 0 0
0 0 0
0 0 0
0 0 0
0 0 0
0 0 0
0 0 0
0 0 0
0 0 0
0 0 0
0 0 0
0 0 0
0 0 0
0 0 0
32 32 32
56 56 56
56 56 56
56 56 56
140 140 140
208 208 208
168 168 168
168 168 168
124 124 124
100 100 100
56 56 56
44 44 44
168 168 168
236 236 236
208 208 208
208 208 208
180 180 180
112 112 112
56 56 56
44 44 44
56 56 56
84 84 84

84 84 84
84 84 84
72 72 72
180 180 180
208 208 208
192 192 192
168 168 168
168 168 168
208 208 208
236 236 236
192 192 192
112 112 112
44 44 44
84 84 84
100 100 100
100 100 100
84 84 84
56 56 56
56 56 56
0 0 0
0 0 0
0 0 0
0 0 0
0 0 0
0 0 0
0 0 0
0 0 0
0 0 0
0 0 0
0 0 0
0 0 0
0 0 0
0 0 0
0 0 0
0 0 0
0 0 0
0 0 0
0 0 0
0 0 0
0 0 0
0 0 0
0 0 0
32 32 32
32 32 32
32 32 32
56 56 56
56 56 56
140 140 140
208 208 208
100 100 100
84 84 84
44 44 44
112 112 112
168 168 168
236 236 236
208 208 208
168 168 168
168 168 168
168 168 168
124 124 124
56 56 56
56 56 56
44 44 44
84 84 84

84 84 84
84 84 84
112 112 112
236 236 236
208 208 208
168 168 168
168 168 168
168 168 168
168 168 168
168 168 168
236 236 236
236 236 236
124 124 124
44 44 44
44 44 44
84 84 84
56 56 56
0 0 0
0 0 0
0 0 0
0 0 0
0 0 0
0 0 0
0 0 0
0 0 0
0 0 0
0 0 0
0 0 0
0 0 0
0 0 0
0 0 0
0 0 0
0 0 0
0 0 0
0 0 0
0 0 0
0 0 0
0 0 0
0 0 0
0 0 0
0 0 0
0 0 0
0 0 0
32 32 32
32 32 32
32 32 32
32 32 32
56 56 56
84 84 84
44 44 44
44 44 44
168 168 168
236 236 236
236 236 236
192 192 192
168 168 168
168 168 168
168 168 168
168 168 168
180 180 180
112 112 112
56 56 56
44 44 44
72 72 72

84 84 84
84 84 84
140 140 140
236 236 236
208 208 208
168 168 168
168 168 168
168 168 168
168 168 168
168 168 168
168 168 168
208 208 208
252 252 252
124 124 124
44 44 44
0 0 0
0 0 0
0 0 0
0 0 0
0 0 0
0 0 0
0 0 0
0 0 0
0 0 0
0 0 0
0 0 0
0 0 0
0 0 0
0 0 0
0 0 0
0 0 0
0 0 0
0 0 0
0 0 0
0 0 0
0 0 0
0 0 0
0 0 0
0 0 0
0 0 0
0 0 0
0 0 0
0 0 0
0 0 0
0 0 0
32 32 32
32 32 32
32 32 32
0 0 0
44 44 44
168 168 168
252 252 252
220 220 220
192 192 192
168 168 168
168 168 168
168 168 168
168 168 168
168 168 168
168 168 168
112 112 112
56 56 56
44 44 44
56 56 56

84 84 84
72 72 72
180 180 180
236 236 236
208 208 208
168 168 168
168 168 168
168 168 168
168 168 168
168 168 168
168 168 168
140 140 140
124 124 124
84 84 84
56 56 56
0 0 0
0 0 0
0 0 0
0 0 0
0 0 0
0 0 0
0 0 0
0 0 0
0 0 0
0 0 0
0 0 0
0 0 0
0 0 0
0 0 0
0 0 0
0 0 0
0 0 0
0 0 0
0 0 0
0 0 0
0 0 0
0 0 0
0 0 0
0 0 0
0 0 0
92 64 32
136 88 48
0 0 0
0 0 0
0 0 0
0 0 0
0 0 0
0 0 0
32 32 32
84 84 84
140 140 140
236 236 236
236 236 236
192 192 192
168 168 168
168 168 168
168 168 168
168 168 168
168 168 168
168 168 168
112 112 112
56 56 56
44 44 44
56 56 56

84 84 84
72 72 72
180 180 180
208 208 208
208 208 208
168 168 168
168 168 168
168 168 168
168 168 168
168 168 168
168 168 168
140 140 140
84 84 84
56 56 56
0 0 0
0 0 0
0 0 0
0 0 0
0 0 0
0 0 0
252 168 92
252 252 184
252 252 184
252 244 0
180 84 0
0 0 0
0 0 0
0 0 0
0 0 0
128 80 44
252 244 32
252 252 184
252 252 252
252 168 92
128 80 44
0 0 0
0 0 0
0 0 0
0 0 0
180 84 0
252 244 0
252 252 184
204 96 0
0 0 0
0 0 0
0 0 0
32 32 32
32 32 32
32 32 32
56 56 56
84 84 84
168 168 168
236 236 236
236 236 236
192 192 192
168 168 168
168 168 168
168 168 168
168 168 168
168 168 168
124 124 124
56 56 56
32 32 32
44 44 44

84 84 84
72 72 72
180 180 180
140 140 140
140 140 140
124 124 124
140 140 140
140 140 140
140 140 140
140 140 140
140 140 140
124 124 124
84 84 84
0 0 0
0 0 0
0 0 0
0 0 0
0 0 0
0 0 0
252 244 0
252 252 184
252 152 64
252 120 0
92 64 32
64 48 24
0 0 0
0 0 0
0 0 0
128 80 44
252 244 32
252 252 216
252 244 0
156 76 0
92 64 32
0 0 0
128 80 44
0 0 0
0 0 0
0 0 0
64 48 24
252 168 92
252 168 92
252 252 184
252 168 92
64 48 24
0 0 0
0 0 0
32 32 32
32 32 32
32 32 32
84 84 84
112 112 112
236 236 236
208 208 208
192 192 192
124 124 124
124 124 124
84 84 84
84 84 84
84 84 84
84 84 84
84 84 84
32 32 32
44 44 44

84 84 84
56 56 56
56 56 56
44 44 44
44 44 44
44 44 44
84 84 84
84 84 84
84 84 84
84 84 84
112 112 112
84 84 84
56 56 56
0 0 0
0 0 0
0 0 0
0 0 0
0 0 0
252 244 0
252 252 184
252 152 64
252 120 0
40 32 12
40 32 12
64 48 24
0 0 0
0 0 0
0 0 0
156 76 0
252 252 156
252 252 156
252 252 184
252 168 92
252 252 156
252 252 184
252 244 0
128 80 44
0 0 0
0 0 0
64 48 24
40 32 12
64 48 24
252 168 92
252 252 184
252 168 92
64 48 24
0 0 0
32 32 32
32 32 32
32 32 32
56 56 56
112 112 112
84 84 84
112 112 112
84 84 84
84 84 84
84 84 84
44 44 44
44 44 44
44 44 44
44 44 44
44 44 44
44 44 44
32 32 32

72 72 72
180 180 180
236 236 236
236 236 236
180 180 180
140 140 140
124 124 124
44 44 44
44 44 44
44 44 44
44 44 44
56 56 56
56 56 56
0 0 0
0 0 0
0 0 0
0 0 0
0 0 0
252 252 184
252 152 64
252 120 0
40 32 12
40 32 12
40 32 12
64 48 24
64 48 24
0 0 0
0 0 0
156 76 0
228 108 0
252 252 252
252 168 92
228 108 0
92 64 32
92 64 32
64 48 24
128 80 44
0 0 0
0 0 0
128 80 44
40 32 12
64 48 24
64 48 24
252 244 32
252 244 32
64 48 24
0 0 0
0 0 0
32 32 32
32 32 32
56 56 56
32 32 32
56 56 56
44 44 44
44 44 44
44 44 44
112 112 112
192 192 192
236 236 236
236 236 236
208 208 208
140 140 140
44 44 44
32 32 32

72 72 72
180 180 180
236 236 236
208 208 208
208 208 208
208 208 208
236 236 236
236 236 236
220 220 220
152 152 152
84 84 84
56 56 56
56 56 56
0 0 0
0 0 0
0 0 0
0 0 0
252 244 0
252 252 184
252 152 64
64 48 24
40 32 12
40 32 12
40 32 12
128 80 44
128 80 44
0 0 0
0 0 0
0 0 0
252 244 32
252 252 184
228 108 0
180 84 0
92 64 32
0 0 0
0 0 0
0 0 0
0 0 0
0 0 0
128 80 44
40 32 12
64 48 24
64 48 24
252 168 92
252 252 184
252 168 92
56 44 20
0 0 0
0 0 0
0 0 0
0 0 0
32 32 32
56 56 56
140 140 140
208 208 208
236 236 236
236 236 236
208 208 208
192 192 192
180 180 180
180 180 180
112 112 112
44 44 44
32 32 32

72 72 72
180 180 180
236 236 236
192 192 192
168 168 168
168 168 168
168 168 168
168 168 168
168 168 168
192 192 192
124 124 124
56 56 56
0 0 0
0 0 0
0 0 0
0 0 0
0 0 0
252 252 184
252 244 0
252 120 0
40 32 12
40 32 12
40 32 12
40 32 12
204 96 0
64 48 24
64 48 24
0 0 0
0 0 0
252 244 32
252 244 0
252 168 92
252 168 92
252 168 92
180 84 0
40 32 12
0 0 0
0 0 0
40 32 12
180 84 0
40 32 12
64 48 24
108 72 36
180 84 0
252 244 32
252 252 184
56 44 20
0 0 0
0 0 0
44 44 44
56 56 56
84 84 84
112 112 112
192 192 192
236 236 236
192 192 192
192 192 192
168 168 168
168 168 168
168 168 168
168 168 168
84 84 84
44 44 44
32 32 32

72 72 72
180 180 180
236 236 236
192 192 192
168 168 168
168 168 168
168 168 168
168 168 168
168 168 168
168 168 168
112 112 112
56 56 56
0 0 0
0 0 0
0 0 0
0 0 0
0 0 0
252 252 184
252 168 92
156 76 0
40 32 12
40 32 12
64 48 24
64 48 24
156 76 0
252 248 92
92 64 32
92 64 32
156 76 0
252 248 92
252 252 216
252 252 216
252 252 156
252 252 156
252 168 92
180 84 0
40 32 12
0 0 0
128 80 44
252 168 92
40 32 12
108 72 36
108 72 36
180 84 0
252 244 32
252 252 184
56 44 20
0 0 0
32 32 32
44 44 44
56 56 56
84 84 84
112 112 112
192 192 192
236 236 236
192 192 192
168 168 168
168 168 168
168 168 168
168 168 168
140 140 140
84 84 84
44 44 44
32 32 32

72 72 72
180 180 180
236 236 236
192 192 192
168 168 168
168 168 168
168 168 168
168 168 168
168 168 168
140 140 140
100 100 100
56 56 56
0 0 0
0 0 0
0 0 0
0 0 0
0 0 0
252 252 184
204 96 0
156 76 0
40 32 12
40 32 12
40 32 12
40 32 12
128 80 44
252 168 92
252 248 92
252 252 184
252 252 252
252 252 216
252 252 216
252 252 216
252 252 216
252 252 216
252 248 92
180 84 0
92 64 32
228 108 0
252 168 92
40 32 12
64 48 24
108 72 36
108 72 36
180 84 0
252 244 32
252 252 184
56 44 20
0 0 0
32 32 32
44 44 44
56 56 56
84 84 84
112 112 112
192 192 192
236 236 236
192 192 192
168 168 168
168 168 168
168 168 168
168 168 168
140 140 140
84 84 84
44 44 44
32 32 32

72 72 72
180 180 180
236 236 236
192 192 192
168 168 168
168 168 168
168 168 168
168 168 168
168 168 168
140 140 140
84 84 84
56 56 56
0 0 0
0 0 0
0 0 0
0 0 0
0 0 0
252 252 184
204 96 0
128 80 44
40 32 12
40 32 12
40 32 12
40 32 12
40 32 12
128 80 44
252 168 92
252 252 252
252 252 252
252 252 184
252 252 184
252 252 184
252 252 184
252 252 184
252 248 92
180 84 0
92 64 32
0 0 0
40 32 12
64 48 24
64 48 24
108 72 36
108 72 36
180 84 0
252 244 32
252 252 184
56 44 20
0 0 0
32 32 32
44 44 44
56 56 56
84 84 84
112 112 112
192 192 192
236 236 236
192 192 192
140 140 140
140 140 140
140 140 140
140 140 140
140 140 140
84 84 84
44 44 44
32 32 32

72 72 72
180 180 180
208 208 208
168 168 168
140 140 140
140 140 140
140 140 140
140 140 140
140 140 140
140 140 140
84 84 84
56 56 56
0 0 0
0 0 0
0 0 0
0 0 0
0 0 0
252 252 184
204 96 0
108 72 36
40 32 12
56 44 20
40 32 12
40 32 12
40 32 12
40 32 12
92 64 32
252 168 92
252 252 252
252 244 0
252 248 92
252 248 92
252 248 92
252 248 92
252 244 0
180 84 0
92 64 32
0 0 0
40 32 12
64 48 24
64 48 24
108 72 36
108 72 36
180 84 0
252 244 32
252 252 184
56 44 20
0 0 0
32 32 32
44 44 44
56 56 56
84 84 84
112 112 112
152 152 152
112 112 112
84 84 84
84 84 84
84 84 84
84 84 84
84 84 84
84 84 84
84 84 84
44 44 44
32 32 32

72 72 72
168 168 168
124 124 124
84 84 84
84 84 84
84 84 84
84 84 84
84 84 84
84 84 84
84 84 84
84 84 84
56 56 56
0 0 0
0 0 0
0 0 0
0 0 0
0 0 0
252 252 184
204 96 0
108 72 36
40 32 12
56 44 20
40 32 12
40 32 12
40 32 12
40 32 12
40 32 12
156 76 0
252 248 92
252 244 0
252 248 92
252 248 92
252 248 92
252 248 92
252 168 92
92 64 32
64 48 24
40 32 12
40 32 12
64 48 24
64 48 24
108 72 36
156 76 0
180 84 0
252 244 32
252 252 184
56 44 20
0 0 0
0 0 0
0 0 0
0 0 0
0 0 0
0 0 0
0 0 0
0 0 0
0 0 0
0 0 0
0 0 0
0 0 0
0 0 0
0 0 0
0 0 0
44 44 44
32 32 32

72 72 72
56 56 56
56 56 56
44 44 44
44 44 44
0 0 0
0 0 0
0 0 0
0 0 0
0 0 0
0 0 0
0 0 0
0 0 0
0 0 0
0 0 0
0 0 0
0 0 0
252 252 184
204 96 0
108 72 36
40 32 12
72 56 24
92 64 32
0 0 0
0 0 0
40 32 12
40 32 12
156 76 0
252 248 92
252 244 0
252 168 92
252 168 92
252 168 92
252 168 92
180 84 0
136 88 48
64 48 24
0 0 0
0 0 0
0 0 0
64 48 24
156 76 0
156 76 0
204 96 0
252 244 32
252 252 184
56 44 20
0 0 0
32 32 32
44 44 44
56 56 56
84 84 84
112 112 112
192 192 192
236 236 236
236 236 236
236 236 236
236 236 236
236 236 236
236 236 236
208 208 208
140 140 140
44 44 44
32 32 32

72 72 72
180 180 180
236 236 236
236 236 236
236 236 236
236 236 236
236 236 236
236 236 236
236 236 236
208 208 208
112 112 112
56 56 56
0 0 0
0 0 0
0 0 0
0 0 0
0 0 0
252 252 184
204 96 0
108 72 36
64 48 24
92 64 32
0 0 0
40 32 12
40 32 12
40 32 12
40 32 12
156 76 0
252 244 0
252 168 92
204 96 0
204 96 0
204 96 0
204 96 0
180 84 0
136 88 48
64 48 24
0 0 0
40 32 12
64 48 24
40 32 12
40 32 12
156 76 0
252 136 32
252 244 32
252 252 184
56 44 20
0 0 0
32 32 32
44 44 44
56 56 56
84 84 84
112 112 112
192 192 192
236 236 236
192 192 192
192 192 192
192 192 192
192 192 192
192 192 192
168 168 168
112 112 112
44 44 44
32 32 32

72 72 72
180 180 180
236 236 236
192 192 192
192 192 192
192 192 192
192 192 192
192 192 192
192 192 192
140 140 140
84 84 84
56 56 56
0 0 0
0 0 0
0 0 0
0 0 0
0 0 0
252 252 184
252 168 92
156 76 0
64 48 24
116 76 40
40 32 12
40 32 12
40 32 12
40 32 12
40 32 12
156 76 0
252 244 32
252 168 92
156 76 0
156 76 0
156 76 0
180 84 0
204 96 0
180 84 0
64 48 24
0 0 0
40 32 12
64 48 24
156 76 0
156 76 0
204 96 0
252 168 92
252 244 32
252 252 184
56 44 20
0 0 0
32 32 32
44 44 44
56 56 56
84 84 84
112 112 112
192 192 192
236 236 236
192 192 192
168 168 168
168 168 168
168 168 168
168 168 168
168 168 168
84 84 84
44 44 44
32 32 32

72 72 72
180 180 180
236 236 236
192 192 192
168 168 168
168 168 168
168 168 168
168 168 168
168 168 168
140 140 140
84 84 84
56 56 56
0 0 0
0 0 0
0 0 0
0 0 0
0 0 0
252 244 0
252 252 184
156 76 0
40 32 12
136 88 48
64 48 24
64 48 24
64 48 24
0 0 0
40 32 12
156 76 0
252 244 0
204 96 0
92 64 32
136 88 48
136 88 48
136 88 48
204 96 0
252 168 92
64 48 24
0 0 0
0 0 0
0 0 0
156 76 0
204 96 0
252 136 32
252 168 92
252 244 32
252 176 128
56 44 20
0 0 0
32 32 32
44 44 44
56 56 56
84 84 84
124 124 124
192 192 192
236 236 236
192 192 192
168 168 168
168 168 168
168 168 168
168 168 168
140 140 140
84 84 84
44 44 44
32 32 32

72 72 72
180 180 180
236 236 236
192 192 192
168 168 168
168 168 168
168 168 168
168 168 168
168 168 168
140 140 140
84 84 84
56 56 56
0 0 0
0 0 0
0 0 0
0 0 0
0 0 0
0 0 0
252 252 184
156 76 0
40 32 12
136 88 48
92 64 32
72 56 24
0 0 0
0 0 0
0 0 0
156 76 0
252 168 92
204 96 0
64 48 24
92 64 32
92 64 32
128 80 44
252 168 92
252 168 92
64 48 24
0 0 0
0 0 0
0 0 0
0 0 0
252 136 32
252 168 92
252 244 32
252 252 184
116 76 40
56 44 20
0 0 0
32 32 32
44 44 44
56 56 56
84 84 84
140 140 140
192 192 192
236 236 236
192 192 192
168 168 168
168 168 168
168 168 168
168 168 168
140 140 140
84 84 84
44 44 44
32 32 32

72 72 72
180 180 180
236 236 236
192 192 192
168 168 168
168 168 168
168 168 168
168 168 168
168 168 168
140 140 140
84 84 84
56 56 56
0 0 0
0 0 0
0 0 0
0 0 0
0 0 0
0 0 0
252 252 184
252 168 92
92 64 32
92 64 32
168 104 64
40 32 12
0 0 0
0 0 0
0 0 0
136 88 48
252 244 32
204 96 0
64 48 24
64 48 24
40 32 12
128 80 44
252 244 0
252 244 0
64 48 24
0 0 0
0 0 0
0 0 0
0 0 0
252 168 92
252 168 92
252 244 32
252 252 184
64 48 24
0 0 0
32 32 32
32 32 32
44 44 44
56 56 56
84 84 84
152 152 152
192 192 192
236 236 236
192 192 192
168 168 168
168 168 168
168 168 168
168 168 168
140 140 140
84 84 84
44 44 44
32 32 32

72 72 72
180 180 180
236 236 236
192 192 192
168 168 168
168 168 168
168 168 168
168 168 168
168 168 168
140 140 140
84 84 84
56 56 56
0 0 0
0 0 0
0 0 0
0 0 0
0 0 0
0 0 0
252 244 0
252 252 184
156 76 0
40 32 12
92 64 32
40 32 12
0 0 0
0 0 0
0 0 0
136 88 48
252 244 32
204 96 0
64 48 24
40 32 12
40 32 12
40 32 12
252 244 0
252 248 92
64 48 24
0 0 0
0 0 0
0 0 0
0 0 0
252 168 92
252 244 32
252 244 32
188 120 72
64 48 24
0 0 0
32 32 32
32 32 32
44 44 44
56 56 56
84 84 84
152 152 152
192 192 192
236 236 236
192 192 192
168 168 168
140 140 140
140 140 140
140 140 140
140 140 140
84 84 84
44 44 44
32 32 32

72 72 72
180 180 180
236 236 236
168 168 168
140 140 140
140 140 140
140 140 140
140 140 140
140 140 140
140 140 140
84 84 84
56 56 56
0 0 0
0 0 0
0 0 0
0 0 0
0 0 0
0 0 0
0 0 0
252 244 0
204 96 0
92 64 32
92 64 32
64 48 24
0 0 0
0 0 0
0 0 0
92 64 32
252 252 156
204 96 0
40 32 12
40 32 12
40 32 12
40 32 12
252 244 0
252 252 184
64 48 24
0 0 0
0 0 0
0 0 0
0 0 0
252 244 32
252 244 32
252 252 184
64 48 24
0 0 0
0 0 0
32 32 32
32 32 32
32 32 32
56 56 56
84 84 84
100 100 100
124 124 124
112 112 112
84 84 84
84 84 84
84 84 84
84 84 84
84 84 84
84 84 84
84 84 84
44 44 44
32 32 32

72 72 72
168 168 168
124 124 124
84 84 84
84 84 84
84 84 84
84 84 84
84 84 84
84 84 84
84 84 84
84 84 84
56 56 56
0 0 0
0 0 0
0 0 0
0 0 0
0 0 0
0 0 0
0 0 0
252 244 0
252 168 92
156 76 0
64 48 24
64 48 24
0 0 0
0 0 0
0 0 0
92 64 32
252 252 216
204 96 0
40 32 12
40 32 12
40 32 12
92 64 32
252 244 0
252 252 184
0 0 0
0 0 0
0 0 0
0 0 0
0 0 0
252 244 32
252 252 184
180 84 0
64 48 24
0 0 0
0 0 0
0 0 0
0 0 0
0 0 0
0 0 0
0 0 0
0 0 0
0 0 0
0 0 0
0 0 0
0 0 0
0 0 0
0 0 0
0 0 0
0 0 0
0 0 0
44 44 44
32 32 32

72 72 72
56 56 56
56 56 56
44 44 44
44 44 44
0 0 0
0 0 0
0 0 0
0 0 0
0 0 0
0 0 0
0 0 0
0 0 0
0 0 0
0 0 0
0 0 0
0 0 0
0 0 0
0 0 0
108 72 36
252 244 0
156 76 0
92 64 32
92 64 32
0 0 0
0 0 0
156 76 0
252 252 184
252 252 184
252 252 184
92 64 32
92 64 32
92 64 32
252 252 184
252 252 252
252 252 184
252 252 184
156 76 0
0 0 0
0 0 0
0 0 0
252 252 184
180 84 0
64 48 24
0 0 0
32 32 32
44 44 44
44 44 44
48 48 48
48 48 48
72 72 72
112 112 112
152 152 152
208 208 208
236 236 236
236 236 236
236 236 236
236 236 236
236 236 236
236 236 236
208 208 208
140 140 140
44 44 44
32 32 32

72 72 72
180 180 180
236 236 236
236 236 236
236 236 236
236 236 236
236 236 236
236 236 236
236 236 236
208 208 208
112 112 112
56 56 56
0 0 0
0 0 0
0 0 0
0 0 0
0 0 0
0 0 0
0 0 0
0 0 0
0 0 0
156 76 0
156 76 0
0 0 0
0 0 0
0 0 0
252 252 184
92 64 32
252 252 184
252 252 252
252 252 252
252 244 0
252 252 252
252 244 0
252 244 0
252 252 184
92 64 32
252 244 0
0 0 0
0 0 0
0 0 0
180 84 0
64 48 24
0 0 0
0 0 0
32 32 32
44 44 44
44 44 44
48 48 48
48 48 48
72 72 72
112 112 112
152 152 152
192 192 192
236 236 236
192 192 192
192 192 192
192 192 192
192 192 192
192 192 192
192 192 192
112 112 112
44 44 44
32 32 32

72 72 72
180 180 180
236 236 236
192 192 192
192 192 192
192 192 192
192 192 192
192 192 192
192 192 192
168 168 168
84 84 84
56 56 56
0 0 0
0 0 0
0 0 0
0 0 0
0 0 0
0 0 0
0 0 0
0 0 0
0 0 0
0 0 0
0 0 0
0 0 0
0 0 0
252 244 0
252 252 252
252 252 252
252 64 64
252 252 252
252 64 64
252 64 64
252 64 64
252 64 64
252 252 252
252 64 64
252 252 252
252 64 64
0 0 0
0 0 0
0 0 0
64 48 24
0 0 0
0 0 0
32 32 32
32 32 32
44 44 44
44 44 44
48 48 48
52 52 52
72 72 72
112 112 112
152 152 152
192 192 192
236 236 236
192 192 192
168 168 168
168 168 168
168 168 168
168 168 168
168 168 168
84 84 84
44 44 44
32 32 32

72 72 72
180 180 180
236 236 236
192 192 192
168 168 168
168 168 168
168 168 168
168 168 168
168 168 168
140 140 140
84 84 84
56 56 56
0 0 0
0 0 0
0 0 0
0 0 0
0 0 0
0 0 0
0 0 0
0 0 0
0 0 0
0 0 0
0 0 0
252 124 124
252 252 252
252 252 184
252 124 124
252 64 64
252 64 64
252 64 64
252 64 64
252 64 64
252 64 64
252 64 64
252 64 64
252 64 64
252 64 64
252 64 64
188 0 0
0 0 0
0 0 0
0 0 0
0 0 0
0 0 0
32 32 32
32 32 32
44 44 44
44 44 44
52 52 52
52 52 52
84 84 84
112 112 112
152 152 152
192 192 192
236 236 236
192 192 192
168 168 168
168 168 168
168 168 168
168 168 168
140 140 140
84 84 84
44 44 44
32 32 32

72 72 72
180 180 180
236 236 236
192 192 192
168 168 168
168 168 168
168 168 168
168 168 168
168 168 168
140 140 140
84 84 84
56 56 56
0 0 0
0 0 0
0 0 0
0 0 0
0 0 0
0 0 0
0 0 0
0 0 0
0 0 0
0 0 0
252 124 124
252 252 252
252 124 124
252 64 64
252 64 64
164 0 0
100 0 0
100 0 0
100 0 0
100 0 0
100 0 0
100 0 0
100 0 0
252 64 64
252 64 64
252 64 64
252 64 64
188 0 0
0 0 0
0 0 0
0 0 0
0 0 0
32 32 32
32 32 32
44 44 44
48 48 48
52 52 52
56 56 56
84 84 84
112 112 112
152 152 152
192 192 192
236 236 236
192 192 192
168 168 168
168 168 168
168 168 168
168 168 168
140 140 140
84 84 84
44 44 44
32 32 32

72 72 72
180 180 180
236 236 236
192 192 192
168 168 168
168 168 168
168 168 168
168 168 168
168 168 168
140 140 140
84 84 84
56 56 56
0 0 0
0 0 0
0 0 0
0 0 0
0 0 0
0 0 0
0 0 0
0 0 0
0 0 0
252 124 124
252 252 252
252 124 124
252 64 64
164 0 0
100 0 0
100 0 0
100 0 0
0 0 0
0 0 0
0 0 0
0 0 0
0 0 0
100 0 0
100 0 0
100 0 0
252 64 64
252 64 64
252 64 64
188 0 0
0 0 0
0 0 0
0 0 0
32 32 32
32 32 32
44 44 44
48 48 48
52 52 52
72 72 72
84 84 84
112 112 112
152 152 152
192 192 192
236 236 236
192 192 192
168 168 168
168 168 168
168 168 168
168 168 168
140 140 140
84 84 84
44 44 44
32 32 32

72 72 72
180 180 180
236 236 236
168 168 168
140 140 140
140 140 140
140 140 140
140 140 140
140 140 140
140 140 140
84 84 84
56 56 56
0 0 0
0 0 0
0 0 0
0 0 0
0 0 0
0 0 0
0 0 0
0 0 0
252 32 32
252 184 184
252 124 124
252 64 64
164 0 0
252 252 252
252 252 252
180 180 180
0 0 0
0 0 0
252 252 252
252 252 252
252 252 252
252 252 252
252 252 252
252 252 252
252 252 252
180 180 180
252 64 64
252 64 64
252 64 64
100 0 0
0 0 0
0 0 0
32 32 32
32 32 32
44 44 44
48 48 48
56 56 56
72 72 72
84 84 84
112 112 112
152 152 152
192 192 192
236 236 236
192 192 192
168 168 168
168 168 168
168 168 168
168 168 168
140 140 140
84 84 84
44 44 44
32 32 32

72 72 72
168 168 168
124 124 124
84 84 84
84 84 84
84 84 84
84 84 84
84 84 84
84 84 84
84 84 84
84 84 84
56 56 56
0 0 0
0 0 0
0 0 0
0 0 0
0 0 0
0 0 0
0 0 0
0 0 0
252 156 156
252 184 184
252 64 64
252 64 64
100 0 0
252 252 252
208 208 208
72 72 72
0 0 0
0 0 0
252 252 252
208 208 208
208 208 208
208 208 208
208 208 208
208 208 208
208 208 208
72 72 72
188 0 0
252 64 64
252 64 64
188 0 0
40 32 12
0 0 0
0 0 0
32 32 32
44 44 44
48 48 48
56 56 56
72 72 72
84 84 84
112 112 112
152 152 152
192 192 192
236 236 236
192 192 192
168 168 168
140 140 140
140 140 140
140 140 140
140 140 140
84 84 84
44 44 44
32 32 32

72 72 72
56 56 56
56 56 56
44 44 44
44 44 44
0 0 0
0 0 0
0 0 0
0 0 0
0 0 0
0 0 0
0 0 0
0 0 0
0 0 0
0 0 0
0 0 0
0 0 0
0 0 0
0 0 0
252 32 32
252 252 252
252 124 124
252 64 64
224 0 0
100 0 0
252 252 252
208 208 208
72 72 72
0 0 0
0 0 0
252 252 252
208 208 208
72 72 72
72 72 72
72 72 72
72 72 72
72 72 72
72 72 72
100 0 0
252 92 92
252 64 64
252 0 0
100 0 0
0 0 0
0 0 0
0 0 0
32 32 32
32 32 32
32 32 32
32 32 32
56 56 56
84 84 84
100 100 100
124 124 124
112 112 112
84 84 84
84 84 84
84 84 84
84 84 84
84 84 84
84 84 84
84 84 84
44 44 44
32 32 32

72 72 72
180 180 180
236 236 236
236 236 236
236 236 236
236 236 236
236 236 236
236 236 236
236 236 236
208 208 208
112 112 112
56 56 56
0 0 0
0 0 0
0 0 0
0 0 0
0 0 0
0 0 0
0 0 0
252 32 32
252 252 252
252 64 64
252 64 64
152 0 0
100 0 0
252 252 252
208 208 208
72 72 72
0 0 0
0 0 0
252 252 252
208 208 208
72 72 72
0 0 0
0 0 0
0 0 0
0 0 0
0 0 0
100 0 0
252 124 124
252 64 64
252 64 64
152 0 0
40 32 12
0 0 0
0 0 0
0 0 0
0 0 0
0 0 0
0 0 0
0 0 0
0 0 0
0 0 0
0 0 0
0 0 0
0 0 0
0 0 0
0 0 0
0 0 0
0 0 0
0 0 0
0 0 0
44 44 44
32 32 32

72 72 72
180 180 180
236 236 236
192 192 192
192 192 192
192 192 192
192 192 192
192 192 192
192 192 192
168 168 168
84 84 84
56 56 56
0 0 0
0 0 0
0 0 0
0 0 0
0 0 0
0 0 0
0 0 0
252 92 92
252 216 216
252 64 64
224 0 0
100 0 0
0 0 0
252 252 252
208 208 208
72 72 72
0 0 0
0 0 0
252 252 252
208 208 208
72 72 72
0 0 0
0 0 0
0 0 0
0 0 0
0 0 0
0 0 0
252 124 124
252 64 64
252 64 64
176 0 0
40 32 12
0 0 0
32 32 32
44 44 44
48 48 48
52 52 52
56 56 56
84 84 84
112 112 112
152 152 152
192 192 192
236 236 236
236 236 236
236 236 236
236 236 236
236 236 236
236 236 236
208 208 208
140 140 140
44 44 44
32 32 32

72 72 72
180 180 180
236 236 236
192 192 192
168 168 168
168 168 168
168 168 168
168 168 168
168 168 168
140 140 140
84 84 84
56 56 56
0 0 0
0 0 0
0 0 0
0 0 0
0 0 0
0 0 0
0 0 0
252 92 92
252 216 216
252 64 64
224 0 0
100 0 0
0 0 0
252 252 252
208 208 208
180 180 180
252 252 252
252 252 252
252 252 252
208 208 208
152 152 152
252 252 252
252 252 252
252 252 252
252 252 252
180 180 180
0 0 0
252 156 156
252 64 64
252 64 64
176 0 0
40 32 12
0 0 0
32 32 32
44 44 44
48 48 48
52 52 52
56 56 56
72 72 72
112 112 112
152 152 152
192 192 192
236 236 236
192 192 192
192 192 192
192 192 192
192 192 192
192 192 192
168 168 168
112 112 112
44 44 44
32 32 32

72 72 72
180 180 180
236 236 236
168 168 168
140 140 140
140 140 140
140 140 140
140 140 140
140 140 140
140 140 140
84 84 84
56 56 56
0 0 0
0 0 0
0 0 0
0 0 0
0 0 0
0 0 0
0 0 0
252 92 92
252 184 184
252 64 64
224 0 0
100 0 0
0 0 0
252 252 252
208 208 208
208 208 208
208 208 208
208 208 208
208 208 208
208 208 208
208 208 208
208 208 208
208 208 208
208 208 208
208 208 208
72 72 72
0 0 0
252 156 156
252 64 64
252 64 64
176 0 0
40 32 12
0 0 0
32 32 32
44 44 44
48 48 48
52 52 52
56 56 56
72 72 72
112 112 112
152 152 152
192 192 192
236 236 236
192 192 192
168 168 168
168 168 168
168 168 168
168 168 168
168 168 168
84 84 84
44 44 44
32 32 32

72 72 72
168 168 168
124 124 124
84 84 84
84 84 84
84 84 84
84 84 84
84 84 84
84 84 84
84 84 84
84 84 84
56 56 56
0 0 0
0 0 0
0 0 0
0 0 0
0 0 0
0 0 0
0 0 0
252 0 0
252 156 156
252 64 64
224 0 0
100 0 0
0 0 0
124 124 124
72 72 72
72 72 72
72 72 72
72 72 72
152 152 152
208 208 208
72 72 72
72 72 72
72 72 72
152 152 152
208 208 208
72 72 72
0 0 0
252 156 156
252 64 64
252 64 64
176 0 0
40 32 12
0 0 0
32 32 32
44 44 44
48 48 48
52 52 52
56 56 56
72 72 72
112 112 112
152 152 152
192 192 192
236 236 236
192 192 192
168 168 168
140 140 140
140 140 140
140 140 140
140 140 140
84 84 84
44 44 44
32 32 32

72 72 72
56 56 56
56 56 56
44 44 44
0 0 0
0 0 0
0 0 0
0 0 0
0 0 0
0 0 0
0 0 0
0 0 0
0 0 0
0 0 0
0 0 0
0 0 0
0 0 0
0 0 0
0 0 0
252 0 0
252 124 124
252 64 64
224 0 0
100 0 0
0 0 0
0 0 0
0 0 0
0 0 0
0 0 0
0 0 0
252 252 252
208 208 208
72 72 72
0 0 0
0 0 0
252 252 252
208 208 208
72 72 72
0 0 0
252 156 156
252 64 64
252 64 64
176 0 0
40 32 12
0 0 0
32 32 32
32 32 32
32 32 32
32 32 32
32 32 32
56 56 56
84 84 84
100 100 100
124 124 124
112 112 112
84 84 84
84 84 84
84 84 84
84 84 84
84 84 84
84 84 84
84 84 84
44 44 44
32 32 32

72 72 72
180 180 180
236 236 236
236 236 236
236 236 236
236 236 236
236 236 236
236 236 236
236 236 236
208 208 208
112 112 112
56 56 56
0 0 0
0 0 0
0 0 0
0 0 0
0 0 0
0 0 0
0 0 0
164 0 0
252 124 124
252 64 64
252 64 64
100 0 0
100 0 0
0 0 0
0 0 0
0 0 0
0 0 0
0 0 0
252 252 252
208 208 208
72 72 72
0 0 0
0 0 0
252 252 252
208 208 208
72 72 72
100 0 0
252 92 92
252 64 64
252 64 64
152 0 0
0 0 0
0 0 0
0 0 0
0 0 0
0 0 0
0 0 0
0 0 0
0 0 0
0 0 0
0 0 0
0 0 0
0 0 0
0 0 0
0 0 0
0 0 0
0 0 0
0 0 0
0 0 0
0 0 0
44 44 44
32 32 32

72 72 72
180 180 180
236 236 236
192 192 192
192 192 192
192 192 192
192 192 192
192 192 192
192 192 192
168 168 168
84 84 84
56 56 56
0 0 0
0 0 0
0 0 0
0 0 0
0 0 0
0 0 0
0 0 0
0 0 0
252 32 32
252 124 124
252 64 64
164 0 0
92 64 32
252 252 252
252 252 252
252 252 252
252 252 252
252 252 252
252 252 252
208 208 208
72 72 72
0 0 0
0 0 0
252 252 252
208 208 208
72 72 72
252 0 0
252 0 0
252 64 64
252 32 32
100 0 0
0 0 0
32 32 32
32 32 32
44 44 44
48 48 48
52 52 52
56 56 56
72 72 72
112 112 112
152 152 152
192 192 192
236 236 236
236 236 236
236 236 236
236 236 236
236 236 236
236 236 236
208 208 208
140 140 140
44 44 44
32 32 32

72 72 72
180 180 180
236 236 236
192 192 192
168 168 168
168 168 168
168 168 168
168 168 168
168 168 168
140 140 140
84 84 84
56 56 56
0 0 0
0 0 0
0 0 0
0 0 0
0 0 0
0 0 0
0 0 0
0 0 0
164 0 0
252 64 64
252 64 64
224 0 0
92 64 32
252 252 252
208 208 208
208 208 208
208 208 208
208 208 208
208 208 208
208 208 208
72 72 72
0 0 0
0 0 0
252 252 252
208 208 208
72 72 72
164 0 0
252 64 64
252 64 64
176 0 0
100 0 0
0 0 0
32 32 32
32 32 32
44 44 44
48 48 48
52 52 52
56 56 56
72 72 72
112 112 112
152 152 152
192 192 192
236 236 236
192 192 192
192 192 192
192 192 192
192 192 192
192 192 192
168 168 168
112 112 112
44 44 44
32 32 32

72 72 72
180 180 180
236 236 236
192 192 192
168 168 168
168 168 168
168 168 168
168 168 168
168 168 168
140 140 140
84 84 84
56 56 56
0 0 0
0 0 0
0 0 0
0 0 0
0 0 0
0 0 0
0 0 0
0 0 0
0 0 0
164 0 0
252 64 64
252 64 64
164 0 0
124 124 124
72 72 72
72 72 72
72 72 72
72 72 72
72 72 72
72 72 72
72 72 72
0 0 0
0 0 0
124 124 124
72 72 72
72 72 72
252 64 64
252 64 64
252 64 64
100 0 0
0 0 0
0 0 0
32 32 32
32 32 32
44 44 44
48 48 48
52 52 52
56 56 56
72 72 72
112 112 112
152 152 152
192 192 192
236 236 236
192 192 192
168 168 168
168 168 168
168 168 168
168 168 168
140 140 140
84 84 84
44 44 44
32 32 32

72 72 72
180 180 180
236 236 236
168 168 168
140 140 140
140 140 140
140 140 140
140 140 140
140 140 140
140 140 140
84 84 84
56 56 56
0 0 0
0 0 0
0 0 0
0 0 0
0 0 0
0 0 0
0 0 0
0 0 0
0 0 0
0 0 0
252 64 64
252 64 64
252 64 64
164 0 0
100 0 0
100 0 0
100 0 0
0 0 0
0 0 0
0 0 0
0 0 0
0 0 0
100 0 0
100 0 0
164 0 0
252 64 64
252 64 64
252 64 64
164 0 0
0 0 0
0 0 0
0 0 0
32 32 32
32 32 32
44 44 44
48 48 48
52 52 52
56 56 56
72 72 72
112 112 112
152 152 152
192 192 192
236 236 236
192 192 192
168 168 168
168 168 168
168 168 168
168 168 168
140 140 140
84 84 84
44 44 44
32 32 32

72 72 72
168 168 168
124 124 124
84 84 84
84 84 84
84 84 84
84 84 84
84 84 84
84 84 84
84 84 84
84 84 84
56 56 56
0 0 0
0 0 0
0 0 0
0 0 0
0 0 0
0 0 0
0 0 0
0 0 0
40 32 12
64 48 24
0 0 0
252 64 64
252 64 64
252 64 64
252 92 92
252 92 92
252 64 64
252 64 64
252 64 64
252 64 64
252 64 64
252 64 64
224 0 0
252 184 184
252 156 156
252 64 64
252 64 64
164 0 0
0 0 0
64 48 24
40 32 12
0 0 0
32 32 32
32 32 32
44 44 44
48 48 48
52 52 52
56 56 56
84 84 84
112 112 112
152 152 152
192 192 192
236 236 236
168 168 168
140 140 140
140 140 140
140 140 140
140 140 140
140 140 140
84 84 84
44 44 44
32 32 32

72 72 72
56 56 56
56 56 56
44 44 44
0 0 0
0 0 0
0 0 0
0 0 0
0 0 0
0 0 0
0 0 0
0 0 0
0 0 0
0 0 0
0 0 0
0 0 0
0 0 0
0 0 0
0 0 0
40 32 12
64 48 24
92 64 32
92 64 32
0 0 0
252 64 64
252 64 64
252 64 64
252 124 124
252 124 124
252 156 156
252 156 156
252 184 184
252 184 184
252 184 184
252 156 156
252 64 64
252 64 64
252 64 64
164 0 0
0 0 0
92 64 32
92 64 32
64 48 24
40 32 12
32 32 32
32 32 32
32 32 32
32 32 32
32 32 32
32 32 32
56 56 56
84 84 84
100 100 100
124 124 124
112 112 112
84 84 84
84 84 84
84 84 84
84 84 84
84 84 84
84 84 84
84 84 84
44 44 44
32 32 32

72 72 72
208 208 208
236 236 236
236 236 236
236 236 236
236 236 236
236 236 236
236 236 236
236 236 236
208 208 208
112 112 112
56 56 56
0 0 0
0 0 0
0 0 0
0 0 0
0 0 0
0 0 0
0 0 0
40 32 12
64 48 24
92 64 32
92 64 32
92 64 32
0 0 0
0 0 0
252 64 64
252 64 64
252 64 64
252 64 64
252 64 64
252 64 64
252 64 64
252 64 64
252 64 64
252 64 64
252 64 64
0 0 0
92 64 32
92 64 32
92 64 32
92 64 32
64 48 24
40 32 12
0 0 0
0 0 0
0 0 0
0 0 0
0 0 0
0 0 0
0 0 0
0 0 0
0 0 0
0 0 0
0 0 0
0 0 0
0 0 0
0 0 0
0 0 0
0 0 0
0 0 0
0 0 0
44 44 44
32 32 32

72 72 72
208 208 208
236 236 236
168 168 168
168 168 168
168 168 168
168 168 168
168 168 168
168 168 168
168 168 168
84 84 84
56 56 56
0 0 0
0 0 0
0 0 0
252 252 252
252 252 252
252 252 252
252 252 252
252 252 252
252 252 184
252 252 184
252 252 184
252 252 156
252 252 156
252 244 0
92 64 32
92 64 32
92 64 32
92 64 32
92 64 32
92 64 32
92 64 32
92 64 32
92 64 32
92 64 32
92 64 32
252 244 0
252 252 156
252 252 156
252 252 216
252 252 216
252 252 216
252 252 216
252 252 216
252 252 216
180 180 180
0 0 0
52 52 52
56 56 56
84 84 84
112 112 112
152 152 152
208 208 208
236 236 236
236 236 236
236 236 236
236 236 236
236 236 236
236 236 236
208 208 208
140 140 140
44 44 44
32 32 32

72 72 72
208 208 208
236 236 236
168 168 168
140 140 140
140 140 140
140 140 140
140 140 140
140 140 140
140 140 140
84 84 84
56 56 56
0 0 0
0 0 0
0 0 0
252 252 252
252 244 0
252 244 0
252 244 0
252 244 0
252 244 0
252 244 0
252 244 0
252 244 0
252 244 0
252 244 0
252 244 0
252 244 0
252 244 0
252 244 0
252 244 0
252 244 0
252 244 0
252 244 0
252 244 0
252 244 0
252 244 0
252 244 0
252 244 0
252 244 0
252 244 0
252 244 0
252 244 0
252 244 0
252 244 0
252 244 0
140 140 140
0 0 0
52 52 52
56 56 56
84 84 84
112 112 112
152 152 152
208 208 208
236 236 236
192 192 192
168 168 168
168 168 168
140 140 140
140 140 140
140 140 140
112 112 112
44 44 44
32 32 32

72 72 72
168 168 168
124 124 124
84 84 84
84 84 84
84 84 84
84 84 84
84 84 84
84 84 84
84 84 84
84 84 84
84 84 84
0 0 0
44 44 44
56 56 56
140 140 140
84 84 84
84 84 84
84 84 84
84 84 84
84 84 84
84 84 84
84 84 84
84 84 84
84 84 84
84 84 84
84 84 84
84 84 84
84 84 84
84 84 84
84 84 84
84 84 84
84 84 84
84 84 84
84 84 84
84 84 84
84 84 84
84 84 84
84 84 84
84 84 84
84 84 84
84 84 84
84 84 84
84 84 84
84 84 84
84 84 84
84 84 84
44 44 44
32 32 32
32 32 32
56 56 56
84 84 84
100 100 100
124 124 124
112 112 112
84 84 84
84 84 84
84 84 84
84 84 84
84 84 84
84 84 84
84 84 84
44 44 44
32 32 32

72 72 72
72 72 72
72 72 72
72 72 72
72 72 72
72 72 72
72 72 72
72 72 72
72 72 72
72 72 72
72 72 72
72 72 72
72 72 72
56 56 56
84 84 84
100 100 100
112 112 112
112 112 112
112 112 112
112 112 112
112 112 112
112 112 112
112 112 112
112 112 112
112 112 112
112 112 112
112 112 112
112 112 112
112 112 112
112 112 112
112 112 112
112 112 112
112 112 112
112 112 112
112 112 112
112 112 112
112 112 112
112 112 112
112 112 112
112 112 112
112 112 112
112 112 112
112 112 112
112 112 112
112 112 112
112 112 112
100 100 100
56 56 56
44 44 44
32 32 32
72 72 72
72 72 72
72 72 72
72 72 72
72 72 72
72 72 72
72 72 72
72 72 72
72 72 72
72 72 72
72 72 72
72 72 72
72 72 72
72 72 72

