P3
# ASCII PPM file
64 64
255

44 44 44
44 44 44
44 44 44
44 44 44
44 44 44
44 44 44
44 44 44
44 44 44
44 44 44
44 44 44
44 44 44
44 44 44
44 44 44
44 44 44
44 44 44
44 44 44
44 44 44
44 44 44
44 44 44
44 44 44
44 44 44
44 44 44
44 44 44
44 44 44
44 44 44
44 44 44
44 44 44
44 44 44
44 44 44
44 44 44
44 44 44
44 44 44
44 44 44
44 44 44
44 44 44
44 44 44
44 44 44
44 44 44
44 44 44
44 44 44
44 44 44
44 44 44
44 44 44
44 44 44
44 44 44
44 44 44
44 44 44
44 44 44
44 44 44
44 44 44
44 44 44
44 44 44
44 44 44
44 44 44
44 44 44
44 44 44
44 44 44
44 44 44
44 44 44
44 44 44
44 44 44
44 44 44
44 44 44
44 44 44

84 84 84
84 84 84
84 84 84
84 84 84
84 84 84
84 84 84
84 84 84
84 84 84
84 84 84
84 84 84
44 44 44
0 0 0
44 44 44
44 44 44
44 44 44
44 44 44
44 44 44
44 44 44
44 44 44
44 44 44
44 44 44
32 32 32
84 84 84
124 124 124
124 124 124
124 124 124
124 124 124
124 124 124
124 124 124
124 124 124
124 124 124
124 124 124
124 124 124
124 124 124
124 124 124
124 124 124
124 124 124
124 124 124
124 124 124
124 124 124
84 84 84
72 72 72
32 32 32
32 32 32
44 44 44
44 44 44
44 44 44
44 44 44
44 44 44
44 44 44
44 44 44
44 44 44
44 44 44
44 44 44
140 140 140
140 140 140
140 140 140
140 140 140
140 140 140
140 140 140
140 140 140
140 140 140
140 140 140
0 0 0

140 140 140
140 140 140
140 140 140
140 140 140
140 140 140
140 140 140
140 140 140
124 124 124
84 84 84
72 72 72
44 44 44
0 0 0
44 44 44
44 44 44
44 44 44
44 44 44
72 72 72
112 112 112
140 140 140
140 140 140
112 112 112
32 32 32
84 84 84
112 112 112
140 140 140
140 140 140
140 140 140
140 140 140
140 140 140
140 140 140
140 140 140
140 140 140
140 140 140
140 140 140
140 140 140
140 140 140
140 140 140
140 140 140
140 140 140
124 124 124
72 72 72
56 56 56
32 32 32
140 140 140
140 140 140
140 140 140
124 124 124
72 72 72
32 32 32
44 44 44
44 44 44
44 44 44
44 44 44
44 44 44
140 140 140
140 140 140
112 112 112
112 112 112
112 112 112
112 112 112
112 112 112
112 112 112
72 72 72
0 0 0

140 140 140
140 140 140
112 112 112
112 112 112
84 84 84
84 84 84
72 72 72
72 72 72
44 44 44
0 0 0
0 0 0
44 44 44
44 44 44
44 44 44
32 32 32
72 72 72
140 140 140
140 140 140
112 112 112
112 112 112
84 84 84
72 72 72
32 32 32
84 84 84
124 124 124
140 140 140
112 112 112
112 112 112
112 112 112
112 112 112
112 112 112
112 112 112
112 112 112
112 112 112
112 112 112
112 112 112
112 112 112
112 112 112
112 112 112
84 84 84
56 56 56
32 32 32
124 124 124
140 140 140
140 140 140
140 140 140
140 140 140
124 124 124
72 72 72
32 32 32
32 32 32
44 44 44
44 44 44
44 44 44
44 44 44
84 84 84
84 84 84
84 84 84
84 84 84
84 84 84
84 84 84
84 84 84
72 72 72
0 0 0

140 140 140
112 112 112
84 84 84
84 84 84
84 84 84
72 72 72
44 44 44
0 0 0
0 0 0
44 44 44
44 44 44
72 72 72
72 72 72
100 100 100
32 32 32
140 140 140
124 124 124
112 112 112
112 112 112
112 112 112
112 112 112
72 72 72
32 32 32
72 72 72
124 124 124
140 140 140
112 112 112
84 84 84
84 84 84
84 84 84
84 84 84
84 84 84
84 84 84
84 84 84
84 84 84
84 84 84
84 84 84
84 84 84
84 84 84
72 72 72
56 56 56
84 84 84
140 140 140
112 112 112
112 112 112
112 112 112
124 124 124
100 100 100
100 100 100
0 0 0
84 84 84
84 84 84
32 32 32
44 44 44
44 44 44
56 56 56
72 72 72
84 84 84
84 84 84
84 84 84
84 84 84
84 84 84
72 72 72
0 0 0

140 140 140
112 112 112
84 84 84
84 84 84
72 72 72
44 44 44
0 0 0
0 0 0
44 44 44
56 56 56
84 84 84
124 124 124
140 140 140
140 140 140
112 112 112
32 32 32
44 44 44
72 72 72
112 112 112
84 84 84
84 84 84
72 72 72
72 72 72
0 0 0
72 72 72
124 124 124
100 100 100
84 84 84
84 84 84
84 84 84
84 84 84
84 84 84
84 84 84
84 84 84
84 84 84
84 84 84
84 84 84
84 84 84
84 84 84
56 56 56
32 32 32
124 124 124
112 112 112
84 84 84
84 84 84
84 84 84
112 112 112
44 44 44
0 0 0
84 84 84
140 140 140
124 124 124
84 84 84
44 44 44
32 32 32
44 44 44
72 72 72
72 72 72
84 84 84
84 84 84
84 84 84
84 84 84
72 72 72
0 0 0

140 140 140
84 84 84
84 84 84
72 72 72
44 44 44
0 0 0
0 0 0
44 44 44
56 56 56
100 100 100
140 140 140
140 140 140
124 124 124
124 124 124
140 140 140
72 72 72
32 32 32
44 44 44
72 72 72
84 84 84
84 84 84
84 84 84
72 72 72
32 32 32
72 72 72
112 112 112
112 112 112
84 84 84
84 84 84
84 84 84
84 84 84
84 84 84
84 84 84
84 84 84
84 84 84
84 84 84
84 84 84
84 84 84
72 72 72
56 56 56
84 84 84
140 140 140
84 84 84
84 84 84
84 84 84
84 84 84
44 44 44
0 0 0
84 84 84
140 140 140
124 124 124
84 84 84
84 84 84
84 84 84
44 44 44
32 32 32
44 44 44
72 72 72
72 72 72
84 84 84
84 84 84
84 84 84
72 72 72
0 0 0

140 140 140
84 84 84
72 72 72
72 72 72
0 0 0
0 0 0
44 44 44
56 56 56
100 100 100
140 140 140
124 124 124
124 124 124
84 84 84
84 84 84
84 84 84
140 140 140
72 72 72
0 0 0
44 44 44
72 72 72
84 84 84
84 84 84
72 72 72
72 72 72
0 0 0
72 72 72
112 112 112
72 72 72
72 72 72
72 72 72
72 72 72
72 72 72
72 72 72
72 72 72
72 72 72
72 72 72
72 72 72
72 72 72
56 56 56
32 32 32
124 124 124
112 112 112
84 84 84
84 84 84
84 84 84
44 44 44
0 0 0
84 84 84
140 140 140
124 124 124
84 84 84
84 84 84
84 84 84
84 84 84
84 84 84
44 44 44
0 0 0
32 32 32
72 72 72
72 72 72
84 84 84
84 84 84
72 72 72
0 0 0

140 140 140
84 84 84
72 72 72
44 44 44
0 0 0
44 44 44
44 44 44
100 100 100
140 140 140
124 124 124
112 112 112
84 84 84
84 84 84
84 84 84
84 84 84
84 84 84
124 124 124
72 72 72
0 0 0
44 44 44
72 72 72
72 72 72
72 72 72
72 72 72
32 32 32
44 44 44
44 44 44
44 44 44
44 44 44
44 44 44
44 44 44
44 44 44
44 44 44
44 44 44
44 44 44
44 44 44
44 44 44
44 44 44
44 44 44
0 0 0
100 100 100
100 100 100
84 84 84
84 84 84
44 44 44
0 0 0
84 84 84
140 140 140
124 124 124
84 84 84
84 84 84
84 84 84
84 84 84
84 84 84
84 84 84
56 56 56
44 44 44
0 0 0
32 32 32
44 44 44
72 72 72
72 72 72
72 72 72
0 0 0

140 140 140
72 72 72
72 72 72
0 0 0
0 0 0
44 44 44
44 44 44
44 44 44
84 84 84
140 140 140
84 84 84
84 84 84
84 84 84
84 84 84
84 84 84
84 84 84
84 84 84
124 124 124
72 72 72
0 0 0
44 44 44
44 44 44
44 44 44
44 44 44
44 44 44
0 0 0
0 0 0
0 0 0
0 0 0
0 0 0
0 0 0
0 0 0
0 0 0
0 0 0
0 0 0
0 0 0
0 0 0
0 0 0
0 0 0
44 44 44
44 44 44
44 44 44
100 100 100
72 72 72
0 0 0
84 84 84
140 140 140
124 124 124
84 84 84
84 84 84
84 84 84
84 84 84
84 84 84
84 84 84
84 84 84
84 84 84
44 44 44
44 44 44
0 0 0
32 32 32
44 44 44
0 0 0
0 0 0
0 0 0

72 72 72
72 72 72
44 44 44
0 0 0
44 44 44
100 100 100
140 140 140
32 32 32
44 44 44
84 84 84
84 84 84
112 112 112
84 84 84
84 84 84
84 84 84
84 84 84
84 84 84
72 72 72
112 112 112
72 72 72
0 0 0
44 44 44
0 0 0
0 0 0
0 0 0
0 0 0
0 0 0
0 0 0
0 0 0
0 0 0
0 0 0
0 0 0
0 0 0
0 0 0
0 0 0
0 0 0
0 0 0
0 0 0
0 0 0
0 0 0
0 0 0
0 0 0
44 44 44
0 0 0
84 84 84
140 140 140
124 124 124
84 84 84
84 84 84
84 84 84
84 84 84
84 84 84
84 84 84
84 84 84
84 84 84
44 44 44
0 0 0
0 0 0
0 0 0
32 32 32
32 32 32
44 44 44
44 44 44
44 44 44

44 44 44
44 44 44
0 0 0
44 44 44
100 100 100
140 140 140
124 124 124
140 140 140
32 32 32
32 32 32
44 44 44
84 84 84
84 84 84
84 84 84
84 84 84
84 84 84
72 72 72
84 84 84
56 56 56
44 44 44
44 44 44
0 0 0
0 0 0
0 0 0
0 0 0
0 0 0
0 0 0
0 0 0
0 0 0
0 0 0
0 0 0
0 0 0
0 0 0
0 0 0
0 0 0
0 0 0
0 0 0
0 0 0
0 0 0
0 0 0
0 0 0
0 0 0
0 0 0
44 44 44
44 44 44
72 72 72
124 124 124
84 84 84
84 84 84
84 84 84
84 84 84
84 84 84
84 84 84
44 44 44
0 0 0
0 0 0
100 100 100
100 100 100
72 72 72
32 32 32
32 32 32
44 44 44
44 44 44
44 44 44

44 44 44
32 32 32
44 44 44
44 44 44
140 140 140
124 124 124
124 124 124
124 124 124
140 140 140
112 112 112
0 0 0
44 44 44
56 56 56
84 84 84
72 72 72
72 72 72
84 84 84
0 0 0
0 0 0
0 0 0
0 0 0
0 0 0
0 0 0
0 0 0
0 0 0
0 0 0
0 0 0
0 0 0
0 0 0
0 0 0
0 0 0
0 0 0
0 0 0
0 0 0
0 0 0
0 0 0
0 0 0
0 0 0
0 0 0
0 0 0
0 0 0
0 0 0
0 0 0
0 0 0
0 0 0
0 0 0
0 0 0
124 124 124
84 84 84
84 84 84
84 84 84
56 56 56
0 0 0
0 0 0
84 84 84
112 112 112
124 124 124
124 124 124
100 100 100
72 72 72
32 32 32
32 32 32
44 44 44
44 44 44

44 44 44
44 44 44
44 44 44
100 100 100
124 124 124
112 112 112
84 84 84
84 84 84
124 124 124
140 140 140
112 112 112
72 72 72
0 0 0
44 44 44
56 56 56
56 56 56
44 44 44
0 0 0
0 0 0
0 0 0
0 0 0
0 0 0
0 0 0
0 0 0
0 0 0
0 0 0
0 0 0
0 0 0
0 0 0
0 0 0
0 0 0
0 0 0
0 0 0
0 0 0
0 0 0
0 0 0
0 0 0
0 0 0
0 0 0
0 0 0
0 0 0
0 0 0
0 0 0
0 0 0
0 0 0
0 0 0
0 0 0
0 0 0
124 124 124
56 56 56
44 44 44
0 0 0
72 72 72
112 112 112
140 140 140
124 124 124
84 84 84
84 84 84
84 84 84
84 84 84
56 56 56
32 32 32
32 32 32
44 44 44

44 44 44
44 44 44
56 56 56
140 140 140
124 124 124
84 84 84
84 84 84
84 84 84
84 84 84
84 84 84
140 140 140
140 140 140
112 112 112
0 0 0
0 0 0
44 44 44
0 0 0
0 0 0
0 0 0
0 0 0
0 0 0
0 0 0
0 0 0
0 0 0
0 0 0
0 0 0
0 0 0
0 0 0
0 0 0
0 0 0
0 0 0
0 0 0
0 0 0
0 0 0
0 0 0
0 0 0
0 0 0
0 0 0
0 0 0
0 0 0
0 0 0
0 0 0
0 0 0
0 0 0
0 0 0
0 0 0
0 0 0
0 0 0
44 44 44
0 0 0
0 0 0
112 112 112
140 140 140
140 140 140
112 112 112
84 84 84
84 84 84
84 84 84
84 84 84
100 100 100
72 72 72
32 32 32
32 32 32
44 44 44

44 44 44
44 44 44
72 72 72
140 140 140
124 124 124
84 84 84
84 84 84
84 84 84
84 84 84
84 84 84
84 84 84
124 124 124
140 140 140
84 84 84
0 0 0
0 0 0
0 0 0
0 0 0
0 0 0
0 0 0
0 0 0
0 0 0
0 0 0
0 0 0
0 0 0
0 0 0
0 0 0
0 0 0
0 0 0
0 0 0
0 0 0
0 0 0
0 0 0
0 0 0
0 0 0
0 0 0
0 0 0
0 0 0
0 0 0
0 0 0
0 0 0
0 0 0
0 0 0
0 0 0
0 0 0
0 0 0
0 0 0
0 0 0
0 0 0
0 0 0
84 84 84
140 140 140
140 140 140
112 112 112
84 84 84
84 84 84
84 84 84
84 84 84
84 84 84
84 84 84
72 72 72
32 32 32
32 32 32
44 44 44

44 44 44
44 44 44
100 100 100
140 140 140
124 124 124
84 84 84
84 84 84
84 84 84
84 84 84
84 84 84
84 84 84
72 72 72
84 84 84
44 44 44
0 0 0
0 0 0
0 0 0
0 0 0
0 0 0
0 0 0
0 0 0
0 0 0
0 0 0
0 0 0
0 0 0
0 0 0
0 0 0
0 0 0
0 0 0
0 0 0
0 0 0
0 0 0
0 0 0
0 0 0
0 0 0
0 0 0
0 0 0
0 0 0
0 0 0
0 0 0
92 64 32
136 88 48
0 0 0
0 0 0
0 0 0
0 0 0
0 0 0
0 0 0
0 0 0
44 44 44
72 72 72
124 124 124
140 140 140
112 112 112
84 84 84
84 84 84
84 84 84
84 84 84
84 84 84
84 84 84
72 72 72
44 44 44
32 32 32
44 44 44

44 44 44
44 44 44
100 100 100
140 140 140
124 124 124
84 84 84
84 84 84
84 84 84
84 84 84
84 84 84
84 84 84
72 72 72
44 44 44
0 0 0
0 0 0
0 0 0
0 0 0
0 0 0
0 0 0
0 0 0
136 88 48
228 216 0
228 216 0
228 108 0
116 76 40
0 0 0
0 0 0
0 0 0
0 0 0
128 80 44
252 120 0
228 216 0
252 252 124
136 88 48
128 80 44
0 0 0
0 0 0
0 0 0
0 0 0
116 76 40
228 108 0
228 216 0
144 92 52
0 0 0
0 0 0
0 0 0
0 0 0
0 0 0
0 0 0
0 0 0
44 44 44
112 112 112
140 140 140
112 112 112
100 100 100
84 84 84
84 84 84
84 84 84
84 84 84
84 84 84
84 84 84
56 56 56
32 32 32
44 44 44

44 44 44
44 44 44
100 100 100
44 44 44
44 44 44
84 84 84
72 72 72
72 72 72
72 72 72
72 72 72
72 72 72
84 84 84
44 44 44
0 0 0
0 0 0
0 0 0
0 0 0
0 0 0
0 0 0
228 108 0
228 216 0
188 120 72
168 104 64
64 48 24
0 0 0
0 0 0
0 0 0
0 0 0
128 80 44
252 120 0
228 216 0
228 108 0
84 60 28
64 48 24
0 0 0
128 80 44
0 0 0
0 0 0
0 0 0
0 0 0
136 88 48
136 88 48
228 216 0
136 88 48
0 0 0
0 0 0
0 0 0
0 0 0
0 0 0
0 0 0
44 44 44
72 72 72
140 140 140
124 124 124
100 100 100
84 84 84
84 84 84
72 72 72
72 72 72
72 72 72
44 44 44
44 44 44
32 32 32
44 44 44

44 44 44
32 32 32
32 32 32
32 32 32
32 32 32
0 0 0
44 44 44
44 44 44
44 44 44
44 44 44
72 72 72
44 44 44
0 0 0
0 0 0
0 0 0
0 0 0
0 0 0
0 0 0
228 108 0
228 216 0
188 120 72
168 104 64
0 0 0
0 0 0
0 0 0
0 0 0
0 0 0
0 0 0
84 60 28
252 168 92
252 168 92
228 216 0
136 88 48
252 168 92
228 216 0
228 108 0
128 80 44
0 0 0
0 0 0
0 0 0
0 0 0
0 0 0
136 88 48
228 216 0
136 88 48
0 0 0
0 0 0
0 0 0
0 0 0
0 0 0
0 0 0
72 72 72
72 72 72
72 72 72
44 44 44
44 44 44
44 44 44
0 0 0
0 0 0
0 0 0
0 0 0
0 0 0
28 28 28
32 32 32

44 44 44
100 100 100
140 140 140
140 140 140
100 100 100
84 84 84
72 72 72
56 56 56
44 44 44
0 0 0
0 0 0
0 0 0
0 0 0
0 0 0
0 0 0
0 0 0
0 0 0
0 0 0
228 216 0
188 120 72
168 104 64
0 0 0
0 0 0
0 0 0
0 0 0
0 0 0
0 0 0
0 0 0
84 60 28
160 100 60
252 252 124
136 88 48
160 100 60
64 48 24
64 48 24
0 0 0
128 80 44
0 0 0
0 0 0
64 48 24
0 0 0
0 0 0
0 0 0
252 120 0
252 120 0
0 0 0
0 0 0
0 0 0
0 0 0
0 0 0
0 0 0
0 0 0
0 0 0
0 0 0
0 0 0
84 84 84
100 100 100
124 124 124
124 124 124
124 124 124
112 112 112
84 84 84
28 28 28
32 32 32

44 44 44
100 100 100
140 140 140
124 124 124
124 124 124
124 124 124
140 140 140
140 140 140
140 140 140
112 112 112
44 44 44
0 0 0
0 0 0
0 0 0
0 0 0
0 0 0
0 0 0
228 108 0
228 216 0
188 120 72
0 0 0
0 0 0
0 0 0
0 0 0
128 80 44
128 80 44
0 0 0
0 0 0
0 0 0
252 120 0
228 216 0
160 100 60
116 76 40
64 48 24
0 0 0
0 0 0
0 0 0
0 0 0
0 0 0
64 48 24
0 0 0
0 0 0
0 0 0
136 88 48
228 216 0
136 88 48
56 44 20
0 0 0
0 0 0
0 0 0
0 0 0
0 0 0
0 0 0
112 112 112
140 140 140
140 140 140
140 140 140
124 124 124
112 112 112
100 100 100
100 100 100
72 72 72
28 28 28
32 32 32

44 44 44
100 100 100
140 140 140
112 112 112
84 84 84
84 84 84
84 84 84
84 84 84
84 84 84
112 112 112
84 84 84
0 0 0
0 0 0
0 0 0
0 0 0
0 0 0
0 0 0
228 216 0
228 108 0
168 104 64
0 0 0
0 0 0
0 0 0
0 0 0
144 92 52
0 0 0
0 0 0
0 0 0
0 0 0
252 120 0
228 108 0
136 88 48
136 88 48
136 88 48
116 76 40
0 0 0
0 0 0
0 0 0
0 0 0
64 48 24
0 0 0
0 0 0
56 44 20
116 76 40
252 120 0
228 216 0
56 44 20
0 0 0
0 0 0
0 0 0
0 0 0
44 44 44
72 72 72
112 112 112
140 140 140
112 112 112
112 112 112
84 84 84
84 84 84
84 84 84
84 84 84
44 44 44
28 28 28
32 32 32

44 44 44
100 100 100
140 140 140
112 112 112
84 84 84
84 84 84
84 84 84
84 84 84
84 84 84
84 84 84
72 72 72
0 0 0
0 0 0
0 0 0
0 0 0
0 0 0
0 0 0
228 216 0
136 88 48
84 60 28
0 0 0
0 0 0
0 0 0
0 0 0
84 60 28
252 152 64
64 48 24
64 48 24
84 60 28
252 152 64
228 216 0
228 216 0
252 168 92
252 168 92
136 88 48
116 76 40
0 0 0
0 0 0
128 80 44
64 48 24
0 0 0
56 44 20
56 44 20
116 76 40
252 120 0
228 216 0
56 44 20
0 0 0
0 0 0
0 0 0
0 0 0
44 44 44
72 72 72
112 112 112
140 140 140
112 112 112
84 84 84
84 84 84
84 84 84
84 84 84
72 72 72
44 44 44
28 28 28
32 32 32

44 44 44
100 100 100
140 140 140
112 112 112
84 84 84
84 84 84
84 84 84
84 84 84
84 84 84
72 72 72
56 56 56
0 0 0
0 0 0
0 0 0
0 0 0
0 0 0
0 0 0
228 216 0
144 92 52
84 60 28
0 0 0
0 0 0
0 0 0
0 0 0
128 80 44
136 88 48
252 152 64
228 216 0
252 252 124
228 216 0
228 216 0
228 216 0
228 216 0
228 216 0
252 152 64
116 76 40
64 48 24
160 100 60
64 48 24
0 0 0
0 0 0
56 44 20
56 44 20
116 76 40
252 120 0
228 216 0
56 44 20
0 0 0
0 0 0
0 0 0
0 0 0
44 44 44
72 72 72
112 112 112
140 140 140
112 112 112
84 84 84
84 84 84
84 84 84
84 84 84
72 72 72
44 44 44
28 28 28
32 32 32

44 44 44
100 100 100
140 140 140
112 112 112
84 84 84
84 84 84
84 84 84
84 84 84
84 84 84
72 72 72
44 44 44
0 0 0
0 0 0
0 0 0
0 0 0
0 0 0
0 0 0
228 216 0
144 92 52
128 80 44
0 0 0
0 0 0
0 0 0
0 0 0
0 0 0
128 80 44
136 88 48
252 252 124
252 252 124
228 216 0
228 216 0
228 216 0
228 216 0
228 216 0
252 152 64
116 76 40
64 48 24
0 0 0
0 0 0
0 0 0
0 0 0
56 44 20
56 44 20
116 76 40
252 120 0
228 216 0
56 44 20
0 0 0
0 0 0
0 0 0
0 0 0
44 44 44
72 72 72
112 112 112
124 124 124
112 112 112
72 72 72
72 72 72
72 72 72
72 72 72
72 72 72
44 44 44
28 28 28
32 32 32

44 44 44
100 100 100
140 140 140
84 84 84
72 72 72
72 72 72
72 72 72
72 72 72
72 72 72
72 72 72
44 44 44
0 0 0
0 0 0
0 0 0
0 0 0
0 0 0
0 0 0
228 216 0
144 92 52
56 44 20
0 0 0
56 44 20
0 0 0
0 0 0
0 0 0
0 0 0
64 48 24
136 88 48
252 252 124
228 108 0
252 152 64
252 152 64
252 152 64
252 152 64
228 108 0
116 76 40
64 48 24
0 0 0
0 0 0
0 0 0
0 0 0
56 44 20
56 44 20
116 76 40
252 120 0
228 216 0
56 44 20
0 0 0
0 0 0
0 0 0
0 0 0
44 44 44
72 72 72
84 84 84
72 72 72
44 44 44
44 44 44
44 44 44
44 44 44
44 44 44
44 44 44
44 44 44
28 28 28
32 32 32

44 44 44
84 84 84
84 84 84
44 44 44
44 44 44
44 44 44
44 44 44
44 44 44
44 44 44
44 44 44
44 44 44
0 0 0
0 0 0
0 0 0
0 0 0
0 0 0
0 0 0
228 216 0
144 92 52
56 44 20
0 0 0
56 44 20
0 0 0
0 0 0
0 0 0
0 0 0
0 0 0
84 60 28
252 152 64
228 108 0
252 152 64
252 152 64
252 152 64
252 152 64
156 76 0
64 48 24
0 0 0
0 0 0
0 0 0
0 0 0
0 0 0
56 44 20
84 60 28
116 76 40
252 120 0
228 216 0
56 44 20
0 0 0
0 0 0
0 0 0
0 0 0
0 0 0
0 0 0
0 0 0
0 0 0
0 0 0
0 0 0
0 0 0
0 0 0
0 0 0
0 0 0
0 0 0
28 28 28
32 32 32

44 44 44
32 32 32
32 32 32
32 32 32
32 32 32
0 0 0
0 0 0
0 0 0
0 0 0
0 0 0
0 0 0
0 0 0
0 0 0
0 0 0
0 0 0
0 0 0
0 0 0
228 216 0
144 92 52
56 44 20
0 0 0
0 0 0
64 48 24
0 0 0
0 0 0
0 0 0
0 0 0
84 60 28
252 152 64
228 108 0
204 96 0
204 96 0
204 96 0
204 96 0
156 76 0
156 76 0
0 0 0
0 0 0
0 0 0
0 0 0
0 0 0
84 60 28
84 60 28
156 76 0
252 120 0
228 216 0
56 44 20
0 0 0
0 0 0
0 0 0
0 0 0
44 44 44
72 72 72
112 112 112
140 140 140
140 140 140
140 140 140
140 140 140
140 140 140
140 140 140
124 124 124
84 84 84
28 28 28
32 32 32

44 44 44
100 100 100
140 140 140
140 140 140
140 140 140
140 140 140
140 140 140
140 140 140
140 140 140
124 124 124
84 84 84
0 0 0
0 0 0
0 0 0
0 0 0
0 0 0
0 0 0
228 216 0
144 92 52
56 44 20
0 0 0
64 48 24
0 0 0
0 0 0
0 0 0
0 0 0
0 0 0
84 60 28
228 108 0
156 76 0
156 76 0
156 76 0
156 76 0
156 76 0
116 76 40
156 76 0
0 0 0
0 0 0
0 0 0
0 0 0
0 0 0
0 0 0
156 76 0
156 76 0
252 120 0
228 216 0
56 44 20
0 0 0
0 0 0
0 0 0
0 0 0
44 44 44
72 72 72
112 112 112
140 140 140
112 112 112
112 112 112
112 112 112
112 112 112
112 112 112
84 84 84
72 72 72
28 28 28
32 32 32

44 44 44
100 100 100
140 140 140
112 112 112
112 112 112
112 112 112
112 112 112
112 112 112
112 112 112
72 72 72
44 44 44
0 0 0
0 0 0
0 0 0
0 0 0
0 0 0
0 0 0
228 216 0
136 88 48
84 60 28
0 0 0
128 80 44
0 0 0
0 0 0
0 0 0
0 0 0
0 0 0
84 60 28
252 120 0
156 76 0
84 60 28
84 60 28
84 60 28
116 76 40
156 76 0
116 76 40
0 0 0
0 0 0
0 0 0
0 0 0
56 44 20
156 76 0
156 76 0
188 120 72
252 120 0
228 216 0
56 44 20
0 0 0
0 0 0
0 0 0
0 0 0
44 44 44
72 72 72
112 112 112
140 140 140
112 112 112
84 84 84
84 84 84
84 84 84
84 84 84
84 84 84
44 44 44
28 28 28
32 32 32

44 44 44
100 100 100
140 140 140
112 112 112
84 84 84
84 84 84
84 84 84
84 84 84
84 84 84
72 72 72
44 44 44
0 0 0
0 0 0
0 0 0
0 0 0
0 0 0
0 0 0
228 108 0
228 216 0
84 60 28
0 0 0
128 80 44
0 0 0
0 0 0
0 0 0
0 0 0
0 0 0
84 60 28
228 108 0
156 76 0
64 48 24
84 60 28
84 60 28
156 76 0
156 76 0
156 76 0
0 0 0
0 0 0
0 0 0
0 0 0
84 60 28
156 76 0
188 120 72
252 156 96
252 120 0
252 176 128
56 44 20
0 0 0
0 0 0
0 0 0
32 32 32
44 44 44
72 72 72
112 112 112
140 140 140
112 112 112
84 84 84
84 84 84
84 84 84
84 84 84
72 72 72
44 44 44
28 28 28
32 32 32

44 44 44
100 100 100
140 140 140
112 112 112
84 84 84
84 84 84
84 84 84
84 84 84
84 84 84
72 72 72
44 44 44
0 0 0
0 0 0
0 0 0
0 0 0
0 0 0
0 0 0
0 0 0
228 216 0
84 60 28
0 0 0
128 80 44
64 48 24
0 0 0
0 0 0
0 0 0
0 0 0
84 60 28
136 88 48
156 76 0
0 0 0
64 48 24
64 48 24
108 72 36
156 76 0
156 76 0
0 0 0
0 0 0
0 0 0
0 0 0
0 0 0
188 120 72
188 120 72
252 120 0
228 216 0
116 76 40
56 44 20
0 0 0
0 0 0
0 0 0
32 32 32
32 32 32
72 72 72
112 112 112
140 140 140
112 112 112
84 84 84
84 84 84
84 84 84
84 84 84
72 72 72
44 44 44
28 28 28
32 32 32

44 44 44
100 100 100
140 140 140
112 112 112
84 84 84
84 84 84
84 84 84
84 84 84
84 84 84
72 72 72
44 44 44
0 0 0
0 0 0
0 0 0
0 0 0
0 0 0
0 0 0
0 0 0
228 216 0
136 88 48
64 48 24
64 48 24
128 80 44
0 0 0
0 0 0
0 0 0
0 0 0
136 88 48
252 120 0
156 76 0
0 0 0
0 0 0
0 0 0
84 60 28
156 76 0
228 108 0
0 0 0
0 0 0
0 0 0
0 0 0
0 0 0
188 120 72
252 156 96
252 120 0
228 216 0
0 0 0
0 0 0
0 0 0
0 0 0
0 0 0
32 32 32
56 56 56
72 72 72
112 112 112
140 140 140
112 112 112
84 84 84
84 84 84
84 84 84
84 84 84
72 72 72
44 44 44
28 28 28
32 32 32

44 44 44
100 100 100
140 140 140
112 112 112
84 84 84
84 84 84
84 84 84
84 84 84
84 84 84
72 72 72
44 44 44
0 0 0
0 0 0
0 0 0
0 0 0
0 0 0
0 0 0
0 0 0
228 108 0
228 216 0
84 60 28
0 0 0
64 48 24
0 0 0
0 0 0
0 0 0
0 0 0
136 88 48
252 120 0
156 76 0
0 0 0
0 0 0
0 0 0
0 0 0
228 108 0
252 136 32
0 0 0
0 0 0
0 0 0
0 0 0
0 0 0
252 156 96
252 120 0
252 120 0
188 120 72
0 0 0
0 0 0
0 0 0
0 0 0
0 0 0
32 32 32
56 56 56
72 72 72
112 112 112
124 124 124
112 112 112
84 84 84
72 72 72
72 72 72
72 72 72
72 72 72
44 44 44
28 28 28
32 32 32

44 44 44
100 100 100
140 140 140
84 84 84
72 72 72
72 72 72
72 72 72
72 72 72
72 72 72
72 72 72
44 44 44
0 0 0
0 0 0
0 0 0
0 0 0
0 0 0
0 0 0
0 0 0
0 0 0
228 108 0
144 92 52
64 48 24
64 48 24
0 0 0
0 0 0
0 0 0
0 0 0
64 48 24
252 168 92
156 76 0
0 0 0
0 0 0
0 0 0
0 0 0
228 108 0
228 216 0
0 0 0
0 0 0
0 0 0
0 0 0
0 0 0
252 120 0
252 120 0
228 216 0
0 0 0
0 0 0
0 0 0
0 0 0
0 0 0
0 0 0
0 0 0
44 44 44
56 56 56
84 84 84
72 72 72
44 44 44
44 44 44
44 44 44
44 44 44
44 44 44
44 44 44
44 44 44
28 28 28
32 32 32

44 44 44
84 84 84
84 84 84
44 44 44
44 44 44
44 44 44
44 44 44
44 44 44
44 44 44
44 44 44
44 44 44
0 0 0
0 0 0
0 0 0
0 0 0
0 0 0
0 0 0
0 0 0
0 0 0
228 108 0
136 88 48
84 60 28
0 0 0
0 0 0
0 0 0
0 0 0
0 0 0
64 48 24
228 216 0
156 76 0
0 0 0
0 0 0
0 0 0
64 48 24
228 108 0
228 216 0
0 0 0
0 0 0
0 0 0
0 0 0
0 0 0
252 120 0
228 216 0
116 76 40
0 0 0
0 0 0
0 0 0
0 0 0
0 0 0
0 0 0
0 0 0
0 0 0
0 0 0
0 0 0
0 0 0
0 0 0
0 0 0
0 0 0
0 0 0
0 0 0
0 0 0
0 0 0
28 28 28
32 32 32

44 44 44
32 32 32
32 32 32
32 32 32
32 32 32
0 0 0
0 0 0
0 0 0
0 0 0
0 0 0
0 0 0
0 0 0
0 0 0
0 0 0
0 0 0
0 0 0
0 0 0
0 0 0
0 0 0
56 44 20
228 108 0
84 60 28
64 48 24
64 48 24
0 0 0
0 0 0
84 60 28
228 216 0
228 216 0
228 216 0
64 48 24
64 48 24
64 48 24
228 216 0
252 252 124
228 216 0
228 216 0
84 60 28
0 0 0
0 0 0
0 0 0
228 216 0
116 76 40
0 0 0
0 0 0
0 0 0
0 0 0
0 0 0
0 0 0
0 0 0
32 32 32
56 56 56
72 72 72
124 124 124
140 140 140
140 140 140
140 140 140
140 140 140
140 140 140
140 140 140
124 124 124
84 84 84
28 28 28
32 32 32

44 44 44
100 100 100
140 140 140
140 140 140
140 140 140
140 140 140
140 140 140
140 140 140
140 140 140
124 124 124
84 84 84
0 0 0
0 0 0
0 0 0
0 0 0
0 0 0
0 0 0
0 0 0
0 0 0
0 0 0
0 0 0
84 60 28
84 60 28
0 0 0
0 0 0
0 0 0
228 216 0
64 48 24
228 216 0
228 216 0
156 156 0
228 108 0
252 252 124
228 108 0
228 108 0
228 216 0
64 48 24
228 108 0
0 0 0
0 0 0
0 0 0
116 76 40
0 0 0
0 0 0
0 0 0
0 0 0
0 0 0
0 0 0
0 0 0
0 0 0
32 32 32
56 56 56
72 72 72
112 112 112
140 140 140
112 112 112
112 112 112
112 112 112
112 112 112
112 112 112
112 112 112
72 72 72
28 28 28
32 32 32

44 44 44
100 100 100
140 140 140
112 112 112
112 112 112
112 112 112
112 112 112
112 112 112
112 112 112
84 84 84
44 44 44
0 0 0
0 0 0
0 0 0
0 0 0
0 0 0
0 0 0
0 0 0
0 0 0
0 0 0
0 0 0
0 0 0
0 0 0
0 0 0
180 112 68
228 108 0
252 64 64
252 64 64
200 0 0
252 64 64
200 0 0
200 0 0
200 0 0
200 0 0
228 108 0
200 0 0
228 108 0
200 0 0
0 0 0
0 0 0
0 0 0
0 0 0
0 0 0
0 0 0
0 0 0
0 0 0
0 0 0
0 0 0
0 0 0
28 28 28
32 32 32
56 56 56
72 72 72
112 112 112
140 140 140
112 112 112
84 84 84
84 84 84
84 84 84
84 84 84
84 84 84
44 44 44
28 28 28
32 32 32

44 44 44
100 100 100
140 140 140
112 112 112
84 84 84
84 84 84
84 84 84
84 84 84
84 84 84
72 72 72
44 44 44
0 0 0
0 0 0
0 0 0
0 0 0
0 0 0
0 0 0
0 0 0
0 0 0
0 0 0
0 0 0
0 0 0
0 0 0
224 0 0
252 64 64
252 64 64
252 0 0
200 0 0
200 0 0
200 0 0
200 0 0
200 0 0
200 0 0
200 0 0
200 0 0
200 0 0
200 0 0
200 0 0
136 0 0
0 0 0
0 0 0
0 0 0
0 0 0
0 0 0
0 0 0
0 0 0
0 0 0
0 0 0
0 0 0
28 28 28
44 44 44
56 56 56
72 72 72
112 112 112
140 140 140
112 112 112
84 84 84
84 84 84
84 84 84
84 84 84
72 72 72
44 44 44
28 28 28
32 32 32

44 44 44
100 100 100
140 140 140
112 112 112
84 84 84
84 84 84
84 84 84
84 84 84
84 84 84
72 72 72
44 44 44
0 0 0
0 0 0
0 0 0
0 0 0
0 0 0
0 0 0
0 0 0
0 0 0
0 0 0
0 0 0
0 0 0
224 0 0
252 64 64
252 0 0
200 0 0
164 0 0
136 0 0
100 0 0
100 0 0
100 0 0
100 0 0
100 0 0
100 0 0
136 0 0
164 0 0
200 0 0
200 0 0
200 0 0
136 0 0
0 0 0
0 0 0
0 0 0
0 0 0
0 0 0
0 0 0
0 0 0
0 0 0
0 0 0
28 28 28
44 44 44
56 56 56
72 72 72
112 112 112
140 140 140
112 112 112
84 84 84
84 84 84
84 84 84
84 84 84
72 72 72
44 44 44
28 28 28
32 32 32

44 44 44
100 100 100
140 140 140
112 112 112
84 84 84
84 84 84
84 84 84
84 84 84
84 84 84
72 72 72
44 44 44
0 0 0
0 0 0
0 0 0
0 0 0
0 0 0
0 0 0
0 0 0
0 0 0
0 0 0
0 0 0
224 0 0
252 64 64
252 0 0
200 0 0
136 0 0
100 0 0
100 0 0
100 0 0
0 0 0
0 0 0
0 0 0
0 0 0
0 0 0
100 0 0
100 0 0
136 0 0
200 0 0
200 0 0
200 0 0
136 0 0
0 0 0
0 0 0
0 0 0
0 0 0
0 0 0
0 0 0
0 0 0
0 0 0
28 28 28
44 44 44
56 56 56
72 72 72
112 112 112
140 140 140
112 112 112
84 84 84
84 84 84
84 84 84
84 84 84
72 72 72
44 44 44
28 28 28
32 32 32

44 44 44
100 100 100
140 140 140
84 84 84
72 72 72
72 72 72
72 72 72
72 72 72
72 72 72
72 72 72
44 44 44
0 0 0
0 0 0
0 0 0
0 0 0
0 0 0
0 0 0
0 0 0
0 0 0
0 0 0
188 0 0
252 64 64
252 0 0
200 0 0
136 0 0
192 192 192
192 192 192
112 112 112
0 0 0
0 0 0
192 192 192
192 192 192
192 192 192
192 192 192
192 192 192
192 192 192
192 192 192
112 112 112
200 0 0
200 0 0
176 0 0
88 0 0
0 0 0
0 0 0
0 0 0
0 0 0
0 0 0
0 0 0
0 0 0
28 28 28
32 32 32
56 56 56
72 72 72
112 112 112
140 140 140
112 112 112
84 84 84
84 84 84
84 84 84
84 84 84
72 72 72
44 44 44
28 28 28
32 32 32

44 44 44
84 84 84
84 84 84
44 44 44
44 44 44
44 44 44
44 44 44
44 44 44
44 44 44
44 44 44
44 44 44
0 0 0
0 0 0
0 0 0
0 0 0
0 0 0
0 0 0
0 0 0
0 0 0
0 0 0
236 0 0
252 64 64
200 0 0
164 0 0
100 0 0
192 192 192
124 124 124
32 32 32
0 0 0
0 0 0
192 192 192
124 124 124
124 124 124
124 124 124
124 124 124
124 124 124
124 124 124
32 32 32
136 0 0
200 0 0
200 0 0
136 0 0
64 0 0
0 0 0
0 0 0
0 0 0
0 0 0
0 0 0
0 0 0
0 0 0
32 32 32
56 56 56
72 72 72
112 112 112
124 124 124
112 112 112
84 84 84
72 72 72
72 72 72
72 72 72
72 72 72
44 44 44
28 28 28
32 32 32

44 44 44
32 32 32
32 32 32
32 32 32
32 32 32
32 32 32
0 0 0
0 0 0
0 0 0
0 0 0
0 0 0
0 0 0
0 0 0
0 0 0
0 0 0
0 0 0
0 0 0
0 0 0
0 0 0
152 0 0
252 64 64
252 0 0
200 0 0
136 0 0
100 0 0
192 192 192
124 124 124
32 32 32
0 0 0
0 0 0
192 192 192
124 124 124
32 32 32
32 32 32
32 32 32
32 32 32
32 32 32
32 32 32
100 0 0
212 0 0
200 0 0
164 0 0
100 0 0
0 0 0
0 0 0
0 0 0
0 0 0
0 0 0
0 0 0
0 0 0
0 0 0
44 44 44
56 56 56
84 84 84
72 72 72
44 44 44
44 44 44
44 44 44
44 44 44
44 44 44
44 44 44
44 44 44
28 28 28
32 32 32

44 44 44
100 100 100
140 140 140
140 140 140
140 140 140
140 140 140
140 140 140
140 140 140
140 140 140
124 124 124
84 84 84
0 0 0
0 0 0
0 0 0
0 0 0
0 0 0
0 0 0
0 0 0
0 0 0
188 0 0
252 64 64
200 0 0
164 0 0
100 0 0
76 0 0
192 192 192
124 124 124
32 32 32
0 0 0
0 0 0
192 192 192
124 124 124
32 32 32
0 0 0
0 0 0
0 0 0
0 0 0
0 0 0
100 0 0
224 0 0
200 0 0
200 0 0
100 0 0
64 0 0
0 0 0
0 0 0
0 0 0
0 0 0
0 0 0
0 0 0
0 0 0
0 0 0
0 0 0
0 0 0
0 0 0
0 0 0
0 0 0
0 0 0
0 0 0
0 0 0
0 0 0
0 0 0
28 28 28
32 32 32

44 44 44
100 100 100
140 140 140
112 112 112
112 112 112
112 112 112
112 112 112
112 112 112
112 112 112
84 84 84
44 44 44
0 0 0
0 0 0
0 0 0
0 0 0
0 0 0
0 0 0
0 0 0
0 0 0
212 0 0
252 0 0
200 0 0
164 0 0
100 0 0
0 0 0
192 192 192
124 124 124
32 32 32
0 0 0
0 0 0
192 192 192
124 124 124
32 32 32
0 0 0
0 0 0
0 0 0
0 0 0
0 0 0
0 0 0
252 32 32
200 0 0
200 0 0
124 0 0
64 0 0
0 0 0
0 0 0
0 0 0
0 0 0
0 0 0
0 0 0
32 32 32
56 56 56
72 72 72
112 112 112
140 140 140
140 140 140
140 140 140
140 140 140
140 140 140
140 140 140
124 124 124
84 84 84
28 28 28
32 32 32

44 44 44
100 100 100
140 140 140
112 112 112
84 84 84
84 84 84
84 84 84
84 84 84
84 84 84
72 72 72
44 44 44
0 0 0
0 0 0
0 0 0
0 0 0
0 0 0
0 0 0
0 0 0
0 0 0
212 0 0
252 0 0
200 0 0
136 0 0
100 0 0
0 0 0
192 192 192
124 124 124
192 192 192
192 192 192
192 192 192
192 192 192
124 124 124
140 140 140
180 180 180
180 180 180
180 180 180
180 180 180
112 112 112
0 0 0
252 32 32
200 0 0
200 0 0
136 0 0
64 0 0
0 0 0
0 0 0
0 0 0
0 0 0
0 0 0
0 0 0
32 32 32
56 56 56
72 72 72
112 112 112
140 140 140
112 112 112
112 112 112
112 112 112
112 112 112
112 112 112
84 84 84
72 72 72
28 28 28
32 32 32

44 44 44
100 100 100
140 140 140
84 84 84
72 72 72
72 72 72
72 72 72
72 72 72
72 72 72
72 72 72
44 44 44
0 0 0
0 0 0
0 0 0
0 0 0
0 0 0
0 0 0
0 0 0
0 0 0
212 0 0
252 0 0
200 0 0
136 0 0
100 0 0
0 0 0
192 192 192
124 124 124
124 124 124
124 124 124
124 124 124
124 124 124
124 124 124
124 124 124
124 124 124
124 124 124
124 124 124
124 124 124
32 32 32
0 0 0
252 64 64
200 0 0
200 0 0
152 0 0
64 0 0
0 0 0
0 0 0
0 0 0
0 0 0
0 0 0
0 0 0
32 32 32
56 56 56
72 72 72
112 112 112
140 140 140
112 112 112
84 84 84
84 84 84
84 84 84
84 84 84
84 84 84
44 44 44
28 28 28
32 32 32

44 44 44
84 84 84
84 84 84
44 44 44
44 44 44
44 44 44
44 44 44
44 44 44
44 44 44
44 44 44
44 44 44
0 0 0
0 0 0
0 0 0
0 0 0
0 0 0
0 0 0
0 0 0
0 0 0
176 0 0
236 0 0
200 0 0
136 0 0
100 0 0
0 0 0
112 112 112
32 32 32
32 32 32
32 32 32
32 32 32
140 140 140
124 124 124
32 32 32
32 32 32
32 32 32
140 140 140
124 124 124
32 32 32
0 0 0
252 64 64
200 0 0
200 0 0
136 0 0
64 0 0
0 0 0
0 0 0
0 0 0
0 0 0
0 0 0
0 0 0
32 32 32
56 56 56
72 72 72
112 112 112
140 140 140
112 112 112
84 84 84
72 72 72
72 72 72
72 72 72
72 72 72
44 44 44
28 28 28
32 32 32

44 44 44
32 32 32
32 32 32
32 32 32
32 32 32
0 0 0
0 0 0
0 0 0
0 0 0
0 0 0
0 0 0
0 0 0
0 0 0
0 0 0
0 0 0
0 0 0
0 0 0
0 0 0
0 0 0
176 0 0
224 0 0
200 0 0
164 0 0
100 0 0
0 0 0
0 0 0
0 0 0
0 0 0
0 0 0
0 0 0
192 192 192
124 124 124
32 32 32
0 0 0
0 0 0
192 192 192
124 124 124
32 32 32
0 0 0
252 64 64
200 0 0
200 0 0
124 0 0
64 0 0
0 0 0
0 0 0
0 0 0
0 0 0
0 0 0
0 0 0
0 0 0
44 44 44
56 56 56
84 84 84
72 72 72
44 44 44
44 44 44
44 44 44
44 44 44
44 44 44
44 44 44
44 44 44
28 28 28
32 32 32

44 44 44
100 100 100
140 140 140
140 140 140
140 140 140
140 140 140
140 140 140
140 140 140
140 140 140
124 124 124
84 84 84
0 0 0
0 0 0
0 0 0
0 0 0
0 0 0
0 0 0
0 0 0
0 0 0
100 0 0
224 0 0
200 0 0
164 0 0
100 0 0
76 0 0
0 0 0
0 0 0
0 0 0
0 0 0
0 0 0
192 192 192
124 124 124
32 32 32
0 0 0
0 0 0
192 192 192
124 124 124
32 32 32
100 0 0
252 32 32
200 0 0
200 0 0
100 0 0
0 0 0
0 0 0
0 0 0
0 0 0
0 0 0
0 0 0
0 0 0
0 0 0
0 0 0
0 0 0
0 0 0
0 0 0
0 0 0
0 0 0
0 0 0
0 0 0
0 0 0
0 0 0
0 0 0
28 28 28
32 32 32

44 44 44
100 100 100
140 140 140
112 112 112
112 112 112
112 112 112
112 112 112
112 112 112
112 112 112
84 84 84
44 44 44
0 0 0
0 0 0
0 0 0
0 0 0
0 0 0
0 0 0
0 0 0
0 0 0
0 0 0
188 0 0
224 0 0
200 0 0
124 0 0
100 0 0
192 192 192
192 192 192
192 192 192
192 192 192
192 192 192
192 192 192
124 124 124
32 32 32
0 0 0
0 0 0
192 192 192
124 124 124
32 32 32
136 0 0
176 0 0
200 0 0
152 0 0
100 0 0
0 0 0
0 0 0
0 0 0
0 0 0
0 0 0
0 0 0
0 0 0
32 32 32
56 56 56
72 72 72
112 112 112
140 140 140
140 140 140
140 140 140
140 140 140
140 140 140
140 140 140
124 124 124
84 84 84
28 28 28
32 32 32

44 44 44
100 100 100
140 140 140
112 112 112
84 84 84
84 84 84
84 84 84
84 84 84
84 84 84
72 72 72
44 44 44
0 0 0
0 0 0
0 0 0
0 0 0
0 0 0
0 0 0
0 0 0
0 0 0
0 0 0
100 0 0
200 0 0
200 0 0
176 0 0
100 0 0
192 192 192
124 124 124
124 124 124
124 124 124
124 124 124
124 124 124
124 124 124
32 32 32
0 0 0
0 0 0
192 192 192
124 124 124
32 32 32
164 0 0
200 0 0
200 0 0
100 0 0
64 0 0
0 0 0
0 0 0
0 0 0
0 0 0
0 0 0
0 0 0
0 0 0
32 32 32
56 56 56
72 72 72
112 112 112
140 140 140
112 112 112
112 112 112
112 112 112
112 112 112
112 112 112
84 84 84
72 72 72
28 28 28
32 32 32

44 44 44
100 100 100
140 140 140
112 112 112
84 84 84
84 84 84
84 84 84
84 84 84
84 84 84
72 72 72
44 44 44
0 0 0
0 0 0
0 0 0
0 0 0
0 0 0
0 0 0
0 0 0
0 0 0
0 0 0
0 0 0
164 0 0
200 0 0
200 0 0
164 0 0
112 112 112
32 32 32
32 32 32
32 32 32
32 32 32
32 32 32
32 32 32
32 32 32
0 0 0
0 0 0
112 112 112
32 32 32
32 32 32
200 0 0
200 0 0
152 0 0
100 0 0
0 0 0
0 0 0
0 0 0
0 0 0
0 0 0
0 0 0
0 0 0
0 0 0
32 32 32
56 56 56
72 72 72
112 112 112
140 140 140
112 112 112
84 84 84
84 84 84
84 84 84
84 84 84
72 72 72
44 44 44
28 28 28
32 32 32

44 44 44
100 100 100
140 140 140
84 84 84
72 72 72
72 72 72
72 72 72
72 72 72
72 72 72
72 72 72
44 44 44
0 0 0
0 0 0
0 0 0
0 0 0
0 0 0
0 0 0
0 0 0
0 0 0
0 0 0
0 0 0
0 0 0
152 0 0
200 0 0
200 0 0
164 0 0
100 0 0
100 0 0
100 0 0
0 0 0
0 0 0
0 0 0
0 0 0
0 0 0
100 0 0
100 0 0
100 0 0
200 0 0
200 0 0
200 0 0
100 0 0
0 0 0
0 0 0
0 0 0
0 0 0
0 0 0
0 0 0
0 0 0
0 0 0
0 0 0
32 32 32
56 56 56
72 72 72
112 112 112
140 140 140
112 112 112
84 84 84
84 84 84
84 84 84
84 84 84
72 72 72
44 44 44
28 28 28
32 32 32

44 44 44
84 84 84
84 84 84
44 44 44
44 44 44
44 44 44
44 44 44
44 44 44
44 44 44
44 44 44
44 44 44
0 0 0
0 0 0
0 0 0
0 0 0
0 0 0
0 0 0
0 0 0
0 0 0
0 0 0
40 32 12
56 44 20
0 0 0
152 0 0
200 0 0
200 0 0
212 0 0
212 0 0
200 0 0
200 0 0
200 0 0
200 0 0
200 0 0
200 0 0
200 0 0
252 0 0
236 0 0
200 0 0
200 0 0
100 0 0
0 0 0
56 44 20
40 32 12
0 0 0
0 0 0
0 0 0
0 0 0
0 0 0
0 0 0
0 0 0
32 32 32
56 56 56
72 72 72
112 112 112
140 140 140
84 84 84
72 72 72
72 72 72
72 72 72
72 72 72
72 72 72
44 44 44
28 28 28
32 32 32

44 44 44
32 32 32
32 32 32
32 32 32
32 32 32
0 0 0
0 0 0
0 0 0
0 0 0
0 0 0
0 0 0
0 0 0
0 0 0
0 0 0
0 0 0
0 0 0
0 0 0
0 0 0
0 0 0
0 0 0
40 32 12
56 44 20
56 44 20
0 0 0
152 0 0
200 0 0
200 0 0
224 0 0
224 0 0
236 0 0
236 0 0
252 0 0
252 0 0
252 0 0
236 0 0
200 0 0
200 0 0
152 0 0
100 0 0
0 0 0
56 44 20
56 44 20
40 32 12
0 0 0
0 0 0
0 0 0
0 0 0
0 0 0
0 0 0
0 0 0
0 0 0
44 44 44
56 56 56
84 84 84
72 72 72
44 44 44
44 44 44
44 44 44
44 44 44
44 44 44
44 44 44
44 44 44
28 28 28
32 32 32

44 44 44
124 124 124
140 140 140
140 140 140
140 140 140
140 140 140
140 140 140
140 140 140
140 140 140
124 124 124
84 84 84
0 0 0
0 0 0
0 0 0
0 0 0
0 0 0
0 0 0
0 0 0
0 0 0
40 32 12
56 44 20
56 44 20
56 44 20
56 44 20
0 0 0
0 0 0
152 0 0
152 0 0
200 0 0
200 0 0
200 0 0
200 0 0
200 0 0
200 0 0
200 0 0
152 0 0
152 0 0
0 0 0
56 44 20
56 44 20
56 44 20
56 44 20
56 44 20
40 32 12
0 0 0
0 0 0
0 0 0
0 0 0
0 0 0
0 0 0
0 0 0
0 0 0
0 0 0
0 0 0
0 0 0
0 0 0
0 0 0
0 0 0
0 0 0
0 0 0
0 0 0
0 0 0
28 28 28
32 32 32

44 44 44
124 124 124
140 140 140
84 84 84
84 84 84
84 84 84
84 84 84
84 84 84
84 84 84
84 84 84
44 44 44
0 0 0
0 0 0
0 0 0
0 0 0
252 244 0
252 244 0
252 168 92
252 168 92
252 168 92
252 168 92
252 168 92
252 168 92
252 168 92
252 168 92
228 108 0
92 64 32
92 64 32
92 64 32
92 64 32
92 64 32
92 64 32
92 64 32
92 64 32
92 64 32
92 64 32
92 64 32
228 108 0
252 168 92
252 168 92
252 168 92
252 168 92
252 168 92
252 168 92
252 168 92
252 168 92
156 76 0
0 0 0
0 0 0
0 0 0
32 32 32
56 56 56
72 72 72
124 124 124
140 140 140
140 140 140
140 140 140
140 140 140
140 140 140
140 140 140
124 124 124
84 84 84
28 28 28
32 32 32

44 44 44
124 124 124
140 140 140
84 84 84
72 72 72
72 72 72
72 72 72
72 72 72
72 72 72
72 72 72
44 44 44
0 0 0
0 0 0
0 0 0
0 0 0
252 244 0
228 108 0
228 108 0
228 108 0
228 108 0
228 108 0
228 108 0
228 108 0
228 108 0
228 108 0
228 108 0
228 108 0
228 108 0
228 108 0
228 108 0
228 108 0
228 108 0
228 108 0
228 108 0
228 108 0
228 108 0
228 108 0
228 108 0
228 108 0
228 108 0
228 108 0
228 108 0
228 108 0
228 108 0
228 108 0
228 108 0
108 72 36
0 0 0
0 0 0
0 0 0
32 32 32
56 56 56
72 72 72
124 124 124
140 140 140
112 112 112
84 84 84
84 84 84
72 72 72
72 72 72
72 72 72
72 72 72
28 28 28
32 32 32

44 44 44
84 84 84
84 84 84
44 44 44
44 44 44
44 44 44
44 44 44
44 44 44
44 44 44
44 44 44
44 44 44
32 32 32
0 0 0
32 32 32
44 44 44
252 168 92
108 72 36
108 72 36
108 72 36
108 72 36
108 72 36
108 72 36
108 72 36
108 72 36
108 72 36
108 72 36
108 72 36
108 72 36
108 72 36
108 72 36
108 72 36
108 72 36
108 72 36
108 72 36
108 72 36
108 72 36
108 72 36
108 72 36
108 72 36
108 72 36
108 72 36
108 72 36
108 72 36
108 72 36
108 72 36
108 72 36
108 72 36
56 56 56
44 44 44
32 32 32
0 0 0
44 44 44
56 56 56
84 84 84
72 72 72
44 44 44
44 44 44
44 44 44
44 44 44
44 44 44
44 44 44
44 44 44
44 44 44
44 44 44

72 72 72
72 72 72
72 72 72
72 72 72
72 72 72
72 72 72
72 72 72
72 72 72
72 72 72
72 72 72
72 72 72
32 32 32
32 32 32
44 44 44
56 56 56
72 72 72
84 84 84
100 100 100
100 100 100
112 112 112
112 112 112
112 112 112
112 112 112
112 112 112
112 112 112
112 112 112
112 112 112
112 112 112
112 112 112
112 112 112
112 112 112
112 112 112
112 112 112
112 112 112
112 112 112
112 112 112
112 112 112
112 112 112
112 112 112
112 112 112
112 112 112
112 112 112
112 112 112
112 112 112
112 112 112
100 100 100
100 100 100
100 100 100
84 84 84
72 72 72
44 44 44
72 72 72
72 72 72
72 72 72
72 72 72
72 72 72
72 72 72
72 72 72
72 72 72
72 72 72
72 72 72
72 72 72
72 72 72
72 72 72

