P3
# ASCII PPM file
64 64
255

40 32 12
40 32 12
40 32 12
40 32 12
40 32 12
40 32 12
40 32 12
40 32 12
40 32 12
40 32 12
40 32 12
40 32 12
40 32 12
40 32 12
40 32 12
40 32 12
40 32 12
40 32 12
40 32 12
40 32 12
40 32 12
40 32 12
40 32 12
40 32 12
40 32 12
40 32 12
40 32 12
40 32 12
40 32 12
40 32 12
40 32 12
40 32 12
40 32 12
40 32 12
40 32 12
40 32 12
40 32 12
40 32 12
40 32 12
40 32 12
40 32 12
40 32 12
40 32 12
40 32 12
40 32 12
40 32 12
40 32 12
40 32 12
40 32 12
40 32 12
40 32 12
40 32 12
40 32 12
40 32 12
40 32 12
40 32 12
40 32 12
40 32 12
40 32 12
40 32 12
40 32 12
40 32 12
40 32 12
40 32 12

64 48 24
64 48 24
64 48 24
64 48 24
64 48 24
64 48 24
64 48 24
64 48 24
64 48 24
64 48 24
64 48 24
64 48 24
64 48 24
64 48 24
64 48 24
64 48 24
64 48 24
64 48 24
64 48 24
64 48 24
64 48 24
64 48 24
64 48 24
64 48 24
64 48 24
64 48 24
64 48 24
64 48 24
64 48 24
64 48 24
64 48 24
64 48 24
64 48 24
64 48 24
64 48 24
64 48 24
64 48 24
64 48 24
64 48 24
64 48 24
64 48 24
64 48 24
64 48 24
64 48 24
64 48 24
64 48 24
64 48 24
64 48 24
64 48 24
64 48 24
64 48 24
64 48 24
64 48 24
64 48 24
64 48 24
64 48 24
64 48 24
64 48 24
64 48 24
64 48 24
64 48 24
64 48 24
64 48 24
64 48 24

92 64 32
92 64 32
92 64 32
92 64 32
92 64 32
92 64 32
92 64 32
92 64 32
92 64 32
92 64 32
92 64 32
92 64 32
92 64 32
92 64 32
92 64 32
92 64 32
92 64 32
92 64 32
92 64 32
92 64 32
92 64 32
92 64 32
92 64 32
92 64 32
92 64 32
92 64 32
92 64 32
92 64 32
92 64 32
92 64 32
92 64 32
92 64 32
92 64 32
92 64 32
92 64 32
92 64 32
92 64 32
92 64 32
92 64 32
92 64 32
92 64 32
92 64 32
92 64 32
92 64 32
92 64 32
92 64 32
92 64 32
92 64 32
92 64 32
92 64 32
92 64 32
92 64 32
92 64 32
92 64 32
92 64 32
92 64 32
92 64 32
92 64 32
92 64 32
92 64 32
92 64 32
92 64 32
92 64 32
92 64 32

40 32 12
40 32 12
40 32 12
40 32 12
40 32 12
40 32 12
40 32 12
40 32 12
40 32 12
40 32 12
40 32 12
40 32 12
40 32 12
40 32 12
40 32 12
40 32 12
40 32 12
40 32 12
40 32 12
40 32 12
40 32 12
40 32 12
40 32 12
40 32 12
40 32 12
40 32 12
40 32 12
40 32 12
40 32 12
40 32 12
40 32 12
40 32 12
40 32 12
40 32 12
40 32 12
40 32 12
40 32 12
40 32 12
40 32 12
40 32 12
40 32 12
40 32 12
40 32 12
40 32 12
40 32 12
40 32 12
40 32 12
40 32 12
40 32 12
40 32 12
40 32 12
40 32 12
40 32 12
40 32 12
40 32 12
40 32 12
40 32 12
40 32 12
40 32 12
40 32 12
40 32 12
40 32 12
40 32 12
40 32 12

40 32 12
40 32 12
64 48 24
72 56 24
72 56 24
72 56 24
72 56 24
40 32 12
92 64 32
40 32 12
40 32 12
92 64 32
56 44 20
40 32 12
40 32 12
40 32 12
40 32 12
72 56 24
72 56 24
40 32 12
64 48 24
40 32 12
64 48 24
40 32 12
40 32 12
40 32 12
92 64 32
40 32 12
40 32 12
92 64 32
72 56 24
40 32 12
72 56 24
40 32 12
92 64 32
40 32 12
40 32 12
92 64 32
56 44 20
40 32 12
40 32 12
40 32 12
56 44 20
40 32 12
92 64 32
40 32 12
40 32 12
92 64 32
40 32 12
72 56 24
40 32 12
40 32 12
72 56 24
40 32 12
72 56 24
40 32 12
72 56 24
72 56 24
40 32 12
92 64 32
40 32 12
40 32 12
92 64 32
64 48 24

40 32 12
40 32 12
64 48 24
72 56 24
72 56 24
72 56 24
56 44 20
40 32 12
92 64 32
40 32 12
40 32 12
92 64 32
64 48 24
40 32 12
40 32 12
40 32 12
40 32 12
72 56 24
72 56 24
40 32 12
64 48 24
40 32 12
64 48 24
40 32 12
40 32 12
40 32 12
92 64 32
40 32 12
40 32 12
92 64 32
72 56 24
40 32 12
72 56 24
40 32 12
92 64 32
40 32 12
40 32 12
92 64 32
72 56 24
56 44 20
40 32 12
56 44 20
72 56 24
40 32 12
92 64 32
40 32 12
40 32 12
92 64 32
40 32 12
72 56 24
40 32 12
40 32 12
72 56 24
40 32 12
72 56 24
40 32 12
72 56 24
72 56 24
40 32 12
92 64 32
40 32 12
40 32 12
92 64 32
64 48 24

40 32 12
40 32 12
56 44 20
72 56 24
72 56 24
228 216 0
204 196 0
180 172 0
180 172 0
180 172 0
180 172 0
180 172 0
180 172 0
180 172 0
180 172 0
180 172 0
180 172 0
180 172 0
180 172 0
180 172 0
180 172 0
180 172 0
180 172 0
180 172 0
180 172 0
180 172 0
180 172 0
180 172 0
180 172 0
180 172 0
180 172 0
180 172 0
180 172 0
180 172 0
180 172 0
180 172 0
180 172 0
180 172 0
180 172 0
180 172 0
180 172 0
180 172 0
180 172 0
180 172 0
180 172 0
180 172 0
180 172 0
180 172 0
180 172 0
180 172 0
180 172 0
180 172 0
180 172 0
180 172 0
180 172 0
180 172 0
180 172 0
180 172 0
204 96 0
56 44 20
40 32 12
40 32 12
92 64 32
64 48 24

40 32 12
40 32 12
40 32 12
64 48 24
72 56 24
204 196 0
180 172 0
204 96 0
204 96 0
204 96 0
204 96 0
204 96 0
204 96 0
204 96 0
204 96 0
204 96 0
204 96 0
204 96 0
204 96 0
204 96 0
204 96 0
204 96 0
204 96 0
204 96 0
204 96 0
204 96 0
204 96 0
204 96 0
204 96 0
204 96 0
204 96 0
204 96 0
204 96 0
204 96 0
204 96 0
204 96 0
204 96 0
204 96 0
204 96 0
204 96 0
204 96 0
204 96 0
204 96 0
204 96 0
204 96 0
204 96 0
204 96 0
204 96 0
204 96 0
204 96 0
204 96 0
204 96 0
204 96 0
204 96 0
204 96 0
204 96 0
204 96 0
204 96 0
204 96 0
56 44 20
40 32 12
40 32 12
92 64 32
64 48 24

64 48 24
40 32 12
40 32 12
56 44 20
72 56 24
180 172 0
204 96 0
72 56 24
72 56 24
72 56 24
72 56 24
72 56 24
72 56 24
72 56 24
72 56 24
72 56 24
72 56 24
72 56 24
72 56 24
72 56 24
72 56 24
72 56 24
72 56 24
72 56 24
72 56 24
72 56 24
72 56 24
72 56 24
72 56 24
72 56 24
72 56 24
72 56 24
72 56 24
72 56 24
72 56 24
72 56 24
72 56 24
72 56 24
72 56 24
72 56 24
72 56 24
72 56 24
72 56 24
72 56 24
72 56 24
72 56 24
72 56 24
72 56 24
72 56 24
72 56 24
72 56 24
72 56 24
72 56 24
72 56 24
72 56 24
72 56 24
72 56 24
204 96 0
108 72 36
56 44 20
40 32 12
40 32 12
92 64 32
40 32 12

64 48 24
40 32 12
40 32 12
40 32 12
56 44 20
180 172 0
204 96 0
72 56 24
0 0 0
0 0 0
0 0 0
0 0 0
0 0 0
0 0 0
0 0 0
0 0 0
0 0 0
0 0 0
0 0 0
0 0 0
0 0 0
0 0 0
0 0 0
0 0 0
0 0 0
0 0 0
0 0 0
0 0 0
0 0 0
0 0 0
0 0 0
0 0 0
0 0 0
0 0 0
0 0 0
0 0 0
0 0 0
0 0 0
0 0 0
0 0 0
0 0 0
0 0 0
0 0 0
0 0 0
0 0 0
0 0 0
0 0 0
0 0 0
0 0 0
0 0 0
0 0 0
0 0 0
0 0 0
0 0 0
0 0 0
0 0 0
0 0 0
180 84 0
108 72 36
56 44 20
40 32 12
40 32 12
92 64 32
40 32 12

72 56 24
40 32 12
40 32 12
40 32 12
40 32 12
180 172 0
204 96 0
72 56 24
0 0 0
0 64 64
0 64 64
0 64 64
0 64 64
0 88 88
0 108 108
0 108 108
0 108 108
0 112 112
0 112 112
0 112 112
0 108 108
0 108 108
0 108 108
0 88 88
0 88 88
0 88 88
0 64 64
0 64 64
0 64 64
0 64 64
0 64 64
0 64 64
0 64 64
0 64 64
0 64 64
0 64 64
0 64 64
0 64 64
0 64 64
0 64 64
0 64 64
0 64 64
0 64 64
0 64 64
0 64 64
0 64 64
0 64 64
0 64 64
0 64 64
0 64 64
0 64 64
0 64 64
0 64 64
0 64 64
44 44 44
44 44 44
44 44 44
180 84 0
108 72 36
56 44 20
40 32 12
40 32 12
92 64 32
40 32 12

72 56 24
40 32 12
40 32 12
40 32 12
40 32 12
180 172 0
204 96 0
72 56 24
0 0 0
0 64 64
0 64 64
0 88 88
0 112 112
0 112 112
0 112 112
0 124 124
0 132 132
0 132 132
0 156 156
0 180 180
252 92 92
252 64 64
252 64 64
252 64 64
236 0 0
236 0 0
236 0 0
236 0 0
236 0 0
236 0 0
224 0 0
224 0 0
224 0 0
224 0 0
224 0 0
236 0 0
236 0 0
236 0 0
236 0 0
236 0 0
236 0 0
236 0 0
236 0 0
252 64 64
252 64 64
252 64 64
252 92 92
0 132 132
0 132 132
0 112 112
0 88 88
0 64 64
0 64 64
0 64 64
0 88 88
0 64 64
0 64 64
180 84 0
108 72 36
56 44 20
40 32 12
40 32 12
92 64 32
40 32 12

64 48 24
72 56 24
40 32 12
40 32 12
40 32 12
180 172 0
204 96 0
72 56 24
0 0 0
0 64 64
0 88 88
0 112 112
0 112 112
0 124 124
0 132 132
0 156 156
0 180 180
252 92 92
252 64 64
236 0 0
236 0 0
236 0 0
236 0 0
236 0 0
224 0 0
224 0 0
224 0 0
224 0 0
224 0 0
188 0 0
224 0 0
188 0 0
224 0 0
188 0 0
224 0 0
188 0 0
224 0 0
224 0 0
224 0 0
224 0 0
224 0 0
224 0 0
236 0 0
236 0 0
236 0 0
236 0 0
236 0 0
252 64 64
252 92 92
0 132 132
0 88 88
0 88 88
0 64 64
0 88 88
0 64 64
0 88 88
0 88 88
180 84 0
108 72 36
56 44 20
40 32 12
40 32 12
92 64 32
40 32 12

64 48 24
72 56 24
40 32 12
40 32 12
40 32 12
180 172 0
204 96 0
72 56 24
0 0 0
0 88 88
0 112 112
0 112 112
0 124 124
0 132 132
0 156 156
0 180 180
236 0 0
252 64 64
252 64 64
252 64 64
236 0 0
252 64 64
236 0 0
236 0 0
236 0 0
224 0 0
224 0 0
224 0 0
224 0 0
224 0 0
188 0 0
224 0 0
188 0 0
224 0 0
188 0 0
224 0 0
224 0 0
224 0 0
224 0 0
224 0 0
224 0 0
236 0 0
236 0 0
236 0 0
252 64 64
236 0 0
252 64 64
252 64 64
252 64 64
236 0 0
0 112 112
0 88 88
0 88 88
0 108 108
0 88 88
0 88 88
0 88 88
180 84 0
108 72 36
56 44 20
40 32 12
40 32 12
92 64 32
40 32 12

56 44 20
72 56 24
72 56 24
40 32 12
40 32 12
180 172 0
204 96 0
72 56 24
0 0 0
0 88 88
0 108 108
0 124 124
0 124 124
0 112 112
0 132 132
236 0 0
252 64 64
252 64 64
252 64 64
252 64 64
252 64 64
236 0 0
252 64 64
236 0 0
224 0 0
236 0 0
224 0 0
224 0 0
224 0 0
224 0 0
224 0 0
188 0 0
224 0 0
188 0 0
224 0 0
188 0 0
224 0 0
224 0 0
224 0 0
236 0 0
236 0 0
224 0 0
236 0 0
252 64 64
236 0 0
252 64 64
252 64 64
252 64 64
252 64 64
252 64 64
236 0 0
0 112 112
0 88 88
0 88 88
0 108 108
0 88 88
0 112 112
180 84 0
108 72 36
56 44 20
40 32 12
40 32 12
92 64 32
40 32 12

40 32 12
72 56 24
72 56 24
72 56 24
40 32 12
180 172 0
204 96 0
72 56 24
0 0 0
0 108 108
0 108 108
0 124 124
0 132 132
0 112 112
236 0 0
212 0 0
236 0 0
252 64 64
252 64 64
252 64 64
236 0 0
252 64 64
236 0 0
236 0 0
236 0 0
224 0 0
224 0 0
224 0 0
224 0 0
224 0 0
188 0 0
224 0 0
188 0 0
224 0 0
188 0 0
224 0 0
224 0 0
224 0 0
224 0 0
224 0 0
224 0 0
236 0 0
236 0 0
236 0 0
252 64 64
236 0 0
252 64 64
252 64 64
252 64 64
236 0 0
212 0 0
236 0 0
0 112 112
0 112 112
0 112 112
0 112 112
0 132 132
180 84 0
108 72 36
56 44 20
40 32 12
40 32 12
92 64 32
40 32 12

40 32 12
64 48 24
72 56 24
72 56 24
56 44 20
180 172 0
204 96 0
72 56 24
0 0 0
0 108 108
0 112 112
0 124 124
0 132 132
0 112 112
64 0 0
164 0 0
188 0 0
236 0 0
252 64 64
236 0 0
188 0 0
136 0 0
136 0 0
112 0 0
112 0 0
112 0 0
112 0 0
112 0 0
112 0 0
112 0 0
112 0 0
112 0 0
112 0 0
112 0 0
112 0 0
112 0 0
112 0 0
112 0 0
112 0 0
112 0 0
112 0 0
112 0 0
112 0 0
136 0 0
136 0 0
188 0 0
236 0 0
252 64 64
236 0 0
188 0 0
164 0 0
64 0 0
0 112 112
0 124 124
0 132 132
0 132 132
0 132 132
180 84 0
108 72 36
56 44 20
40 32 12
40 32 12
92 64 32
40 32 12

40 32 12
64 48 24
72 56 24
72 56 24
72 56 24
180 172 0
204 96 0
72 56 24
0 0 0
0 88 88
0 108 108
0 124 124
0 124 124
0 112 112
64 0 0
64 0 0
164 0 0
188 0 0
188 0 0
112 0 0
136 0 0
0 64 64
0 64 64
0 64 64
0 64 64
0 64 64
56 56 56
56 56 56
44 44 44
44 44 44
32 32 32
32 32 32
32 32 32
32 32 32
44 44 44
56 56 56
0 64 64
0 88 88
0 88 88
0 88 88
0 88 88
0 64 64
32 32 32
32 32 32
32 32 32
136 0 0
112 0 0
188 0 0
188 0 0
164 0 0
64 0 0
64 0 0
0 124 124
0 132 132
0 132 132
0 156 156
0 156 156
180 84 0
108 72 36
56 44 20
40 32 12
40 32 12
92 64 32
40 32 12

40 32 12
56 44 20
64 48 24
72 56 24
72 56 24
180 172 0
204 96 0
72 56 24
0 0 0
0 88 88
0 88 88
0 108 108
0 124 124
0 64 64
64 0 0
64 0 0
88 0 0
112 0 0
64 0 0
112 0 0
32 32 32
0 64 64
0 64 64
0 64 64
0 64 64
56 56 56
44 44 44
44 44 44
32 32 32
32 32 32
32 32 32
32 32 32
32 32 32
32 32 32
44 44 44
44 44 44
56 56 56
0 64 64
0 88 88
0 88 88
0 64 64
0 64 64
44 44 44
0 64 64
32 32 32
32 32 32
112 0 0
64 0 0
112 0 0
88 0 0
64 0 0
64 0 0
0 132 132
0 156 156
0 156 156
0 156 156
0 156 156
180 84 0
108 72 36
56 44 20
40 32 12
40 32 12
92 64 32
64 48 24

40 32 12
40 32 12
64 48 24
72 56 24
72 56 24
180 172 0
204 96 0
72 56 24
0 0 0
0 88 88
0 108 108
0 112 112
0 112 112
236 0 0
112 0 0
112 0 0
64 0 0
64 0 0
64 0 0
64 0 0
0 64 64
112 112 112
180 180 180
180 180 180
124 124 124
56 56 56
32 32 32
32 32 32
32 32 32
72 72 72
124 124 124
152 152 152
180 180 180
180 180 180
32 32 32
32 32 32
44 44 44
56 56 56
0 64 64
0 64 64
56 56 56
152 152 152
180 180 180
72 72 72
32 32 32
32 32 32
64 0 0
64 0 0
64 0 0
64 0 0
112 0 0
112 0 0
236 0 0
0 132 132
0 156 156
0 156 156
0 132 132
180 84 0
108 72 36
56 44 20
40 32 12
40 32 12
92 64 32
64 48 24

40 32 12
40 32 12
56 44 20
72 56 24
72 56 24
180 172 0
204 96 0
72 56 24
0 0 0
0 64 64
0 112 112
0 88 88
236 0 0
236 0 0
236 0 0
164 0 0
112 0 0
64 0 0
64 0 0
32 32 32
152 152 152
180 180 180
112 112 112
56 56 56
32 32 32
32 32 32
44 44 44
32 32 32
32 32 32
124 124 124
152 152 152
180 180 180
152 152 152
44 44 44
32 32 32
0 0 0
44 44 44
44 44 44
0 64 64
0 64 64
32 32 32
44 44 44
124 124 124
180 180 180
124 124 124
32 32 32
64 0 0
64 0 0
64 0 0
112 0 0
164 0 0
236 0 0
236 0 0
236 0 0
0 132 132
0 132 132
0 124 124
180 84 0
108 72 36
56 44 20
40 32 12
40 32 12
92 64 32
64 48 24

40 32 12
40 32 12
40 32 12
72 56 24
72 56 24
180 172 0
204 96 0
72 56 24
0 0 0
0 64 64
0 88 88
236 0 0
252 64 64
252 64 64
236 0 0
236 0 0
164 0 0
88 0 0
32 32 32
152 152 152
180 180 180
112 112 112
56 56 56
32 32 32
32 32 32
32 32 32
44 44 44
44 44 44
44 44 44
124 124 124
180 180 180
180 180 180
180 180 180
100 100 100
180 180 180
180 180 180
112 112 112
44 44 44
56 56 56
56 56 56
32 32 32
40 32 12
44 44 44
124 124 124
180 180 180
72 72 72
32 32 32
64 0 0
88 0 0
164 0 0
236 0 0
236 0 0
252 64 64
252 64 64
236 0 0
0 124 124
0 112 112
180 84 0
108 72 36
56 44 20
40 32 12
40 32 12
92 64 32
64 48 24

40 32 12
40 32 12
40 32 12
56 44 20
40 32 12
180 172 0
204 96 0
72 56 24
0 0 0
0 64 64
136 0 0
236 0 0
236 0 0
252 64 64
252 64 64
236 0 0
236 0 0
32 32 32
0 88 88
180 180 180
112 112 112
56 56 56
32 32 32
32 32 32
32 32 32
32 32 32
44 44 44
44 44 44
44 44 44
124 124 124
124 124 124
168 168 168
100 100 100
72 72 72
44 44 44
56 56 56
56 56 56
44 44 44
56 56 56
44 44 44
32 32 32
40 32 12
32 32 32
44 44 44
152 152 152
152 152 152
72 72 72
32 32 32
32 32 32
236 0 0
236 0 0
252 64 64
252 64 64
236 0 0
236 0 0
200 0 0
0 112 112
180 84 0
108 72 36
56 44 20
40 32 12
40 32 12
92 64 32
64 48 24

40 32 12
40 32 12
40 32 12
40 32 12
40 32 12
180 172 0
204 96 0
72 56 24
0 0 0
0 64 64
136 0 0
188 0 0
236 0 0
236 0 0
252 64 64
252 64 64
0 64 64
0 88 88
152 152 152
180 180 180
32 32 32
32 32 32
32 32 32
32 32 32
32 32 32
32 32 32
32 32 32
44 44 44
44 44 44
56 56 56
152 152 152
124 124 124
100 100 100
56 56 56
32 32 32
44 44 44
44 44 44
44 44 44
44 44 44
32 32 32
32 32 32
40 32 12
32 32 32
32 32 32
124 124 124
180 180 180
124 124 124
32 32 32
32 32 32
44 44 44
252 64 64
252 64 64
236 0 0
236 0 0
188 0 0
136 0 0
0 88 88
180 84 0
108 72 36
56 44 20
40 32 12
40 32 12
92 64 32
64 48 24

40 32 12
40 32 12
40 32 12
40 32 12
40 32 12
180 172 0
204 96 0
72 56 24
0 0 0
0 64 64
124 0 0
164 0 0
188 0 0
236 0 0
236 0 0
0 64 64
72 72 72
0 88 88
180 180 180
152 152 152
56 56 56
32 32 32
32 32 32
32 32 32
32 32 32
56 56 56
32 32 32
56 56 56
44 44 44
32 32 32
152 152 152
152 152 152
140 140 140
100 100 100
56 56 56
32 32 32
44 44 44
44 44 44
44 44 44
56 56 56
72 72 72
40 32 12
32 32 32
32 32 32
84 84 84
152 152 152
180 180 180
32 32 32
0 88 88
0 88 88
176 0 0
236 0 0
236 0 0
188 0 0
164 0 0
112 0 0
0 88 88
180 84 0
108 72 36
56 44 20
40 32 12
40 32 12
92 64 32
56 44 20

64 48 24
40 32 12
40 32 12
40 32 12
40 32 12
180 172 0
204 96 0
72 56 24
0 0 0
0 64 64
64 0 0
112 0 0
164 0 0
188 0 0
212 0 0
32 32 32
56 56 56
56 56 56
180 180 180
112 112 112
32 32 32
32 32 32
32 32 32
40 32 12
32 32 32
32 32 32
100 100 100
56 56 56
56 56 56
56 56 56
152 152 152
168 168 168
168 168 168
140 140 140
124 124 124
72 72 72
56 56 56
32 32 32
44 44 44
72 72 72
56 56 56
40 32 12
32 32 32
32 32 32
72 72 72
152 152 152
180 180 180
32 32 32
0 64 64
0 88 88
32 32 32
212 0 0
188 0 0
164 0 0
112 0 0
64 0 0
0 112 112
180 84 0
108 72 36
56 44 20
40 32 12
40 32 12
92 64 32
40 32 12

64 48 24
40 32 12
40 32 12
40 32 12
40 32 12
180 172 0
204 96 0
72 56 24
0 0 0
0 64 64
0 64 64
88 0 0
112 0 0
164 0 0
64 0 0
64 0 0
32 32 32
44 44 44
180 180 180
72 72 72
32 32 32
32 32 32
32 32 32
32 32 32
32 32 32
32 32 32
100 100 100
124 124 124
168 168 168
180 180 180
180 180 180
180 180 180
180 180 180
180 180 180
180 180 180
152 152 152
32 32 32
56 56 56
72 72 72
112 112 112
32 32 32
32 32 32
32 32 32
32 32 32
56 56 56
152 152 152
180 180 180
32 32 32
0 64 64
32 32 32
64 0 0
100 0 0
164 0 0
112 0 0
88 0 0
0 64 64
0 120 120
180 84 0
108 72 36
56 44 20
40 32 12
40 32 12
92 64 32
40 32 12

64 48 24
40 32 12
40 32 12
40 32 12
40 32 12
180 172 0
204 96 0
72 56 24
0 0 0
0 64 64
0 88 88
0 64 64
88 0 0
112 0 0
64 0 0
64 0 0
64 0 0
32 32 32
180 180 180
72 72 72
32 32 32
32 32 32
32 32 32
32 32 32
32 32 32
32 32 32
32 32 32
100 100 100
152 152 152
180 180 180
180 180 180
180 180 180
180 180 180
180 180 180
180 180 180
152 152 152
32 32 32
56 56 56
0 64 64
32 32 32
32 32 32
32 32 32
32 32 32
32 32 32
56 56 56
152 152 152
180 180 180
32 32 32
32 32 32
64 0 0
64 0 0
64 0 0
112 0 0
88 0 0
0 64 64
0 120 120
0 140 140
180 84 0
108 72 36
56 44 20
40 32 12
40 32 12
92 64 32
40 32 12

56 44 20
40 32 12
40 32 12
40 32 12
40 32 12
180 172 0
204 96 0
72 56 24
0 0 0
0 88 88
0 112 112
0 88 88
0 64 64
88 0 0
64 0 0
64 0 0
64 0 0
64 0 0
180 180 180
56 56 56
32 32 32
32 32 32
32 32 32
32 32 32
32 32 32
32 32 32
32 32 32
32 32 32
100 100 100
180 180 180
168 168 168
168 168 168
168 168 168
168 168 168
168 168 168
124 124 124
32 32 32
32 32 32
32 32 32
32 32 32
32 32 32
32 32 32
32 32 32
32 32 32
56 56 56
152 152 152
180 180 180
32 32 32
64 0 0
64 0 0
64 0 0
64 0 0
88 0 0
0 64 64
0 116 116
0 140 140
0 152 152
180 84 0
108 72 36
56 44 20
40 32 12
40 32 12
92 64 32
40 32 12

40 32 12
64 48 24
40 32 12
40 32 12
40 32 12
180 172 0
204 96 0
72 56 24
0 0 0
0 112 112
0 132 132
0 112 112
0 64 64
64 0 0
64 0 0
64 0 0
64 0 0
64 0 0
180 180 180
56 56 56
32 32 32
32 32 32
32 32 32
32 32 32
32 32 32
32 32 32
32 32 32
32 32 32
32 32 32
152 152 152
124 124 124
124 124 124
124 124 124
124 124 124
124 124 124
100 100 100
56 56 56
32 32 32
32 32 32
32 32 32
32 32 32
32 32 32
32 32 32
32 32 32
56 56 56
152 152 152
180 180 180
32 32 32
64 0 0
64 0 0
64 0 0
100 0 0
100 0 0
0 116 116
0 140 140
0 152 152
0 156 156
180 84 0
108 72 36
56 44 20
40 32 12
40 32 12
92 64 32
40 32 12

40 32 12
64 48 24
40 32 12
40 32 12
40 32 12
180 172 0
204 96 0
72 56 24
0 0 0
0 112 112
0 156 156
0 132 132
0 112 112
164 0 0
164 0 0
112 0 0
112 0 0
64 0 0
180 180 180
72 72 72
32 32 32
32 32 32
32 32 32
32 32 32
32 32 32
32 32 32
32 32 32
32 32 32
32 32 32
124 124 124
124 124 124
100 100 100
100 100 100
100 100 100
100 100 100
56 56 56
32 32 32
32 32 32
32 32 32
32 32 32
32 32 32
32 32 32
32 32 32
32 32 32
72 72 72
152 152 152
180 180 180
32 32 32
64 0 0
112 0 0
112 0 0
164 0 0
164 0 0
0 132 132
0 140 140
0 140 140
0 140 140
180 84 0
108 72 36
56 44 20
40 32 12
40 32 12
92 64 32
40 32 12

40 32 12
56 44 20
40 32 12
40 32 12
64 48 24
180 172 0
204 96 0
72 56 24
0 0 0
0 88 88
0 132 132
0 132 132
0 88 88
224 0 0
164 0 0
164 0 0
112 0 0
64 0 0
180 180 180
72 72 72
32 32 32
32 32 32
32 32 32
32 32 32
32 32 32
32 32 32
32 32 32
32 32 32
32 32 32
152 152 152
100 100 100
56 56 56
56 56 56
56 56 56
56 56 56
56 56 56
32 32 32
32 32 32
32 32 32
32 32 32
32 32 32
32 32 32
32 32 32
44 44 44
72 72 72
152 152 152
180 180 180
32 32 32
64 0 0
112 0 0
164 0 0
164 0 0
224 0 0
0 124 124
0 132 132
0 132 132
0 132 132
180 84 0
108 72 36
56 44 20
40 32 12
40 32 12
92 64 32
40 32 12

40 32 12
40 32 12
64 48 24
40 32 12
64 48 24
180 172 0
204 96 0
72 56 24
0 0 0
0 64 64
0 112 112
0 88 88
236 0 0
224 0 0
164 0 0
164 0 0
164 0 0
64 0 0
180 180 180
112 112 112
32 32 32
32 32 32
32 32 32
32 32 32
32 32 32
32 32 32
32 32 32
32 32 32
32 32 32
124 124 124
56 56 56
32 32 32
32 32 32
32 32 32
32 32 32
32 32 32
32 32 32
32 32 32
32 32 32
32 32 32
32 32 32
32 32 32
32 32 32
56 56 56
112 112 112
152 152 152
180 180 180
32 32 32
64 0 0
164 0 0
164 0 0
164 0 0
224 0 0
236 0 0
0 124 124
0 132 132
0 124 124
180 84 0
108 72 36
56 44 20
40 32 12
40 32 12
92 64 32
40 32 12

40 32 12
40 32 12
64 48 24
40 32 12
64 48 24
180 172 0
204 96 0
72 56 24
0 0 0
0 64 64
0 88 88
236 0 0
252 64 64
236 0 0
224 0 0
164 0 0
64 0 0
32 32 32
152 152 152
180 180 180
32 32 32
32 32 32
32 32 32
32 32 32
32 32 32
32 32 32
32 32 32
32 32 32
32 32 32
124 124 124
56 56 56
32 32 32
32 32 32
32 32 32
32 32 32
32 32 32
44 44 44
32 32 32
32 32 32
32 32 32
32 32 32
32 32 32
56 56 56
72 72 72
124 124 124
152 152 152
140 140 140
32 32 32
32 32 32
64 0 0
164 0 0
224 0 0
236 0 0
252 64 64
236 0 0
0 124 124
0 124 124
180 84 0
108 72 36
56 44 20
40 32 12
40 32 12
92 64 32
40 32 12

40 32 12
40 32 12
56 44 20
64 48 24
56 44 20
180 172 0
204 96 0
72 56 24
0 0 0
0 64 64
0 64 64
164 0 0
236 0 0
252 64 64
236 0 0
64 0 0
32 32 32
44 44 44
72 72 72
180 180 180
56 56 56
32 32 32
32 32 32
32 32 32
32 32 32
32 32 32
44 44 44
44 44 44
32 32 32
100 100 100
56 56 56
32 32 32
32 32 32
32 32 32
32 32 32
44 44 44
72 72 72
32 32 32
32 32 32
32 32 32
32 32 32
32 32 32
72 72 72
100 100 100
152 152 152
180 180 180
112 112 112
32 32 32
44 44 44
32 32 32
64 0 0
236 0 0
252 64 64
236 0 0
164 0 0
0 112 112
0 112 112
180 84 0
108 72 36
56 44 20
40 32 12
40 32 12
92 64 32
40 32 12

40 32 12
40 32 12
40 32 12
56 44 20
40 32 12
180 172 0
204 96 0
72 56 24
0 0 0
0 88 88
0 88 88
112 0 0
188 0 0
236 0 0
64 0 0
44 44 44
32 32 32
32 32 32
44 44 44
180 180 180
112 112 112
32 32 32
32 32 32
32 32 32
32 32 32
44 44 44
44 44 44
44 44 44
44 44 44
112 112 112
56 56 56
32 32 32
32 32 32
32 32 32
32 32 32
72 72 72
112 112 112
44 44 44
32 32 32
32 32 32
32 32 32
32 32 32
100 100 100
124 124 124
152 152 152
180 180 180
100 100 100
32 32 32
44 44 44
44 44 44
32 32 32
100 0 0
236 0 0
188 0 0
112 0 0
0 108 108
0 112 112
180 84 0
108 72 36
56 44 20
40 32 12
40 32 12
92 64 32
40 32 12

40 32 12
40 32 12
40 32 12
40 32 12
40 32 12
180 172 0
204 96 0
72 56 24
0 0 0
0 112 112
0 112 112
64 0 0
88 0 0
188 0 0
64 0 0
64 0 0
64 0 0
32 32 32
44 44 44
152 152 152
180 180 180
32 32 32
32 32 32
32 32 32
32 32 32
44 44 44
44 44 44
44 44 44
56 56 56
140 140 140
72 72 72
32 32 32
32 32 32
32 32 32
32 32 32
84 84 84
140 140 140
56 56 56
32 32 32
32 32 32
32 32 32
32 32 32
124 124 124
152 152 152
152 152 152
124 124 124
32 32 32
0 64 64
44 44 44
64 0 0
64 0 0
100 0 0
188 0 0
88 0 0
64 0 0
0 88 88
0 108 108
180 84 0
108 72 36
56 44 20
40 32 12
40 32 12
92 64 32
56 44 20

40 32 12
40 32 12
40 32 12
40 32 12
40 32 12
180 172 0
204 96 0
72 56 24
0 0 0
0 112 112
0 112 112
0 64 64
64 0 0
88 0 0
64 0 0
64 0 0
64 0 0
64 0 0
32 32 32
72 72 72
180 180 180
100 100 100
32 32 32
32 32 32
32 32 32
44 44 44
44 44 44
32 32 32
72 72 72
140 140 140
84 84 84
32 32 32
32 32 32
32 32 32
32 32 32
100 100 100
140 140 140
72 72 72
32 32 32
32 32 32
32 32 32
32 32 32
152 152 152
152 152 152
180 180 180
56 56 56
32 32 32
44 44 44
64 0 0
64 0 0
64 0 0
64 0 0
88 0 0
64 0 0
0 64 64
0 88 88
0 88 88
180 84 0
108 72 36
56 44 20
40 32 12
40 32 12
92 64 32
64 48 24

40 32 12
40 32 12
40 32 12
40 32 12
40 32 12
180 172 0
204 96 0
72 56 24
0 0 0
0 88 88
0 124 124
0 88 88
0 64 64
64 0 0
64 0 0
64 0 0
64 0 0
64 0 0
64 0 0
32 32 32
112 112 112
180 180 180
32 32 32
32 32 32
44 44 44
44 44 44
44 44 44
32 32 32
100 100 100
140 140 140
100 100 100
32 32 32
32 32 32
32 32 32
32 32 32
124 124 124
140 140 140
100 100 100
32 32 32
32 32 32
32 32 32
32 32 32
152 152 152
180 180 180
112 112 112
32 32 32
32 32 32
64 0 0
64 0 0
64 0 0
64 0 0
64 0 0
64 0 0
0 64 64
0 88 88
0 88 88
0 88 88
180 84 0
108 72 36
56 44 20
40 32 12
40 32 12
92 64 32
64 48 24

40 32 12
40 32 12
40 32 12
40 32 12
40 32 12
180 172 0
204 96 0
72 56 24
0 0 0
0 64 64
0 132 132
0 112 112
0 88 88
0 64 64
0 64 64
44 44 44
64 0 0
76 0 0
64 0 0
64 0 0
32 32 32
72 72 72
124 124 124
32 32 32
32 32 32
44 44 44
44 44 44
32 32 32
152 152 152
152 152 152
152 152 152
32 32 32
32 32 32
32 32 32
32 32 32
152 152 152
152 152 152
152 152 152
44 44 44
32 32 32
44 44 44
32 32 32
180 180 180
112 112 112
56 56 56
32 32 32
64 0 0
64 0 0
76 0 0
64 0 0
0 64 64
0 64 64
0 64 64
0 88 88
0 108 108
0 108 108
0 88 88
180 84 0
108 72 36
56 44 20
40 32 12
40 32 12
92 64 32
64 48 24

40 32 12
40 32 12
40 32 12
40 32 12
40 32 12
180 172 0
204 96 0
72 56 24
0 0 0
0 64 64
0 112 112
0 132 132
176 0 0
176 0 0
64 0 0
64 0 0
32 32 32
64 0 0
112 0 0
76 0 0
64 0 0
32 32 32
32 32 32
56 56 56
32 32 32
44 44 44
32 32 32
152 152 152
72 72 72
152 152 152
72 72 72
180 180 180
72 72 72
152 152 152
72 72 72
72 72 72
152 152 152
72 72 72
152 152 152
44 44 44
44 44 44
44 44 44
112 112 112
56 56 56
32 32 32
64 0 0
76 0 0
112 0 0
64 0 0
0 64 64
64 0 0
112 0 0
224 0 0
236 0 0
0 124 124
0 108 108
0 64 64
180 84 0
108 72 36
56 44 20
40 32 12
40 32 12
92 64 32
40 32 12

64 48 24
40 32 12
40 32 12
40 32 12
40 32 12
180 172 0
204 96 0
72 56 24
0 0 0
0 64 64
0 88 88
236 0 0
252 64 64
236 0 0
176 0 0
112 0 0
64 0 0
64 0 0
112 0 0
112 0 0
64 0 0
32 32 32
32 32 32
32 32 32
32 32 32
108 72 36
108 72 36
88 84 0
88 84 0
88 84 0
88 84 0
88 84 0
88 84 0
88 84 0
88 84 0
64 64 0
64 64 0
64 64 0
56 44 20
40 32 12
44 44 44
44 44 44
44 44 44
44 44 44
44 44 44
64 0 0
112 0 0
112 0 0
64 0 0
64 0 0
112 0 0
112 0 0
236 0 0
252 64 64
236 0 0
0 124 124
0 64 64
180 84 0
108 72 36
56 44 20
40 32 12
40 32 12
92 64 32
40 32 12

64 48 24
40 32 12
40 32 12
40 32 12
40 32 12
180 172 0
204 96 0
72 56 24
0 0 0
0 64 64
236 0 0
224 0 0
236 0 0
252 64 64
236 0 0
136 0 0
64 0 0
64 0 0
64 0 0
112 0 0
76 0 0
64 0 0
32 32 32
32 32 32
108 72 36
156 156 0
204 196 0
252 244 32
252 244 32
252 244 32
252 244 32
228 216 0
228 216 0
180 172 0
180 172 0
156 156 0
132 132 0
112 108 0
64 64 0
56 44 20
40 32 12
44 44 44
44 44 44
44 44 44
64 0 0
76 0 0
112 0 0
64 0 0
64 0 0
64 0 0
64 0 0
236 0 0
252 64 64
236 0 0
224 0 0
236 0 0
0 64 64
180 84 0
108 72 36
56 44 20
40 32 12
40 32 12
92 64 32
40 32 12

64 48 24
56 44 20
40 32 12
40 32 12
40 32 12
180 172 0
204 96 0
72 56 24
0 0 0
0 64 64
152 0 0
164 0 0
224 0 0
224 0 0
64 0 0
64 0 0
64 0 0
64 0 0
64 0 0
64 0 0
64 0 0
64 0 0
32 32 32
108 72 36
156 156 0
204 196 0
252 244 32
252 244 0
204 196 0
204 196 0
224 0 0
124 0 0
124 0 0
124 0 0
224 0 0
88 84 0
64 64 0
64 64 0
64 64 0
56 44 20
56 44 20
40 32 12
44 44 44
44 44 44
64 0 0
64 0 0
64 0 0
64 0 0
64 0 0
64 0 0
64 0 0
100 0 0
224 0 0
224 0 0
164 0 0
152 0 0
0 64 64
180 84 0
108 72 36
56 44 20
40 32 12
40 32 12
92 64 32
40 32 12

64 48 24
64 48 24
40 32 12
40 32 12
40 32 12
180 172 0
204 96 0
72 56 24
0 0 0
44 44 44
64 0 0
112 0 0
164 0 0
164 0 0
64 0 0
44 44 44
0 64 64
44 44 44
64 0 0
64 0 0
64 0 0
64 0 0
32 32 32
44 44 44
108 72 36
88 84 0
64 64 0
132 132 0
64 64 0
124 0 0
124 0 0
0 0 0
124 0 0
124 0 0
124 0 0
124 0 0
56 44 20
56 44 20
56 44 20
56 44 20
40 32 12
44 44 44
56 56 56
56 56 56
64 0 0
64 0 0
64 0 0
64 0 0
44 44 44
44 44 44
44 44 44
100 0 0
164 0 0
164 0 0
112 0 0
64 0 0
0 64 64
180 84 0
108 72 36
56 44 20
40 32 12
40 32 12
92 64 32
40 32 12

56 44 20
64 48 24
56 44 20
40 32 12
56 44 20
180 172 0
204 96 0
72 56 24
0 0 0
44 44 44
0 64 64
64 0 0
64 0 0
112 0 0
112 0 0
64 0 0
44 44 44
0 64 64
44 44 44
64 0 0
64 0 0
32 32 32
44 44 44
32 32 32
108 72 36
156 156 0
64 64 0
252 244 32
224 0 0
124 0 0
0 0 0
64 0 0
124 0 0
64 0 0
0 0 0
124 0 0
64 0 0
64 64 0
56 44 20
64 64 0
40 32 12
56 56 56
0 64 64
0 64 64
56 56 56
64 0 0
64 0 0
44 44 44
44 44 44
44 44 44
64 0 0
112 0 0
112 0 0
64 0 0
64 0 0
44 44 44
0 64 64
180 84 0
108 72 36
56 44 20
40 32 12
40 32 12
92 64 32
40 32 12

40 32 12
64 48 24
64 48 24
56 44 20
64 48 24
180 172 0
204 96 0
72 56 24
0 0 0
0 64 64
0 64 64
0 64 64
0 64 64
64 0 0
64 0 0
64 0 0
64 0 0
64 0 0
64 0 0
64 0 0
44 44 44
32 32 32
32 32 32
44 44 44
108 72 36
156 156 0
64 64 0
252 244 32
124 0 0
124 0 0
64 0 0
0 0 0
64 0 0
0 0 0
64 0 0
0 0 0
76 0 0
64 64 0
56 44 20
64 64 0
40 32 12
0 64 64
0 64 64
0 64 64
56 56 56
56 56 56
64 0 0
64 0 0
64 0 0
64 0 0
64 0 0
64 0 0
64 0 0
44 44 44
0 64 64
0 64 64
0 88 88
180 84 0
108 72 36
56 44 20
40 32 12
40 32 12
92 64 32
40 32 12

40 32 12
64 48 24
64 48 24
56 44 20
64 48 24
180 172 0
204 96 0
72 56 24
0 0 0
0 64 64
0 88 88
0 88 88
0 64 64
0 64 64
0 64 64
0 64 64
64 0 0
64 0 0
64 0 0
64 0 0
64 0 0
44 44 44
44 44 44
32 32 32
108 72 36
156 156 0
64 64 0
252 244 32
124 0 0
124 0 0
124 0 0
64 0 0
0 0 0
64 0 0
124 0 0
124 0 0
124 0 0
64 64 0
56 44 20
64 64 0
40 32 12
56 56 56
0 64 64
56 56 56
44 44 44
64 0 0
64 0 0
64 0 0
64 0 0
64 0 0
44 44 44
0 64 64
0 64 64
0 64 64
0 88 88
0 88 88
0 112 112
180 84 0
108 72 36
56 44 20
40 32 12
40 32 12
92 64 32
40 32 12

40 32 12
64 48 24
72 56 24
72 56 24
72 56 24
180 172 0
204 96 0
72 56 24
0 0 0
0 64 64
0 112 112
252 64 64
236 0 0
124 0 0
64 0 0
0 64 64
0 64 64
0 64 64
64 0 0
76 0 0
64 0 0
64 0 0
44 44 44
44 44 44
108 72 36
156 156 0
64 64 0
252 244 32
124 0 0
0 0 0
64 0 0
0 0 0
64 0 0
0 0 0
64 0 0
124 0 0
76 0 0
64 64 0
56 44 20
64 64 0
40 32 12
44 44 44
56 56 56
44 44 44
64 0 0
64 0 0
76 0 0
64 0 0
44 44 44
44 44 44
44 44 44
64 0 0
124 0 0
236 0 0
0 132 132
0 112 112
0 88 88
180 84 0
108 72 36
56 44 20
40 32 12
40 32 12
92 64 32
40 32 12

40 32 12
56 44 20
72 56 24
72 56 24
72 56 24
180 172 0
204 96 0
72 56 24
0 0 0
0 64 64
252 64 64
252 64 64
236 0 0
164 0 0
164 0 0
124 0 0
64 0 0
64 0 0
64 0 0
88 0 0
76 0 0
64 0 0
64 0 0
44 44 44
108 72 36
156 156 0
64 64 0
252 244 32
224 0 0
124 0 0
0 0 0
64 0 0
124 0 0
64 0 0
0 0 0
124 0 0
64 0 0
64 64 0
56 44 20
64 64 0
40 32 12
56 56 56
0 64 64
64 0 0
64 0 0
76 0 0
88 0 0
64 0 0
64 0 0
64 0 0
124 0 0
164 0 0
164 0 0
236 0 0
236 0 0
0 132 132
0 88 88
180 84 0
108 72 36
56 44 20
40 32 12
40 32 12
92 64 32
40 32 12

40 32 12
40 32 12
64 48 24
72 56 24
72 56 24
180 172 0
204 96 0
72 56 24
0 0 0
0 64 64
236 0 0
236 0 0
252 64 64
236 0 0
164 0 0
64 0 0
64 0 0
64 0 0
112 0 0
112 0 0
88 0 0
76 0 0
64 0 0
44 44 44
108 72 36
156 156 0
64 64 0
252 244 32
64 64 0
124 0 0
124 0 0
124 0 0
124 0 0
0 0 0
124 0 0
64 0 0
56 44 20
64 64 0
56 44 20
64 64 0
40 32 12
0 64 64
0 64 64
64 0 0
76 0 0
88 0 0
112 0 0
112 0 0
64 0 0
64 0 0
64 0 0
164 0 0
236 0 0
252 64 64
236 0 0
236 0 0
56 56 56
180 84 0
108 72 36
56 44 20
40 32 12
40 32 12
92 64 32
40 32 12

40 32 12
40 32 12
64 48 24
72 56 24
72 56 24
180 172 0
204 96 0
72 56 24
0 0 0
0 64 64
124 0 0
164 0 0
224 0 0
252 64 64
64 0 0
44 44 44
44 44 44
64 0 0
64 0 0
112 0 0
112 0 0
64 0 0
64 0 0
44 44 44
108 72 36
156 156 0
64 64 0
252 244 32
64 64 0
228 216 0
224 0 0
124 0 0
124 0 0
124 0 0
64 0 0
64 64 0
56 44 20
64 64 0
56 44 20
64 64 0
40 32 12
0 64 64
56 56 56
64 0 0
64 0 0
112 0 0
112 0 0
64 0 0
64 0 0
32 32 32
32 32 32
100 0 0
252 64 64
224 0 0
164 0 0
124 0 0
0 64 64
180 84 0
108 72 36
56 44 20
40 32 12
40 32 12
92 64 32
40 32 12

40 32 12
40 32 12
56 44 20
72 56 24
64 48 24
180 172 0
204 96 0
72 56 24
0 0 0
44 44 44
0 64 64
124 0 0
112 0 0
164 0 0
64 0 0
88 0 0
44 44 44
44 44 44
44 44 44
64 0 0
64 0 0
64 0 0
44 44 44
116 76 40
160 100 60
228 216 0
252 244 32
252 252 156
252 244 0
252 252 156
228 216 0
156 156 0
156 156 0
112 108 0
88 84 0
64 64 0
64 64 0
64 64 0
56 44 20
56 44 20
64 64 0
40 32 12
44 44 44
44 44 44
64 0 0
64 0 0
64 0 0
44 44 44
44 44 44
32 32 32
88 0 0
100 0 0
164 0 0
112 0 0
124 0 0
0 64 64
0 64 64
180 84 0
108 72 36
56 44 20
40 32 12
40 32 12
92 64 32
40 32 12

40 32 12
40 32 12
40 32 12
64 48 24
64 48 24
180 172 0
204 96 0
72 56 24
0 0 0
0 64 64
0 64 64
0 64 64
124 0 0
64 0 0
64 0 0
64 0 0
64 0 0
64 0 0
44 44 44
0 64 64
0 64 64
0 64 64
0 64 64
84 60 28
64 64 0
64 64 0
136 88 48
92 64 32
92 64 32
160 100 60
92 64 32
92 64 32
92 64 32
92 64 32
64 48 24
40 32 12
56 44 20
64 48 24
64 48 24
40 32 12
40 32 12
40 32 12
44 44 44
56 56 56
44 44 44
44 44 44
44 44 44
44 44 44
64 0 0
64 0 0
64 0 0
112 0 0
64 0 0
124 0 0
0 64 64
0 64 64
0 64 64
180 84 0
108 72 36
56 44 20
40 32 12
40 32 12
92 64 32
56 44 20

40 32 12
40 32 12
40 32 12
64 48 24
56 44 20
180 172 0
204 96 0
72 56 24
0 0 0
0 64 64
0 64 64
0 64 64
0 64 64
0 64 64
64 0 0
112 0 0
112 0 0
88 0 0
64 0 0
0 64 64
0 64 64
0 64 64
116 76 40
160 100 60
156 156 0
228 216 0
252 252 156
252 244 32
252 252 156
252 252 156
228 216 0
228 216 0
156 156 0
156 156 0
112 108 0
88 84 0
64 64 0
64 64 0
64 64 0
56 44 20
56 44 20
64 64 0
40 32 12
56 56 56
56 56 56
56 56 56
56 56 56
64 0 0
88 0 0
112 0 0
112 0 0
64 0 0
0 64 64
0 64 64
0 64 64
0 64 64
0 64 64
180 84 0
108 72 36
56 44 20
40 32 12
40 32 12
92 64 32
56 44 20

40 32 12
40 32 12
40 32 12
56 44 20
56 44 20
180 172 0
204 96 0
72 56 24
0 0 0
0 64 64
0 64 64
44 44 44
64 0 0
64 0 0
64 0 0
64 0 0
64 0 0
112 0 0
64 0 0
0 64 64
0 64 64
84 60 28
84 60 28
64 64 0
64 64 0
136 88 48
92 64 32
92 64 32
160 100 60
116 76 40
92 64 32
92 64 32
92 64 32
64 48 24
56 44 20
56 44 20
40 32 12
56 44 20
64 48 24
64 48 24
40 32 12
40 32 12
40 32 12
44 44 44
56 56 56
0 64 64
56 56 56
64 0 0
112 0 0
64 0 0
64 0 0
64 0 0
64 0 0
64 0 0
0 64 64
0 64 64
0 64 64
180 84 0
108 72 36
56 44 20
40 32 12
40 32 12
92 64 32
64 48 24

40 32 12
40 32 12
40 32 12
40 32 12
40 32 12
180 172 0
204 96 0
72 56 24
0 0 0
44 44 44
44 44 44
44 44 44
44 44 44
44 44 44
44 44 44
32 32 32
64 0 0
64 0 0
44 44 44
0 64 64
0 64 64
116 76 40
160 100 60
156 156 0
228 216 0
252 252 156
252 244 32
252 244 32
252 252 156
252 252 156
228 216 0
228 216 0
156 156 0
156 156 0
112 108 0
88 84 0
64 64 0
64 64 0
64 64 0
64 64 0
56 44 20
56 44 20
64 64 0
40 32 12
44 44 44
44 44 44
44 44 44
44 44 44
64 0 0
64 0 0
44 44 44
56 56 56
0 64 64
0 64 64
0 64 64
0 64 64
0 64 64
180 84 0
108 72 36
56 44 20
40 32 12
40 32 12
92 64 32
64 48 24

40 32 12
40 32 12
40 32 12
40 32 12
40 32 12
180 172 0
204 96 0
72 56 24
0 0 0
44 44 44
44 44 44
44 44 44
44 44 44
44 44 44
44 44 44
44 44 44
44 44 44
44 44 44
0 64 64
44 44 44
0 64 64
116 76 40
160 100 60
136 88 48
136 88 48
92 64 32
92 64 32
160 100 60
116 76 40
116 76 40
92 64 32
72 56 24
64 48 24
56 44 20
56 44 20
40 32 12
40 32 12
40 32 12
56 44 20
56 44 20
56 44 20
40 32 12
40 32 12
40 32 12
44 44 44
44 44 44
44 44 44
44 44 44
56 56 56
0 64 64
0 64 64
0 64 64
0 64 64
0 64 64
0 64 64
0 64 64
0 64 64
180 84 0
108 72 36
56 44 20
40 32 12
40 32 12
92 64 32
72 56 24

40 32 12
40 32 12
40 32 12
40 32 12
40 32 12
180 172 0
204 96 0
204 96 0
180 84 0
180 84 0
180 84 0
180 84 0
180 84 0
180 84 0
180 84 0
180 84 0
180 84 0
180 84 0
180 84 0
180 84 0
180 84 0
180 84 0
180 84 0
180 84 0
180 84 0
180 84 0
180 84 0
180 84 0
180 84 0
180 84 0
180 84 0
180 84 0
180 84 0
180 84 0
180 84 0
180 84 0
180 84 0
180 84 0
180 84 0
180 84 0
180 84 0
180 84 0
180 84 0
180 84 0
180 84 0
180 84 0
180 84 0
180 84 0
180 84 0
180 84 0
180 84 0
180 84 0
180 84 0
180 84 0
180 84 0
180 84 0
180 84 0
180 84 0
108 72 36
56 44 20
40 32 12
40 32 12
92 64 32
72 56 24

56 44 20
40 32 12
40 32 12
40 32 12
40 32 12
180 172 0
156 76 0
108 72 36
108 72 36
108 72 36
108 72 36
108 72 36
108 72 36
108 72 36
108 72 36
108 72 36
108 72 36
108 72 36
108 72 36
108 72 36
108 72 36
108 72 36
108 72 36
108 72 36
108 72 36
108 72 36
108 72 36
108 72 36
108 72 36
108 72 36
108 72 36
108 72 36
108 72 36
108 72 36
108 72 36
108 72 36
108 72 36
108 72 36
108 72 36
108 72 36
108 72 36
108 72 36
108 72 36
108 72 36
108 72 36
108 72 36
108 72 36
108 72 36
108 72 36
108 72 36
108 72 36
108 72 36
108 72 36
108 72 36
108 72 36
108 72 36
108 72 36
108 72 36
108 72 36
56 44 20
40 32 12
40 32 12
92 64 32
72 56 24

56 44 20
40 32 12
40 32 12
40 32 12
40 32 12
156 76 0
56 44 20
56 44 20
56 44 20
56 44 20
56 44 20
56 44 20
56 44 20
56 44 20
56 44 20
56 44 20
56 44 20
56 44 20
56 44 20
56 44 20
56 44 20
56 44 20
56 44 20
56 44 20
56 44 20
56 44 20
56 44 20
56 44 20
56 44 20
56 44 20
56 44 20
56 44 20
56 44 20
56 44 20
56 44 20
56 44 20
56 44 20
56 44 20
56 44 20
56 44 20
56 44 20
56 44 20
56 44 20
56 44 20
56 44 20
56 44 20
56 44 20
56 44 20
56 44 20
56 44 20
56 44 20
56 44 20
56 44 20
56 44 20
56 44 20
56 44 20
56 44 20
56 44 20
56 44 20
56 44 20
40 32 12
40 32 12
92 64 32
72 56 24

64 48 24
40 32 12
40 32 12
40 32 12
40 32 12
40 32 12
64 48 24
40 32 12
92 64 32
40 32 12
40 32 12
64 48 24
40 32 12
40 32 12
40 32 12
40 32 12
40 32 12
40 32 12
40 32 12
40 32 12
40 32 12
40 32 12
40 32 12
40 32 12
40 32 12
40 32 12
64 48 24
40 32 12
40 32 12
64 48 24
40 32 12
40 32 12
40 32 12
40 32 12
64 48 24
40 32 12
40 32 12
64 48 24
40 32 12
40 32 12
40 32 12
40 32 12
40 32 12
40 32 12
64 48 24
40 32 12
40 32 12
64 48 24
40 32 12
40 32 12
40 32 12
40 32 12
40 32 12
40 32 12
40 32 12
40 32 12
40 32 12
40 32 12
40 32 12
64 48 24
40 32 12
40 32 12
92 64 32
72 56 24

64 48 24
56 44 20
40 32 12
40 32 12
40 32 12
40 32 12
64 48 24
40 32 12
92 64 32
40 32 12
40 32 12
92 64 32
40 32 12
40 32 12
40 32 12
40 32 12
56 44 20
40 32 12
40 32 12
40 32 12
40 32 12
64 48 24
72 56 24
72 56 24
56 44 20
40 32 12
92 64 32
40 32 12
40 32 12
92 64 32
64 48 24
56 44 20
40 32 12
40 32 12
92 64 32
40 32 12
40 32 12
92 64 32
40 32 12
40 32 12
40 32 12
40 32 12
40 32 12
40 32 12
92 64 32
40 32 12
40 32 12
92 64 32
56 44 20
40 32 12
72 56 24
56 44 20
40 32 12
40 32 12
40 32 12
40 32 12
40 32 12
40 32 12
40 32 12
92 64 32
40 32 12
40 32 12
92 64 32
72 56 24

56 44 20
56 44 20
56 44 20
56 44 20
56 44 20
56 44 20
56 44 20
40 32 12
92 64 32
40 32 12
40 32 12
92 64 32
56 44 20
40 32 12
40 32 12
40 32 12
40 32 12
40 32 12
40 32 12
40 32 12
56 44 20
56 44 20
56 44 20
56 44 20
56 44 20
40 32 12
92 64 32
40 32 12
40 32 12
92 64 32
56 44 20
40 32 12
40 32 12
40 32 12
92 64 32
40 32 12
40 32 12
92 64 32
56 44 20
40 32 12
40 32 12
40 32 12
56 44 20
40 32 12
92 64 32
40 32 12
40 32 12
92 64 32
56 44 20
40 32 12
56 44 20
56 44 20
40 32 12
40 32 12
40 32 12
40 32 12
40 32 12
40 32 12
40 32 12
92 64 32
40 32 12
40 32 12
92 64 32
56 44 20

