P3
# ASCII PPM file
64 64
255

44 44 44
44 44 44
44 44 44
44 44 44
44 44 44
44 44 44
44 44 44
44 44 44
44 44 44
44 44 44
44 44 44
44 44 44
44 44 44
44 44 44
44 44 44
44 44 44
44 44 44
44 44 44
44 44 44
44 44 44
44 44 44
44 44 44
44 44 44
44 44 44
44 44 44
44 44 44
44 44 44
44 44 44
44 44 44
44 44 44
44 44 44
44 44 44
44 44 44
44 44 44
44 44 44
44 44 44
44 44 44
44 44 44
44 44 44
44 44 44
44 44 44
44 44 44
44 44 44
44 44 44
44 44 44
44 44 44
44 44 44
44 44 44
44 44 44
44 44 44
44 44 44
44 44 44
44 44 44
44 44 44
44 44 44
44 44 44
44 44 44
44 44 44
44 44 44
44 44 44
44 44 44
44 44 44
44 44 44
44 44 44

84 84 84
84 84 84
84 84 84
84 84 84
84 84 84
84 84 84
84 84 84
84 84 84
84 84 84
84 84 84
72 72 72
220 220 220
220 220 220
220 220 220
220 220 220
220 220 220
220 220 220
220 220 220
220 220 220
220 220 220
220 220 220
220 220 220
220 220 220
220 220 220
220 220 220
220 220 220
220 220 220
32 32 32
56 56 56
140 140 140
168 168 168
192 192 192
208 208 208
208 208 208
208 208 208
208 208 208
208 208 208
208 208 208
192 192 192
192 192 192
168 168 168
140 140 140
84 84 84
32 32 32
72 72 72
72 72 72
72 72 72
72 72 72
72 72 72
72 72 72
72 72 72
72 72 72
72 72 72
72 72 72
84 84 84
84 84 84
84 84 84
84 84 84
84 84 84
84 84 84
84 84 84
84 84 84
84 84 84
84 84 84

84 84 84
84 84 84
84 84 84
84 84 84
84 84 84
84 84 84
84 84 84
84 84 84
84 84 84
84 84 84
72 72 72
220 220 220
208 208 208
208 208 208
208 208 208
192 192 192
208 208 208
208 208 208
208 208 208
208 208 208
208 208 208
208 208 208
192 192 192
208 208 208
208 208 208
208 208 208
140 140 140
32 32 32
56 56 56
140 140 140
192 192 192
180 180 180
140 140 140
168 168 168
140 140 140
140 140 140
140 140 140
140 140 140
140 140 140
140 140 140
168 168 168
84 84 84
56 56 56
32 32 32
56 56 56
112 112 112
140 140 140
140 140 140
140 140 140
140 140 140
140 140 140
140 140 140
124 124 124
112 112 112
100 100 100
72 72 72
72 72 72
72 72 72
72 72 72
72 72 72
72 72 72
72 72 72
72 72 72
72 72 72

140 140 140
140 140 140
140 140 140
140 140 140
140 140 140
140 140 140
140 140 140
252 244 0
32 32 32
84 84 84
72 72 72
220 220 220
208 208 208
192 192 192
180 180 180
208 208 208
180 180 180
208 208 208
192 192 192
180 180 180
208 208 208
192 192 192
192 192 192
180 180 180
208 208 208
140 140 140
100 100 100
32 32 32
56 56 56
168 168 168
220 220 220
168 168 168
140 140 140
168 168 168
140 140 140
168 168 168
140 140 140
168 168 168
140 140 140
168 168 168
140 140 140
84 84 84
56 56 56
32 32 32
56 56 56
140 140 140
220 220 220
220 220 220
220 220 220
220 220 220
220 220 220
220 220 220
192 192 192
180 180 180
168 168 168
140 140 140
140 140 140
252 244 0
140 140 140
140 140 140
140 140 140
140 140 140
140 140 140
140 140 140

208 208 208
220 220 220
208 208 208
208 208 208
180 180 180
168 168 168
252 168 92
252 252 216
32 32 32
84 84 84
72 72 72
220 220 220
208 208 208
168 168 168
168 168 168
168 168 168
168 168 168
140 140 140
168 168 168
168 168 168
168 168 168
168 168 168
152 152 152
168 168 168
168 168 168
124 124 124
84 84 84
32 32 32
56 56 56
140 140 140
192 192 192
140 140 140
140 140 140
140 140 140
168 168 168
168 168 168
168 168 168
168 168 168
140 140 140
140 140 140
112 112 112
84 84 84
56 56 56
32 32 32
56 56 56
140 140 140
220 220 220
220 220 220
192 192 192
192 192 192
192 192 192
208 208 208
220 220 220
220 220 220
220 220 220
220 220 220
220 220 220
252 252 216
252 168 92
208 208 208
208 208 208
208 208 208
208 208 208
208 208 208

168 168 168
168 168 168
168 168 168
168 168 168
252 168 92
252 244 0
252 252 216
252 252 216
252 136 32
252 244 0
252 244 0
252 244 0
0 0 0
0 0 0
252 244 0
252 244 0
252 244 0
252 244 0
252 244 0
252 244 0
252 244 0
252 244 0
252 244 0
252 244 0
252 244 0
252 244 0
252 244 0
252 244 0
252 244 0
252 244 0
252 244 0
252 244 0
252 244 0
252 244 0
252 244 0
252 244 0
252 244 0
252 244 0
252 244 0
252 244 0
252 244 0
252 244 0
252 244 0
252 244 0
252 244 0
252 244 0
252 244 0
252 244 0
252 244 0
252 244 0
252 244 0
0 0 0
0 0 0
252 244 0
252 244 0
252 244 0
252 252 216
252 252 216
252 244 0
252 244 0
252 168 92
168 168 168
140 140 140
152 152 152

180 180 180
152 152 152
168 168 168
152 152 152
204 96 0
204 96 0
204 96 0
252 244 0
156 76 0
156 76 0
156 76 0
156 76 0
168 168 168
0 0 0
0 0 0
0 0 0
156 76 0
156 76 0
156 76 0
156 76 0
156 76 0
156 76 0
156 76 0
156 76 0
156 76 0
156 76 0
156 76 0
156 76 0
156 76 0
156 76 0
156 76 0
156 76 0
156 76 0
156 76 0
156 76 0
156 76 0
156 76 0
156 76 0
156 76 0
156 76 0
156 76 0
156 76 0
156 76 0
156 76 0
156 76 0
156 76 0
156 76 0
156 76 0
156 76 0
156 76 0
0 0 0
0 0 0
168 168 168
0 0 0
156 76 0
156 76 0
156 76 0
252 168 92
204 96 0
204 96 0
204 96 0
84 84 84
140 140 140
168 168 168

180 180 180
180 180 180
124 124 124
180 180 180
140 140 140
100 100 100
84 84 84
252 136 32
32 32 32
84 84 84
84 84 84
32 32 32
32 32 32
252 0 0
252 0 0
176 0 0
0 0 0
0 0 0
44 44 44
44 44 44
44 44 44
44 44 44
44 44 44
44 44 44
44 44 44
44 44 44
44 44 44
44 44 44
44 44 44
44 44 44
44 44 44
44 44 44
44 44 44
44 44 44
44 44 44
44 44 44
44 44 44
44 44 44
44 44 44
44 44 44
44 44 44
44 44 44
44 44 44
44 44 44
44 44 44
44 44 44
44 44 44
44 44 44
0 0 0
0 0 0
136 0 0
176 0 0
0 0 0
0 0 0
84 84 84
84 84 84
84 84 84
204 96 0
84 84 84
84 84 84
84 84 84
84 84 84
168 168 168
152 152 152

152 152 152
168 168 168
168 168 168
152 152 152
152 152 152
112 112 112
72 72 72
72 72 72
32 32 32
44 44 44
72 72 72
100 100 100
100 100 100
252 0 0
252 0 0
224 0 0
224 0 0
176 0 0
152 0 0
124 0 0
124 0 0
0 0 0
56 56 56
56 56 56
72 72 72
72 72 72
72 72 72
84 84 84
84 84 84
84 84 84
84 84 84
84 84 84
84 84 84
84 84 84
84 84 84
84 84 84
84 84 84
84 84 84
84 84 84
84 84 84
72 72 72
72 72 72
72 72 72
56 56 56
56 56 56
56 56 56
112 0 0
176 0 0
176 0 0
176 0 0
188 0 0
176 0 0
84 84 84
84 84 84
100 100 100
124 124 124
124 124 124
100 100 100
84 84 84
100 100 100
124 124 124
124 124 124
124 124 124
140 140 140

140 140 140
140 140 140
140 140 140
140 140 140
112 112 112
84 84 84
72 72 72
72 72 72
32 32 32
44 44 44
72 72 72
168 168 168
236 236 236
252 0 0
252 0 0
224 0 0
224 0 0
212 0 0
200 0 0
188 0 0
176 0 0
168 0 0
168 0 0
176 0 0
188 0 0
212 0 0
252 0 0
252 252 252
72 72 72
252 252 252
252 0 0
212 0 0
188 0 0
168 0 0
180 180 180
0 0 0
152 152 152
168 0 0
136 0 0
152 0 0
176 0 0
200 0 0
212 0 0
236 0 0
252 32 32
252 32 32
252 0 0
252 0 0
224 0 0
212 0 0
188 0 0
176 0 0
84 84 84
100 100 100
124 124 124
140 140 140
140 140 140
168 168 168
140 140 140
124 124 124
168 168 168
140 140 140
168 168 168
140 140 140

112 112 112
112 112 112
112 112 112
112 112 112
84 84 84
72 72 72
56 56 56
56 56 56
32 32 32
44 44 44
72 72 72
140 140 140
220 220 220
252 0 0
252 0 0
224 0 0
224 0 0
212 0 0
200 0 0
188 0 0
176 0 0
168 0 0
168 0 0
176 0 0
188 0 0
212 0 0
252 0 0
252 252 252
72 72 72
252 252 252
252 0 0
212 0 0
188 0 0
168 0 0
180 180 180
0 0 0
152 152 152
168 0 0
136 0 0
152 0 0
176 0 0
200 0 0
212 0 0
236 0 0
252 32 32
252 32 32
252 0 0
252 0 0
224 0 0
212 0 0
188 0 0
176 0 0
84 84 84
100 100 100
124 124 124
112 112 112
112 112 112
100 100 100
100 100 100
100 100 100
100 100 100
100 100 100
100 100 100
100 100 100

84 84 84
84 84 84
72 72 72
72 72 72
56 56 56
32 32 32
32 32 32
32 32 32
32 32 32
44 44 44
72 72 72
112 112 112
220 220 220
252 0 0
252 0 0
224 0 0
224 0 0
212 0 0
200 0 0
188 0 0
176 0 0
168 0 0
168 0 0
176 0 0
188 0 0
212 0 0
252 0 0
252 252 252
72 72 72
252 252 252
252 0 0
212 0 0
188 0 0
168 0 0
180 180 180
0 0 0
152 152 152
168 0 0
136 0 0
152 0 0
176 0 0
200 0 0
212 0 0
236 0 0
252 32 32
252 32 32
252 0 0
252 0 0
224 0 0
212 0 0
188 0 0
176 0 0
84 84 84
84 84 84
84 84 84
84 84 84
84 84 84
72 72 72
72 72 72
72 72 72
72 72 72
72 72 72
72 72 72
72 72 72

32 32 32
32 32 32
32 32 32
32 32 32
32 32 32
44 44 44
44 44 44
44 44 44
44 44 44
56 56 56
84 84 84
72 72 72
220 220 220
252 0 0
252 0 0
224 0 0
224 0 0
212 0 0
200 0 0
188 0 0
176 0 0
168 0 0
168 0 0
176 0 0
188 0 0
212 0 0
252 0 0
252 252 252
72 72 72
252 252 252
252 0 0
212 0 0
188 0 0
168 0 0
180 180 180
0 0 0
152 152 152
168 0 0
136 0 0
152 0 0
176 0 0
200 0 0
212 0 0
236 0 0
252 32 32
252 32 32
252 0 0
252 0 0
224 0 0
212 0 0
188 0 0
176 0 0
56 56 56
56 56 56
56 56 56
56 56 56
56 56 56
56 56 56
56 56 56
44 44 44
44 44 44
44 44 44
44 44 44
44 44 44

44 44 44
44 44 44
44 44 44
44 44 44
44 44 44
44 44 44
44 44 44
44 44 44
44 44 44
56 56 56
84 84 84
72 72 72
168 168 168
252 0 0
252 0 0
224 0 0
224 0 0
212 0 0
200 0 0
188 0 0
176 0 0
168 0 0
168 0 0
176 0 0
188 0 0
212 0 0
252 0 0
252 252 252
72 72 72
252 252 252
252 0 0
212 0 0
188 0 0
168 0 0
180 180 180
0 0 0
152 152 152
168 0 0
136 0 0
152 0 0
176 0 0
200 0 0
212 0 0
236 0 0
252 32 32
252 32 32
252 0 0
252 0 0
224 0 0
212 0 0
188 0 0
176 0 0
56 56 56
56 56 56
56 56 56
44 44 44
44 44 44
32 32 32
32 32 32
32 32 32
32 32 32
32 32 32
32 32 32
32 32 32

56 56 56
56 56 56
56 56 56
56 56 56
56 56 56
56 56 56
56 56 56
56 56 56
56 56 56
56 56 56
84 84 84
72 72 72
140 140 140
252 0 0
252 0 0
224 0 0
224 0 0
212 0 0
200 0 0
188 0 0
176 0 0
168 0 0
168 0 0
176 0 0
188 0 0
212 0 0
252 0 0
252 252 252
72 72 72
252 252 252
252 0 0
212 0 0
188 0 0
168 0 0
180 180 180
0 0 0
152 152 152
168 0 0
136 0 0
152 0 0
176 0 0
200 0 0
212 0 0
236 0 0
252 32 32
252 32 32
252 0 0
252 0 0
224 0 0
212 0 0
188 0 0
176 0 0
44 44 44
44 44 44
44 44 44
56 56 56
56 56 56
56 56 56
56 56 56
56 56 56
56 56 56
56 56 56
56 56 56
56 56 56

84 84 84
72 72 72
56 56 56
56 56 56
56 56 56
56 56 56
56 56 56
56 56 56
56 56 56
56 56 56
84 84 84
72 72 72
112 112 112
252 0 0
252 0 0
224 0 0
224 0 0
212 0 0
200 0 0
188 0 0
176 0 0
168 0 0
168 0 0
176 0 0
188 0 0
212 0 0
252 0 0
252 252 252
72 72 72
252 252 252
252 0 0
212 0 0
188 0 0
168 0 0
180 180 180
0 0 0
152 152 152
168 0 0
136 0 0
152 0 0
176 0 0
200 0 0
212 0 0
236 0 0
252 32 32
252 32 32
252 0 0
252 0 0
224 0 0
212 0 0
188 0 0
176 0 0
32 32 32
32 32 32
72 72 72
72 72 72
72 72 72
72 72 72
72 72 72
72 72 72
72 72 72
72 72 72
72 72 72
72 72 72

152 152 152
152 152 152
152 152 152
152 152 152
152 152 152
152 152 152
152 152 152
152 152 152
152 152 152
44 44 44
32 32 32
84 84 84
72 72 72
252 0 0
252 0 0
224 0 0
224 0 0
212 0 0
200 0 0
188 0 0
176 0 0
168 0 0
168 0 0
176 0 0
188 0 0
212 0 0
252 0 0
252 252 252
72 72 72
252 252 252
252 0 0
212 0 0
188 0 0
168 0 0
180 180 180
0 0 0
152 152 152
168 0 0
136 0 0
152 0 0
176 0 0
200 0 0
212 0 0
236 0 0
252 32 32
252 32 32
252 0 0
252 0 0
224 0 0
212 0 0
188 0 0
176 0 0
84 84 84
100 100 100
124 124 124
152 152 152
152 152 152
152 152 152
152 152 152
152 152 152
152 152 152
152 152 152
152 152 152
152 152 152

208 208 208
208 208 208
208 208 208
208 208 208
208 208 208
208 208 208
180 180 180
180 180 180
112 112 112
56 56 56
32 32 32
84 84 84
72 72 72
252 0 0
252 0 0
224 0 0
224 0 0
212 0 0
200 0 0
188 0 0
176 0 0
168 0 0
168 0 0
176 0 0
188 0 0
212 0 0
252 92 92
252 252 252
72 72 72
252 252 252
252 0 0
212 0 0
188 0 0
168 0 0
180 180 180
0 0 0
152 152 152
168 0 0
136 0 0
152 0 0
176 0 0
200 0 0
212 0 0
236 0 0
252 32 32
252 32 32
252 0 0
252 0 0
224 0 0
212 0 0
188 0 0
176 0 0
84 84 84
100 100 100
124 124 124
220 220 220
220 220 220
220 220 220
220 220 220
220 220 220
220 220 220
220 220 220
220 220 220
220 220 220

168 168 168
152 152 152
140 140 140
168 168 168
140 140 140
168 168 168
168 168 168
112 112 112
112 112 112
56 56 56
32 32 32
84 84 84
72 72 72
252 0 0
252 0 0
224 0 0
224 0 0
212 0 0
200 0 0
188 0 0
176 0 0
168 0 0
168 0 0
176 0 0
188 0 0
252 92 92
252 252 252
252 252 252
72 72 72
252 252 252
236 236 236
236 236 236
220 220 220
208 208 208
180 180 180
0 0 0
152 152 152
152 152 152
100 100 100
152 0 0
176 0 0
200 0 0
212 0 0
236 0 0
252 32 32
252 32 32
252 0 0
252 0 0
224 0 0
212 0 0
188 0 0
176 0 0
84 84 84
100 100 100
124 124 124
180 180 180
180 180 180
180 180 180
180 180 180
180 180 180
180 180 180
180 180 180
180 180 180
180 180 180

168 168 168
140 140 140
168 168 168
140 140 140
168 168 168
140 140 140
140 140 140
112 112 112
112 112 112
56 56 56
32 32 32
72 72 72
84 84 84
252 0 0
252 0 0
224 0 0
224 0 0
212 0 0
200 0 0
188 0 0
176 0 0
168 0 0
168 0 0
176 0 0
112 112 112
220 220 220
252 252 252
84 84 84
72 72 72
252 252 252
236 236 236
236 236 236
220 220 220
208 208 208
180 180 180
168 168 168
0 0 0
0 0 0
124 124 124
112 112 112
72 72 72
200 0 0
212 0 0
236 0 0
252 32 32
252 32 32
252 0 0
252 0 0
224 0 0
212 0 0
188 0 0
176 0 0
84 84 84
100 100 100
124 124 124
152 152 152
168 168 168
152 152 152
168 168 168
140 140 140
152 152 152
140 140 140
152 152 152
152 152 152

168 168 168
152 152 152
140 140 140
168 168 168
140 140 140
168 168 168
168 168 168
112 112 112
84 84 84
56 56 56
32 32 32
72 72 72
84 84 84
252 0 0
252 0 0
224 0 0
224 0 0
212 0 0
200 0 0
188 0 0
176 0 0
168 0 0
168 0 0
112 112 112
192 192 192
44 44 44
72 72 72
252 252 252
152 152 152
72 72 72
56 56 56
56 56 56
44 44 44
32 32 32
32 32 32
0 0 0
152 152 152
152 152 152
0 0 0
0 0 0
152 152 152
112 112 112
212 0 0
236 0 0
252 32 32
252 32 32
252 0 0
252 0 0
224 0 0
212 0 0
188 0 0
176 0 0
84 84 84
100 100 100
124 124 124
152 152 152
140 140 140
152 152 152
140 140 140
152 152 152
124 124 124
124 124 124
140 140 140
140 140 140

168 168 168
140 140 140
168 168 168
140 140 140
168 168 168
140 140 140
140 140 140
112 112 112
84 84 84
56 56 56
32 32 32
72 72 72
84 84 84
252 0 0
252 0 0
224 0 0
224 0 0
212 0 0
200 0 0
188 0 0
176 0 0
168 0 0
112 112 112
192 192 192
44 44 44
112 112 112
252 252 252
84 84 84
72 72 72
252 252 252
236 236 236
236 236 236
220 220 220
208 208 208
180 180 180
168 168 168
0 0 0
0 0 0
124 124 124
112 112 112
0 0 0
168 168 168
112 112 112
236 0 0
252 32 32
252 32 32
252 0 0
252 0 0
224 0 0
212 0 0
188 0 0
176 0 0
84 84 84
100 100 100
124 124 124
152 152 152
168 168 168
152 152 152
168 168 168
140 140 140
152 152 152
140 140 140
152 152 152
152 152 152

140 140 140
168 168 168
124 124 124
124 124 124
140 140 140
140 140 140
168 168 168
112 112 112
84 84 84
56 56 56
32 32 32
56 56 56
84 84 84
252 0 0
252 0 0
224 0 0
224 0 0
212 0 0
200 0 0
188 0 0
176 0 0
168 0 0
180 180 180
0 0 0
112 112 112
220 220 220
72 72 72
252 252 252
252 252 252
84 84 84
56 56 56
56 56 56
140 140 140
208 208 208
180 180 180
168 168 168
152 152 152
112 112 112
0 0 0
112 112 112
112 112 112
0 0 0
180 180 180
236 0 0
252 32 32
252 32 32
252 0 0
252 0 0
224 0 0
212 0 0
188 0 0
176 0 0
84 84 84
100 100 100
124 124 124
152 152 152
140 140 140
152 152 152
140 140 140
152 152 152
124 124 124
124 124 124
140 140 140
140 140 140

140 140 140
140 140 140
124 124 124
124 124 124
140 140 140
168 168 168
140 140 140
100 100 100
72 72 72
56 56 56
32 32 32
56 56 56
140 140 140
252 0 0
252 0 0
224 0 0
224 0 0
212 0 0
200 0 0
188 0 0
176 0 0
168 168 168
0 0 0
112 112 112
192 192 192
44 44 44
252 252 252
252 252 252
140 140 140
72 72 72
56 56 56
56 56 56
84 84 84
208 208 208
180 180 180
168 168 168
152 152 152
152 152 152
124 124 124
0 0 0
152 152 152
112 112 112
0 0 0
208 208 208
252 32 32
252 32 32
252 0 0
252 0 0
224 0 0
212 0 0
188 0 0
176 0 0
84 84 84
100 100 100
124 124 124
140 140 140
168 168 168
140 140 140
168 168 168
140 140 140
124 124 124
124 124 124
140 140 140
152 152 152

140 140 140
140 140 140
168 168 168
168 168 168
140 140 140
140 140 140
140 140 140
100 100 100
72 72 72
56 56 56
32 32 32
56 56 56
220 220 220
252 0 0
252 0 0
224 0 0
224 0 0
212 0 0
200 0 0
188 0 0
100 100 100
168 168 168
0 0 0
192 192 192
44 44 44
220 220 220
252 252 252
140 140 140
72 72 72
72 72 72
56 56 56
84 84 84
140 140 140
208 208 208
180 180 180
84 84 84
0 0 0
44 44 44
124 124 124
112 112 112
0 0 0
168 168 168
0 0 0
208 208 208
152 152 152
252 32 32
252 0 0
252 0 0
224 0 0
212 0 0
188 0 0
176 0 0
84 84 84
100 100 100
124 124 124
152 152 152
140 140 140
152 152 152
140 140 140
140 140 140
168 168 168
140 140 140
168 168 168
140 140 140

152 152 152
168 168 168
140 140 140
140 140 140
168 168 168
140 140 140
112 112 112
84 84 84
56 56 56
56 56 56
32 32 32
56 56 56
220 220 220
252 0 0
252 0 0
224 0 0
224 0 0
212 0 0
200 0 0
188 0 0
140 140 140
0 0 0
180 180 180
0 0 0
192 192 192
220 220 220
140 140 140
84 84 84
72 72 72
72 72 72
84 84 84
140 140 140
220 220 220
208 208 208
84 84 84
0 0 0
0 0 0
0 0 0
44 44 44
112 112 112
152 152 152
0 0 0
180 180 180
0 0 0
236 236 236
252 32 32
252 0 0
252 0 0
236 0 0
212 0 0
188 0 0
176 0 0
56 56 56
56 56 56
56 56 56
84 84 84
84 84 84
84 84 84
100 100 100
100 100 100
112 112 112
124 124 124
140 140 140
140 140 140

100 100 100
100 100 100
100 100 100
100 100 100
100 100 100
84 84 84
72 72 72
56 56 56
56 56 56
56 56 56
32 32 32
56 56 56
220 220 220
252 252 252
252 252 252
252 252 252
208 208 208
180 180 180
152 152 152
140 140 140
140 140 140
0 0 0
180 180 180
0 0 0
192 192 192
168 168 168
72 72 72
84 84 84
72 72 72
72 72 72
84 84 84
140 140 140
220 220 220
84 84 84
32 32 32
0 0 0
0 0 0
0 0 0
0 0 0
44 44 44
152 152 152
0 0 0
112 112 112
0 0 0
236 236 236
236 236 236
236 236 236
220 220 220
208 208 208
168 168 168
140 140 140
112 112 112
56 56 56
56 56 56
56 56 56
72 72 72
72 72 72
72 72 72
72 72 72
72 72 72
72 72 72
84 84 84
84 84 84
84 84 84

84 84 84
72 72 72
72 72 72
56 56 56
56 56 56
56 56 56
32 32 32
32 32 32
32 32 32
32 32 32
56 56 56
56 56 56
220 220 220
124 124 124
124 124 124
56 56 56
56 56 56
56 56 56
0 0 0
0 0 0
0 0 0
168 168 168
0 0 0
192 192 192
192 192 192
220 220 220
140 140 140
84 84 84
72 72 72
72 72 72
56 56 56
84 84 84
84 84 84
32 32 32
32 32 32
0 0 0
0 0 0
0 0 0
0 0 0
0 0 0
44 44 44
112 112 112
0 0 0
208 208 208
72 72 72
100 100 100
84 84 84
84 84 84
44 44 44
0 0 0
0 0 0
0 0 0
32 32 32
32 32 32
32 32 32
32 32 32
32 32 32
32 32 32
32 32 32
32 32 32
32 32 32
56 56 56
56 56 56
72 72 72

32 32 32
32 32 32
32 32 32
32 32 32
32 32 32
32 32 32
72 72 72
72 72 72
72 72 72
72 72 72
72 72 72
72 72 72
220 220 220
252 252 252
252 252 252
252 252 252
208 208 208
180 180 180
152 152 152
140 140 140
140 140 140
168 168 168
0 0 0
192 192 192
192 192 192
220 220 220
252 252 252
140 140 140
72 72 72
72 72 72
56 56 56
56 56 56
44 44 44
32 32 32
32 32 32
0 0 0
44 44 44
0 0 0
0 0 0
0 0 0
0 0 0
168 168 168
0 0 0
208 208 208
236 236 236
236 236 236
236 236 236
220 220 220
208 208 208
168 168 168
140 140 140
112 112 112
32 32 32
32 32 32
56 56 56
56 56 56
56 56 56
56 56 56
44 44 44
44 44 44
44 44 44
32 32 32
32 32 32
32 32 32

72 72 72
100 100 100
100 100 100
112 112 112
140 140 140
152 152 152
140 140 140
140 140 140
140 140 140
140 140 140
72 72 72
32 32 32
220 220 220
252 0 0
252 0 0
224 0 0
224 0 0
212 0 0
200 0 0
188 0 0
140 140 140
168 168 168
0 0 0
192 192 192
192 192 192
220 220 220
252 252 252
252 252 252
140 140 140
72 72 72
56 56 56
56 56 56
44 44 44
32 32 32
32 32 32
44 44 44
152 152 152
44 44 44
0 0 0
0 0 0
0 0 0
168 168 168
0 0 0
208 208 208
236 236 236
252 32 32
252 0 0
252 0 0
224 0 0
200 0 0
188 0 0
176 0 0
72 72 72
72 72 72
84 84 84
84 84 84
84 84 84
84 84 84
84 84 84
84 84 84
84 84 84
56 56 56
56 56 56
56 56 56

100 100 100
140 140 140
180 180 180
220 220 220
220 220 220
220 220 220
208 208 208
208 208 208
208 208 208
168 168 168
112 112 112
32 32 32
220 220 220
252 0 0
252 0 0
224 0 0
224 0 0
212 0 0
200 0 0
188 0 0
140 140 140
168 168 168
0 0 0
192 192 192
44 44 44
140 140 140
252 252 252
252 252 252
252 252 252
84 84 84
56 56 56
56 56 56
44 44 44
32 32 32
44 44 44
100 100 100
152 152 152
152 152 152
44 44 44
44 44 44
44 44 44
168 168 168
0 0 0
208 208 208
236 236 236
252 32 32
252 0 0
252 0 0
224 0 0
200 0 0
188 0 0
176 0 0
84 84 84
100 100 100
124 124 124
140 140 140
100 100 100
84 84 84
72 72 72
72 72 72
72 72 72
72 72 72
72 72 72
84 84 84

100 100 100
180 180 180
208 208 208
208 208 208
192 192 192
180 180 180
168 168 168
168 168 168
152 152 152
168 168 168
72 72 72
32 32 32
236 236 236
252 0 0
252 0 0
224 0 0
224 0 0
212 0 0
200 0 0
188 0 0
140 140 140
168 168 168
0 0 0
192 192 192
44 44 44
44 44 44
140 140 140
252 252 252
140 140 140
72 72 72
56 56 56
56 56 56
44 44 44
32 32 32
32 32 32
0 0 0
100 100 100
152 152 152
124 124 124
112 112 112
152 152 152
168 168 168
0 0 0
208 208 208
236 236 236
252 32 32
252 0 0
252 0 0
224 0 0
200 0 0
188 0 0
176 0 0
84 84 84
100 100 100
124 124 124
220 220 220
220 220 220
220 220 220
220 220 220
220 220 220
220 220 220
152 152 152
56 56 56
84 84 84

100 100 100
220 220 220
180 180 180
168 168 168
168 168 168
140 140 140
168 168 168
152 152 152
168 168 168
140 140 140
112 112 112
32 32 32
236 236 236
252 252 252
252 252 252
252 252 252
208 208 208
180 180 180
152 152 152
140 140 140
140 140 140
168 168 168
0 0 0
192 192 192
44 44 44
44 44 44
72 72 72
84 84 84
72 72 72
72 72 72
56 56 56
56 56 56
84 84 84
32 32 32
32 32 32
0 0 0
0 0 0
100 100 100
124 124 124
112 112 112
152 152 152
168 168 168
0 0 0
208 208 208
236 236 236
236 236 236
236 236 236
220 220 220
208 208 208
168 168 168
140 140 140
112 112 112
84 84 84
100 100 100
124 124 124
168 168 168
140 140 140
140 140 140
168 168 168
140 140 140
140 140 140
124 124 124
56 56 56
84 84 84

100 100 100
220 220 220
180 180 180
152 152 152
140 140 140
168 168 168
140 140 140
168 168 168
140 140 140
168 168 168
112 112 112
32 32 32
236 236 236
124 124 124
124 124 124
56 56 56
56 56 56
56 56 56
0 0 0
0 0 0
0 0 0
168 168 168
0 0 0
192 192 192
84 84 84
44 44 44
72 72 72
84 84 84
72 72 72
72 72 72
56 56 56
140 140 140
220 220 220
84 84 84
32 32 32
0 0 0
0 0 0
0 0 0
124 124 124
112 112 112
152 152 152
112 112 112
0 0 0
208 208 208
72 72 72
100 100 100
84 84 84
84 84 84
44 44 44
0 0 0
0 0 0
0 0 0
84 84 84
100 100 100
124 124 124
140 140 140
168 168 168
168 168 168
140 140 140
168 168 168
140 140 140
100 100 100
56 56 56
72 72 72

100 100 100
220 220 220
168 168 168
152 152 152
168 168 168
140 140 140
168 168 168
168 168 168
124 124 124
168 168 168
84 84 84
32 32 32
220 220 220
252 252 252
252 252 252
252 252 252
208 208 208
180 180 180
140 140 140
140 140 140
140 140 140
0 0 0
112 112 112
0 0 0
192 192 192
84 84 84
72 72 72
84 84 84
72 72 72
72 72 72
140 140 140
236 236 236
220 220 220
208 208 208
84 84 84
0 0 0
0 0 0
0 0 0
0 0 0
112 112 112
152 152 152
0 0 0
180 180 180
0 0 0
236 236 236
236 236 236
236 236 236
220 220 220
208 208 208
168 168 168
140 140 140
112 112 112
84 84 84
100 100 100
124 124 124
140 140 140
140 140 140
168 168 168
140 140 140
140 140 140
168 168 168
100 100 100
56 56 56
72 72 72

100 100 100
220 220 220
180 180 180
168 168 168
140 140 140
140 140 140
168 168 168
152 152 152
168 168 168
140 140 140
84 84 84
32 32 32
220 220 220
252 0 0
252 0 0
224 0 0
224 0 0
212 0 0
200 0 0
188 0 0
140 140 140
0 0 0
180 180 180
0 0 0
192 192 192
220 220 220
140 140 140
84 84 84
72 72 72
140 140 140
236 236 236
236 236 236
220 220 220
208 208 208
84 84 84
0 0 0
0 0 0
0 0 0
0 0 0
112 112 112
152 152 152
0 0 0
180 180 180
0 0 0
236 236 236
252 32 32
252 0 0
252 0 0
224 0 0
212 0 0
188 0 0
176 0 0
84 84 84
100 100 100
124 124 124
140 140 140
168 168 168
140 140 140
168 168 168
140 140 140
168 168 168
84 84 84
56 56 56
72 72 72

100 100 100
220 220 220
180 180 180
140 140 140
168 168 168
168 168 168
140 140 140
168 168 168
140 140 140
168 168 168
84 84 84
32 32 32
192 192 192
252 0 0
252 0 0
224 0 0
224 0 0
212 0 0
200 0 0
188 0 0
176 0 0
168 168 168
0 0 0
192 192 192
44 44 44
220 220 220
252 252 252
252 252 252
252 252 252
252 252 252
236 236 236
236 236 236
220 220 220
84 84 84
32 32 32
0 0 0
0 0 0
0 0 0
124 124 124
112 112 112
0 0 0
168 168 168
0 0 0
208 208 208
140 140 140
252 32 32
252 0 0
252 0 0
224 0 0
212 0 0
188 0 0
176 0 0
84 84 84
100 100 100
124 124 124
140 140 140
140 140 140
168 168 168
140 140 140
140 140 140
168 168 168
84 84 84
56 56 56
56 56 56

100 100 100
220 220 220
180 180 180
168 168 168
168 168 168
140 140 140
168 168 168
152 152 152
168 168 168
140 140 140
84 84 84
32 32 32
180 180 180
252 0 0
252 0 0
224 0 0
224 0 0
212 0 0
200 0 0
188 0 0
176 0 0
168 168 168
0 0 0
192 192 192
192 192 192
44 44 44
252 252 252
252 252 252
252 252 252
252 252 252
236 236 236
236 236 236
220 220 220
32 32 32
32 32 32
0 0 0
0 0 0
152 152 152
124 124 124
0 0 0
152 152 152
112 112 112
0 0 0
236 236 236
252 32 32
252 32 32
252 0 0
252 0 0
224 0 0
212 0 0
188 0 0
176 0 0
56 56 56
56 56 56
84 84 84
84 84 84
84 84 84
84 84 84
84 84 84
84 84 84
84 84 84
56 56 56
56 56 56
56 56 56

100 100 100
220 220 220
180 180 180
140 140 140
168 168 168
168 168 168
140 140 140
168 168 168
124 124 124
168 168 168
84 84 84
32 32 32
152 152 152
252 0 0
252 0 0
224 0 0
224 0 0
212 0 0
200 0 0
188 0 0
176 0 0
168 0 0
180 180 180
0 0 0
192 192 192
220 220 220
72 72 72
252 252 252
252 252 252
252 252 252
236 236 236
236 236 236
220 220 220
84 84 84
32 32 32
0 0 0
152 152 152
72 72 72
0 0 0
112 112 112
112 112 112
0 0 0
180 180 180
112 112 112
252 32 32
252 32 32
252 0 0
252 0 0
224 0 0
212 0 0
188 0 0
176 0 0
32 32 32
32 32 32
32 32 32
32 32 32
32 32 32
32 32 32
32 32 32
32 32 32
32 32 32
32 32 32
32 32 32
56 56 56

100 100 100
220 220 220
180 180 180
140 140 140
140 140 140
152 152 152
168 168 168
140 140 140
168 168 168
140 140 140
84 84 84
32 32 32
124 124 124
252 0 0
252 0 0
224 0 0
224 0 0
212 0 0
200 0 0
188 0 0
176 0 0
168 0 0
252 92 92
192 192 192
44 44 44
220 220 220
252 252 252
84 84 84
72 72 72
252 252 252
236 236 236
236 236 236
220 220 220
208 208 208
180 180 180
168 168 168
0 0 0
0 0 0
124 124 124
72 72 72
0 0 0
168 168 168
140 140 140
236 0 0
252 32 32
252 32 32
252 0 0
252 0 0
224 0 0
212 0 0
188 0 0
176 0 0
32 32 32
32 32 32
56 56 56
56 56 56
56 56 56
56 56 56
56 56 56
56 56 56
56 56 56
56 56 56
56 56 56
56 56 56

100 100 100
220 220 220
180 180 180
168 168 168
168 168 168
140 140 140
152 152 152
168 168 168
152 152 152
168 168 168
56 56 56
32 32 32
84 84 84
252 0 0
252 0 0
224 0 0
224 0 0
212 0 0
200 0 0
188 0 0
176 0 0
168 0 0
168 0 0
252 92 92
192 192 192
44 44 44
72 72 72
252 252 252
252 252 252
72 72 72
56 56 56
56 56 56
44 44 44
32 32 32
32 32 32
0 0 0
152 152 152
152 152 152
0 0 0
0 0 0
152 152 152
140 140 140
212 0 0
236 0 0
252 32 32
252 32 32
252 0 0
252 0 0
224 0 0
212 0 0
188 0 0
176 0 0
56 56 56
72 72 72
84 84 84
124 124 124
124 124 124
124 124 124
124 124 124
124 124 124
124 124 124
124 124 124
56 56 56
84 84 84

100 100 100
220 220 220
180 180 180
140 140 140
140 140 140
168 168 168
140 140 140
168 168 168
140 140 140
112 112 112
56 56 56
32 32 32
72 72 72
252 0 0
252 0 0
224 0 0
224 0 0
212 0 0
200 0 0
188 0 0
176 0 0
168 0 0
168 0 0
176 0 0
252 92 92
220 220 220
168 168 168
84 84 84
72 72 72
252 252 252
236 236 236
236 236 236
220 220 220
208 208 208
180 180 180
112 112 112
0 0 0
0 0 0
124 124 124
112 112 112
112 112 112
200 0 0
212 0 0
236 0 0
252 32 32
252 32 32
252 0 0
252 0 0
224 0 0
212 0 0
188 0 0
176 0 0
84 84 84
100 100 100
124 124 124
192 192 192
192 192 192
192 192 192
192 192 192
192 192 192
192 192 192
124 124 124
56 56 56
84 84 84

100 100 100
208 208 208
180 180 180
168 168 168
168 168 168
152 152 152
168 168 168
140 140 140
168 168 168
84 84 84
32 32 32
44 44 44
72 72 72
252 0 0
252 0 0
224 0 0
224 0 0
212 0 0
200 0 0
188 0 0
176 0 0
168 0 0
168 0 0
176 0 0
188 0 0
212 0 0
152 152 152
252 252 252
72 72 72
252 252 252
236 236 236
236 236 236
220 220 220
208 208 208
180 180 180
0 0 0
152 152 152
152 152 152
100 100 100
152 0 0
176 0 0
200 0 0
212 0 0
236 0 0
252 32 32
252 32 32
252 0 0
252 0 0
224 0 0
212 0 0
188 0 0
176 0 0
84 84 84
100 100 100
124 124 124
236 236 236
220 220 220
220 220 220
208 208 208
208 208 208
152 152 152
100 100 100
44 44 44
72 72 72

100 100 100
208 208 208
180 180 180
152 152 152
168 168 168
140 140 140
168 168 168
168 168 168
140 140 140
84 84 84
32 32 32
44 44 44
72 72 72
252 0 0
252 0 0
224 0 0
224 0 0
212 0 0
200 0 0
188 0 0
176 0 0
168 0 0
168 0 0
176 0 0
188 0 0
212 0 0
252 0 0
252 252 252
72 72 72
252 252 252
252 0 0
212 0 0
188 0 0
168 0 0
180 180 180
0 0 0
152 152 152
168 0 0
136 0 0
152 0 0
176 0 0
200 0 0
212 0 0
236 0 0
252 32 32
252 32 32
252 0 0
252 0 0
224 0 0
212 0 0
188 0 0
176 0 0
84 84 84
100 100 100
124 124 124
192 192 192
180 180 180
192 192 192
192 192 192
180 180 180
124 124 124
84 84 84
44 44 44
72 72 72

100 100 100
192 192 192
180 180 180
168 168 168
140 140 140
168 168 168
140 140 140
140 140 140
140 140 140
84 84 84
32 32 32
44 44 44
72 72 72
252 0 0
252 0 0
224 0 0
224 0 0
212 0 0
200 0 0
188 0 0
176 0 0
168 0 0
168 0 0
176 0 0
188 0 0
212 0 0
252 0 0
252 252 252
72 72 72
252 252 252
252 0 0
212 0 0
188 0 0
168 0 0
180 180 180
0 0 0
152 152 152
168 0 0
136 0 0
152 0 0
176 0 0
200 0 0
212 0 0
236 0 0
252 32 32
252 32 32
252 0 0
252 0 0
224 0 0
212 0 0
188 0 0
176 0 0
84 84 84
100 100 100
124 124 124
168 168 168
140 140 140
168 168 168
140 140 140
168 168 168
112 112 112
84 84 84
44 44 44
56 56 56

72 72 72
192 192 192
140 140 140
140 140 140
168 168 168
140 140 140
112 112 112
112 112 112
112 112 112
56 56 56
32 32 32
56 56 56
72 72 72
252 0 0
252 0 0
224 0 0
224 0 0
212 0 0
200 0 0
188 0 0
176 0 0
168 0 0
168 0 0
176 0 0
188 0 0
212 0 0
252 0 0
252 252 252
72 72 72
252 252 252
252 0 0
212 0 0
188 0 0
168 0 0
180 180 180
0 0 0
152 152 152
168 0 0
136 0 0
152 0 0
176 0 0
200 0 0
212 0 0
236 0 0
252 32 32
252 32 32
252 0 0
252 0 0
224 0 0
212 0 0
188 0 0
176 0 0
84 84 84
100 100 100
124 124 124
140 140 140
168 168 168
168 168 168
168 168 168
140 140 140
112 112 112
84 84 84
44 44 44
56 56 56

72 72 72
180 180 180
168 168 168
168 168 168
168 168 168
140 140 140
84 84 84
84 84 84
84 84 84
32 32 32
44 44 44
56 56 56
72 72 72
252 0 0
252 0 0
224 0 0
224 0 0
212 0 0
200 0 0
188 0 0
176 0 0
168 0 0
168 0 0
176 0 0
188 0 0
212 0 0
252 0 0
252 252 252
72 72 72
252 252 252
252 0 0
212 0 0
188 0 0
168 0 0
180 180 180
0 0 0
152 152 152
168 0 0
136 0 0
152 0 0
176 0 0
200 0 0
212 0 0
236 0 0
252 32 32
252 32 32
252 0 0
252 0 0
224 0 0
212 0 0
188 0 0
176 0 0
84 84 84
100 100 100
124 124 124
168 168 168
140 140 140
168 168 168
140 140 140
168 168 168
112 112 112
84 84 84
44 44 44
56 56 56

72 72 72
124 124 124
124 124 124
124 124 124
84 84 84
84 84 84
84 84 84
84 84 84
56 56 56
32 32 32
44 44 44
56 56 56
72 72 72
252 0 0
252 0 0
224 0 0
224 0 0
212 0 0
200 0 0
188 0 0
176 0 0
168 0 0
168 0 0
176 0 0
188 0 0
212 0 0
252 0 0
252 252 252
72 72 72
252 252 252
252 0 0
212 0 0
188 0 0
168 0 0
180 180 180
0 0 0
152 152 152
168 0 0
136 0 0
152 0 0
176 0 0
200 0 0
212 0 0
236 0 0
252 32 32
252 32 32
252 0 0
252 0 0
224 0 0
212 0 0
188 0 0
176 0 0
84 84 84
100 100 100
124 124 124
140 140 140
124 124 124
152 152 152
140 140 140
152 152 152
112 112 112
84 84 84
32 32 32
56 56 56

72 72 72
56 56 56
32 32 32
32 32 32
32 32 32
56 56 56
56 56 56
56 56 56
56 56 56
32 32 32
56 56 56
72 72 72
72 72 72
252 0 0
252 0 0
224 0 0
224 0 0
212 0 0
200 0 0
188 0 0
176 0 0
168 0 0
168 0 0
176 0 0
188 0 0
212 0 0
252 0 0
252 252 252
72 72 72
252 252 252
252 0 0
212 0 0
188 0 0
168 0 0
180 180 180
0 0 0
152 152 152
168 0 0
136 0 0
152 0 0
176 0 0
200 0 0
212 0 0
236 0 0
252 32 32
252 32 32
252 0 0
252 0 0
224 0 0
212 0 0
188 0 0
176 0 0
84 84 84
100 100 100
124 124 124
140 140 140
168 168 168
140 140 140
124 124 124
124 124 124
112 112 112
84 84 84
32 32 32
56 56 56

84 84 84
84 84 84
84 84 84
72 72 72
56 56 56
32 32 32
32 32 32
44 44 44
32 32 32
44 44 44
56 56 56
72 72 72
56 56 56
252 0 0
252 0 0
224 0 0
224 0 0
212 0 0
200 0 0
188 0 0
176 0 0
168 0 0
168 0 0
176 0 0
188 0 0
212 0 0
252 0 0
252 252 252
72 72 72
252 252 252
252 0 0
212 0 0
188 0 0
168 0 0
180 180 180
0 0 0
152 152 152
168 0 0
136 0 0
152 0 0
176 0 0
200 0 0
212 0 0
236 0 0
252 32 32
252 32 32
252 0 0
252 0 0
224 0 0
212 0 0
188 0 0
176 0 0
84 84 84
100 100 100
124 124 124
124 124 124
140 140 140
152 152 152
124 124 124
124 124 124
112 112 112
84 84 84
32 32 32
56 56 56

72 72 72
72 72 72
72 72 72
72 72 72
72 72 72
72 72 72
72 72 72
44 44 44
44 44 44
44 44 44
56 56 56
72 72 72
56 56 56
252 0 0
252 0 0
224 0 0
224 0 0
212 0 0
200 0 0
188 0 0
176 0 0
168 0 0
168 0 0
176 0 0
188 0 0
212 0 0
252 0 0
252 252 252
72 72 72
252 252 252
252 0 0
212 0 0
188 0 0
168 0 0
180 180 180
0 0 0
152 152 152
168 0 0
136 0 0
152 0 0
176 0 0
200 0 0
212 0 0
236 0 0
252 32 32
252 32 32
252 0 0
252 0 0
224 0 0
212 0 0
188 0 0
176 0 0
84 84 84
100 100 100
124 124 124
140 140 140
140 140 140
140 140 140
140 140 140
152 152 152
112 112 112
56 56 56
32 32 32
56 56 56

72 72 72
124 124 124
168 168 168
168 168 168
168 168 168
168 168 168
152 152 152
140 140 140
100 100 100
72 72 72
72 72 72
84 84 84
56 56 56
252 0 0
252 0 0
224 0 0
224 0 0
212 0 0
200 0 0
188 0 0
176 0 0
168 0 0
168 0 0
176 0 0
188 0 0
212 0 0
252 0 0
252 252 252
72 72 72
252 252 252
252 0 0
212 0 0
188 0 0
168 0 0
180 180 180
0 0 0
152 152 152
168 0 0
136 0 0
152 0 0
176 0 0
200 0 0
212 0 0
236 0 0
252 32 32
252 32 32
252 0 0
252 0 0
224 0 0
212 0 0
188 0 0
176 0 0
84 84 84
100 100 100
124 124 124
124 124 124
124 124 124
124 124 124
124 124 124
124 124 124
100 100 100
56 56 56
32 32 32
56 56 56

72 72 72
168 168 168
192 192 192
220 220 220
220 220 220
220 220 220
220 220 220
220 220 220
192 192 192
168 168 168
168 168 168
140 140 140
112 112 112
252 0 0
252 0 0
224 0 0
224 0 0
212 0 0
200 0 0
188 0 0
176 0 0
168 0 0
168 0 0
176 0 0
188 0 0
212 0 0
252 0 0
252 252 252
72 72 72
252 252 252
252 0 0
212 0 0
188 0 0
168 0 0
180 180 180
0 0 0
152 152 152
168 0 0
136 0 0
152 0 0
176 0 0
200 0 0
212 0 0
236 0 0
252 32 32
252 32 32
252 0 0
252 0 0
224 0 0
212 0 0
188 0 0
176 0 0
56 56 56
56 56 56
56 56 56
56 56 56
56 56 56
56 56 56
56 56 56
56 56 56
56 56 56
32 32 32
44 44 44
56 56 56

72 72 72
168 168 168
220 220 220
168 168 168
168 168 168
140 140 140
192 192 192
208 208 208
220 220 220
220 220 220
220 220 220
192 192 192
168 168 168
252 0 0
252 0 0
224 0 0
224 0 0
212 0 0
200 0 0
188 0 0
176 0 0
168 0 0
168 0 0
176 0 0
188 0 0
212 0 0
252 0 0
252 252 252
72 72 72
252 252 252
252 0 0
212 0 0
188 0 0
168 0 0
180 180 180
0 0 0
152 152 152
168 0 0
136 0 0
152 0 0
176 0 0
200 0 0
212 0 0
236 0 0
252 32 32
252 32 32
252 0 0
252 0 0
224 0 0
212 0 0
188 0 0
176 0 0
32 32 32
32 32 32
32 32 32
32 32 32
32 32 32
32 32 32
32 32 32
32 32 32
32 32 32
44 44 44
56 56 56
72 72 72

72 72 72
168 168 168
220 220 220
168 168 168
168 168 168
168 168 168
180 180 180
180 180 180
140 140 140
168 168 168
192 192 192
220 220 220
220 220 220
252 0 0
252 0 0
224 0 0
224 0 0
212 0 0
200 0 0
188 0 0
176 0 0
168 0 0
168 0 0
176 0 0
188 0 0
212 0 0
252 0 0
252 252 252
72 72 72
252 252 252
252 0 0
212 0 0
188 0 0
168 0 0
180 180 180
0 0 0
152 152 152
168 0 0
136 0 0
152 0 0
176 0 0
200 0 0
212 0 0
236 0 0
252 32 32
252 32 32
252 0 0
252 0 0
224 0 0
212 0 0
188 0 0
176 0 0
32 32 32
32 32 32
44 44 44
44 44 44
44 44 44
44 44 44
44 44 44
44 44 44
56 56 56
56 56 56
72 72 72
72 72 72

72 72 72
168 168 168
220 220 220
168 168 168
140 140 140
168 168 168
124 124 124
124 124 124
168 168 168
152 152 152
140 140 140
124 124 124
168 168 168
252 0 0
252 0 0
224 0 0
224 0 0
212 0 0
200 0 0
188 0 0
176 0 0
168 0 0
168 0 0
176 0 0
188 0 0
212 0 0
252 0 0
252 252 252
72 72 72
252 252 252
252 0 0
212 0 0
188 0 0
168 0 0
180 180 180
0 0 0
152 152 152
168 0 0
136 0 0
152 0 0
176 0 0
200 0 0
212 0 0
236 0 0
252 32 32
252 32 32
252 0 0
252 0 0
224 0 0
212 0 0
188 0 0
176 0 0
32 32 32
32 32 32
56 56 56
56 56 56
56 56 56
56 56 56
56 56 56
56 56 56
72 72 72
72 72 72
72 72 72
84 84 84

72 72 72
168 168 168
208 208 208
168 168 168
168 168 168
168 168 168
152 152 152
168 168 168
140 140 140
152 152 152
140 140 140
152 152 152
168 168 168
140 140 140
84 84 84
84 84 84
84 84 84
84 84 84
84 84 84
84 84 84
84 84 84
72 72 72
72 72 72
56 56 56
56 56 56
152 0 0
152 0 0
168 168 168
0 0 0
168 168 168
152 0 0
152 0 0
152 0 0
152 0 0
100 100 100
0 0 0
100 100 100
0 0 0
0 0 0
0 0 0
0 0 0
124 0 0
164 0 0
212 0 0
252 32 32
252 32 32
252 0 0
252 0 0
224 0 0
212 0 0
188 0 0
32 32 32
32 32 32
72 72 72
72 72 72
72 72 72
72 72 72
72 72 72
72 72 72
72 72 72
84 84 84
84 84 84
84 84 84
84 84 84

72 72 72
168 168 168
192 192 192
168 168 168
140 140 140
168 168 168
124 124 124
124 124 124
152 152 152
168 168 168
140 140 140
168 168 168
168 168 168
152 152 152
140 140 140
124 124 124
124 124 124
124 124 124
124 124 124
124 124 124
124 124 124
124 124 124
112 112 112
100 100 100
100 100 100
84 84 84
84 84 84
84 84 84
84 84 84
84 84 84
84 84 84
84 84 84
84 84 84
32 32 32
56 56 56
72 72 72
84 84 84
84 84 84
84 84 84
84 84 84
84 84 84
84 84 84
84 84 84
72 72 72
56 56 56
56 56 56
56 56 56
56 56 56
56 56 56
56 56 56
72 72 72
72 72 72
84 84 84
124 124 124
220 220 220
220 220 220
208 208 208
192 192 192
180 180 180
152 152 152
124 124 124
72 72 72
72 72 72
84 84 84

72 72 72
168 168 168
140 140 140
100 100 100
100 100 100
100 100 100
100 100 100
100 100 100
100 100 100
100 100 100
100 100 100
100 100 100
100 100 100
100 100 100
100 100 100
100 100 100
100 100 100
100 100 100
100 100 100
100 100 100
100 100 100
100 100 100
100 100 100
100 100 100
100 100 100
100 100 100
100 100 100
100 100 100
100 100 100
100 100 100
100 100 100
84 84 84
84 84 84
56 56 56
32 32 32
56 56 56
72 72 72
124 124 124
124 124 124
124 124 124
124 124 124
112 112 112
112 112 112
100 100 100
100 100 100
100 100 100
84 84 84
100 100 100
100 100 100
124 124 124
124 124 124
124 124 124
140 140 140
168 168 168
140 140 140
168 168 168
152 152 152
168 168 168
140 140 140
168 168 168
220 220 220
152 152 152
32 32 32
84 84 84

72 72 72
140 140 140
100 100 100
56 56 56
56 56 56
56 56 56
56 56 56
56 56 56
56 56 56
56 56 56
56 56 56
56 56 56
56 56 56
56 56 56
56 56 56
56 56 56
56 56 56
56 56 56
56 56 56
56 56 56
56 56 56
56 56 56
56 56 56
56 56 56
56 56 56
56 56 56
56 56 56
56 56 56
56 56 56
56 56 56
56 56 56
56 56 56
56 56 56
56 56 56
32 32 32
44 44 44
72 72 72
180 180 180
168 168 168
180 180 180
124 124 124
124 124 124
124 124 124
124 124 124
124 124 124
100 100 100
72 72 72
180 180 180
168 168 168
140 140 140
168 168 168
140 140 140
168 168 168
168 168 168
168 168 168
140 140 140
168 168 168
140 140 140
168 168 168
140 140 140
168 168 168
84 84 84
32 32 32
84 84 84

72 72 72
56 56 56
32 32 32
32 32 32
32 32 32
32 32 32
32 32 32
32 32 32
32 32 32
32 32 32
32 32 32
32 32 32
32 32 32
32 32 32
32 32 32
32 32 32
32 32 32
32 32 32
32 32 32
32 32 32
32 32 32
32 32 32
32 32 32
32 32 32
32 32 32
32 32 32
32 32 32
32 32 32
32 32 32
32 32 32
32 32 32
32 32 32
32 32 32
32 32 32
32 32 32
44 44 44
72 72 72
56 56 56
72 72 72
56 56 56
84 84 84
100 100 100
100 100 100
100 100 100
100 100 100
100 100 100
72 72 72
220 220 220
168 168 168
152 152 152
152 152 152
168 168 168
168 168 168
152 152 152
152 152 152
168 168 168
152 152 152
168 168 168
168 168 168
140 140 140
140 140 140
84 84 84
32 32 32
84 84 84

84 84 84
72 72 72
56 56 56
56 56 56
56 56 56
44 44 44
44 44 44
44 44 44
44 44 44
44 44 44
44 44 44
44 44 44
44 44 44
44 44 44
44 44 44
44 44 44
44 44 44
44 44 44
44 44 44
44 44 44
44 44 44
44 44 44
44 44 44
44 44 44
44 44 44
44 44 44
44 44 44
44 44 44
44 44 44
44 44 44
44 44 44
44 44 44
44 44 44
44 44 44
44 44 44
44 44 44
56 56 56
84 84 84
84 84 84
56 56 56
56 56 56
32 32 32
32 32 32
32 32 32
32 32 32
32 32 32
56 56 56
84 84 84
84 84 84
84 84 84
84 84 84
84 84 84
84 84 84
84 84 84
84 84 84
84 84 84
84 84 84
84 84 84
84 84 84
84 84 84
84 84 84
84 84 84
32 32 32
84 84 84

84 84 84
84 84 84
84 84 84
84 84 84
72 72 72
72 72 72
72 72 72
72 72 72
72 72 72
72 72 72
72 72 72
72 72 72
56 56 56
56 56 56
56 56 56
56 56 56
56 56 56
56 56 56
56 56 56
56 56 56
56 56 56
56 56 56
56 56 56
56 56 56
56 56 56
56 56 56
56 56 56
56 56 56
56 56 56
56 56 56
56 56 56
56 56 56
56 56 56
56 56 56
56 56 56
56 56 56
56 56 56
84 84 84
84 84 84
84 84 84
84 84 84
56 56 56
56 56 56
56 56 56
56 56 56
56 56 56
56 56 56
84 84 84
84 84 84
32 32 32
32 32 32
32 32 32
32 32 32
32 32 32
32 32 32
32 32 32
32 32 32
32 32 32
32 32 32
32 32 32
32 32 32
32 32 32
32 32 32
84 84 84

32 32 32
32 32 32
32 32 32
32 32 32
32 32 32
32 32 32
32 32 32
32 32 32
32 32 32
32 32 32
32 32 32
32 32 32
32 32 32
32 32 32
32 32 32
32 32 32
32 32 32
32 32 32
32 32 32
32 32 32
32 32 32
32 32 32
32 32 32
32 32 32
32 32 32
32 32 32
32 32 32
32 32 32
32 32 32
32 32 32
32 32 32
32 32 32
32 32 32
32 32 32
32 32 32
32 32 32
32 32 32
32 32 32
32 32 32
32 32 32
32 32 32
32 32 32
32 32 32
32 32 32
32 32 32
32 32 32
32 32 32
32 32 32
32 32 32
32 32 32
32 32 32
32 32 32
32 32 32
32 32 32
32 32 32
32 32 32
32 32 32
32 32 32
32 32 32
32 32 32
32 32 32
32 32 32
32 32 32
32 32 32

