P3
# ASCII PPM file
64 64
255

44 44 44
44 44 44
44 44 44
44 44 44
44 44 44
44 44 44
44 44 44
44 44 44
44 44 44
44 44 44
44 44 44
44 44 44
44 44 44
44 44 44
44 44 44
44 44 44
44 44 44
44 44 44
44 44 44
44 44 44
44 44 44
44 44 44
44 44 44
44 44 44
44 44 44
44 44 44
44 44 44
44 44 44
44 44 44
44 44 44
44 44 44
44 44 44
44 44 44
44 44 44
44 44 44
44 44 44
44 44 44
44 44 44
44 44 44
44 44 44
44 44 44
44 44 44
44 44 44
44 44 44
44 44 44
44 44 44
44 44 44
44 44 44
44 44 44
44 44 44
44 44 44
44 44 44
44 44 44
44 44 44
44 44 44
44 44 44
44 44 44
44 44 44
44 44 44
44 44 44
44 44 44
44 44 44
44 44 44
44 44 44

44 44 44
44 44 44
44 44 44
44 44 44
44 44 44
44 44 44
44 44 44
44 44 44
44 44 44
44 44 44
32 32 32
124 124 124
124 124 124
124 124 124
124 124 124
124 124 124
124 124 124
124 124 124
124 124 124
124 124 124
124 124 124
124 124 124
124 124 124
124 124 124
124 124 124
124 124 124
124 124 124
0 0 0
0 0 0
72 72 72
100 100 100
124 124 124
112 112 112
112 112 112
112 112 112
112 112 112
112 112 112
112 112 112
124 124 124
124 124 124
100 100 100
72 72 72
44 44 44
0 0 0
32 32 32
32 32 32
32 32 32
32 32 32
32 32 32
32 32 32
32 32 32
32 32 32
32 32 32
32 32 32
44 44 44
44 44 44
44 44 44
44 44 44
44 44 44
44 44 44
44 44 44
44 44 44
44 44 44
44 44 44

32 32 32
32 32 32
32 32 32
32 32 32
32 32 32
32 32 32
32 32 32
32 32 32
0 0 0
44 44 44
32 32 32
124 124 124
112 112 112
112 112 112
112 112 112
124 124 124
112 112 112
112 112 112
112 112 112
112 112 112
112 112 112
112 112 112
124 124 124
112 112 112
112 112 112
112 112 112
72 72 72
0 0 0
0 0 0
72 72 72
124 124 124
112 112 112
72 72 72
100 100 100
72 72 72
72 72 72
72 72 72
72 72 72
72 72 72
72 72 72
100 100 100
44 44 44
0 0 0
0 0 0
0 0 0
72 72 72
72 72 72
72 72 72
72 72 72
72 72 72
72 72 72
72 72 72
56 56 56
72 72 72
56 56 56
32 32 32
32 32 32
32 32 32
32 32 32
32 32 32
32 32 32
32 32 32
32 32 32
32 32 32

72 72 72
72 72 72
72 72 72
72 72 72
72 72 72
72 72 72
72 72 72
156 156 0
0 0 0
44 44 44
32 32 32
124 124 124
112 112 112
124 124 124
112 112 112
112 112 112
112 112 112
112 112 112
124 124 124
112 112 112
112 112 112
124 124 124
124 124 124
112 112 112
112 112 112
72 72 72
56 56 56
0 0 0
0 0 0
100 100 100
124 124 124
100 100 100
100 100 100
72 72 72
72 72 72
100 100 100
72 72 72
100 100 100
72 72 72
100 100 100
72 72 72
44 44 44
0 0 0
0 0 0
0 0 0
72 72 72
124 124 124
124 124 124
124 124 124
124 124 124
124 124 124
124 124 124
124 124 124
112 112 112
100 100 100
72 72 72
72 72 72
156 156 0
72 72 72
72 72 72
72 72 72
72 72 72
72 72 72
72 72 72

124 124 124
124 124 124
124 124 124
124 124 124
124 124 124
100 100 100
188 120 72
204 196 0
0 0 0
44 44 44
32 32 32
124 124 124
112 112 112
100 100 100
100 100 100
100 100 100
100 100 100
72 72 72
100 100 100
100 100 100
100 100 100
100 100 100
84 84 84
100 100 100
100 100 100
56 56 56
44 44 44
0 0 0
0 0 0
72 72 72
124 124 124
100 100 100
72 72 72
72 72 72
100 100 100
100 100 100
100 100 100
100 100 100
72 72 72
72 72 72
72 72 72
44 44 44
0 0 0
0 0 0
0 0 0
72 72 72
124 124 124
124 124 124
124 124 124
124 124 124
124 124 124
112 112 112
124 124 124
124 124 124
124 124 124
124 124 124
124 124 124
204 196 0
188 120 72
124 124 124
124 124 124
124 124 124
124 124 124
124 124 124

72 72 72
72 72 72
112 112 112
84 84 84
188 120 72
204 196 0
204 196 0
252 244 0
132 132 0
204 196 0
204 196 0
204 196 0
0 0 0
0 0 0
204 196 0
204 196 0
204 196 0
204 196 0
204 196 0
204 196 0
204 196 0
204 196 0
204 196 0
204 196 0
204 196 0
204 196 0
204 196 0
204 196 0
204 196 0
204 196 0
204 196 0
204 196 0
204 196 0
204 196 0
204 196 0
204 196 0
204 196 0
204 196 0
204 196 0
204 196 0
204 196 0
204 196 0
204 196 0
204 196 0
204 196 0
204 196 0
204 196 0
204 196 0
204 196 0
204 196 0
204 196 0
0 0 0
0 0 0
204 196 0
204 196 0
204 196 0
252 248 92
252 244 0
204 196 0
204 196 0
188 120 72
100 100 100
72 72 72
100 100 100

100 100 100
124 124 124
112 112 112
100 100 100
108 72 36
108 72 36
108 72 36
204 196 0
108 72 36
108 72 36
108 72 36
108 72 36
168 168 168
0 0 0
0 0 0
0 0 0
108 72 36
108 72 36
108 72 36
108 72 36
108 72 36
108 72 36
108 72 36
108 72 36
108 72 36
108 72 36
108 72 36
108 72 36
108 72 36
108 72 36
108 72 36
108 72 36
108 72 36
108 72 36
108 72 36
108 72 36
108 72 36
108 72 36
108 72 36
108 72 36
108 72 36
108 72 36
108 72 36
108 72 36
108 72 36
108 72 36
108 72 36
108 72 36
108 72 36
108 72 36
0 0 0
0 0 0
168 168 168
0 0 0
108 72 36
108 72 36
108 72 36
180 172 0
108 72 36
108 72 36
108 72 36
32 32 32
100 100 100
100 100 100

84 84 84
124 124 124
112 112 112
112 112 112
72 72 72
32 32 32
56 56 56
112 108 0
0 0 0
32 32 32
32 32 32
32 32 32
32 32 32
212 0 0
212 0 0
112 0 0
0 0 0
0 0 0
0 0 0
32 32 32
32 32 32
32 32 32
32 32 32
32 32 32
32 32 32
32 32 32
32 32 32
32 32 32
32 32 32
32 32 32
32 32 32
32 32 32
32 32 32
32 32 32
32 32 32
32 32 32
32 32 32
32 32 32
32 32 32
32 32 32
32 32 32
32 32 32
32 32 32
32 32 32
32 32 32
32 32 32
32 32 32
0 0 0
0 0 0
0 0 0
112 0 0
112 0 0
0 0 0
0 0 0
32 32 32
32 32 32
32 32 32
112 108 0
32 32 32
32 32 32
32 32 32
32 32 32
56 56 56
100 100 100

72 72 72
112 112 112
72 72 72
100 100 100
100 100 100
72 72 72
56 56 56
44 44 44
0 0 0
0 0 0
32 32 32
56 56 56
56 56 56
212 0 0
212 0 0
176 0 0
176 0 0
112 0 0
112 0 0
112 0 0
112 0 0
0 0 0
0 0 0
0 0 0
0 0 0
72 72 72
44 44 44
0 0 0
0 0 0
32 32 32
44 44 44
32 32 32
56 56 56
0 0 0
0 0 0
0 0 0
0 0 0
0 0 0
0 0 0
0 0 0
0 0 0
0 0 0
0 0 0
0 0 0
0 0 0
0 0 0
112 0 0
112 0 0
112 0 0
112 0 0
136 0 0
112 0 0
32 32 32
56 56 56
56 56 56
56 56 56
56 56 56
72 72 72
32 32 32
56 56 56
56 56 56
56 56 56
56 56 56
84 84 84

100 100 100
100 100 100
112 112 112
72 72 72
72 72 72
84 84 84
56 56 56
44 44 44
0 0 0
0 0 0
32 32 32
100 100 100
140 140 140
212 0 0
212 0 0
176 0 0
176 0 0
164 0 0
152 0 0
136 0 0
124 0 0
112 0 0
112 0 0
124 0 0
136 0 0
164 0 0
200 0 0
208 208 208
0 0 0
208 208 208
200 0 0
164 0 0
136 0 0
112 0 0
140 140 140
0 0 0
112 112 112
112 0 0
112 0 0
112 0 0
124 0 0
152 0 0
164 0 0
188 0 0
224 0 0
224 0 0
212 0 0
212 0 0
176 0 0
164 0 0
136 0 0
112 0 0
32 32 32
56 56 56
72 72 72
124 124 124
72 72 72
84 84 84
56 56 56
72 72 72
84 84 84
72 72 72
84 84 84
72 72 72

84 84 84
72 72 72
84 84 84
84 84 84
84 84 84
72 72 72
32 32 32
32 32 32
0 0 0
0 0 0
32 32 32
72 72 72
124 124 124
212 0 0
212 0 0
176 0 0
176 0 0
164 0 0
152 0 0
136 0 0
124 0 0
112 0 0
112 0 0
124 0 0
136 0 0
164 0 0
200 0 0
208 208 208
0 0 0
208 208 208
200 0 0
164 0 0
136 0 0
112 0 0
140 140 140
0 0 0
112 112 112
112 0 0
112 0 0
112 0 0
124 0 0
152 0 0
164 0 0
188 0 0
224 0 0
224 0 0
212 0 0
212 0 0
176 0 0
164 0 0
136 0 0
112 0 0
32 32 32
56 56 56
72 72 72
84 84 84
72 72 72
56 56 56
72 72 72
100 100 100
72 72 72
100 100 100
72 72 72
72 72 72

72 72 72
72 72 72
72 72 72
72 72 72
72 72 72
44 44 44
32 32 32
32 32 32
0 0 0
0 0 0
32 32 32
72 72 72
124 124 124
212 0 0
212 0 0
176 0 0
176 0 0
164 0 0
152 0 0
136 0 0
124 0 0
112 0 0
112 0 0
124 0 0
136 0 0
164 0 0
200 0 0
208 208 208
0 0 0
208 208 208
200 0 0
164 0 0
136 0 0
112 0 0
140 140 140
0 0 0
112 112 112
112 0 0
112 0 0
112 0 0
124 0 0
152 0 0
164 0 0
188 0 0
224 0 0
224 0 0
212 0 0
212 0 0
176 0 0
164 0 0
136 0 0
112 0 0
32 32 32
44 44 44
44 44 44
44 44 44
44 44 44
44 44 44
56 56 56
56 56 56
56 56 56
56 56 56
56 56 56
56 56 56

56 56 56
56 56 56
56 56 56
56 56 56
44 44 44
32 32 32
0 0 0
0 0 0
0 0 0
0 0 0
44 44 44
32 32 32
124 124 124
212 0 0
212 0 0
176 0 0
176 0 0
164 0 0
152 0 0
136 0 0
124 0 0
112 0 0
112 0 0
124 0 0
136 0 0
164 0 0
200 0 0
208 208 208
0 0 0
208 208 208
200 0 0
164 0 0
136 0 0
112 0 0
140 140 140
0 0 0
112 112 112
112 0 0
112 0 0
112 0 0
124 0 0
152 0 0
164 0 0
188 0 0
224 0 0
224 0 0
212 0 0
212 0 0
176 0 0
164 0 0
136 0 0
112 0 0
32 32 32
32 32 32
44 44 44
44 44 44
44 44 44
44 44 44
44 44 44
44 44 44
44 44 44
44 44 44
44 44 44
44 44 44

32 32 32
32 32 32
32 32 32
44 44 44
44 44 44
0 0 0
0 0 0
0 0 0
0 0 0
0 0 0
44 44 44
32 32 32
100 100 100
212 0 0
212 0 0
176 0 0
176 0 0
164 0 0
152 0 0
136 0 0
124 0 0
112 0 0
112 0 0
124 0 0
136 0 0
164 0 0
200 0 0
208 208 208
0 0 0
208 208 208
200 0 0
164 0 0
136 0 0
112 0 0
140 140 140
0 0 0
112 112 112
112 0 0
112 0 0
112 0 0
124 0 0
152 0 0
164 0 0
188 0 0
224 0 0
224 0 0
212 0 0
212 0 0
176 0 0
164 0 0
136 0 0
112 0 0
0 0 0
0 0 0
0 0 0
0 0 0
0 0 0
0 0 0
0 0 0
0 0 0
0 0 0
0 0 0
0 0 0
0 0 0

0 0 0
0 0 0
0 0 0
0 0 0
0 0 0
0 0 0
0 0 0
0 0 0
0 0 0
0 0 0
44 44 44
32 32 32
72 72 72
212 0 0
212 0 0
176 0 0
176 0 0
164 0 0
152 0 0
136 0 0
124 0 0
112 0 0
112 0 0
124 0 0
136 0 0
164 0 0
200 0 0
208 208 208
0 0 0
208 208 208
200 0 0
164 0 0
136 0 0
112 0 0
140 140 140
0 0 0
112 112 112
112 0 0
112 0 0
112 0 0
124 0 0
152 0 0
164 0 0
188 0 0
224 0 0
224 0 0
212 0 0
212 0 0
176 0 0
164 0 0
136 0 0
112 0 0
0 0 0
0 0 0
0 0 0
0 0 0
0 0 0
0 0 0
0 0 0
0 0 0
0 0 0
0 0 0
0 0 0
0 0 0

0 0 0
0 0 0
0 0 0
0 0 0
0 0 0
0 0 0
0 0 0
0 0 0
0 0 0
0 0 0
44 44 44
32 32 32
72 72 72
212 0 0
212 0 0
176 0 0
176 0 0
164 0 0
152 0 0
136 0 0
124 0 0
112 0 0
112 0 0
124 0 0
136 0 0
164 0 0
200 0 0
208 208 208
0 0 0
208 208 208
200 0 0
164 0 0
136 0 0
112 0 0
140 140 140
0 0 0
112 112 112
112 0 0
112 0 0
112 0 0
124 0 0
152 0 0
164 0 0
188 0 0
224 0 0
224 0 0
212 0 0
212 0 0
176 0 0
164 0 0
136 0 0
112 0 0
32 32 32
32 32 32
32 32 32
32 32 32
32 32 32
32 32 32
32 32 32
32 32 32
32 32 32
32 32 32
32 32 32
32 32 32

84 84 84
84 84 84
84 84 84
84 84 84
84 84 84
84 84 84
84 84 84
84 84 84
84 84 84
0 0 0
0 0 0
44 44 44
32 32 32
212 0 0
212 0 0
176 0 0
176 0 0
164 0 0
152 0 0
136 0 0
124 0 0
112 0 0
112 0 0
124 0 0
136 0 0
164 0 0
200 0 0
208 208 208
0 0 0
208 208 208
200 0 0
164 0 0
136 0 0
112 0 0
140 140 140
0 0 0
112 112 112
112 0 0
112 0 0
112 0 0
124 0 0
152 0 0
164 0 0
188 0 0
224 0 0
224 0 0
212 0 0
212 0 0
176 0 0
164 0 0
136 0 0
112 0 0
32 32 32
56 56 56
72 72 72
72 72 72
84 84 84
84 84 84
84 84 84
84 84 84
84 84 84
84 84 84
84 84 84
84 84 84

124 124 124
124 124 124
124 124 124
124 124 124
124 124 124
124 124 124
112 112 112
112 112 112
72 72 72
0 0 0
0 0 0
44 44 44
32 32 32
212 0 0
212 0 0
176 0 0
176 0 0
164 0 0
152 0 0
136 0 0
124 0 0
112 0 0
112 0 0
124 0 0
136 0 0
164 0 0
252 92 92
208 208 208
0 0 0
208 208 208
200 0 0
164 0 0
136 0 0
112 0 0
140 140 140
0 0 0
112 112 112
112 0 0
112 0 0
112 0 0
124 0 0
152 0 0
164 0 0
188 0 0
224 0 0
224 0 0
212 0 0
212 0 0
176 0 0
164 0 0
136 0 0
112 0 0
32 32 32
56 56 56
72 72 72
100 100 100
124 124 124
124 124 124
124 124 124
124 124 124
124 124 124
124 124 124
124 124 124
124 124 124

100 100 100
84 84 84
72 72 72
100 100 100
72 72 72
100 100 100
100 100 100
72 72 72
112 112 112
0 0 0
0 0 0
44 44 44
32 32 32
212 0 0
212 0 0
176 0 0
176 0 0
164 0 0
152 0 0
136 0 0
124 0 0
112 0 0
112 0 0
124 0 0
136 0 0
252 92 92
208 208 208
208 208 208
0 0 0
208 208 208
192 192 192
192 192 192
180 180 180
168 168 168
140 140 140
0 0 0
112 112 112
112 112 112
56 56 56
112 0 0
124 0 0
152 0 0
164 0 0
188 0 0
224 0 0
224 0 0
212 0 0
212 0 0
176 0 0
164 0 0
136 0 0
112 0 0
32 32 32
56 56 56
72 72 72
112 112 112
112 112 112
112 112 112
112 112 112
112 112 112
112 112 112
112 112 112
112 112 112
112 112 112

100 100 100
72 72 72
100 100 100
72 72 72
100 100 100
72 72 72
72 72 72
72 72 72
72 72 72
0 0 0
0 0 0
32 32 32
44 44 44
212 0 0
212 0 0
176 0 0
176 0 0
164 0 0
152 0 0
136 0 0
124 0 0
112 0 0
112 0 0
124 0 0
72 72 72
180 180 180
208 208 208
44 44 44
0 0 0
208 208 208
192 192 192
192 192 192
180 180 180
168 168 168
140 140 140
124 124 124
0 0 0
0 0 0
84 84 84
72 72 72
0 0 0
152 0 0
164 0 0
188 0 0
224 0 0
224 0 0
212 0 0
212 0 0
176 0 0
164 0 0
136 0 0
112 0 0
32 32 32
56 56 56
72 72 72
84 84 84
100 100 100
84 84 84
100 100 100
72 72 72
84 84 84
72 72 72
84 84 84
84 84 84

100 100 100
84 84 84
72 72 72
100 100 100
72 72 72
100 100 100
100 100 100
72 72 72
44 44 44
0 0 0
0 0 0
32 32 32
44 44 44
212 0 0
212 0 0
176 0 0
176 0 0
164 0 0
152 0 0
136 0 0
124 0 0
112 0 0
112 0 0
72 72 72
152 152 152
0 0 0
0 0 0
208 208 208
112 112 112
0 0 0
0 0 0
0 0 0
0 0 0
0 0 0
0 0 0
0 0 0
112 112 112
112 112 112
0 0 0
0 0 0
112 112 112
72 72 72
164 0 0
188 0 0
224 0 0
224 0 0
212 0 0
212 0 0
176 0 0
164 0 0
136 0 0
112 0 0
32 32 32
56 56 56
72 72 72
84 84 84
72 72 72
84 84 84
72 72 72
84 84 84
56 56 56
56 56 56
72 72 72
72 72 72

100 100 100
72 72 72
100 100 100
72 72 72
100 100 100
72 72 72
72 72 72
72 72 72
44 44 44
0 0 0
0 0 0
32 32 32
44 44 44
212 0 0
212 0 0
176 0 0
176 0 0
164 0 0
152 0 0
136 0 0
124 0 0
112 0 0
72 72 72
152 152 152
0 0 0
72 72 72
208 208 208
44 44 44
0 0 0
208 208 208
192 192 192
192 192 192
180 180 180
168 168 168
140 140 140
124 124 124
0 0 0
0 0 0
84 84 84
72 72 72
0 0 0
124 124 124
72 72 72
188 0 0
224 0 0
224 0 0
212 0 0
212 0 0
176 0 0
164 0 0
136 0 0
112 0 0
32 32 32
56 56 56
72 72 72
84 84 84
100 100 100
84 84 84
100 100 100
72 72 72
84 84 84
72 72 72
84 84 84
84 84 84

72 72 72
100 100 100
56 56 56
56 56 56
72 72 72
72 72 72
100 100 100
72 72 72
44 44 44
0 0 0
0 0 0
0 0 0
44 44 44
212 0 0
212 0 0
176 0 0
176 0 0
164 0 0
152 0 0
136 0 0
124 0 0
112 0 0
140 140 140
0 0 0
72 72 72
180 180 180
0 0 0
208 208 208
208 208 208
44 44 44
0 0 0
0 0 0
100 100 100
168 168 168
140 140 140
124 124 124
112 112 112
72 72 72
0 0 0
72 72 72
72 72 72
0 0 0
140 140 140
188 0 0
224 0 0
224 0 0
212 0 0
212 0 0
176 0 0
164 0 0
136 0 0
112 0 0
32 32 32
56 56 56
72 72 72
84 84 84
72 72 72
84 84 84
72 72 72
84 84 84
56 56 56
56 56 56
72 72 72
72 72 72

72 72 72
72 72 72
56 56 56
56 56 56
72 72 72
100 100 100
72 72 72
56 56 56
32 32 32
0 0 0
0 0 0
0 0 0
72 72 72
212 0 0
212 0 0
176 0 0
176 0 0
164 0 0
152 0 0
136 0 0
124 0 0
124 124 124
0 0 0
72 72 72
152 152 152
0 0 0
208 208 208
208 208 208
100 100 100
0 0 0
0 0 0
0 0 0
44 44 44
168 168 168
140 140 140
124 124 124
112 112 112
112 112 112
84 84 84
0 0 0
112 112 112
72 72 72
0 0 0
168 168 168
224 0 0
224 0 0
212 0 0
212 0 0
176 0 0
164 0 0
136 0 0
112 0 0
32 32 32
56 56 56
72 72 72
72 72 72
100 100 100
72 72 72
100 100 100
72 72 72
56 56 56
56 56 56
72 72 72
84 84 84

72 72 72
72 72 72
100 100 100
100 100 100
72 72 72
72 72 72
72 72 72
56 56 56
32 32 32
0 0 0
0 0 0
0 0 0
124 124 124
212 0 0
212 0 0
176 0 0
176 0 0
164 0 0
152 0 0
136 0 0
56 56 56
124 124 124
0 0 0
152 152 152
0 0 0
180 180 180
208 208 208
100 100 100
0 0 0
0 0 0
0 0 0
44 44 44
100 100 100
168 168 168
140 140 140
44 44 44
0 0 0
0 0 0
84 84 84
72 72 72
0 0 0
124 124 124
0 0 0
168 168 168
112 112 112
224 0 0
212 0 0
212 0 0
176 0 0
164 0 0
136 0 0
112 0 0
32 32 32
56 56 56
72 72 72
84 84 84
72 72 72
84 84 84
72 72 72
72 72 72
100 100 100
72 72 72
100 100 100
72 72 72

84 84 84
100 100 100
72 72 72
72 72 72
100 100 100
72 72 72
72 72 72
44 44 44
0 0 0
0 0 0
0 0 0
0 0 0
124 124 124
212 0 0
212 0 0
176 0 0
176 0 0
164 0 0
152 0 0
136 0 0
100 100 100
0 0 0
140 140 140
0 0 0
152 152 152
180 180 180
100 100 100
44 44 44
0 0 0
0 0 0
44 44 44
100 100 100
180 180 180
168 168 168
44 44 44
0 0 0
0 0 0
0 0 0
0 0 0
72 72 72
112 112 112
0 0 0
140 140 140
0 0 0
192 192 192
224 0 0
212 0 0
212 0 0
188 0 0
164 0 0
136 0 0
112 0 0
32 32 32
56 56 56
56 56 56
44 44 44
44 44 44
44 44 44
56 56 56
56 56 56
72 72 72
56 56 56
72 72 72
72 72 72

56 56 56
56 56 56
56 56 56
56 56 56
56 56 56
44 44 44
32 32 32
0 0 0
0 0 0
0 0 0
0 0 0
0 0 0
124 124 124
208 208 208
208 208 208
208 208 208
168 168 168
140 140 140
112 112 112
100 100 100
100 100 100
0 0 0
140 140 140
0 0 0
152 152 152
124 124 124
0 0 0
44 44 44
0 0 0
0 0 0
44 44 44
100 100 100
180 180 180
44 44 44
0 0 0
0 0 0
0 0 0
0 0 0
0 0 0
0 0 0
112 112 112
0 0 0
72 72 72
0 0 0
192 192 192
192 192 192
192 192 192
180 180 180
168 168 168
124 124 124
100 100 100
72 72 72
0 0 0
0 0 0
32 32 32
32 32 32
32 32 32
32 32 32
32 32 32
32 32 32
32 32 32
44 44 44
44 44 44
44 44 44

44 44 44
32 32 32
32 32 32
0 0 0
0 0 0
0 0 0
0 0 0
0 0 0
0 0 0
0 0 0
0 0 0
0 0 0
124 124 124
84 84 84
84 84 84
0 0 0
0 0 0
0 0 0
0 0 0
0 0 0
0 0 0
124 124 124
0 0 0
152 152 152
152 152 152
180 180 180
100 100 100
44 44 44
0 0 0
0 0 0
0 0 0
44 44 44
44 44 44
0 0 0
0 0 0
0 0 0
0 0 0
0 0 0
0 0 0
0 0 0
0 0 0
72 72 72
0 0 0
168 168 168
0 0 0
56 56 56
44 44 44
44 44 44
0 0 0
0 0 0
0 0 0
0 0 0
0 0 0
0 0 0
0 0 0
0 0 0
0 0 0
0 0 0
0 0 0
0 0 0
0 0 0
0 0 0
0 0 0
32 32 32

0 0 0
0 0 0
0 0 0
0 0 0
0 0 0
0 0 0
32 32 32
32 32 32
32 32 32
32 32 32
32 32 32
32 32 32
124 124 124
208 208 208
208 208 208
208 208 208
168 168 168
140 140 140
112 112 112
100 100 100
100 100 100
124 124 124
0 0 0
152 152 152
152 152 152
180 180 180
208 208 208
100 100 100
0 0 0
0 0 0
0 0 0
0 0 0
0 0 0
0 0 0
0 0 0
0 0 0
0 0 0
0 0 0
0 0 0
0 0 0
0 0 0
124 124 124
0 0 0
168 168 168
192 192 192
192 192 192
192 192 192
180 180 180
168 168 168
124 124 124
100 100 100
72 72 72
0 0 0
0 0 0
0 0 0
0 0 0
0 0 0
0 0 0
0 0 0
0 0 0
0 0 0
0 0 0
0 0 0
0 0 0

32 32 32
56 56 56
56 56 56
72 72 72
72 72 72
84 84 84
72 72 72
72 72 72
72 72 72
72 72 72
32 32 32
0 0 0
124 124 124
212 0 0
212 0 0
176 0 0
176 0 0
164 0 0
152 0 0
136 0 0
100 100 100
124 124 124
0 0 0
152 152 152
152 152 152
180 180 180
208 208 208
208 208 208
100 100 100
0 0 0
0 0 0
0 0 0
0 0 0
0 0 0
0 0 0
0 0 0
112 112 112
0 0 0
0 0 0
0 0 0
0 0 0
124 124 124
0 0 0
168 168 168
192 192 192
224 0 0
212 0 0
212 0 0
176 0 0
152 0 0
136 0 0
112 0 0
32 32 32
32 32 32
44 44 44
44 44 44
44 44 44
44 44 44
44 44 44
44 44 44
44 44 44
0 0 0
0 0 0
0 0 0

56 56 56
72 72 72
112 112 112
124 124 124
124 124 124
124 124 124
112 112 112
112 112 112
112 112 112
100 100 100
72 72 72
0 0 0
124 124 124
212 0 0
212 0 0
176 0 0
176 0 0
164 0 0
152 0 0
136 0 0
100 100 100
124 124 124
0 0 0
152 152 152
0 0 0
100 100 100
208 208 208
208 208 208
208 208 208
44 44 44
0 0 0
0 0 0
0 0 0
0 0 0
0 0 0
56 56 56
112 112 112
112 112 112
0 0 0
0 0 0
0 0 0
124 124 124
0 0 0
168 168 168
192 192 192
224 0 0
212 0 0
212 0 0
176 0 0
152 0 0
136 0 0
112 0 0
32 32 32
56 56 56
72 72 72
72 72 72
56 56 56
44 44 44
32 32 32
32 32 32
32 32 32
32 32 32
32 32 32
44 44 44

56 56 56
112 112 112
112 112 112
112 112 112
124 124 124
112 112 112
100 100 100
100 100 100
84 84 84
100 100 100
32 32 32
0 0 0
140 140 140
212 0 0
212 0 0
176 0 0
176 0 0
164 0 0
152 0 0
136 0 0
100 100 100
124 124 124
0 0 0
152 152 152
0 0 0
0 0 0
100 100 100
208 208 208
100 100 100
0 0 0
0 0 0
0 0 0
0 0 0
0 0 0
0 0 0
0 0 0
56 56 56
112 112 112
84 84 84
72 72 72
112 112 112
124 124 124
0 0 0
168 168 168
192 192 192
224 0 0
212 0 0
212 0 0
176 0 0
152 0 0
136 0 0
112 0 0
32 32 32
56 56 56
72 72 72
100 100 100
124 124 124
124 124 124
124 124 124
124 124 124
124 124 124
84 84 84
0 0 0
44 44 44

56 56 56
124 124 124
112 112 112
100 100 100
100 100 100
72 72 72
100 100 100
84 84 84
100 100 100
72 72 72
100 100 100
0 0 0
140 140 140
208 208 208
208 208 208
208 208 208
168 168 168
140 140 140
112 112 112
100 100 100
100 100 100
124 124 124
0 0 0
152 152 152
0 0 0
0 0 0
0 0 0
44 44 44
0 0 0
0 0 0
0 0 0
0 0 0
44 44 44
0 0 0
0 0 0
0 0 0
0 0 0
56 56 56
84 84 84
72 72 72
112 112 112
124 124 124
0 0 0
168 168 168
192 192 192
192 192 192
192 192 192
180 180 180
168 168 168
124 124 124
100 100 100
72 72 72
32 32 32
56 56 56
72 72 72
100 100 100
72 72 72
72 72 72
100 100 100
72 72 72
72 72 72
56 56 56
0 0 0
44 44 44

56 56 56
124 124 124
112 112 112
84 84 84
72 72 72
100 100 100
72 72 72
100 100 100
72 72 72
100 100 100
72 72 72
0 0 0
140 140 140
84 84 84
84 84 84
0 0 0
0 0 0
0 0 0
0 0 0
0 0 0
0 0 0
124 124 124
0 0 0
152 152 152
44 44 44
0 0 0
0 0 0
44 44 44
0 0 0
0 0 0
0 0 0
100 100 100
180 180 180
44 44 44
0 0 0
0 0 0
0 0 0
0 0 0
84 84 84
72 72 72
112 112 112
72 72 72
0 0 0
168 168 168
0 0 0
56 56 56
44 44 44
44 44 44
0 0 0
0 0 0
0 0 0
0 0 0
32 32 32
56 56 56
72 72 72
72 72 72
100 100 100
100 100 100
72 72 72
100 100 100
72 72 72
56 56 56
0 0 0
32 32 32

56 56 56
124 124 124
100 100 100
84 84 84
100 100 100
72 72 72
100 100 100
100 100 100
56 56 56
100 100 100
44 44 44
0 0 0
124 124 124
208 208 208
208 208 208
208 208 208
168 168 168
140 140 140
100 100 100
100 100 100
100 100 100
0 0 0
72 72 72
0 0 0
152 152 152
44 44 44
0 0 0
44 44 44
0 0 0
0 0 0
100 100 100
192 192 192
180 180 180
168 168 168
44 44 44
0 0 0
0 0 0
0 0 0
0 0 0
72 72 72
112 112 112
0 0 0
140 140 140
0 0 0
192 192 192
192 192 192
192 192 192
180 180 180
168 168 168
124 124 124
100 100 100
72 72 72
32 32 32
56 56 56
72 72 72
72 72 72
72 72 72
72 72 72
72 72 72
72 72 72
100 100 100
56 56 56
0 0 0
32 32 32

56 56 56
124 124 124
112 112 112
100 100 100
72 72 72
72 72 72
100 100 100
84 84 84
100 100 100
72 72 72
44 44 44
0 0 0
124 124 124
212 0 0
212 0 0
176 0 0
176 0 0
164 0 0
152 0 0
136 0 0
100 100 100
0 0 0
140 140 140
0 0 0
152 152 152
180 180 180
100 100 100
44 44 44
0 0 0
100 100 100
192 192 192
192 192 192
180 180 180
168 168 168
44 44 44
0 0 0
0 0 0
0 0 0
0 0 0
72 72 72
112 112 112
0 0 0
140 140 140
0 0 0
192 192 192
224 0 0
212 0 0
212 0 0
176 0 0
164 0 0
136 0 0
112 0 0
32 32 32
56 56 56
72 72 72
72 72 72
72 72 72
72 72 72
72 72 72
72 72 72
100 100 100
44 44 44
0 0 0
32 32 32

56 56 56
124 124 124
112 112 112
72 72 72
100 100 100
100 100 100
72 72 72
100 100 100
72 72 72
100 100 100
44 44 44
0 0 0
124 124 124
212 0 0
212 0 0
176 0 0
176 0 0
164 0 0
152 0 0
136 0 0
124 0 0
124 124 124
0 0 0
152 152 152
0 0 0
180 180 180
208 208 208
208 208 208
208 208 208
208 208 208
192 192 192
192 192 192
180 180 180
44 44 44
0 0 0
0 0 0
0 0 0
0 0 0
84 84 84
72 72 72
0 0 0
124 124 124
0 0 0
168 168 168
100 100 100
224 0 0
212 0 0
212 0 0
176 0 0
164 0 0
136 0 0
112 0 0
32 32 32
56 56 56
72 72 72
72 72 72
72 72 72
100 100 100
72 72 72
72 72 72
100 100 100
44 44 44
0 0 0
0 0 0

56 56 56
124 124 124
112 112 112
100 100 100
100 100 100
72 72 72
100 100 100
84 84 84
100 100 100
72 72 72
44 44 44
0 0 0
112 112 112
212 0 0
212 0 0
176 0 0
176 0 0
164 0 0
152 0 0
136 0 0
124 0 0
124 124 124
0 0 0
152 152 152
152 152 152
0 0 0
208 208 208
208 208 208
208 208 208
208 208 208
192 192 192
192 192 192
180 180 180
0 0 0
0 0 0
0 0 0
0 0 0
112 112 112
84 84 84
0 0 0
112 112 112
72 72 72
0 0 0
192 192 192
224 0 0
224 0 0
212 0 0
212 0 0
176 0 0
164 0 0
136 0 0
112 0 0
44 44 44
32 32 32
44 44 44
44 44 44
44 44 44
44 44 44
44 44 44
44 44 44
44 44 44
44 44 44
0 0 0
0 0 0

56 56 56
124 124 124
112 112 112
72 72 72
100 100 100
100 100 100
72 72 72
100 100 100
56 56 56
100 100 100
44 44 44
0 0 0
84 84 84
212 0 0
212 0 0
176 0 0
176 0 0
164 0 0
152 0 0
136 0 0
124 0 0
112 0 0
140 140 140
0 0 0
152 152 152
180 180 180
0 0 0
208 208 208
208 208 208
208 208 208
192 192 192
192 192 192
180 180 180
44 44 44
0 0 0
0 0 0
112 112 112
0 0 0
0 0 0
72 72 72
72 72 72
0 0 0
140 140 140
72 72 72
224 0 0
224 0 0
212 0 0
212 0 0
176 0 0
164 0 0
136 0 0
112 0 0
0 0 0
0 0 0
0 0 0
0 0 0
0 0 0
0 0 0
0 0 0
0 0 0
0 0 0
0 0 0
0 0 0
0 0 0

56 56 56
124 124 124
112 112 112
72 72 72
72 72 72
84 84 84
100 100 100
72 72 72
100 100 100
72 72 72
44 44 44
0 0 0
56 56 56
212 0 0
212 0 0
176 0 0
176 0 0
164 0 0
152 0 0
136 0 0
124 0 0
112 0 0
252 92 92
152 152 152
0 0 0
180 180 180
208 208 208
44 44 44
0 0 0
208 208 208
192 192 192
192 192 192
180 180 180
168 168 168
140 140 140
124 124 124
0 0 0
0 0 0
84 84 84
0 0 0
0 0 0
124 124 124
100 100 100
188 0 0
224 0 0
224 0 0
212 0 0
212 0 0
176 0 0
164 0 0
136 0 0
112 0 0
0 0 0
0 0 0
0 0 0
0 0 0
0 0 0
0 0 0
0 0 0
0 0 0
0 0 0
0 0 0
0 0 0
0 0 0

56 56 56
124 124 124
112 112 112
100 100 100
100 100 100
72 72 72
84 84 84
100 100 100
84 84 84
100 100 100
44 44 44
0 0 0
44 44 44
212 0 0
212 0 0
176 0 0
176 0 0
164 0 0
152 0 0
136 0 0
124 0 0
112 0 0
112 0 0
252 92 92
152 152 152
0 0 0
0 0 0
208 208 208
208 208 208
0 0 0
0 0 0
0 0 0
0 0 0
0 0 0
0 0 0
0 0 0
112 112 112
112 112 112
0 0 0
0 0 0
112 112 112
100 100 100
164 0 0
188 0 0
224 0 0
224 0 0
212 0 0
212 0 0
176 0 0
164 0 0
136 0 0
112 0 0
32 32 32
56 56 56
56 56 56
56 56 56
56 56 56
56 56 56
56 56 56
56 56 56
56 56 56
56 56 56
0 0 0
44 44 44

56 56 56
124 124 124
112 112 112
72 72 72
72 72 72
100 100 100
72 72 72
100 100 100
72 72 72
72 72 72
44 44 44
0 0 0
32 32 32
212 0 0
212 0 0
176 0 0
176 0 0
164 0 0
152 0 0
136 0 0
124 0 0
112 0 0
112 0 0
124 0 0
252 92 92
180 180 180
124 124 124
44 44 44
0 0 0
208 208 208
192 192 192
192 192 192
180 180 180
168 168 168
140 140 140
72 72 72
0 0 0
0 0 0
84 84 84
72 72 72
72 72 72
152 0 0
164 0 0
188 0 0
224 0 0
224 0 0
212 0 0
212 0 0
176 0 0
164 0 0
136 0 0
112 0 0
32 32 32
56 56 56
72 72 72
100 100 100
124 124 124
124 124 124
124 124 124
124 124 124
124 124 124
56 56 56
0 0 0
44 44 44

56 56 56
112 112 112
112 112 112
100 100 100
100 100 100
84 84 84
100 100 100
72 72 72
100 100 100
44 44 44
32 32 32
0 0 0
32 32 32
212 0 0
212 0 0
176 0 0
176 0 0
164 0 0
152 0 0
136 0 0
124 0 0
112 0 0
112 0 0
124 0 0
136 0 0
164 0 0
112 112 112
208 208 208
0 0 0
208 208 208
192 192 192
192 192 192
180 180 180
168 168 168
140 140 140
0 0 0
112 112 112
112 112 112
56 56 56
112 0 0
124 0 0
152 0 0
164 0 0
188 0 0
224 0 0
224 0 0
212 0 0
212 0 0
176 0 0
164 0 0
136 0 0
112 0 0
32 32 32
56 56 56
72 72 72
140 140 140
124 124 124
124 124 124
112 112 112
112 112 112
84 84 84
56 56 56
0 0 0
32 32 32

56 56 56
112 112 112
112 112 112
84 84 84
100 100 100
72 72 72
100 100 100
100 100 100
72 72 72
44 44 44
32 32 32
0 0 0
32 32 32
212 0 0
212 0 0
176 0 0
176 0 0
164 0 0
152 0 0
136 0 0
124 0 0
112 0 0
112 0 0
124 0 0
136 0 0
164 0 0
200 0 0
208 208 208
0 0 0
208 208 208
200 0 0
164 0 0
136 0 0
112 0 0
140 140 140
0 0 0
112 112 112
112 0 0
112 0 0
112 0 0
124 0 0
152 0 0
164 0 0
188 0 0
224 0 0
224 0 0
212 0 0
212 0 0
176 0 0
164 0 0
136 0 0
112 0 0
32 32 32
56 56 56
72 72 72
124 124 124
112 112 112
124 124 124
124 124 124
112 112 112
56 56 56
44 44 44
0 0 0
32 32 32

56 56 56
124 124 124
112 112 112
100 100 100
72 72 72
100 100 100
72 72 72
72 72 72
72 72 72
44 44 44
32 32 32
0 0 0
32 32 32
212 0 0
212 0 0
176 0 0
176 0 0
164 0 0
152 0 0
136 0 0
124 0 0
112 0 0
112 0 0
124 0 0
136 0 0
164 0 0
200 0 0
208 208 208
0 0 0
208 208 208
200 0 0
164 0 0
136 0 0
112 0 0
140 140 140
0 0 0
112 112 112
112 0 0
112 0 0
112 0 0
124 0 0
152 0 0
164 0 0
188 0 0
224 0 0
224 0 0
212 0 0
212 0 0
176 0 0
164 0 0
136 0 0
112 0 0
32 32 32
56 56 56
72 72 72
100 100 100
72 72 72
100 100 100
72 72 72
100 100 100
72 72 72
44 44 44
0 0 0
0 0 0

32 32 32
124 124 124
72 72 72
72 72 72
100 100 100
72 72 72
72 72 72
72 72 72
72 72 72
44 44 44
0 0 0
0 0 0
32 32 32
212 0 0
212 0 0
176 0 0
176 0 0
164 0 0
152 0 0
136 0 0
124 0 0
112 0 0
112 0 0
124 0 0
136 0 0
164 0 0
200 0 0
208 208 208
0 0 0
208 208 208
200 0 0
164 0 0
136 0 0
112 0 0
140 140 140
0 0 0
112 112 112
112 0 0
112 0 0
112 0 0
124 0 0
152 0 0
164 0 0
188 0 0
224 0 0
224 0 0
212 0 0
212 0 0
176 0 0
164 0 0
136 0 0
112 0 0
32 32 32
56 56 56
72 72 72
72 72 72
100 100 100
100 100 100
100 100 100
72 72 72
72 72 72
44 44 44
0 0 0
0 0 0

32 32 32
112 112 112
100 100 100
100 100 100
100 100 100
72 72 72
44 44 44
44 44 44
44 44 44
32 32 32
0 0 0
0 0 0
32 32 32
212 0 0
212 0 0
176 0 0
176 0 0
164 0 0
152 0 0
136 0 0
124 0 0
112 0 0
112 0 0
124 0 0
136 0 0
164 0 0
200 0 0
208 208 208
0 0 0
208 208 208
200 0 0
164 0 0
136 0 0
112 0 0
140 140 140
0 0 0
112 112 112
112 0 0
112 0 0
112 0 0
124 0 0
152 0 0
164 0 0
188 0 0
224 0 0
224 0 0
212 0 0
212 0 0
176 0 0
164 0 0
136 0 0
112 0 0
32 32 32
56 56 56
72 72 72
100 100 100
72 72 72
100 100 100
72 72 72
100 100 100
72 72 72
44 44 44
0 0 0
0 0 0

32 32 32
56 56 56
56 56 56
56 56 56
44 44 44
44 44 44
44 44 44
44 44 44
44 44 44
32 32 32
0 0 0
0 0 0
32 32 32
212 0 0
212 0 0
176 0 0
176 0 0
164 0 0
152 0 0
136 0 0
124 0 0
112 0 0
112 0 0
124 0 0
136 0 0
164 0 0
200 0 0
208 208 208
0 0 0
208 208 208
200 0 0
164 0 0
136 0 0
112 0 0
140 140 140
0 0 0
112 112 112
112 0 0
112 0 0
112 0 0
124 0 0
152 0 0
164 0 0
188 0 0
224 0 0
224 0 0
212 0 0
212 0 0
176 0 0
164 0 0
136 0 0
112 0 0
32 32 32
56 56 56
72 72 72
100 100 100
56 56 56
84 84 84
72 72 72
84 84 84
72 72 72
44 44 44
0 0 0
0 0 0

32 32 32
0 0 0
0 0 0
0 0 0
32 32 32
44 44 44
44 44 44
44 44 44
44 44 44
0 0 0
0 0 0
32 32 32
32 32 32
212 0 0
212 0 0
176 0 0
176 0 0
164 0 0
152 0 0
136 0 0
124 0 0
112 0 0
112 0 0
124 0 0
136 0 0
164 0 0
200 0 0
208 208 208
0 0 0
208 208 208
200 0 0
164 0 0
136 0 0
112 0 0
140 140 140
0 0 0
112 112 112
112 0 0
112 0 0
112 0 0
124 0 0
152 0 0
164 0 0
188 0 0
224 0 0
224 0 0
212 0 0
212 0 0
176 0 0
164 0 0
136 0 0
112 0 0
32 32 32
56 56 56
72 72 72
72 72 72
100 100 100
72 72 72
56 56 56
56 56 56
72 72 72
44 44 44
0 0 0
0 0 0

44 44 44
44 44 44
44 44 44
32 32 32
0 0 0
0 0 0
0 0 0
0 0 0
0 0 0
0 0 0
0 0 0
32 32 32
0 0 0
212 0 0
212 0 0
176 0 0
176 0 0
164 0 0
152 0 0
136 0 0
124 0 0
112 0 0
112 0 0
124 0 0
136 0 0
164 0 0
200 0 0
208 208 208
0 0 0
208 208 208
200 0 0
164 0 0
136 0 0
112 0 0
140 140 140
0 0 0
112 112 112
112 0 0
112 0 0
112 0 0
124 0 0
152 0 0
164 0 0
188 0 0
224 0 0
224 0 0
212 0 0
212 0 0
176 0 0
164 0 0
136 0 0
112 0 0
32 32 32
56 56 56
72 72 72
56 56 56
72 72 72
84 84 84
56 56 56
56 56 56
72 72 72
44 44 44
0 0 0
0 0 0

32 32 32
32 32 32
32 32 32
32 32 32
32 32 32
32 32 32
32 32 32
0 0 0
0 0 0
0 0 0
0 0 0
32 32 32
0 0 0
212 0 0
212 0 0
176 0 0
176 0 0
164 0 0
152 0 0
136 0 0
124 0 0
112 0 0
112 0 0
124 0 0
136 0 0
164 0 0
200 0 0
208 208 208
0 0 0
208 208 208
200 0 0
164 0 0
136 0 0
112 0 0
140 140 140
0 0 0
112 112 112
112 0 0
112 0 0
112 0 0
124 0 0
152 0 0
164 0 0
188 0 0
224 0 0
224 0 0
212 0 0
212 0 0
176 0 0
164 0 0
136 0 0
112 0 0
32 32 32
56 56 56
72 72 72
72 72 72
72 72 72
72 72 72
72 72 72
84 84 84
72 72 72
44 44 44
0 0 0
0 0 0

32 32 32
56 56 56
100 100 100
100 100 100
100 100 100
100 100 100
84 84 84
72 72 72
56 56 56
32 32 32
32 32 32
44 44 44
0 0 0
212 0 0
212 0 0
176 0 0
176 0 0
164 0 0
152 0 0
136 0 0
124 0 0
112 0 0
112 0 0
124 0 0
136 0 0
164 0 0
200 0 0
208 208 208
0 0 0
208 208 208
200 0 0
164 0 0
136 0 0
112 0 0
140 140 140
0 0 0
112 112 112
112 0 0
112 0 0
112 0 0
124 0 0
152 0 0
164 0 0
188 0 0
224 0 0
224 0 0
212 0 0
212 0 0
176 0 0
164 0 0
136 0 0
112 0 0
32 32 32
56 56 56
56 56 56
56 56 56
56 56 56
56 56 56
56 56 56
56 56 56
56 56 56
44 44 44
0 0 0
0 0 0

32 32 32
100 100 100
124 124 124
124 124 124
124 124 124
124 124 124
124 124 124
124 124 124
124 124 124
100 100 100
100 100 100
72 72 72
72 72 72
212 0 0
212 0 0
176 0 0
176 0 0
164 0 0
152 0 0
136 0 0
124 0 0
112 0 0
112 0 0
124 0 0
136 0 0
164 0 0
200 0 0
208 208 208
0 0 0
208 208 208
200 0 0
164 0 0
136 0 0
112 0 0
140 140 140
0 0 0
112 112 112
112 0 0
112 0 0
112 0 0
124 0 0
152 0 0
164 0 0
188 0 0
224 0 0
224 0 0
212 0 0
212 0 0
176 0 0
164 0 0
136 0 0
112 0 0
32 32 32
44 44 44
44 44 44
44 44 44
44 44 44
44 44 44
44 44 44
44 44 44
44 44 44
32 32 32
0 0 0
0 0 0

32 32 32
100 100 100
124 124 124
100 100 100
100 100 100
72 72 72
124 124 124
112 112 112
124 124 124
124 124 124
124 124 124
124 124 124
100 100 100
212 0 0
212 0 0
176 0 0
176 0 0
164 0 0
152 0 0
136 0 0
124 0 0
112 0 0
112 0 0
124 0 0
136 0 0
164 0 0
200 0 0
208 208 208
0 0 0
208 208 208
200 0 0
164 0 0
136 0 0
112 0 0
140 140 140
0 0 0
112 112 112
112 0 0
112 0 0
112 0 0
124 0 0
152 0 0
164 0 0
188 0 0
224 0 0
224 0 0
212 0 0
212 0 0
176 0 0
164 0 0
136 0 0
112 0 0
0 0 0
0 0 0
32 32 32
32 32 32
32 32 32
32 32 32
32 32 32
32 32 32
0 0 0
0 0 0
0 0 0
32 32 32

32 32 32
100 100 100
124 124 124
100 100 100
100 100 100
100 100 100
112 112 112
112 112 112
72 72 72
100 100 100
124 124 124
124 124 124
124 124 124
212 0 0
212 0 0
176 0 0
176 0 0
164 0 0
152 0 0
136 0 0
124 0 0
112 0 0
112 0 0
124 0 0
136 0 0
164 0 0
200 0 0
208 208 208
0 0 0
208 208 208
200 0 0
164 0 0
136 0 0
112 0 0
140 140 140
0 0 0
112 112 112
112 0 0
112 0 0
112 0 0
124 0 0
152 0 0
164 0 0
188 0 0
224 0 0
224 0 0
212 0 0
212 0 0
176 0 0
164 0 0
136 0 0
112 0 0
0 0 0
0 0 0
0 0 0
0 0 0
0 0 0
0 0 0
0 0 0
0 0 0
0 0 0
0 0 0
32 32 32
32 32 32

32 32 32
100 100 100
124 124 124
100 100 100
72 72 72
100 100 100
56 56 56
56 56 56
100 100 100
84 84 84
72 72 72
56 56 56
100 100 100
212 0 0
212 0 0
176 0 0
176 0 0
164 0 0
152 0 0
136 0 0
124 0 0
112 0 0
112 0 0
124 0 0
136 0 0
164 0 0
200 0 0
208 208 208
0 0 0
208 208 208
200 0 0
164 0 0
136 0 0
112 0 0
140 140 140
0 0 0
112 112 112
112 0 0
112 0 0
112 0 0
124 0 0
152 0 0
164 0 0
188 0 0
224 0 0
224 0 0
212 0 0
212 0 0
176 0 0
164 0 0
136 0 0
112 0 0
0 0 0
0 0 0
0 0 0
0 0 0
0 0 0
0 0 0
0 0 0
0 0 0
32 32 32
32 32 32
32 32 32
44 44 44

32 32 32
100 100 100
112 112 112
100 100 100
100 100 100
100 100 100
84 84 84
100 100 100
72 72 72
84 84 84
72 72 72
84 84 84
100 100 100
72 72 72
72 72 72
32 32 32
32 32 32
32 32 32
32 32 32
32 32 32
32 32 32
32 32 32
32 32 32
32 32 32
32 32 32
112 0 0
112 0 0
124 124 124
0 0 0
124 124 124
112 0 0
112 0 0
112 0 0
112 0 0
56 56 56
0 0 0
56 56 56
0 0 0
0 0 0
0 0 0
0 0 0
112 0 0
112 0 0
164 0 0
224 0 0
224 0 0
212 0 0
212 0 0
176 0 0
164 0 0
136 0 0
32 32 32
32 32 32
32 32 32
32 32 32
32 32 32
32 32 32
32 32 32
32 32 32
32 32 32
44 44 44
44 44 44
44 44 44
44 44 44

32 32 32
100 100 100
124 124 124
100 100 100
72 72 72
100 100 100
56 56 56
56 56 56
84 84 84
100 100 100
72 72 72
100 100 100
100 100 100
84 84 84
72 72 72
56 56 56
100 100 100
56 56 56
56 56 56
56 56 56
56 56 56
56 56 56
56 56 56
56 56 56
44 44 44
44 44 44
32 32 32
32 32 32
32 32 32
32 32 32
32 32 32
32 32 32
32 32 32
32 32 32
32 32 32
32 32 32
32 32 32
32 32 32
32 32 32
32 32 32
32 32 32
32 32 32
32 32 32
32 32 32
32 32 32
32 32 32
32 32 32
32 32 32
32 32 32
32 32 32
32 32 32
32 32 32
44 44 44
44 44 44
72 72 72
124 124 124
112 112 112
124 124 124
112 112 112
84 84 84
56 56 56
32 32 32
32 32 32
44 44 44

32 32 32
100 100 100
72 72 72
56 56 56
56 56 56
56 56 56
56 56 56
56 56 56
56 56 56
56 56 56
56 56 56
56 56 56
56 56 56
56 56 56
56 56 56
56 56 56
56 56 56
56 56 56
56 56 56
56 56 56
56 56 56
56 56 56
56 56 56
56 56 56
56 56 56
56 56 56
56 56 56
56 56 56
56 56 56
56 56 56
56 56 56
44 44 44
44 44 44
0 0 0
0 0 0
0 0 0
32 32 32
44 44 44
44 44 44
44 44 44
44 44 44
44 44 44
44 44 44
44 44 44
56 56 56
56 56 56
44 44 44
56 56 56
44 44 44
44 44 44
44 44 44
44 44 44
44 44 44
72 72 72
72 72 72
100 100 100
84 84 84
100 100 100
72 72 72
100 100 100
124 124 124
84 84 84
0 0 0
44 44 44

32 32 32
72 72 72
56 56 56
32 32 32
32 32 32
32 32 32
32 32 32
32 32 32
32 32 32
32 32 32
32 32 32
32 32 32
32 32 32
32 32 32
32 32 32
32 32 32
32 32 32
32 32 32
32 32 32
32 32 32
32 32 32
32 32 32
32 32 32
32 32 32
32 32 32
32 32 32
32 32 32
32 32 32
32 32 32
32 32 32
32 32 32
32 32 32
32 32 32
0 0 0
0 0 0
0 0 0
32 32 32
112 112 112
100 100 100
84 84 84
72 72 72
72 72 72
72 72 72
72 72 72
72 72 72
56 56 56
32 32 32
72 72 72
72 72 72
72 72 72
72 72 72
72 72 72
72 72 72
72 72 72
100 100 100
72 72 72
100 100 100
72 72 72
100 100 100
72 72 72
100 100 100
44 44 44
0 0 0
44 44 44

32 32 32
0 0 0
0 0 0
0 0 0
0 0 0
0 0 0
0 0 0
0 0 0
0 0 0
0 0 0
0 0 0
0 0 0
0 0 0
0 0 0
0 0 0
0 0 0
0 0 0
0 0 0
0 0 0
0 0 0
0 0 0
0 0 0
0 0 0
0 0 0
0 0 0
0 0 0
0 0 0
0 0 0
0 0 0
0 0 0
0 0 0
0 0 0
0 0 0
0 0 0
0 0 0
0 0 0
32 32 32
0 0 0
32 32 32
0 0 0
44 44 44
44 44 44
56 56 56
56 56 56
56 56 56
56 56 56
32 32 32
124 124 124
100 100 100
84 84 84
84 84 84
100 100 100
100 100 100
84 84 84
84 84 84
100 100 100
84 84 84
100 100 100
100 100 100
72 72 72
72 72 72
44 44 44
0 0 0
44 44 44

44 44 44
32 32 32
0 0 0
0 0 0
0 0 0
0 0 0
0 0 0
0 0 0
0 0 0
0 0 0
0 0 0
0 0 0
0 0 0
0 0 0
0 0 0
0 0 0
0 0 0
0 0 0
0 0 0
0 0 0
0 0 0
0 0 0
0 0 0
0 0 0
0 0 0
0 0 0
0 0 0
0 0 0
0 0 0
0 0 0
0 0 0
0 0 0
0 0 0
0 0 0
0 0 0
0 0 0
0 0 0
44 44 44
44 44 44
32 32 32
0 0 0
0 0 0
0 0 0
0 0 0
0 0 0
0 0 0
0 0 0
44 44 44
44 44 44
44 44 44
44 44 44
44 44 44
44 44 44
44 44 44
44 44 44
44 44 44
44 44 44
44 44 44
44 44 44
44 44 44
44 44 44
44 44 44
0 0 0
44 44 44

44 44 44
44 44 44
44 44 44
44 44 44
32 32 32
32 32 32
32 32 32
32 32 32
32 32 32
32 32 32
32 32 32
32 32 32
32 32 32
32 32 32
32 32 32
32 32 32
32 32 32
32 32 32
32 32 32
32 32 32
32 32 32
32 32 32
32 32 32
32 32 32
32 32 32
32 32 32
32 32 32
32 32 32
32 32 32
32 32 32
32 32 32
32 32 32
32 32 32
32 32 32
32 32 32
32 32 32
32 32 32
44 44 44
44 44 44
44 44 44
32 32 32
32 32 32
0 0 0
0 0 0
0 0 0
0 0 0
0 0 0
44 44 44
44 44 44
0 0 0
0 0 0
0 0 0
0 0 0
0 0 0
0 0 0
0 0 0
0 0 0
0 0 0
0 0 0
0 0 0
0 0 0
0 0 0
0 0 0
44 44 44

56 56 56
56 56 56
56 56 56
56 56 56
56 56 56
56 56 56
56 56 56
56 56 56
56 56 56
56 56 56
56 56 56
56 56 56
56 56 56
56 56 56
56 56 56
56 56 56
56 56 56
56 56 56
56 56 56
56 56 56
56 56 56
56 56 56
56 56 56
56 56 56
56 56 56
56 56 56
56 56 56
56 56 56
56 56 56
56 56 56
56 56 56
56 56 56
56 56 56
56 56 56
56 56 56
56 56 56
56 56 56
56 56 56
56 56 56
56 56 56
56 56 56
56 56 56
56 56 56
56 56 56
56 56 56
56 56 56
56 56 56
56 56 56
56 56 56
56 56 56
56 56 56
56 56 56
56 56 56
56 56 56
56 56 56
56 56 56
56 56 56
56 56 56
56 56 56
56 56 56
56 56 56
56 56 56
56 56 56
56 56 56

