P3
# ASCII PPM file
64 64
255

44 44 44
44 44 44
44 44 44
44 44 44
44 44 44
44 44 44
44 44 44
44 44 44
44 44 44
44 44 44
44 44 44
44 44 44
44 44 44
44 44 44
44 44 44
44 44 44
44 44 44
44 44 44
44 44 44
44 44 44
44 44 44
44 44 44
44 44 44
44 44 44
44 44 44
44 44 44
44 44 44
44 44 44
44 44 44
44 44 44
44 44 44
44 44 44
44 44 44
44 44 44
44 44 44
44 44 44
44 44 44
44 44 44
44 44 44
44 44 44
44 44 44
44 44 44
44 44 44
44 44 44
44 44 44
44 44 44
44 44 44
44 44 44
44 44 44
44 44 44
44 44 44
44 44 44
44 44 44
44 44 44
44 44 44
44 44 44
44 44 44
44 44 44
44 44 44
44 44 44
44 44 44
44 44 44
44 44 44
44 44 44

44 44 44
44 44 44
44 44 44
44 44 44
44 44 44
44 44 44
44 44 44
44 44 44
44 44 44
44 44 44
44 44 44
44 44 44
44 44 44
44 44 44
44 44 44
44 44 44
44 44 44
44 44 44
44 44 44
44 44 44
44 44 44
44 44 44
44 44 44
44 44 44
44 44 44
44 44 44
44 44 44
44 44 44
44 44 44
44 44 44
44 44 44
44 44 44
44 44 44
44 44 44
44 44 44
44 44 44
44 44 44
44 44 44
44 44 44
44 44 44
44 44 44
44 44 44
44 44 44
44 44 44
44 44 44
44 44 44
44 44 44
44 44 44
44 44 44
44 44 44
44 44 44
44 44 44
44 44 44
44 44 44
44 44 44
44 44 44
44 44 44
44 44 44
44 44 44
44 44 44
44 44 44
44 44 44
44 44 44
44 44 44

44 44 44
124 124 124
124 124 124
124 124 124
124 124 124
124 124 124
124 124 124
124 124 124
124 124 124
124 124 124
124 124 124
124 124 124
124 124 124
124 124 124
124 124 124
124 124 124
124 124 124
124 124 124
124 124 124
124 124 124
124 124 124
100 100 100
44 44 44
0 0 0
44 44 44
44 44 44
100 100 100
124 124 124
124 124 124
124 124 124
124 124 124
124 124 124
124 124 124
124 124 124
124 124 124
112 112 112
100 100 100
56 56 56
0 0 0
0 0 0
44 44 44
44 44 44
44 44 44
100 100 100
124 124 124
124 124 124
124 124 124
124 124 124
100 100 100
100 100 100
72 72 72
44 44 44
32 32 32
44 44 44
44 44 44
44 44 44
44 44 44
44 44 44
44 44 44
44 44 44
44 44 44
44 44 44
44 44 44
44 44 44

44 44 44
124 124 124
124 124 124
124 124 124
124 124 124
124 124 124
124 124 124
124 124 124
124 124 124
124 124 124
124 124 124
84 84 84
84 84 84
84 84 84
84 84 84
84 84 84
84 84 84
84 84 84
84 84 84
84 84 84
84 84 84
84 84 84
84 84 84
84 84 84
84 84 84
72 72 72
72 72 72
72 72 72
72 72 72
72 72 72
72 72 72
72 72 72
72 72 72
72 72 72
72 72 72
72 72 72
72 72 72
72 72 72
72 72 72
72 72 72
72 72 72
72 72 72
72 72 72
72 72 72
72 72 72
72 72 72
72 72 72
72 72 72
72 72 72
72 72 72
72 72 72
72 72 72
72 72 72
72 72 72
124 124 124
124 124 124
124 124 124
124 124 124
124 124 124
124 124 124
124 124 124
84 84 84
0 0 0
44 44 44

44 44 44
124 124 124
124 124 124
124 124 124
72 72 72
84 84 84
100 100 100
100 100 100
100 100 100
100 100 100
100 100 100
84 84 84
72 72 72
72 72 72
72 72 72
72 72 72
72 72 72
72 72 72
72 72 72
72 72 72
56 56 56
56 56 56
56 56 56
56 56 56
56 56 56
56 56 56
56 56 56
56 56 56
56 56 56
56 56 56
56 56 56
56 56 56
56 56 56
56 56 56
56 56 56
56 56 56
56 56 56
56 56 56
32 32 32
32 32 32
32 32 32
32 32 32
32 32 32
32 32 32
32 32 32
32 32 32
32 32 32
32 32 32
32 32 32
32 32 32
32 32 32
32 32 32
32 32 32
32 32 32
124 124 124
124 124 124
124 124 124
124 124 124
124 124 124
124 124 124
84 84 84
44 44 44
0 0 0
44 44 44

44 44 44
124 124 124
124 124 124
100 100 100
100 100 100
100 100 100
56 56 56
72 72 72
100 100 100
100 100 100
84 84 84
84 84 84
72 72 72
112 112 112
112 112 112
112 112 112
112 112 112
112 112 112
112 112 112
112 112 112
112 112 112
112 112 112
112 112 112
112 112 112
112 112 112
112 112 112
112 112 112
112 112 112
112 112 112
112 112 112
112 112 112
112 112 112
112 112 112
112 112 112
112 112 112
112 112 112
112 112 112
112 112 112
112 112 112
112 112 112
112 112 112
112 112 112
112 112 112
112 112 112
112 112 112
112 112 112
112 112 112
112 112 112
112 112 112
112 112 112
112 112 112
112 112 112
44 44 44
32 32 32
72 72 72
100 100 100
100 100 100
72 72 72
72 72 72
100 100 100
44 44 44
44 44 44
0 0 0
44 44 44

44 44 44
112 112 112
124 124 124
72 72 72
100 100 100
72 72 72
100 100 100
56 56 56
100 100 100
72 72 72
84 84 84
84 84 84
72 72 72
112 112 112
112 112 112
112 112 112
112 112 112
112 112 112
112 112 112
112 112 112
112 112 112
112 112 112
112 112 112
112 112 112
112 112 112
112 112 112
112 112 112
112 112 112
112 112 112
112 112 112
112 112 112
112 112 112
112 112 112
112 112 112
112 112 112
112 112 112
112 112 112
112 112 112
112 112 112
112 112 112
112 112 112
112 112 112
112 112 112
112 112 112
112 112 112
112 112 112
112 112 112
112 112 112
112 112 112
112 112 112
112 112 112
112 112 112
44 44 44
32 32 32
72 72 72
56 56 56
72 72 72
100 100 100
72 72 72
72 72 72
44 44 44
44 44 44
0 0 0
44 44 44

44 44 44
112 112 112
124 124 124
84 84 84
100 100 100
100 100 100
72 72 72
100 100 100
72 72 72
72 72 72
72 72 72
84 84 84
72 72 72
112 112 112
112 112 112
112 112 112
112 112 112
112 112 112
112 112 112
112 112 112
112 112 112
112 112 112
112 112 112
112 112 112
112 112 112
112 112 112
112 112 112
112 112 112
112 112 112
112 112 112
112 112 112
112 112 112
112 112 112
112 112 112
112 112 112
112 112 112
112 112 112
112 112 112
112 112 112
112 112 112
112 112 112
112 112 112
112 112 112
112 112 112
112 112 112
112 112 112
112 112 112
112 112 112
112 112 112
112 112 112
112 112 112
112 112 112
44 44 44
32 32 32
100 100 100
84 84 84
100 100 100
72 72 72
100 100 100
84 84 84
44 44 44
44 44 44
0 0 0
44 44 44

44 44 44
72 72 72
124 124 124
72 72 72
84 84 84
72 72 72
100 100 100
72 72 72
100 100 100
84 84 84
100 100 100
84 84 84
72 72 72
112 112 112
112 112 112
112 112 112
112 112 112
112 112 112
112 112 112
112 112 112
112 112 112
112 112 112
112 112 112
112 112 112
112 112 112
112 112 112
84 84 84
56 56 56
44 44 44
44 44 44
44 44 44
44 44 44
44 44 44
44 44 44
44 44 44
84 84 84
100 100 100
112 112 112
112 112 112
112 112 112
112 112 112
112 112 112
112 112 112
112 112 112
112 112 112
112 112 112
112 112 112
112 112 112
112 112 112
112 112 112
112 112 112
112 112 112
44 44 44
32 32 32
100 100 100
84 84 84
84 84 84
100 100 100
56 56 56
84 84 84
44 44 44
44 44 44
0 0 0
44 44 44

44 44 44
72 72 72
124 124 124
72 72 72
72 72 72
84 84 84
72 72 72
72 72 72
72 72 72
72 72 72
72 72 72
84 84 84
72 72 72
112 112 112
112 112 112
112 112 112
112 112 112
112 112 112
112 112 112
112 112 112
112 112 112
112 112 112
112 112 112
112 112 112
112 112 112
44 44 44
32 32 32
32 32 32
32 32 32
32 32 32
32 32 32
32 32 32
32 32 32
32 32 32
32 32 32
32 32 32
32 32 32
44 44 44
84 84 84
112 112 112
112 112 112
112 112 112
112 112 112
112 112 112
112 112 112
112 112 112
112 112 112
112 112 112
112 112 112
112 112 112
112 112 112
112 112 112
56 56 56
32 32 32
72 72 72
100 100 100
72 72 72
100 100 100
72 72 72
84 84 84
44 44 44
44 44 44
0 0 0
44 44 44

0 0 0
44 44 44
124 124 124
100 100 100
72 72 72
84 84 84
100 100 100
100 100 100
84 84 84
72 72 72
84 84 84
84 84 84
72 72 72
112 112 112
112 112 112
112 112 112
112 112 112
112 112 112
112 112 112
112 112 112
112 112 112
112 112 112
112 112 112
112 112 112
44 44 44
32 32 32
32 32 32
32 32 32
32 32 32
32 32 32
44 44 44
32 32 32
32 32 32
0 0 0
32 32 32
32 32 32
32 32 32
32 32 32
32 32 32
44 44 44
84 84 84
112 112 112
112 112 112
112 112 112
112 112 112
112 112 112
112 112 112
112 112 112
112 112 112
112 112 112
112 112 112
112 112 112
56 56 56
32 32 32
84 84 84
72 72 72
84 84 84
84 84 84
84 84 84
72 72 72
44 44 44
44 44 44
0 0 0
44 44 44

0 0 0
44 44 44
124 124 124
72 72 72
84 84 84
72 72 72
100 100 100
72 72 72
72 72 72
84 84 84
100 100 100
84 84 84
72 72 72
112 112 112
112 112 112
112 112 112
112 112 112
112 112 112
112 112 112
112 112 112
112 112 112
112 112 112
112 112 112
188 120 72
168 104 64
72 72 72
32 32 32
32 32 32
32 32 32
44 44 44
44 44 44
100 100 100
84 84 84
44 44 44
0 0 0
32 32 32
44 44 44
32 32 32
32 32 32
32 32 32
44 44 44
84 84 84
112 112 112
112 112 112
112 112 112
112 112 112
112 112 112
112 112 112
112 112 112
112 112 112
112 112 112
112 112 112
56 56 56
32 32 32
84 84 84
72 72 72
56 56 56
56 56 56
56 56 56
56 56 56
56 56 56
44 44 44
0 0 0
44 44 44

0 0 0
44 44 44
124 124 124
56 56 56
100 100 100
100 100 100
72 72 72
84 84 84
72 72 72
84 84 84
100 100 100
84 84 84
72 72 72
112 112 112
112 112 112
112 112 112
112 112 112
112 112 112
112 112 112
112 112 112
112 112 112
112 112 112
112 112 112
220 136 84
240 148 92
240 148 92
240 148 92
72 72 72
168 104 64
160 100 60
72 72 72
84 84 84
100 100 100
56 56 56
0 0 0
56 56 56
72 72 72
56 56 56
32 32 32
32 32 32
32 32 32
44 44 44
84 84 84
112 112 112
112 112 112
112 112 112
112 112 112
112 112 112
112 112 112
112 112 112
112 112 112
112 112 112
56 56 56
32 32 32
56 56 56
44 44 44
44 44 44
44 44 44
44 44 44
44 44 44
44 44 44
44 44 44
0 0 0
44 44 44

0 0 0
44 44 44
56 56 56
44 44 44
44 44 44
44 44 44
44 44 44
44 44 44
32 32 32
44 44 44
56 56 56
84 84 84
56 56 56
112 112 112
112 112 112
112 112 112
112 112 112
112 112 112
112 112 112
112 112 112
112 112 112
112 112 112
188 120 72
240 148 92
252 156 96
252 156 96
252 164 112
240 148 92
72 72 72
180 112 68
160 100 60
44 44 44
44 44 44
32 32 32
0 0 0
32 32 32
44 44 44
32 32 32
32 32 32
32 32 32
32 32 32
32 32 32
56 56 56
112 112 112
112 112 112
112 112 112
112 112 112
112 112 112
112 112 112
112 112 112
112 112 112
112 112 112
56 56 56
32 32 32
44 44 44
44 44 44
32 32 32
32 32 32
32 32 32
32 32 32
0 0 0
0 0 0
0 0 0
44 44 44

0 0 0
0 0 0
0 0 0
0 0 0
0 0 0
32 32 32
32 32 32
32 32 32
44 44 44
44 44 44
44 44 44
84 84 84
56 56 56
112 112 112
112 112 112
112 112 112
112 112 112
112 112 112
112 112 112
112 112 112
112 112 112
112 112 112
220 136 84
240 148 92
252 156 96
252 156 96
252 176 128
240 148 92
72 72 72
180 112 68
32 32 32
32 32 32
32 32 32
32 32 32
0 0 0
32 32 32
32 32 32
32 32 32
32 32 32
32 32 32
32 32 32
32 32 32
44 44 44
112 112 112
112 112 112
112 112 112
112 112 112
112 112 112
112 112 112
112 112 112
112 112 112
112 112 112
56 56 56
32 32 32
0 0 0
0 0 0
0 0 0
0 0 0
0 0 0
0 0 0
0 0 0
0 0 0
0 0 0
44 44 44

44 44 44
0 0 0
0 0 0
0 0 0
0 0 0
0 0 0
0 0 0
0 0 0
0 0 0
0 0 0
0 0 0
84 84 84
56 56 56
112 112 112
112 112 112
112 112 112
112 112 112
112 112 112
112 112 112
112 112 112
112 112 112
220 136 84
240 148 92
240 148 92
252 156 96
252 176 128
240 148 92
240 148 92
240 148 92
208 128 80
32 32 32
32 32 32
32 32 32
32 32 32
0 0 0
32 32 32
32 32 32
32 32 32
32 32 32
32 32 32
32 32 32
32 32 32
32 32 32
112 112 112
112 112 112
112 112 112
112 112 112
112 112 112
112 112 112
112 112 112
112 112 112
112 112 112
56 56 56
32 32 32
0 0 0
0 0 0
0 0 0
0 0 0
0 0 0
0 0 0
0 0 0
0 0 0
0 0 0
44 44 44

44 44 44
32 32 32
32 32 32
32 32 32
0 0 0
0 0 0
0 0 0
0 0 0
0 0 0
0 0 0
0 0 0
84 84 84
56 56 56
112 112 112
112 112 112
112 112 112
112 112 112
112 112 112
112 112 112
112 112 112
112 112 112
168 104 64
144 92 52
160 100 60
232 140 88
252 176 128
240 148 92
240 148 92
240 148 92
240 148 92
156 96 56
128 80 44
128 80 44
108 72 36
92 64 32
32 32 32
32 32 32
32 32 32
32 32 32
32 32 32
32 32 32
32 32 32
32 32 32
112 112 112
112 112 112
112 112 112
112 112 112
112 112 112
112 112 112
112 112 112
112 112 112
112 112 112
56 56 56
32 32 32
44 44 44
44 44 44
44 44 44
44 44 44
44 44 44
44 44 44
44 44 44
44 44 44
44 44 44
44 44 44

44 44 44
44 44 44
44 44 44
44 44 44
44 44 44
44 44 44
44 44 44
44 44 44
44 44 44
44 44 44
44 44 44
84 84 84
56 56 56
112 112 112
112 112 112
112 112 112
112 112 112
112 112 112
112 112 112
112 112 112
112 112 112
112 112 112
40 32 12
40 32 12
108 72 36
160 100 60
252 176 128
240 148 92
240 148 92
252 156 96
232 140 88
208 128 80
144 92 52
144 92 52
144 92 52
144 92 52
92 64 32
32 32 32
32 32 32
0 0 0
32 32 32
32 32 32
44 44 44
112 112 112
112 112 112
112 112 112
112 112 112
112 112 112
112 112 112
112 112 112
112 112 112
112 112 112
72 72 72
32 32 32
84 84 84
0 0 0
44 44 44
44 44 44
0 0 0
0 0 0
0 0 0
0 0 0
0 0 0
0 0 0

32 32 32
32 32 32
32 32 32
32 32 32
32 32 32
32 32 32
32 32 32
32 32 32
32 32 32
44 44 44
44 44 44
84 84 84
56 56 56
112 112 112
112 112 112
112 112 112
112 112 112
112 112 112
112 112 112
112 112 112
112 112 112
252 156 96
168 104 64
32 32 32
160 100 60
232 140 88
208 128 80
240 148 92
252 176 128
232 140 88
208 128 80
208 128 80
188 120 72
208 128 80
208 128 80
144 92 52
116 76 40
64 48 24
32 32 32
0 0 0
32 32 32
32 32 32
44 44 44
112 112 112
112 112 112
112 112 112
112 112 112
112 112 112
112 112 112
112 112 112
112 112 112
112 112 112
72 72 72
32 32 32
44 44 44
0 0 0
44 44 44
72 72 72
100 100 100
124 124 124
124 124 124
124 124 124
124 124 124
124 124 124

124 124 124
124 124 124
124 124 124
124 124 124
124 124 124
124 124 124
124 124 124
124 124 124
124 124 124
124 124 124
124 124 124
84 84 84
56 56 56
112 112 112
112 112 112
112 112 112
112 112 112
112 112 112
112 112 112
112 112 112
252 156 96
252 188 156
240 148 92
188 120 72
232 140 88
240 148 92
240 148 92
240 148 92
232 140 88
208 128 80
208 128 80
200 124 76
220 136 84
64 48 24
144 92 52
208 128 80
64 48 24
64 48 24
0 0 0
0 0 0
32 32 32
44 44 44
72 72 72
112 112 112
112 112 112
112 112 112
112 112 112
112 112 112
112 112 112
112 112 112
112 112 112
112 112 112
72 72 72
32 32 32
44 44 44
0 0 0
44 44 44
100 100 100
124 124 124
124 124 124
124 124 124
124 124 124
124 124 124
124 124 124

124 124 124
124 124 124
124 124 124
124 124 124
124 124 124
124 124 124
124 124 124
124 124 124
124 124 124
124 124 124
112 112 112
84 84 84
56 56 56
112 112 112
112 112 112
112 112 112
112 112 112
112 112 112
112 112 112
252 176 128
252 188 156
252 176 128
232 140 88
220 136 84
188 120 72
252 156 96
240 148 92
232 140 88
208 128 80
208 128 80
200 124 76
188 120 72
232 140 88
180 112 68
92 64 32
232 140 88
64 48 24
64 48 24
0 0 0
0 0 0
32 32 32
72 72 72
112 112 112
112 112 112
112 112 112
112 112 112
112 112 112
112 112 112
112 112 112
112 112 112
112 112 112
112 112 112
72 72 72
32 32 32
44 44 44
0 0 0
44 44 44
124 124 124
124 124 124
124 124 124
100 100 100
84 84 84
84 84 84
100 100 100

100 100 100
72 72 72
72 72 72
72 72 72
72 72 72
100 100 100
84 84 84
72 72 72
84 84 84
72 72 72
100 100 100
84 84 84
56 56 56
112 112 112
112 112 112
112 112 112
112 112 112
112 112 112
112 112 112
200 124 76
160 100 60
160 100 60
160 100 60
168 104 64
220 136 84
188 120 72
220 136 84
220 136 84
220 136 84
200 124 76
188 120 72
188 120 72
180 112 68
144 92 52
208 128 80
160 100 60
64 48 24
64 48 24
0 0 0
0 0 0
44 44 44
112 112 112
112 112 112
112 112 112
112 112 112
112 112 112
112 112 112
112 112 112
112 112 112
112 112 112
112 112 112
112 112 112
72 72 72
32 32 32
44 44 44
0 0 0
44 44 44
124 124 124
124 124 124
124 124 124
72 72 72
84 84 84
72 72 72
72 72 72

72 72 72
72 72 72
84 84 84
72 72 72
84 84 84
100 100 100
100 100 100
100 100 100
100 100 100
84 84 84
72 72 72
84 84 84
56 56 56
112 112 112
112 112 112
112 112 112
112 112 112
112 112 112
112 112 112
112 112 112
112 112 112
32 32 32
64 48 24
232 140 88
188 120 72
232 140 88
220 136 84
220 136 84
208 128 80
200 124 76
188 120 72
168 104 64
220 136 84
232 140 88
180 112 68
84 60 28
64 48 24
64 48 24
32 32 32
0 0 0
72 72 72
112 112 112
112 112 112
112 112 112
112 112 112
112 112 112
112 112 112
112 112 112
112 112 112
112 112 112
112 112 112
112 112 112
72 72 72
32 32 32
44 44 44
0 0 0
44 44 44
124 124 124
124 124 124
100 100 100
72 72 72
72 72 72
72 72 72
84 84 84

72 72 72
100 100 100
100 100 100
72 72 72
100 100 100
84 84 84
100 100 100
72 72 72
84 84 84
100 100 100
100 100 100
84 84 84
56 56 56
112 112 112
112 112 112
112 112 112
112 112 112
112 112 112
112 112 112
112 112 112
112 112 112
64 48 24
128 80 44
240 148 92
232 140 88
208 128 80
232 140 88
208 128 80
200 124 76
168 104 64
160 100 60
144 92 52
180 112 68
108 72 36
84 60 28
84 60 28
84 60 28
64 48 24
64 48 24
44 44 44
112 112 112
112 112 112
112 112 112
112 112 112
112 112 112
112 112 112
112 112 112
112 112 112
112 112 112
112 112 112
112 112 112
112 112 112
72 72 72
32 32 32
44 44 44
0 0 0
0 0 0
124 124 124
124 124 124
72 72 72
84 84 84
100 100 100
100 100 100
84 84 84

100 100 100
72 72 72
72 72 72
100 100 100
72 72 72
84 84 84
72 72 72
72 72 72
72 72 72
72 72 72
100 100 100
84 84 84
56 56 56
112 112 112
112 112 112
112 112 112
112 112 112
112 112 112
112 112 112
112 112 112
112 112 112
252 156 96
220 136 84
220 136 84
240 148 92
232 140 88
208 128 80
208 128 80
168 104 64
144 92 52
144 92 52
128 80 44
160 100 60
188 120 72
116 76 40
116 76 40
84 60 28
64 48 24
64 48 24
72 72 72
112 112 112
112 112 112
112 112 112
112 112 112
112 112 112
112 112 112
112 112 112
112 112 112
112 112 112
112 112 112
112 112 112
112 112 112
72 72 72
32 32 32
44 44 44
0 0 0
0 0 0
124 124 124
124 124 124
100 100 100
72 72 72
84 84 84
72 72 72
72 72 72

72 72 72
100 100 100
72 72 72
72 72 72
84 84 84
72 72 72
100 100 100
84 84 84
72 72 72
100 100 100
84 84 84
84 84 84
56 56 56
112 112 112
112 112 112
112 112 112
112 112 112
112 112 112
112 112 112
112 112 112
112 112 112
180 112 68
232 140 88
208 128 80
240 148 92
232 140 88
220 136 84
200 124 76
168 104 64
144 92 52
128 80 44
128 80 44
156 96 56
232 140 88
188 120 72
160 100 60
108 72 36
64 48 24
64 48 24
112 112 112
112 112 112
112 112 112
112 112 112
112 112 112
112 112 112
112 112 112
112 112 112
112 112 112
112 112 112
112 112 112
112 112 112
112 112 112
72 72 72
32 32 32
44 44 44
0 0 0
0 0 0
124 124 124
124 124 124
72 72 72
100 100 100
84 84 84
84 84 84
84 84 84

44 44 44
44 44 44
44 44 44
56 56 56
56 56 56
56 56 56
72 72 72
72 72 72
72 72 72
72 72 72
72 72 72
84 84 84
56 56 56
112 112 112
112 112 112
112 112 112
112 112 112
112 112 112
112 112 112
112 112 112
112 112 112
232 140 88
252 156 96
232 140 88
188 120 72
220 136 84
188 120 72
160 100 60
128 80 44
116 76 40
128 80 44
156 96 56
232 140 88
232 140 88
232 140 88
208 128 80
160 100 60
144 92 52
84 60 28
84 60 28
112 112 112
112 112 112
112 112 112
112 112 112
112 112 112
112 112 112
112 112 112
112 112 112
112 112 112
112 112 112
112 112 112
112 112 112
72 72 72
32 32 32
44 44 44
0 0 0
0 0 0
124 124 124
100 100 100
56 56 56
44 44 44
44 44 44
44 44 44
44 44 44

44 44 44
44 44 44
44 44 44
44 44 44
44 44 44
44 44 44
44 44 44
44 44 44
44 44 44
44 44 44
44 44 44
84 84 84
56 56 56
112 112 112
112 112 112
112 112 112
112 112 112
112 112 112
112 112 112
112 112 112
112 112 112
208 128 80
232 140 88
188 120 72
160 100 60
144 92 52
128 80 44
116 76 40
116 76 40
128 80 44
156 96 56
188 120 72
232 140 88
232 140 88
160 100 60
160 100 60
116 76 40
92 64 32
84 60 28
84 60 28
84 84 84
100 100 100
112 112 112
112 112 112
112 112 112
112 112 112
112 112 112
112 112 112
112 112 112
112 112 112
112 112 112
112 112 112
72 72 72
32 32 32
0 0 0
0 0 0
0 0 0
100 100 100
56 56 56
44 44 44
44 44 44
44 44 44
44 44 44
44 44 44

32 32 32
32 32 32
32 32 32
32 32 32
32 32 32
32 32 32
32 32 32
32 32 32
32 32 32
32 32 32
32 32 32
84 84 84
56 56 56
112 112 112
112 112 112
112 112 112
112 112 112
112 112 112
112 112 112
112 112 112
112 112 112
112 112 112
112 112 112
112 112 112
128 80 44
108 72 36
108 72 36
108 72 36
128 80 44
156 96 56
188 120 72
232 140 88
160 100 60
160 100 60
116 76 40
116 76 40
116 76 40
92 64 32
92 64 32
56 44 20
84 60 28
84 60 28
72 72 72
100 100 100
112 112 112
112 112 112
112 112 112
112 112 112
112 112 112
112 112 112
112 112 112
112 112 112
72 72 72
32 32 32
0 0 0
0 0 0
0 0 0
0 0 0
0 0 0
0 0 0
0 0 0
0 0 0
0 0 0
0 0 0

32 32 32
0 0 0
0 0 0
0 0 0
0 0 0
0 0 0
0 0 0
0 0 0
0 0 0
0 0 0
0 0 0
84 84 84
56 56 56
112 112 112
112 112 112
112 112 112
112 112 112
112 112 112
112 112 112
112 112 112
112 112 112
112 112 112
112 112 112
112 112 112
112 112 112
112 112 112
156 96 56
128 80 44
156 96 56
156 96 56
232 140 88
160 100 60
116 76 40
116 76 40
128 80 44
116 76 40
108 72 36
84 60 28
56 44 20
92 64 32
92 64 32
84 60 28
84 60 28
84 60 28
72 72 72
100 100 100
112 112 112
112 112 112
112 112 112
112 112 112
112 112 112
112 112 112
72 72 72
32 32 32
0 0 0
0 0 0
0 0 0
0 0 0
0 0 0
0 0 0
0 0 0
0 0 0
0 0 0
0 0 0

44 44 44
44 44 44
32 32 32
0 0 0
0 0 0
0 0 0
0 0 0
0 0 0
0 0 0
0 0 0
0 0 0
72 72 72
56 56 56
112 112 112
112 112 112
112 112 112
112 112 112
112 112 112
112 112 112
112 112 112
112 112 112
112 112 112
112 112 112
112 112 112
100 100 100
180 112 68
156 96 56
156 96 56
180 112 68
232 140 88
116 76 40
116 76 40
128 80 44
128 80 44
128 80 44
84 60 28
56 44 20
92 64 32
136 88 48
136 88 48
136 88 48
116 76 40
116 76 40
92 64 32
108 72 36
84 60 28
72 72 72
100 100 100
112 112 112
112 112 112
112 112 112
112 112 112
72 72 72
32 32 32
32 32 32
32 32 32
32 32 32
32 32 32
32 32 32
32 32 32
32 32 32
0 0 0
32 32 32
44 44 44

44 44 44
44 44 44
44 44 44
44 44 44
0 0 0
0 0 0
0 0 0
0 0 0
0 0 0
0 0 0
0 0 0
72 72 72
32 32 32
112 112 112
112 112 112
112 112 112
112 112 112
112 112 112
112 112 112
112 112 112
112 112 112
112 112 112
100 100 100
100 100 100
180 112 68
160 100 60
180 112 68
180 112 68
156 96 56
128 80 44
128 80 44
156 96 56
156 96 56
84 60 28
56 44 20
92 64 32
136 88 48
156 96 56
156 96 56
156 96 56
156 96 56
156 96 56
156 96 56
156 96 56
128 80 44
128 80 44
108 72 36
84 60 28
72 72 72
112 112 112
112 112 112
112 112 112
72 72 72
32 32 32
124 124 124
124 124 124
124 124 124
124 124 124
124 124 124
124 124 124
100 100 100
0 0 0
0 0 0
44 44 44

44 44 44
44 44 44
44 44 44
100 100 100
112 112 112
124 124 124
124 124 124
124 124 124
124 124 124
124 124 124
124 124 124
72 72 72
32 32 32
112 112 112
112 112 112
112 112 112
112 112 112
112 112 112
112 112 112
112 112 112
112 112 112
100 100 100
72 72 72
180 112 68
180 112 68
160 100 60
180 112 68
168 104 64
136 88 48
156 96 56
156 96 56
108 72 36
56 44 20
92 64 32
136 88 48
156 96 56
156 96 56
156 96 56
156 96 56
156 96 56
156 96 56
156 96 56
156 96 56
156 96 56
156 96 56
156 96 56
128 80 44
108 72 36
84 60 28
84 84 84
112 112 112
112 112 112
72 72 72
32 32 32
124 124 124
124 124 124
124 124 124
124 124 124
124 124 124
100 100 100
72 72 72
0 0 0
0 0 0
44 44 44

44 44 44
44 44 44
100 100 100
124 124 124
124 124 124
124 124 124
124 124 124
124 124 124
124 124 124
124 124 124
124 124 124
72 72 72
32 32 32
112 112 112
112 112 112
112 112 112
112 112 112
112 112 112
112 112 112
112 112 112
100 100 100
72 72 72
84 60 28
180 112 68
136 88 48
180 112 68
180 112 68
168 104 64
168 104 64
156 96 56
84 60 28
56 44 20
128 80 44
156 96 56
156 96 56
156 96 56
156 96 56
144 92 52
128 80 44
92 64 32
128 80 44
128 80 44
156 96 56
156 96 56
156 96 56
156 96 56
156 96 56
128 80 44
92 64 32
84 60 28
84 84 84
112 112 112
72 72 72
32 32 32
72 72 72
100 100 100
72 72 72
100 100 100
72 72 72
72 72 72
32 32 32
0 0 0
0 0 0
44 44 44

44 44 44
44 44 44
112 112 112
124 124 124
112 112 112
100 100 100
100 100 100
100 100 100
72 72 72
100 100 100
72 72 72
72 72 72
32 32 32
112 112 112
112 112 112
112 112 112
112 112 112
112 112 112
112 112 112
112 112 112
72 72 72
92 64 32
84 60 28
180 112 68
136 88 48
180 112 68
180 112 68
168 104 64
156 96 56
84 60 28
84 60 28
136 88 48
156 96 56
156 96 56
156 96 56
156 96 56
144 92 52
136 88 48
92 64 32
92 64 32
128 80 44
128 80 44
128 80 44
128 80 44
108 72 36
108 72 36
108 72 36
108 72 36
108 72 36
92 64 32
84 60 28
112 112 112
72 72 72
32 32 32
100 100 100
84 84 84
72 72 72
72 72 72
72 72 72
44 44 44
32 32 32
0 0 0
0 0 0
44 44 44

44 44 44
44 44 44
124 124 124
124 124 124
72 72 72
100 100 100
72 72 72
100 100 100
100 100 100
100 100 100
72 72 72
72 72 72
32 32 32
112 112 112
112 112 112
112 112 112
112 112 112
112 112 112
112 112 112
100 100 100
92 64 32
92 64 32
84 60 28
180 112 68
92 64 32
136 88 48
180 112 68
156 96 56
84 60 28
84 60 28
156 96 56
156 96 56
156 96 56
156 96 56
156 96 56
156 96 56
136 88 48
116 76 40
84 60 28
92 64 32
128 80 44
128 80 44
108 72 36
128 80 44
128 80 44
128 80 44
108 72 36
108 72 36
108 72 36
108 72 36
84 60 28
112 112 112
72 72 72
32 32 32
72 72 72
72 72 72
100 100 100
72 72 72
72 72 72
44 44 44
32 32 32
0 0 0
0 0 0
44 44 44

44 44 44
44 44 44
124 124 124
124 124 124
100 100 100
84 84 84
84 84 84
72 72 72
84 84 84
72 72 72
100 100 100
72 72 72
32 32 32
112 112 112
112 112 112
112 112 112
112 112 112
112 112 112
112 112 112
72 72 72
116 76 40
116 76 40
84 60 28
128 80 44
84 60 28
136 88 48
84 60 28
56 44 20
136 88 48
156 96 56
156 96 56
156 96 56
156 96 56
156 96 56
156 96 56
144 92 52
116 76 40
92 64 32
64 48 24
64 48 24
156 96 56
156 96 56
156 96 56
156 96 56
156 96 56
128 80 44
128 80 44
108 72 36
92 64 32
92 64 32
64 48 24
112 112 112
72 72 72
32 32 32
72 72 72
100 100 100
84 84 84
100 100 100
84 84 84
44 44 44
32 32 32
0 0 0
0 0 0
44 44 44

44 44 44
44 44 44
124 124 124
124 124 124
72 72 72
84 84 84
72 72 72
100 100 100
72 72 72
84 84 84
72 72 72
72 72 72
32 32 32
112 112 112
112 112 112
112 112 112
112 112 112
112 112 112
112 112 112
128 80 44
116 76 40
116 76 40
84 60 28
92 64 32
84 60 28
136 88 48
136 88 48
116 76 40
156 96 56
156 96 56
156 96 56
156 96 56
156 96 56
156 96 56
156 96 56
136 88 48
92 64 32
64 48 24
64 48 24
156 96 56
156 96 56
180 112 68
156 96 56
156 96 56
156 96 56
128 80 44
156 96 56
128 80 44
84 60 28
84 60 28
40 32 12
112 112 112
72 72 72
32 32 32
72 72 72
84 84 84
84 84 84
72 72 72
84 84 84
44 44 44
32 32 32
0 0 0
0 0 0
44 44 44

44 44 44
44 44 44
124 124 124
100 100 100
72 72 72
72 72 72
100 100 100
72 72 72
72 72 72
72 72 72
72 72 72
72 72 72
32 32 32
112 112 112
112 112 112
112 112 112
112 112 112
112 112 112
100 100 100
128 80 44
116 76 40
116 76 40
64 48 24
84 60 28
108 72 36
136 88 48
136 88 48
156 96 56
156 96 56
156 96 56
156 96 56
156 96 56
156 96 56
156 96 56
144 92 52
144 92 52
92 64 32
64 48 24
156 96 56
156 96 56
180 112 68
156 96 56
156 96 56
180 112 68
128 80 44
116 76 40
156 96 56
128 80 44
84 60 28
64 48 24
40 32 12
112 112 112
72 72 72
32 32 32
72 72 72
72 72 72
84 84 84
84 84 84
100 100 100
44 44 44
32 32 32
0 0 0
0 0 0
44 44 44

44 44 44
44 44 44
100 100 100
44 44 44
44 44 44
44 44 44
72 72 72
72 72 72
84 84 84
72 72 72
100 100 100
72 72 72
32 32 32
112 112 112
112 112 112
112 112 112
112 112 112
112 112 112
72 72 72
128 80 44
116 76 40
116 76 40
84 60 28
84 60 28
136 88 48
136 88 48
160 100 60
160 100 60
168 104 64
168 104 64
156 96 56
156 96 56
156 96 56
156 96 56
128 80 44
92 64 32
64 48 24
64 48 24
156 96 56
180 112 68
156 96 56
156 96 56
180 112 68
156 96 56
128 80 44
116 76 40
156 96 56
108 72 36
84 60 28
64 48 24
40 32 12
112 112 112
72 72 72
32 32 32
100 100 100
100 100 100
84 84 84
72 72 72
100 100 100
44 44 44
32 32 32
0 0 0
0 0 0
44 44 44

44 44 44
0 0 0
0 0 0
32 32 32
32 32 32
32 32 32
44 44 44
100 100 100
100 100 100
72 72 72
72 72 72
72 72 72
32 32 32
112 112 112
112 112 112
112 112 112
112 112 112
112 112 112
136 88 48
128 80 44
116 76 40
116 76 40
84 60 28
108 72 36
136 88 48
160 100 60
160 100 60
168 104 64
168 104 64
160 100 60
160 100 60
160 100 60
84 60 28
128 80 44
108 72 36
64 48 24
64 48 24
128 80 44
128 80 44
156 96 56
156 96 56
156 96 56
180 112 68
128 80 44
116 76 40
136 88 48
156 96 56
108 72 36
84 60 28
64 48 24
40 32 12
112 112 112
72 72 72
32 32 32
100 100 100
72 72 72
100 100 100
100 100 100
72 72 72
44 44 44
32 32 32
0 0 0
0 0 0
44 44 44

44 44 44
32 32 32
0 0 0
0 0 0
0 0 0
0 0 0
32 32 32
44 44 44
44 44 44
44 44 44
44 44 44
72 72 72
32 32 32
112 112 112
112 112 112
112 112 112
112 112 112
100 100 100
136 88 48
136 88 48
116 76 40
84 60 28
84 60 28
136 88 48
136 88 48
160 100 60
160 100 60
168 104 64
160 100 60
160 100 60
160 100 60
84 60 28
128 80 44
108 72 36
108 72 36
64 48 24
84 84 84
168 168 168
168 168 168
128 80 44
180 112 68
180 112 68
156 96 56
136 88 48
116 76 40
156 96 56
156 96 56
92 64 32
64 48 24
40 32 12
44 44 44
112 112 112
72 72 72
32 32 32
84 84 84
100 100 100
72 72 72
84 84 84
72 72 72
44 44 44
32 32 32
0 0 0
0 0 0
44 44 44

44 44 44
44 44 44
44 44 44
44 44 44
32 32 32
0 0 0
0 0 0
0 0 0
32 32 32
32 32 32
32 32 32
72 72 72
32 32 32
112 112 112
112 112 112
112 112 112
112 112 112
72 72 72
136 88 48
116 76 40
116 76 40
116 76 40
84 60 28
136 88 48
136 88 48
116 76 40
84 60 28
40 32 12
40 32 12
160 100 60
160 100 60
84 60 28
108 72 36
64 48 24
64 48 24
84 84 84
32 32 32
32 32 32
44 44 44
168 168 168
212 0 0
180 112 68
84 60 28
128 80 44
116 76 40
156 96 56
156 96 56
84 60 28
64 48 24
40 32 12
72 72 72
112 112 112
72 72 72
32 32 32
84 84 84
72 72 72
84 84 84
72 72 72
100 100 100
44 44 44
32 32 32
0 0 0
0 0 0
44 44 44

44 44 44
44 44 44
44 44 44
44 44 44
44 44 44
32 32 32
0 0 0
0 0 0
0 0 0
0 0 0
0 0 0
72 72 72
32 32 32
112 112 112
112 112 112
112 112 112
100 100 100
128 80 44
128 80 44
116 76 40
116 76 40
84 60 28
108 72 36
136 88 48
156 96 56
160 100 60
160 100 60
40 32 12
40 32 12
84 60 28
84 60 28
108 72 36
64 48 24
84 84 84
32 32 32
168 168 168
32 32 32
168 168 168
168 168 168
168 168 168
168 168 168
212 0 0
84 60 28
116 76 40
128 80 44
156 96 56
156 96 56
84 60 28
64 48 24
40 32 12
84 84 84
112 112 112
72 72 72
32 32 32
72 72 72
84 84 84
72 72 72
72 72 72
44 44 44
44 44 44
32 32 32
0 0 0
0 0 0
44 44 44

44 44 44
44 44 44
44 44 44
44 44 44
44 44 44
44 44 44
32 32 32
0 0 0
0 0 0
0 0 0
0 0 0
72 72 72
32 32 32
112 112 112
112 112 112
112 112 112
72 72 72
144 92 52
144 92 52
144 92 52
116 76 40
84 60 28
136 88 48
136 88 48
160 100 60
160 100 60
168 104 64
92 64 32
144 92 52
108 72 36
108 72 36
64 48 24
124 0 0
84 84 84
44 44 44
32 32 32
32 32 32
32 32 32
32 32 32
44 44 44
168 168 168
168 0 0
152 0 0
152 0 0
116 76 40
156 96 56
156 96 56
84 60 28
40 32 12
64 48 24
112 112 112
112 112 112
72 72 72
32 32 32
44 44 44
44 44 44
44 44 44
44 44 44
44 44 44
44 44 44
0 0 0
0 0 0
0 0 0
44 44 44

44 44 44
44 44 44
44 44 44
44 44 44
44 44 44
44 44 44
44 44 44
44 44 44
44 44 44
44 44 44
44 44 44
72 72 72
32 32 32
112 112 112
112 112 112
112 112 112
128 80 44
128 80 44
144 92 52
144 92 52
84 60 28
84 60 28
136 88 48
156 96 56
160 100 60
160 100 60
168 104 64
116 76 40
144 92 52
108 72 36
108 72 36
124 0 0
164 0 0
252 0 0
168 168 168
168 168 168
168 168 168
32 32 32
168 168 168
32 32 32
112 112 112
168 0 0
152 0 0
136 0 0
136 0 0
116 76 40
108 72 36
84 60 28
40 32 12
64 48 24
112 112 112
112 112 112
72 72 72
32 32 32
32 32 32
32 32 32
32 32 32
32 32 32
32 32 32
0 0 0
0 0 0
0 0 0
0 0 0
44 44 44

44 44 44
84 84 84
112 112 112
112 112 112
112 112 112
112 112 112
100 100 100
84 84 84
72 72 72
56 56 56
44 44 44
72 72 72
32 32 32
112 112 112
112 112 112
112 112 112
156 96 56
144 92 52
116 76 40
116 76 40
84 60 28
92 64 32
136 88 48
156 96 56
160 100 60
160 100 60
160 100 60
144 92 52
108 72 36
64 48 24
128 80 44
152 0 0
152 0 0
212 0 0
112 112 112
32 32 32
32 32 32
44 44 44
168 168 168
112 112 112
84 84 84
152 0 0
136 0 0
136 0 0
124 0 0
112 0 0
84 60 28
40 32 12
64 48 24
64 48 24
112 112 112
112 112 112
72 72 72
32 32 32
0 0 0
0 0 0
0 0 0
0 0 0
0 0 0
0 0 0
0 0 0
0 0 0
0 0 0
44 44 44

44 44 44
112 112 112
124 124 124
124 124 124
124 124 124
124 124 124
124 124 124
124 124 124
124 124 124
124 124 124
124 124 124
72 72 72
32 32 32
112 112 112
112 112 112
112 112 112
156 96 56
116 76 40
144 92 52
116 76 40
136 88 48
116 76 40
136 88 48
156 96 56
160 100 60
160 100 60
160 100 60
108 72 36
64 48 24
200 124 76
160 100 60
168 104 64
92 64 32
56 44 20
212 0 0
112 112 112
168 168 168
168 168 168
112 112 112
84 84 84
152 0 0
136 0 0
136 0 0
124 0 0
112 0 0
100 0 0
84 60 28
40 32 12
64 48 24
64 48 24
112 112 112
112 112 112
72 72 72
32 32 32
0 0 0
0 0 0
0 0 0
0 0 0
0 0 0
0 0 0
0 0 0
0 0 0
0 0 0
44 44 44

44 44 44
112 112 112
124 124 124
124 124 124
124 124 124
124 124 124
124 124 124
124 124 124
124 124 124
124 124 124
124 124 124
72 72 72
32 32 32
112 112 112
112 112 112
188 120 72
168 104 64
156 96 56
116 76 40
84 60 28
156 96 56
128 80 44
128 80 44
108 72 36
108 72 36
108 72 36
160 100 60
200 124 76
168 104 64
136 88 48
200 124 76
168 104 64
168 104 64
92 64 32
56 44 20
212 0 0
212 0 0
168 0 0
152 0 0
152 0 0
136 0 0
136 0 0
124 0 0
112 0 0
100 0 0
100 0 0
76 0 0
64 48 24
64 48 24
84 60 28
112 112 112
112 112 112
72 72 72
32 32 32
0 0 0
0 0 0
0 0 0
0 0 0
0 0 0
0 0 0
0 0 0
0 0 0
44 44 44
44 44 44

44 44 44
112 112 112
124 124 124
124 124 124
84 84 84
72 72 72
72 72 72
72 72 72
72 72 72
100 100 100
100 100 100
72 72 72
32 32 32
112 112 112
112 112 112
188 120 72
180 112 68
168 104 64
156 96 56
156 96 56
156 96 56
128 80 44
128 80 44
128 80 44
128 80 44
128 80 44
200 124 76
200 124 76
200 124 76
136 88 48
136 88 48
200 124 76
160 100 60
156 96 56
156 96 56
56 44 20
56 44 20
152 0 0
152 0 0
136 0 0
136 0 0
124 0 0
112 0 0
100 0 0
100 0 0
76 0 0
64 48 24
64 48 24
84 60 28
84 60 28
112 112 112
112 112 112
72 72 72
32 32 32
44 44 44
0 0 0
0 0 0
0 0 0
0 0 0
0 0 0
0 0 0
0 0 0
0 0 0
0 0 0

44 44 44
112 112 112
124 124 124
84 84 84
72 72 72
72 72 72
84 84 84
100 100 100
100 100 100
100 100 100
84 84 84
72 72 72
32 32 32
112 112 112
112 112 112
112 112 112
188 120 72
180 112 68
180 112 68
188 120 72
188 120 72
128 80 44
128 80 44
128 80 44
168 104 64
168 104 64
200 124 76
200 124 76
168 104 64
200 124 76
160 100 60
200 124 76
200 124 76
156 96 56
128 80 44
128 80 44
56 44 20
56 44 20
136 0 0
136 0 0
124 0 0
112 0 0
100 0 0
100 0 0
76 0 0
64 48 24
64 48 24
64 48 24
84 60 28
108 72 36
112 112 112
112 112 112
72 72 72
32 32 32
100 100 100
100 100 100
100 100 100
100 100 100
100 100 100
100 100 100
100 100 100
100 100 100
56 56 56
0 0 0

44 44 44
112 112 112
124 124 124
72 72 72
84 84 84
100 100 100
72 72 72
72 72 72
72 72 72
84 84 84
72 72 72
72 72 72
32 32 32
112 112 112
112 112 112
112 112 112
112 112 112
188 120 72
188 120 72
112 112 112
188 120 72
188 120 72
156 96 56
156 96 56
160 100 60
200 124 76
200 124 76
160 100 60
160 100 60
168 104 64
200 124 76
200 124 76
200 124 76
168 104 64
128 80 44
128 80 44
84 60 28
56 44 20
136 0 0
124 0 0
112 0 0
100 0 0
100 0 0
76 0 0
64 48 24
64 48 24
64 48 24
108 72 36
108 72 36
128 80 44
112 112 112
112 112 112
72 72 72
32 32 32
124 124 124
124 124 124
124 124 124
124 124 124
124 124 124
124 124 124
124 124 124
124 124 124
44 44 44
0 0 0

44 44 44
112 112 112
124 124 124
100 100 100
72 72 72
100 100 100
100 100 100
72 72 72
100 100 100
84 84 84
72 72 72
72 72 72
32 32 32
112 112 112
112 112 112
112 112 112
112 112 112
112 112 112
112 112 112
112 112 112
112 112 112
112 112 112
168 104 64
168 104 64
156 96 56
200 124 76
160 100 60
144 92 52
144 92 52
128 80 44
128 80 44
168 104 64
168 104 64
168 104 64
128 80 44
108 72 36
72 56 24
56 44 20
56 44 20
112 0 0
100 0 0
76 0 0
64 48 24
64 48 24
64 48 24
64 48 24
84 60 28
108 72 36
128 80 44
156 96 56
112 112 112
112 112 112
72 72 72
32 32 32
72 72 72
100 100 100
100 100 100
72 72 72
72 72 72
100 100 100
72 72 72
72 72 72
44 44 44
0 0 0

44 44 44
112 112 112
124 124 124
100 100 100
100 100 100
84 84 84
72 72 72
84 84 84
72 72 72
72 72 72
72 72 72
72 72 72
32 32 32
112 112 112
112 112 112
112 112 112
112 112 112
112 112 112
112 112 112
112 112 112
112 112 112
112 112 112
208 128 80
168 104 64
168 104 64
160 100 60
156 96 56
156 96 56
144 92 52
144 92 52
92 64 32
92 64 32
92 64 32
92 64 32
108 72 36
84 60 28
84 60 28
84 60 28
72 56 24
100 0 0
76 0 0
64 48 24
64 48 24
84 60 28
84 60 28
108 72 36
116 76 40
128 80 44
156 96 56
168 104 64
112 112 112
112 112 112
72 72 72
32 32 32
72 72 72
100 100 100
72 72 72
100 100 100
72 72 72
72 72 72
100 100 100
72 72 72
44 44 44
0 0 0

44 44 44
112 112 112
124 124 124
72 72 72
84 84 84
72 72 72
100 100 100
72 72 72
100 100 100
72 72 72
100 100 100
72 72 72
32 32 32
112 112 112
112 112 112
112 112 112
112 112 112
112 112 112
112 112 112
112 112 112
112 112 112
112 112 112
112 112 112
208 128 80
168 104 64
168 104 64
168 104 64
168 104 64
168 104 64
160 100 60
156 96 56
156 96 56
144 92 52
108 72 36
108 72 36
108 72 36
108 72 36
108 72 36
108 72 36
76 0 0
64 48 24
84 60 28
84 60 28
108 72 36
116 76 40
128 80 44
156 96 56
168 104 64
168 104 64
220 136 84
112 112 112
112 112 112
72 72 72
32 32 32
84 84 84
72 72 72
72 72 72
100 100 100
72 72 72
84 84 84
72 72 72
100 100 100
44 44 44
0 0 0

44 44 44
112 112 112
124 124 124
100 100 100
72 72 72
84 84 84
72 72 72
72 72 72
72 72 72
84 84 84
72 72 72
72 72 72
32 32 32
112 112 112
112 112 112
112 112 112
112 112 112
112 112 112
112 112 112
112 112 112
112 112 112
112 112 112
112 112 112
112 112 112
112 112 112
208 128 80
188 120 72
188 120 72
188 120 72
188 120 72
188 120 72
188 120 72
188 120 72
168 104 64
168 104 64
144 92 52
128 80 44
128 80 44
128 80 44
84 60 28
108 72 36
108 72 36
116 76 40
128 80 44
156 96 56
168 104 64
168 104 64
220 136 84
220 136 84
112 112 112
112 112 112
112 112 112
72 72 72
32 32 32
72 72 72
72 72 72
84 84 84
72 72 72
100 100 100
72 72 72
100 100 100
72 72 72
44 44 44
0 0 0

44 44 44
112 112 112
124 124 124
72 72 72
100 100 100
72 72 72
84 84 84
72 72 72
72 72 72
72 72 72
72 72 72
72 72 72
32 32 32
112 112 112
112 112 112
112 112 112
112 112 112
112 112 112
112 112 112
112 112 112
112 112 112
112 112 112
112 112 112
112 112 112
112 112 112
112 112 112
112 112 112
112 112 112
208 128 80
208 128 80
208 128 80
208 128 80
208 128 80
208 128 80
208 128 80
208 128 80
208 128 80
180 112 68
180 112 68
180 112 68
180 112 68
180 112 68
168 104 64
168 104 64
220 136 84
220 136 84
112 112 112
112 112 112
112 112 112
112 112 112
112 112 112
112 112 112
72 72 72
32 32 32
72 72 72
100 100 100
72 72 72
84 84 84
72 72 72
84 84 84
84 84 84
32 32 32
44 44 44
0 0 0

44 44 44
112 112 112
124 124 124
72 72 72
72 72 72
84 84 84
72 72 72
72 72 72
72 72 72
72 72 72
72 72 72
72 72 72
32 32 32
112 112 112
112 112 112
112 112 112
112 112 112
112 112 112
112 112 112
112 112 112
112 112 112
112 112 112
112 112 112
112 112 112
112 112 112
112 112 112
112 112 112
112 112 112
112 112 112
220 136 84
220 136 84
220 136 84
112 112 112
112 112 112
112 112 112
112 112 112
112 112 112
200 124 76
200 124 76
200 124 76
200 124 76
200 124 76
200 124 76
200 124 76
112 112 112
112 112 112
112 112 112
112 112 112
112 112 112
112 112 112
112 112 112
112 112 112
72 72 72
32 32 32
56 56 56
56 56 56
56 56 56
56 56 56
56 56 56
56 56 56
56 56 56
44 44 44
44 44 44
0 0 0

44 44 44
112 112 112
124 124 124
100 100 100
72 72 72
72 72 72
72 72 72
72 72 72
72 72 72
100 100 100
72 72 72
72 72 72
32 32 32
112 112 112
112 112 112
112 112 112
112 112 112
112 112 112
112 112 112
112 112 112
112 112 112
112 112 112
112 112 112
112 112 112
112 112 112
112 112 112
112 112 112
112 112 112
112 112 112
112 112 112
112 112 112
112 112 112
112 112 112
112 112 112
112 112 112
112 112 112
112 112 112
112 112 112
112 112 112
112 112 112
112 112 112
112 112 112
112 112 112
112 112 112
112 112 112
112 112 112
112 112 112
112 112 112
112 112 112
112 112 112
112 112 112
112 112 112
72 72 72
32 32 32
32 32 32
32 32 32
32 32 32
32 32 32
32 32 32
32 32 32
32 32 32
32 32 32
32 32 32
0 0 0

44 44 44
112 112 112
112 112 112
72 72 72
72 72 72
72 72 72
100 100 100
72 72 72
84 84 84
72 72 72
100 100 100
72 72 72
32 32 32
44 44 44
44 44 44
44 44 44
44 44 44
44 44 44
56 56 56
56 56 56
56 56 56
56 56 56
56 56 56
56 56 56
56 56 56
72 72 72
72 72 72
72 72 72
72 72 72
72 72 72
72 72 72
72 72 72
72 72 72
72 72 72
72 72 72
72 72 72
72 72 72
72 72 72
72 72 72
72 72 72
72 72 72
72 72 72
72 72 72
72 72 72
72 72 72
72 72 72
72 72 72
72 72 72
72 72 72
72 72 72
72 72 72
72 72 72
72 72 72
32 32 32
0 0 0
0 0 0
0 0 0
0 0 0
0 0 0
0 0 0
0 0 0
0 0 0
0 0 0
0 0 0

44 44 44
84 84 84
112 112 112
44 44 44
44 44 44
44 44 44
44 44 44
44 44 44
44 44 44
44 44 44
44 44 44
112 112 112
32 32 32
32 32 32
32 32 32
32 32 32
32 32 32
32 32 32
32 32 32
32 32 32
32 32 32
32 32 32
32 32 32
32 32 32
32 32 32
32 32 32
32 32 32
32 32 32
32 32 32
32 32 32
32 32 32
32 32 32
32 32 32
32 32 32
32 32 32
32 32 32
32 32 32
32 32 32
32 32 32
32 32 32
32 32 32
32 32 32
32 32 32
32 32 32
32 32 32
32 32 32
32 32 32
32 32 32
32 32 32
32 32 32
32 32 32
32 32 32
32 32 32
32 32 32
0 0 0
0 0 0
0 0 0
0 0 0
0 0 0
0 0 0
0 0 0
0 0 0
0 0 0
0 0 0

44 44 44
44 44 44
84 84 84
32 32 32
32 32 32
32 32 32
32 32 32
32 32 32
32 32 32
32 32 32
32 32 32
32 32 32
32 32 32
32 32 32
32 32 32
0 0 0
0 0 0
44 44 44
0 0 0
0 0 0
0 0 0
0 0 0
0 0 0
0 0 0
0 0 0
0 0 0
0 0 0
0 0 0
0 0 0
0 0 0
0 0 0
0 0 0
0 0 0
0 0 0
0 0 0
0 0 0
0 0 0
0 0 0
0 0 0
0 0 0
0 0 0
0 0 0
0 0 0
32 32 32
44 44 44
32 32 32
0 0 0
0 0 0
0 0 0
0 0 0
0 0 0
0 0 0
0 0 0
0 0 0
0 0 0
0 0 0
0 0 0
0 0 0
0 0 0
0 0 0
0 0 0
0 0 0
0 0 0
44 44 44

44 44 44
0 0 0
0 0 0
0 0 0
0 0 0
0 0 0
0 0 0
0 0 0
0 0 0
0 0 0
0 0 0
0 0 0
0 0 0
0 0 0
0 0 0
0 0 0
0 0 0
44 44 44
32 32 32
32 32 32
32 32 32
32 32 32
32 32 32
32 32 32
32 32 32
32 32 32
32 32 32
32 32 32
32 32 32
32 32 32
32 32 32
32 32 32
32 32 32
32 32 32
32 32 32
32 32 32
32 32 32
32 32 32
32 32 32
32 32 32
32 32 32
32 32 32
32 32 32
32 32 32
44 44 44
44 44 44
44 44 44
32 32 32
32 32 32
32 32 32
32 32 32
32 32 32
32 32 32
32 32 32
32 32 32
32 32 32
32 32 32
32 32 32
32 32 32
32 32 32
32 32 32
32 32 32
32 32 32
44 44 44

56 56 56
56 56 56
56 56 56
56 56 56
56 56 56
56 56 56
56 56 56
56 56 56
56 56 56
56 56 56
56 56 56
56 56 56
56 56 56
56 56 56
56 56 56
56 56 56
56 56 56
56 56 56
56 56 56
56 56 56
56 56 56
56 56 56
56 56 56
56 56 56
56 56 56
56 56 56
56 56 56
56 56 56
56 56 56
56 56 56
56 56 56
56 56 56
56 56 56
56 56 56
56 56 56
56 56 56
56 56 56
56 56 56
56 56 56
56 56 56
56 56 56
56 56 56
56 56 56
56 56 56
56 56 56
56 56 56
56 56 56
56 56 56
56 56 56
56 56 56
56 56 56
56 56 56
56 56 56
56 56 56
56 56 56
56 56 56
56 56 56
56 56 56
56 56 56
56 56 56
56 56 56
56 56 56
56 56 56
56 56 56

