P3
# ASCII PPM file
64 64
255

56 56 56
0 0 124
0 0 124
0 0 124
0 0 124
0 0 124
0 0 124
0 0 124
0 0 124
0 0 124
0 0 124
0 0 124
0 0 124
0 0 124
0 0 124
0 0 124
0 0 124
0 0 124
0 0 124
0 0 124
0 0 124
0 0 124
0 0 124
0 0 124
0 0 124
0 0 124
0 0 124
0 0 124
56 56 56
56 56 56
0 0 124
0 0 124
0 0 124
0 0 124
0 0 124
0 0 124
0 0 124
0 0 124
0 0 124
0 0 124
0 0 124
0 0 124
0 0 124
56 56 56
56 56 56
0 0 124
0 0 124
0 0 124
0 0 124
0 0 124
0 0 124
0 0 124
0 0 124
0 0 124
0 0 124
0 0 124
0 0 124
56 56 56
0 0 124
0 0 124
0 0 124
0 0 124
0 0 124
56 56 56

32 32 32
0 0 164
0 0 164
0 0 164
0 0 164
0 0 164
0 0 164
0 0 164
0 0 164
0 0 164
0 0 164
0 0 164
0 0 164
0 0 164
0 0 164
0 0 164
0 0 164
0 0 164
0 0 164
0 0 164
0 0 164
0 0 164
0 0 152
0 0 152
0 0 152
0 0 136
0 0 124
0 0 124
32 32 32
32 32 32
0 0 164
0 0 164
0 0 164
0 0 164
0 0 164
0 0 164
0 0 164
0 0 164
0 0 152
0 0 136
0 0 136
0 0 136
0 0 136
32 32 32
32 32 32
0 0 164
0 0 164
0 0 164
0 0 164
0 0 164
0 0 164
0 0 164
0 0 164
0 0 136
0 0 136
0 0 112
0 0 100
32 32 32
0 0 176
0 0 176
0 0 176
0 0 176
0 0 152
32 32 32

0 0 0
0 0 164
0 0 164
0 0 164
0 0 136
0 0 164
0 0 124
0 0 164
0 0 164
0 0 152
0 0 124
0 0 152
0 0 152
0 0 124
0 0 152
0 0 152
0 0 152
0 0 124
0 0 124
0 0 164
0 0 136
0 0 124
0 0 124
0 0 124
0 0 124
0 0 112
0 0 100
0 0 88
0 0 0
32 32 32
0 0 164
0 0 164
0 0 152
0 0 152
0 0 136
0 0 164
0 0 164
0 0 152
0 0 136
0 0 136
0 0 136
0 0 136
0 0 88
0 0 0
32 32 32
0 0 164
0 0 188
0 0 176
0 0 188
0 0 176
0 0 188
0 0 188
0 0 188
0 0 188
0 0 188
0 0 152
0 0 124
0 0 0
0 0 176
0 0 176
0 0 136
0 0 152
0 0 136
0 0 0

0 0 0
0 0 164
0 0 152
0 0 124
0 0 188
0 0 188
0 0 152
0 0 152
0 0 124
0 0 164
0 0 164
0 0 152
0 0 164
0 0 100
0 0 152
0 0 152
0 0 100
0 0 136
0 0 124
0 0 124
0 0 152
0 0 152
0 0 124
0 0 124
0 0 112
0 0 100
0 0 100
0 0 88
0 0 0
32 32 32
0 0 164
0 0 152
0 0 164
0 0 164
0 0 136
0 0 152
0 0 152
0 0 124
0 0 136
0 0 124
0 0 164
0 0 112
0 0 88
0 0 0
32 32 32
0 0 164
0 0 176
0 0 188
0 0 188
0 0 164
0 0 188
0 0 200
0 0 176
0 0 188
0 0 164
0 0 152
0 0 124
0 0 0
0 0 164
0 0 164
0 0 176
0 0 152
0 0 88
0 0 0

0 0 0
0 0 164
0 0 136
0 0 164
0 0 188
0 0 188
0 0 112
0 0 152
0 0 124
0 0 124
0 0 152
0 0 164
0 0 164
0 0 136
0 0 124
0 0 100
0 0 136
0 0 112
0 0 152
0 0 100
0 0 124
0 0 112
0 0 100
0 0 100
0 0 88
0 0 88
0 0 88
0 0 88
0 0 0
32 32 32
0 0 164
0 0 152
0 0 136
0 0 136
0 0 152
0 0 152
0 0 124
0 0 136
0 0 124
0 0 112
0 0 88
0 0 100
0 0 88
0 0 0
32 32 32
0 0 164
0 0 188
0 0 176
0 0 164
0 0 200
0 0 188
0 0 176
0 0 164
0 0 152
0 0 136
0 0 136
0 0 112
0 0 0
0 0 136
0 0 112
0 0 124
0 0 124
0 0 88
0 0 0

0 0 0
0 0 164
0 0 136
0 0 124
0 0 164
0 0 152
0 0 136
0 0 100
0 0 152
0 0 152
0 0 124
0 0 164
0 0 164
0 0 164
0 0 152
0 0 136
0 0 136
0 0 124
0 0 112
0 0 100
0 0 100
0 0 112
0 0 124
0 0 100
0 0 112
0 0 100
0 0 88
0 0 88
0 0 0
32 32 32
0 0 164
0 0 164
0 0 136
0 0 164
0 0 164
0 0 124
0 0 112
0 0 112
0 0 112
0 0 136
0 0 100
0 0 88
0 0 88
0 0 0
32 32 32
0 0 164
0 0 188
0 0 164
0 0 200
0 0 236
0 0 200
0 0 164
0 0 188
0 0 164
0 0 152
0 0 112
0 0 124
0 0 0
0 0 152
0 0 136
0 0 112
0 0 100
0 0 88
0 0 0

0 0 0
0 0 164
0 0 152
0 0 152
0 0 124
0 0 124
0 0 124
0 0 152
0 0 164
0 0 152
0 0 124
0 0 124
0 0 164
0 0 164
0 0 136
0 0 112
0 0 136
0 0 88
0 0 124
0 0 100
0 0 100
0 0 100
0 0 88
0 0 88
0 0 88
0 0 88
0 0 88
0 0 88
0 0 0
32 32 32
0 0 164
0 0 164
0 0 164
0 0 136
0 0 136
0 0 124
0 0 112
0 0 136
0 0 136
0 0 136
0 0 112
0 0 100
0 0 88
0 0 0
32 32 32
0 0 164
0 0 176
0 0 188
0 0 164
0 0 188
0 0 188
0 0 164
0 0 164
0 0 176
0 0 124
0 0 124
0 0 112
0 0 0
0 0 152
0 0 124
0 0 88
0 0 88
0 0 88
0 0 0

0 0 0
0 0 164
0 0 164
0 0 152
0 0 152
0 0 124
0 0 124
0 0 124
0 0 152
0 0 124
0 0 100
0 0 136
0 0 136
0 0 124
0 0 124
0 0 152
0 0 124
0 0 112
0 0 112
0 0 112
0 0 100
0 0 100
0 0 100
0 0 124
0 0 124
0 0 88
0 0 100
0 0 64
0 0 0
32 32 32
0 0 164
0 0 164
0 0 136
0 0 124
0 0 136
0 0 136
0 0 136
0 0 124
0 0 136
0 0 124
0 0 100
0 0 88
0 0 88
0 0 0
32 32 32
0 0 164
0 0 176
0 0 188
0 0 176
0 0 164
0 0 176
0 0 176
0 0 176
0 0 164
0 0 124
0 0 112
0 0 124
0 0 0
0 0 152
0 0 100
0 0 88
0 0 100
0 0 88
0 0 0

0 0 0
0 0 164
0 0 152
0 0 124
0 0 152
0 0 164
0 0 164
0 0 136
0 0 152
0 0 124
0 0 152
0 0 112
0 0 124
0 0 136
0 0 136
0 0 100
0 0 100
0 0 100
0 0 136
0 0 136
0 0 112
0 0 100
0 0 100
0 0 124
0 0 124
0 0 124
0 0 88
0 0 64
0 0 0
32 32 32
0 0 164
0 0 152
0 0 136
0 0 136
0 0 112
0 0 136
0 0 164
0 0 164
0 0 124
0 0 112
0 0 124
0 0 88
0 0 100
0 0 0
32 32 32
0 0 164
0 0 176
0 0 200
0 0 176
0 0 176
0 0 188
0 0 164
0 0 164
0 0 164
0 0 152
0 0 112
0 0 100
0 0 0
0 0 0
0 0 0
0 0 0
0 0 0
0 0 0
0 0 0

0 0 0
0 0 164
0 0 136
0 0 136
0 0 136
0 0 164
0 0 152
0 0 152
0 0 124
0 0 100
0 0 124
0 0 124
0 0 124
0 0 136
0 0 136
0 0 112
0 0 88
0 0 136
0 0 136
0 0 136
0 0 136
0 0 124
0 0 88
0 0 100
0 0 124
0 0 124
0 0 88
0 0 64
0 0 0
32 32 32
0 0 164
0 0 136
0 0 136
0 0 112
0 0 124
0 0 124
0 0 136
0 0 136
0 0 112
0 0 100
0 0 88
0 0 100
0 0 88
0 0 0
32 32 32
0 0 164
0 0 176
0 0 188
0 0 164
0 0 176
0 0 164
0 0 164
0 0 136
0 0 152
0 0 136
0 0 100
0 0 88
0 0 0
0 0 152
0 0 176
0 0 176
0 0 176
0 0 164
0 0 0

0 0 0
0 0 152
0 0 124
0 0 136
0 0 164
0 0 152
0 0 152
0 0 152
0 0 152
0 0 100
0 0 112
0 0 112
0 0 124
0 0 88
0 0 112
0 0 88
0 0 124
0 0 100
0 0 124
0 0 136
0 0 136
0 0 124
0 0 100
0 0 100
0 0 64
0 0 88
0 0 88
0 0 64
0 0 0
32 32 32
0 0 152
0 0 136
0 0 124
0 0 112
0 0 112
0 0 136
0 0 136
0 0 112
0 0 124
0 0 100
0 0 88
0 0 100
0 0 88
0 0 0
32 32 32
0 0 164
0 0 176
0 0 188
0 0 188
0 0 164
0 0 188
0 0 164
0 0 136
0 0 136
0 0 124
0 0 100
0 0 100
0 0 0
0 0 164
0 0 176
0 0 152
0 0 176
0 0 136
0 0 0

0 0 0
0 0 152
0 0 136
0 0 152
0 0 124
0 0 124
0 0 164
0 0 152
0 0 152
0 0 124
0 0 88
0 0 124
0 0 88
0 0 124
0 0 124
0 0 88
0 0 100
0 0 100
0 0 136
0 0 100
0 0 124
0 0 124
0 0 88
0 0 64
0 0 88
0 0 64
0 0 64
0 0 64
0 0 0
32 32 32
0 0 152
0 0 136
0 0 124
0 0 112
0 0 112
0 0 112
0 0 136
0 0 88
0 0 112
0 0 88
0 0 112
0 0 88
0 0 88
0 0 0
32 32 32
0 0 164
0 0 176
0 0 188
0 0 188
0 0 176
0 0 164
0 0 136
0 0 164
0 0 152
0 0 124
0 0 100
0 0 100
0 0 0
0 0 152
0 0 164
0 0 136
0 0 152
0 0 100
0 0 0

0 0 0
0 0 152
0 0 124
0 0 152
0 0 124
0 0 100
0 0 136
0 0 136
0 0 124
0 0 100
0 0 124
0 0 100
0 0 124
0 0 100
0 0 88
0 0 112
0 0 88
0 0 112
0 0 88
0 0 88
0 0 88
0 0 88
0 0 88
0 0 100
0 0 88
0 0 64
0 0 64
0 0 64
0 0 0
32 32 32
0 0 152
0 0 124
0 0 136
0 0 112
0 0 112
0 0 100
0 0 100
0 0 112
0 0 100
0 0 88
0 0 100
0 0 100
0 0 88
0 0 0
32 32 32
0 0 164
0 0 176
0 0 188
0 0 188
0 0 164
0 0 152
0 0 152
0 0 124
0 0 136
0 0 112
0 0 88
0 0 88
0 0 0
0 0 152
0 0 164
0 0 152
0 0 112
0 0 88
0 0 0

0 0 0
0 0 152
0 0 152
0 0 124
0 0 124
0 0 124
0 0 112
0 0 100
0 0 88
0 0 88
0 0 100
32 32 32
32 32 32
32 32 32
32 32 32
32 32 32
32 32 32
32 32 32
32 32 32
32 32 32
32 32 32
32 32 32
32 32 32
32 32 32
32 32 32
32 32 32
32 32 32
32 32 32
32 32 32
32 32 32
32 32 32
32 32 32
32 32 32
32 32 32
32 32 32
32 32 32
32 32 32
32 32 32
32 32 32
32 32 32
32 32 32
32 32 32
32 32 32
32 32 32
32 32 32
32 32 32
32 32 32
32 32 32
32 32 32
32 32 32
32 32 32
32 32 32
32 32 32
0 0 124
0 0 124
0 0 88
0 0 100
0 0 0
0 0 136
0 0 136
0 0 124
0 0 100
0 0 112
0 0 0

0 0 0
0 0 152
0 0 124
0 0 152
0 0 100
0 0 100
0 0 112
0 0 100
0 0 124
0 0 100
0 0 112
32 32 32
140 140 140
140 140 140
124 124 124
124 124 124
124 124 124
124 124 124
124 124 124
124 124 124
124 124 124
124 124 124
124 124 124
124 124 124
124 124 124
124 124 124
124 124 124
124 124 124
124 124 124
124 124 124
124 124 124
124 124 124
124 124 124
124 124 124
124 124 124
124 124 124
124 124 124
124 124 124
124 124 124
124 124 124
124 124 124
124 124 124
124 124 124
124 124 124
124 124 124
124 124 124
124 124 124
124 124 124
124 124 124
100 100 100
100 100 100
84 84 84
44 44 44
0 0 112
0 0 100
0 0 88
0 0 88
0 0 0
0 0 124
0 0 112
0 0 100
0 0 88
0 0 88
0 0 0

0 0 0
0 0 0
0 0 0
0 0 0
0 0 0
0 0 0
0 0 0
0 0 0
0 0 0
0 0 0
0 0 0
32 32 32
140 140 140
100 100 100
72 72 72
72 72 72
72 72 72
72 72 72
72 72 72
72 72 72
72 72 72
72 72 72
72 72 72
72 72 72
72 72 72
72 72 72
72 72 72
72 72 72
72 72 72
72 72 72
72 72 72
72 72 72
72 72 72
72 72 72
72 72 72
72 72 72
72 72 72
72 72 72
72 72 72
72 72 72
72 72 72
72 72 72
72 72 72
72 72 72
72 72 72
72 72 72
72 72 72
72 72 72
72 72 72
72 72 72
72 72 72
72 72 72
44 44 44
0 0 100
0 0 88
0 0 100
0 0 88
0 0 0
0 0 0
0 0 0
0 0 0
0 0 0
0 0 0
0 0 0

0 0 164
0 0 188
0 0 176
0 0 164
0 0 176
0 0 164
0 0 164
0 0 164
0 0 164
0 0 164
0 0 176
32 32 32
124 124 124
72 72 72
72 72 72
72 72 72
72 72 72
72 72 72
72 72 72
72 72 72
72 72 72
72 72 72
72 72 72
72 72 72
72 72 72
72 72 72
72 72 72
72 72 72
72 72 72
72 72 72
72 72 72
72 72 72
72 72 72
72 72 72
72 72 72
72 72 72
72 72 72
72 72 72
72 72 72
72 72 72
72 72 72
72 72 72
72 72 72
72 72 72
72 72 72
72 72 72
72 72 72
72 72 72
72 72 72
72 72 72
72 72 72
72 72 72
44 44 44
0 0 124
0 0 100
0 0 88
0 0 88
0 0 0
0 0 112
0 0 200
0 0 200
0 0 200
0 0 200
0 0 200

0 0 188
0 0 176
0 0 164
0 0 152
0 0 164
0 0 188
0 0 176
0 0 164
0 0 136
0 0 164
0 0 164
32 32 32
124 124 124
72 72 72
72 72 72
0 0 0
0 0 0
0 0 0
0 0 0
0 0 0
0 0 0
0 0 0
0 0 0
0 0 0
0 0 0
0 0 0
0 0 0
0 0 0
0 0 0
0 0 0
0 0 0
0 0 0
0 0 0
0 0 0
0 0 0
0 0 0
0 0 0
0 0 0
0 0 0
0 0 0
0 0 0
0 0 0
0 0 0
0 0 0
0 0 0
0 0 0
0 0 0
0 0 0
0 0 0
84 84 84
72 72 72
72 72 72
44 44 44
0 0 124
0 0 112
0 0 100
0 0 88
0 0 0
0 0 136
0 0 200
0 0 200
0 0 224
0 0 188
0 0 200

0 0 188
0 0 176
0 0 152
0 0 152
0 0 136
0 0 164
0 0 164
0 0 136
0 0 124
0 0 152
0 0 152
32 32 32
124 124 124
72 72 72
72 72 72
0 0 0
0 0 0
0 0 0
56 56 56
44 44 44
0 0 0
0 0 0
0 0 0
0 0 0
0 0 0
56 56 56
44 44 44
0 0 0
0 0 0
0 0 0
0 0 0
0 0 0
56 56 56
44 44 44
0 0 0
0 0 0
0 0 0
0 0 0
0 0 0
56 56 56
44 44 44
0 0 0
0 0 0
0 0 0
0 0 0
56 56 56
44 44 44
0 0 0
0 0 0
84 84 84
72 72 72
72 72 72
44 44 44
0 0 124
0 0 112
0 0 88
0 0 100
0 0 0
0 0 164
0 0 200
0 0 224
0 0 252
0 0 224
0 0 176

0 0 176
0 0 164
0 0 152
0 0 164
0 0 164
0 0 152
0 0 152
0 0 124
0 0 124
0 0 124
0 0 152
32 32 32
124 124 124
72 72 72
72 72 72
0 0 0
0 0 0
0 0 0
84 84 84
56 56 56
0 0 0
0 0 0
0 0 0
0 0 0
0 0 0
84 84 84
56 56 56
0 0 0
0 0 0
0 0 0
0 0 0
0 0 0
84 84 84
56 56 56
0 0 0
0 0 0
0 0 0
0 0 0
0 0 0
84 84 84
56 56 56
0 0 0
0 0 0
0 0 0
0 0 0
84 84 84
56 56 56
0 0 0
0 0 0
100 100 100
72 72 72
72 72 72
44 44 44
0 0 100
0 0 88
0 0 100
0 0 100
0 0 0
0 0 164
0 0 200
0 0 200
0 0 224
0 0 176
0 0 200

0 0 164
0 0 136
0 0 152
0 0 176
0 0 188
0 0 136
0 0 124
0 0 124
0 0 152
0 0 152
0 0 124
32 32 32
124 124 124
72 72 72
72 72 72
0 0 0
0 0 0
0 0 0
100 100 100
56 56 56
0 0 0
0 0 0
0 0 0
0 0 0
0 0 0
100 100 100
56 56 56
0 0 0
0 0 0
0 0 0
0 0 0
0 0 0
100 100 100
56 56 56
0 0 0
0 0 0
0 0 0
0 0 0
0 0 0
100 100 100
56 56 56
0 0 0
0 0 0
0 0 0
0 0 0
100 100 100
56 56 56
0 0 0
0 0 0
100 100 100
72 72 72
72 72 72
44 44 44
0 0 112
0 0 100
0 0 100
0 0 88
0 0 0
0 0 176
0 0 200
0 0 200
0 0 176
0 0 164
0 0 176

0 0 164
0 0 164
0 0 136
0 0 152
0 0 176
0 0 136
0 0 124
0 0 152
0 0 124
0 0 124
0 0 100
32 32 32
124 124 124
72 72 72
72 72 72
0 0 0
0 0 0
0 0 0
100 100 100
56 56 56
0 0 0
0 0 0
0 0 0
0 0 0
0 0 0
100 100 100
56 56 56
0 0 0
0 0 0
0 0 0
0 0 0
0 0 0
100 100 100
56 56 56
0 0 0
0 0 0
0 0 0
0 0 0
0 0 0
100 100 100
56 56 56
0 0 0
0 0 0
0 0 0
0 0 0
100 100 100
56 56 56
0 0 0
0 0 0
124 124 124
72 72 72
72 72 72
44 44 44
0 0 112
0 0 88
0 0 88
0 0 88
0 0 0
0 0 188
0 0 200
0 0 200
0 0 176
0 0 200
0 0 164

0 0 176
0 0 136
0 0 176
0 0 176
0 0 152
0 0 164
0 0 152
0 0 124
0 0 124
0 0 152
0 0 100
32 32 32
124 124 124
72 72 72
72 72 72
0 0 0
0 0 0
0 0 0
100 100 100
56 56 56
0 0 0
0 0 0
0 0 0
0 0 0
0 0 0
100 100 100
56 56 56
0 0 0
0 0 0
0 0 0
0 0 0
0 0 0
100 100 100
56 56 56
0 0 0
0 0 0
0 0 0
0 0 0
0 0 0
100 100 100
56 56 56
0 0 0
0 0 0
0 0 0
0 0 0
100 100 100
56 56 56
0 0 0
0 0 0
124 124 124
72 72 72
72 72 72
44 44 44
0 0 100
0 0 88
0 0 76
0 0 88
0 0 0
0 0 176
0 0 200
0 0 176
0 0 188
0 0 176
0 0 164

0 0 176
0 0 164
0 0 176
0 0 176
0 0 176
0 0 152
0 0 124
0 0 152
0 0 152
0 0 124
0 0 112
32 32 32
124 124 124
72 72 72
72 72 72
0 0 0
0 0 0
0 0 0
100 100 100
56 56 56
0 0 0
0 0 0
0 0 0
0 0 0
0 0 0
100 100 100
56 56 56
0 0 0
0 0 0
0 0 0
0 0 0
0 0 0
100 100 100
56 56 56
0 0 0
0 0 0
0 0 0
0 0 0
0 0 0
100 100 100
56 56 56
0 0 0
0 0 0
0 0 0
0 0 0
100 100 100
56 56 56
0 0 0
0 0 0
124 124 124
72 72 72
72 72 72
44 44 44
0 0 112
0 0 88
0 0 100
0 0 88
0 0 0
0 0 176
0 0 200
0 0 176
0 0 164
0 0 152
0 0 188

0 0 176
0 0 176
0 0 152
0 0 176
0 0 176
0 0 136
0 0 136
0 0 152
0 0 152
0 0 124
0 0 124
32 32 32
124 124 124
72 72 72
72 72 72
0 0 0
0 0 0
0 0 0
100 100 100
56 56 56
0 0 0
0 0 0
0 0 0
0 0 0
0 0 0
100 100 100
56 56 56
0 0 0
0 0 0
0 0 0
0 0 0
0 0 0
100 100 100
56 56 56
0 0 0
0 0 0
0 0 0
0 0 0
0 0 0
100 100 100
56 56 56
0 0 0
0 0 0
0 0 0
0 0 0
100 100 100
56 56 56
0 0 0
0 0 0
124 124 124
72 72 72
72 72 72
72 72 72
0 0 88
0 0 100
0 0 88
0 0 88
0 0 0
0 0 164
0 0 200
0 0 200
0 0 176
0 0 200
0 0 200

0 0 176
0 0 164
0 0 136
0 0 124
0 0 136
0 0 136
0 0 136
0 0 136
0 0 124
0 0 152
0 0 112
32 32 32
124 124 124
72 72 72
72 72 72
0 0 0
0 0 0
0 0 0
100 100 100
56 56 56
0 0 0
0 0 0
0 0 0
0 0 0
0 0 0
100 100 100
56 56 56
0 0 0
0 0 0
0 0 0
0 0 0
0 0 0
100 100 100
56 56 56
0 0 0
0 0 0
0 0 0
0 0 0
0 0 0
100 100 100
56 56 56
0 0 0
0 0 0
0 0 0
0 0 0
100 100 100
56 56 56
0 0 0
0 0 0
124 124 124
72 72 72
72 72 72
100 100 100
0 0 100
0 0 100
0 0 100
0 0 88
0 0 0
0 0 164
0 0 200
0 0 176
0 0 200
0 0 188
0 0 176

0 0 164
0 0 152
0 0 124
0 0 136
0 0 164
0 0 136
0 0 152
0 0 152
0 0 136
0 0 124
0 0 100
32 32 32
124 124 124
72 72 72
72 72 72
0 0 0
0 0 0
0 0 0
100 100 100
56 56 56
0 0 0
0 0 0
0 0 0
0 0 0
0 0 0
100 100 100
56 56 56
0 0 0
0 0 0
0 0 0
0 0 0
0 0 0
100 100 100
56 56 56
0 0 0
0 0 0
0 0 0
0 0 0
0 0 0
100 100 100
56 56 56
0 0 0
0 0 0
0 0 0
0 0 0
100 100 100
56 56 56
0 0 0
0 0 0
124 124 124
72 72 72
72 72 72
56 56 56
0 0 100
0 0 88
0 0 100
0 0 100
0 0 0
0 0 164
0 0 200
0 0 200
0 0 200
0 0 176
0 0 164

0 0 176
0 0 152
0 0 176
0 0 152
0 0 152
0 0 124
0 0 152
0 0 152
0 0 152
0 0 124
0 0 100
32 32 32
124 124 124
72 72 72
72 72 72
0 0 0
0 0 0
0 0 0
100 100 100
56 56 56
0 0 0
0 0 0
0 0 0
0 0 0
0 0 0
100 100 100
56 56 56
0 0 0
0 0 0
0 0 0
0 0 0
0 0 0
100 100 100
56 56 56
0 0 0
0 0 0
0 0 0
0 0 0
0 0 0
100 100 100
56 56 56
0 0 0
0 0 0
0 0 0
0 0 0
100 100 100
56 56 56
0 0 0
0 0 0
124 124 124
72 72 72
72 72 72
100 100 100
0 0 100
0 0 100
0 0 112
0 0 88
0 0 0
0 0 136
0 0 200
0 0 200
0 0 200
0 0 176
0 0 176

0 0 164
0 0 136
0 0 136
0 0 124
0 0 124
0 0 152
0 0 124
0 0 152
0 0 152
0 0 112
0 0 88
32 32 32
124 124 124
72 72 72
72 72 72
0 0 0
0 0 0
0 0 0
100 100 100
56 56 56
0 0 0
0 0 0
0 0 0
0 0 0
0 0 0
100 100 100
56 56 56
0 0 0
0 0 0
0 0 0
0 0 0
0 0 0
100 100 100
56 56 56
0 0 0
0 0 0
0 0 0
0 0 0
0 0 0
100 100 100
56 56 56
0 0 0
0 0 0
0 0 0
0 0 0
100 100 100
56 56 56
0 0 0
0 0 0
124 124 124
72 72 72
72 72 72
100 100 100
0 0 88
0 0 88
0 0 88
0 0 100
0 0 0
0 0 136
0 0 200
0 0 176
0 0 200
0 0 200
0 0 164

0 0 164
0 0 152
0 0 136
0 0 124
0 0 152
0 0 124
0 0 112
0 0 112
0 0 112
0 0 100
0 0 88
32 32 32
124 124 124
72 72 72
72 72 72
0 0 0
0 0 0
0 0 0
100 100 100
56 56 56
0 0 0
0 0 0
0 0 0
0 0 0
0 0 0
100 100 100
56 56 56
0 0 0
0 0 0
0 0 0
0 0 0
0 0 0
100 100 100
56 56 56
0 0 0
0 0 0
0 0 0
0 0 0
0 0 0
100 100 100
56 56 56
0 0 0
0 0 0
0 0 0
0 0 0
100 100 100
56 56 56
0 0 0
0 0 0
124 124 124
72 72 72
72 72 72
72 72 72
0 0 88
0 0 88
0 0 64
0 0 64
0 0 0
0 0 136
0 0 200
0 0 200
0 0 188
0 0 176
0 0 176

0 0 152
0 0 136
0 0 152
0 0 152
0 0 136
0 0 112
0 0 152
0 0 136
0 0 112
0 0 88
0 0 88
32 32 32
124 124 124
72 72 72
72 72 72
0 0 0
0 0 0
0 0 0
100 100 100
56 56 56
0 0 0
0 0 0
0 0 0
0 0 0
0 0 0
100 100 100
56 56 56
0 0 0
0 0 0
0 0 0
0 0 0
0 0 0
100 100 100
56 56 56
0 0 0
0 0 0
0 0 0
0 0 0
0 0 0
100 100 100
56 56 56
0 0 0
0 0 0
0 0 0
0 0 0
100 100 100
56 56 56
0 0 0
0 0 0
124 124 124
72 72 72
72 72 72
44 44 44
0 0 88
0 0 112
0 0 64
0 0 64
0 0 0
0 0 136
0 0 200
0 0 200
0 0 176
0 0 152
0 0 164

0 0 152
0 0 136
0 0 136
0 0 124
0 0 136
0 0 136
0 0 152
0 0 152
0 0 136
0 0 112
0 0 88
32 32 32
124 124 124
72 72 72
72 72 72
0 0 0
0 0 0
0 0 0
100 100 100
56 56 56
0 0 0
0 0 0
0 0 0
0 0 0
0 0 0
100 100 100
56 56 56
0 0 0
0 0 0
0 0 0
0 0 0
0 0 0
100 100 100
56 56 56
0 0 0
0 0 0
0 0 0
0 0 0
0 0 0
100 100 100
56 56 56
0 0 0
0 0 0
0 0 0
0 0 0
100 100 100
56 56 56
0 0 0
0 0 0
124 124 124
72 72 72
72 72 72
44 44 44
0 0 124
0 0 124
0 0 88
0 0 64
0 0 0
0 0 136
0 0 200
0 0 176
0 0 200
0 0 176
0 0 152

0 0 152
0 0 136
0 0 164
0 0 152
0 0 112
0 0 124
0 0 124
0 0 152
0 0 152
0 0 112
0 0 88
32 32 32
124 124 124
72 72 72
72 72 72
84 84 84
100 100 100
124 124 124
100 100 100
72 72 72
84 84 84
84 84 84
0 0 0
0 0 0
0 0 0
100 100 100
56 56 56
0 0 0
0 0 0
0 0 0
0 0 0
0 0 0
100 100 100
56 56 56
0 0 0
0 0 0
0 0 0
0 0 0
0 0 0
100 100 100
56 56 56
0 0 0
0 0 0
0 0 0
0 0 0
100 100 100
56 56 56
0 0 0
0 0 0
124 124 124
72 72 72
72 72 72
44 44 44
0 0 100
0 0 124
0 0 100
0 0 88
0 0 0
0 0 136
0 0 200
0 0 176
0 0 200
0 0 136
0 0 136

0 0 152
0 0 164
0 0 152
0 0 136
0 0 136
0 0 124
0 0 112
0 0 112
0 0 112
0 0 112
0 0 100
32 32 32
124 124 124
72 72 72
72 72 72
72 72 72
72 72 72
72 72 72
72 72 72
72 72 72
72 72 72
72 72 72
0 0 0
0 0 0
0 0 0
100 100 100
56 56 56
0 0 0
0 0 0
0 0 0
0 0 0
0 0 0
100 100 100
56 56 56
0 0 0
0 0 0
0 0 0
0 0 0
0 0 0
100 100 100
56 56 56
0 0 0
0 0 0
0 0 0
0 0 0
100 100 100
56 56 56
0 0 0
0 0 0
124 124 124
72 72 72
72 72 72
44 44 44
0 0 136
0 0 100
0 0 88
0 0 88
0 0 0
0 0 136
0 0 200
0 0 200
0 0 136
0 0 152
0 0 136

0 0 124
0 0 152
0 0 152
0 0 136
0 0 124
0 0 124
0 0 124
0 0 112
0 0 88
0 0 88
0 0 88
32 32 32
124 124 124
72 72 72
72 72 72
72 72 72
72 72 72
72 72 72
72 72 72
72 72 72
72 72 72
72 72 72
0 0 0
0 0 0
0 0 0
100 100 100
56 56 56
0 0 0
0 0 0
0 0 0
0 0 0
0 0 0
100 100 100
56 56 56
0 0 0
0 0 0
0 0 0
0 0 0
0 0 0
100 100 100
56 56 56
0 0 0
0 0 0
0 0 0
0 0 0
100 100 100
56 56 56
0 0 0
0 0 0
124 124 124
72 72 72
72 72 72
44 44 44
0 0 136
0 0 124
0 0 112
0 0 88
0 0 0
0 0 112
0 0 200
0 0 176
0 0 200
0 0 152
0 0 152

0 0 124
0 0 136
0 0 136
0 0 124
0 0 112
0 0 100
0 0 100
0 0 100
0 0 88
0 0 88
0 0 88
32 32 32
124 124 124
72 72 72
72 72 72
72 72 72
72 72 72
72 72 72
72 72 72
72 72 72
72 72 72
72 72 72
0 0 0
0 0 0
0 0 0
100 100 100
56 56 56
0 0 0
0 0 0
0 0 0
0 0 0
0 0 0
100 100 100
56 56 56
0 0 0
0 0 0
0 0 0
0 0 0
0 0 0
100 100 100
56 56 56
0 0 0
0 0 0
0 0 0
0 0 0
100 100 100
56 56 56
0 0 0
0 0 0
124 124 124
72 72 72
72 72 72
44 44 44
0 0 124
0 0 112
0 0 76
0 0 76
0 0 0
0 0 112
0 0 200
0 0 176
0 0 152
0 0 152
0 0 136

0 0 124
0 0 136
0 0 100
0 0 112
0 0 124
0 0 100
0 0 88
0 0 112
0 0 88
0 0 88
0 0 88
32 32 32
124 124 124
72 72 72
72 72 72
72 72 72
72 72 72
72 72 72
0 0 0
72 72 72
72 72 72
72 72 72
0 0 0
0 0 0
0 0 0
100 100 100
56 56 56
0 0 0
0 0 0
0 0 0
0 0 0
0 0 0
100 100 100
56 56 56
0 0 0
0 0 0
0 0 0
0 0 0
0 0 0
100 100 100
56 56 56
0 0 0
0 0 0
0 0 0
0 0 0
100 100 100
56 56 56
0 0 0
0 0 0
124 124 124
72 72 72
72 72 72
44 44 44
0 0 100
0 0 100
0 0 100
0 0 88
0 0 0
0 0 112
0 0 176
0 0 176
0 0 152
0 0 136
0 0 136

0 0 124
0 0 152
0 0 124
0 0 100
0 0 124
0 0 100
0 0 112
0 0 88
0 0 88
0 0 88
0 0 88
32 32 32
124 124 124
72 72 72
72 72 72
0 0 0
72 72 72
0 0 0
44 44 44
44 44 44
72 72 72
72 72 72
0 0 0
0 0 0
0 0 0
100 100 100
56 56 56
0 0 0
0 0 0
0 0 0
0 0 0
0 0 0
100 100 100
56 56 56
0 0 0
0 0 0
0 0 0
0 0 0
0 0 0
100 100 100
56 56 56
0 0 0
0 0 0
0 0 0
0 0 0
100 100 100
56 56 56
0 0 0
0 0 0
124 124 124
72 72 72
72 72 72
44 44 44
0 0 112
0 0 64
0 0 64
0 0 88
0 0 0
0 0 112
0 0 176
0 0 152
0 0 136
0 0 152
0 0 136

0 0 124
0 0 136
0 0 152
0 0 136
0 0 112
0 0 124
0 0 112
0 0 88
0 0 88
0 0 88
0 0 100
32 32 32
124 124 124
72 72 72
72 72 72
44 44 44
72 72 72
0 0 0
44 44 44
44 44 44
72 72 72
72 72 72
0 0 0
0 0 0
0 0 0
100 100 100
56 56 56
0 0 0
0 0 0
0 0 0
0 0 0
0 0 0
100 100 100
56 56 56
0 0 0
0 0 0
0 0 0
0 0 0
0 0 0
100 100 100
56 56 56
0 0 0
0 0 0
0 0 0
0 0 0
100 100 100
56 56 56
0 0 0
0 0 0
124 124 124
72 72 72
72 72 72
44 44 44
0 0 88
0 0 64
0 0 64
0 0 64
0 0 0
0 0 112
0 0 176
0 0 152
0 0 152
0 0 152
0 0 136

0 0 124
0 0 152
0 0 136
0 0 124
0 0 100
0 0 112
0 0 124
0 0 112
0 0 88
0 0 88
0 0 100
32 32 32
124 124 124
72 72 72
72 72 72
72 72 72
72 72 72
0 0 0
72 72 72
44 44 44
72 72 72
72 72 72
0 0 0
0 0 0
0 0 0
100 100 100
56 56 56
0 0 0
0 0 0
0 0 0
0 0 0
0 0 0
100 100 100
56 56 56
0 0 0
0 0 0
0 0 0
0 0 0
0 0 0
100 100 100
56 56 56
0 0 0
0 0 0
0 0 0
0 0 0
100 100 100
56 56 56
0 0 0
0 0 0
124 124 124
72 72 72
72 72 72
44 44 44
0 0 100
0 0 88
0 0 64
0 0 64
0 0 0
0 0 112
0 0 152
0 0 152
0 0 152
0 0 124
0 0 152

0 0 0
0 0 0
0 0 0
0 0 0
0 0 0
0 0 0
0 0 0
0 0 0
0 0 0
0 0 0
0 0 0
32 32 32
124 124 124
72 72 72
72 72 72
72 72 72
72 72 72
44 44 44
100 100 100
44 44 44
72 72 72
72 72 72
0 0 0
0 0 0
0 0 0
100 100 100
56 56 56
0 0 0
0 0 0
0 0 0
0 0 0
0 0 0
100 100 100
56 56 56
0 0 0
0 0 0
0 0 0
0 0 0
0 0 0
100 100 100
56 56 56
0 0 0
0 0 0
0 0 0
0 0 0
100 100 100
56 56 56
0 0 0
0 0 0
124 124 124
72 72 72
72 72 72
44 44 44
0 0 100
0 0 76
0 0 88
0 0 88
0 0 0
0 0 0
0 0 0
0 0 0
0 0 0
0 0 0
0 0 0

32 32 32
32 32 32
32 32 32
32 32 32
32 32 32
32 32 32
0 0 88
0 0 88
0 0 112
0 0 112
0 0 136
32 32 32
124 124 124
72 72 72
72 72 72
72 72 72
72 72 72
72 72 72
44 44 44
72 72 72
72 72 72
72 72 72
0 0 0
0 0 0
0 0 0
100 100 100
56 56 56
0 0 0
0 0 0
0 0 0
0 0 0
0 0 0
100 100 100
56 56 56
0 0 0
0 0 0
0 0 0
0 0 0
0 0 0
100 100 100
56 56 56
0 0 0
0 0 0
0 0 0
0 0 0
100 100 100
56 56 56
0 0 0
0 0 0
124 124 124
72 72 72
72 72 72
44 44 44
0 0 88
0 0 88
0 0 88
0 0 88
0 0 0
32 32 32
0 0 112
0 0 112
0 0 112
0 0 112
0 0 0

32 32 32
32 32 32
0 0 152
0 0 164
0 0 176
0 0 188
0 0 188
0 0 188
0 0 188
0 0 188
0 0 188
32 32 32
124 124 124
72 72 72
72 72 72
72 72 72
72 72 72
72 72 72
72 72 72
72 72 72
72 72 72
72 72 72
0 0 0
0 0 0
0 0 0
100 100 100
56 56 56
0 0 0
0 0 0
0 0 0
0 0 0
0 0 0
100 100 100
56 56 56
0 0 0
0 0 0
0 0 0
0 0 0
0 0 0
100 100 100
56 56 56
0 0 0
0 0 0
0 0 0
0 0 0
100 100 100
56 56 56
0 0 0
0 0 0
124 124 124
72 72 72
72 72 72
44 44 44
0 0 100
0 0 88
0 0 112
0 0 88
0 0 0
32 32 32
0 0 112
0 0 88
0 0 124
0 0 88
0 0 0

32 32 32
32 32 32
0 0 164
0 0 188
0 0 188
0 0 188
0 0 188
0 0 188
0 0 176
0 0 164
0 0 176
32 32 32
124 124 124
72 72 72
72 72 72
72 72 72
72 72 72
72 72 72
72 72 72
72 72 72
72 72 72
72 72 72
0 0 0
0 0 0
0 0 0
100 100 100
56 56 56
0 0 0
0 0 0
0 0 0
0 0 0
0 0 0
100 100 100
56 56 56
0 0 0
0 0 0
0 0 0
0 0 0
0 0 0
100 100 100
56 56 56
0 0 0
0 0 0
0 0 0
0 0 0
100 100 100
56 56 56
0 0 0
0 0 0
124 124 124
72 72 72
72 72 72
44 44 44
0 0 0
0 0 0
0 0 0
0 0 0
0 0 0
32 32 32
0 0 88
0 0 88
0 0 88
0 0 112
0 0 0

32 32 32
32 32 32
0 0 164
0 0 188
0 0 176
0 0 176
0 0 164
0 0 176
0 0 176
0 0 188
0 0 188
32 32 32
124 124 124
72 72 72
72 72 72
72 72 72
72 72 72
72 72 72
72 72 72
72 72 72
72 72 72
72 72 72
0 0 0
0 0 0
0 0 0
100 100 100
56 56 56
0 0 0
0 0 0
0 0 0
0 0 0
0 0 0
100 100 100
56 56 56
0 0 0
0 0 0
0 0 0
0 0 0
0 0 0
100 100 100
56 56 56
0 0 0
0 0 0
0 0 0
0 0 0
100 100 100
56 56 56
0 0 0
0 0 0
124 124 124
72 72 72
72 72 72
44 44 44
32 32 32
32 32 32
32 32 32
32 32 32
32 32 32
32 32 32
0 0 0
0 0 0
0 0 0
0 0 0
0 0 0

32 32 32
32 32 32
0 0 188
0 0 188
0 0 188
0 0 176
0 0 176
0 0 188
0 0 188
0 0 176
0 0 176
32 32 32
124 124 124
72 72 72
72 72 72
0 0 0
0 0 0
0 0 0
0 0 0
0 0 0
0 0 0
0 0 0
0 0 0
0 0 0
0 0 0
100 100 100
56 56 56
0 0 0
0 0 0
0 0 0
0 0 0
0 0 0
100 100 100
56 56 56
0 0 0
0 0 0
0 0 0
0 0 0
0 0 0
100 100 100
56 56 56
0 0 0
0 0 0
0 0 0
0 0 0
100 100 100
56 56 56
0 0 0
0 0 0
124 124 124
72 72 72
72 72 72
44 44 44
0 0 188
0 0 188
0 0 188
0 0 188
0 0 188
0 0 188
0 0 176
0 0 176
0 0 176
0 0 164
0 0 0

32 32 32
32 32 32
0 0 188
0 0 164
0 0 176
0 0 164
0 0 176
0 0 176
0 0 176
0 0 176
0 0 176
32 32 32
124 124 124
72 72 72
72 72 72
0 0 0
0 0 0
0 0 0
72 72 72
56 56 56
0 0 0
0 0 0
0 0 0
0 0 0
0 0 0
100 100 100
56 56 56
0 0 0
0 0 0
0 0 0
0 0 0
0 0 0
100 100 100
56 56 56
0 0 0
0 0 0
0 0 0
0 0 0
0 0 0
100 100 100
56 56 56
0 0 0
0 0 0
0 0 0
0 0 0
100 100 100
56 56 56
0 0 0
0 0 0
124 124 124
72 72 72
72 72 72
44 44 44
0 0 164
0 0 176
0 0 176
0 0 176
0 0 164
0 0 164
0 0 176
0 0 188
0 0 164
0 0 136
0 0 0

32 32 32
32 32 32
0 0 188
0 0 188
0 0 176
0 0 152
0 0 136
0 0 176
0 0 176
0 0 152
0 0 188
32 32 32
124 124 124
72 72 72
72 72 72
0 0 0
0 0 0
0 0 0
84 84 84
56 56 56
0 0 0
0 0 0
0 0 0
0 0 0
0 0 0
100 100 100
56 56 56
0 0 0
0 0 0
0 0 0
0 0 0
0 0 0
100 100 100
56 56 56
0 0 0
0 0 0
0 0 0
0 0 0
0 0 0
100 100 100
56 56 56
0 0 0
0 0 0
0 0 0
0 0 0
100 100 100
56 56 56
0 0 0
0 0 0
124 124 124
72 72 72
72 72 72
44 44 44
0 0 164
0 0 164
0 0 176
0 0 164
0 0 152
0 0 188
0 0 188
0 0 152
0 0 152
0 0 136
0 0 0

32 32 32
32 32 32
0 0 188
0 0 188
0 0 152
0 0 164
0 0 188
0 0 176
0 0 136
0 0 164
0 0 176
32 32 32
124 124 124
72 72 72
72 72 72
0 0 0
0 0 0
0 0 0
100 100 100
56 56 56
0 0 0
0 0 0
0 0 0
0 0 0
0 0 0
100 100 100
56 56 56
0 0 0
0 0 0
0 0 0
0 0 0
0 0 0
100 100 100
56 56 56
0 0 0
0 0 0
0 0 0
0 0 0
0 0 0
100 100 100
56 56 56
0 0 0
0 0 0
0 0 0
0 0 0
100 100 100
56 56 56
0 0 0
0 0 0
124 124 124
72 72 72
72 72 72
44 44 44
0 0 152
0 0 164
0 0 176
0 0 152
0 0 136
0 0 124
0 0 152
0 0 112
0 0 136
0 0 124
0 0 0

32 32 32
32 32 32
0 0 188
0 0 188
0 0 188
0 0 188
0 0 164
0 0 136
0 0 188
0 0 136
0 0 176
32 32 32
124 124 124
72 72 72
72 72 72
0 0 0
0 0 0
0 0 0
100 100 100
56 56 56
0 0 0
0 0 0
0 0 0
0 0 0
0 0 0
100 100 100
56 56 56
0 0 0
0 0 0
0 0 0
0 0 0
0 0 0
100 100 100
56 56 56
0 0 0
0 0 0
0 0 0
0 0 0
0 0 0
100 100 100
56 56 56
0 0 0
0 0 0
0 0 0
0 0 0
100 100 100
56 56 56
0 0 0
0 0 0
124 124 124
72 72 72
72 72 72
84 84 84
0 0 164
0 0 176
0 0 164
0 0 152
0 0 152
0 0 164
0 0 124
0 0 124
0 0 124
0 0 112
0 0 0

32 32 32
32 32 32
0 0 188
0 0 164
0 0 188
0 0 152
0 0 164
0 0 164
0 0 188
0 0 176
0 0 152
32 32 32
124 124 124
72 72 72
72 72 72
0 0 0
0 0 0
0 0 0
100 100 100
56 56 56
0 0 0
0 0 0
0 0 0
0 0 0
0 0 0
100 100 100
56 56 56
0 0 0
0 0 0
0 0 0
0 0 0
0 0 0
100 100 100
56 56 56
0 0 0
0 0 0
0 0 0
0 0 0
0 0 0
100 100 100
56 56 56
0 0 0
0 0 0
0 0 0
0 0 0
100 100 100
56 56 56
0 0 0
0 0 0
124 124 124
72 72 72
72 72 72
100 100 100
0 0 164
0 0 152
0 0 152
0 0 136
0 0 164
0 0 136
0 0 136
0 0 152
0 0 100
0 0 88
0 0 0

32 32 32
32 32 32
0 0 188
0 0 176
0 0 152
0 0 152
0 0 188
0 0 224
0 0 188
0 0 164
0 0 136
32 32 32
124 124 124
72 72 72
72 72 72
0 0 0
0 0 0
0 0 0
100 100 100
56 56 56
0 0 0
0 0 0
0 0 0
0 0 0
0 0 0
100 100 100
56 56 56
0 0 0
0 0 0
0 0 0
0 0 0
0 0 0
100 100 100
56 56 56
0 0 0
0 0 0
0 0 0
0 0 0
0 0 0
100 100 100
56 56 56
0 0 0
0 0 0
0 0 0
0 0 0
100 100 100
56 56 56
0 0 0
0 0 0
124 124 124
72 72 72
72 72 72
56 56 56
0 0 176
0 0 164
0 0 152
0 0 176
0 0 124
0 0 112
0 0 152
0 0 152
0 0 100
0 0 88
0 0 0

32 32 32
32 32 32
0 0 188
0 0 164
0 0 188
0 0 164
0 0 224
64 64 252
0 0 224
0 0 152
0 0 152
32 32 32
124 124 124
72 72 72
72 72 72
0 0 0
0 0 0
0 0 0
100 100 100
56 56 56
0 0 0
0 0 0
0 0 0
0 0 0
0 0 0
100 100 100
56 56 56
0 0 0
0 0 0
0 0 0
0 0 0
0 0 0
100 100 100
56 56 56
0 0 0
0 0 0
0 0 0
0 0 0
0 0 0
100 100 100
56 56 56
0 0 0
0 0 0
0 0 0
0 0 0
100 100 100
56 56 56
0 0 0
0 0 0
124 124 124
72 72 72
72 72 72
100 100 100
0 0 152
0 0 124
0 0 152
0 0 124
0 0 136
0 0 152
0 0 152
0 0 124
0 0 100
0 0 88
0 0 0

32 32 32
32 32 32
0 0 188
0 0 176
0 0 188
0 0 164
0 0 188
0 0 224
0 0 188
0 0 164
0 0 124
32 32 32
124 124 124
72 72 72
72 72 72
0 0 0
0 0 0
0 0 0
100 100 100
56 56 56
0 0 0
0 0 0
0 0 0
0 0 0
0 0 0
100 100 100
56 56 56
0 0 0
0 0 0
0 0 0
0 0 0
0 0 0
100 100 100
56 56 56
0 0 0
0 0 0
0 0 0
0 0 0
0 0 0
100 100 100
56 56 56
0 0 0
0 0 0
0 0 0
0 0 0
100 100 100
56 56 56
0 0 0
0 0 0
124 124 124
72 72 72
72 72 72
100 100 100
0 0 136
0 0 164
0 0 136
0 0 124
0 0 136
0 0 164
0 0 136
0 0 112
0 0 100
0 0 88
0 0 0

32 32 32
32 32 32
0 0 188
0 0 164
0 0 188
0 0 164
0 0 176
0 0 176
0 0 136
0 0 136
0 0 136
32 32 32
124 124 124
72 72 72
72 72 72
0 0 0
0 0 0
0 0 0
100 100 100
56 56 56
0 0 0
0 0 0
0 0 0
0 0 0
0 0 0
100 100 100
56 56 56
0 0 0
0 0 0
0 0 0
0 0 0
0 0 0
100 100 100
56 56 56
0 0 0
0 0 0
0 0 0
0 0 0
0 0 0
100 100 100
56 56 56
0 0 0
0 0 0
0 0 0
0 0 0
100 100 100
56 56 56
0 0 0
0 0 0
124 124 124
72 72 72
72 72 72
72 72 72
0 0 124
0 0 136
0 0 152
0 0 152
0 0 152
0 0 136
0 0 112
0 0 100
0 0 88
0 0 88
0 0 0

32 32 32
32 32 32
0 0 164
0 0 188
0 0 164
0 0 152
0 0 164
0 0 124
0 0 124
0 0 164
0 0 136
32 32 32
124 124 124
72 72 72
72 72 72
0 0 0
0 0 0
0 0 0
100 100 100
56 56 56
0 0 0
0 0 0
0 0 0
0 0 0
0 0 0
100 100 100
56 56 56
0 0 0
0 0 0
0 0 0
0 0 0
0 0 0
100 100 100
56 56 56
0 0 0
0 0 0
0 0 0
0 0 0
0 0 0
100 100 100
56 56 56
0 0 0
0 0 0
0 0 0
0 0 0
100 100 100
56 56 56
0 0 0
0 0 0
124 124 124
72 72 72
72 72 72
44 44 44
0 0 112
0 0 124
0 0 136
0 0 152
0 0 124
0 0 100
0 0 88
0 0 100
0 0 112
0 0 88
0 0 0

32 32 32
32 32 32
0 0 188
0 0 164
0 0 188
0 0 176
0 0 136
0 0 136
0 0 176
0 0 124
0 0 124
32 32 32
124 124 124
72 72 72
72 72 72
0 0 0
0 0 0
0 0 0
100 100 100
56 56 56
0 0 0
0 0 0
0 0 0
0 0 0
0 0 0
100 100 100
56 56 56
0 0 0
0 0 0
0 0 0
0 0 0
0 0 0
100 100 100
56 56 56
0 0 0
0 0 0
0 0 0
0 0 0
0 0 0
100 100 100
56 56 56
0 0 0
0 0 0
0 0 0
0 0 0
100 100 100
56 56 56
0 0 0
0 0 0
124 124 124
72 72 72
72 72 72
44 44 44
0 0 100
0 0 112
0 0 124
0 0 112
0 0 88
0 0 64
0 0 64
0 0 112
0 0 100
0 0 88
0 0 0

32 32 32
32 32 32
0 0 188
0 0 164
0 0 188
0 0 164
0 0 152
0 0 136
0 0 124
0 0 100
0 0 136
32 32 32
124 124 124
72 72 72
72 72 72
0 0 0
0 0 0
0 0 0
100 100 100
56 56 56
0 0 0
0 0 0
0 0 0
0 0 0
0 0 0
100 100 100
56 56 56
0 0 0
0 0 0
0 0 0
0 0 0
0 0 0
100 100 100
56 56 56
0 0 0
0 0 0
0 0 0
0 0 0
0 0 0
100 100 100
56 56 56
0 0 0
0 0 0
0 0 0
0 0 0
100 100 100
56 56 56
0 0 0
0 0 0
124 124 124
72 72 72
72 72 72
44 44 44
0 0 124
0 0 112
0 0 100
0 0 112
0 0 88
0 0 64
0 0 64
0 0 100
0 0 100
0 0 88
0 0 0

32 32 32
32 32 32
0 0 176
0 0 164
0 0 136
0 0 136
0 0 136
0 0 164
0 0 100
0 0 76
0 0 76
32 32 32
124 124 124
72 72 72
72 72 72
0 0 0
0 0 0
0 0 0
100 100 100
56 56 56
0 0 0
0 0 0
0 0 0
0 0 0
0 0 0
100 100 100
56 56 56
0 0 0
0 0 0
0 0 0
0 0 0
0 0 0
100 100 100
56 56 56
0 0 0
0 0 0
0 0 0
0 0 0
0 0 0
100 100 100
56 56 56
0 0 0
0 0 0
0 0 0
0 0 0
100 100 100
56 56 56
0 0 0
0 0 0
124 124 124
72 72 72
72 72 72
44 44 44
0 0 124
0 0 100
0 0 112
0 0 88
0 0 112
0 0 88
0 0 88
0 0 88
0 0 88
0 0 88
0 0 0

32 32 32
32 32 32
0 0 176
0 0 164
0 0 112
0 0 100
0 0 136
0 0 100
0 0 164
0 0 76
0 0 76
32 32 32
124 124 124
72 72 72
72 72 72
0 0 0
0 0 0
0 0 0
100 100 100
56 56 56
0 0 0
0 0 0
0 0 0
0 0 0
0 0 0
100 100 100
56 56 56
0 0 0
0 0 0
0 0 0
0 0 0
0 0 0
100 100 100
56 56 56
0 0 0
0 0 0
0 0 0
0 0 0
0 0 0
100 100 100
56 56 56
0 0 0
0 0 0
0 0 0
0 0 0
100 100 100
56 56 56
0 0 0
0 0 0
124 124 124
72 72 72
72 72 72
44 44 44
0 0 124
0 0 88
0 0 100
0 0 88
0 0 88
0 0 88
0 0 88
0 0 100
0 0 100
0 0 88
0 0 0

32 32 32
32 32 32
0 0 164
0 0 164
0 0 136
0 0 136
0 0 100
0 0 136
0 0 88
0 0 100
0 0 88
32 32 32
124 124 124
72 72 72
72 72 72
0 0 0
0 0 0
0 0 0
100 100 100
56 56 56
0 0 0
0 0 0
0 0 0
0 0 0
0 0 0
100 100 100
56 56 56
0 0 0
0 0 0
0 0 0
0 0 0
0 0 0
100 100 100
56 56 56
0 0 0
0 0 0
0 0 0
0 0 0
0 0 0
100 100 100
56 56 56
0 0 0
0 0 0
0 0 0
0 0 0
100 100 100
56 56 56
0 0 0
0 0 0
140 140 140
84 84 84
72 72 72
44 44 44
0 0 112
0 0 100
0 0 88
0 0 100
0 0 88
0 0 100
0 0 100
0 0 100
0 0 100
0 0 100
0 0 0

32 32 32
32 32 32
0 0 164
0 0 152
0 0 100
0 0 100
0 0 100
0 0 100
0 0 100
0 0 100
0 0 100
32 32 32
100 100 100
72 72 72
72 72 72
100 100 100
100 100 100
124 124 124
124 124 124
124 124 124
124 124 124
124 124 124
124 124 124
124 124 124
124 124 124
124 124 124
124 124 124
124 124 124
124 124 124
124 124 124
124 124 124
124 124 124
124 124 124
124 124 124
124 124 124
124 124 124
124 124 124
124 124 124
124 124 124
124 124 124
124 124 124
124 124 124
124 124 124
124 124 124
124 124 124
124 124 124
124 124 124
124 124 124
140 140 140
140 140 140
84 84 84
72 72 72
44 44 44
0 0 124
0 0 124
0 0 100
0 0 100
0 0 100
0 0 100
0 0 100
0 0 100
0 0 100
0 0 100
32 32 32

56 56 56
56 56 56
0 0 124
0 0 124
0 0 124
0 0 124
0 0 124
0 0 124
0 0 124
0 0 124
0 0 124
32 32 32
84 84 84
72 72 72
72 72 72
72 72 72
72 72 72
72 72 72
72 72 72
72 72 72
72 72 72
72 72 72
72 72 72
72 72 72
72 72 72
72 72 72
72 72 72
72 72 72
72 72 72
72 72 72
72 72 72
72 72 72
72 72 72
72 72 72
72 72 72
72 72 72
72 72 72
72 72 72
72 72 72
72 72 72
72 72 72
72 72 72
72 72 72
72 72 72
72 72 72
72 72 72
72 72 72
72 72 72
72 72 72
84 84 84
84 84 84
72 72 72
44 44 44
0 0 124
0 0 124
0 0 124
0 0 124
0 0 124
0 0 124
0 0 124
0 0 124
0 0 124
0 0 124
56 56 56

84 84 84
84 84 84
84 84 84
84 84 84
84 84 84
84 84 84
84 84 84
84 84 84
84 84 84
84 84 84
84 84 84
56 56 56
44 44 44
44 44 44
44 44 44
44 44 44
44 44 44
44 44 44
44 44 44
44 44 44
44 44 44
44 44 44
44 44 44
44 44 44
44 44 44
44 44 44
44 44 44
44 44 44
44 44 44
44 44 44
44 44 44
44 44 44
44 44 44
44 44 44
44 44 44
44 44 44
44 44 44
44 44 44
44 44 44
44 44 44
44 44 44
44 44 44
44 44 44
44 44 44
44 44 44
44 44 44
44 44 44
44 44 44
44 44 44
44 44 44
44 44 44
44 44 44
44 44 44
72 72 72
84 84 84
84 84 84
84 84 84
84 84 84
84 84 84
84 84 84
84 84 84
84 84 84
84 84 84
84 84 84

