P3
# ASCII PPM file
64 64
255

56 56 56
0 0 112
0 0 112
0 0 112
0 0 112
0 0 112
0 0 112
0 0 112
0 0 112
0 0 112
0 0 112
0 0 112
0 0 112
0 0 112
0 0 112
0 0 112
0 0 112
0 0 112
0 0 112
0 0 112
0 0 112
0 0 112
0 0 112
0 0 112
0 0 112
0 0 112
0 0 112
0 0 112
56 56 56
56 56 56
0 0 112
0 0 112
0 0 112
0 0 112
0 0 112
0 0 112
0 0 112
0 0 112
0 0 112
0 0 112
0 0 112
0 0 112
0 0 112
56 56 56
56 56 56
0 0 112
0 0 112
0 0 112
0 0 112
0 0 112
0 0 112
0 0 112
0 0 112
0 0 112
0 0 112
0 0 112
0 0 112
56 56 56
0 0 112
0 0 112
0 0 112
0 0 112
0 0 112
56 56 56

32 32 32
0 0 152
0 0 152
0 0 152
0 0 152
0 0 152
0 0 152
0 0 152
0 0 152
0 0 152
0 0 152
0 0 152
0 0 152
0 0 152
0 0 152
0 0 152
0 0 152
0 0 152
0 0 152
0 0 152
0 0 152
0 0 152
0 0 136
0 0 136
0 0 136
0 0 124
0 0 112
0 0 112
0 0 0
32 32 32
0 0 152
0 0 152
0 0 152
0 0 152
0 0 152
0 0 152
0 0 152
0 0 152
0 0 136
0 0 124
0 0 124
0 0 124
0 0 124
0 0 0
32 32 32
0 0 152
0 0 152
0 0 152
0 0 152
0 0 152
0 0 152
0 0 152
0 0 152
0 0 124
0 0 124
0 0 100
0 0 88
0 0 0
0 0 164
0 0 164
0 0 164
0 0 164
0 0 136
0 0 0

32 32 32
0 0 152
0 0 152
0 0 152
0 0 124
0 0 152
0 0 112
0 0 152
0 0 152
0 0 136
0 0 112
0 0 136
0 0 136
0 0 112
0 0 136
0 0 136
0 0 136
0 0 112
0 0 112
0 0 152
0 0 124
0 0 112
0 0 112
0 0 112
0 0 112
0 0 100
0 0 88
0 0 76
0 0 0
32 32 32
0 0 152
0 0 152
0 0 136
0 0 136
0 0 124
0 0 152
0 0 152
0 0 136
0 0 124
0 0 124
0 0 124
0 0 124
0 0 76
0 0 0
32 32 32
0 0 152
0 0 176
0 0 164
0 0 176
0 0 164
0 0 176
0 0 176
0 0 176
0 0 176
0 0 176
0 0 136
0 0 112
0 0 0
0 0 164
0 0 164
0 0 124
0 0 136
0 0 124
0 0 0

32 32 32
0 0 152
0 0 136
0 0 112
0 0 124
0 0 136
0 0 136
0 0 136
0 0 112
0 0 112
0 0 152
0 0 136
0 0 152
0 0 88
0 0 136
0 0 136
0 0 88
0 0 124
0 0 112
0 0 112
0 0 136
0 0 136
0 0 112
0 0 112
0 0 100
0 0 88
0 0 88
0 0 76
0 0 0
32 32 32
0 0 152
0 0 136
0 0 152
0 0 152
0 0 124
0 0 136
0 0 136
0 0 112
0 0 124
0 0 112
0 0 152
0 0 100
0 0 76
0 0 0
32 32 32
0 0 152
0 0 164
0 0 176
0 0 176
0 0 152
0 0 176
0 0 188
0 0 164
0 0 176
0 0 152
0 0 136
0 0 112
0 0 0
0 0 152
0 0 152
0 0 164
0 0 136
0 0 76
0 0 0

32 32 32
0 0 152
0 0 124
0 0 152
0 0 100
0 0 136
0 0 100
0 0 136
0 0 112
0 0 112
0 0 112
0 0 136
0 0 124
0 0 124
0 0 112
0 0 88
0 0 124
0 0 100
0 0 136
0 0 88
0 0 112
0 0 100
0 0 88
0 0 88
0 0 76
0 0 76
0 0 76
0 0 88
0 0 0
32 32 32
0 0 152
0 0 136
0 0 124
0 0 124
0 0 136
0 0 136
0 0 112
0 0 124
0 0 112
0 0 100
0 0 76
0 0 88
0 0 76
0 0 0
32 32 32
0 0 152
0 0 176
0 0 164
0 0 152
0 0 188
0 0 176
0 0 164
0 0 152
0 0 136
0 0 124
0 0 124
0 0 100
0 0 0
0 0 124
0 0 100
0 0 112
0 0 112
0 0 76
0 0 0

32 32 32
0 0 152
0 0 124
0 0 112
0 0 152
0 0 152
0 0 152
0 0 88
0 0 112
0 0 112
0 0 112
0 0 152
0 0 136
0 0 136
0 0 136
0 0 124
0 0 124
0 0 112
0 0 100
0 0 88
0 0 112
0 0 112
0 0 112
0 0 100
0 0 100
0 0 88
0 0 76
0 0 88
0 0 0
32 32 32
0 0 152
0 0 152
0 0 124
0 0 152
0 0 152
0 0 112
0 0 100
0 0 100
0 0 100
0 0 124
0 0 88
0 0 76
0 0 76
0 0 0
32 32 32
0 0 152
0 0 176
0 0 152
0 0 188
32 36 252
0 0 188
0 0 152
0 0 176
0 0 152
0 0 136
0 0 100
0 0 112
0 0 0
0 0 136
0 0 124
0 0 100
0 0 88
0 0 76
0 0 0

32 32 32
0 0 152
0 0 136
0 0 136
0 0 164
0 0 164
0 0 152
0 0 152
0 0 152
0 0 136
0 0 152
0 0 152
0 0 152
0 0 136
0 0 136
0 0 100
0 0 124
0 0 76
0 0 112
0 0 88
0 0 112
0 0 112
0 0 112
0 0 112
0 0 100
0 0 76
0 0 76
0 0 76
0 0 0
32 32 32
0 0 152
0 0 152
0 0 152
0 0 124
0 0 124
0 0 112
0 0 100
0 0 124
0 0 124
0 0 124
0 0 100
0 0 88
0 0 76
0 0 0
32 32 32
0 0 152
0 0 164
0 0 176
0 0 152
0 0 176
0 0 176
0 0 152
0 0 152
0 0 164
0 0 112
0 0 112
0 0 100
0 0 0
0 0 136
0 0 112
0 0 76
0 0 76
0 0 76
0 0 0

32 32 32
0 0 152
0 0 152
0 0 136
0 0 152
0 0 164
0 0 164
0 0 152
0 0 136
0 0 112
0 0 88
0 0 152
0 0 152
0 0 136
0 0 124
0 0 124
0 0 112
0 0 100
0 0 100
0 0 100
0 0 88
0 0 112
0 0 112
0 0 100
0 0 88
0 0 76
0 0 88
0 0 88
0 0 0
32 32 32
0 0 152
0 0 152
0 0 124
0 0 112
0 0 124
0 0 124
0 0 124
0 0 112
0 0 124
0 0 112
0 0 88
0 0 76
0 0 76
0 0 0
32 32 32
0 0 152
0 0 164
0 0 176
0 0 164
0 0 152
0 0 164
0 0 164
0 0 164
0 0 152
0 0 112
0 0 100
0 0 112
0 0 0
0 0 136
0 0 88
0 0 76
0 0 88
0 0 76
0 0 0

32 32 32
0 0 152
0 0 136
0 0 112
0 0 136
0 0 152
0 0 152
0 0 124
0 0 136
0 0 112
0 0 136
0 0 100
0 0 100
0 0 124
0 0 124
0 0 124
0 0 88
0 0 88
0 0 112
0 0 124
0 0 76
0 0 100
0 0 100
0 0 100
0 0 88
0 0 88
0 0 76
0 0 76
0 0 0
32 32 32
0 0 152
0 0 136
0 0 124
0 0 124
0 0 100
0 0 124
0 0 152
0 0 152
0 0 112
0 0 100
0 0 112
0 0 76
0 0 88
0 0 0
32 32 32
0 0 152
0 0 164
0 0 188
0 0 164
0 0 164
0 0 124
0 0 124
0 0 152
0 0 152
0 0 136
0 0 100
0 0 88
0 0 0
0 0 0
0 0 0
0 0 0
0 0 0
0 0 0
0 0 0

32 32 32
0 0 152
0 0 124
0 0 124
0 0 124
0 0 152
0 0 112
0 0 112
0 0 112
0 0 152
0 0 152
0 0 100
0 0 76
0 0 88
0 0 76
0 0 100
0 0 76
0 0 124
0 0 100
0 0 112
0 0 100
0 0 88
0 0 100
0 0 100
0 0 88
0 0 76
0 0 76
0 0 76
0 0 0
32 32 32
0 0 152
0 0 124
0 0 124
0 0 100
0 0 112
0 0 112
0 0 124
0 0 124
0 0 100
0 0 88
0 0 76
0 0 88
0 0 76
0 0 0
32 32 32
0 0 152
0 0 164
0 0 176
0 0 152
0 0 164
0 0 124
0 0 124
0 0 124
0 0 136
0 0 124
0 0 88
0 0 76
0 0 0
0 0 136
0 0 164
0 0 164
0 0 164
0 0 152
0 0 0

32 32 32
0 0 136
0 0 112
0 0 124
0 0 152
0 0 124
0 0 124
0 0 100
0 0 136
0 0 152
0 0 152
0 0 100
0 0 100
0 0 76
0 0 76
0 0 76
0 0 100
0 0 88
0 0 112
0 0 100
0 0 88
0 0 100
0 0 112
0 0 112
0 0 100
0 0 76
0 0 88
0 0 76
0 0 0
32 32 32
0 0 136
0 0 124
0 0 112
0 0 100
0 0 100
0 0 124
0 0 124
0 0 100
0 0 112
0 0 88
0 0 76
0 0 88
0 0 76
0 0 0
32 32 32
0 0 152
0 0 164
0 0 176
0 0 176
0 0 152
0 0 124
0 0 124
0 0 124
0 0 124
0 0 112
0 0 88
0 0 88
0 0 0
0 0 152
0 0 164
0 0 136
0 0 164
0 0 124
0 0 0

32 32 32
0 0 136
0 0 124
0 0 136
0 0 112
0 0 112
0 0 152
0 0 124
0 0 88
0 0 112
0 0 76
0 0 112
0 0 76
0 0 76
0 0 76
0 0 76
0 0 88
0 0 88
0 0 124
0 0 64
0 0 64
0 0 76
0 0 112
0 0 112
0 0 112
0 0 76
0 0 76
0 0 76
0 0 0
32 32 32
0 0 136
0 0 124
0 0 112
0 0 100
0 0 100
0 0 100
0 0 124
0 0 76
0 0 100
0 0 76
0 0 100
0 0 76
0 0 76
0 0 0
32 32 32
0 0 152
0 0 164
0 0 176
0 0 176
0 0 164
0 0 152
0 0 124
0 0 124
0 0 136
0 0 112
0 0 88
0 0 88
0 0 0
0 0 136
0 0 152
0 0 124
0 0 136
0 0 88
0 0 0

32 32 32
0 0 136
0 0 112
0 0 136
0 0 112
0 0 88
0 0 124
0 0 124
0 0 112
0 0 88
0 0 112
0 0 88
0 0 112
0 0 88
0 0 76
0 0 100
0 0 76
0 0 100
0 0 76
0 0 64
0 0 64
0 0 64
0 0 76
0 0 100
0 0 100
0 0 76
0 0 88
0 0 76
0 0 0
32 32 32
0 0 136
0 0 112
0 0 124
0 0 100
0 0 100
0 0 88
0 0 88
0 0 100
0 0 88
0 0 76
0 0 88
0 0 88
0 0 76
0 0 0
32 32 32
0 0 152
0 0 164
0 0 176
0 0 176
0 0 152
0 0 136
0 0 136
0 0 112
0 0 124
0 0 100
0 0 76
0 0 76
0 0 0
0 0 136
0 0 152
0 0 136
0 0 100
0 0 76
0 0 0

32 32 32
0 0 136
0 0 136
0 0 112
0 0 112
0 0 112
0 0 100
0 0 88
0 0 76
0 0 76
0 0 88
0 0 112
0 0 88
0 0 100
0 0 88
0 0 88
0 0 76
0 0 76
0 0 76
0 0 76
0 0 64
0 0 64
0 0 76
0 0 76
0 0 76
0 0 76
0 0 76
0 0 76
0 0 0
32 32 32
0 0 124
0 0 124
0 0 100
0 0 100
0 0 88
0 0 76
0 0 76
0 0 76
0 0 76
0 0 88
0 0 76
0 0 88
0 0 76
0 0 0
32 32 32
0 0 152
0 0 164
0 0 152
0 0 176
0 0 124
0 0 136
0 0 124
0 0 136
0 0 112
0 0 112
0 0 76
0 0 88
0 0 0
0 0 124
0 0 124
0 0 112
0 0 88
0 0 100
0 0 0

32 32 32
0 0 136
0 0 112
0 0 136
0 0 88
0 0 88
0 0 100
0 0 88
0 0 112
0 0 88
0 0 100
0 0 76
0 0 76
0 0 88
0 0 76
0 0 88
0 0 88
0 0 88
0 0 88
0 0 76
0 0 76
0 0 76
0 0 76
0 0 76
0 0 76
0 0 76
0 0 76
0 0 76
0 0 0
32 32 32
0 0 124
0 0 88
0 0 124
0 0 88
0 0 88
0 0 76
0 0 76
0 0 76
0 0 76
0 0 76
0 0 76
0 0 76
0 0 76
0 0 0
32 32 32
0 0 136
0 0 176
0 0 164
0 0 176
0 0 176
0 0 124
0 0 152
0 0 124
0 0 100
0 0 88
0 0 76
0 0 76
0 0 0
0 0 112
0 0 100
0 0 88
0 0 76
0 0 76
0 0 0

32 32 32
0 0 0
0 0 0
0 0 0
0 0 0
0 0 0
0 0 0
0 0 0
0 0 0
0 0 0
0 0 0
0 0 0
0 0 0
0 0 0
0 0 0
0 0 0
0 0 0
0 0 0
0 0 0
0 0 0
0 0 0
0 0 0
0 0 0
0 0 0
0 0 0
0 0 0
0 0 0
0 0 0
0 0 0
32 32 32
0 0 0
0 0 0
0 0 0
0 0 0
0 0 0
0 0 0
0 0 0
0 0 0
0 0 0
0 0 0
0 0 0
0 0 0
0 0 0
0 0 0
32 32 32
0 0 136
0 0 176
0 0 164
0 0 152
0 0 136
0 0 136
0 0 124
0 0 124
0 0 88
0 0 76
0 0 88
0 0 76
0 0 0
0 0 0
0 0 0
0 0 0
0 0 0
0 0 0
0 0 0

0 0 152
0 0 176
0 0 164
0 0 152
0 0 164
0 0 152
0 0 152
0 0 152
0 0 152
0 0 152
0 0 164
0 0 152
0 0 152
0 0 152
0 0 152
32 32 32
32 32 32
32 32 32
32 32 32
32 32 32
32 32 32
32 32 32
32 32 32
32 32 32
32 32 32
32 32 32
32 32 32
32 32 32
32 32 32
32 32 32
32 32 32
32 32 32
32 32 32
32 32 32
32 32 32
32 32 32
32 32 32
32 32 32
32 32 32
32 32 32
32 32 32
32 32 32
32 32 32
32 32 32
32 32 32
0 0 136
0 0 164
0 0 176
0 0 136
0 0 176
0 0 112
0 0 136
0 0 112
0 0 112
0 0 88
0 0 76
0 0 76
0 0 0
0 0 100
0 0 188
0 0 188
0 0 188
0 0 188
0 0 188

0 0 176
0 0 164
0 0 152
0 0 136
0 0 152
0 0 176
0 0 164
0 0 152
0 0 124
0 0 152
0 0 152
0 0 112
0 0 152
0 0 136
0 0 112
0 0 0
32 32 32
32 32 32
0 0 88
0 0 112
0 0 136
0 0 112
0 0 136
0 0 136
0 0 152
0 0 152
0 0 112
0 0 112
0 0 76
0 0 76
0 0 64
0 0 64
32 32 32
32 32 32
32 32 32
0 0 76
0 0 100
0 0 136
0 0 136
0 0 152
0 0 124
0 0 112
0 0 100
0 0 100
32 32 32
0 0 136
0 0 176
0 0 164
0 0 176
0 0 136
0 0 136
0 0 188
0 0 136
0 0 112
0 0 100
0 0 88
0 0 76
0 0 0
0 0 124
0 0 188
0 0 188
0 0 212
0 0 176
0 0 188

0 0 176
0 0 164
0 0 136
0 0 136
0 0 124
0 0 152
0 0 152
0 0 124
0 0 112
0 0 136
0 0 136
0 0 112
0 0 112
0 0 136
0 0 136
0 0 0
32 32 32
0 0 88
0 0 112
0 0 136
0 0 136
0 0 136
0 0 136
0 0 152
0 0 164
0 0 152
0 0 152
0 0 124
0 0 88
0 0 100
0 0 100
0 0 88
0 0 76
32 32 32
32 32 32
0 0 100
0 0 136
0 0 152
0 0 112
0 0 124
0 0 112
0 0 124
0 0 112
0 0 88
0 0 0
0 0 136
0 0 136
0 0 152
0 0 164
0 0 176
0 0 136
0 0 136
0 0 112
0 0 112
0 0 100
0 0 76
0 0 88
0 0 0
0 0 152
0 0 188
0 0 212
0 0 252
0 0 212
0 0 164

0 0 164
0 0 152
0 0 136
0 0 164
0 0 164
0 0 136
0 0 136
0 0 112
0 0 112
0 0 112
0 0 136
0 0 112
0 0 112
0 0 112
0 0 112
0 0 0
32 32 32
0 0 136
0 0 136
0 0 136
0 0 164
0 0 152
0 0 164
0 0 164
0 0 112
0 0 124
0 0 136
0 0 88
0 0 100
0 0 88
0 0 76
0 0 88
0 0 100
32 32 32
32 32 32
0 0 112
0 0 152
0 0 112
0 0 100
0 0 88
0 0 112
0 0 88
0 0 76
0 0 112
0 0 0
0 0 124
0 0 164
0 0 164
0 0 176
0 0 164
0 0 136
0 0 124
0 0 112
0 0 88
0 0 76
0 0 88
0 0 88
0 0 0
0 0 152
0 0 188
0 0 188
0 0 212
0 0 164
0 0 188

0 0 152
0 0 124
0 0 136
0 0 164
0 0 176
0 0 164
0 0 112
0 0 112
0 0 136
0 0 136
0 0 112
0 0 136
0 0 76
0 0 112
0 0 112
0 0 0
0 0 64
0 0 164
0 0 136
0 0 164
0 0 124
0 0 164
0 0 152
0 0 112
0 0 76
0 0 100
0 0 112
0 0 100
0 0 76
0 0 76
0 0 88
0 0 100
0 0 112
0 0 0
32 32 32
0 0 124
0 0 124
0 0 152
0 0 112
0 0 100
0 0 100
0 0 76
0 0 100
0 0 88
0 0 0
0 0 124
0 0 176
0 0 164
0 0 164
0 0 100
0 0 100
0 0 124
0 0 112
0 0 100
0 0 88
0 0 88
0 0 76
0 0 0
0 0 164
0 0 188
0 0 188
0 0 164
0 0 152
0 0 164

0 0 152
0 0 152
0 0 124
0 0 136
0 0 164
0 0 164
0 0 112
0 0 136
0 0 112
0 0 112
0 0 88
0 0 88
0 0 100
0 0 112
0 0 112
0 0 0
0 0 64
0 0 152
0 0 152
0 0 164
0 0 164
0 0 152
0 0 164
0 0 136
0 0 100
0 0 112
0 0 100
0 0 76
0 0 88
0 0 88
0 0 88
0 0 76
0 0 100
0 0 0
32 32 32
0 0 100
0 0 152
0 0 124
0 0 124
0 0 88
0 0 76
0 0 112
0 0 76
0 0 76
0 0 0
0 0 112
0 0 152
0 0 152
0 0 152
0 0 100
0 0 100
0 0 100
0 0 112
0 0 100
0 0 76
0 0 76
0 0 76
0 0 0
0 0 176
0 0 188
0 0 188
0 0 164
0 0 188
0 0 152

0 0 164
0 0 124
0 0 112
0 0 124
0 0 136
0 0 152
0 0 136
0 0 112
0 0 112
0 0 136
0 0 88
0 0 100
0 0 112
0 0 76
0 0 76
0 0 0
0 0 76
0 0 152
0 0 164
0 0 164
0 0 152
0 0 188
0 0 136
0 0 124
0 0 112
0 0 100
0 0 88
0 0 88
0 0 88
0 0 76
0 0 100
0 0 100
0 0 76
0 0 0
32 32 32
0 0 100
0 0 100
0 0 88
0 0 76
0 0 76
0 0 88
0 0 76
0 0 88
0 0 88
0 0 0
0 0 112
0 0 136
0 0 152
0 0 152
0 0 124
0 0 100
0 0 100
0 0 100
0 0 88
0 0 76
0 0 76
0 0 76
0 0 0
0 0 164
0 0 188
0 0 164
0 0 176
0 0 164
0 0 152

0 0 164
0 0 152
0 0 124
0 0 136
0 0 112
0 0 136
0 0 112
0 0 136
0 0 136
0 0 112
0 0 100
0 0 112
0 0 88
0 0 112
0 0 76
0 0 0
0 0 100
0 0 136
0 0 152
0 0 152
0 0 124
0 0 112
0 0 124
0 0 124
0 0 100
0 0 100
0 0 112
0 0 100
0 0 88
0 0 100
0 0 76
0 0 76
0 0 100
0 0 0
32 32 32
32 32 32
0 0 0
0 0 0
0 0 0
0 0 0
0 0 0
0 0 0
0 0 0
0 0 0
0 0 0
0 0 112
0 0 136
0 0 136
0 0 176
0 0 112
0 0 112
0 0 100
0 0 100
0 0 100
0 0 76
0 0 88
0 0 76
0 0 0
0 0 164
0 0 188
0 0 164
0 0 152
0 0 136
0 0 176

0 0 164
0 0 164
0 0 136
0 0 124
0 0 164
0 0 136
0 0 136
0 0 136
0 0 136
0 0 112
0 0 112
0 0 100
0 0 76
0 0 76
0 0 76
0 0 0
0 0 100
0 0 136
0 0 152
0 0 124
0 0 112
0 0 136
0 0 124
0 0 100
0 0 76
0 0 100
0 0 100
0 0 136
0 0 100
0 0 112
0 0 100
0 0 112
0 0 100
0 0 0
0 0 152
0 0 152
0 0 176
0 0 176
0 0 152
0 0 152
0 0 136
0 0 136
0 0 124
0 0 0
32 32 32
0 0 136
0 0 136
0 0 152
0 0 136
0 0 136
0 0 112
0 0 100
0 0 100
0 0 76
0 0 88
0 0 76
0 0 76
0 0 0
0 0 152
0 0 188
0 0 188
0 0 164
0 0 188
0 0 188

0 0 164
0 0 152
0 0 124
0 0 112
0 0 124
0 0 164
0 0 164
0 0 88
0 0 112
0 0 136
0 0 124
0 0 124
0 0 100
0 0 76
0 0 88
0 0 0
0 0 100
0 0 136
0 0 124
0 0 112
0 0 164
0 0 152
0 0 136
0 0 112
0 0 100
0 0 112
0 0 124
0 0 188
0 0 164
0 0 124
0 0 100
0 0 88
0 0 100
0 0 0
0 0 152
0 0 176
0 0 176
0 0 152
0 0 136
0 0 124
0 0 100
0 0 124
0 0 112
0 0 0
32 32 32
0 0 136
0 0 176
0 0 164
0 0 152
0 0 136
0 0 112
0 0 112
0 0 100
0 0 88
0 0 88
0 0 88
0 0 76
0 0 0
0 0 152
0 0 188
0 0 164
0 0 188
0 0 176
0 0 164

0 0 152
0 0 136
0 0 112
0 0 124
0 0 152
0 0 164
0 0 164
0 0 152
0 0 136
0 0 112
0 0 124
0 0 124
0 0 100
0 0 76
0 0 88
0 0 0
0 0 76
0 0 124
0 0 124
0 0 112
0 0 136
0 0 164
0 0 136
0 0 136
0 0 124
0 0 124
0 0 136
0 0 164
0 0 124
0 0 112
0 0 112
0 0 100
0 0 112
0 0 0
0 0 152
0 0 136
0 0 152
0 0 152
0 0 124
0 0 100
0 0 152
0 0 100
0 0 88
0 0 0
32 32 32
0 0 152
0 0 176
0 0 164
0 0 176
0 0 152
0 0 136
0 0 124
0 0 100
0 0 88
0 0 76
0 0 88
0 0 88
0 0 0
0 0 152
0 0 188
0 0 188
0 0 188
0 0 164
0 0 152

0 0 164
0 0 136
0 0 164
0 0 136
0 0 136
0 0 152
0 0 164
0 0 152
0 0 88
0 0 112
0 0 100
0 0 100
0 0 100
0 0 76
0 0 76
0 0 0
0 0 64
0 0 112
0 0 112
0 0 124
0 0 164
64 64 252
0 0 164
0 0 124
0 0 152
0 0 136
0 0 112
0 0 136
0 0 124
0 0 100
0 0 124
0 0 88
0 0 112
0 0 0
0 0 152
0 0 152
0 0 136
0 0 112
0 0 124
0 0 152
0 0 124
0 0 100
0 0 100
0 0 0
32 32 32
0 0 152
0 0 164
0 0 152
0 0 176
0 0 152
0 0 136
0 0 112
0 0 100
0 0 88
0 0 88
0 0 100
0 0 76
0 0 0
0 0 124
0 0 188
0 0 188
0 0 188
0 0 164
0 0 164

0 0 152
0 0 124
0 0 124
0 0 152
0 0 152
0 0 136
0 0 152
0 0 152
0 0 88
0 0 100
0 0 76
0 0 88
0 0 76
0 0 76
0 0 76
0 0 0
0 0 64
0 0 112
0 0 112
0 0 124
0 0 136
0 0 164
0 0 152
0 0 152
0 0 136
0 0 152
0 0 152
0 0 124
0 0 136
0 0 112
0 0 76
0 0 112
0 0 76
0 0 0
0 0 152
0 0 152
0 0 152
0 0 136
0 0 152
0 0 100
0 0 100
0 0 124
0 0 100
0 0 0
32 32 32
0 0 152
0 0 152
0 0 136
0 0 152
0 0 124
0 0 136
0 0 124
0 0 112
0 0 76
0 0 76
0 0 76
0 0 88
0 0 0
0 0 124
0 0 188
0 0 164
0 0 188
0 0 188
0 0 152

0 0 152
0 0 136
0 0 124
0 0 152
0 0 152
0 0 152
0 0 136
0 0 112
0 0 100
0 0 88
0 0 76
0 0 88
0 0 64
0 0 64
0 0 76
0 0 0
0 0 0
0 0 112
0 0 124
0 0 136
0 0 152
0 0 124
0 0 152
0 0 124
0 0 152
0 0 164
0 0 100
0 0 164
0 0 100
0 0 76
0 0 88
0 0 100
0 0 76
0 0 0
0 0 152
0 0 188
0 0 164
0 0 152
0 0 124
0 0 100
0 0 88
0 0 88
0 0 88
0 0 0
32 32 32
0 0 152
0 0 136
0 0 152
0 0 124
0 0 112
0 0 112
0 0 112
0 0 112
0 0 76
0 0 76
0 0 76
0 0 76
0 0 0
0 0 124
0 0 188
0 0 188
0 0 176
0 0 164
0 0 164

0 0 136
0 0 124
0 0 136
0 0 124
0 0 152
0 0 152
0 0 112
0 0 88
0 0 88
0 0 76
0 0 76
0 0 76
0 0 64
0 0 64
0 0 88
0 0 0
0 0 0
0 0 88
0 0 112
0 0 112
0 0 136
0 0 112
0 0 136
0 0 152
0 0 136
0 0 152
0 0 164
0 0 100
0 0 76
0 0 88
0 0 112
0 0 76
0 0 76
0 0 0
0 0 152
0 0 136
0 0 164
0 0 152
0 0 124
0 0 100
0 0 100
0 0 100
0 0 88
0 0 0
32 32 32
0 0 152
0 0 136
0 0 176
0 0 152
0 0 136
0 0 124
0 0 100
0 0 100
0 0 76
0 0 100
0 0 76
0 0 76
0 0 0
0 0 124
0 0 188
0 0 188
0 0 164
0 0 136
0 0 152

0 0 136
0 0 124
0 0 124
0 0 112
0 0 124
0 0 124
0 0 112
0 0 88
0 0 88
0 0 100
0 0 112
0 0 112
0 0 88
0 0 76
0 0 88
0 0 0
32 32 32
0 0 76
0 0 88
0 0 112
0 0 112
0 0 112
0 0 112
0 0 136
0 0 152
0 0 100
0 0 112
0 0 136
0 0 100
0 0 112
0 0 76
0 0 76
0 0 76
0 0 0
0 0 152
0 0 136
0 0 136
0 0 152
0 0 112
0 0 88
0 0 88
0 0 100
0 0 76
0 0 0
32 32 32
0 0 152
0 0 152
0 0 164
0 0 176
0 0 152
0 0 124
0 0 100
0 0 88
0 0 112
0 0 112
0 0 76
0 0 76
0 0 0
0 0 124
0 0 188
0 0 164
0 0 188
0 0 164
0 0 136

0 0 136
0 0 124
0 0 152
0 0 136
0 0 100
0 0 112
0 0 112
0 0 100
0 0 88
0 0 100
0 0 112
0 0 112
0 0 88
0 0 76
0 0 76
0 0 0
32 32 32
32 32 32
0 0 64
0 0 76
0 0 76
0 0 76
0 0 76
0 0 76
0 0 76
0 0 76
0 0 76
0 0 76
0 0 76
0 0 76
0 0 76
0 0 76
0 0 64
0 0 0
0 0 152
0 0 136
0 0 152
0 0 88
0 0 100
0 0 112
0 0 100
0 0 88
0 0 76
0 0 0
32 32 32
0 0 152
0 0 152
0 0 164
0 0 164
0 0 152
0 0 152
0 0 136
0 0 112
0 0 88
0 0 112
0 0 88
0 0 76
0 0 0
0 0 124
0 0 188
0 0 164
0 0 188
0 0 124
0 0 124

0 0 136
0 0 152
0 0 136
0 0 124
0 0 124
0 0 112
0 0 88
0 0 88
0 0 76
0 0 88
0 0 100
0 0 100
0 0 88
0 0 76
0 0 76
0 0 0
32 32 32
32 32 32
32 32 32
0 0 0
0 0 0
0 0 0
0 0 0
0 0 0
0 0 0
0 0 0
0 0 0
0 0 0
0 0 0
0 0 0
0 0 0
0 0 0
0 0 0
0 0 0
0 0 152
0 0 152
0 0 124
0 0 112
0 0 88
0 0 88
0 0 88
0 0 76
0 0 76
0 0 0
32 32 32
0 0 152
0 0 176
0 0 176
0 0 152
0 0 136
0 0 136
0 0 136
0 0 136
0 0 124
0 0 88
0 0 76
0 0 76
0 0 0
0 0 124
0 0 188
0 0 188
0 0 124
0 0 136
0 0 124

0 0 112
0 0 136
0 0 136
0 0 124
0 0 112
0 0 112
0 0 112
0 0 112
0 0 76
0 0 88
0 0 64
0 0 76
0 0 76
0 0 88
0 0 76
0 0 0
32 32 32
32 32 32
0 0 88
0 0 88
0 0 88
0 0 88
0 0 88
0 0 88
0 0 100
0 0 100
0 0 100
0 0 88
0 0 88
0 0 88
0 0 88
0 0 76
32 32 32
32 32 32
0 0 152
0 0 124
0 0 124
0 0 100
0 0 76
0 0 76
0 0 88
0 0 76
0 0 76
0 0 0
32 32 32
0 0 152
0 0 176
0 0 176
0 0 152
0 0 136
0 0 112
0 0 136
0 0 136
0 0 124
0 0 112
0 0 100
0 0 76
0 0 0
0 0 100
0 0 188
0 0 164
0 0 188
0 0 136
0 0 136

0 0 112
0 0 124
0 0 124
0 0 112
0 0 100
0 0 112
0 0 112
0 0 112
0 0 76
0 0 64
0 0 64
0 0 64
0 0 76
0 0 76
0 0 76
0 0 0
32 32 32
32 32 32
0 0 88
0 0 100
0 0 112
0 0 136
0 0 136
0 0 112
0 0 136
0 0 124
0 0 124
0 0 112
0 0 112
0 0 88
0 0 88
0 0 76
0 0 0
32 32 32
0 0 152
0 0 152
0 0 124
0 0 112
0 0 88
0 0 76
0 0 88
0 0 76
0 0 76
0 0 0
32 32 32
0 0 152
0 0 136
0 0 176
0 0 136
0 0 176
0 0 112
0 0 100
0 0 124
0 0 112
0 0 100
0 0 88
0 0 76
0 0 0
0 0 100
0 0 188
0 0 164
0 0 136
0 0 136
0 0 124

0 0 112
0 0 124
0 0 88
0 0 100
0 0 112
0 0 88
0 0 112
0 0 112
0 0 76
0 0 64
0 0 64
0 0 64
0 0 64
0 0 88
0 0 76
0 0 0
32 32 32
32 32 32
0 0 88
0 0 112
0 0 136
0 0 136
0 0 124
0 0 136
0 0 112
0 0 100
0 0 124
0 0 100
0 0 100
0 0 124
0 0 100
0 0 76
0 0 0
32 32 32
0 0 152
0 0 152
0 0 112
0 0 136
0 0 100
0 0 88
0 0 76
0 0 76
0 0 76
0 0 0
32 32 32
0 0 152
0 0 152
0 0 152
0 0 164
0 0 136
0 0 136
0 0 100
0 0 100
0 0 88
0 0 88
0 0 88
0 0 76
0 0 0
0 0 100
0 0 164
0 0 164
0 0 136
0 0 124
0 0 124

0 0 112
0 0 136
0 0 112
0 0 88
0 0 112
0 0 88
0 0 100
0 0 76
0 0 88
0 0 64
0 0 76
0 0 64
0 0 64
0 0 76
0 0 76
0 0 0
32 32 32
32 32 32
0 0 88
0 0 136
0 0 124
0 0 100
0 0 136
0 0 136
0 0 100
0 0 124
0 0 100
0 0 76
0 0 100
0 0 136
0 0 100
0 0 100
0 0 0
32 32 32
0 0 152
0 0 152
0 0 136
0 0 152
0 0 112
0 0 100
0 0 88
0 0 76
0 0 76
0 0 0
32 32 32
0 0 152
0 0 176
0 0 152
0 0 136
0 0 136
0 0 100
0 0 76
0 0 76
0 0 100
0 0 76
0 0 76
0 0 76
0 0 0
0 0 100
0 0 164
0 0 136
0 0 124
0 0 136
0 0 124

0 0 112
0 0 124
0 0 136
0 0 124
0 0 100
0 0 112
0 0 100
0 0 76
0 0 76
0 0 76
0 0 64
0 0 64
0 0 64
0 0 76
0 0 76
0 0 0
32 32 32
32 32 32
0 0 88
0 0 136
0 0 112
0 0 136
0 0 112
0 0 112
0 0 136
0 0 100
0 0 124
0 0 88
0 0 76
0 0 100
0 0 100
0 0 76
0 0 0
32 32 32
0 0 152
0 0 136
0 0 152
0 0 136
0 0 124
0 0 112
0 0 100
0 0 88
0 0 88
0 0 0
32 32 32
0 0 152
0 0 176
0 0 136
0 0 152
0 0 136
0 0 100
0 0 88
0 0 76
0 0 76
0 0 100
0 0 76
0 0 76
0 0 0
0 0 100
0 0 164
0 0 136
0 0 136
0 0 136
0 0 124

0 0 112
0 0 136
0 0 124
0 0 112
0 0 88
0 0 100
0 0 112
0 0 100
0 0 76
0 0 76
0 0 88
0 0 76
0 0 76
0 0 88
0 0 88
0 0 0
32 32 32
32 32 32
0 0 88
0 0 124
0 0 136
0 0 136
0 0 112
0 0 100
0 0 88
0 0 76
0 0 88
0 0 76
0 0 76
0 0 88
0 0 76
0 0 76
0 0 0
32 32 32
0 0 152
0 0 152
0 0 124
0 0 112
0 0 112
0 0 100
0 0 88
0 0 88
0 0 76
0 0 0
32 32 32
0 0 136
0 0 164
0 0 136
0 0 136
0 0 112
0 0 112
0 0 100
0 0 88
0 0 88
0 0 76
0 0 76
0 0 76
0 0 0
0 0 100
0 0 136
0 0 136
0 0 136
0 0 112
0 0 136

0 0 0
0 0 0
0 0 0
0 0 0
0 0 0
0 0 0
0 0 0
0 0 0
0 0 0
0 0 0
0 0 0
0 0 0
0 0 0
0 0 0
0 0 0
0 0 0
32 32 32
32 32 32
0 0 88
0 0 136
0 0 124
0 0 112
0 0 88
0 0 76
0 0 76
0 0 88
0 0 76
0 0 76
0 0 100
0 0 100
0 0 100
0 0 76
0 0 0
32 32 32
0 0 136
0 0 136
0 0 112
0 0 112
0 0 88
0 0 100
0 0 76
0 0 88
0 0 76
0 0 0
32 32 32
0 0 136
0 0 152
0 0 136
0 0 112
0 0 76
0 0 112
0 0 76
0 0 76
0 0 88
0 0 76
0 0 76
0 0 76
0 0 0
32 32 32
0 0 0
0 0 0
0 0 0
0 0 0
0 0 0

32 32 32
32 32 32
32 32 32
32 32 32
32 32 32
32 32 32
0 0 76
0 0 76
0 0 100
0 0 100
0 0 124
0 0 124
0 0 124
0 0 112
0 0 100
0 0 88
0 0 76
0 0 76
32 32 32
0 0 0
0 0 0
0 0 0
0 0 0
0 0 0
0 0 0
0 0 0
0 0 0
0 0 0
0 0 0
0 0 0
0 0 0
0 0 0
0 0 0
32 32 32
0 0 136
0 0 152
0 0 112
0 0 88
0 0 100
0 0 100
0 0 76
0 0 76
0 0 88
0 0 0
32 32 32
0 0 124
0 0 112
0 0 76
0 0 88
0 0 76
0 0 100
0 0 100
0 0 88
0 0 76
0 0 76
0 0 76
0 0 76
0 0 0
32 32 32
0 0 100
0 0 100
0 0 100
0 0 100
32 32 32

32 32 32
32 32 32
0 0 136
0 0 152
0 0 164
0 0 176
0 0 176
0 0 176
0 0 176
0 0 176
0 0 176
0 0 176
0 0 176
0 0 176
0 0 176
0 0 176
0 0 176
0 0 164
0 0 164
0 0 164
0 0 152
0 0 152
0 0 136
0 0 136
0 0 112
32 32 32
32 32 32
32 32 32
32 32 32
32 32 32
32 32 32
32 32 32
32 32 32
32 32 32
0 0 136
0 0 136
0 0 112
0 0 100
0 0 88
0 0 76
0 0 76
0 0 76
0 0 76
0 0 0
32 32 32
0 0 124
0 0 112
0 0 88
0 0 88
0 0 76
0 0 76
0 0 76
0 0 76
0 0 88
0 0 76
0 0 100
0 0 76
0 0 0
32 32 32
0 0 100
0 0 76
0 0 112
0 0 76
32 32 32

32 32 32
32 32 32
0 0 152
0 0 176
0 0 176
0 0 176
0 0 176
0 0 176
0 0 164
0 0 152
0 0 164
0 0 176
0 0 152
0 0 152
0 0 152
0 0 176
0 0 152
0 0 152
0 0 164
0 0 164
0 0 112
0 0 124
0 0 124
0 0 124
0 0 88
0 0 0
32 32 32
0 0 76
0 0 76
0 0 88
0 0 88
0 0 100
32 32 32
32 32 32
0 0 136
0 0 112
0 0 124
0 0 100
0 0 76
0 0 76
0 0 76
0 0 76
0 0 76
0 0 0
32 32 32
32 32 32
0 0 0
0 0 0
0 0 0
0 0 0
0 0 0
0 0 0
0 0 0
0 0 0
0 0 0
0 0 0
0 0 0
0 0 0
32 32 32
0 0 76
0 0 76
0 0 76
0 0 100
32 32 32

32 32 32
32 32 32
0 0 152
0 0 176
0 0 164
0 0 164
0 0 152
0 0 164
0 0 164
0 0 176
0 0 176
0 0 176
0 0 136
0 0 152
0 0 176
0 0 176
0 0 176
0 0 164
0 0 152
0 0 124
0 0 164
0 0 88
0 0 112
0 0 76
0 0 88
0 0 0
32 32 32
0 0 76
0 0 136
0 0 124
0 0 164
0 0 112
0 0 0
32 32 32
0 0 124
0 0 112
0 0 124
0 0 88
0 0 100
0 0 88
0 0 76
0 0 88
0 0 88
0 0 0
32 32 32
32 32 32
32 32 32
32 32 32
32 32 32
32 32 32
32 32 32
32 32 32
32 32 32
32 32 32
32 32 32
32 32 32
32 32 32
32 32 32
32 32 32
32 32 32
32 32 32
32 32 32
32 32 32
32 32 32

32 32 32
32 32 32
0 0 176
0 0 176
0 0 176
0 0 164
0 0 164
0 0 176
0 0 176
0 0 136
0 0 136
0 0 152
0 0 176
0 0 176
0 0 136
0 0 164
0 0 124
0 0 152
0 0 136
0 0 136
0 0 112
0 0 124
0 0 88
0 0 76
0 0 88
0 0 0
32 32 32
0 0 76
0 0 152
0 0 164
0 0 136
0 0 76
0 0 0
32 32 32
0 0 112
0 0 112
0 0 88
0 0 100
0 0 88
0 0 76
0 0 76
0 0 76
0 0 76
0 0 0
32 32 32
32 32 32
0 0 176
0 0 176
0 0 176
0 0 176
0 0 176
0 0 176
0 0 176
0 0 176
0 0 176
0 0 176
0 0 176
0 0 176
0 0 176
0 0 164
0 0 164
0 0 164
0 0 152
32 32 32

32 32 32
32 32 32
0 0 176
0 0 152
0 0 164
0 0 152
0 0 164
0 0 164
0 0 164
0 0 136
0 0 136
0 0 136
0 0 176
0 0 152
0 0 124
0 0 124
0 0 152
0 0 112
0 0 136
0 0 136
0 0 136
0 0 112
0 0 100
0 0 76
0 0 76
0 0 0
32 32 32
0 0 88
0 0 164
0 0 164
0 0 152
0 0 124
0 0 0
32 32 32
32 32 32
0 0 0
0 0 0
0 0 0
0 0 0
0 0 0
0 0 0
0 0 0
0 0 0
0 0 0
32 32 32
32 32 32
0 0 176
0 0 176
0 0 176
0 0 176
0 0 164
0 0 164
0 0 152
0 0 152
0 0 164
0 0 164
0 0 164
0 0 152
0 0 152
0 0 164
0 0 176
0 0 152
0 0 124
0 0 0

32 32 32
32 32 32
0 0 176
0 0 176
0 0 164
0 0 136
0 0 124
0 0 164
0 0 164
0 0 152
0 0 136
0 0 136
0 0 152
0 0 176
0 0 176
0 0 152
0 0 152
0 0 152
0 0 112
0 0 136
0 0 136
0 0 112
0 0 76
0 0 76
0 0 88
0 0 0
32 32 32
0 0 88
0 0 152
0 0 124
0 0 100
0 0 76
0 0 0
32 32 32
0 0 124
0 0 136
0 0 152
0 0 164
0 0 152
0 0 152
0 0 152
0 0 136
0 0 124
0 0 124
32 32 32
32 32 32
0 0 176
0 0 164
0 0 164
0 0 176
0 0 164
0 0 152
0 0 188
0 0 188
0 0 152
0 0 164
0 0 152
0 0 136
0 0 176
0 0 176
0 0 136
0 0 136
0 0 124
0 0 0

32 32 32
32 32 32
0 0 176
0 0 176
0 0 136
0 0 152
0 0 176
0 0 164
0 0 124
0 0 152
0 0 164
0 0 164
0 0 164
0 0 112
0 0 152
0 0 152
0 0 252
0 0 152
0 0 136
0 0 88
0 0 100
0 0 88
0 0 76
0 0 88
0 0 76
0 0 0
32 32 32
0 0 100
0 0 136
0 0 100
0 0 76
0 0 76
0 0 0
32 32 32
0 0 136
0 0 152
0 0 164
0 0 152
0 0 136
0 0 164
0 0 136
0 0 164
0 0 100
0 0 100
0 0 0
32 32 32
0 0 176
0 0 176
0 0 164
0 0 164
0 0 152
0 0 176
0 0 176
0 0 188
0 0 112
0 0 112
0 0 136
0 0 124
0 0 112
0 0 136
0 0 100
0 0 124
0 0 112
0 0 0

32 32 32
32 32 32
0 0 176
0 0 176
0 0 176
0 0 176
0 0 152
0 0 124
0 0 176
0 0 124
0 0 164
0 0 112
0 0 112
0 0 152
0 0 124
0 0 152
0 0 152
0 0 136
0 0 112
0 0 136
0 0 136
0 0 112
0 0 88
0 0 88
0 0 88
0 0 0
32 32 32
0 0 100
0 0 124
0 0 88
0 0 76
0 0 88
0 0 0
32 32 32
0 0 152
0 0 164
0 0 164
0 0 152
0 0 124
0 0 112
0 0 124
0 0 100
0 0 76
0 0 88
0 0 0
32 32 32
0 0 176
0 0 164
0 0 176
0 0 164
0 0 152
0 0 164
0 0 164
0 0 152
0 0 112
0 0 112
0 0 112
0 0 136
0 0 152
0 0 112
0 0 112
0 0 112
0 0 100
0 0 0

32 32 32
32 32 32
0 0 176
0 0 152
0 0 176
0 0 136
0 0 152
0 0 152
0 0 176
0 0 164
0 0 136
0 0 112
0 0 112
0 0 112
0 0 152
0 0 152
0 0 100
0 0 112
0 0 136
0 0 112
0 0 112
0 0 88
0 0 76
0 0 112
0 0 76
0 0 0
32 32 32
32 32 32
0 0 0
0 0 0
0 0 0
0 0 0
0 0 0
32 32 32
0 0 136
0 0 152
0 0 124
0 0 124
0 0 112
0 0 100
0 0 76
0 0 88
0 0 76
0 0 76
0 0 0
32 32 32
0 0 176
0 0 176
0 0 164
0 0 212
0 0 212
0 0 152
0 0 136
0 0 152
0 0 136
0 0 112
0 0 112
0 0 152
0 0 124
0 0 124
0 0 136
0 0 88
0 0 76
0 0 0

32 32 32
32 32 32
0 0 176
0 0 164
0 0 136
0 0 136
0 0 176
0 0 212
0 0 176
0 0 152
0 0 124
0 0 152
0 0 112
0 0 112
0 0 152
0 0 152
0 0 124
0 0 124
0 0 112
0 0 136
0 0 100
0 0 100
0 0 88
0 0 76
0 0 76
0 0 0
32 32 32
32 32 32
32 32 32
32 32 32
32 32 32
32 32 32
32 32 32
32 32 32
0 0 0
0 0 0
0 0 0
0 0 0
0 0 0
0 0 0
0 0 0
0 0 0
0 0 0
0 0 0
0 0 0
32 32 32
0 0 176
0 0 164
0 0 152
0 0 212
0 0 212
0 0 188
0 0 176
0 0 164
0 0 152
0 0 136
0 0 164
0 0 112
0 0 100
0 0 136
0 0 136
0 0 88
0 0 76
0 0 0

32 32 32
32 32 32
0 0 176
0 0 152
0 0 176
0 0 152
0 0 212
64 64 252
0 0 212
0 0 136
0 0 136
0 0 152
0 0 136
0 0 124
0 0 112
0 0 124
0 0 124
0 0 124
0 0 124
0 0 112
0 0 64
0 0 64
0 0 76
0 0 88
0 0 76
0 0 0
32 32 32
0 0 136
0 0 136
0 0 136
0 0 152
0 0 152
0 0 152
0 0 152
0 0 152
0 0 152
0 0 152
0 0 136
0 0 136
0 0 136
0 0 124
0 0 124
0 0 100
0 0 100
32 32 32
32 32 32
0 0 176
0 0 164
0 0 152
0 0 136
0 0 188
0 0 188
0 0 152
0 0 136
0 0 112
0 0 136
0 0 112
0 0 124
0 0 136
0 0 136
0 0 112
0 0 88
0 0 76
0 0 0

32 32 32
32 32 32
0 0 176
0 0 164
0 0 176
0 0 164
0 0 176
0 0 212
0 0 176
0 0 152
0 0 112
0 0 152
0 0 152
0 0 88
0 0 88
0 0 88
0 0 112
0 0 124
0 0 124
0 0 100
0 0 64
0 0 64
0 0 64
0 0 76
0 0 76
0 0 0
32 32 32
0 0 136
0 0 152
0 0 136
0 0 124
0 0 152
0 0 124
0 0 136
0 0 152
0 0 152
0 0 124
0 0 136
0 0 152
0 0 112
0 0 112
0 0 100
0 0 100
0 0 76
0 0 0
32 32 32
0 0 176
0 0 152
0 0 152
0 0 164
0 0 136
0 0 124
0 0 136
0 0 124
0 0 152
0 0 124
0 0 112
0 0 124
0 0 152
0 0 124
0 0 100
0 0 88
0 0 76
0 0 0

32 32 32
32 32 32
0 0 176
0 0 152
0 0 176
0 0 164
0 0 164
0 0 164
0 0 124
0 0 124
0 0 124
0 0 112
0 0 100
0 0 88
0 0 88
0 0 88
0 0 88
0 0 100
0 0 100
0 0 100
0 0 76
0 0 64
0 0 64
0 0 76
0 0 76
0 0 0
32 32 32
0 0 136
0 0 136
0 0 124
0 0 124
0 0 124
0 0 152
0 0 152
0 0 152
0 0 164
0 0 136
0 0 124
0 0 124
0 0 124
0 0 88
0 0 100
0 0 76
0 0 76
0 0 0
32 32 32
0 0 176
0 0 176
0 0 152
0 0 136
0 0 136
0 0 124
0 0 124
0 0 112
0 0 124
0 0 136
0 0 136
0 0 136
0 0 124
0 0 100
0 0 88
0 0 76
0 0 76
0 0 0

32 32 32
32 32 32
0 0 152
0 0 176
0 0 164
0 0 164
0 0 152
0 0 112
0 0 112
0 0 136
0 0 152
0 0 136
0 0 136
0 0 112
0 0 88
0 0 88
0 0 88
0 0 88
0 0 100
0 0 88
0 0 76
0 0 112
0 0 76
0 0 76
0 0 76
0 0 0
32 32 32
0 0 152
0 0 124
0 0 152
0 0 152
0 0 164
0 0 136
0 0 152
0 0 136
0 0 152
0 0 152
0 0 152
0 0 136
0 0 124
0 0 112
0 0 100
0 0 76
0 0 88
0 0 0
32 32 32
0 0 176
0 0 164
0 0 152
0 0 136
0 0 112
0 0 112
0 0 112
0 0 100
0 0 112
0 0 124
0 0 136
0 0 112
0 0 88
0 0 76
0 0 88
0 0 100
0 0 76
0 0 0

32 32 32
32 32 32
0 0 176
0 0 152
0 0 176
0 0 164
0 0 124
0 0 124
0 0 164
0 0 112
0 0 152
0 0 152
0 0 136
0 0 100
0 0 112
0 0 76
0 0 100
0 0 112
0 0 112
0 0 76
0 0 88
0 0 76
0 0 76
0 0 76
0 0 88
0 0 0
32 32 32
0 0 152
0 0 152
0 0 124
0 0 152
0 0 136
0 0 124
0 0 112
0 0 124
0 0 136
0 0 152
0 0 152
0 0 136
0 0 124
0 0 112
0 0 76
0 0 88
0 0 88
0 0 0
32 32 32
0 0 176
0 0 164
0 0 176
0 0 164
0 0 152
0 0 124
0 0 100
0 0 76
0 0 76
0 0 112
0 0 100
0 0 76
0 0 76
0 0 64
0 0 64
0 0 88
0 0 76
0 0 0

32 32 32
32 32 32
0 0 176
0 0 152
0 0 176
0 0 152
0 0 136
0 0 124
0 0 112
0 0 88
0 0 124
0 0 152
0 0 152
0 0 136
0 0 100
0 0 88
0 0 76
0 0 112
0 0 112
0 0 112
0 0 76
0 0 88
0 0 76
0 0 88
0 0 76
0 0 0
32 32 32
0 0 136
0 0 124
0 0 152
0 0 136
0 0 124
0 0 152
0 0 112
0 0 124
0 0 136
0 0 136
0 0 136
0 0 124
0 0 112
0 0 100
0 0 88
0 0 76
0 0 76
0 0 0
32 32 32
0 0 176
0 0 176
0 0 152
0 0 152
0 0 112
0 0 112
0 0 136
0 0 76
0 0 76
0 0 88
0 0 100
0 0 76
0 0 76
0 0 64
0 0 64
0 0 64
0 0 76
0 0 0

32 32 32
32 32 32
0 0 164
0 0 152
0 0 124
0 0 124
0 0 124
0 0 152
0 0 88
0 0 124
0 0 88
0 0 124
0 0 136
0 0 136
0 0 100
0 0 100
0 0 88
0 0 112
0 0 112
0 0 112
0 0 76
0 0 76
0 0 100
0 0 76
0 0 76
0 0 0
32 32 32
0 0 136
0 0 152
0 0 124
0 0 112
0 0 112
0 0 112
0 0 124
0 0 100
0 0 112
0 0 112
0 0 124
0 0 112
0 0 100
0 0 88
0 0 76
0 0 76
0 0 76
0 0 0
32 32 32
0 0 164
0 0 136
0 0 152
0 0 136
0 0 176
0 0 136
0 0 112
0 0 112
0 0 88
0 0 100
0 0 76
0 0 100
0 0 76
0 0 76
0 0 64
0 0 64
0 0 76
0 0 0

32 32 32
32 32 32
0 0 164
0 0 152
0 0 100
0 0 88
0 0 124
0 0 88
0 0 152
0 0 112
0 0 112
0 0 136
0 0 76
0 0 88
0 0 76
0 0 76
0 0 88
0 0 76
0 0 112
0 0 112
0 0 76
0 0 76
0 0 88
0 0 88
0 0 76
0 0 0
32 32 32
0 0 124
0 0 136
0 0 152
0 0 112
0 0 100
0 0 112
0 0 88
0 0 112
0 0 100
0 0 112
0 0 100
0 0 100
0 0 100
0 0 76
0 0 88
0 0 88
0 0 76
0 0 0
32 32 32
0 0 164
0 0 176
0 0 152
0 0 112
0 0 136
0 0 100
0 0 100
0 0 112
0 0 76
0 0 88
0 0 76
0 0 76
0 0 76
0 0 88
0 0 88
0 0 88
0 0 76
0 0 0

32 32 32
32 32 32
0 0 152
0 0 152
0 0 124
0 0 124
0 0 88
0 0 124
0 0 76
0 0 88
0 0 76
0 0 88
0 0 100
0 0 88
0 0 100
0 0 88
0 0 100
0 0 76
0 0 76
0 0 76
0 0 76
0 0 76
0 0 76
0 0 76
0 0 76
0 0 0
32 32 32
0 0 124
0 0 136
0 0 124
0 0 112
0 0 100
0 0 88
0 0 100
0 0 100
0 0 88
0 0 76
0 0 100
0 0 76
0 0 76
0 0 88
0 0 88
0 0 76
0 0 76
0 0 0
32 32 32
0 0 152
0 0 112
0 0 136
0 0 112
0 0 124
0 0 136
0 0 112
0 0 100
0 0 88
0 0 76
0 0 88
0 0 76
0 0 88
0 0 76
0 0 76
0 0 76
0 0 76
0 0 0

32 32 32
32 32 32
0 0 152
0 0 136
0 0 112
0 0 124
0 0 136
0 0 100
0 0 100
0 0 100
0 0 100
0 0 100
0 0 100
0 0 88
0 0 88
0 0 88
0 0 88
0 0 88
0 0 88
0 0 88
0 0 88
0 0 88
0 0 88
0 0 88
0 0 88
0 0 0
32 32 32
0 0 124
0 0 112
0 0 100
0 0 100
0 0 100
0 0 100
0 0 100
0 0 100
0 0 88
0 0 88
0 0 88
0 0 88
0 0 88
0 0 88
0 0 100
0 0 88
0 0 100
32 32 32
32 32 32
0 0 152
0 0 136
0 0 112
0 0 124
0 0 112
0 0 100
0 0 100
0 0 88
0 0 88
0 0 88
0 0 88
0 0 88
0 0 88
0 0 88
0 0 88
0 0 88
0 0 88
32 32 32

56 56 56
56 56 56
0 0 112
0 0 112
0 0 112
0 0 112
0 0 112
0 0 112
0 0 112
0 0 112
0 0 112
0 0 112
0 0 112
0 0 112
0 0 112
0 0 112
0 0 112
0 0 112
0 0 112
0 0 112
0 0 112
0 0 112
0 0 112
0 0 112
0 0 112
56 56 56
56 56 56
0 0 112
0 0 112
0 0 112
0 0 112
0 0 112
0 0 112
0 0 112
0 0 112
0 0 112
0 0 112
0 0 112
0 0 112
0 0 112
0 0 112
0 0 112
0 0 112
0 0 112
56 56 56
56 56 56
0 0 112
0 0 112
0 0 112
0 0 112
0 0 112
0 0 112
0 0 112
0 0 112
0 0 112
0 0 112
0 0 112
0 0 112
0 0 112
0 0 112
0 0 112
0 0 112
0 0 112
44 44 44

84 84 84
84 84 84
84 84 84
84 84 84
84 84 84
84 84 84
84 84 84
84 84 84
84 84 84
84 84 84
84 84 84
84 84 84
84 84 84
84 84 84
84 84 84
84 84 84
84 84 84
84 84 84
84 84 84
84 84 84
84 84 84
84 84 84
84 84 84
84 84 84
84 84 84
84 84 84
84 84 84
84 84 84
84 84 84
84 84 84
84 84 84
84 84 84
84 84 84
84 84 84
84 84 84
84 84 84
84 84 84
84 84 84
84 84 84
84 84 84
84 84 84
84 84 84
84 84 84
84 84 84
84 84 84
84 84 84
84 84 84
84 84 84
84 84 84
84 84 84
84 84 84
84 84 84
84 84 84
84 84 84
84 84 84
84 84 84
84 84 84
84 84 84
84 84 84
84 84 84
84 84 84
84 84 84
84 84 84
84 84 84

