P3
# ASCII PPM file
64 64
255

64 48 24
64 48 24
64 48 24
64 48 24
64 48 24
64 48 24
64 48 24
64 48 24
64 48 24
64 48 24
64 48 24
64 48 24
64 48 24
64 48 24
64 48 24
64 48 24
64 48 24
64 48 24
64 48 24
64 48 24
64 48 24
64 48 24
64 48 24
64 48 24
64 48 24
64 48 24
64 48 24
64 48 24
64 48 24
64 48 24
64 48 24
64 48 24
64 48 24
64 48 24
64 48 24
64 48 24
64 48 24
64 48 24
64 48 24
64 48 24
64 48 24
64 48 24
64 48 24
64 48 24
64 48 24
64 48 24
64 48 24
64 48 24
64 48 24
64 48 24
64 48 24
64 48 24
64 48 24
64 48 24
64 48 24
64 48 24
64 48 24
64 48 24
64 48 24
64 48 24
64 48 24
64 48 24
64 48 24
64 48 24

108 72 36
108 72 36
108 72 36
108 72 36
108 72 36
108 72 36
108 72 36
108 72 36
108 72 36
108 72 36
108 72 36
108 72 36
108 72 36
108 72 36
108 72 36
108 72 36
108 72 36
108 72 36
108 72 36
108 72 36
108 72 36
108 72 36
108 72 36
108 72 36
108 72 36
108 72 36
108 72 36
108 72 36
108 72 36
108 72 36
108 72 36
108 72 36
108 72 36
108 72 36
108 72 36
108 72 36
108 72 36
108 72 36
108 72 36
108 72 36
108 72 36
108 72 36
108 72 36
108 72 36
108 72 36
108 72 36
108 72 36
108 72 36
108 72 36
108 72 36
108 72 36
108 72 36
108 72 36
108 72 36
108 72 36
108 72 36
108 72 36
108 72 36
108 72 36
108 72 36
108 72 36
108 72 36
108 72 36
108 72 36

144 92 52
144 92 52
144 92 52
144 92 52
144 92 52
144 92 52
144 92 52
144 92 52
144 92 52
144 92 52
144 92 52
144 92 52
144 92 52
144 92 52
144 92 52
144 92 52
144 92 52
144 92 52
144 92 52
144 92 52
144 92 52
144 92 52
144 92 52
144 92 52
144 92 52
144 92 52
144 92 52
144 92 52
144 92 52
144 92 52
144 92 52
144 92 52
144 92 52
144 92 52
144 92 52
144 92 52
144 92 52
144 92 52
144 92 52
144 92 52
144 92 52
144 92 52
144 92 52
144 92 52
144 92 52
144 92 52
144 92 52
144 92 52
144 92 52
144 92 52
144 92 52
144 92 52
144 92 52
144 92 52
144 92 52
144 92 52
144 92 52
144 92 52
144 92 52
144 92 52
144 92 52
144 92 52
144 92 52
144 92 52

84 60 28
84 60 28
84 60 28
84 60 28
84 60 28
84 60 28
84 60 28
56 44 20
84 60 28
40 32 12
56 44 20
84 60 28
84 60 28
84 60 28
84 60 28
84 60 28
84 60 28
84 60 28
84 60 28
84 60 28
84 60 28
84 60 28
84 60 28
84 60 28
84 60 28
56 44 20
84 60 28
40 32 12
56 44 20
84 60 28
84 60 28
84 60 28
84 60 28
56 44 20
84 60 28
40 32 12
56 44 20
84 60 28
84 60 28
84 60 28
84 60 28
84 60 28
84 60 28
56 44 20
84 60 28
40 32 12
56 44 20
84 60 28
84 60 28
84 60 28
84 60 28
84 60 28
84 60 28
84 60 28
84 60 28
84 60 28
84 60 28
84 60 28
56 44 20
84 60 28
40 32 12
56 44 20
84 60 28
84 60 28

72 56 24
72 56 24
108 72 36
116 76 40
116 76 40
116 76 40
116 76 40
84 60 28
144 92 52
40 32 12
84 60 28
144 92 52
92 64 32
72 56 24
72 56 24
72 56 24
72 56 24
116 76 40
116 76 40
72 56 24
108 72 36
72 56 24
108 72 36
72 56 24
72 56 24
84 60 28
144 92 52
40 32 12
84 60 28
144 92 52
116 76 40
72 56 24
116 76 40
84 60 28
144 92 52
40 32 12
84 60 28
144 92 52
92 64 32
72 56 24
72 56 24
72 56 24
92 64 32
84 60 28
144 92 52
40 32 12
84 60 28
144 92 52
72 56 24
116 76 40
72 56 24
72 56 24
116 76 40
72 56 24
116 76 40
72 56 24
116 76 40
116 76 40
84 60 28
144 92 52
40 32 12
84 60 28
144 92 52
108 72 36

72 56 24
72 56 24
108 72 36
116 76 40
116 76 40
116 76 40
92 64 32
84 60 28
144 92 52
40 32 12
84 60 28
144 92 52
108 72 36
72 56 24
72 56 24
72 56 24
84 60 28
116 76 40
116 76 40
72 56 24
108 72 36
72 56 24
108 72 36
72 56 24
72 56 24
84 60 28
144 92 52
40 32 12
84 60 28
144 92 52
116 76 40
72 56 24
116 76 40
84 60 28
144 92 52
40 32 12
84 60 28
144 92 52
116 76 40
92 64 32
72 56 24
92 64 32
116 76 40
84 60 28
144 92 52
40 32 12
84 60 28
144 92 52
72 56 24
116 76 40
72 56 24
72 56 24
116 76 40
72 56 24
116 76 40
72 56 24
116 76 40
116 76 40
84 60 28
144 92 52
40 32 12
84 60 28
144 92 52
108 72 36

72 56 24
72 56 24
92 64 32
116 76 40
116 76 40
252 252 216
252 252 156
252 244 0
252 244 0
252 244 0
252 244 0
252 244 0
252 244 0
252 244 0
252 244 0
252 244 0
252 244 0
252 244 0
252 244 0
252 244 0
252 244 0
252 244 0
252 244 0
252 244 0
252 244 0
252 244 0
252 244 0
252 244 0
252 244 0
252 244 0
252 244 0
252 244 0
252 244 0
252 244 0
252 244 0
252 244 0
252 244 0
252 244 0
252 244 0
252 244 0
252 244 0
252 244 0
252 244 0
252 244 0
252 244 0
252 244 0
252 244 0
252 244 0
252 244 0
252 244 0
252 244 0
252 244 0
252 244 0
252 244 0
252 244 0
252 244 0
252 244 0
252 244 0
252 168 92
156 76 0
40 32 12
84 60 28
144 92 52
108 72 36

84 60 28
72 56 24
84 60 28
108 72 36
116 76 40
252 252 156
252 244 0
252 168 92
252 168 92
252 168 92
252 168 92
252 168 92
252 168 92
252 168 92
252 168 92
252 168 92
252 168 92
252 168 92
252 168 92
252 168 92
252 168 92
252 168 92
252 168 92
252 168 92
252 168 92
252 168 92
252 168 92
252 168 92
252 168 92
252 168 92
252 168 92
252 168 92
252 168 92
252 168 92
252 168 92
252 168 92
252 168 92
252 168 92
252 168 92
252 168 92
252 168 92
252 168 92
252 168 92
252 168 92
252 168 92
252 168 92
252 168 92
252 168 92
252 168 92
252 168 92
252 168 92
252 168 92
252 168 92
252 168 92
252 168 92
252 168 92
252 168 92
252 168 92
252 120 0
56 44 20
40 32 12
84 60 28
144 92 52
108 72 36

108 72 36
72 56 24
72 56 24
92 64 32
116 76 40
252 244 0
252 168 92
156 76 0
156 76 0
156 76 0
156 76 0
156 76 0
156 76 0
156 76 0
156 76 0
156 76 0
156 76 0
156 76 0
156 76 0
156 76 0
156 76 0
156 76 0
156 76 0
156 76 0
156 76 0
156 76 0
156 76 0
156 76 0
156 76 0
156 76 0
156 76 0
156 76 0
156 76 0
156 76 0
156 76 0
156 76 0
156 76 0
156 76 0
156 76 0
156 76 0
156 76 0
156 76 0
156 76 0
156 76 0
156 76 0
156 76 0
156 76 0
156 76 0
156 76 0
156 76 0
156 76 0
156 76 0
156 76 0
156 76 0
156 76 0
156 76 0
156 76 0
252 120 0
228 108 0
56 44 20
40 32 12
84 60 28
144 92 52
84 60 28

108 72 36
72 56 24
84 60 28
72 56 24
92 64 32
252 244 0
252 168 92
156 76 0
44 44 44
44 44 44
44 44 44
44 44 44
44 44 44
44 44 44
44 44 44
44 44 44
44 44 44
44 44 44
44 44 44
44 44 44
44 44 44
44 44 44
44 44 44
44 44 44
44 44 44
44 44 44
44 44 44
44 44 44
44 44 44
44 44 44
44 44 44
44 44 44
44 44 44
44 44 44
44 44 44
44 44 44
44 44 44
44 44 44
44 44 44
44 44 44
44 44 44
44 44 44
44 44 44
44 44 44
44 44 44
44 44 44
44 44 44
44 44 44
44 44 44
44 44 44
44 44 44
44 44 44
44 44 44
44 44 44
44 44 44
44 44 44
44 44 44
252 168 92
228 108 0
56 44 20
40 32 12
84 60 28
144 92 52
84 60 28

116 76 40
84 60 28
72 56 24
72 56 24
84 60 28
252 244 0
252 168 92
156 76 0
44 44 44
0 88 88
0 88 88
0 112 112
0 132 132
0 132 132
0 132 132
0 156 156
0 180 180
0 180 180
0 180 180
0 156 156
0 132 132
0 112 112
0 112 112
0 112 112
0 112 112
0 112 112
0 112 112
0 112 112
0 112 112
0 112 112
0 112 112
0 112 112
0 112 112
0 112 112
0 112 112
0 112 112
0 112 112
0 112 112
0 112 112
0 112 112
0 112 112
0 112 112
0 112 112
0 112 112
0 112 112
0 112 112
0 112 112
0 132 132
0 132 132
0 132 132
0 132 132
0 132 132
0 112 112
0 88 88
0 64 64
0 64 64
0 64 64
252 168 92
228 108 0
56 44 20
40 32 12
84 60 28
144 92 52
84 60 28

116 76 40
84 60 28
72 56 24
72 56 24
72 56 24
252 244 0
252 168 92
156 76 0
44 44 44
0 88 88
0 132 132
0 156 156
0 204 204
0 180 180
0 204 204
0 204 204
0 204 204
0 204 204
0 228 228
32 252 252
252 156 156
252 124 124
252 124 124
252 124 124
252 92 92
252 92 92
252 92 92
252 92 92
252 92 92
252 92 92
252 64 64
252 64 64
252 64 64
252 64 64
252 64 64
252 92 92
252 92 92
252 92 92
252 92 92
252 92 92
252 92 92
252 92 92
252 92 92
252 124 124
252 124 124
252 124 124
252 156 156
0 252 252
0 204 204
0 204 204
0 156 156
0 132 132
0 112 112
0 88 88
0 88 88
0 88 88
0 112 112
252 168 92
228 108 0
56 44 20
40 32 12
84 60 28
144 92 52
72 56 24

108 72 36
116 76 40
72 56 24
72 56 24
72 56 24
252 244 0
252 168 92
156 76 0
44 44 44
0 132 132
0 156 156
0 204 204
0 180 180
0 204 204
0 204 204
0 204 204
32 252 252
252 156 156
252 124 124
252 92 92
252 92 92
252 92 92
252 92 92
252 92 92
252 64 64
252 64 64
252 64 64
252 64 64
252 64 64
252 0 0
252 64 64
252 0 0
252 64 64
252 0 0
252 64 64
252 0 0
252 64 64
252 64 64
252 64 64
252 64 64
252 64 64
252 64 64
252 92 92
252 92 92
252 92 92
252 92 92
252 92 92
252 124 124
252 156 156
0 252 252
0 156 156
0 132 132
0 132 132
0 112 112
0 112 112
0 112 112
0 156 156
252 168 92
228 108 0
56 44 20
40 32 12
84 60 28
144 92 52
72 56 24

108 72 36
116 76 40
84 60 28
72 56 24
72 56 24
252 244 0
252 168 92
156 76 0
44 44 44
0 180 180
0 204 204
0 180 180
0 204 204
0 180 180
0 180 180
0 228 228
252 92 92
252 124 124
252 124 124
252 124 124
252 92 92
252 124 124
252 92 92
252 92 92
252 92 92
252 64 64
252 64 64
252 64 64
252 64 64
252 64 64
252 0 0
252 64 64
252 0 0
252 64 64
252 0 0
252 64 64
252 64 64
252 64 64
252 64 64
252 64 64
252 64 64
252 92 92
252 92 92
252 92 92
252 124 124
252 92 92
252 124 124
252 124 124
252 124 124
252 92 92
0 180 180
0 156 156
0 132 132
0 132 132
0 156 156
0 156 156
0 204 204
252 168 92
228 108 0
56 44 20
40 32 12
84 60 28
144 92 52
72 56 24

92 64 32
116 76 40
116 76 40
72 56 24
84 60 28
252 244 0
252 168 92
156 76 0
44 44 44
0 180 180
0 228 228
0 204 204
0 180 180
0 180 180
0 156 156
252 92 92
252 124 124
252 124 124
252 124 124
252 124 124
252 124 124
252 92 92
252 124 124
252 92 92
252 64 64
252 92 92
252 64 64
252 64 64
252 64 64
252 64 64
252 64 64
252 0 0
252 64 64
252 0 0
252 64 64
252 0 0
252 64 64
252 64 64
252 64 64
252 92 92
252 92 92
252 64 64
252 92 92
252 124 124
252 92 92
252 124 124
252 124 124
252 124 124
252 124 124
252 124 124
252 92 92
0 180 180
0 180 180
0 180 180
0 180 180
0 228 228
0 228 228
252 168 92
228 108 0
56 44 20
40 32 12
84 60 28
144 92 52
72 56 24

84 60 28
116 76 40
116 76 40
116 76 40
84 60 28
252 244 0
252 168 92
156 76 0
44 44 44
0 180 180
0 252 252
0 228 228
0 204 204
0 180 180
252 92 92
252 32 32
252 92 92
252 124 124
252 124 124
252 124 124
252 92 92
252 124 124
252 92 92
252 92 92
252 92 92
252 64 64
252 64 64
252 64 64
252 64 64
252 64 64
252 0 0
252 64 64
252 0 0
252 64 64
252 0 0
252 64 64
252 64 64
252 64 64
252 64 64
252 64 64
252 64 64
252 92 92
252 92 92
252 92 92
252 124 124
252 92 92
252 124 124
252 124 124
252 124 124
252 92 92
252 32 32
252 92 92
0 228 228
0 228 228
0 228 228
0 228 228
32 252 252
252 168 92
228 108 0
56 44 20
40 32 12
84 60 28
144 92 52
84 60 28

72 56 24
108 72 36
116 76 40
116 76 40
92 64 32
252 244 0
252 168 92
156 76 0
44 44 44
0 156 156
0 204 204
0 252 252
0 252 252
0 180 180
124 0 0
224 0 0
252 0 0
252 92 92
252 124 124
252 92 92
252 0 0
200 0 0
200 0 0
176 0 0
176 0 0
176 0 0
176 0 0
176 0 0
176 0 0
176 0 0
176 0 0
176 0 0
176 0 0
176 0 0
176 0 0
176 0 0
176 0 0
176 0 0
176 0 0
176 0 0
176 0 0
176 0 0
176 0 0
200 0 0
200 0 0
252 0 0
252 92 92
252 124 124
252 92 92
252 0 0
224 0 0
124 0 0
0 228 228
0 228 228
0 228 228
0 252 252
0 204 204
252 168 92
228 108 0
56 44 20
40 32 12
84 60 28
144 92 52
84 60 28

72 56 24
108 72 36
116 76 40
116 76 40
116 76 40
252 244 0
252 168 92
156 76 0
44 44 44
0 156 156
0 180 180
0 252 252
0 228 228
0 228 228
88 0 0
124 0 0
224 0 0
252 0 0
252 0 0
176 0 0
200 0 0
0 88 88
0 88 88
0 112 112
0 132 132
0 132 132
0 132 132
0 132 132
0 112 112
0 88 88
72 72 72
72 72 72
72 72 72
72 72 72
0 88 88
0 112 112
0 132 132
0 156 156
0 156 156
0 156 156
0 156 156
0 132 132
84 84 84
84 84 84
84 84 84
200 0 0
176 0 0
252 0 0
252 0 0
224 0 0
124 0 0
88 0 0
0 228 228
0 252 252
0 252 252
0 252 252
32 252 252
252 168 92
228 108 0
56 44 20
40 32 12
84 60 28
144 92 52
84 60 28

72 56 24
92 64 32
108 72 36
116 76 40
116 76 40
252 244 0
252 168 92
156 76 0
44 44 44
0 132 132
0 204 204
0 228 228
0 252 252
0 132 132
124 0 0
88 0 0
152 0 0
176 0 0
124 0 0
176 0 0
84 84 84
0 88 88
0 88 88
0 112 112
0 112 112
0 112 112
0 88 88
0 88 88
72 72 72
72 72 72
72 72 72
72 72 72
72 72 72
72 72 72
72 72 72
0 88 88
0 112 112
0 132 132
0 156 156
0 156 156
0 132 132
0 132 132
0 64 64
0 132 132
84 84 84
84 84 84
176 0 0
124 0 0
176 0 0
152 0 0
88 0 0
124 0 0
0 252 252
0 252 252
32 252 252
0 252 252
0 228 228
252 168 92
228 108 0
56 44 20
40 32 12
84 60 28
144 92 52
108 72 36

72 56 24
84 60 28
108 72 36
116 76 40
116 76 40
252 244 0
252 168 92
156 76 0
44 44 44
0 132 132
0 228 228
0 252 252
0 180 180
252 92 92
176 0 0
176 0 0
88 0 0
124 0 0
88 0 0
88 0 0
0 112 112
180 180 180
252 252 252
252 252 252
192 192 192
124 124 124
72 72 72
72 72 72
72 72 72
100 100 100
192 192 192
220 220 220
252 252 252
252 252 252
152 152 152
100 100 100
0 88 88
0 112 112
0 132 132
0 132 132
124 124 124
220 220 220
252 252 252
152 152 152
84 84 84
84 84 84
88 0 0
88 0 0
124 0 0
88 0 0
176 0 0
176 0 0
252 92 92
32 252 252
32 252 252
0 228 228
0 228 228
252 168 92
228 108 0
56 44 20
40 32 12
84 60 28
144 92 52
108 72 36

72 56 24
72 56 24
92 64 32
116 76 40
116 76 40
252 244 0
252 168 92
156 76 0
44 44 44
0 112 112
0 228 228
0 156 156
252 92 92
252 92 92
252 92 92
224 0 0
176 0 0
88 0 0
88 0 0
84 84 84
220 220 220
252 252 252
180 180 180
124 124 124
84 84 84
72 72 72
0 64 64
72 72 72
72 72 72
192 192 192
220 220 220
252 252 252
220 220 220
112 112 112
72 72 72
0 0 0
112 112 112
0 112 112
0 112 112
0 112 112
84 84 84
112 112 112
192 192 192
252 252 252
192 192 192
84 84 84
88 0 0
88 0 0
88 0 0
176 0 0
224 0 0
252 92 92
252 92 92
252 92 92
0 228 228
0 228 228
0 228 228
252 168 92
228 108 0
56 44 20
40 32 12
84 60 28
144 92 52
108 72 36

72 56 24
72 56 24
84 60 28
116 76 40
116 76 40
252 244 0
252 168 92
156 76 0
44 44 44
0 88 88
0 156 156
252 92 92
252 124 124
252 124 124
252 92 92
252 92 92
224 0 0
152 0 0
84 84 84
220 220 220
252 252 252
180 180 180
124 124 124
84 84 84
44 44 44
72 72 72
0 64 64
0 64 64
0 64 64
192 192 192
252 252 252
252 252 252
252 252 252
152 152 152
252 252 252
252 252 252
220 220 220
112 112 112
0 88 88
0 88 88
56 56 56
40 32 12
112 112 112
192 192 192
252 252 252
84 84 84
84 84 84
124 0 0
152 0 0
224 0 0
252 92 92
252 92 92
252 124 124
252 124 124
252 92 92
0 156 156
0 204 204
252 168 92
228 108 0
56 44 20
40 32 12
84 60 28
144 92 52
108 72 36

84 60 28
72 56 24
84 60 28
92 64 32
84 60 28
252 244 0
252 168 92
156 76 0
44 44 44
0 88 88
252 0 0
252 92 92
252 92 92
252 124 124
252 124 124
252 92 92
252 92 92
84 84 84
0 156 156
252 252 252
180 180 180
124 124 124
84 84 84
44 44 44
44 44 44
84 84 84
0 64 64
0 64 64
0 64 64
192 192 192
192 192 192
236 236 236
152 152 152
100 100 100
112 112 112
112 112 112
112 112 112
112 112 112
0 88 88
0 64 64
84 84 84
40 32 12
44 44 44
112 112 112
220 220 220
220 220 220
152 152 152
84 84 84
84 84 84
252 92 92
252 92 92
252 124 124
252 124 124
252 92 92
252 92 92
252 0 0
0 180 180
252 168 92
228 108 0
56 44 20
40 32 12
84 60 28
144 92 52
108 72 36

84 60 28
72 56 24
72 56 24
84 60 28
72 56 24
252 244 0
252 168 92
156 76 0
44 44 44
0 88 88
124 0 0
252 0 0
252 92 92
252 92 92
252 124 124
252 124 124
0 132 132
0 156 156
220 220 220
252 252 252
152 152 152
84 84 84
44 44 44
44 44 44
44 44 44
84 84 84
72 72 72
0 64 64
0 64 64
124 124 124
220 220 220
192 192 192
152 152 152
124 124 124
56 56 56
0 64 64
0 64 64
0 64 64
0 64 64
84 84 84
100 100 100
40 32 12
44 44 44
44 44 44
192 192 192
252 252 252
192 192 192
152 152 152
84 84 84
0 64 64
252 124 124
252 124 124
252 92 92
252 92 92
252 0 0
124 0 0
0 156 156
252 168 92
228 108 0
56 44 20
40 32 12
84 60 28
144 92 52
108 72 36

84 60 28
72 56 24
72 56 24
72 56 24
72 56 24
252 244 0
252 168 92
156 76 0
44 44 44
0 88 88
124 0 0
224 0 0
252 0 0
252 92 92
252 92 92
0 132 132
0 156 156
0 156 156
252 252 252
220 220 220
124 124 124
84 84 84
44 44 44
44 44 44
44 44 44
124 124 124
84 84 84
124 124 124
0 64 64
100 100 100
220 220 220
220 220 220
168 168 168
168 168 168
124 124 124
84 84 84
0 64 64
0 64 64
0 64 64
124 124 124
140 140 140
40 32 12
44 44 44
56 56 56
152 152 152
220 220 220
252 252 252
152 152 152
0 156 156
0 156 156
0 64 64
252 92 92
252 92 92
252 0 0
224 0 0
124 0 0
0 156 156
252 168 92
228 108 0
56 44 20
40 32 12
84 60 28
144 92 52
92 64 32

108 72 36
72 56 24
72 56 24
72 56 24
72 56 24
252 244 0
252 168 92
156 76 0
44 44 44
0 88 88
124 0 0
176 0 0
224 0 0
252 0 0
252 32 32
84 84 84
0 156 156
0 156 156
252 252 252
180 180 180
100 100 100
44 44 44
44 44 44
64 48 24
84 84 84
84 84 84
168 168 168
124 124 124
124 124 124
124 124 124
220 220 220
236 236 236
236 236 236
192 192 192
192 192 192
140 140 140
124 124 124
84 84 84
0 64 64
140 140 140
124 124 124
40 32 12
56 56 56
56 56 56
140 140 140
220 220 220
252 252 252
152 152 152
0 132 132
0 156 156
84 84 84
252 32 32
252 0 0
224 0 0
176 0 0
124 0 0
0 180 180
252 168 92
228 108 0
56 44 20
40 32 12
84 60 28
144 92 52
84 60 28

108 72 36
72 56 24
72 56 24
72 56 24
72 56 24
252 244 0
252 168 92
156 76 0
44 44 44
0 112 112
0 88 88
152 0 0
176 0 0
224 0 0
124 0 0
88 0 0
84 84 84
0 64 64
252 252 252
152 152 152
84 84 84
44 44 44
44 44 44
44 44 44
44 44 44
84 84 84
168 168 168
192 192 192
236 236 236
252 252 252
252 252 252
252 252 252
252 252 252
252 252 252
252 252 252
220 220 220
152 152 152
124 124 124
140 140 140
180 180 180
100 100 100
44 44 44
56 56 56
72 72 72
124 124 124
220 220 220
252 252 252
152 152 152
0 112 112
84 84 84
88 0 0
124 0 0
224 0 0
176 0 0
152 0 0
0 132 132
0 204 204
252 168 92
228 108 0
56 44 20
40 32 12
84 60 28
144 92 52
84 60 28

108 72 36
84 60 28
72 56 24
72 56 24
72 56 24
252 244 0
252 168 92
156 76 0
44 44 44
0 132 132
0 156 156
0 88 88
152 0 0
176 0 0
112 0 0
124 0 0
88 0 0
84 84 84
252 252 252
152 152 152
84 84 84
44 44 44
56 56 56
44 44 44
44 44 44
44 44 44
84 84 84
168 168 168
220 220 220
252 252 252
252 252 252
252 252 252
252 252 252
252 252 252
252 252 252
220 220 220
152 152 152
124 124 124
0 132 132
100 100 100
44 44 44
44 44 44
56 56 56
72 72 72
124 124 124
220 220 220
252 252 252
152 152 152
84 84 84
88 0 0
124 0 0
112 0 0
176 0 0
152 0 0
0 132 132
0 204 204
0 228 228
252 168 92
228 108 0
56 44 20
40 32 12
84 60 28
144 92 52
72 56 24

92 64 32
84 60 28
72 56 24
72 56 24
72 56 24
252 244 0
252 168 92
156 76 0
44 44 44
0 156 156
0 228 228
0 156 156
0 88 88
152 0 0
88 0 0
112 0 0
88 0 0
88 0 0
252 252 252
152 152 152
84 84 84
44 44 44
44 44 44
56 56 56
44 44 44
44 44 44
44 44 44
84 84 84
168 168 168
252 252 252
236 236 236
236 236 236
236 236 236
236 236 236
236 236 236
192 192 192
152 152 152
100 100 100
100 100 100
44 44 44
44 44 44
44 44 44
72 72 72
84 84 84
124 124 124
220 220 220
252 252 252
152 152 152
88 0 0
88 0 0
112 0 0
88 0 0
152 0 0
0 132 132
0 204 204
0 228 228
0 228 228
252 168 92
228 108 0
56 44 20
40 32 12
84 60 28
144 92 52
72 56 24

84 60 28
108 72 36
72 56 24
72 56 24
72 56 24
252 244 0
252 168 92
156 76 0
44 44 44
0 180 180
0 252 252
0 228 228
0 132 132
88 0 0
88 0 0
88 0 0
88 0 0
88 0 0
252 252 252
152 152 152
84 84 84
44 44 44
44 44 44
44 44 44
56 56 56
56 56 56
44 44 44
44 44 44
84 84 84
220 220 220
192 192 192
192 192 192
192 192 192
192 192 192
192 192 192
168 168 168
124 124 124
56 56 56
44 44 44
44 44 44
44 44 44
44 44 44
72 72 72
100 100 100
140 140 140
220 220 220
252 252 252
152 152 152
88 0 0
88 0 0
88 0 0
88 0 0
88 0 0
0 204 204
0 228 228
0 228 228
0 228 228
252 168 92
228 108 0
56 44 20
40 32 12
84 60 28
144 92 52
72 56 24

84 60 28
108 72 36
84 60 28
72 56 24
72 56 24
252 244 0
252 168 92
156 76 0
44 44 44
0 180 180
0 252 252
0 252 252
0 228 228
224 0 0
176 0 0
152 0 0
124 0 0
88 0 0
252 252 252
152 152 152
84 84 84
44 44 44
44 44 44
44 44 44
44 44 44
44 44 44
44 44 44
44 44 44
84 84 84
192 192 192
192 192 192
168 168 168
168 168 168
168 168 168
168 168 168
124 124 124
100 100 100
56 56 56
32 32 32
32 32 32
32 32 32
56 56 56
84 84 84
100 100 100
152 152 152
220 220 220
252 252 252
152 152 152
88 0 0
176 0 0
176 0 0
224 0 0
224 0 0
0 204 204
0 228 228
0 204 204
0 204 204
252 168 92
228 108 0
56 44 20
40 32 12
84 60 28
144 92 52
72 56 24

72 56 24
92 64 32
84 60 28
72 56 24
108 72 36
252 244 0
252 168 92
156 76 0
44 44 44
0 156 156
0 252 252
0 252 252
0 252 252
252 64 64
224 0 0
176 0 0
152 0 0
88 0 0
192 192 192
152 152 152
84 84 84
56 56 56
72 72 72
44 44 44
44 44 44
44 44 44
44 44 44
44 44 44
84 84 84
220 220 220
168 168 168
124 124 124
124 124 124
124 124 124
124 124 124
124 124 124
84 84 84
56 56 56
32 32 32
44 44 44
44 44 44
44 44 44
72 72 72
112 112 112
152 152 152
220 220 220
252 252 252
152 152 152
88 0 0
176 0 0
224 0 0
224 0 0
252 64 64
0 180 180
0 204 204
0 180 180
0 180 180
252 168 92
228 108 0
56 44 20
40 32 12
84 60 28
144 92 52
72 56 24

72 56 24
84 60 28
108 72 36
84 60 28
108 72 36
252 244 0
252 168 92
156 76 0
44 44 44
0 132 132
0 252 252
0 252 252
252 92 92
252 64 64
224 0 0
224 0 0
176 0 0
88 0 0
192 192 192
180 180 180
84 84 84
56 56 56
56 56 56
72 72 72
72 72 72
44 44 44
44 44 44
44 44 44
84 84 84
192 192 192
152 152 152
84 84 84
84 84 84
84 84 84
84 84 84
100 100 100
84 84 84
56 56 56
32 32 32
44 44 44
56 56 56
84 84 84
100 100 100
124 124 124
180 180 180
220 220 220
252 252 252
152 152 152
88 0 0
224 0 0
224 0 0
224 0 0
252 64 64
252 92 92
0 180 180
0 180 180
0 204 204
252 168 92
228 108 0
56 44 20
40 32 12
84 60 28
144 92 52
72 56 24

72 56 24
84 60 28
108 72 36
84 60 28
108 72 36
252 244 0
252 168 92
156 76 0
44 44 44
0 112 112
0 228 228
252 92 92
252 124 124
252 92 92
252 64 64
224 0 0
124 0 0
84 84 84
140 140 140
252 252 252
100 100 100
56 56 56
56 56 56
56 56 56
56 56 56
56 56 56
44 44 44
44 44 44
84 84 84
192 192 192
124 124 124
72 72 72
72 72 72
72 72 72
72 72 72
84 84 84
112 112 112
56 56 56
56 56 56
56 56 56
56 56 56
84 84 84
124 124 124
152 152 152
192 192 192
220 220 220
208 208 208
152 152 152
84 84 84
124 0 0
224 0 0
252 64 64
252 92 92
252 124 124
252 92 92
0 204 204
0 204 204
252 168 92
228 108 0
56 44 20
40 32 12
84 60 28
144 92 52
72 56 24

72 56 24
72 56 24
92 64 32
108 72 36
92 64 32
252 244 0
252 168 92
156 76 0
44 44 44
0 112 112
0 132 132
224 0 0
252 92 92
252 124 124
252 92 92
124 0 0
84 84 84
0 64 64
84 84 84
252 252 252
124 124 124
56 56 56
44 44 44
56 56 56
56 56 56
44 44 44
0 64 64
0 64 64
84 84 84
168 168 168
100 100 100
44 44 44
44 44 44
44 44 44
44 44 44
112 112 112
140 140 140
100 100 100
56 56 56
72 72 72
72 72 72
84 84 84
152 152 152
180 180 180
220 220 220
252 252 252
180 180 180
152 152 152
0 64 64
84 84 84
124 0 0
252 92 92
252 124 124
252 92 92
224 0 0
0 204 204
0 204 204
252 168 92
228 108 0
56 44 20
40 32 12
84 60 28
144 92 52
84 60 28

72 56 24
72 56 24
84 60 28
92 64 32
84 60 28
252 244 0
252 168 92
156 76 0
44 44 44
0 156 156
0 156 156
176 0 0
252 0 0
252 92 92
124 0 0
0 64 64
84 84 84
84 84 84
0 64 64
192 192 192
180 180 180
56 56 56
44 44 44
56 56 56
44 44 44
0 64 64
0 64 64
0 64 64
112 112 112
180 180 180
124 124 124
44 44 44
44 44 44
44 44 44
44 44 44
140 140 140
180 180 180
112 112 112
72 72 72
56 56 56
56 56 56
112 112 112
180 180 180
192 192 192
220 220 220
252 252 252
168 168 168
112 112 112
0 64 64
0 64 64
84 84 84
124 0 0
252 92 92
252 0 0
176 0 0
0 204 204
0 204 204
252 168 92
228 108 0
56 44 20
40 32 12
84 60 28
144 92 52
84 60 28

72 56 24
72 56 24
72 56 24
84 60 28
72 56 24
252 244 0
252 168 92
156 76 0
44 44 44
0 180 180
0 180 180
124 0 0
152 0 0
252 0 0
124 0 0
124 0 0
88 0 0
84 84 84
0 64 64
140 140 140
252 252 252
100 100 100
56 56 56
44 44 44
44 44 44
0 64 64
0 64 64
0 64 64
124 124 124
208 208 208
140 140 140
32 32 32
32 32 32
32 32 32
32 32 32
140 140 140
180 180 180
124 124 124
56 56 56
56 56 56
56 56 56
100 100 100
192 192 192
220 220 220
220 220 220
192 192 192
152 152 152
0 112 112
0 64 64
88 0 0
124 0 0
124 0 0
252 0 0
152 0 0
124 0 0
0 180 180
0 204 204
252 168 92
228 108 0
56 44 20
40 32 12
84 60 28
144 92 52
92 64 32

72 56 24
72 56 24
72 56 24
72 56 24
72 56 24
252 244 0
252 168 92
156 76 0
44 44 44
0 180 180
0 204 204
0 88 88
112 0 0
152 0 0
124 0 0
124 0 0
88 0 0
88 0 0
84 84 84
84 84 84
208 208 208
168 168 168
56 56 56
56 56 56
44 44 44
0 64 64
0 64 64
44 44 44
140 140 140
208 208 208
152 152 152
32 32 32
32 32 32
32 32 32
32 32 32
208 208 208
180 180 180
140 140 140
56 56 56
56 56 56
56 56 56
72 72 72
220 220 220
220 220 220
252 252 252
152 152 152
112 112 112
0 64 64
88 0 0
88 0 0
124 0 0
124 0 0
152 0 0
112 0 0
0 112 112
0 204 204
0 180 180
252 168 92
228 108 0
56 44 20
40 32 12
84 60 28
144 92 52
108 72 36

72 56 24
72 56 24
72 56 24
72 56 24
72 56 24
252 244 0
252 168 92
156 76 0
44 44 44
0 156 156
0 204 204
0 156 156
0 88 88
88 0 0
88 0 0
88 0 0
88 0 0
124 0 0
88 0 0
84 84 84
140 140 140
252 252 252
100 100 100
56 56 56
0 64 64
0 64 64
0 64 64
44 44 44
168 168 168
208 208 208
168 168 168
32 32 32
32 32 32
32 32 32
32 32 32
220 220 220
180 180 180
140 140 140
56 56 56
56 56 56
56 56 56
56 56 56
220 220 220
252 252 252
180 180 180
112 112 112
84 84 84
88 0 0
124 0 0
88 0 0
88 0 0
88 0 0
88 0 0
0 112 112
0 156 156
0 180 180
0 156 156
252 168 92
228 108 0
56 44 20
40 32 12
84 60 28
144 92 52
108 72 36

84 60 28
72 56 24
72 56 24
72 56 24
72 56 24
252 244 0
252 168 92
156 76 0
44 44 44
0 132 132
0 228 228
0 204 204
0 156 156
0 132 132
0 88 88
0 64 64
124 0 0
136 0 0
124 0 0
88 0 0
84 84 84
140 140 140
192 192 192
56 56 56
44 44 44
0 64 64
0 64 64
84 84 84
220 220 220
220 220 220
220 220 220
32 32 32
32 32 32
32 32 32
152 152 152
220 220 220
220 220 220
220 220 220
0 64 64
56 56 56
0 64 64
56 56 56
252 252 252
180 180 180
112 112 112
84 84 84
88 0 0
124 0 0
136 0 0
124 0 0
0 88 88
0 112 112
0 132 132
0 156 156
0 132 132
0 156 156
0 156 156
252 168 92
228 108 0
56 44 20
40 32 12
84 60 28
144 92 52
108 72 36

84 60 28
72 56 24
72 56 24
72 56 24
72 56 24
252 244 0
252 168 92
156 76 0
44 44 44
0 112 112
0 180 180
0 228 228
252 92 92
252 64 64
124 0 0
124 0 0
56 56 56
124 0 0
176 0 0
136 0 0
88 0 0
84 84 84
152 152 152
124 124 124
44 44 44
0 64 64
72 72 72
220 220 220
140 140 140
220 220 220
140 140 140
252 252 252
140 140 140
220 220 220
140 140 140
140 140 140
220 220 220
140 140 140
220 220 220
0 64 64
0 64 64
0 64 64
180 180 180
112 112 112
84 84 84
88 0 0
136 0 0
176 0 0
124 0 0
0 88 88
124 0 0
124 0 0
252 64 64
252 92 92
0 156 156
0 132 132
0 132 132
252 168 92
228 108 0
56 44 20
40 32 12
84 60 28
144 92 52
84 60 28

108 72 36
84 60 28
72 56 24
72 56 24
72 56 24
252 244 0
252 168 92
156 76 0
44 44 44
0 112 112
0 156 156
252 92 92
252 124 124
252 92 92
176 0 0
176 0 0
124 0 0
124 0 0
176 0 0
176 0 0
88 0 0
84 84 84
84 84 84
84 84 84
84 84 84
252 136 32
252 168 92
204 196 0
204 196 0
204 196 0
204 196 0
204 196 0
204 196 0
204 196 0
204 196 0
180 172 0
180 172 0
156 156 0
156 156 0
112 108 0
0 64 64
0 64 64
0 64 64
0 64 64
0 64 64
88 0 0
176 0 0
176 0 0
124 0 0
124 0 0
176 0 0
176 0 0
252 92 92
252 124 124
252 92 92
0 156 156
0 112 112
252 168 92
228 108 0
56 44 20
40 32 12
84 60 28
144 92 52
84 60 28

108 72 36
84 60 28
72 56 24
72 56 24
72 56 24
252 244 0
252 168 92
156 76 0
44 44 44
0 88 88
252 92 92
252 64 64
252 92 92
252 124 124
252 92 92
124 0 0
124 0 0
124 0 0
88 0 0
176 0 0
136 0 0
100 0 0
84 84 84
84 84 84
252 168 92
252 244 32
252 252 124
252 252 184
252 252 184
252 252 184
252 252 184
252 252 184
252 252 156
252 252 156
252 252 124
252 252 124
252 244 32
228 216 0
180 172 0
132 132 0
116 76 40
0 64 64
0 64 64
0 64 64
100 0 0
136 0 0
176 0 0
88 0 0
124 0 0
124 0 0
124 0 0
252 92 92
252 124 124
252 92 92
252 64 64
252 92 92
0 132 132
252 168 92
228 108 0
56 44 20
40 32 12
84 60 28
144 92 52
72 56 24

108 72 36
92 64 32
84 60 28
72 56 24
84 60 28
252 244 0
252 168 92
156 76 0
44 44 44
0 88 88
212 0 0
224 0 0
252 64 64
252 64 64
124 0 0
124 0 0
88 0 0
88 0 0
124 0 0
88 0 0
124 0 0
88 0 0
84 84 84
252 168 92
252 244 32
252 252 124
252 252 184
252 252 156
252 248 92
252 248 92
252 64 64
188 0 0
188 0 0
188 0 0
252 64 64
204 196 0
180 172 0
156 156 0
156 156 0
132 132 0
88 84 0
116 76 40
0 64 64
0 64 64
88 0 0
124 0 0
88 0 0
124 0 0
88 0 0
88 0 0
124 0 0
124 0 0
252 64 64
252 64 64
224 0 0
212 0 0
0 112 112
252 168 92
228 108 0
56 44 20
40 32 12
84 60 28
144 92 52
72 56 24

108 72 36
108 72 36
84 60 28
84 60 28
84 60 28
252 244 0
252 168 92
156 76 0
44 44 44
0 64 64
124 0 0
176 0 0
224 0 0
224 0 0
124 0 0
0 64 64
0 88 88
0 64 64
88 0 0
88 0 0
124 0 0
88 0 0
84 84 84
0 64 64
252 120 0
204 196 0
180 172 0
252 248 92
180 172 0
188 0 0
188 0 0
0 0 0
188 0 0
188 0 0
188 0 0
188 0 0
84 60 28
156 76 0
84 60 28
88 84 0
84 60 28
0 64 64
0 88 88
0 112 112
88 0 0
124 0 0
88 0 0
88 0 0
0 64 64
0 64 64
0 64 64
124 0 0
224 0 0
224 0 0
176 0 0
124 0 0
0 112 112
252 168 92
228 108 0
56 44 20
40 32 12
84 60 28
144 92 52
72 56 24

92 64 32
108 72 36
92 64 32
84 60 28
92 64 32
252 244 0
252 168 92
156 76 0
44 44 44
0 64 64
0 88 88
124 0 0
124 0 0
176 0 0
176 0 0
124 0 0
0 64 64
0 88 88
0 64 64
88 0 0
88 0 0
84 84 84
0 64 64
84 84 84
252 120 0
252 244 32
180 172 0
252 252 184
252 64 64
188 0 0
0 0 0
124 0 0
188 0 0
76 0 0
0 0 0
188 0 0
112 0 0
132 132 0
84 60 28
88 84 0
84 60 28
0 88 88
0 132 132
0 112 112
0 88 88
88 0 0
88 0 0
0 64 64
0 64 64
0 64 64
124 0 0
176 0 0
176 0 0
124 0 0
124 0 0
0 64 64
0 112 112
252 168 92
228 108 0
56 44 20
40 32 12
84 60 28
144 92 52
72 56 24

84 60 28
108 72 36
108 72 36
92 64 32
108 72 36
252 244 0
252 168 92
156 76 0
44 44 44
0 88 88
0 132 132
0 88 88
0 88 88
88 0 0
88 0 0
88 0 0
124 0 0
124 0 0
124 0 0
124 0 0
0 64 64
84 84 84
84 84 84
0 64 64
252 120 0
252 244 32
180 172 0
252 252 184
188 0 0
188 0 0
76 0 0
0 0 0
76 0 0
0 0 0
124 0 0
0 0 0
136 0 0
132 132 0
84 60 28
88 84 0
84 60 28
0 112 112
0 156 156
0 132 132
0 112 112
0 88 88
124 0 0
124 0 0
124 0 0
124 0 0
88 0 0
88 0 0
88 0 0
0 64 64
0 88 88
0 132 132
0 204 204
252 168 92
228 108 0
56 44 20
40 32 12
84 60 28
144 92 52
72 56 24

84 60 28
108 72 36
108 72 36
92 64 32
108 72 36
252 244 0
252 168 92
156 76 0
44 44 44
0 88 88
0 180 180
0 180 180
0 132 132
0 112 112
0 112 112
0 88 88
88 0 0
88 0 0
88 0 0
88 0 0
88 0 0
0 64 64
0 64 64
84 84 84
252 120 0
252 244 32
180 172 0
252 252 184
188 0 0
188 0 0
188 0 0
76 0 0
0 0 0
76 0 0
188 0 0
188 0 0
188 0 0
132 132 0
84 60 28
88 84 0
84 60 28
0 88 88
0 132 132
0 112 112
0 64 64
88 0 0
88 0 0
88 0 0
88 0 0
88 0 0
0 64 64
0 88 88
0 88 88
0 112 112
0 112 112
0 132 132
0 204 204
252 168 92
228 108 0
56 44 20
40 32 12
84 60 28
144 92 52
72 56 24

72 56 24
108 72 36
116 76 40
116 76 40
116 76 40
252 244 0
252 168 92
156 76 0
44 44 44
0 112 112
0 180 180
252 124 124
252 92 92
188 0 0
124 0 0
0 112 112
0 88 88
0 88 88
88 0 0
136 0 0
124 0 0
88 0 0
0 64 64
0 64 64
252 120 0
252 244 32
180 172 0
252 252 184
188 0 0
0 0 0
124 0 0
0 0 0
76 0 0
0 0 0
76 0 0
188 0 0
136 0 0
132 132 0
84 60 28
88 84 0
84 60 28
0 64 64
0 88 88
0 64 64
88 0 0
124 0 0
136 0 0
88 0 0
0 64 64
0 64 64
0 64 64
124 0 0
188 0 0
252 92 92
0 112 112
0 112 112
0 132 132
252 168 92
228 108 0
56 44 20
40 32 12
84 60 28
144 92 52
72 56 24

72 56 24
92 64 32
116 76 40
116 76 40
116 76 40
252 244 0
252 168 92
156 76 0
44 44 44
0 112 112
252 124 124
252 124 124
252 92 92
224 0 0
224 0 0
188 0 0
124 0 0
124 0 0
124 0 0
152 0 0
136 0 0
124 0 0
88 0 0
0 64 64
252 120 0
252 244 32
180 172 0
252 252 184
252 64 64
188 0 0
0 0 0
76 0 0
188 0 0
124 0 0
0 0 0
188 0 0
112 0 0
132 132 0
84 60 28
88 84 0
84 60 28
0 88 88
0 88 88
88 0 0
124 0 0
136 0 0
152 0 0
124 0 0
124 0 0
124 0 0
188 0 0
224 0 0
224 0 0
252 92 92
252 92 92
0 156 156
0 112 112
252 168 92
228 108 0
56 44 20
40 32 12
84 60 28
144 92 52
72 56 24

72 56 24
84 60 28
108 72 36
116 76 40
116 76 40
252 244 0
252 168 92
156 76 0
44 44 44
0 112 112
252 92 92
252 92 92
252 124 124
252 92 92
224 0 0
124 0 0
124 0 0
124 0 0
176 0 0
176 0 0
152 0 0
136 0 0
88 0 0
0 64 64
252 120 0
252 244 32
180 172 0
252 252 184
180 172 0
188 0 0
188 0 0
188 0 0
188 0 0
0 0 0
188 0 0
112 0 0
84 60 28
132 132 0
84 60 28
88 84 0
84 60 28
0 88 88
0 88 88
88 0 0
136 0 0
152 0 0
176 0 0
176 0 0
124 0 0
124 0 0
124 0 0
224 0 0
252 92 92
252 124 124
252 92 92
252 92 92
0 156 156
252 168 92
228 108 0
56 44 20
40 32 12
84 60 28
144 92 52
72 56 24

72 56 24
84 60 28
108 72 36
116 76 40
116 76 40
252 244 0
252 168 92
156 76 0
44 44 44
0 88 88
188 0 0
224 0 0
252 64 64
252 124 124
124 0 0
0 64 64
0 64 64
124 0 0
124 0 0
176 0 0
176 0 0
124 0 0
88 0 0
0 64 64
252 120 0
252 244 32
180 172 0
252 252 184
180 172 0
252 252 124
252 64 64
188 0 0
188 0 0
188 0 0
112 0 0
112 108 0
84 60 28
132 132 0
84 60 28
88 84 0
84 60 28
0 88 88
0 88 88
88 0 0
124 0 0
176 0 0
176 0 0
124 0 0
124 0 0
84 84 84
84 84 84
124 0 0
252 124 124
252 64 64
224 0 0
188 0 0
0 156 156
252 168 92
228 108 0
56 44 20
40 32 12
84 60 28
144 92 52
84 60 28

72 56 24
72 56 24
92 64 32
116 76 40
108 72 36
252 244 0
252 168 92
156 76 0
44 44 44
0 64 64
0 112 112
188 0 0
176 0 0
224 0 0
88 0 0
152 0 0
0 64 64
0 64 64
0 64 64
124 0 0
124 0 0
88 0 0
0 64 64
252 120 0
252 152 64
252 252 124
252 252 184
252 252 252
252 252 156
252 252 252
252 252 124
252 244 32
252 244 32
228 216 0
204 196 0
180 172 0
132 132 0
156 156 0
108 72 36
108 72 36
88 84 0
84 60 28
0 64 64
0 64 64
88 0 0
124 0 0
124 0 0
0 112 112
0 112 112
84 84 84
152 0 0
88 0 0
224 0 0
176 0 0
188 0 0
0 156 156
0 132 132
252 168 92
228 108 0
56 44 20
40 32 12
84 60 28
144 92 52
84 60 28

72 56 24
72 56 24
84 60 28
108 72 36
108 72 36
252 244 0
252 168 92
156 76 0
44 44 44
0 88 88
0 156 156
0 112 112
188 0 0
88 0 0
88 0 0
88 0 0
88 0 0
88 0 0
0 64 64
0 112 112
0 112 112
0 112 112
0 112 112
180 84 0
112 108 0
88 84 0
252 120 0
156 76 0
156 76 0
252 152 64
156 76 0
156 76 0
156 76 0
156 76 0
156 76 0
84 60 28
116 76 40
116 76 40
116 76 40
116 76 40
84 60 28
84 60 28
0 64 64
0 88 88
0 112 112
0 132 132
0 132 132
0 64 64
88 0 0
88 0 0
88 0 0
88 0 0
88 0 0
188 0 0
0 156 156
0 132 132
0 132 132
252 168 92
228 108 0
56 44 20
40 32 12
84 60 28
144 92 52
92 64 32

72 56 24
72 56 24
84 60 28
108 72 36
92 64 32
252 244 0
252 168 92
156 76 0
44 44 44
0 88 88
0 132 132
0 156 156
0 88 88
0 88 88
124 0 0
176 0 0
176 0 0
152 0 0
88 0 0
0 112 112
0 132 132
0 132 132
252 120 0
252 152 64
252 252 124
252 252 124
252 252 252
252 252 184
252 252 252
252 252 252
252 252 124
252 252 124
252 244 32
252 244 32
228 216 0
204 196 0
180 172 0
132 132 0
156 156 0
108 72 36
108 72 36
88 84 0
84 60 28
0 88 88
0 112 112
0 112 112
0 88 88
88 0 0
152 0 0
176 0 0
176 0 0
124 0 0
0 112 112
0 112 112
0 132 132
0 132 132
0 112 112
252 168 92
228 108 0
56 44 20
40 32 12
84 60 28
144 92 52
92 64 32

72 56 24
72 56 24
72 56 24
92 64 32
92 64 32
252 244 0
252 168 92
156 76 0
44 44 44
0 88 88
0 88 88
0 64 64
124 0 0
124 0 0
124 0 0
124 0 0
124 0 0
176 0 0
124 0 0
0 112 112
0 132 132
0 156 156
180 84 0
112 108 0
88 84 0
252 120 0
156 76 0
156 76 0
252 152 64
252 120 0
156 76 0
156 76 0
156 76 0
156 76 0
156 76 0
84 60 28
84 60 28
116 76 40
116 76 40
116 76 40
116 76 40
84 60 28
84 60 28
0 64 64
0 88 88
0 88 88
0 88 88
124 0 0
176 0 0
124 0 0
124 0 0
124 0 0
124 0 0
124 0 0
0 112 112
0 112 112
0 112 112
252 168 92
228 108 0
56 44 20
40 32 12
84 60 28
144 92 52
108 72 36

72 56 24
72 56 24
72 56 24
84 60 28
84 60 28
252 244 0
252 168 92
156 76 0
44 44 44
0 64 64
0 64 64
0 64 64
0 64 64
0 64 64
0 64 64
56 56 56
124 0 0
124 0 0
0 64 64
0 88 88
0 112 112
252 120 0
252 152 64
252 252 124
252 252 124
252 252 252
252 252 184
252 252 184
252 252 252
252 252 252
252 252 124
252 252 124
252 244 32
252 244 32
228 216 0
204 196 0
180 172 0
180 172 0
132 132 0
132 132 0
108 72 36
108 72 36
88 84 0
84 60 28
0 64 64
0 64 64
0 64 64
0 64 64
124 0 0
124 0 0
0 132 132
0 132 132
0 132 132
0 112 112
0 112 112
0 112 112
0 112 112
252 168 92
228 108 0
56 44 20
40 32 12
84 60 28
144 92 52
108 72 36

84 60 28
72 56 24
72 56 24
72 56 24
72 56 24
252 244 0
252 168 92
156 76 0
44 44 44
0 64 64
0 64 64
0 64 64
0 64 64
0 64 64
0 64 64
0 64 64
0 64 64
0 64 64
0 88 88
0 64 64
0 88 88
180 84 0
112 108 0
252 120 0
252 120 0
156 76 0
156 76 0
252 152 64
252 120 0
252 120 0
156 76 0
156 76 0
156 76 0
156 76 0
156 76 0
84 60 28
84 60 28
84 60 28
116 76 40
116 76 40
116 76 40
108 72 36
84 60 28
84 60 28
0 64 64
0 64 64
0 64 64
0 64 64
0 88 88
0 112 112
0 132 132
0 156 156
0 132 132
0 112 112
0 112 112
0 112 112
0 112 112
252 168 92
228 108 0
56 44 20
40 32 12
84 60 28
144 92 52
116 76 40

84 60 28
72 56 24
72 56 24
72 56 24
72 56 24
252 244 0
252 168 92
252 120 0
252 168 92
252 168 92
252 168 92
252 168 92
252 168 92
252 168 92
252 168 92
252 168 92
252 168 92
252 168 92
252 168 92
252 168 92
252 168 92
252 168 92
252 168 92
252 168 92
252 168 92
252 168 92
252 168 92
252 168 92
252 168 92
252 168 92
252 168 92
252 168 92
252 168 92
252 168 92
252 168 92
252 168 92
252 168 92
252 168 92
252 168 92
252 168 92
252 168 92
252 168 92
252 168 92
252 168 92
252 168 92
252 168 92
252 168 92
252 168 92
252 168 92
252 168 92
252 168 92
252 168 92
252 168 92
252 168 92
252 168 92
252 168 92
252 168 92
252 168 92
228 108 0
56 44 20
40 32 12
84 60 28
144 92 52
116 76 40

92 64 32
72 56 24
72 56 24
72 56 24
72 56 24
252 244 0
252 168 92
228 108 0
228 108 0
228 108 0
228 108 0
228 108 0
228 108 0
228 108 0
228 108 0
228 108 0
228 108 0
228 108 0
228 108 0
228 108 0
228 108 0
228 108 0
228 108 0
228 108 0
228 108 0
228 108 0
228 108 0
228 108 0
228 108 0
228 108 0
228 108 0
228 108 0
228 108 0
228 108 0
228 108 0
228 108 0
228 108 0
228 108 0
228 108 0
228 108 0
228 108 0
228 108 0
228 108 0
228 108 0
228 108 0
228 108 0
228 108 0
228 108 0
228 108 0
228 108 0
228 108 0
228 108 0
228 108 0
228 108 0
228 108 0
228 108 0
228 108 0
228 108 0
228 108 0
56 44 20
40 32 12
84 60 28
144 92 52
116 76 40

92 64 32
84 60 28
72 56 24
72 56 24
72 56 24
252 168 92
56 44 20
56 44 20
56 44 20
56 44 20
56 44 20
56 44 20
56 44 20
56 44 20
56 44 20
56 44 20
56 44 20
56 44 20
56 44 20
56 44 20
56 44 20
56 44 20
56 44 20
56 44 20
56 44 20
56 44 20
56 44 20
56 44 20
56 44 20
56 44 20
56 44 20
56 44 20
56 44 20
56 44 20
56 44 20
56 44 20
56 44 20
56 44 20
56 44 20
56 44 20
56 44 20
56 44 20
56 44 20
56 44 20
56 44 20
56 44 20
56 44 20
56 44 20
56 44 20
56 44 20
56 44 20
56 44 20
56 44 20
56 44 20
56 44 20
56 44 20
56 44 20
56 44 20
56 44 20
56 44 20
40 32 12
84 60 28
144 92 52
116 76 40

108 72 36
84 60 28
72 56 24
72 56 24
72 56 24
84 60 28
108 72 36
56 44 20
92 64 32
40 32 12
84 60 28
92 64 32
56 44 20
56 44 20
56 44 20
56 44 20
56 44 20
56 44 20
56 44 20
56 44 20
56 44 20
56 44 20
56 44 20
56 44 20
56 44 20
56 44 20
92 64 32
40 32 12
84 60 28
92 64 32
56 44 20
56 44 20
56 44 20
56 44 20
92 64 32
40 32 12
84 60 28
92 64 32
56 44 20
56 44 20
56 44 20
56 44 20
56 44 20
56 44 20
92 64 32
40 32 12
84 60 28
92 64 32
56 44 20
56 44 20
56 44 20
56 44 20
56 44 20
56 44 20
56 44 20
56 44 20
56 44 20
56 44 20
56 44 20
92 64 32
40 32 12
84 60 28
144 92 52
116 76 40

108 72 36
92 64 32
72 56 24
72 56 24
72 56 24
84 60 28
108 72 36
84 60 28
144 92 52
40 32 12
84 60 28
144 92 52
72 56 24
72 56 24
72 56 24
72 56 24
92 64 32
72 56 24
72 56 24
72 56 24
72 56 24
108 72 36
116 76 40
116 76 40
92 64 32
84 60 28
144 92 52
40 32 12
84 60 28
144 92 52
108 72 36
92 64 32
72 56 24
84 60 28
144 92 52
40 32 12
84 60 28
144 92 52
72 56 24
72 56 24
72 56 24
72 56 24
72 56 24
84 60 28
144 92 52
40 32 12
84 60 28
144 92 52
92 64 32
72 56 24
116 76 40
92 64 32
72 56 24
72 56 24
72 56 24
72 56 24
72 56 24
72 56 24
84 60 28
144 92 52
40 32 12
84 60 28
144 92 52
116 76 40

92 64 32
92 64 32
92 64 32
92 64 32
92 64 32
92 64 32
92 64 32
84 60 28
144 92 52
40 32 12
84 60 28
144 92 52
92 64 32
72 56 24
72 56 24
72 56 24
72 56 24
72 56 24
72 56 24
72 56 24
92 64 32
92 64 32
92 64 32
92 64 32
92 64 32
84 60 28
144 92 52
40 32 12
84 60 28
144 92 52
92 64 32
72 56 24
72 56 24
84 60 28
144 92 52
40 32 12
84 60 28
144 92 52
92 64 32
72 56 24
72 56 24
72 56 24
92 64 32
84 60 28
144 92 52
40 32 12
84 60 28
144 92 52
92 64 32
72 56 24
92 64 32
92 64 32
72 56 24
72 56 24
72 56 24
72 56 24
72 56 24
72 56 24
84 60 28
144 92 52
40 32 12
84 60 28
144 92 52
92 64 32

