P3
# ASCII PPM file
64 64
255

56 56 56
0 0 100
0 0 100
0 0 100
0 0 100
0 0 100
0 0 100
0 0 100
0 0 100
0 0 100
0 0 100
0 0 100
0 0 100
0 0 100
0 0 100
0 0 100
0 0 100
0 0 100
0 0 100
0 0 100
0 0 100
0 0 100
0 0 100
0 0 100
0 0 100
0 0 100
0 0 100
0 0 100
56 56 56
56 56 56
0 0 100
0 0 100
0 0 100
0 0 100
0 0 100
0 0 100
0 0 100
0 0 100
0 0 100
0 0 100
0 0 100
0 0 100
0 0 100
56 56 56
56 56 56
0 0 100
0 0 100
0 0 100
0 0 100
0 0 100
0 0 100
0 0 100
0 0 100
0 0 100
0 0 100
0 0 100
0 0 100
56 56 56
0 0 100
0 0 100
0 0 100
0 0 100
0 0 100
56 56 56

32 32 32
0 0 100
0 0 100
0 0 100
0 0 100
0 0 100
0 0 100
0 0 100
0 0 100
0 0 100
0 0 100
0 0 100
0 0 100
0 0 100
0 0 100
0 0 100
0 0 100
0 0 100
0 0 100
0 0 100
0 0 100
0 0 100
0 0 88
0 0 88
0 0 88
0 0 76
0 0 64
0 0 64
32 32 32
32 32 32
0 0 100
0 0 100
0 0 100
0 0 100
0 0 100
0 0 100
0 0 100
0 0 100
0 0 88
0 0 76
0 0 76
0 0 76
0 0 76
32 32 32
32 32 32
0 0 100
0 0 100
0 0 100
0 0 100
0 0 100
0 0 100
0 0 100
0 0 100
0 0 76
0 0 76
0 0 44
0 0 44
0 0 44
0 0 112
0 0 112
0 0 112
0 0 112
0 0 88
32 32 32

0 0 0
0 0 100
0 0 100
0 0 100
0 0 76
0 0 100
0 0 64
0 0 100
0 0 112
0 0 112
0 0 64
0 0 88
0 0 88
0 0 88
0 0 88
0 0 88
0 0 88
0 0 64
0 0 64
0 0 100
0 0 76
0 0 64
0 0 64
0 0 64
0 0 64
0 0 44
0 0 44
0 0 44
0 0 0
0 0 0
0 0 100
0 0 100
0 0 88
0 0 88
0 0 76
0 0 100
0 0 100
0 0 88
0 0 76
0 0 76
0 0 76
0 0 76
0 0 44
0 0 0
0 0 0
0 0 100
0 0 124
0 0 112
0 0 124
0 0 112
0 0 124
0 0 124
0 0 124
0 0 124
0 0 124
0 0 88
0 0 64
0 0 0
0 0 112
0 0 112
0 0 76
0 0 88
0 0 76
0 0 0

0 0 0
0 0 100
0 0 88
0 0 64
0 0 76
0 0 88
0 0 88
0 0 88
0 0 112
0 0 112
0 0 112
0 0 88
0 0 76
0 0 64
0 0 76
0 0 76
0 0 64
0 0 76
0 0 64
0 0 64
0 0 88
0 0 88
0 0 64
0 0 64
0 0 64
0 0 44
0 0 28
0 0 28
0 0 0
0 0 0
0 0 100
0 0 88
0 0 100
0 0 100
0 0 76
0 0 88
0 0 88
0 0 64
0 0 76
0 0 64
0 0 100
0 0 44
0 0 44
0 0 0
0 0 0
0 0 100
0 0 112
0 0 124
0 0 124
0 0 100
0 0 124
0 0 136
0 0 112
0 0 124
0 0 100
0 0 88
0 0 64
0 0 0
0 0 100
0 0 100
0 0 112
0 0 88
0 0 44
0 0 0

0 0 0
0 0 100
0 0 76
0 0 100
0 0 100
0 0 88
0 0 100
0 0 88
0 0 64
0 0 112
0 0 112
0 0 88
0 0 64
0 0 76
0 0 64
0 0 64
0 0 76
0 0 76
0 0 76
0 0 76
0 0 64
0 0 44
0 0 44
0 0 64
0 0 44
0 0 64
0 0 28
0 0 28
0 0 0
0 0 0
0 0 100
0 0 88
0 0 76
0 0 76
0 0 88
0 0 88
0 0 64
0 0 76
0 0 64
0 0 44
0 0 44
0 0 44
0 0 44
0 0 0
0 0 0
0 0 100
0 0 124
0 0 112
0 0 100
0 0 136
0 0 124
0 0 112
0 0 100
0 0 88
0 0 76
0 0 76
0 0 44
0 0 0
0 0 76
0 0 44
0 0 64
0 0 64
0 0 44
0 0 0

0 0 0
0 0 100
0 0 76
0 0 64
0 0 100
0 0 100
0 0 100
0 0 100
0 0 88
0 0 88
0 0 64
0 0 88
0 0 100
0 0 64
0 0 88
0 0 76
0 0 76
0 0 64
0 0 76
0 0 88
0 0 88
0 0 76
0 0 64
0 0 44
0 0 64
0 0 44
0 0 28
0 0 28
0 0 0
0 0 0
0 0 100
0 0 100
0 0 76
0 0 100
0 0 100
0 0 64
0 0 44
0 0 44
0 0 44
0 0 76
0 0 64
0 0 44
0 0 44
0 0 0
0 0 0
0 0 100
0 0 124
0 0 100
0 0 136
0 0 176
0 0 136
0 0 100
0 0 124
0 0 100
0 0 88
0 0 44
0 0 64
0 0 0
0 0 88
0 0 76
0 0 44
0 0 44
0 0 28
0 0 0

0 0 0
0 0 100
0 0 88
0 0 88
0 0 100
0 0 100
0 0 100
0 0 88
0 0 100
0 0 88
0 0 64
0 0 64
0 0 64
0 0 44
0 0 76
0 0 44
0 0 76
0 0 64
0 0 76
0 0 88
0 0 88
0 0 88
0 0 76
0 0 64
0 0 44
0 0 64
0 0 44
0 0 44
0 0 0
0 0 0
0 0 100
0 0 100
0 0 100
0 0 76
0 0 76
0 0 64
0 0 44
0 0 76
0 0 76
0 0 76
0 0 44
0 0 28
0 0 44
0 0 0
0 0 0
0 0 100
0 0 112
0 0 124
0 0 100
0 0 124
0 0 124
0 0 100
0 0 100
0 0 112
0 0 64
0 0 64
0 0 44
0 0 0
0 0 88
0 0 64
0 0 28
0 0 44
0 0 44
0 0 0

0 0 0
0 0 100
0 0 100
0 0 88
0 0 88
0 0 100
0 0 100
0 0 100
0 0 88
0 0 64
0 0 76
0 0 76
0 0 76
0 0 64
0 0 64
0 0 88
0 0 64
0 0 44
0 0 64
0 0 76
0 0 88
0 0 88
0 0 64
0 0 44
0 0 44
0 0 44
0 0 28
0 0 28
0 0 0
0 0 0
0 0 100
0 0 100
0 0 76
0 0 64
0 0 76
0 0 76
0 0 76
0 0 64
0 0 76
0 0 64
0 0 44
0 0 28
0 0 28
0 0 0
0 0 0
0 0 100
0 0 112
0 0 124
0 0 112
0 0 100
0 0 112
0 0 112
0 0 112
0 0 100
0 0 64
0 0 44
0 0 64
0 0 0
0 0 88
0 0 44
0 0 44
0 0 44
0 0 28
0 0 0

0 0 0
0 0 100
0 0 88
0 0 64
0 0 88
0 0 100
0 0 100
0 0 76
0 0 100
0 0 100
0 0 88
0 0 64
0 0 64
0 0 88
0 0 64
0 0 44
0 0 44
0 0 44
0 0 64
0 0 76
0 0 76
0 0 64
0 0 64
0 0 44
0 0 64
0 0 64
0 0 28
0 0 28
0 0 0
0 0 0
0 0 100
0 0 88
0 0 76
0 0 76
0 0 44
0 0 76
0 0 100
0 0 100
0 0 64
0 0 44
0 0 64
0 0 28
0 0 28
0 0 0
0 0 0
0 0 100
0 0 112
0 0 136
0 0 112
0 0 112
0 0 124
0 0 100
0 0 100
0 0 100
0 0 88
0 0 44
0 0 44
0 0 0
0 0 0
0 0 0
0 0 0
0 0 0
0 0 0
0 0 0

0 0 0
0 0 100
0 0 76
0 0 76
0 0 76
0 0 100
0 0 64
0 0 64
0 0 100
0 0 100
0 0 100
0 0 76
0 0 64
0 0 64
0 0 64
0 0 64
0 0 44
0 0 76
0 0 44
0 0 64
0 0 64
0 0 64
0 0 44
0 0 64
0 0 64
0 0 64
0 0 44
0 0 28
0 0 0
0 0 0
0 0 100
0 0 76
0 0 76
0 0 44
0 0 64
0 0 64
0 0 76
0 0 76
0 0 44
0 0 44
0 0 44
0 0 44
0 0 44
0 0 0
0 0 0
0 0 100
0 0 112
0 0 124
0 0 100
0 0 112
0 0 100
0 0 100
0 0 76
0 0 88
0 0 76
0 0 44
0 0 44
0 0 0
0 0 88
0 0 112
0 0 112
0 0 112
0 0 100
0 0 0

0 0 0
0 0 88
0 0 64
0 0 76
0 0 100
0 0 76
0 0 76
0 0 76
0 0 88
0 0 100
0 0 100
0 0 76
0 0 64
0 0 64
0 0 76
0 0 64
0 0 64
0 0 44
0 0 64
0 0 44
0 0 64
0 0 44
0 0 64
0 0 44
0 0 64
0 0 64
0 0 44
0 0 44
0 0 0
0 0 0
0 0 88
0 0 76
0 0 64
0 0 64
0 0 44
0 0 76
0 0 76
0 0 44
0 0 64
0 0 44
0 0 44
0 0 44
0 0 44
0 0 0
0 0 0
0 0 100
0 0 112
0 0 124
0 0 124
0 0 100
0 0 124
0 0 100
0 0 76
0 0 76
0 0 64
0 0 28
0 0 28
0 0 0
0 0 100
0 0 112
0 0 88
0 0 112
0 0 76
0 0 0

0 0 0
0 0 88
0 0 76
0 0 88
0 0 64
0 0 64
0 0 100
0 0 76
0 0 76
0 0 76
0 0 76
0 0 64
0 0 44
0 0 64
0 0 64
0 0 64
0 0 44
0 0 44
0 0 76
0 0 44
0 0 44
0 0 64
0 0 44
0 0 28
0 0 28
0 0 44
0 0 44
0 0 44
0 0 0
0 0 0
0 0 88
0 0 76
0 0 64
0 0 44
0 0 64
0 0 44
0 0 76
0 0 44
0 0 28
0 0 28
0 0 28
0 0 44
0 0 28
0 0 0
0 0 0
0 0 100
0 0 112
0 0 124
0 0 124
0 0 112
0 0 100
0 0 76
0 0 100
0 0 88
0 0 64
0 0 44
0 0 28
0 0 0
0 0 88
0 0 100
0 0 76
0 0 88
0 0 44
0 0 0

0 0 0
0 0 88
0 0 64
0 0 88
0 0 64
0 0 44
0 0 76
0 0 76
0 0 64
0 0 64
0 0 64
0 0 64
0 0 64
0 0 44
0 0 64
0 0 64
0 0 44
0 0 44
0 0 44
0 0 28
0 0 28
0 0 44
0 0 44
0 0 28
0 0 28
0 0 28
0 0 44
0 0 28
0 0 0
0 0 0
0 0 88
0 0 64
0 0 76
0 0 64
0 0 64
0 0 64
0 0 44
0 0 44
0 0 44
0 0 28
0 0 28
0 0 28
0 0 44
0 0 0
0 0 0
0 0 100
0 0 112
0 0 124
0 0 124
0 0 100
0 0 88
0 0 88
0 0 64
0 0 76
0 0 44
0 0 44
0 0 44
0 0 0
0 0 88
0 0 100
0 0 88
0 0 44
0 0 44
0 0 0

0 0 0
0 0 88
0 0 88
0 0 64
0 0 64
0 0 64
0 0 64
0 0 64
0 0 44
0 0 44
0 0 64
0 0 28
0 0 28
0 0 28
0 0 28
0 0 28
0 0 28
0 0 28
0 0 28
0 0 28
0 0 28
0 0 28
0 0 28
0 0 28
0 0 28
0 0 28
0 0 28
0 0 28
32 32 32
32 32 32
0 0 44
0 0 28
0 0 28
0 0 28
0 0 28
0 0 28
0 0 28
0 0 28
0 0 28
0 0 28
0 0 28
0 0 28
0 0 28
32 32 32
32 32 32
32 32 32
32 32 32
32 32 32
32 32 32
32 32 32
32 32 32
32 32 32
32 32 32
0 0 64
0 0 64
0 0 44
0 0 44
0 0 0
0 0 76
0 0 76
0 0 64
0 0 44
0 0 28
0 0 0

0 0 0
0 0 88
0 0 64
0 0 88
0 0 44
0 0 44
0 0 64
0 0 64
0 0 64
0 0 44
0 0 44
0 0 28
100 100 100
100 100 100
72 72 72
72 72 72
72 72 72
72 72 72
72 72 72
72 72 72
72 72 72
72 72 72
72 72 72
72 72 72
72 72 72
72 72 72
72 72 72
72 72 72
72 72 72
72 72 72
72 72 72
72 72 72
72 72 72
72 72 72
72 72 72
72 72 72
72 72 72
72 72 72
72 72 72
72 72 72
72 72 72
72 72 72
72 72 72
72 72 72
72 72 72
72 72 72
72 72 72
72 72 72
72 72 72
56 56 56
56 56 56
44 44 44
0 0 0
0 0 44
0 0 44
0 0 44
0 0 44
0 0 0
0 0 64
0 0 44
0 0 44
0 0 44
0 0 44
0 0 0

0 0 0
0 0 0
0 0 0
0 0 0
0 0 0
0 0 0
0 0 0
0 0 0
0 0 0
0 0 0
0 0 0
32 32 32
100 100 100
56 56 56
32 32 32
32 32 32
32 32 32
32 32 32
32 32 32
32 32 32
32 32 32
32 32 32
32 32 32
32 32 32
32 32 32
32 32 32
32 32 32
32 32 32
32 32 32
32 32 32
32 32 32
32 32 32
32 32 32
32 32 32
32 32 32
32 32 32
32 32 32
32 32 32
32 32 32
32 32 32
32 32 32
32 32 32
32 32 32
32 32 32
32 32 32
32 32 32
32 32 32
32 32 32
32 32 32
32 32 32
32 32 32
32 32 32
0 0 0
0 0 44
0 0 28
0 0 28
0 0 44
0 0 0
0 0 0
0 0 0
0 0 0
0 0 0
0 0 0
0 0 0

0 0 100
0 0 124
0 0 112
0 0 100
0 0 112
0 0 100
0 0 100
0 0 100
0 0 100
0 0 100
0 0 112
0 0 44
72 72 72
32 32 32
32 32 32
32 32 32
32 32 32
32 32 32
32 32 32
32 32 32
32 32 32
32 32 32
32 32 32
32 32 32
32 32 32
32 32 32
32 32 32
32 32 32
32 32 32
32 32 32
32 32 32
32 32 32
32 32 32
32 32 32
32 32 32
32 32 32
32 32 32
32 32 32
32 32 32
32 32 32
32 32 32
32 32 32
32 32 32
32 32 32
32 32 32
32 32 32
32 32 32
32 32 32
32 32 32
32 32 32
32 32 32
32 32 32
0 0 0
0 0 64
0 0 28
0 0 28
0 0 28
0 0 0
0 0 44
0 0 136
0 0 136
0 0 136
0 0 136
0 0 136

0 0 124
0 0 112
0 0 100
0 0 88
0 0 100
0 0 124
0 0 112
0 0 100
0 0 76
0 0 100
0 0 100
0 0 44
72 72 72
32 32 32
32 32 32
0 0 0
0 0 0
0 0 0
0 0 0
0 0 0
0 0 0
0 0 0
0 0 0
0 0 0
0 0 0
0 0 0
0 0 0
0 0 0
0 0 0
0 0 0
0 0 0
0 0 0
0 0 0
0 0 0
0 0 0
0 0 0
0 0 0
0 0 0
0 0 0
0 0 0
0 0 0
0 0 0
0 0 0
0 0 0
0 0 0
0 0 0
0 0 0
0 0 0
0 0 0
44 44 44
32 32 32
32 32 32
0 0 0
0 0 64
0 0 28
0 0 28
0 0 28
0 0 0
0 0 76
0 0 136
0 0 136
0 0 164
0 0 124
0 0 136

0 0 124
0 0 112
0 0 88
0 0 88
0 0 76
0 0 100
0 0 100
0 0 76
0 0 64
0 0 88
0 0 88
0 0 44
72 72 72
32 32 32
32 32 32
0 0 0
0 0 0
0 0 0
32 32 32
0 0 0
0 0 0
0 0 0
0 0 0
0 0 0
0 0 0
32 32 32
0 0 0
0 0 0
0 0 0
0 0 0
0 0 0
0 0 0
32 32 32
0 0 0
0 0 0
0 0 0
0 0 0
0 0 0
0 0 0
32 32 32
0 0 0
0 0 0
0 0 0
0 0 0
0 0 0
32 32 32
0 0 0
0 0 0
0 0 0
44 44 44
32 32 32
32 32 32
0 0 0
0 0 64
0 0 44
0 0 28
0 0 28
0 0 0
0 0 100
0 0 136
0 0 164
0 0 188
0 0 164
0 0 112

0 0 112
0 0 100
0 0 88
0 0 100
0 0 100
0 0 88
0 0 88
0 0 64
0 0 64
0 0 64
0 0 88
0 0 44
72 72 72
32 32 32
32 32 32
0 0 0
0 0 0
0 0 0
44 44 44
32 32 32
0 0 0
0 0 0
0 0 0
0 0 0
0 0 0
44 44 44
32 32 32
0 0 0
0 0 0
0 0 0
0 0 0
0 0 0
44 44 44
32 32 32
0 0 0
0 0 0
0 0 0
0 0 0
0 0 0
44 44 44
32 32 32
0 0 0
0 0 0
0 0 0
0 0 0
44 44 44
32 32 32
0 0 0
0 0 0
56 56 56
32 32 32
32 32 32
0 0 0
0 0 44
0 0 64
0 0 44
0 0 44
0 0 0
0 0 100
0 0 136
0 0 136
0 0 164
0 0 112
0 0 136

0 0 100
0 0 76
0 0 88
0 0 112
0 0 124
0 0 100
0 0 64
0 0 64
0 0 88
0 0 88
0 0 52
0 0 44
72 72 72
32 32 32
32 32 32
0 0 0
0 0 0
0 0 0
56 56 56
32 32 32
0 0 0
0 0 0
0 0 0
0 0 0
0 0 0
56 56 56
32 32 32
0 0 0
0 0 0
0 0 0
0 0 0
0 0 0
56 56 56
32 32 32
0 0 0
0 0 0
0 0 0
0 0 0
0 0 0
56 56 56
32 32 32
0 0 0
0 0 0
0 0 0
0 0 0
56 56 56
32 32 32
0 0 0
0 0 0
56 56 56
32 32 32
32 32 32
0 0 0
0 0 64
0 0 44
0 0 64
0 0 44
0 0 0
0 0 112
0 0 136
0 0 136
0 0 112
0 0 100
0 0 112

0 0 100
0 0 100
0 0 76
0 0 88
0 0 112
0 0 100
0 0 100
0 0 88
0 0 64
0 0 52
0 0 28
0 0 28
72 72 72
32 32 32
32 32 32
0 0 0
0 0 0
0 0 0
72 72 72
32 32 32
0 0 0
0 0 0
0 0 0
0 0 0
0 0 0
72 72 72
32 32 32
0 0 0
0 0 0
0 0 0
0 0 0
0 0 0
72 72 72
32 32 32
0 0 0
0 0 0
0 0 0
0 0 0
0 0 0
72 72 72
32 32 32
0 0 0
0 0 0
0 0 0
0 0 0
72 72 72
32 32 32
0 0 0
0 0 0
72 72 72
32 32 32
32 32 32
0 0 0
0 0 44
0 0 64
0 0 44
0 0 44
0 0 0
0 0 124
0 0 136
0 0 136
0 0 112
0 0 136
0 0 100

0 0 112
0 0 76
0 0 64
0 0 76
0 0 88
0 0 100
0 0 100
0 0 64
0 0 64
0 0 88
0 0 28
0 0 28
72 72 72
32 32 32
32 32 32
0 0 0
0 0 0
0 0 0
72 72 72
32 32 32
0 0 0
0 0 0
0 0 0
0 0 0
0 0 0
72 72 72
32 32 32
0 0 0
0 0 0
0 0 0
0 0 0
0 0 0
72 72 72
32 32 32
0 0 0
0 0 0
0 0 0
0 0 0
0 0 0
72 72 72
32 32 32
0 0 0
0 0 0
0 0 0
0 0 0
72 72 72
32 32 32
0 0 0
0 0 0
72 72 72
32 32 32
32 32 32
0 0 0
0 0 64
0 0 44
0 0 64
0 0 44
0 0 0
0 0 112
0 0 136
0 0 112
0 0 124
0 0 112
0 0 100

0 0 112
0 0 100
0 0 76
0 0 88
0 0 64
0 0 88
0 0 64
0 0 88
0 0 88
0 0 64
0 0 44
0 0 28
72 72 72
32 32 32
32 32 32
0 0 0
0 0 0
0 0 0
72 72 72
32 32 32
0 0 0
0 0 0
0 0 0
0 0 0
0 0 0
72 72 72
32 32 32
0 0 0
0 0 0
0 0 0
0 0 0
0 0 0
72 72 72
32 32 32
0 0 0
0 0 0
0 0 0
0 0 0
0 0 0
72 72 72
32 32 32
0 0 0
0 0 0
0 0 0
0 0 0
72 72 72
32 32 32
0 0 0
0 0 0
72 72 72
32 32 32
32 32 32
0 0 0
0 0 44
0 0 64
0 0 44
0 0 44
0 0 0
0 0 112
0 0 136
0 0 112
0 0 100
0 0 88
0 0 124

0 0 112
0 0 112
0 0 100
0 0 112
0 0 112
0 0 88
0 0 88
0 0 88
0 0 88
0 0 64
0 0 52
0 0 44
72 72 72
32 32 32
32 32 32
0 0 0
0 0 0
0 0 0
72 72 72
32 32 32
0 0 0
0 0 0
0 0 0
0 0 0
0 0 0
72 72 72
32 32 32
0 0 0
0 0 0
0 0 0
0 0 0
0 0 0
72 72 72
32 32 32
0 0 0
0 0 0
0 0 0
0 0 0
0 0 0
72 72 72
32 32 32
0 0 0
0 0 0
0 0 0
0 0 0
72 72 72
32 32 32
0 0 0
0 0 0
72 72 72
32 32 32
32 32 32
56 56 56
0 0 64
0 0 44
0 0 44
0 0 44
0 0 0
0 0 100
0 0 136
0 0 136
0 0 112
0 0 136
0 0 136

0 0 112
0 0 100
0 0 124
0 0 112
0 0 112
0 0 112
0 0 76
0 0 76
0 0 64
0 0 88
0 0 64
0 0 44
72 72 72
32 32 32
32 32 32
0 0 0
0 0 0
0 0 0
72 72 72
32 32 32
0 0 0
0 0 0
0 0 0
0 0 0
0 0 0
72 72 72
32 32 32
0 0 0
0 0 0
0 0 0
0 0 0
0 0 0
72 72 72
32 32 32
0 0 0
0 0 0
0 0 0
0 0 0
0 0 0
72 72 72
32 32 32
0 0 0
0 0 0
0 0 0
0 0 0
72 72 72
32 32 32
0 0 0
0 0 0
72 72 72
32 32 32
32 32 32
84 84 84
0 0 44
0 0 44
0 0 44
0 0 44
0 0 0
0 0 100
0 0 136
0 0 112
0 0 136
0 0 124
0 0 112

0 0 100
0 0 88
0 0 100
0 0 100
0 0 112
0 0 112
0 0 76
0 0 76
0 0 88
0 0 64
0 0 28
0 0 28
72 72 72
32 32 32
32 32 32
0 0 0
0 0 0
0 0 0
72 72 72
32 32 32
0 0 0
0 0 0
0 0 0
0 0 0
0 0 0
72 72 72
32 32 32
0 0 0
0 0 0
0 0 0
0 0 0
0 0 0
72 72 72
32 32 32
0 0 0
0 0 0
0 0 0
0 0 0
0 0 0
72 72 72
32 32 32
0 0 0
0 0 0
0 0 0
0 0 0
72 72 72
32 32 32
0 0 0
0 0 0
72 72 72
32 32 32
32 32 32
32 32 32
0 0 44
0 0 28
0 0 28
0 0 44
0 0 0
0 0 100
0 0 136
0 0 136
0 0 136
0 0 112
0 0 100

0 0 112
0 0 88
0 0 112
0 0 88
0 0 88
0 0 64
0 0 88
0 0 76
0 0 76
0 0 64
0 0 28
0 0 28
72 72 72
32 32 32
32 32 32
0 0 0
0 0 0
0 0 0
72 72 72
32 32 32
0 0 0
0 0 0
0 0 0
0 0 0
0 0 0
72 72 72
32 32 32
0 0 0
0 0 0
0 0 0
0 0 0
0 0 0
72 72 72
32 32 32
0 0 0
0 0 0
0 0 0
0 0 0
0 0 0
72 72 72
32 32 32
0 0 0
0 0 0
0 0 0
0 0 0
72 72 72
32 32 32
0 0 0
0 0 0
72 72 72
32 32 32
32 32 32
56 56 56
0 0 28
0 0 28
0 0 28
0 0 28
0 0 0
0 0 76
0 0 136
0 0 136
0 0 136
0 0 112
0 0 112

0 0 100
0 0 76
0 0 76
0 0 64
0 0 64
0 0 88
0 0 76
0 0 76
0 0 76
0 0 76
0 0 64
0 0 28
72 72 72
32 32 32
32 32 32
0 0 0
0 0 0
0 0 0
72 72 72
32 32 32
0 0 0
0 0 0
0 0 0
0 0 0
0 0 0
72 72 72
32 32 32
0 0 0
0 0 0
0 0 0
0 0 0
0 0 0
72 72 72
32 32 32
0 0 0
0 0 0
0 0 0
0 0 0
0 0 0
72 72 72
32 32 32
0 0 0
0 0 0
0 0 0
0 0 0
72 72 72
32 32 32
0 0 0
0 0 0
72 72 72
32 32 32
32 32 32
84 84 84
0 0 28
0 0 28
0 0 28
0 0 28
0 0 0
0 0 76
0 0 136
0 0 112
0 0 136
0 0 136
0 0 100

0 0 100
0 0 88
0 0 76
0 0 64
0 0 88
0 0 64
0 0 88
0 0 76
0 0 88
0 0 100
0 0 64
0 0 44
72 72 72
32 32 32
32 32 32
0 0 0
0 0 0
0 0 0
72 72 72
32 32 32
0 0 0
0 0 0
0 0 0
0 0 0
0 0 0
72 72 72
32 32 32
0 0 0
0 0 0
0 0 0
0 0 0
0 0 0
72 72 72
32 32 32
0 0 0
0 0 0
0 0 0
0 0 0
0 0 0
72 72 72
32 32 32
0 0 0
0 0 0
0 0 0
0 0 0
72 72 72
32 32 32
0 0 0
0 0 0
72 72 72
32 32 32
32 32 32
56 56 56
0 0 44
0 0 28
0 0 28
0 0 28
0 0 0
0 0 76
0 0 136
0 0 136
0 0 124
0 0 112
0 0 112

0 0 88
0 0 76
0 0 88
0 0 88
0 0 76
0 0 64
0 0 64
0 0 44
0 0 88
0 0 52
0 0 52
0 0 64
72 72 72
32 32 32
32 32 32
0 0 0
0 0 0
0 0 0
72 72 72
32 32 32
0 0 0
0 0 0
0 0 0
0 0 0
0 0 0
72 72 72
32 32 32
0 0 0
0 0 0
0 0 0
0 0 0
0 0 0
72 72 72
32 32 32
0 0 0
0 0 0
0 0 0
0 0 0
0 0 0
72 72 72
32 32 32
0 0 0
0 0 0
0 0 0
0 0 0
72 72 72
32 32 32
0 0 0
0 0 0
72 72 72
32 32 32
32 32 32
0 0 0
0 0 44
0 0 44
0 0 28
0 0 28
0 0 0
0 0 76
0 0 136
0 0 136
0 0 112
0 0 88
0 0 100

0 0 88
0 0 76
0 0 76
0 0 64
0 0 76
0 0 76
0 0 64
0 0 64
0 0 64
0 0 52
0 0 52
0 0 52
72 72 72
32 32 32
32 32 32
0 0 0
0 0 0
0 0 0
72 72 72
32 32 32
0 0 0
0 0 0
0 0 0
0 0 0
0 0 0
72 72 72
32 32 32
0 0 0
0 0 0
0 0 0
0 0 0
0 0 0
72 72 72
32 32 32
0 0 0
0 0 0
0 0 0
0 0 0
0 0 0
72 72 72
32 32 32
0 0 0
0 0 0
0 0 0
0 0 0
72 72 72
32 32 32
0 0 0
0 0 0
72 72 72
32 32 32
32 32 32
0 0 0
0 0 64
0 0 64
0 0 44
0 0 44
0 0 0
0 0 76
0 0 136
0 0 112
0 0 136
0 0 112
0 0 88

0 0 88
0 0 76
0 0 100
0 0 88
0 0 100
0 0 88
0 0 64
0 0 44
0 0 64
0 0 64
0 0 52
0 0 52
72 72 72
32 32 32
32 32 32
44 44 44
56 56 56
72 72 72
56 56 56
32 32 32
44 44 44
44 44 44
0 0 0
0 0 0
0 0 0
72 72 72
32 32 32
0 0 0
0 0 0
0 0 0
0 0 0
0 0 0
72 72 72
32 32 32
0 0 0
0 0 0
0 0 0
0 0 0
0 0 0
72 72 72
32 32 32
0 0 0
0 0 0
0 0 0
0 0 0
72 72 72
32 32 32
0 0 0
0 0 0
72 72 72
32 32 32
32 32 32
0 0 0
0 0 44
0 0 64
0 0 44
0 0 44
0 0 0
0 0 76
0 0 136
0 0 112
0 0 136
0 0 76
0 0 76

0 0 88
0 0 100
0 0 88
0 0 76
0 0 88
0 0 100
0 0 76
0 0 64
0 0 44
0 0 64
0 0 64
0 0 64
72 72 72
32 32 32
32 32 32
32 32 32
32 32 32
32 32 32
32 32 32
32 32 32
32 32 32
32 32 32
0 0 0
0 0 0
0 0 0
72 72 72
32 32 32
0 0 0
0 0 0
0 0 0
0 0 0
0 0 0
72 72 72
32 32 32
0 0 0
0 0 0
0 0 0
0 0 0
0 0 0
72 72 72
32 32 32
0 0 0
0 0 0
0 0 0
0 0 0
72 72 72
32 32 32
0 0 0
0 0 0
72 72 72
32 32 32
32 32 32
0 0 0
0 0 76
0 0 44
0 0 44
0 0 28
0 0 0
0 0 76
0 0 136
0 0 136
0 0 76
0 0 88
0 0 76

0 0 64
0 0 88
0 0 88
0 0 76
0 0 64
0 0 76
0 0 76
0 0 64
0 0 64
0 0 44
0 0 44
0 0 44
72 72 72
32 32 32
32 32 32
32 32 32
32 32 32
32 32 32
32 32 32
32 32 32
32 32 32
32 32 32
0 0 0
0 0 0
0 0 0
72 72 72
32 32 32
0 0 0
0 0 0
0 0 0
0 0 0
0 0 0
72 72 72
32 32 32
0 0 0
0 0 0
0 0 0
0 0 0
0 0 0
72 72 72
32 32 32
0 0 0
0 0 0
0 0 0
0 0 0
72 72 72
32 32 32
0 0 0
0 0 0
72 72 72
32 32 32
32 32 32
0 0 0
0 0 76
0 0 64
0 0 44
0 0 44
0 0 0
0 0 44
0 0 136
0 0 112
0 0 136
0 0 88
0 0 88

0 0 64
0 0 76
0 0 76
0 0 64
0 0 44
0 0 64
0 0 44
0 0 64
0 0 64
0 0 44
0 0 28
0 0 44
72 72 72
32 32 32
32 32 32
32 32 32
32 32 32
32 32 32
32 32 32
32 32 32
32 32 32
32 32 32
0 0 0
0 0 0
0 0 0
72 72 72
32 32 32
0 0 0
0 0 0
0 0 0
0 0 0
0 0 0
72 72 72
32 32 32
0 0 0
0 0 0
0 0 0
0 0 0
0 0 0
72 72 72
32 32 32
0 0 0
0 0 0
0 0 0
0 0 0
72 72 72
32 32 32
0 0 0
0 0 0
72 72 72
32 32 32
32 32 32
0 0 0
0 0 64
0 0 44
0 0 64
0 0 44
0 0 0
0 0 44
0 0 136
0 0 112
0 0 88
0 0 88
0 0 76

0 0 64
0 0 76
0 0 44
0 0 44
0 0 64
0 0 44
0 0 52
0 0 64
0 0 28
0 0 28
0 0 44
0 0 44
72 72 72
32 32 32
32 32 32
32 32 32
32 32 32
32 32 32
0 0 0
32 32 32
32 32 32
32 32 32
0 0 0
0 0 0
0 0 0
72 72 72
32 32 32
0 0 0
0 0 0
0 0 0
0 0 0
0 0 0
72 72 72
32 32 32
0 0 0
0 0 0
0 0 0
0 0 0
0 0 0
72 72 72
32 32 32
0 0 0
0 0 0
0 0 0
0 0 0
72 72 72
32 32 32
0 0 0
0 0 0
72 72 72
32 32 32
32 32 32
0 0 0
0 0 44
0 0 64
0 0 44
0 0 28
0 0 0
0 0 44
0 0 112
0 0 112
0 0 88
0 0 76
0 0 76

0 0 64
0 0 88
0 0 64
0 0 44
0 0 52
0 0 44
0 0 44
0 0 44
0 0 28
0 0 28
0 0 28
0 0 28
72 72 72
32 32 32
32 32 32
0 0 0
32 32 32
0 0 0
0 0 0
0 0 0
32 32 32
32 32 32
0 0 0
0 0 0
0 0 0
72 72 72
32 32 32
0 0 0
0 0 0
0 0 0
0 0 0
0 0 0
72 72 72
32 32 32
0 0 0
0 0 0
0 0 0
0 0 0
0 0 0
72 72 72
32 32 32
0 0 0
0 0 0
0 0 0
0 0 0
72 72 72
32 32 32
0 0 0
0 0 0
72 72 72
32 32 32
32 32 32
0 0 0
0 0 64
0 0 44
0 0 64
0 0 28
0 0 0
0 0 44
0 0 112
0 0 88
0 0 76
0 0 88
0 0 76

0 0 64
0 0 76
0 0 88
0 0 76
0 0 44
0 0 52
0 0 44
0 0 44
0 0 44
0 0 28
0 0 28
0 0 28
72 72 72
32 32 32
32 32 32
0 0 0
32 32 32
0 0 0
0 0 0
0 0 0
32 32 32
32 32 32
0 0 0
0 0 0
0 0 0
72 72 72
32 32 32
0 0 0
0 0 0
0 0 0
0 0 0
0 0 0
72 72 72
32 32 32
0 0 0
0 0 0
0 0 0
0 0 0
0 0 0
72 72 72
32 32 32
0 0 0
0 0 0
0 0 0
0 0 0
72 72 72
32 32 32
0 0 0
0 0 0
72 72 72
32 32 32
32 32 32
0 0 0
0 0 44
0 0 64
0 0 44
0 0 44
0 0 0
0 0 44
0 0 112
0 0 88
0 0 88
0 0 88
0 0 76

0 0 64
0 0 88
0 0 76
0 0 64
0 0 44
0 0 44
0 0 52
0 0 44
0 0 44
0 0 44
0 0 28
0 0 28
72 72 72
32 32 32
32 32 32
32 32 32
32 32 32
0 0 0
32 32 32
0 0 0
32 32 32
32 32 32
0 0 0
0 0 0
0 0 0
72 72 72
32 32 32
0 0 0
0 0 0
0 0 0
0 0 0
0 0 0
72 72 72
32 32 32
0 0 0
0 0 0
0 0 0
0 0 0
0 0 0
72 72 72
32 32 32
0 0 0
0 0 0
0 0 0
0 0 0
72 72 72
32 32 32
0 0 0
0 0 0
72 72 72
32 32 32
32 32 32
0 0 0
0 0 44
0 0 44
0 0 44
0 0 44
0 0 0
0 0 44
0 0 88
0 0 88
0 0 88
0 0 64
0 0 88

0 0 0
0 0 0
0 0 0
0 0 0
0 0 0
0 0 0
0 0 0
0 0 0
0 0 0
0 0 0
0 0 0
32 32 32
72 72 72
32 32 32
32 32 32
32 32 32
32 32 32
0 0 0
56 56 56
0 0 0
32 32 32
32 32 32
0 0 0
0 0 0
0 0 0
72 72 72
32 32 32
0 0 0
0 0 0
0 0 0
0 0 0
0 0 0
72 72 72
32 32 32
0 0 0
0 0 0
0 0 0
0 0 0
0 0 0
72 72 72
32 32 32
0 0 0
0 0 0
0 0 0
0 0 0
72 72 72
32 32 32
0 0 0
0 0 0
72 72 72
32 32 32
32 32 32
0 0 0
0 0 44
0 0 28
0 0 28
0 0 28
0 0 0
0 0 0
0 0 0
0 0 0
0 0 0
0 0 0
0 0 0

0 0 0
0 0 0
0 0 0
0 0 0
0 0 0
0 0 0
0 0 44
0 0 44
0 0 44
0 0 44
0 0 76
32 32 32
72 72 72
32 32 32
32 32 32
32 32 32
32 32 32
32 32 32
0 0 0
32 32 32
32 32 32
32 32 32
0 0 0
0 0 0
0 0 0
72 72 72
32 32 32
0 0 0
0 0 0
0 0 0
0 0 0
0 0 0
72 72 72
32 32 32
0 0 0
0 0 0
0 0 0
0 0 0
0 0 0
72 72 72
32 32 32
0 0 0
0 0 0
0 0 0
0 0 0
72 72 72
32 32 32
0 0 0
0 0 0
72 72 72
32 32 32
32 32 32
0 0 0
0 0 44
0 0 28
0 0 28
0 0 28
0 0 0
0 0 0
0 0 28
0 0 44
0 0 44
0 0 28
0 0 0

0 0 0
0 0 0
0 0 88
0 0 100
0 0 112
0 0 124
0 0 124
0 0 124
0 0 124
0 0 124
0 0 124
0 0 44
72 72 72
32 32 32
32 32 32
32 32 32
32 32 32
32 32 32
32 32 32
32 32 32
32 32 32
32 32 32
0 0 0
0 0 0
0 0 0
72 72 72
32 32 32
0 0 0
0 0 0
0 0 0
0 0 0
0 0 0
72 72 72
32 32 32
0 0 0
0 0 0
0 0 0
0 0 0
0 0 0
72 72 72
32 32 32
0 0 0
0 0 0
0 0 0
0 0 0
72 72 72
32 32 32
0 0 0
0 0 0
72 72 72
32 32 32
32 32 32
0 0 0
0 0 28
0 0 44
0 0 28
0 0 28
0 0 0
0 0 0
0 0 44
0 0 44
0 0 64
0 0 44
0 0 0

0 0 0
0 0 0
0 0 100
0 0 124
0 0 124
0 0 124
0 0 124
0 0 124
0 0 112
0 0 100
0 0 112
0 0 44
72 72 72
32 32 32
32 32 32
32 32 32
32 32 32
32 32 32
32 32 32
32 32 32
32 32 32
32 32 32
0 0 0
0 0 0
0 0 0
72 72 72
32 32 32
0 0 0
0 0 0
0 0 0
0 0 0
0 0 0
72 72 72
32 32 32
0 0 0
0 0 0
0 0 0
0 0 0
0 0 0
72 72 72
32 32 32
0 0 0
0 0 0
0 0 0
0 0 0
72 72 72
32 32 32
0 0 0
0 0 0
72 72 72
32 32 32
32 32 32
0 0 0
0 0 0
0 0 0
0 0 0
0 0 0
0 0 0
0 0 0
0 0 28
0 0 44
0 0 44
0 0 28
0 0 0

0 0 0
0 0 0
0 0 100
0 0 124
0 0 112
0 0 112
0 0 100
0 0 112
0 0 112
0 0 124
0 0 124
0 0 44
72 72 72
32 32 32
32 32 32
32 32 32
32 32 32
32 32 32
32 32 32
32 32 32
32 32 32
32 32 32
0 0 0
0 0 0
0 0 0
72 72 72
32 32 32
0 0 0
0 0 0
0 0 0
0 0 0
0 0 0
72 72 72
32 32 32
0 0 0
0 0 0
0 0 0
0 0 0
0 0 0
72 72 72
32 32 32
0 0 0
0 0 0
0 0 0
0 0 0
72 72 72
32 32 32
0 0 0
0 0 0
72 72 72
32 32 32
32 32 32
0 0 0
0 0 0
0 0 0
0 0 0
0 0 0
0 0 0
0 0 0
0 0 0
0 0 0
0 0 0
0 0 0
0 0 0

0 0 0
0 0 0
0 0 124
0 0 124
0 0 124
0 0 112
0 0 112
0 0 124
0 0 124
0 0 112
0 0 112
0 0 44
72 72 72
32 32 32
32 32 32
0 0 0
0 0 0
0 0 0
0 0 0
0 0 0
0 0 0
0 0 0
0 0 0
0 0 0
0 0 0
72 72 72
32 32 32
0 0 0
0 0 0
0 0 0
0 0 0
0 0 0
72 72 72
32 32 32
0 0 0
0 0 0
0 0 0
0 0 0
0 0 0
72 72 72
32 32 32
0 0 0
0 0 0
0 0 0
0 0 0
72 72 72
32 32 32
0 0 0
0 0 0
72 72 72
32 32 32
32 32 32
0 0 0
0 0 124
0 0 124
0 0 124
0 0 124
0 0 124
0 0 124
0 0 112
0 0 112
0 0 112
0 0 100
0 0 0

0 0 0
0 0 0
0 0 124
0 0 100
0 0 112
0 0 100
0 0 112
0 0 112
0 0 112
0 0 112
0 0 112
0 0 44
72 72 72
32 32 32
32 32 32
0 0 0
0 0 0
0 0 0
32 32 32
32 32 32
0 0 0
0 0 0
0 0 0
0 0 0
0 0 0
72 72 72
32 32 32
0 0 0
0 0 0
0 0 0
0 0 0
0 0 0
72 72 72
32 32 32
0 0 0
0 0 0
0 0 0
0 0 0
0 0 0
72 72 72
32 32 32
0 0 0
0 0 0
0 0 0
0 0 0
72 72 72
32 32 32
0 0 0
0 0 0
72 72 72
32 32 32
32 32 32
0 0 0
0 0 100
0 0 112
0 0 112
0 0 112
0 0 100
0 0 100
0 0 112
0 0 124
0 0 100
0 0 76
0 0 0

0 0 0
0 0 0
0 0 124
0 0 124
0 0 112
0 0 88
0 0 76
0 0 112
0 0 112
0 0 88
0 0 124
0 0 44
72 72 72
32 32 32
32 32 32
0 0 0
0 0 0
0 0 0
44 44 44
32 32 32
0 0 0
0 0 0
0 0 0
0 0 0
0 0 0
72 72 72
32 32 32
0 0 0
0 0 0
0 0 0
0 0 0
0 0 0
72 72 72
32 32 32
0 0 0
0 0 0
0 0 0
0 0 0
0 0 0
72 72 72
32 32 32
0 0 0
0 0 0
0 0 0
0 0 0
72 72 72
32 32 32
0 0 0
0 0 0
72 72 72
32 32 32
32 32 32
0 0 0
0 0 100
0 0 100
0 0 112
0 0 100
0 0 88
0 0 124
0 0 124
0 0 88
0 0 88
0 0 76
0 0 0

0 0 0
0 0 0
0 0 124
0 0 124
0 0 88
0 0 100
0 0 124
0 0 112
0 0 76
0 0 100
0 0 112
0 0 44
72 72 72
32 32 32
32 32 32
0 0 0
0 0 0
0 0 0
56 56 56
32 32 32
0 0 0
0 0 0
0 0 0
0 0 0
0 0 0
72 72 72
32 32 32
0 0 0
0 0 0
0 0 0
0 0 0
0 0 0
72 72 72
32 32 32
0 0 0
0 0 0
0 0 0
0 0 0
0 0 0
72 72 72
32 32 32
0 0 0
0 0 0
0 0 0
0 0 0
72 72 72
32 32 32
0 0 0
0 0 0
72 72 72
32 32 32
32 32 32
0 0 0
0 0 88
0 0 100
0 0 112
0 0 88
0 0 76
0 0 64
0 0 88
0 0 44
0 0 76
0 0 64
0 0 0

0 0 0
0 0 0
0 0 124
0 0 124
0 0 124
0 0 124
0 0 100
0 0 76
0 0 124
0 0 76
0 0 112
0 0 44
72 72 72
32 32 32
32 32 32
0 0 0
0 0 0
0 0 0
72 72 72
32 32 32
0 0 0
0 0 0
0 0 0
0 0 0
0 0 0
72 72 72
32 32 32
0 0 0
0 0 0
0 0 0
0 0 0
0 0 0
72 72 72
32 32 32
0 0 0
0 0 0
0 0 0
0 0 0
0 0 0
72 72 72
32 32 32
0 0 0
0 0 0
0 0 0
0 0 0
72 72 72
32 32 32
0 0 0
0 0 0
72 72 72
32 32 32
32 32 32
56 56 56
0 0 100
0 0 112
0 0 100
0 0 88
0 0 88
0 0 100
0 0 64
0 0 64
0 0 64
0 0 44
0 0 0

0 0 0
0 0 0
0 0 124
0 0 100
0 0 124
0 0 88
0 0 100
0 0 100
0 0 124
0 0 112
0 0 88
0 0 28
72 72 72
32 32 32
32 32 32
0 0 0
0 0 0
0 0 0
72 72 72
32 32 32
0 0 0
0 0 0
0 0 0
0 0 0
0 0 0
72 72 72
32 32 32
0 0 0
0 0 0
0 0 0
0 0 0
0 0 0
72 72 72
32 32 32
0 0 0
0 0 0
0 0 0
0 0 0
0 0 0
72 72 72
32 32 32
0 0 0
0 0 0
0 0 0
0 0 0
72 72 72
32 32 32
0 0 0
0 0 0
72 72 72
32 32 32
32 32 32
84 84 84
0 0 100
0 0 88
0 0 88
0 0 76
0 0 100
0 0 76
0 0 76
0 0 88
0 0 44
0 0 44
0 0 0

0 0 0
0 0 0
0 0 124
0 0 112
0 0 88
0 0 88
0 0 124
0 0 136
0 0 124
0 0 100
0 0 76
0 0 28
72 72 72
32 32 32
32 32 32
0 0 0
0 0 0
0 0 0
72 72 72
32 32 32
0 0 0
0 0 0
0 0 0
0 0 0
0 0 0
72 72 72
32 32 32
0 0 0
0 0 0
0 0 0
0 0 0
0 0 0
72 72 72
32 32 32
0 0 0
0 0 0
0 0 0
0 0 0
0 0 0
72 72 72
32 32 32
0 0 0
0 0 0
0 0 0
0 0 0
72 72 72
32 32 32
0 0 0
0 0 0
72 72 72
32 32 32
32 32 32
32 32 32
0 0 112
0 0 100
0 0 88
0 0 112
0 0 64
0 0 44
0 0 88
0 0 88
0 0 44
0 0 44
0 0 0

0 0 0
0 0 0
0 0 124
0 0 100
0 0 124
0 0 100
0 0 136
0 0 176
0 0 136
0 0 88
0 0 88
0 0 28
72 72 72
32 32 32
32 32 32
0 0 0
0 0 0
0 0 0
72 72 72
32 32 32
0 0 0
0 0 0
0 0 0
0 0 0
0 0 0
72 72 72
32 32 32
0 0 0
0 0 0
0 0 0
0 0 0
0 0 0
72 72 72
32 32 32
0 0 0
0 0 0
0 0 0
0 0 0
0 0 0
72 72 72
32 32 32
0 0 0
0 0 0
0 0 0
0 0 0
72 72 72
32 32 32
0 0 0
0 0 0
72 72 72
32 32 32
32 32 32
56 56 56
0 0 88
0 0 64
0 0 88
0 0 64
0 0 76
0 0 88
0 0 88
0 0 64
0 0 44
0 0 64
0 0 0

0 0 0
0 0 0
0 0 124
0 0 112
0 0 124
0 0 100
0 0 124
0 0 136
0 0 124
0 0 100
0 0 64
0 0 28
72 72 72
32 32 32
32 32 32
0 0 0
0 0 0
0 0 0
72 72 72
32 32 32
0 0 0
0 0 0
0 0 0
0 0 0
0 0 0
72 72 72
32 32 32
0 0 0
0 0 0
0 0 0
0 0 0
0 0 0
72 72 72
32 32 32
0 0 0
0 0 0
0 0 0
0 0 0
0 0 0
72 72 72
32 32 32
0 0 0
0 0 0
0 0 0
0 0 0
72 72 72
32 32 32
0 0 0
0 0 0
72 72 72
32 32 32
32 32 32
84 84 84
0 0 76
0 0 100
0 0 76
0 0 64
0 0 76
0 0 100
0 0 76
0 0 44
0 0 64
0 0 44
0 0 0

0 0 0
0 0 0
0 0 124
0 0 100
0 0 124
0 0 100
0 0 112
0 0 112
0 0 76
0 0 76
0 0 76
0 0 28
72 72 72
32 32 32
32 32 32
0 0 0
0 0 0
0 0 0
72 72 72
32 32 32
0 0 0
0 0 0
0 0 0
0 0 0
0 0 0
72 72 72
32 32 32
0 0 0
0 0 0
0 0 0
0 0 0
0 0 0
72 72 72
32 32 32
0 0 0
0 0 0
0 0 0
0 0 0
0 0 0
72 72 72
32 32 32
0 0 0
0 0 0
0 0 0
0 0 0
72 72 72
32 32 32
0 0 0
0 0 0
72 72 72
32 32 32
32 32 32
56 56 56
0 0 64
0 0 76
0 0 88
0 0 88
0 0 88
0 0 76
0 0 44
0 0 64
0 0 64
0 0 44
0 0 0

0 0 0
0 0 0
0 0 100
0 0 124
0 0 100
0 0 88
0 0 100
0 0 64
0 0 64
0 0 100
0 0 76
0 0 28
72 72 72
32 32 32
32 32 32
0 0 0
0 0 0
0 0 0
72 72 72
32 32 32
0 0 0
0 0 0
0 0 0
0 0 0
0 0 0
72 72 72
32 32 32
0 0 0
0 0 0
0 0 0
0 0 0
0 0 0
72 72 72
32 32 32
0 0 0
0 0 0
0 0 0
0 0 0
0 0 0
72 72 72
32 32 32
0 0 0
0 0 0
0 0 0
0 0 0
72 72 72
32 32 32
0 0 0
0 0 0
72 72 72
32 32 32
32 32 32
0 0 0
0 0 44
0 0 64
0 0 76
0 0 88
0 0 64
0 0 44
0 0 44
0 0 44
0 0 44
0 0 64
0 0 0

0 0 0
0 0 0
0 0 124
0 0 100
0 0 124
0 0 112
0 0 76
0 0 76
0 0 112
0 0 64
0 0 64
0 0 28
72 72 72
32 32 32
32 32 32
0 0 0
0 0 0
0 0 0
72 72 72
32 32 32
0 0 0
0 0 0
0 0 0
0 0 0
0 0 0
72 72 72
32 32 32
0 0 0
0 0 0
0 0 0
0 0 0
0 0 0
72 72 72
32 32 32
0 0 0
0 0 0
0 0 0
0 0 0
0 0 0
72 72 72
32 32 32
0 0 0
0 0 0
0 0 0
0 0 0
72 72 72
32 32 32
0 0 0
0 0 0
72 72 72
32 32 32
32 32 32
0 0 0
0 0 44
0 0 44
0 0 64
0 0 64
0 0 64
0 0 44
0 0 64
0 0 28
0 0 28
0 0 44
0 0 0

0 0 0
0 0 0
0 0 124
0 0 100
0 0 124
0 0 100
0 0 88
0 0 76
0 0 64
0 0 44
0 0 28
0 0 28
72 72 72
32 32 32
32 32 32
0 0 0
0 0 0
0 0 0
72 72 72
32 32 32
0 0 0
0 0 0
0 0 0
0 0 0
0 0 0
72 72 72
32 32 32
0 0 0
0 0 0
0 0 0
0 0 0
0 0 0
72 72 72
32 32 32
0 0 0
0 0 0
0 0 0
0 0 0
0 0 0
72 72 72
32 32 32
0 0 0
0 0 0
0 0 0
0 0 0
72 72 72
32 32 32
0 0 0
0 0 0
72 72 72
32 32 32
32 32 32
0 0 0
0 0 64
0 0 44
0 0 44
0 0 64
0 0 64
0 0 64
0 0 44
0 0 28
0 0 28
0 0 28
0 0 0

0 0 0
0 0 0
0 0 112
0 0 100
0 0 76
0 0 76
0 0 76
0 0 100
0 0 44
0 0 28
0 0 28
0 0 28
72 72 72
32 32 32
32 32 32
0 0 0
0 0 0
0 0 0
72 72 72
32 32 32
0 0 0
0 0 0
0 0 0
0 0 0
0 0 0
72 72 72
32 32 32
0 0 0
0 0 0
0 0 0
0 0 0
0 0 0
72 72 72
32 32 32
0 0 0
0 0 0
0 0 0
0 0 0
0 0 0
72 72 72
32 32 32
0 0 0
0 0 0
0 0 0
0 0 0
72 72 72
32 32 32
0 0 0
0 0 0
72 72 72
32 32 32
32 32 32
0 0 0
0 0 64
0 0 44
0 0 64
0 0 44
0 0 64
0 0 44
0 0 64
0 0 44
0 0 28
0 0 28
0 0 0

0 0 0
0 0 0
0 0 112
0 0 100
0 0 44
0 0 44
0 0 76
0 0 44
0 0 100
0 0 64
0 0 28
0 0 28
72 72 72
32 32 32
32 32 32
0 0 0
0 0 0
0 0 0
72 72 72
32 32 32
0 0 0
0 0 0
0 0 0
0 0 0
0 0 0
72 72 72
32 32 32
0 0 0
0 0 0
0 0 0
0 0 0
0 0 0
72 72 72
32 32 32
0 0 0
0 0 0
0 0 0
0 0 0
0 0 0
72 72 72
32 32 32
0 0 0
0 0 0
0 0 0
0 0 0
72 72 72
32 32 32
0 0 0
0 0 0
72 72 72
32 32 32
32 32 32
0 0 0
0 0 64
0 0 44
0 0 44
0 0 44
0 0 44
0 0 64
0 0 44
0 0 64
0 0 44
0 0 44
0 0 0

0 0 0
0 0 0
0 0 100
0 0 100
0 0 76
0 0 76
0 0 44
0 0 76
0 0 64
0 0 44
0 0 64
0 0 44
72 72 72
32 32 32
32 32 32
0 0 0
0 0 0
0 0 0
56 56 56
32 32 32
0 0 0
0 0 0
0 0 0
0 0 0
0 0 0
56 56 56
32 32 32
0 0 0
0 0 0
0 0 0
0 0 0
0 0 0
56 56 56
32 32 32
0 0 0
0 0 0
0 0 0
0 0 0
0 0 0
56 56 56
32 32 32
0 0 0
0 0 0
0 0 0
0 0 0
56 56 56
32 32 32
0 0 0
0 0 0
84 84 84
44 44 44
32 32 32
0 0 0
0 0 44
0 0 64
0 0 44
0 0 28
0 0 28
0 0 44
0 0 44
0 0 44
0 0 44
0 0 44
0 0 0

32 32 32
32 32 32
0 0 100
0 0 88
0 0 64
0 0 76
0 0 88
0 0 44
0 0 44
0 0 64
0 0 44
0 0 44
56 56 56
32 32 32
32 32 32
56 56 56
56 56 56
72 72 72
72 72 72
72 72 72
72 72 72
72 72 72
72 72 72
72 72 72
72 72 72
72 72 72
72 72 72
72 72 72
72 72 72
72 72 72
72 72 72
72 72 72
72 72 72
72 72 72
72 72 72
72 72 72
72 72 72
72 72 72
72 72 72
72 72 72
72 72 72
72 72 72
72 72 72
72 72 72
72 72 72
72 72 72
72 72 72
72 72 72
84 84 84
84 84 84
44 44 44
32 32 32
0 0 28
0 0 64
0 0 44
0 0 44
0 0 28
0 0 28
0 0 28
0 0 44
0 0 44
0 0 44
0 0 44
32 32 32

44 44 44
44 44 44
0 0 88
0 0 64
0 0 52
0 0 76
0 0 52
0 0 76
0 0 52
0 0 52
0 0 52
0 0 52
44 44 44
32 32 32
32 32 32
32 32 32
32 32 32
32 32 32
32 32 32
32 32 32
32 32 32
32 32 32
32 32 32
32 32 32
32 32 32
32 32 32
32 32 32
32 32 32
32 32 32
32 32 32
32 32 32
32 32 32
32 32 32
32 32 32
32 32 32
32 32 32
32 32 32
32 32 32
32 32 32
32 32 32
32 32 32
32 32 32
32 32 32
32 32 32
32 32 32
32 32 32
32 32 32
32 32 32
32 32 32
44 44 44
44 44 44
32 32 32
0 0 28
0 0 28
0 0 52
0 0 52
0 0 52
0 0 52
0 0 52
0 0 52
0 0 52
0 0 52
0 0 52
44 44 44

72 72 72
72 72 72
72 72 72
72 72 72
72 72 72
72 72 72
72 72 72
72 72 72
72 72 72
72 72 72
72 72 72
72 72 72
72 72 72
72 72 72
72 72 72
72 72 72
72 72 72
72 72 72
72 72 72
72 72 72
72 72 72
72 72 72
72 72 72
72 72 72
72 72 72
72 72 72
72 72 72
72 72 72
72 72 72
72 72 72
72 72 72
72 72 72
72 72 72
72 72 72
72 72 72
72 72 72
72 72 72
72 72 72
72 72 72
72 72 72
72 72 72
72 72 72
72 72 72
72 72 72
72 72 72
72 72 72
72 72 72
72 72 72
72 72 72
72 72 72
72 72 72
72 72 72
72 72 72
72 72 72
72 72 72
72 72 72
72 72 72
72 72 72
72 72 72
72 72 72
72 72 72
72 72 72
72 72 72
72 72 72

