P3
# ASCII PPM file
64 64
255

84 84 84
84 84 84
84 84 84
84 84 84
84 84 84
84 84 84
84 84 84
84 84 84
84 84 84
84 84 84
84 84 84
84 84 84
84 84 84
84 84 84
84 84 84
84 84 84
84 84 84
84 84 84
84 84 84
84 84 84
84 84 84
84 84 84
84 84 84
84 84 84
84 84 84
84 84 84
84 84 84
84 84 84
84 84 84
84 84 84
84 84 84
84 84 84
84 84 84
84 84 84
84 84 84
84 84 84
84 84 84
84 84 84
84 84 84
84 84 84
84 84 84
84 84 84
84 84 84
84 84 84
84 84 84
84 84 84
84 84 84
84 84 84
84 84 84
84 84 84
84 84 84
84 84 84
84 84 84
84 84 84
84 84 84
84 84 84
84 84 84
84 84 84
84 84 84
84 84 84
84 84 84
84 84 84
84 84 84
84 84 84

156 220 220
0 168 168
0 168 168
0 168 168
0 168 168
0 168 168
32 180 180
32 180 180
32 180 180
32 180 180
32 180 180
72 192 192
72 192 192
72 192 192
32 180 180
72 192 192
72 192 192
72 192 192
32 180 180
72 192 192
32 180 180
72 192 192
32 180 180
72 192 192
32 180 180
32 180 180
32 180 180
32 180 180
32 180 180
32 180 180
32 180 180
32 180 180
32 180 180
32 180 180
32 180 180
32 180 180
0 168 168
0 168 168
0 168 168
0 168 168
0 168 168
0 168 168
0 168 168
0 168 168
0 168 168
0 168 168
0 168 168
0 168 168
0 168 168
0 168 168
0 168 168
0 168 168
0 168 168
0 168 168
0 168 168
0 168 168
0 168 168
0 168 168
0 168 168
0 168 168
0 168 168
0 168 168
0 168 168
0 88 88

156 220 220
0 164 164
0 168 168
0 168 168
116 200 200
116 200 200
0 164 164
0 168 168
32 180 180
32 180 180
32 180 180
32 180 180
72 192 192
32 180 180
72 192 192
32 180 180
72 192 192
32 180 180
72 192 192
72 192 192
72 192 192
72 192 192
72 192 192
32 180 180
72 192 192
32 180 180
72 192 192
32 180 180
72 192 192
32 180 180
72 192 192
32 180 180
32 180 180
32 180 180
32 180 180
32 180 180
32 180 180
32 180 180
32 180 180
32 180 180
32 180 180
32 180 180
32 180 180
32 180 180
32 180 180
32 180 180
32 180 180
0 168 168
0 168 168
0 168 168
0 168 168
0 168 168
0 168 168
0 168 168
0 168 168
0 168 168
0 168 168
0 168 168
116 200 200
116 200 200
0 164 164
0 168 168
0 168 168
0 88 88

156 220 220
0 152 152
0 164 164
116 200 200
252 252 252
156 220 220
0 140 140
0 124 124
0 168 168
0 168 168
32 180 180
32 180 180
0 168 168
32 180 180
32 180 180
72 192 192
32 180 180
72 192 192
32 180 180
72 192 192
32 180 180
72 192 192
72 192 192
72 192 192
72 192 192
72 192 192
72 192 192
72 192 192
32 180 180
72 192 192
32 180 180
72 192 192
32 180 180
72 192 192
32 180 180
72 192 192
32 180 180
72 192 192
32 180 180
32 180 180
32 180 180
32 180 180
32 180 180
32 180 180
32 180 180
32 180 180
32 180 180
32 180 180
32 180 180
32 180 180
32 180 180
32 180 180
32 180 180
32 180 180
32 180 180
32 180 180
32 180 180
116 200 200
252 252 252
156 220 220
0 140 140
0 124 124
0 168 168
0 88 88

156 220 220
0 152 152
0 152 152
116 200 200
156 220 220
0 164 164
0 140 140
0 124 124
0 168 168
0 168 168
0 168 168
0 168 168
32 180 180
0 168 168
32 180 180
32 180 180
32 180 180
32 180 180
32 180 180
32 180 180
72 192 192
32 180 180
72 192 192
32 180 180
72 192 192
72 192 192
72 192 192
72 192 192
72 192 192
72 192 192
72 192 192
72 192 192
72 192 192
72 192 192
72 192 192
32 180 180
72 192 192
32 180 180
72 192 192
32 180 180
72 192 192
32 180 180
72 192 192
32 180 180
72 192 192
32 180 180
32 180 180
32 180 180
32 180 180
32 180 180
32 180 180
32 180 180
32 180 180
32 180 180
32 180 180
32 180 180
32 180 180
116 200 200
156 220 220
0 164 164
0 140 140
0 124 124
32 180 180
0 88 88

156 220 220
0 140 140
0 152 152
0 152 152
0 164 164
0 140 140
0 124 124
0 168 168
0 164 164
0 164 164
0 168 168
0 168 168
0 168 168
0 168 168
0 168 168
32 180 180
0 168 168
32 180 180
0 168 168
32 180 180
32 180 180
32 180 180
32 180 180
72 192 192
32 180 180
72 192 192
32 180 180
72 192 192
72 192 192
72 192 192
72 192 192
72 192 192
72 192 192
72 192 192
72 192 192
72 192 192
72 192 192
72 192 192
72 192 192
72 192 192
72 192 192
72 192 192
32 180 180
72 192 192
32 180 180
72 192 192
32 180 180
72 192 192
32 180 180
72 192 192
32 180 180
72 192 192
32 180 180
32 180 180
32 180 180
32 180 180
32 180 180
32 180 180
0 164 164
0 140 140
0 124 124
0 168 168
0 168 168
0 88 88

156 220 220
0 140 140
0 140 140
0 140 140
0 152 152
0 152 152
0 156 156
0 164 164
0 164 164
0 164 164
0 164 164
0 164 164
0 108 108
0 168 168
0 168 168
0 168 168
0 108 108
0 168 168
32 180 180
0 168 168
0 108 108
32 180 180
32 180 180
32 180 180
0 108 108
32 180 180
72 192 192
32 180 180
0 108 108
32 180 180
72 192 192
72 192 192
0 108 108
72 192 192
72 192 192
72 192 192
0 108 108
72 192 192
72 192 192
72 192 192
0 108 108
72 192 192
72 192 192
72 192 192
0 108 108
72 192 192
72 192 192
32 180 180
0 108 108
32 180 180
72 192 192
32 180 180
0 108 108
32 180 180
72 192 192
32 180 180
72 192 192
32 180 180
32 180 180
32 180 180
32 180 180
32 180 180
32 180 180
0 88 88

156 220 220
0 140 140
0 140 140
0 140 140
0 140 140
0 152 152
0 152 152
0 156 156
0 156 156
0 164 164
0 164 164
0 164 164
0 164 164
0 164 164
0 168 168
0 168 168
0 168 168
0 168 168
0 168 168
32 180 180
0 168 168
32 180 180
0 168 168
32 180 180
32 180 180
32 180 180
32 180 180
32 180 180
32 180 180
72 192 192
32 180 180
72 192 192
32 180 180
72 192 192
72 192 192
72 192 192
72 192 192
72 192 192
72 192 192
72 192 192
72 192 192
72 192 192
72 192 192
72 192 192
72 192 192
72 192 192
72 192 192
72 192 192
72 192 192
72 192 192
72 192 192
72 192 192
72 192 192
72 192 192
32 180 180
72 192 192
32 180 180
72 192 192
32 180 180
72 192 192
32 180 180
72 192 192
32 180 180
0 88 88

156 220 220
0 140 140
0 140 140
0 140 140
0 140 140
0 140 140
0 140 140
0 152 152
0 152 152
0 156 156
0 156 156
0 112 112
0 112 112
0 112 112
0 112 112
0 112 112
0 112 112
0 112 112
0 112 112
0 112 112
0 112 112
0 112 112
0 112 112
0 112 112
0 112 112
0 112 112
0 112 112
0 112 112
0 112 112
0 112 112
0 112 112
0 112 112
0 112 112
0 112 112
0 112 112
0 112 112
0 112 112
0 112 112
0 112 112
0 112 112
0 112 112
0 112 112
0 112 112
0 112 112
0 112 112
0 112 112
0 112 112
0 112 112
0 112 112
0 112 112
0 112 112
0 112 112
0 112 112
216 244 244
72 192 192
72 192 192
72 192 192
72 192 192
72 192 192
32 180 180
72 192 192
32 180 180
72 192 192
0 88 88

156 220 220
0 132 132
0 140 140
0 140 140
0 140 140
0 140 140
0 140 140
0 140 140
0 152 152
0 152 152
0 152 152
0 112 112
0 88 88
0 88 88
0 88 88
0 88 88
0 88 88
0 88 88
0 88 88
0 88 88
0 112 112
0 112 112
0 112 112
0 112 112
0 112 112
0 112 112
0 112 112
0 112 112
0 112 112
0 112 112
0 112 112
0 112 112
0 112 112
0 112 112
0 112 112
0 112 112
0 112 112
0 112 112
0 112 112
0 112 112
0 112 112
0 112 112
0 112 112
0 112 112
0 112 112
0 112 112
0 112 112
0 112 112
0 112 112
0 112 112
0 112 112
0 112 112
116 200 200
216 244 244
72 192 192
72 192 192
72 192 192
72 192 192
72 192 192
72 192 192
72 192 192
72 192 192
72 192 192
0 88 88

156 220 220
0 132 132
0 132 132
0 140 140
32 176 176
32 176 176
0 164 164
0 140 140
0 140 140
0 140 140
0 152 152
0 112 112
0 88 88
0 156 156
0 156 156
0 152 152
0 168 168
0 168 168
0 168 168
0 164 164
0 168 168
0 168 168
0 168 168
0 168 168
0 168 168
0 168 168
32 180 180
0 168 168
32 180 180
0 168 168
32 180 180
32 180 180
32 180 180
32 180 180
32 180 180
32 180 180
32 180 180
32 180 180
72 192 192
32 180 180
72 192 192
32 180 180
72 192 192
32 180 180
72 192 192
72 192 192
72 192 192
72 192 192
72 192 192
72 192 192
72 192 192
72 192 192
156 220 220
216 244 244
72 192 192
72 192 192
72 192 192
72 192 192
116 200 200
116 200 200
0 164 164
0 168 168
72 192 192
0 88 88

116 200 200
0 124 124
0 132 132
32 176 176
156 220 220
72 192 192
0 140 140
0 112 112
0 140 140
0 140 140
0 140 140
0 112 112
0 88 88
0 152 152
0 152 152
0 156 156
0 156 156
0 168 168
0 152 152
0 168 168
0 152 152
0 164 164
0 168 168
0 168 168
0 168 168
0 168 168
0 168 168
0 168 168
0 168 168
32 180 180
0 168 168
32 180 180
0 168 168
32 180 180
0 168 168
32 180 180
0 168 168
32 180 180
32 180 180
32 180 180
32 180 180
72 192 192
32 180 180
72 192 192
32 180 180
72 192 192
32 180 180
72 192 192
72 192 192
72 192 192
72 192 192
72 192 192
156 220 220
216 244 244
72 192 192
72 192 192
72 192 192
116 200 200
252 252 252
156 220 220
0 140 140
0 124 124
72 192 192
0 88 88

116 200 200
0 124 124
0 124 124
0 152 152
72 192 192
0 164 164
0 140 140
0 112 112
0 140 140
0 140 140
0 140 140
0 112 112
0 88 88
0 140 140
0 152 152
0 152 152
0 156 156
0 156 156
0 156 156
0 152 152
0 168 168
0 168 168
0 168 168
0 164 164
0 168 168
0 168 168
0 168 168
0 168 168
0 168 168
0 168 168
0 168 168
0 168 168
32 180 180
0 168 168
32 180 180
32 180 180
32 180 180
32 180 180
32 180 180
32 180 180
32 180 180
32 180 180
32 180 180
32 180 180
32 180 180
32 180 180
72 192 192
32 180 180
72 192 192
32 180 180
72 192 192
72 192 192
156 220 220
216 244 244
72 192 192
72 192 192
72 192 192
116 200 200
156 220 220
0 164 164
0 140 140
0 124 124
72 192 192
0 88 88

116 200 200
0 124 124
0 124 124
0 124 124
0 152 152
0 140 140
0 112 112
0 112 112
0 132 132
0 140 140
0 140 140
0 108 108
0 88 88
0 152 152
0 140 140
0 152 152
0 152 152
0 152 152
0 156 156
0 156 156
0 156 156
0 168 168
0 152 152
0 168 168
0 152 152
0 164 164
0 168 168
0 168 168
0 168 168
0 168 168
0 168 168
0 168 168
0 168 168
32 180 180
0 168 168
32 180 180
0 168 168
32 180 180
0 168 168
32 180 180
0 168 168
32 180 180
32 180 180
32 180 180
32 180 180
32 180 180
32 180 180
32 180 180
32 180 180
72 192 192
32 180 180
72 192 192
156 220 220
216 244 244
72 192 192
72 192 192
72 192 192
32 180 180
0 164 164
0 140 140
0 124 124
0 168 168
72 192 192
0 88 88

116 200 200
0 124 124
0 124 124
0 124 124
0 112 112
0 112 112
0 112 112
0 124 124
0 140 140
0 132 132
0 140 140
0 108 108
0 88 88
0 140 140
0 140 140
0 152 152
0 152 152
0 152 152
0 152 152
0 152 152
0 156 156
0 156 156
0 168 168
0 152 152
0 168 168
0 168 168
0 168 168
0 164 164
0 168 168
0 168 168
0 168 168
0 168 168
0 168 168
0 168 168
0 168 168
0 168 168
32 180 180
0 168 168
32 180 180
0 168 168
32 180 180
32 180 180
32 180 180
32 180 180
32 180 180
32 180 180
32 180 180
32 180 180
32 180 180
32 180 180
32 180 180
32 180 180
156 220 220
216 244 244
72 192 192
32 180 180
72 192 192
72 192 192
72 192 192
72 192 192
72 192 192
72 192 192
72 192 192
0 88 88

116 200 200
0 120 120
0 124 124
0 124 124
0 124 124
0 124 124
0 132 132
0 132 132
0 124 124
0 132 132
0 132 132
0 108 108
0 88 88
0 140 140
0 140 140
0 108 108
112 0 0
112 0 0
112 0 0
112 0 0
112 0 0
112 0 0
112 0 0
112 0 0
112 0 0
112 0 0
112 0 0
112 0 0
112 0 0
112 0 0
112 0 0
112 0 0
112 0 0
112 0 0
112 0 0
112 0 0
112 0 0
112 0 0
112 0 0
112 0 0
112 0 0
112 0 0
112 0 0
112 0 0
112 0 0
112 0 0
112 0 0
112 0 0
112 0 0
112 0 0
0 112 112
32 180 180
156 220 220
216 244 244
32 180 180
72 192 192
32 180 180
72 192 192
32 180 180
72 192 192
72 192 192
72 192 192
72 192 192
0 88 88

116 200 200
0 120 120
0 120 120
0 124 124
0 124 124
0 124 124
0 124 124
0 132 132
0 132 132
0 132 132
0 132 132
0 108 108
0 88 88
0 140 140
0 140 140
112 0 0
112 108 0
252 244 0
252 244 0
252 244 0
252 244 0
252 244 0
252 244 0
252 244 0
252 244 0
252 244 0
252 244 0
252 244 0
252 244 0
252 244 0
252 244 0
252 244 0
252 244 0
252 244 0
252 244 0
252 244 0
252 244 0
252 244 0
252 244 0
252 244 0
252 244 0
252 244 0
252 244 0
252 244 0
252 244 0
252 244 0
252 244 0
252 244 0
252 244 0
112 108 0
112 0 0
32 180 180
156 220 220
216 244 244
32 180 180
32 180 180
32 180 180
32 180 180
72 192 192
32 180 180
72 192 192
32 180 180
72 192 192
0 88 88

116 200 200
0 120 120
0 120 120
0 120 120
0 124 124
0 124 124
0 124 124
0 124 124
0 132 132
0 132 132
0 132 132
0 108 108
0 88 88
0 140 140
0 140 140
112 0 0
252 244 0
112 108 0
112 0 0
112 0 0
112 0 0
112 0 0
112 0 0
112 0 0
112 0 0
112 0 0
112 0 0
112 0 0
112 0 0
112 0 0
112 0 0
112 0 0
112 0 0
112 0 0
112 0 0
112 0 0
112 0 0
112 0 0
112 0 0
112 0 0
112 0 0
112 0 0
112 0 0
112 0 0
112 0 0
112 0 0
112 0 0
112 0 0
112 108 0
252 244 0
112 0 0
32 180 180
156 220 220
216 244 244
32 180 180
32 180 180
32 180 180
32 180 180
32 180 180
32 180 180
32 180 180
72 192 192
32 180 180
0 88 88

72 192 192
0 120 120
0 120 120
0 132 132
0 152 152
0 152 152
0 140 140
0 124 124
0 124 124
0 132 132
0 132 132
0 108 108
0 88 88
0 132 132
0 140 140
112 0 0
252 244 0
112 0 0
208 208 208
112 0 0
208 208 208
112 0 0
208 208 208
208 208 208
112 0 0
208 208 208
208 208 208
112 0 0
112 0 0
208 208 208
208 208 208
112 0 0
112 0 0
112 0 0
208 208 208
112 0 0
208 208 208
208 208 208
208 208 208
112 0 0
208 208 208
208 208 208
112 0 0
208 208 208
112 0 0
208 208 208
112 0 0
208 208 208
112 0 0
252 244 0
112 0 0
32 180 180
156 220 220
216 244 244
32 180 180
32 180 180
32 180 180
0 168 168
116 200 200
116 200 200
0 164 164
0 168 168
32 180 180
0 88 88

72 192 192
0 116 116
0 120 120
0 152 152
32 180 180
0 164 164
0 140 140
0 112 112
0 124 124
0 124 124
0 132 132
0 108 108
0 88 88
0 132 132
0 132 132
112 0 0
252 244 0
112 0 0
208 208 208
112 0 0
208 208 208
112 0 0
208 208 208
112 0 0
112 0 0
208 208 208
112 0 0
208 208 208
112 0 0
208 208 208
112 0 0
208 208 208
112 0 0
208 208 208
112 0 0
208 208 208
112 0 0
208 208 208
112 0 0
112 0 0
208 208 208
112 0 0
112 0 0
208 208 208
208 208 208
208 208 208
112 0 0
208 208 208
112 0 0
252 244 0
112 0 0
32 180 180
156 220 220
216 244 244
0 168 168
32 180 180
32 180 180
116 200 200
252 252 252
156 220 220
0 140 140
0 124 124
32 180 180
0 88 88

72 192 192
0 116 116
0 120 120
0 140 140
0 164 164
0 164 164
0 120 120
0 88 88
0 124 124
0 124 124
0 124 124
0 108 108
0 88 88
0 132 132
0 132 132
112 0 0
252 244 0
112 0 0
208 208 208
112 0 0
208 208 208
112 0 0
208 208 208
208 208 208
112 0 0
208 208 208
208 208 208
112 0 0
112 0 0
208 208 208
208 208 208
112 0 0
112 0 0
208 208 208
112 0 0
208 208 208
112 0 0
208 208 208
112 0 0
112 0 0
208 208 208
208 208 208
112 0 0
208 208 208
208 208 208
208 208 208
112 0 0
208 208 208
112 0 0
252 244 0
112 0 0
0 168 168
156 220 220
216 244 244
32 180 180
32 180 180
32 180 180
116 200 200
156 220 220
0 164 164
0 140 140
0 124 124
32 180 180
0 88 88

72 192 192
0 116 116
0 116 116
0 112 112
0 120 120
0 112 112
0 112 112
0 88 88
0 120 120
0 124 124
0 124 124
0 88 88
0 88 88
0 132 132
0 124 124
112 0 0
252 244 0
112 0 0
208 208 208
112 0 0
208 208 208
112 0 0
208 208 208
112 0 0
112 0 0
208 208 208
112 0 0
208 208 208
112 0 0
208 208 208
112 0 0
208 208 208
112 0 0
208 208 208
112 0 0
208 208 208
112 0 0
208 208 208
112 0 0
112 0 0
208 208 208
112 0 0
112 0 0
208 208 208
112 0 0
208 208 208
112 0 0
112 0 0
112 0 0
252 244 0
112 0 0
0 168 168
156 220 220
216 244 244
0 168 168
32 180 180
0 168 168
32 180 180
0 164 164
0 140 140
0 124 124
0 168 168
32 180 180
0 88 88

72 192 192
0 116 116
0 116 116
0 108 108
0 88 88
0 88 88
0 88 88
0 108 108
0 124 124
0 120 120
0 124 124
0 88 88
0 88 88
0 124 124
0 132 132
112 0 0
252 244 0
112 0 0
112 0 0
208 208 208
112 0 0
112 0 0
208 208 208
208 208 208
112 0 0
208 208 208
112 0 0
208 208 208
112 0 0
208 208 208
208 208 208
112 0 0
112 0 0
112 0 0
208 208 208
112 0 0
112 0 0
208 208 208
112 0 0
112 0 0
208 208 208
208 208 208
112 0 0
208 208 208
112 0 0
208 208 208
112 0 0
208 208 208
112 0 0
252 244 0
112 0 0
0 168 168
156 220 220
216 244 244
32 180 180
0 168 168
32 180 180
32 180 180
32 180 180
32 180 180
32 180 180
32 180 180
32 180 180
0 88 88

72 192 192
0 112 112
0 116 116
0 116 116
0 116 116
0 120 120
0 120 120
0 120 120
0 120 120
0 124 124
0 120 120
0 88 88
0 88 88
0 124 124
0 124 124
112 0 0
252 244 0
112 0 0
112 0 0
112 0 0
112 0 0
112 0 0
112 0 0
112 0 0
112 0 0
112 0 0
112 0 0
112 0 0
112 0 0
112 0 0
112 0 0
112 0 0
112 0 0
112 0 0
112 0 0
112 0 0
112 0 0
112 0 0
112 0 0
112 0 0
112 0 0
112 0 0
112 0 0
112 0 0
112 0 0
112 0 0
112 0 0
112 0 0
112 0 0
252 244 0
112 0 0
0 168 168
156 220 220
216 244 244
0 168 168
0 168 168
0 168 168
32 180 180
0 168 168
32 180 180
0 168 168
32 180 180
0 168 168
0 88 88

72 192 192
0 112 112
0 116 116
0 116 116
0 116 116
0 120 120
0 120 120
0 120 120
0 120 120
0 120 120
0 124 124
0 88 88
0 88 88
0 124 124
0 124 124
112 0 0
252 244 0
112 0 0
112 0 0
112 0 0
112 0 0
112 0 0
112 0 0
112 0 0
112 0 0
112 0 0
112 0 0
112 0 0
112 0 0
112 0 0
112 0 0
112 0 0
112 0 0
112 0 0
112 0 0
112 0 0
112 0 0
112 0 0
112 0 0
112 0 0
112 0 0
112 0 0
112 0 0
112 0 0
112 0 0
112 0 0
112 0 0
112 0 0
112 0 0
252 244 0
112 0 0
0 168 168
156 220 220
216 244 244
0 168 168
0 168 168
0 168 168
0 168 168
0 168 168
0 168 168
32 180 180
0 168 168
32 180 180
0 88 88

72 192 192
0 108 108
0 112 112
0 116 116
0 116 116
0 116 116
0 116 116
0 120 120
0 120 120
0 120 120
0 120 120
0 88 88
0 88 88
0 124 124
0 124 124
112 0 0
252 244 0
112 0 0
112 0 0
112 0 0
112 0 0
112 0 0
112 0 0
112 0 0
112 0 0
112 0 0
112 0 0
112 0 0
112 0 0
112 0 0
112 0 0
112 0 0
112 0 0
112 0 0
112 0 0
112 0 0
112 0 0
112 0 0
112 0 0
112 0 0
112 0 0
112 0 0
112 0 0
112 0 0
112 0 0
112 0 0
112 0 0
112 0 0
112 0 0
252 244 0
112 0 0
0 168 168
156 220 220
216 244 244
0 168 168
0 168 168
0 168 168
0 168 168
0 168 168
0 168 168
0 168 168
32 180 180
0 168 168
0 88 88

72 192 192
0 108 108
0 112 112
0 124 124
0 152 152
0 140 140
0 132 132
0 116 116
0 120 120
0 120 120
0 120 120
0 88 88
0 88 88
0 124 124
0 124 124
112 0 0
252 244 0
112 0 0
112 0 0
112 0 0
112 0 0
112 0 0
124 124 124
124 124 124
124 124 124
112 0 0
124 124 124
112 0 0
124 124 124
124 124 124
124 124 124
124 124 124
124 124 124
112 0 0
124 124 124
124 124 124
112 0 0
124 124 124
124 124 124
124 124 124
124 124 124
124 124 124
124 124 124
112 0 0
124 124 124
124 124 124
112 0 0
112 0 0
112 0 0
252 244 0
112 0 0
0 164 164
116 200 200
216 244 244
0 168 168
0 168 168
0 168 168
0 168 168
116 200 200
116 200 200
0 164 164
0 168 168
0 168 168
0 88 88

72 192 192
0 108 108
0 108 108
0 152 152
32 180 180
0 152 152
0 140 140
0 112 112
0 116 116
0 120 120
0 120 120
0 88 88
0 88 88
0 124 124
0 124 124
112 0 0
252 244 0
112 0 0
112 0 0
112 0 0
112 0 0
112 0 0
112 0 0
112 0 0
112 0 0
112 0 0
112 0 0
112 0 0
112 0 0
112 0 0
112 0 0
112 0 0
112 0 0
112 0 0
112 0 0
112 0 0
112 0 0
112 0 0
112 0 0
112 0 0
112 0 0
112 0 0
112 0 0
112 0 0
112 0 0
112 0 0
112 0 0
112 0 0
112 0 0
252 244 0
112 0 0
0 168 168
116 200 200
216 244 244
0 168 168
0 168 168
0 168 168
116 200 200
252 252 252
156 220 220
0 140 140
0 124 124
0 168 168
0 88 88

72 192 192
0 112 112
0 108 108
0 140 140
0 152 152
0 140 140
0 112 112
0 88 88
0 116 116
0 116 116
0 120 120
0 88 88
0 88 88
0 120 120
0 124 124
112 0 0
252 244 0
112 0 0
112 0 0
112 0 0
124 124 124
124 124 124
124 124 124
124 124 124
124 124 124
124 124 124
112 0 0
124 124 124
124 124 124
124 124 124
112 0 0
124 124 124
124 124 124
112 0 0
124 124 124
124 124 124
124 124 124
124 124 124
124 124 124
112 0 0
124 124 124
124 124 124
124 124 124
124 124 124
124 124 124
124 124 124
112 0 0
112 0 0
112 0 0
252 244 0
112 0 0
0 152 152
116 200 200
184 232 232
0 168 168
0 164 164
0 168 168
116 200 200
156 220 220
0 164 164
0 140 140
0 124 124
0 168 168
0 88 88

72 192 192
0 116 116
0 112 112
0 112 112
0 112 112
0 112 112
0 88 88
0 88 88
0 116 116
0 120 120
0 120 120
0 88 88
0 88 88
0 124 124
0 120 120
112 0 0
252 244 0
112 0 0
112 0 0
112 0 0
112 0 0
112 0 0
112 0 0
112 0 0
112 0 0
112 0 0
112 0 0
112 0 0
112 0 0
112 0 0
112 0 0
112 0 0
112 0 0
112 0 0
112 0 0
112 0 0
112 0 0
112 0 0
112 0 0
112 0 0
112 0 0
112 0 0
112 0 0
112 0 0
112 0 0
112 0 0
112 0 0
112 0 0
112 0 0
252 244 0
112 0 0
0 156 156
116 200 200
184 232 232
0 152 152
0 168 168
0 152 152
32 180 180
0 164 164
0 140 140
0 124 124
0 168 168
0 168 168
0 88 88

72 192 192
0 116 116
0 112 112
0 108 108
0 88 88
0 88 88
0 88 88
0 108 108
0 116 116
0 116 116
0 120 120
0 88 88
0 88 88
0 120 120
0 124 124
112 0 0
252 244 0
112 0 0
112 0 0
112 0 0
124 124 124
124 124 124
124 124 124
112 0 0
124 124 124
124 124 124
124 124 124
124 124 124
124 124 124
124 124 124
124 124 124
112 0 0
124 124 124
124 124 124
124 124 124
112 0 0
124 124 124
112 0 0
124 124 124
124 124 124
124 124 124
124 124 124
112 0 0
124 124 124
124 124 124
124 124 124
112 0 0
112 0 0
112 0 0
252 244 0
112 0 0
0 156 156
116 200 200
184 232 232
0 168 168
0 152 152
0 168 168
0 168 168
0 168 168
0 164 164
0 168 168
0 168 168
0 168 168
0 88 88

72 192 192
0 120 120
0 116 116
0 112 112
0 108 108
0 108 108
0 112 112
0 116 116
0 116 116
0 116 116
0 116 116
0 88 88
0 88 88
0 120 120
0 120 120
112 0 0
252 244 0
112 0 0
112 0 0
112 0 0
112 0 0
112 0 0
112 0 0
112 0 0
112 0 0
112 0 0
112 0 0
112 0 0
112 0 0
112 0 0
112 0 0
112 0 0
112 0 0
112 0 0
112 0 0
112 0 0
112 0 0
112 0 0
112 0 0
112 0 0
112 0 0
112 0 0
112 0 0
112 0 0
112 0 0
112 0 0
112 0 0
112 0 0
112 0 0
252 244 0
112 0 0
0 156 156
116 200 200
184 232 232
0 156 156
0 156 156
0 152 152
0 168 168
0 152 152
0 168 168
0 152 152
0 164 164
0 168 168
0 88 88

32 180 180
0 120 120
0 116 116
0 112 112
0 108 108
0 108 108
0 112 112
0 112 112
0 116 116
0 116 116
0 116 116
0 88 88
0 88 88
0 120 120
0 120 120
112 0 0
252 244 0
112 0 0
112 0 0
112 0 0
112 0 0
112 0 0
112 0 0
112 0 0
112 0 0
112 0 0
112 0 0
112 0 0
112 0 0
112 0 0
112 0 0
112 0 0
112 0 0
112 0 0
112 0 0
112 0 0
112 0 0
112 0 0
112 0 0
112 0 0
112 0 0
112 0 0
112 0 0
112 0 0
112 0 0
112 0 0
112 0 0
112 0 0
112 0 0
252 244 0
112 0 0
0 152 152
116 200 200
184 232 232
0 156 156
0 152 152
0 156 156
0 156 156
0 168 168
0 152 152
0 168 168
0 168 168
0 164 164
0 88 88

32 180 180
0 120 120
0 120 120
0 116 116
0 112 112
0 108 108
0 108 108
0 112 112
0 116 116
0 116 116
0 116 116
0 88 88
0 88 88
0 120 120
0 120 120
112 0 0
252 244 0
112 0 0
112 0 0
112 0 0
112 0 0
112 0 0
124 124 124
124 124 124
124 124 124
112 0 0
124 124 124
124 124 124
124 124 124
124 124 124
124 124 124
124 124 124
124 124 124
124 124 124
112 0 0
124 124 124
112 0 0
124 124 124
124 124 124
112 0 0
124 124 124
124 124 124
124 124 124
112 0 0
124 124 124
124 124 124
112 0 0
112 0 0
112 0 0
252 244 0
112 0 0
0 152 152
116 200 200
184 232 232
0 152 152
0 156 156
0 156 156
0 156 156
0 156 156
0 156 156
0 152 152
0 168 168
0 152 152
0 88 88

32 180 180
0 120 120
0 120 120
0 124 124
0 140 140
0 124 124
0 108 108
0 108 108
0 112 112
0 116 116
0 116 116
0 88 88
0 88 88
0 116 116
0 120 120
112 0 0
252 244 0
112 0 0
112 0 0
112 0 0
112 0 0
112 0 0
112 0 0
112 0 0
112 0 0
112 0 0
112 0 0
112 0 0
112 0 0
112 0 0
112 0 0
112 0 0
112 0 0
112 0 0
112 0 0
112 0 0
112 0 0
112 0 0
112 0 0
112 0 0
112 0 0
112 0 0
112 0 0
112 0 0
112 0 0
112 0 0
112 0 0
112 0 0
112 0 0
252 244 0
112 0 0
0 152 152
116 200 200
184 232 232
0 152 152
0 152 152
0 152 152
0 168 168
116 200 200
116 200 200
0 164 164
0 168 168
0 164 164
0 88 88

32 180 180
0 120 120
0 120 120
0 140 140
0 164 164
0 152 152
0 124 124
0 112 112
0 112 112
0 112 112
0 116 116
0 88 88
0 88 88
0 116 116
0 116 116
112 0 0
252 244 0
112 0 0
112 0 0
112 0 0
124 124 124
124 124 124
112 0 0
124 124 124
124 124 124
124 124 124
124 124 124
124 124 124
112 0 0
124 124 124
124 124 124
124 124 124
124 124 124
112 0 0
124 124 124
124 124 124
124 124 124
124 124 124
124 124 124
124 124 124
124 124 124
124 124 124
112 0 0
124 124 124
124 124 124
124 124 124
112 0 0
112 0 0
112 0 0
252 244 0
112 0 0
0 152 152
72 192 192
156 220 220
0 152 152
0 152 152
0 152 152
116 200 200
252 252 252
156 220 220
0 140 140
0 124 124
0 156 156
0 88 88

32 180 180
0 124 124
0 120 120
0 140 140
0 152 152
0 140 140
0 112 112
0 88 88
0 108 108
0 112 112
0 116 116
0 88 88
0 88 88
0 116 116
0 116 116
112 0 0
252 244 0
112 0 0
112 0 0
112 0 0
112 0 0
112 0 0
112 0 0
112 0 0
112 0 0
112 0 0
112 0 0
112 0 0
112 0 0
112 0 0
112 0 0
112 0 0
112 0 0
112 0 0
112 0 0
112 0 0
112 0 0
112 0 0
112 0 0
112 0 0
112 0 0
112 0 0
112 0 0
112 0 0
112 0 0
112 0 0
112 0 0
112 0 0
112 0 0
252 244 0
112 0 0
0 152 152
72 192 192
156 220 220
0 152 152
0 152 152
0 152 152
116 200 200
156 220 220
0 164 164
0 140 140
0 124 124
0 152 152
0 88 88

32 180 180
0 124 124
0 120 120
0 112 112
0 112 112
0 112 112
0 88 88
0 88 88
0 108 108
0 108 108
0 112 112
0 88 88
0 88 88
0 116 116
0 116 116
112 0 0
252 244 0
112 0 0
112 0 0
112 0 0
124 124 124
124 124 124
124 124 124
124 124 124
112 0 0
124 124 124
124 124 124
124 124 124
124 124 124
124 124 124
124 124 124
124 124 124
124 124 124
124 124 124
124 124 124
112 0 0
124 124 124
112 0 0
124 124 124
124 124 124
124 124 124
124 124 124
112 0 0
124 124 124
124 124 124
124 124 124
112 0 0
112 0 0
112 0 0
252 244 0
112 0 0
0 152 152
72 192 192
156 220 220
0 152 152
0 152 152
0 152 152
0 152 152
0 164 164
0 140 140
0 124 124
0 168 168
0 156 156
0 88 88

32 176 176
0 124 124
0 124 124
0 108 108
0 88 88
0 88 88
0 88 88
0 108 108
0 108 108
0 108 108
0 112 112
0 88 88
0 88 88
0 116 116
0 116 116
112 0 0
252 244 0
112 0 0
112 0 0
112 0 0
112 0 0
112 0 0
112 0 0
112 0 0
112 0 0
112 0 0
112 0 0
112 0 0
112 0 0
112 0 0
112 0 0
112 0 0
112 0 0
112 0 0
112 0 0
112 0 0
112 0 0
112 0 0
112 0 0
112 0 0
112 0 0
112 0 0
112 0 0
112 0 0
112 0 0
112 0 0
112 0 0
112 0 0
112 0 0
252 244 0
112 0 0
0 140 140
72 192 192
156 220 220
0 152 152
0 152 152
0 152 152
0 152 152
0 152 152
0 152 152
0 152 152
0 152 152
0 152 152
0 88 88

32 176 176
0 124 124
0 124 124
0 120 120
0 120 120
0 116 116
0 116 116
0 112 112
0 108 108
0 108 108
0 108 108
0 88 88
0 88 88
0 116 116
0 116 116
112 0 0
252 244 0
112 0 0
112 0 0
112 0 0
124 124 124
124 124 124
124 124 124
112 0 0
124 124 124
124 124 124
112 0 0
124 124 124
124 124 124
124 124 124
124 124 124
124 124 124
112 0 0
124 124 124
112 0 0
124 124 124
124 124 124
112 0 0
124 124 124
124 124 124
124 124 124
124 124 124
124 124 124
124 124 124
112 0 0
124 124 124
112 0 0
112 0 0
112 0 0
252 244 0
112 0 0
0 152 152
72 192 192
156 220 220
0 152 152
0 152 152
0 152 152
0 152 152
0 152 152
0 152 152
0 152 152
0 152 152
0 152 152
0 88 88

32 176 176
0 124 124
0 124 124
0 120 120
0 120 120
0 120 120
0 116 116
0 112 112
0 112 112
0 108 108
0 108 108
0 88 88
0 88 88
0 116 116
0 116 116
112 0 0
252 244 0
112 0 0
112 0 0
112 0 0
112 0 0
112 0 0
112 0 0
112 0 0
112 0 0
112 0 0
112 0 0
112 0 0
112 0 0
112 0 0
112 0 0
112 0 0
112 0 0
112 0 0
112 0 0
112 0 0
112 0 0
112 0 0
112 0 0
112 0 0
112 0 0
112 0 0
112 0 0
112 0 0
112 0 0
112 0 0
112 0 0
112 0 0
112 0 0
252 244 0
112 0 0
0 140 140
72 192 192
116 200 200
0 152 152
0 152 152
0 152 152
0 152 152
0 152 152
0 152 152
0 152 152
0 152 152
0 152 152
0 88 88

32 176 176
0 124 124
0 124 124
0 124 124
0 120 120
0 120 120
0 116 116
0 116 116
0 112 112
0 112 112
0 108 108
0 88 88
0 88 88
0 112 112
0 116 116
112 0 0
252 244 0
112 0 0
112 0 0
112 0 0
124 124 124
124 124 124
124 124 124
124 124 124
112 0 0
124 124 124
112 0 0
124 124 124
124 124 124
124 124 124
124 124 124
112 0 0
124 124 124
124 124 124
124 124 124
112 0 0
124 124 124
124 124 124
124 124 124
124 124 124
124 124 124
112 0 0
124 124 124
124 124 124
124 124 124
124 124 124
112 0 0
112 0 0
112 0 0
252 244 0
112 0 0
0 140 140
72 192 192
116 200 200
0 140 140
0 152 152
0 152 152
0 152 152
0 140 140
0 152 152
0 152 152
0 152 152
0 152 152
0 88 88

32 176 176
0 124 124
0 124 124
0 132 132
0 152 152
0 140 140
0 120 120
0 112 112
0 112 112
0 112 112
0 108 108
0 88 88
0 88 88
0 112 112
0 112 112
112 0 0
252 244 0
112 0 0
112 0 0
112 0 0
112 0 0
112 0 0
112 0 0
112 0 0
112 0 0
112 0 0
112 0 0
112 0 0
112 0 0
112 0 0
112 0 0
112 0 0
112 0 0
112 0 0
112 0 0
112 0 0
112 0 0
112 0 0
112 0 0
112 0 0
112 0 0
112 0 0
112 0 0
112 0 0
112 0 0
112 0 0
112 0 0
112 0 0
112 0 0
252 244 0
112 0 0
0 140 140
72 192 192
116 200 200
0 140 140
0 140 140
0 152 152
0 168 168
72 192 192
72 192 192
0 164 164
0 140 140
0 152 152
0 88 88

32 176 176
0 132 132
0 124 124
0 152 152
32 180 180
0 152 152
0 140 140
0 112 112
0 116 116
0 112 112
0 112 112
0 88 88
0 88 88
0 108 108
0 112 112
112 0 0
252 244 0
112 0 0
112 0 0
112 0 0
112 0 0
112 0 0
112 0 0
112 0 0
112 0 0
112 0 0
112 0 0
112 0 0
112 0 0
112 0 0
112 0 0
112 0 0
112 0 0
112 0 0
112 0 0
112 0 0
112 0 0
112 0 0
112 0 0
112 0 0
112 0 0
112 0 0
112 0 0
112 0 0
112 0 0
112 0 0
112 0 0
112 0 0
112 0 0
252 244 0
112 0 0
0 140 140
72 192 192
116 200 200
0 140 140
0 152 152
0 140 140
72 192 192
156 220 220
116 200 200
0 140 140
0 124 124
0 152 152
0 88 88

32 176 176
0 132 132
0 124 124
0 140 140
0 152 152
0 140 140
0 112 112
0 88 88
0 116 116
0 112 112
0 112 112
0 88 88
0 88 88
0 108 108
0 112 112
112 0 0
252 244 0
112 0 0
112 0 0
112 0 0
112 0 0
112 0 0
112 0 0
112 0 0
112 0 0
112 0 0
112 0 0
112 0 0
112 0 0
112 0 0
112 0 0
112 0 0
112 0 0
112 0 0
112 0 0
112 0 0
208 208 208
140 140 140
208 208 208
140 140 140
180 180 180
208 208 208
152 152 152
208 208 208
180 180 180
208 208 208
112 0 0
112 0 0
112 0 0
252 244 0
112 0 0
0 140 140
32 180 180
116 200 200
0 140 140
0 140 140
0 140 140
32 180 180
116 200 200
116 200 200
0 140 140
0 124 124
0 152 152
0 88 88

32 176 176
0 132 132
0 132 132
0 112 112
0 112 112
0 112 112
0 88 88
0 88 88
0 116 116
0 116 116
0 112 112
0 88 88
0 88 88
0 108 108
0 108 108
112 0 0
252 244 0
112 108 0
112 0 0
112 0 0
112 0 0
112 0 0
112 0 0
112 0 0
112 0 0
112 0 0
112 0 0
112 0 0
112 0 0
112 0 0
112 0 0
112 0 0
112 0 0
112 0 0
112 0 0
112 0 0
112 0 0
112 0 0
112 0 0
112 0 0
112 0 0
112 0 0
112 0 0
112 0 0
112 0 0
112 0 0
112 0 0
112 0 0
112 108 0
252 244 0
112 0 0
0 140 140
32 180 180
116 200 200
0 140 140
0 140 140
0 140 140
0 140 140
0 164 164
0 140 140
0 124 124
0 140 140
0 140 140
0 88 88

32 176 176
0 132 132
0 132 132
0 108 108
0 88 88
0 88 88
0 88 88
0 108 108
0 116 116
0 116 116
0 112 112
0 88 88
0 88 88
0 108 108
0 108 108
112 0 0
112 108 0
252 244 0
252 244 0
252 244 0
252 244 0
252 244 0
252 244 0
252 244 0
252 244 0
252 244 0
252 244 0
252 244 0
252 244 0
252 244 0
252 244 0
252 244 0
252 244 0
252 244 0
252 244 0
252 244 0
252 244 0
252 244 0
252 244 0
252 244 0
252 244 0
252 244 0
252 244 0
252 244 0
252 244 0
252 244 0
252 244 0
252 244 0
252 244 0
112 108 0
112 0 0
0 140 140
32 180 180
116 200 200
0 140 140
0 140 140
0 140 140
0 140 140
0 140 140
0 140 140
0 152 152
0 140 140
0 140 140
0 88 88

32 176 176
0 132 132
0 132 132
0 124 124
0 124 124
0 124 124
0 120 120
0 120 120
0 120 120
0 116 116
0 116 116
0 88 88
0 88 88
0 108 108
0 108 108
0 88 88
112 0 0
112 0 0
112 0 0
112 0 0
112 0 0
112 0 0
112 0 0
112 0 0
112 0 0
112 0 0
112 0 0
112 0 0
112 0 0
112 0 0
112 0 0
112 0 0
112 0 0
112 0 0
112 0 0
112 0 0
112 0 0
112 0 0
112 0 0
112 0 0
112 0 0
112 0 0
112 0 0
112 0 0
112 0 0
112 0 0
112 0 0
112 0 0
112 0 0
112 0 0
0 112 112
0 140 140
32 180 180
72 192 192
0 140 140
0 140 140
0 140 140
0 140 140
0 140 140
0 140 140
0 140 140
0 152 152
0 140 140
0 88 88

32 176 176
0 132 132
0 132 132
0 132 132
0 124 124
0 124 124
0 120 120
0 120 120
0 120 120
0 116 116
0 116 116
0 88 88
0 88 88
0 112 112
0 108 108
0 108 108
0 108 108
0 112 112
0 112 112
0 116 116
0 116 116
0 116 116
0 116 116
0 116 116
0 120 120
0 116 116
0 120 120
0 120 120
0 120 120
0 120 120
0 120 120
0 120 120
0 124 124
0 120 120
0 124 124
0 124 124
0 124 124
0 124 124
0 124 124
0 124 124
0 124 124
0 124 124
0 132 132
0 124 124
0 132 132
0 132 132
0 132 132
0 132 132
0 132 132
0 132 132
0 132 132
0 132 132
32 180 180
72 192 192
0 140 140
0 140 140
0 140 140
0 140 140
0 140 140
0 140 140
0 140 140
0 140 140
0 140 140
0 88 88

32 176 176
0 132 132
0 132 132
0 132 132
0 124 124
0 124 124
0 124 124
0 120 120
0 120 120
0 120 120
0 116 116
0 88 88
0 88 88
0 112 112
0 108 108
0 108 108
0 108 108
0 108 108
0 112 112
0 116 116
0 116 116
0 116 116
0 116 116
0 116 116
0 116 116
0 120 120
0 116 116
0 120 120
0 120 120
0 120 120
0 120 120
0 120 120
0 120 120
0 124 124
0 120 120
0 124 124
0 124 124
0 124 124
0 124 124
0 124 124
0 124 124
0 132 132
0 124 124
0 132 132
0 124 124
0 132 132
0 124 124
0 132 132
0 132 132
0 132 132
0 132 132
0 132 132
32 176 176
72 192 192
0 140 140
0 140 140
0 140 140
0 140 140
0 140 140
0 140 140
0 140 140
0 140 140
0 140 140
0 88 88

32 176 176
0 132 132
0 132 132
0 132 132
0 152 152
0 140 140
0 140 140
0 124 124
0 120 120
0 120 120
0 116 116
0 88 88
0 88 88
0 112 112
0 112 112
0 108 108
0 108 108
0 108 108
0 112 112
0 112 112
0 116 116
0 116 116
0 116 116
0 116 116
0 116 116
0 116 116
0 120 120
0 116 116
0 120 120
0 120 120
0 120 120
0 120 120
0 120 120
0 120 120
0 124 124
0 120 120
0 124 124
0 124 124
0 124 124
0 124 124
0 124 124
0 124 124
0 124 124
0 124 124
0 132 132
0 124 124
0 132 132
0 132 132
0 132 132
0 132 132
0 132 132
0 132 132
32 176 176
72 192 192
0 140 140
0 132 132
0 140 140
0 140 140
32 180 180
32 180 180
0 164 164
0 140 140
0 140 140
0 88 88

32 176 176
0 132 132
0 132 132
0 152 152
32 180 180
0 152 152
0 140 140
0 112 112
0 120 120
0 120 120
0 116 116
0 88 88
0 88 88
0 112 112
0 112 112
0 112 112
0 108 108
0 108 108
0 108 108
0 112 112
0 112 112
0 116 116
0 116 116
0 116 116
0 116 116
0 116 116
0 116 116
0 120 120
0 116 116
0 120 120
0 120 120
0 120 120
0 120 120
0 120 120
0 120 120
0 124 124
0 120 120
0 124 124
0 124 124
0 124 124
0 124 124
0 124 124
0 124 124
0 132 132
0 124 124
0 132 132
0 124 124
0 132 132
0 124 124
0 132 132
0 132 132
0 132 132
0 164 164
72 192 192
0 132 132
0 140 140
0 132 132
32 180 180
156 220 220
72 192 192
0 140 140
0 124 124
0 140 140
0 88 88

32 176 176
0 132 132
0 132 132
0 140 140
0 152 152
0 140 140
0 112 112
0 88 88
0 120 120
0 120 120
0 120 120
0 88 88
0 88 88
0 112 112
0 112 112
0 112 112
0 108 108
0 108 108
0 108 108
0 108 108
0 112 112
0 116 116
0 116 116
0 116 116
0 116 116
0 116 116
0 116 116
0 116 116
0 120 120
0 116 116
0 120 120
0 120 120
0 120 120
0 120 120
0 120 120
0 120 120
0 124 124
0 120 120
0 124 124
0 124 124
0 124 124
0 124 124
0 124 124
0 124 124
0 124 124
0 124 124
0 132 132
0 124 124
0 132 132
0 132 132
0 132 132
0 132 132
0 164 164
32 180 180
0 132 132
0 132 132
0 140 140
32 180 180
72 192 192
0 164 164
0 132 132
0 112 112
0 140 140
0 88 88

32 176 176
0 140 140
0 132 132
0 112 112
0 112 112
0 112 112
0 88 88
0 88 88
0 120 120
0 120 120
0 120 120
0 88 88
0 88 88
0 116 116
0 112 112
0 112 112
0 112 112
0 108 108
0 108 108
0 108 108
0 112 112
0 108 108
0 116 116
0 116 116
0 116 116
0 116 116
0 116 116
0 116 116
0 116 116
0 120 120
0 120 120
0 120 120
0 120 120
0 120 120
0 120 120
0 120 120
0 120 120
0 124 124
0 120 120
0 124 124
0 124 124
0 124 124
0 124 124
0 124 124
0 124 124
0 132 132
0 124 124
0 132 132
0 124 124
0 132 132
0 124 124
0 132 132
0 164 164
32 180 180
0 132 132
0 132 132
0 132 132
0 140 140
0 164 164
0 140 140
0 124 124
0 112 112
0 140 140
0 88 88

32 176 176
0 140 140
0 132 132
0 108 108
0 88 88
0 88 88
0 88 88
0 108 108
0 124 124
0 120 120
0 120 120
0 88 88
0 108 108
0 140 140
0 140 140
0 140 140
0 132 132
0 132 132
0 132 132
0 132 132
0 132 132
0 132 132
0 132 132
0 132 132
0 140 140
0 140 140
0 140 140
0 140 140
0 140 140
0 140 140
0 140 140
0 140 140
0 140 140
0 140 140
0 140 140
0 140 140
0 140 140
0 140 140
0 140 140
0 140 140
0 140 140
0 140 140
0 140 140
0 140 140
0 140 140
0 140 140
0 152 152
0 152 152
0 152 152
0 152 152
0 164 164
0 164 164
0 164 164
32 180 180
0 132 132
0 132 132
0 132 132
0 132 132
0 140 140
0 112 112
0 112 112
0 140 140
0 140 140
0 88 88

32 176 176
0 140 140
0 132 132
0 132 132
0 132 132
0 132 132
0 124 124
0 124 124
0 124 124
0 120 120
0 120 120
0 88 88
0 132 132
0 152 152
0 152 152
0 140 140
0 140 140
0 140 140
0 140 140
0 140 140
0 140 140
0 140 140
0 140 140
0 140 140
0 140 140
0 140 140
0 140 140
0 140 140
0 152 152
0 152 152
0 152 152
0 152 152
0 152 152
0 152 152
0 152 152
0 164 164
0 164 164
0 164 164
0 164 164
0 164 164
0 164 164
0 164 164
0 164 164
0 164 164
0 164 164
0 164 164
0 164 164
0 164 164
0 164 164
32 176 176
32 180 180
32 180 180
32 180 180
32 180 180
0 132 132
0 132 132
0 132 132
0 132 132
0 132 132
0 140 140
0 140 140
0 140 140
0 140 140
0 88 88

32 176 176
0 140 140
0 132 132
0 132 132
0 132 132
0 132 132
0 124 124
0 124 124
0 124 124
0 124 124
0 120 120
0 120 120
0 116 116
0 116 116
0 116 116
0 112 112
0 112 112
0 112 112
0 108 108
0 108 108
0 108 108
0 108 108
0 112 112
0 108 108
0 116 116
0 116 116
0 116 116
0 116 116
0 116 116
0 116 116
0 120 120
0 120 120
0 120 120
0 120 120
0 120 120
0 120 120
0 120 120
0 120 120
0 120 120
0 124 124
0 124 124
0 120 120
0 124 124
0 124 124
0 124 124
0 124 124
0 124 124
0 124 124
0 124 124
0 124 124
0 132 132
0 124 124
0 132 132
0 132 132
0 132 132
0 132 132
0 132 132
0 132 132
0 132 132
0 132 132
0 132 132
0 140 140
0 140 140
0 88 88

32 176 176
0 140 140
0 132 132
0 132 132
0 132 132
0 132 132
0 124 124
0 124 124
0 124 124
0 124 124
0 120 120
0 120 120
0 64 64
0 116 116
0 116 116
0 116 116
0 64 64
0 112 112
0 112 112
0 108 108
0 64 64
0 108 108
0 108 108
0 112 112
0 64 64
0 116 116
0 116 116
0 116 116
0 64 64
0 116 116
0 116 116
0 120 120
0 64 64
0 120 120
0 120 120
0 120 120
0 64 64
0 120 120
0 120 120
0 120 120
0 64 64
0 124 124
0 120 120
0 124 124
0 64 64
0 124 124
0 124 124
0 124 124
0 64 64
0 132 132
0 124 124
0 132 132
0 64 64
0 132 132
0 124 124
0 132 132
0 132 132
0 132 132
0 132 132
0 132 132
0 132 132
0 132 132
0 140 140
0 88 88

32 176 176
0 140 140
0 140 140
0 124 124
0 152 152
0 152 152
0 120 120
0 124 124
0 124 124
0 124 124
0 120 120
0 120 120
0 120 120
0 116 116
0 116 116
0 116 116
0 112 112
0 112 112
0 112 112
0 112 112
0 108 108
0 108 108
0 108 108
0 108 108
0 112 112
0 116 116
0 116 116
0 116 116
0 116 116
0 116 116
0 116 116
0 116 116
0 120 120
0 120 120
0 120 120
0 120 120
0 120 120
0 120 120
0 120 120
0 120 120
0 120 120
0 120 120
0 124 124
0 120 120
0 124 124
0 124 124
0 124 124
0 124 124
0 124 124
0 124 124
0 124 124
0 124 124
0 132 132
0 124 124
0 132 132
0 132 132
0 132 132
0 132 132
0 164 164
0 164 164
0 140 140
0 132 132
0 132 132
0 88 88

32 176 176
0 140 140
0 140 140
0 152 152
72 192 192
32 176 176
0 124 124
0 108 108
0 124 124
0 124 124
0 124 124
0 120 120
0 120 120
0 120 120
0 116 116
0 116 116
0 116 116
0 112 112
0 112 112
0 112 112
0 108 108
0 108 108
0 108 108
0 108 108
0 112 112
0 108 108
0 116 116
0 116 116
0 116 116
0 116 116
0 116 116
0 116 116
0 116 116
0 120 120
0 116 116
0 120 120
0 120 120
0 120 120
0 120 120
0 120 120
0 120 120
0 120 120
0 120 120
0 124 124
0 120 120
0 124 124
0 124 124
0 124 124
0 124 124
0 124 124
0 124 124
0 132 132
0 124 124
0 132 132
0 124 124
0 132 132
0 124 124
0 164 164
116 200 200
32 180 180
0 140 140
0 112 112
0 132 132
0 88 88

32 176 176
0 140 140
0 140 140
0 152 152
32 176 176
0 132 132
0 108 108
0 88 88
0 124 124
0 124 124
0 124 124
0 120 120
0 120 120
0 120 120
0 116 116
0 116 116
0 116 116
0 112 112
0 112 112
0 112 112
0 112 112
0 108 108
0 108 108
0 108 108
0 108 108
0 112 112
0 112 112
0 116 116
0 116 116
0 116 116
0 116 116
0 116 116
0 116 116
0 116 116
0 120 120
0 116 116
0 120 120
0 120 120
0 120 120
0 120 120
0 120 120
0 120 120
0 120 120
0 120 120
0 124 124
0 120 120
0 124 124
0 124 124
0 124 124
0 124 124
0 124 124
0 124 124
0 124 124
0 124 124
0 132 132
0 124 124
0 132 132
0 164 164
32 180 180
0 164 164
0 132 132
0 112 112
0 132 132
0 88 88

32 176 176
0 140 140
0 140 140
0 124 124
0 108 108
0 108 108
0 88 88
0 88 88
0 124 124
0 124 124
0 124 124
0 124 124
0 120 120
0 120 120
0 120 120
0 116 116
0 116 116
0 116 116
0 112 112
0 112 112
0 112 112
0 108 108
0 108 108
0 108 108
0 108 108
0 108 108
0 112 112
0 116 116
0 116 116
0 116 116
0 116 116
0 116 116
0 116 116
0 116 116
0 116 116
0 120 120
0 116 116
0 120 120
0 120 120
0 120 120
0 120 120
0 120 120
0 120 120
0 120 120
0 120 120
0 124 124
0 120 120
0 124 124
0 124 124
0 124 124
0 124 124
0 124 124
0 124 124
0 132 132
0 124 124
0 132 132
0 124 124
0 132 132
0 132 132
0 132 132
0 112 112
0 112 112
0 132 132
0 88 88

32 176 176
0 140 140
0 140 140
0 108 108
0 88 88
0 88 88
0 88 88
0 112 112
0 124 124
0 124 124
0 124 124
0 124 124
0 120 120
0 120 120
0 120 120
0 116 116
0 116 116
0 116 116
0 112 112
0 112 112
0 112 112
0 112 112
0 108 108
0 108 108
0 108 108
0 108 108
0 112 112
0 108 108
0 116 116
0 116 116
0 116 116
0 116 116
0 116 116
0 116 116
0 116 116
0 116 116
0 120 120
0 116 116
0 120 120
0 120 120
0 120 120
0 120 120
0 120 120
0 120 120
0 120 120
0 120 120
0 124 124
0 120 120
0 124 124
0 124 124
0 124 124
0 124 124
0 124 124
0 124 124
0 124 124
0 124 124
0 132 132
0 124 124
0 112 112
0 112 112
0 112 112
0 132 132
0 132 132
0 88 88

100 100 100
100 100 100
100 100 100
100 100 100
100 100 100
100 100 100
100 100 100
100 100 100
100 100 100
100 100 100
100 100 100
100 100 100
100 100 100
100 100 100
100 100 100
100 100 100
100 100 100
100 100 100
100 100 100
100 100 100
100 100 100
100 100 100
100 100 100
100 100 100
100 100 100
100 100 100
100 100 100
100 100 100
100 100 100
100 100 100
100 100 100
100 100 100
100 100 100
100 100 100
100 100 100
100 100 100
100 100 100
100 100 100
100 100 100
100 100 100
100 100 100
100 100 100
100 100 100
100 100 100
100 100 100
100 100 100
100 100 100
100 100 100
100 100 100
100 100 100
100 100 100
100 100 100
100 100 100
100 100 100
100 100 100
100 100 100
100 100 100
100 100 100
100 100 100
100 100 100
100 100 100
100 100 100
100 100 100
100 100 100

