P3
# ASCII PPM file
64 64
255

64 48 24
64 48 24
64 48 24
64 48 24
64 48 24
64 48 24
64 48 24
64 48 24
64 48 24
64 48 24
64 48 24
64 48 24
64 48 24
64 48 24
64 48 24
64 48 24
64 48 24
64 48 24
64 48 24
64 48 24
64 48 24
64 48 24
64 48 24
64 48 24
64 48 24
64 48 24
64 48 24
64 48 24
64 48 24
64 48 24
64 48 24
64 48 24
64 48 24
64 48 24
64 48 24
64 48 24
64 48 24
64 48 24
64 48 24
64 48 24
64 48 24
64 48 24
64 48 24
64 48 24
64 48 24
64 48 24
64 48 24
64 48 24
64 48 24
64 48 24
64 48 24
64 48 24
64 48 24
64 48 24
64 48 24
64 48 24
64 48 24
64 48 24
64 48 24
64 48 24
64 48 24
64 48 24
64 48 24
64 48 24

108 72 36
108 72 36
108 72 36
108 72 36
108 72 36
108 72 36
108 72 36
108 72 36
108 72 36
108 72 36
108 72 36
108 72 36
108 72 36
108 72 36
108 72 36
108 72 36
108 72 36
108 72 36
108 72 36
108 72 36
108 72 36
108 72 36
108 72 36
108 72 36
108 72 36
108 72 36
108 72 36
108 72 36
108 72 36
108 72 36
108 72 36
108 72 36
108 72 36
108 72 36
108 72 36
108 72 36
108 72 36
108 72 36
108 72 36
108 72 36
108 72 36
108 72 36
108 72 36
108 72 36
108 72 36
108 72 36
108 72 36
108 72 36
108 72 36
108 72 36
108 72 36
108 72 36
108 72 36
108 72 36
108 72 36
108 72 36
108 72 36
108 72 36
108 72 36
108 72 36
108 72 36
108 72 36
108 72 36
108 72 36

144 92 52
144 92 52
144 92 52
144 92 52
144 92 52
144 92 52
144 92 52
144 92 52
144 92 52
144 92 52
144 92 52
144 92 52
144 92 52
144 92 52
144 92 52
144 92 52
144 92 52
144 92 52
144 92 52
144 92 52
144 92 52
144 92 52
144 92 52
144 92 52
144 92 52
144 92 52
144 92 52
144 92 52
144 92 52
144 92 52
144 92 52
144 92 52
144 92 52
144 92 52
144 92 52
144 92 52
144 92 52
144 92 52
144 92 52
144 92 52
144 92 52
144 92 52
144 92 52
144 92 52
144 92 52
144 92 52
144 92 52
144 92 52
144 92 52
144 92 52
144 92 52
144 92 52
144 92 52
144 92 52
144 92 52
144 92 52
144 92 52
144 92 52
144 92 52
144 92 52
144 92 52
144 92 52
144 92 52
144 92 52

84 60 28
84 60 28
84 60 28
84 60 28
84 60 28
84 60 28
84 60 28
56 44 20
84 60 28
40 32 12
56 44 20
84 60 28
84 60 28
84 60 28
84 60 28
84 60 28
84 60 28
84 60 28
84 60 28
84 60 28
84 60 28
84 60 28
84 60 28
84 60 28
84 60 28
56 44 20
84 60 28
40 32 12
56 44 20
84 60 28
84 60 28
84 60 28
84 60 28
56 44 20
84 60 28
40 32 12
56 44 20
84 60 28
84 60 28
84 60 28
84 60 28
84 60 28
84 60 28
56 44 20
84 60 28
40 32 12
56 44 20
84 60 28
84 60 28
84 60 28
84 60 28
84 60 28
84 60 28
84 60 28
84 60 28
84 60 28
84 60 28
84 60 28
56 44 20
84 60 28
40 32 12
56 44 20
84 60 28
84 60 28

72 56 24
72 56 24
108 72 36
116 76 40
116 76 40
116 76 40
116 76 40
84 60 28
144 92 52
40 32 12
84 60 28
144 92 52
92 64 32
72 56 24
72 56 24
72 56 24
72 56 24
116 76 40
116 76 40
72 56 24
108 72 36
72 56 24
108 72 36
72 56 24
72 56 24
84 60 28
144 92 52
40 32 12
84 60 28
144 92 52
116 76 40
72 56 24
116 76 40
84 60 28
144 92 52
40 32 12
84 60 28
144 92 52
92 64 32
72 56 24
72 56 24
72 56 24
92 64 32
84 60 28
144 92 52
40 32 12
84 60 28
144 92 52
72 56 24
116 76 40
72 56 24
72 56 24
116 76 40
72 56 24
116 76 40
72 56 24
116 76 40
116 76 40
84 60 28
144 92 52
40 32 12
84 60 28
144 92 52
108 72 36

72 56 24
72 56 24
108 72 36
116 76 40
116 76 40
116 76 40
92 64 32
84 60 28
144 92 52
40 32 12
84 60 28
144 92 52
108 72 36
72 56 24
72 56 24
72 56 24
84 60 28
116 76 40
116 76 40
72 56 24
108 72 36
72 56 24
108 72 36
72 56 24
72 56 24
84 60 28
144 92 52
40 32 12
84 60 28
144 92 52
116 76 40
72 56 24
116 76 40
84 60 28
144 92 52
40 32 12
84 60 28
144 92 52
116 76 40
92 64 32
72 56 24
92 64 32
116 76 40
84 60 28
144 92 52
40 32 12
84 60 28
144 92 52
72 56 24
116 76 40
72 56 24
72 56 24
116 76 40
72 56 24
116 76 40
72 56 24
116 76 40
116 76 40
84 60 28
144 92 52
40 32 12
84 60 28
144 92 52
108 72 36

72 56 24
72 56 24
92 64 32
116 76 40
116 76 40
180 172 0
180 172 0
180 172 0
180 172 0
180 172 0
180 172 0
180 172 0
180 172 0
180 172 0
180 172 0
180 172 0
180 172 0
180 172 0
180 172 0
180 172 0
180 172 0
180 172 0
180 172 0
180 172 0
180 172 0
180 172 0
180 172 0
180 172 0
180 172 0
180 172 0
180 172 0
180 172 0
180 172 0
180 172 0
180 172 0
180 172 0
180 172 0
180 172 0
180 172 0
180 172 0
180 172 0
180 172 0
180 172 0
180 172 0
180 172 0
180 172 0
180 172 0
180 172 0
180 172 0
180 172 0
180 172 0
180 172 0
180 172 0
180 172 0
180 172 0
180 172 0
180 172 0
180 172 0
156 156 0
180 84 0
40 32 12
84 60 28
144 92 52
108 72 36

84 60 28
72 56 24
84 60 28
108 72 36
116 76 40
180 172 0
252 136 32
252 136 32
252 136 32
252 136 32
252 136 32
252 136 32
252 136 32
252 136 32
252 136 32
252 136 32
252 136 32
252 136 32
252 136 32
252 136 32
252 136 32
252 136 32
252 136 32
252 136 32
252 136 32
252 136 32
252 136 32
252 120 0
252 120 0
252 120 0
252 120 0
252 120 0
252 120 0
252 120 0
252 120 0
252 120 0
252 120 0
252 120 0
252 120 0
252 120 0
252 120 0
252 120 0
252 120 0
252 120 0
252 120 0
252 120 0
228 108 0
228 108 0
228 108 0
228 108 0
228 108 0
228 108 0
228 108 0
228 108 0
228 108 0
228 108 0
228 108 0
180 84 0
180 84 0
84 60 28
40 32 12
84 60 28
144 92 52
108 72 36

108 72 36
72 56 24
72 56 24
92 64 32
116 76 40
180 172 0
252 136 32
72 56 24
72 56 24
72 56 24
72 56 24
72 56 24
72 56 24
72 56 24
72 56 24
72 56 24
72 56 24
72 56 24
72 56 24
72 56 24
72 56 24
72 56 24
72 56 24
72 56 24
72 56 24
72 56 24
72 56 24
72 56 24
72 56 24
72 56 24
72 56 24
72 56 24
72 56 24
72 56 24
72 56 24
72 56 24
72 56 24
72 56 24
72 56 24
72 56 24
72 56 24
72 56 24
72 56 24
72 56 24
92 64 32
92 64 32
92 64 32
92 64 32
92 64 32
92 64 32
92 64 32
92 64 32
92 64 32
92 64 32
92 64 32
92 64 32
92 64 32
156 156 0
180 84 0
84 60 28
40 32 12
84 60 28
144 92 52
84 60 28

108 72 36
72 56 24
84 60 28
72 56 24
92 64 32
180 172 0
252 136 32
72 56 24
84 84 84
84 84 84
84 84 84
84 84 84
84 84 84
84 84 84
84 84 84
84 84 84
84 84 84
84 84 84
84 84 84
84 84 84
84 84 84
84 84 84
84 84 84
84 84 84
84 84 84
84 84 84
84 84 84
84 84 84
84 84 84
84 84 84
100 100 100
100 100 100
100 100 100
100 100 100
100 100 100
100 100 100
100 100 100
100 100 100
100 100 100
100 100 100
100 100 100
100 100 100
100 100 100
100 100 100
100 100 100
100 100 100
100 100 100
100 100 100
100 100 100
112 112 112
112 112 112
112 112 112
112 112 112
112 112 112
112 112 112
112 112 112
112 112 112
180 172 0
180 84 0
84 60 28
40 32 12
84 60 28
144 92 52
84 60 28

116 76 40
84 60 28
72 56 24
72 56 24
84 60 28
180 172 0
252 136 32
72 56 24
84 84 84
152 152 152
152 152 152
152 152 152
152 152 152
152 152 152
152 152 152
152 152 152
152 152 152
152 152 152
152 152 152
152 152 152
152 152 152
152 152 152
152 152 152
152 152 152
152 152 152
152 152 152
152 152 152
152 152 152
152 152 152
152 152 152
152 152 152
152 152 152
152 152 152
152 152 152
152 152 152
152 152 152
152 152 152
152 152 152
152 152 152
152 152 152
152 152 152
152 152 152
152 152 152
152 152 152
152 152 152
152 152 152
152 152 152
152 152 152
152 152 152
152 152 152
152 152 152
152 152 152
152 152 152
152 152 152
152 152 152
152 152 152
152 152 152
180 172 0
180 84 0
84 60 28
40 32 12
84 60 28
144 92 52
84 60 28

116 76 40
84 60 28
72 56 24
72 56 24
72 56 24
180 172 0
252 136 32
72 56 24
84 84 84
152 152 152
152 152 152
152 152 152
152 152 152
152 152 152
152 152 152
152 152 152
152 152 152
152 152 152
152 152 152
152 152 152
152 152 152
152 152 152
152 152 152
152 152 152
152 152 152
152 152 152
152 152 152
124 124 124
100 100 100
72 72 72
72 72 72
72 72 72
72 72 72
72 72 72
72 72 72
72 72 72
124 124 124
140 140 140
152 152 152
152 152 152
152 152 152
152 152 152
152 152 152
152 152 152
152 152 152
152 152 152
152 152 152
152 152 152
152 152 152
152 152 152
152 152 152
152 152 152
152 152 152
152 152 152
152 152 152
152 152 152
152 152 152
180 172 0
180 84 0
84 60 28
40 32 12
84 60 28
144 92 52
72 56 24

108 72 36
116 76 40
72 56 24
72 56 24
72 56 24
180 172 0
252 136 32
72 56 24
84 84 84
152 152 152
152 152 152
152 152 152
152 152 152
152 152 152
152 152 152
152 152 152
152 152 152
152 152 152
152 152 152
152 152 152
152 152 152
152 152 152
152 152 152
152 152 152
152 152 152
152 152 152
84 84 84
72 72 72
72 72 72
32 32 32
32 32 32
32 32 32
32 32 32
32 32 32
32 32 32
32 32 32
32 32 32
32 32 32
72 72 72
72 72 72
124 124 124
152 152 152
152 152 152
152 152 152
152 152 152
152 152 152
152 152 152
152 152 152
152 152 152
152 152 152
152 152 152
152 152 152
152 152 152
152 152 152
152 152 152
152 152 152
152 152 152
180 172 0
180 84 0
84 60 28
40 32 12
84 60 28
144 92 52
72 56 24

108 72 36
116 76 40
84 60 28
72 56 24
72 56 24
180 172 0
252 136 32
72 56 24
84 84 84
152 152 152
152 152 152
152 152 152
152 152 152
152 152 152
152 152 152
152 152 152
152 152 152
152 152 152
152 152 152
152 152 152
152 152 152
152 152 152
152 152 152
152 152 152
152 152 152
84 84 84
72 72 72
32 32 32
32 32 32
56 56 56
56 56 56
84 84 84
56 56 56
56 56 56
56 56 56
56 56 56
56 56 56
32 32 32
32 32 32
32 32 32
72 72 72
152 152 152
152 152 152
152 152 152
152 152 152
152 152 152
152 152 152
152 152 152
152 152 152
152 152 152
152 152 152
152 152 152
152 152 152
152 152 152
152 152 152
152 152 152
152 152 152
180 172 0
180 84 0
84 60 28
40 32 12
84 60 28
144 92 52
72 56 24

92 64 32
116 76 40
116 76 40
72 56 24
84 60 28
180 172 0
252 136 32
72 56 24
84 84 84
152 152 152
152 152 152
152 152 152
152 152 152
152 152 152
152 152 152
152 152 152
152 152 152
152 152 152
152 152 152
152 152 152
152 152 152
152 152 152
152 152 152
152 152 152
220 136 84
200 124 76
112 112 112
56 56 56
56 56 56
56 56 56
84 84 84
84 84 84
140 140 140
124 124 124
84 84 84
56 56 56
72 72 72
84 84 84
56 56 56
56 56 56
32 32 32
32 32 32
152 152 152
152 152 152
152 152 152
152 152 152
152 152 152
152 152 152
152 152 152
152 152 152
152 152 152
152 152 152
152 152 152
152 152 152
152 152 152
152 152 152
152 152 152
180 172 0
180 84 0
84 60 28
40 32 12
84 60 28
144 92 52
72 56 24

84 60 28
116 76 40
116 76 40
116 76 40
84 60 28
180 172 0
252 136 32
72 56 24
84 84 84
152 152 152
152 152 152
152 152 152
152 152 152
152 152 152
152 152 152
152 152 152
152 152 152
152 152 152
152 152 152
152 152 152
152 152 152
152 152 152
152 152 152
152 152 152
252 156 96
252 176 128
252 176 128
252 176 128
112 112 112
200 124 76
188 120 72
112 112 112
124 124 124
140 140 140
100 100 100
44 44 44
100 100 100
112 112 112
100 100 100
56 56 56
44 44 44
32 32 32
72 72 72
152 152 152
152 152 152
152 152 152
152 152 152
152 152 152
152 152 152
152 152 152
152 152 152
152 152 152
152 152 152
152 152 152
152 152 152
152 152 152
152 152 152
180 172 0
180 84 0
84 60 28
40 32 12
84 60 28
144 92 52
84 60 28

72 56 24
108 72 36
116 76 40
116 76 40
92 64 32
180 172 0
252 136 32
72 56 24
84 84 84
152 152 152
152 152 152
152 152 152
152 152 152
152 152 152
152 152 152
152 152 152
152 152 152
152 152 152
152 152 152
152 152 152
152 152 152
152 152 152
152 152 152
220 136 84
252 176 128
252 184 144
252 184 144
252 188 156
252 176 128
112 112 112
208 128 80
188 120 72
84 84 84
84 84 84
56 56 56
44 44 44
72 72 72
84 84 84
72 72 72
72 72 72
44 44 44
32 32 32
32 32 32
100 100 100
152 152 152
152 152 152
152 152 152
152 152 152
152 152 152
152 152 152
152 152 152
152 152 152
152 152 152
152 152 152
152 152 152
152 152 152
152 152 152
180 172 0
180 84 0
84 60 28
40 32 12
84 60 28
144 92 52
84 60 28

72 56 24
108 72 36
116 76 40
116 76 40
116 76 40
180 172 0
252 136 32
72 56 24
84 84 84
152 152 152
152 152 152
152 152 152
152 152 152
152 152 152
152 152 152
152 152 152
152 152 152
152 152 152
152 152 152
152 152 152
152 152 152
152 152 152
152 152 152
252 156 96
252 176 128
252 184 144
252 184 144
252 196 164
252 176 128
112 112 112
208 128 80
56 56 56
56 56 56
56 56 56
56 56 56
44 44 44
56 56 56
56 56 56
56 56 56
56 56 56
44 44 44
32 32 32
32 32 32
72 72 72
152 152 152
152 152 152
152 152 152
152 152 152
152 152 152
152 152 152
152 152 152
152 152 152
152 152 152
152 152 152
152 152 152
152 152 152
152 152 152
180 172 0
180 84 0
84 60 28
40 32 12
84 60 28
144 92 52
84 60 28

72 56 24
92 64 32
108 72 36
116 76 40
116 76 40
180 172 0
252 136 32
72 56 24
84 84 84
152 152 152
152 152 152
152 152 152
152 152 152
152 152 152
152 152 152
152 152 152
152 152 152
152 152 152
152 152 152
152 152 152
152 152 152
152 152 152
252 156 96
252 176 128
252 176 128
252 184 144
252 196 164
252 176 128
252 176 128
252 176 128
240 148 92
56 56 56
56 56 56
56 56 56
56 56 56
44 44 44
56 56 56
56 56 56
56 56 56
56 56 56
44 44 44
32 32 32
32 32 32
44 44 44
152 152 152
152 152 152
152 152 152
152 152 152
152 152 152
152 152 152
152 152 152
152 152 152
152 152 152
152 152 152
152 152 152
152 152 152
152 152 152
180 172 0
180 84 0
84 60 28
40 32 12
84 60 28
144 92 52
108 72 36

72 56 24
84 60 28
108 72 36
116 76 40
116 76 40
180 172 0
252 136 32
72 56 24
84 84 84
152 152 152
152 152 152
152 152 152
152 152 152
152 152 152
152 152 152
152 152 152
152 152 152
152 152 152
152 152 152
152 152 152
152 152 152
152 152 152
200 124 76
168 104 64
188 120 72
252 164 112
252 196 164
252 176 128
252 176 128
252 176 128
252 176 128
180 112 68
156 96 56
156 96 56
136 88 48
128 80 44
56 56 56
56 56 56
56 56 56
44 44 44
32 32 32
32 32 32
32 32 32
44 44 44
152 152 152
152 152 152
152 152 152
152 152 152
152 152 152
152 152 152
152 152 152
152 152 152
152 152 152
152 152 152
152 152 152
152 152 152
152 152 152
180 172 0
180 84 0
84 60 28
40 32 12
84 60 28
144 92 52
108 72 36

72 56 24
72 56 24
92 64 32
116 76 40
116 76 40
180 172 0
252 136 32
72 56 24
100 100 100
152 152 152
152 152 152
152 152 152
152 152 152
152 152 152
152 152 152
152 152 152
152 152 152
152 152 152
152 152 152
152 152 152
152 152 152
152 152 152
152 152 152
56 44 20
56 44 20
136 88 48
188 120 72
252 196 164
252 176 128
252 176 128
252 184 144
252 164 112
240 148 92
168 104 64
168 104 64
168 104 64
168 104 64
128 80 44
56 56 56
32 32 32
32 32 32
32 32 32
44 44 44
44 44 44
152 152 152
152 152 152
152 152 152
152 152 152
152 152 152
152 152 152
152 152 152
152 152 152
152 152 152
152 152 152
152 152 152
152 152 152
152 152 152
180 172 0
180 84 0
84 60 28
40 32 12
84 60 28
144 92 52
108 72 36

72 56 24
72 56 24
84 60 28
116 76 40
116 76 40
180 172 0
252 136 32
72 56 24
100 100 100
152 152 152
152 152 152
152 152 152
152 152 152
152 152 152
152 152 152
152 152 152
152 152 152
152 152 152
152 152 152
152 152 152
152 152 152
152 152 152
252 184 144
200 124 76
72 72 72
188 120 72
252 164 112
240 148 92
252 176 128
252 196 164
252 164 112
240 148 92
240 148 92
220 136 84
240 148 92
240 148 92
168 104 64
144 92 52
92 64 32
32 32 32
32 32 32
32 32 32
44 44 44
72 72 72
152 152 152
152 152 152
152 152 152
152 152 152
152 152 152
152 152 152
152 152 152
152 152 152
152 152 152
152 152 152
152 152 152
152 152 152
152 152 152
180 172 0
180 84 0
84 60 28
40 32 12
84 60 28
144 92 52
108 72 36

84 60 28
72 56 24
84 60 28
92 64 32
84 60 28
180 172 0
252 136 32
72 56 24
100 100 100
152 152 152
152 152 152
152 152 152
152 152 152
152 152 152
152 152 152
152 152 152
152 152 152
152 152 152
152 152 152
152 152 152
152 152 152
252 184 144
252 212 188
252 176 128
220 136 84
252 164 112
252 176 128
252 176 128
252 176 128
252 164 112
240 148 92
240 148 92
232 140 88
252 156 96
92 64 32
168 104 64
240 148 92
92 64 32
92 64 32
32 32 32
32 32 32
44 44 44
72 72 72
112 112 112
152 152 152
152 152 152
152 152 152
152 152 152
152 152 152
152 152 152
152 152 152
152 152 152
152 152 152
152 152 152
152 152 152
152 152 152
152 152 152
204 196 0
180 84 0
64 48 24
40 32 12
84 60 28
144 92 52
108 72 36

84 60 28
72 56 24
72 56 24
84 60 28
72 56 24
180 172 0
252 136 32
72 56 24
100 100 100
152 152 152
152 152 152
152 152 152
152 152 152
152 152 152
152 152 152
152 152 152
152 152 152
152 152 152
152 152 152
152 152 152
252 196 164
252 212 188
252 196 164
252 164 112
252 156 96
220 136 84
252 184 144
252 176 128
252 164 112
240 148 92
240 148 92
232 140 88
220 136 84
252 164 112
208 128 80
128 80 44
252 164 112
92 64 32
92 64 32
32 32 32
32 32 32
44 44 44
112 112 112
152 152 152
152 152 152
152 152 152
152 152 152
152 152 152
152 152 152
152 152 152
152 152 152
152 152 152
152 152 152
152 152 152
152 152 152
152 152 152
152 152 152
204 196 0
180 84 0
64 48 24
40 32 12
84 60 28
144 92 52
108 72 36

84 60 28
72 56 24
72 56 24
72 56 24
72 56 24
180 172 0
252 120 0
72 56 24
100 100 100
152 152 152
152 152 152
152 152 152
152 152 152
152 152 152
152 152 152
152 152 152
152 152 152
152 152 152
152 152 152
152 152 152
232 140 88
188 120 72
188 120 72
188 120 72
200 124 76
252 156 96
220 136 84
252 156 96
252 156 96
252 156 96
232 140 88
220 136 84
220 136 84
208 128 80
168 104 64
240 148 92
188 120 72
92 64 32
92 64 32
32 32 32
44 44 44
72 72 72
152 152 152
152 152 152
152 152 152
152 152 152
152 152 152
152 152 152
152 152 152
152 152 152
152 152 152
152 152 152
152 152 152
152 152 152
152 152 152
152 152 152
152 152 152
204 196 0
180 84 0
64 48 24
40 32 12
84 60 28
144 92 52
92 64 32

108 72 36
72 56 24
72 56 24
72 56 24
72 56 24
180 172 0
252 120 0
72 56 24
100 100 100
152 152 152
152 152 152
152 152 152
152 152 152
152 152 152
152 152 152
152 152 152
152 152 152
152 152 152
152 152 152
152 152 152
152 152 152
152 152 152
32 32 32
92 64 32
252 164 112
220 136 84
252 164 112
252 156 96
252 156 96
240 148 92
232 140 88
220 136 84
200 124 76
252 156 96
252 164 112
208 128 80
116 76 40
92 64 32
92 64 32
32 32 32
44 44 44
112 112 112
152 152 152
152 152 152
152 152 152
152 152 152
152 152 152
152 152 152
152 152 152
152 152 152
152 152 152
152 152 152
152 152 152
152 152 152
152 152 152
152 152 152
152 152 152
204 196 0
180 84 0
64 48 24
40 32 12
84 60 28
144 92 52
84 60 28

108 72 36
72 56 24
72 56 24
72 56 24
72 56 24
180 172 0
252 120 0
72 56 24
100 100 100
152 152 152
152 152 152
152 152 152
152 152 152
152 152 152
152 152 152
152 152 152
152 152 152
152 152 152
152 152 152
152 152 152
152 152 152
152 152 152
92 64 32
156 96 56
252 176 128
252 164 112
240 148 92
252 164 112
240 148 92
232 140 88
200 124 76
188 120 72
168 104 64
208 128 80
136 88 48
116 76 40
116 76 40
116 76 40
92 64 32
92 64 32
72 72 72
152 152 152
152 152 152
152 152 152
152 152 152
152 152 152
152 152 152
152 152 152
152 152 152
152 152 152
152 152 152
152 152 152
152 152 152
152 152 152
152 152 152
152 152 152
152 152 152
204 196 0
180 84 0
64 48 24
40 32 12
84 60 28
144 92 52
84 60 28

108 72 36
84 60 28
72 56 24
72 56 24
72 56 24
180 172 0
252 120 0
72 56 24
100 100 100
152 152 152
152 152 152
152 152 152
152 152 152
152 152 152
152 152 152
152 152 152
152 152 152
152 152 152
152 152 152
152 152 152
152 152 152
152 152 152
252 184 144
252 156 96
252 156 96
252 176 128
252 164 112
240 148 92
240 148 92
200 124 76
168 104 64
168 104 64
156 96 56
188 120 72
220 136 84
144 92 52
144 92 52
116 76 40
92 64 32
92 64 32
112 112 112
152 152 152
152 152 152
152 152 152
152 152 152
152 152 152
152 152 152
152 152 152
152 152 152
152 152 152
152 152 152
152 152 152
152 152 152
152 152 152
152 152 152
152 152 152
152 152 152
204 196 0
180 84 0
64 48 24
40 32 12
84 60 28
144 92 52
72 56 24

92 64 32
84 60 28
72 56 24
72 56 24
72 56 24
180 172 0
252 120 0
72 56 24
100 100 100
152 152 152
152 152 152
152 152 152
152 152 152
152 152 152
152 152 152
152 152 152
152 152 152
152 152 152
152 152 152
152 152 152
152 152 152
152 152 152
208 128 80
252 164 112
240 148 92
252 176 128
252 164 112
252 156 96
232 140 88
200 124 76
168 104 64
156 96 56
156 96 56
180 112 68
252 164 112
220 136 84
188 120 72
136 88 48
92 64 32
92 64 32
152 152 152
152 152 152
152 152 152
152 152 152
152 152 152
152 152 152
152 152 152
152 152 152
152 152 152
152 152 152
152 152 152
152 152 152
152 152 152
152 152 152
152 152 152
152 152 152
152 152 152
204 196 0
180 84 0
64 48 24
40 32 12
84 60 28
144 92 52
72 56 24

84 60 28
108 72 36
72 56 24
72 56 24
72 56 24
180 172 0
252 120 0
72 56 24
100 100 100
152 152 152
152 152 152
152 152 152
152 152 152
152 152 152
152 152 152
152 152 152
152 152 152
152 152 152
152 152 152
152 152 152
152 152 152
152 152 152
252 164 112
252 184 144
252 164 112
220 136 84
252 156 96
220 136 84
188 120 72
156 96 56
144 92 52
156 96 56
180 112 68
252 164 112
252 164 112
252 164 112
240 148 92
188 120 72
168 104 64
116 76 40
116 76 40
152 152 152
152 152 152
152 152 152
152 152 152
152 152 152
152 152 152
152 152 152
152 152 152
152 152 152
152 152 152
152 152 152
152 152 152
152 152 152
152 152 152
152 152 152
152 152 152
228 216 0
180 84 0
64 48 24
40 32 12
84 60 28
144 92 52
72 56 24

84 60 28
108 72 36
84 60 28
72 56 24
72 56 24
180 172 0
252 120 0
72 56 24
100 100 100
152 152 152
152 152 152
152 152 152
152 152 152
152 152 152
152 152 152
152 152 152
152 152 152
152 152 152
152 152 152
152 152 152
152 152 152
152 152 152
240 148 92
252 164 112
220 136 84
188 120 72
168 104 64
156 96 56
144 92 52
144 92 52
156 96 56
180 112 68
220 136 84
252 164 112
252 164 112
188 120 72
188 120 72
144 92 52
128 80 44
116 76 40
116 76 40
124 124 124
140 140 140
152 152 152
152 152 152
152 152 152
152 152 152
152 152 152
152 152 152
152 152 152
152 152 152
152 152 152
152 152 152
152 152 152
152 152 152
152 152 152
152 152 152
228 216 0
180 84 0
64 48 24
40 32 12
84 60 28
144 92 52
72 56 24

72 56 24
92 64 32
84 60 28
72 56 24
108 72 36
180 172 0
252 120 0
72 56 24
100 100 100
152 152 152
152 152 152
152 152 152
152 152 152
152 152 152
152 152 152
152 152 152
152 152 152
152 152 152
152 152 152
152 152 152
152 152 152
152 152 152
152 152 152
152 152 152
152 152 152
156 96 56
136 88 48
136 88 48
136 88 48
156 96 56
180 112 68
220 136 84
252 164 112
188 120 72
188 120 72
144 92 52
144 92 52
144 92 52
128 80 44
128 80 44
84 60 28
116 76 40
116 76 40
112 112 112
140 140 140
152 152 152
152 152 152
152 152 152
152 152 152
152 152 152
152 152 152
152 152 152
152 152 152
152 152 152
152 152 152
152 152 152
152 152 152
228 216 0
180 84 0
64 48 24
40 32 12
84 60 28
144 92 52
72 56 24

72 56 24
84 60 28
108 72 36
84 60 28
108 72 36
180 172 0
252 120 0
72 56 24
100 100 100
152 152 152
152 152 152
152 152 152
152 152 152
152 152 152
152 152 152
152 152 152
152 152 152
152 152 152
152 152 152
152 152 152
152 152 152
152 152 152
152 152 152
152 152 152
152 152 152
152 152 152
152 152 152
180 112 68
156 96 56
180 112 68
180 112 68
252 164 112
188 120 72
144 92 52
144 92 52
156 96 56
144 92 52
136 88 48
116 76 40
84 60 28
128 80 44
128 80 44
116 76 40
116 76 40
116 76 40
112 112 112
140 140 140
152 152 152
152 152 152
152 152 152
152 152 152
152 152 152
152 152 152
152 152 152
152 152 152
152 152 152
152 152 152
228 216 0
180 84 0
64 48 24
40 32 12
84 60 28
144 92 52
72 56 24

72 56 24
84 60 28
108 72 36
84 60 28
108 72 36
180 172 0
252 120 0
72 56 24
100 100 100
152 152 152
152 152 152
152 152 152
152 152 152
152 152 152
152 152 152
152 152 152
152 152 152
152 152 152
152 152 152
152 152 152
152 152 152
152 152 152
152 152 152
152 152 152
152 152 152
140 140 140
208 128 80
180 112 68
180 112 68
208 128 80
252 164 112
144 92 52
144 92 52
156 96 56
156 96 56
156 96 56
116 76 40
84 60 28
128 80 44
160 100 60
160 100 60
160 100 60
144 92 52
144 92 52
128 80 44
136 88 48
116 76 40
112 112 112
140 140 140
152 152 152
152 152 152
152 152 152
152 152 152
152 152 152
152 152 152
152 152 152
152 152 152
228 216 0
180 84 0
64 48 24
40 32 12
84 60 28
144 92 52
72 56 24

72 56 24
72 56 24
92 64 32
108 72 36
92 64 32
180 172 0
252 120 0
72 56 24
100 100 100
152 152 152
152 152 152
152 152 152
152 152 152
152 152 152
152 152 152
152 152 152
152 152 152
152 152 152
152 152 152
152 152 152
152 152 152
152 152 152
152 152 152
140 140 140
140 140 140
208 128 80
188 120 72
208 128 80
208 128 80
180 112 68
156 96 56
156 96 56
180 112 68
180 112 68
116 76 40
84 60 28
128 80 44
160 100 60
180 112 68
180 112 68
180 112 68
180 112 68
180 112 68
180 112 68
180 112 68
156 96 56
156 96 56
136 88 48
116 76 40
112 112 112
152 152 152
152 152 152
152 152 152
152 152 152
152 152 152
152 152 152
152 152 152
228 216 0
180 84 0
64 48 24
40 32 12
84 60 28
144 92 52
84 60 28

72 56 24
72 56 24
84 60 28
92 64 32
84 60 28
180 172 0
252 120 0
72 56 24
100 100 100
152 152 152
152 152 152
152 152 152
152 152 152
152 152 152
152 152 152
152 152 152
152 152 152
152 152 152
152 152 152
152 152 152
152 152 152
152 152 152
140 140 140
112 112 112
208 128 80
208 128 80
188 120 72
208 128 80
200 124 76
160 100 60
180 112 68
180 112 68
136 88 48
84 60 28
128 80 44
160 100 60
180 112 68
180 112 68
180 112 68
180 112 68
180 112 68
180 112 68
180 112 68
180 112 68
180 112 68
180 112 68
180 112 68
156 96 56
136 88 48
116 76 40
124 124 124
152 152 152
152 152 152
152 152 152
152 152 152
152 152 152
152 152 152
228 216 0
180 84 0
64 48 24
40 32 12
84 60 28
144 92 52
84 60 28

72 56 24
72 56 24
72 56 24
84 60 28
72 56 24
180 172 0
252 120 0
72 56 24
100 100 100
152 152 152
152 152 152
152 152 152
152 152 152
152 152 152
152 152 152
152 152 152
152 152 152
152 152 152
152 152 152
152 152 152
152 152 152
140 140 140
112 112 112
116 76 40
208 128 80
160 100 60
208 128 80
208 128 80
200 124 76
200 124 76
180 112 68
116 76 40
84 60 28
156 96 56
180 112 68
180 112 68
180 112 68
180 112 68
168 104 64
156 96 56
128 80 44
156 96 56
156 96 56
180 112 68
180 112 68
180 112 68
180 112 68
180 112 68
156 96 56
128 80 44
116 76 40
124 124 124
152 152 152
152 152 152
152 152 152
152 152 152
152 152 152
228 216 0
180 84 0
64 48 24
40 32 12
84 60 28
144 92 52
92 64 32

72 56 24
72 56 24
72 56 24
72 56 24
72 56 24
180 172 0
252 120 0
72 56 24
100 100 100
152 152 152
152 152 152
152 152 152
152 152 152
152 152 152
152 152 152
152 152 152
152 152 152
152 152 152
152 152 152
152 152 152
152 152 152
112 112 112
128 80 44
116 76 40
208 128 80
160 100 60
208 128 80
208 128 80
200 124 76
180 112 68
116 76 40
116 76 40
160 100 60
180 112 68
180 112 68
180 112 68
180 112 68
168 104 64
160 100 60
128 80 44
128 80 44
156 96 56
156 96 56
156 96 56
156 96 56
136 88 48
136 88 48
136 88 48
136 88 48
136 88 48
128 80 44
116 76 40
152 152 152
152 152 152
152 152 152
152 152 152
152 152 152
228 216 0
180 84 0
64 48 24
40 32 12
84 60 28
144 92 52
108 72 36

72 56 24
72 56 24
72 56 24
72 56 24
72 56 24
180 172 0
252 120 0
72 56 24
100 100 100
152 152 152
152 152 152
152 152 152
152 152 152
152 152 152
152 152 152
152 152 152
152 152 152
152 152 152
152 152 152
152 152 152
140 140 140
128 80 44
128 80 44
116 76 40
208 128 80
128 80 44
160 100 60
208 128 80
180 112 68
116 76 40
116 76 40
180 112 68
180 112 68
180 112 68
180 112 68
180 112 68
180 112 68
160 100 60
144 92 52
116 76 40
128 80 44
156 96 56
156 96 56
136 88 48
156 96 56
156 96 56
156 96 56
136 88 48
136 88 48
136 88 48
136 88 48
116 76 40
152 152 152
152 152 152
152 152 152
152 152 152
152 152 152
228 216 0
180 84 0
64 48 24
40 32 12
84 60 28
144 92 52
108 72 36

84 60 28
72 56 24
72 56 24
72 56 24
72 56 24
180 172 0
252 120 0
72 56 24
100 100 100
152 152 152
152 152 152
152 152 152
152 152 152
152 152 152
152 152 152
152 152 152
152 152 152
152 152 152
152 152 152
152 152 152
112 112 112
144 92 52
144 92 52
116 76 40
156 96 56
116 76 40
160 100 60
116 76 40
84 60 28
160 100 60
180 112 68
180 112 68
180 112 68
180 112 68
180 112 68
180 112 68
168 104 64
144 92 52
128 80 44
92 64 32
92 64 32
180 112 68
180 112 68
180 112 68
180 112 68
180 112 68
156 96 56
156 96 56
136 88 48
128 80 44
128 80 44
92 64 32
152 152 152
152 152 152
152 152 152
152 152 152
152 152 152
228 216 0
180 84 0
64 48 24
40 32 12
84 60 28
144 92 52
108 72 36

84 60 28
72 56 24
72 56 24
72 56 24
72 56 24
180 172 0
252 120 0
72 56 24
100 100 100
152 152 152
152 152 152
152 152 152
152 152 152
152 152 152
152 152 152
152 152 152
152 152 152
152 152 152
152 152 152
152 152 152
156 96 56
144 92 52
144 92 52
116 76 40
128 80 44
116 76 40
160 100 60
160 100 60
144 92 52
180 112 68
180 112 68
180 112 68
180 112 68
180 112 68
180 112 68
180 112 68
160 100 60
128 80 44
92 64 32
92 64 32
180 112 68
180 112 68
208 128 80
180 112 68
180 112 68
180 112 68
156 96 56
180 112 68
156 96 56
116 76 40
116 76 40
72 56 24
152 152 152
152 152 152
152 152 152
152 152 152
152 152 152
228 216 0
180 84 0
64 48 24
40 32 12
84 60 28
144 92 52
84 60 28

108 72 36
84 60 28
72 56 24
72 56 24
72 56 24
180 172 0
252 120 0
72 56 24
100 100 100
152 152 152
152 152 152
152 152 152
152 152 152
152 152 152
152 152 152
152 152 152
152 152 152
152 152 152
152 152 152
140 140 140
156 96 56
144 92 52
144 92 52
92 64 32
116 76 40
136 88 48
160 100 60
160 100 60
180 112 68
180 112 68
180 112 68
180 112 68
180 112 68
180 112 68
180 112 68
168 104 64
168 104 64
128 80 44
92 64 32
180 112 68
180 112 68
208 128 80
180 112 68
180 112 68
208 128 80
156 96 56
144 92 52
180 112 68
156 96 56
116 76 40
92 64 32
72 56 24
152 152 152
152 152 152
152 152 152
152 152 152
152 152 152
228 216 0
180 84 0
64 48 24
40 32 12
84 60 28
144 92 52
84 60 28

108 72 36
84 60 28
72 56 24
72 56 24
72 56 24
180 172 0
252 120 0
72 56 24
100 100 100
152 152 152
152 152 152
152 152 152
152 152 152
152 152 152
152 152 152
152 152 152
152 152 152
152 152 152
152 152 152
112 112 112
156 96 56
144 92 52
144 92 52
116 76 40
116 76 40
160 100 60
160 100 60
188 120 72
188 120 72
200 124 76
200 124 76
180 112 68
180 112 68
180 112 68
180 112 68
156 96 56
128 80 44
92 64 32
92 64 32
180 112 68
208 128 80
180 112 68
180 112 68
208 128 80
180 112 68
156 96 56
144 92 52
180 112 68
136 88 48
116 76 40
92 64 32
72 56 24
152 152 152
152 152 152
152 152 152
152 152 152
152 152 152
228 216 0
180 84 0
64 48 24
40 32 12
84 60 28
144 92 52
72 56 24

108 72 36
92 64 32
84 60 28
72 56 24
84 60 28
180 172 0
252 120 0
72 56 24
100 100 100
152 152 152
152 152 152
152 152 152
152 152 152
152 152 152
152 152 152
152 152 152
152 152 152
152 152 152
152 152 152
160 100 60
156 96 56
144 92 52
144 92 52
116 76 40
136 88 48
160 100 60
188 120 72
188 120 72
200 124 76
200 124 76
188 120 72
188 120 72
188 120 72
116 76 40
156 96 56
136 88 48
92 64 32
92 64 32
156 96 56
156 96 56
180 112 68
180 112 68
180 112 68
208 128 80
156 96 56
144 92 52
160 100 60
180 112 68
136 88 48
116 76 40
92 64 32
72 56 24
152 152 152
152 152 152
152 152 152
152 152 152
152 152 152
228 216 0
180 84 0
64 48 24
40 32 12
84 60 28
144 92 52
72 56 24

108 72 36
108 72 36
84 60 28
84 60 28
84 60 28
180 172 0
252 120 0
92 64 32
100 100 100
152 152 152
152 152 152
152 152 152
152 152 152
152 152 152
152 152 152
152 152 152
152 152 152
152 152 152
140 140 140
160 100 60
160 100 60
144 92 52
116 76 40
116 76 40
160 100 60
160 100 60
188 120 72
188 120 72
200 124 76
188 120 72
188 120 72
188 120 72
116 76 40
156 96 56
136 88 48
136 88 48
92 64 32
152 152 152
220 220 220
220 220 220
156 96 56
208 128 80
208 128 80
180 112 68
160 100 60
144 92 52
180 112 68
180 112 68
128 80 44
92 64 32
72 56 24
84 84 84
152 152 152
152 152 152
152 152 152
152 152 152
152 152 152
228 216 0
180 84 0
64 48 24
40 32 12
84 60 28
144 92 52
72 56 24

92 64 32
108 72 36
92 64 32
84 60 28
92 64 32
180 172 0
252 120 0
92 64 32
100 100 100
152 152 152
152 152 152
152 152 152
152 152 152
152 152 152
152 152 152
152 152 152
152 152 152
152 152 152
112 112 112
160 100 60
144 92 52
144 92 52
144 92 52
116 76 40
160 100 60
160 100 60
144 92 52
116 76 40
72 56 24
72 56 24
188 120 72
188 120 72
116 76 40
136 88 48
92 64 32
92 64 32
152 152 152
44 44 44
44 44 44
84 84 84
220 220 220
212 0 0
208 128 80
116 76 40
156 96 56
144 92 52
180 112 68
180 112 68
116 76 40
92 64 32
72 56 24
112 112 112
152 152 152
152 152 152
152 152 152
152 152 152
152 152 152
228 216 0
180 84 0
64 48 24
40 32 12
84 60 28
144 92 52
72 56 24

84 60 28
108 72 36
108 72 36
92 64 32
108 72 36
180 172 0
252 120 0
92 64 32
100 100 100
152 152 152
152 152 152
152 152 152
152 152 152
152 152 152
152 152 152
152 152 152
152 152 152
140 140 140
156 96 56
156 96 56
144 92 52
144 92 52
116 76 40
136 88 48
160 100 60
180 112 68
188 120 72
188 120 72
72 56 24
72 56 24
116 76 40
116 76 40
136 88 48
92 64 32
152 152 152
44 44 44
220 220 220
44 44 44
208 208 208
220 220 220
220 220 220
220 220 220
212 0 0
116 76 40
144 92 52
156 96 56
180 112 68
180 112 68
116 76 40
92 64 32
72 56 24
124 124 124
152 152 152
152 152 152
152 152 152
152 152 152
152 152 152
228 216 0
180 84 0
64 48 24
40 32 12
84 60 28
144 92 52
72 56 24

84 60 28
108 72 36
108 72 36
92 64 32
108 72 36
180 172 0
228 108 0
92 64 32
112 112 112
152 152 152
152 152 152
152 152 152
152 152 152
152 152 152
152 152 152
152 152 152
152 152 152
112 112 112
168 104 64
168 104 64
168 104 64
144 92 52
116 76 40
160 100 60
160 100 60
188 120 72
188 120 72
200 124 76
128 80 44
168 104 64
136 88 48
136 88 48
92 64 32
124 0 0
152 152 152
84 84 84
44 44 44
44 44 44
44 44 44
44 44 44
84 84 84
192 192 192
168 0 0
152 0 0
152 0 0
144 92 52
180 112 68
180 112 68
116 76 40
72 56 24
92 64 32
152 152 152
152 152 152
152 152 152
152 152 152
152 152 152
152 152 152
228 216 0
180 84 0
64 48 24
40 32 12
84 60 28
144 92 52
72 56 24

72 56 24
108 72 36
116 76 40
116 76 40
116 76 40
180 172 0
228 108 0
92 64 32
112 112 112
152 152 152
152 152 152
152 152 152
152 152 152
152 152 152
152 152 152
152 152 152
152 152 152
156 96 56
156 96 56
168 104 64
168 104 64
116 76 40
116 76 40
160 100 60
180 112 68
188 120 72
188 120 72
200 124 76
144 92 52
168 104 64
136 88 48
136 88 48
124 0 0
164 0 0
252 0 0
220 220 220
220 220 220
220 220 220
44 44 44
220 220 220
44 44 44
152 152 152
168 0 0
152 0 0
136 0 0
136 0 0
144 92 52
136 88 48
116 76 40
72 56 24
92 64 32
152 152 152
152 152 152
152 152 152
152 152 152
152 152 152
152 152 152
228 216 0
180 84 0
64 48 24
40 32 12
84 60 28
144 92 52
72 56 24

72 56 24
92 64 32
116 76 40
116 76 40
116 76 40
180 172 0
228 108 0
92 64 32
112 112 112
152 152 152
152 152 152
152 152 152
152 152 152
152 152 152
152 152 152
152 152 152
152 152 152
180 112 68
168 104 64
144 92 52
144 92 52
116 76 40
128 80 44
160 100 60
180 112 68
188 120 72
188 120 72
188 120 72
168 104 64
136 88 48
92 64 32
156 96 56
152 0 0
152 0 0
212 0 0
152 152 152
44 44 44
44 44 44
84 84 84
220 220 220
152 152 152
124 124 124
152 0 0
136 0 0
136 0 0
124 0 0
112 0 0
116 76 40
72 56 24
92 64 32
92 64 32
152 152 152
152 152 152
152 152 152
152 152 152
152 152 152
152 152 152
228 216 0
180 84 0
64 48 24
40 32 12
84 60 28
144 92 52
72 56 24

72 56 24
84 60 28
108 72 36
116 76 40
116 76 40
180 172 0
228 108 0
92 64 32
112 112 112
152 152 152
152 152 152
152 152 152
152 152 152
152 152 152
152 152 152
152 152 152
152 152 152
180 112 68
144 92 52
168 104 64
144 92 52
160 100 60
144 92 52
160 100 60
180 112 68
188 120 72
188 120 72
188 120 72
136 88 48
92 64 32
232 140 88
188 120 72
200 124 76
128 80 44
84 60 28
212 0 0
152 152 152
192 192 192
192 192 192
152 152 152
124 124 124
152 0 0
136 0 0
136 0 0
124 0 0
112 0 0
100 0 0
116 76 40
72 56 24
92 64 32
92 64 32
152 152 152
152 152 152
152 152 152
152 152 152
152 152 152
152 152 152
228 216 0
180 84 0
64 48 24
40 32 12
84 60 28
144 92 52
72 56 24

72 56 24
84 60 28
108 72 36
116 76 40
116 76 40
180 172 0
228 108 0
92 64 32
112 112 112
152 152 152
152 152 152
152 152 152
152 152 152
152 152 152
152 152 152
152 152 152
220 136 84
200 124 76
180 112 68
144 92 52
116 76 40
180 112 68
156 96 56
156 96 56
136 88 48
136 88 48
136 88 48
188 120 72
232 140 88
200 124 76
160 100 60
232 140 88
200 124 76
200 124 76
128 80 44
84 60 28
212 0 0
212 0 0
168 0 0
152 0 0
152 0 0
136 0 0
136 0 0
124 0 0
112 0 0
100 0 0
100 0 0
76 0 0
92 64 32
92 64 32
116 76 40
152 152 152
152 152 152
152 152 152
152 152 152
152 152 152
152 152 152
228 216 0
180 84 0
64 48 24
40 32 12
84 60 28
144 92 52
84 60 28

72 56 24
72 56 24
92 64 32
116 76 40
108 72 36
180 172 0
228 108 0
92 64 32
112 112 112
152 152 152
152 152 152
152 152 152
152 152 152
152 152 152
152 152 152
152 152 152
220 136 84
208 128 80
200 124 76
180 112 68
180 112 68
180 112 68
156 96 56
156 96 56
156 96 56
156 96 56
156 96 56
232 140 88
232 140 88
232 140 88
160 100 60
160 100 60
232 140 88
188 120 72
180 112 68
180 112 68
84 60 28
84 60 28
152 0 0
152 0 0
136 0 0
136 0 0
124 0 0
112 0 0
100 0 0
100 0 0
76 0 0
92 64 32
92 64 32
116 76 40
116 76 40
152 152 152
152 152 152
152 152 152
152 152 152
152 152 152
152 152 152
228 216 0
180 84 0
64 48 24
40 32 12
84 60 28
144 92 52
84 60 28

72 56 24
72 56 24
84 60 28
108 72 36
108 72 36
180 172 0
228 108 0
92 64 32
112 112 112
152 152 152
152 152 152
152 152 152
152 152 152
152 152 152
152 152 152
152 152 152
152 152 152
220 136 84
208 128 80
208 128 80
220 136 84
220 136 84
156 96 56
156 96 56
156 96 56
200 124 76
200 124 76
232 140 88
232 140 88
200 124 76
232 140 88
188 120 72
232 140 88
232 140 88
180 112 68
156 96 56
156 96 56
84 60 28
84 60 28
136 0 0
136 0 0
124 0 0
112 0 0
100 0 0
100 0 0
76 0 0
92 64 32
92 64 32
92 64 32
116 76 40
168 104 64
152 152 152
152 152 152
152 152 152
152 152 152
152 152 152
152 152 152
228 216 0
180 84 0
64 48 24
40 32 12
84 60 28
144 92 52
92 64 32

72 56 24
72 56 24
84 60 28
108 72 36
92 64 32
180 172 0
228 108 0
92 64 32
112 112 112
152 152 152
152 152 152
152 152 152
152 152 152
152 152 152
152 152 152
152 152 152
152 152 152
152 152 152
220 136 84
220 136 84
152 152 152
220 136 84
220 136 84
180 112 68
180 112 68
188 120 72
232 140 88
232 140 88
188 120 72
188 120 72
200 124 76
232 140 88
232 140 88
232 140 88
200 124 76
156 96 56
156 96 56
116 76 40
84 60 28
136 0 0
124 0 0
112 0 0
100 0 0
100 0 0
76 0 0
92 64 32
92 64 32
136 88 48
136 88 48
168 104 64
188 120 72
152 152 152
152 152 152
152 152 152
152 152 152
152 152 152
152 152 152
228 216 0
180 84 0
64 48 24
40 32 12
84 60 28
144 92 52
92 64 32

72 56 24
72 56 24
72 56 24
92 64 32
92 64 32
180 172 0
228 108 0
92 64 32
112 112 112
152 152 152
152 152 152
152 152 152
152 152 152
152 152 152
152 152 152
152 152 152
152 152 152
152 152 152
152 152 152
152 152 152
152 152 152
152 152 152
152 152 152
200 124 76
208 128 80
208 128 80
208 128 80
208 128 80
188 120 72
168 104 64
156 96 56
156 96 56
200 124 76
200 124 76
200 124 76
156 96 56
136 88 48
108 72 36
84 60 28
84 60 28
112 0 0
100 0 0
76 0 0
92 64 32
92 64 32
92 64 32
136 88 48
168 104 64
168 104 64
188 120 72
152 152 152
152 152 152
152 152 152
152 152 152
152 152 152
152 152 152
152 152 152
228 216 0
180 84 0
64 48 24
40 32 12
84 60 28
144 92 52
108 72 36

72 56 24
72 56 24
72 56 24
84 60 28
84 60 28
180 172 0
228 108 0
92 64 32
112 112 112
152 152 152
152 152 152
152 152 152
152 152 152
152 152 152
152 152 152
152 152 152
152 152 152
152 152 152
152 152 152
152 152 152
152 152 152
152 152 152
152 152 152
152 152 152
232 140 88
232 140 88
208 128 80
208 128 80
208 128 80
208 128 80
208 128 80
208 128 80
208 128 80
208 128 80
208 128 80
208 128 80
188 120 72
136 88 48
136 88 48
32 32 32
124 0 0
32 32 32
116 76 40
136 88 48
168 104 64
168 104 64
188 120 72
152 152 152
152 152 152
152 152 152
152 152 152
152 152 152
152 152 152
152 152 152
152 152 152
152 152 152
152 152 152
228 216 0
180 84 0
64 48 24
40 32 12
84 60 28
144 92 52
108 72 36

84 60 28
72 56 24
72 56 24
72 56 24
72 56 24
180 172 0
228 108 0
92 64 32
112 112 112
152 152 152
152 152 152
152 152 152
152 152 152
152 152 152
152 152 152
152 152 152
152 152 152
152 152 152
152 152 152
152 152 152
152 152 152
152 152 152
152 152 152
152 152 152
152 152 152
152 152 152
152 152 152
152 152 152
152 152 152
152 152 152
152 152 152
152 152 152
152 152 152
152 152 152
152 152 152
152 152 152
152 152 152
152 152 152
152 152 152
152 152 152
152 152 152
152 152 152
152 152 152
152 152 152
152 152 152
152 152 152
152 152 152
152 152 152
152 152 152
152 152 152
152 152 152
152 152 152
152 152 152
152 152 152
152 152 152
152 152 152
152 152 152
228 216 0
180 84 0
64 48 24
40 32 12
84 60 28
144 92 52
116 76 40

84 60 28
72 56 24
72 56 24
72 56 24
72 56 24
180 172 0
228 108 0
228 108 0
180 172 0
180 172 0
180 172 0
180 172 0
180 172 0
180 172 0
180 172 0
180 172 0
180 172 0
180 172 0
180 172 0
180 172 0
180 172 0
204 196 0
204 196 0
204 196 0
204 196 0
204 196 0
204 196 0
204 196 0
204 196 0
204 196 0
204 196 0
204 196 0
228 216 0
228 216 0
228 216 0
228 216 0
228 216 0
228 216 0
228 216 0
228 216 0
228 216 0
228 216 0
228 216 0
228 216 0
228 216 0
228 216 0
228 216 0
228 216 0
228 216 0
228 216 0
228 216 0
228 216 0
228 216 0
228 216 0
228 216 0
228 216 0
228 216 0
228 216 0
180 84 0
64 48 24
40 32 12
84 60 28
144 92 52
116 76 40

92 64 32
72 56 24
72 56 24
72 56 24
72 56 24
180 172 0
180 84 0
180 84 0
180 84 0
180 84 0
180 84 0
180 84 0
180 84 0
180 84 0
180 84 0
180 84 0
180 84 0
180 84 0
180 84 0
180 84 0
180 84 0
180 84 0
180 84 0
180 84 0
180 84 0
180 84 0
180 84 0
180 84 0
180 84 0
180 84 0
180 84 0
180 84 0
180 84 0
180 84 0
180 84 0
180 84 0
180 84 0
180 84 0
180 84 0
180 84 0
180 84 0
180 84 0
180 84 0
180 84 0
180 84 0
180 84 0
180 84 0
180 84 0
180 84 0
180 84 0
180 84 0
180 84 0
180 84 0
180 84 0
180 84 0
180 84 0
180 84 0
180 84 0
180 84 0
64 48 24
40 32 12
84 60 28
144 92 52
116 76 40

92 64 32
84 60 28
72 56 24
72 56 24
72 56 24
156 76 0
84 60 28
84 60 28
84 60 28
84 60 28
84 60 28
84 60 28
64 48 24
64 48 24
64 48 24
64 48 24
64 48 24
64 48 24
64 48 24
64 48 24
64 48 24
64 48 24
64 48 24
64 48 24
64 48 24
64 48 24
64 48 24
64 48 24
64 48 24
64 48 24
64 48 24
64 48 24
64 48 24
64 48 24
64 48 24
64 48 24
64 48 24
64 48 24
64 48 24
56 44 20
56 44 20
56 44 20
56 44 20
64 48 24
64 48 24
64 48 24
64 48 24
64 48 24
64 48 24
64 48 24
64 48 24
64 48 24
64 48 24
64 48 24
64 48 24
64 48 24
64 48 24
64 48 24
64 48 24
64 48 24
40 32 12
84 60 28
144 92 52
116 76 40

108 72 36
84 60 28
72 56 24
72 56 24
72 56 24
84 60 28
108 72 36
84 60 28
84 60 28
40 32 12
40 32 12
84 60 28
56 44 20
56 44 20
56 44 20
64 48 24
72 56 24
64 48 24
56 44 20
56 44 20
56 44 20
56 44 20
92 64 32
92 64 32
72 56 24
84 60 28
84 60 28
40 32 12
40 32 12
84 60 28
92 64 32
92 64 32
92 64 32
56 44 20
56 44 20
40 32 12
40 32 12
84 60 28
56 44 20
56 44 20
56 44 20
56 44 20
56 44 20
72 56 24
72 56 24
40 32 12
40 32 12
72 56 24
72 56 24
72 56 24
72 56 24
72 56 24
56 44 20
56 44 20
56 44 20
56 44 20
56 44 20
72 56 24
72 56 24
40 32 12
40 32 12
84 60 28
144 92 52
116 76 40

108 72 36
92 64 32
72 56 24
72 56 24
72 56 24
84 60 28
108 72 36
84 60 28
144 92 52
40 32 12
84 60 28
144 92 52
72 56 24
72 56 24
72 56 24
72 56 24
92 64 32
72 56 24
72 56 24
72 56 24
72 56 24
108 72 36
116 76 40
116 76 40
92 64 32
84 60 28
144 92 52
40 32 12
84 60 28
144 92 52
108 72 36
92 64 32
72 56 24
84 60 28
144 92 52
40 32 12
84 60 28
144 92 52
72 56 24
72 56 24
72 56 24
72 56 24
72 56 24
84 60 28
144 92 52
40 32 12
84 60 28
144 92 52
92 64 32
72 56 24
116 76 40
92 64 32
72 56 24
72 56 24
72 56 24
72 56 24
72 56 24
72 56 24
84 60 28
144 92 52
40 32 12
84 60 28
144 92 52
116 76 40

92 64 32
92 64 32
92 64 32
92 64 32
92 64 32
92 64 32
92 64 32
84 60 28
144 92 52
40 32 12
84 60 28
144 92 52
92 64 32
72 56 24
72 56 24
72 56 24
72 56 24
72 56 24
72 56 24
72 56 24
92 64 32
92 64 32
92 64 32
92 64 32
92 64 32
84 60 28
144 92 52
40 32 12
84 60 28
144 92 52
92 64 32
72 56 24
72 56 24
84 60 28
144 92 52
40 32 12
84 60 28
144 92 52
92 64 32
72 56 24
72 56 24
72 56 24
92 64 32
84 60 28
144 92 52
40 32 12
84 60 28
144 92 52
92 64 32
72 56 24
92 64 32
92 64 32
72 56 24
72 56 24
72 56 24
72 56 24
72 56 24
72 56 24
84 60 28
144 92 52
40 32 12
84 60 28
144 92 52
92 64 32

