P3
# ASCII PPM file
64 64
255

84 84 84
84 84 84
84 84 84
84 84 84
84 84 84
84 84 84
84 84 84
84 84 84
84 84 84
84 84 84
84 84 84
84 84 84
84 84 84
84 84 84
84 84 84
84 84 84
84 84 84
84 84 84
84 84 84
84 84 84
84 84 84
84 84 84
84 84 84
84 84 84
84 84 84
84 84 84
84 84 84
84 84 84
84 84 84
84 84 84
84 84 84
84 84 84
84 84 84
84 84 84
84 84 84
84 84 84
84 84 84
84 84 84
84 84 84
84 84 84
84 84 84
84 84 84
84 84 84
84 84 84
84 84 84
84 84 84
84 84 84
84 84 84
84 84 84
84 84 84
84 84 84
84 84 84
84 84 84
84 84 84
84 84 84
84 84 84
84 84 84
84 84 84
84 84 84
84 84 84
84 84 84
84 84 84
84 84 84
84 84 84

32 180 180
0 140 140
0 140 140
0 140 140
0 140 140
0 140 140
0 152 152
0 152 152
0 152 152
0 152 152
0 152 152
0 164 164
0 164 164
0 164 164
0 152 152
0 164 164
0 164 164
0 164 164
0 152 152
0 164 164
0 152 152
0 164 164
0 152 152
0 164 164
0 152 152
0 152 152
0 152 152
0 152 152
0 152 152
0 152 152
0 152 152
0 152 152
0 152 152
0 152 152
0 152 152
0 152 152
0 140 140
0 140 140
0 140 140
0 140 140
0 140 140
0 140 140
0 140 140
0 140 140
0 140 140
0 140 140
0 140 140
0 140 140
0 140 140
0 140 140
0 140 140
0 140 140
0 140 140
0 140 140
0 140 140
0 140 140
0 140 140
0 140 140
0 140 140
0 140 140
0 140 140
0 140 140
0 140 140
0 88 88

32 180 180
0 132 132
0 140 140
0 140 140
0 164 164
0 164 164
0 132 132
0 140 140
0 152 152
0 152 152
0 152 152
0 152 152
0 164 164
0 152 152
0 164 164
0 152 152
0 164 164
0 152 152
0 164 164
0 164 164
0 164 164
0 164 164
0 164 164
0 152 152
0 164 164
0 152 152
0 164 164
0 152 152
0 164 164
0 152 152
0 164 164
0 152 152
0 152 152
0 152 152
0 152 152
0 152 152
0 152 152
0 152 152
0 152 152
0 152 152
0 152 152
0 152 152
0 152 152
0 152 152
0 152 152
0 152 152
0 152 152
0 140 140
0 140 140
0 140 140
0 140 140
0 140 140
0 140 140
0 140 140
0 140 140
0 140 140
0 140 140
0 140 140
0 164 164
0 164 164
0 132 132
0 140 140
0 140 140
0 88 88

32 180 180
0 124 124
0 132 132
0 164 164
116 200 200
0 164 164
0 120 120
0 112 112
0 140 140
0 140 140
0 152 152
0 152 152
0 140 140
0 152 152
0 152 152
0 164 164
0 152 152
0 164 164
0 152 152
0 164 164
0 152 152
0 164 164
0 164 164
0 164 164
0 164 164
0 164 164
0 164 164
0 164 164
0 152 152
0 164 164
0 152 152
0 164 164
0 152 152
0 164 164
0 152 152
0 164 164
0 152 152
0 164 164
0 152 152
0 152 152
0 152 152
0 152 152
0 152 152
0 152 152
0 152 152
0 152 152
0 152 152
0 152 152
0 152 152
0 152 152
0 152 152
0 152 152
0 152 152
0 152 152
0 152 152
0 152 152
0 152 152
0 164 164
156 220 220
32 180 180
0 120 120
0 112 112
0 140 140
0 88 88

32 180 180
0 124 124
0 124 124
0 164 164
32 180 180
0 132 132
0 120 120
0 112 112
0 140 140
0 140 140
0 140 140
0 140 140
0 152 152
0 140 140
0 152 152
0 152 152
0 152 152
0 152 152
0 152 152
0 152 152
0 164 164
0 152 152
0 164 164
0 152 152
0 164 164
0 164 164
0 164 164
0 164 164
0 164 164
0 164 164
0 164 164
0 164 164
0 164 164
0 164 164
0 164 164
0 152 152
0 164 164
0 152 152
0 164 164
0 152 152
0 164 164
0 152 152
0 164 164
0 152 152
0 164 164
0 152 152
0 152 152
0 152 152
0 152 152
0 152 152
0 152 152
0 152 152
0 152 152
0 152 152
0 152 152
0 152 152
0 152 152
0 164 164
32 180 180
0 132 132
0 120 120
0 112 112
0 152 152
0 88 88

32 180 180
0 120 120
0 124 124
0 124 124
0 132 132
0 120 120
0 112 112
0 140 140
0 132 132
0 132 132
0 140 140
0 140 140
0 140 140
0 140 140
0 140 140
0 152 152
0 140 140
0 152 152
0 140 140
0 152 152
0 152 152
0 152 152
0 152 152
0 164 164
0 152 152
0 164 164
0 152 152
0 164 164
0 164 164
0 164 164
0 164 164
0 164 164
0 164 164
0 164 164
0 164 164
0 164 164
0 164 164
0 164 164
0 164 164
0 164 164
0 164 164
0 164 164
0 152 152
0 164 164
0 152 152
0 164 164
0 152 152
0 164 164
0 152 152
0 164 164
0 152 152
0 164 164
0 152 152
0 152 152
0 152 152
0 152 152
0 152 152
0 152 152
0 132 132
0 120 120
0 112 112
0 140 140
0 140 140
0 88 88

32 180 180
0 120 120
0 120 120
0 120 120
0 124 124
0 124 124
0 132 132
0 132 132
0 132 132
0 132 132
0 132 132
0 132 132
0 88 88
0 140 140
0 140 140
0 140 140
0 88 88
0 140 140
0 152 152
0 140 140
0 88 88
0 152 152
0 152 152
0 152 152
0 88 88
0 152 152
0 164 164
0 152 152
0 88 88
0 152 152
0 164 164
0 164 164
0 88 88
0 164 164
0 164 164
0 164 164
0 88 88
0 164 164
0 164 164
0 164 164
0 88 88
0 164 164
0 164 164
0 164 164
0 88 88
0 164 164
0 164 164
0 152 152
0 88 88
0 152 152
0 164 164
0 152 152
0 88 88
0 152 152
0 164 164
0 152 152
0 164 164
0 152 152
0 152 152
0 152 152
0 152 152
0 152 152
0 152 152
0 88 88

32 180 180
0 120 120
0 120 120
0 120 120
0 120 120
0 124 124
0 124 124
0 132 132
0 132 132
0 132 132
0 132 132
0 132 132
0 132 132
0 132 132
0 140 140
0 140 140
0 140 140
0 140 140
0 140 140
0 152 152
0 140 140
0 152 152
0 140 140
0 152 152
0 152 152
0 152 152
0 152 152
0 152 152
0 152 152
0 164 164
0 152 152
0 164 164
0 152 152
0 164 164
0 164 164
0 164 164
0 164 164
0 164 164
0 164 164
0 164 164
0 164 164
0 164 164
0 164 164
0 164 164
0 164 164
0 164 164
0 164 164
0 164 164
0 164 164
0 164 164
0 164 164
0 164 164
0 164 164
0 164 164
0 152 152
0 164 164
0 152 152
0 164 164
0 152 152
0 164 164
0 152 152
0 164 164
0 152 152
0 88 88

32 180 180
0 120 120
0 120 120
0 120 120
0 120 120
0 120 120
0 120 120
0 124 124
0 132 132
0 124 124
0 132 132
0 96 96
0 96 96
0 96 96
0 96 96
0 96 96
0 96 96
0 96 96
0 96 96
0 96 96
0 96 96
0 96 96
0 96 96
0 96 96
0 96 96
0 96 96
0 96 96
0 96 96
0 100 100
0 100 100
0 100 100
0 100 100
0 100 100
0 100 100
0 100 100
0 100 100
0 100 100
0 112 112
0 112 112
0 112 112
0 112 112
0 112 112
0 112 112
0 112 112
0 112 112
0 112 112
0 112 112
0 112 112
0 112 112
0 112 112
0 112 112
0 112 112
0 112 112
116 200 200
0 164 164
0 164 164
0 164 164
0 164 164
0 164 164
0 152 152
0 164 164
0 152 152
0 164 164
0 88 88

32 180 180
0 116 116
0 120 120
0 120 120
0 120 120
0 120 120
0 120 120
0 120 120
0 124 124
0 124 124
0 124 124
0 96 96
0 88 88
0 88 88
0 88 88
0 88 88
0 88 88
0 88 88
0 88 88
0 88 88
0 96 96
0 96 96
0 96 96
0 96 96
0 96 96
0 96 96
0 96 96
0 96 96
0 96 96
0 96 96
0 96 96
0 96 96
0 96 96
0 100 100
0 100 100
0 100 100
0 100 100
0 100 100
0 100 100
0 100 100
0 100 100
0 100 100
0 100 100
0 100 100
0 112 112
0 112 112
0 112 112
0 112 112
0 112 112
0 112 112
0 112 112
0 112 112
32 176 176
116 200 200
0 164 164
0 164 164
0 164 164
0 164 164
0 164 164
0 164 164
0 164 164
0 164 164
0 164 164
0 88 88

32 180 180
0 116 116
0 116 116
0 120 120
0 140 140
0 140 140
0 132 132
0 120 120
0 120 120
0 120 120
0 124 124
0 96 96
0 88 88
0 124 124
0 132 132
0 132 132
0 140 140
0 132 132
0 140 140
0 132 132
0 140 140
0 140 140
0 140 140
0 140 140
0 140 140
0 140 140
0 152 152
0 140 140
0 152 152
0 140 140
0 152 152
0 140 140
0 152 152
0 152 152
0 152 152
0 152 152
0 152 152
0 152 152
0 164 164
0 152 152
0 164 164
0 152 152
0 164 164
0 152 152
0 164 164
0 164 164
0 164 164
0 164 164
0 164 164
0 164 164
0 164 164
0 164 164
32 180 180
116 200 200
0 164 164
0 164 164
0 164 164
0 164 164
32 176 176
0 164 164
0 132 132
0 140 140
0 164 164
0 88 88

32 176 176
0 112 112
0 116 116
0 140 140
32 180 180
0 164 164
0 120 120
0 112 112
0 120 120
0 120 120
0 120 120
0 96 96
0 88 88
0 124 124
0 124 124
0 132 132
0 132 132
0 140 140
0 132 132
0 140 140
0 132 132
0 140 140
0 140 140
0 140 140
0 140 140
0 140 140
0 140 140
0 140 140
0 140 140
0 152 152
0 140 140
0 152 152
0 140 140
0 152 152
0 152 152
0 152 152
0 152 152
0 152 152
0 152 152
0 152 152
0 152 152
0 164 164
0 152 152
0 164 164
0 152 152
0 164 164
0 152 152
0 164 164
0 164 164
0 164 164
0 164 164
0 164 164
32 180 180
116 200 200
0 164 164
0 164 164
0 164 164
32 176 176
156 220 220
32 180 180
0 120 120
0 112 112
0 164 164
0 88 88

32 176 176
0 112 112
0 112 112
0 124 124
0 164 164
0 132 132
0 120 120
0 100 100
0 108 108
0 120 120
0 120 120
0 96 96
0 88 88
0 120 120
0 124 124
0 124 124
0 132 132
0 132 132
0 132 132
0 132 132
0 140 140
0 132 132
0 140 140
0 132 132
0 140 140
0 140 140
0 140 140
0 140 140
0 140 140
0 140 140
0 140 140
0 140 140
0 152 152
0 140 140
0 152 152
0 140 140
0 152 152
0 152 152
0 152 152
0 152 152
0 152 152
0 152 152
0 152 152
0 152 152
0 152 152
0 152 152
0 164 164
0 152 152
0 164 164
0 152 152
0 164 164
0 164 164
32 180 180
116 200 200
0 164 164
0 164 164
0 164 164
32 176 176
32 180 180
0 132 132
0 120 120
0 112 112
0 164 164
0 88 88

32 176 176
0 112 112
0 112 112
0 112 112
0 124 124
0 120 120
0 100 100
0 100 100
0 108 108
0 120 120
0 120 120
0 88 88
0 88 88
0 124 124
0 120 120
0 124 124
0 124 124
0 132 132
0 124 124
0 132 132
0 132 132
0 140 140
0 132 132
0 140 140
0 132 132
0 140 140
0 140 140
0 140 140
0 140 140
0 140 140
0 140 140
0 140 140
0 140 140
0 152 152
0 140 140
0 152 152
0 140 140
0 152 152
0 152 152
0 152 152
0 152 152
0 152 152
0 152 152
0 152 152
0 152 152
0 152 152
0 152 152
0 152 152
0 152 152
0 164 164
0 152 152
0 164 164
32 180 180
116 200 200
0 164 164
0 164 164
0 164 164
0 152 152
0 132 132
0 120 120
0 112 112
0 140 140
0 164 164
0 88 88

32 176 176
0 112 112
0 112 112
0 108 108
0 100 100
0 100 100
0 100 100
0 108 108
0 120 120
0 116 116
0 120 120
0 88 88
0 88 88
0 120 120
0 120 120
0 124 124
0 124 124
0 124 124
0 132 132
0 124 124
0 132 132
0 132 132
0 140 140
0 132 132
0 140 140
0 132 132
0 140 140
0 132 132
0 140 140
0 140 140
0 140 140
0 140 140
0 140 140
0 140 140
0 140 140
0 140 140
0 152 152
0 140 140
0 152 152
0 140 140
0 152 152
0 152 152
0 152 152
0 152 152
0 152 152
0 152 152
0 152 152
0 152 152
0 152 152
0 152 152
0 152 152
0 152 152
32 180 180
116 200 200
0 164 164
0 152 152
0 164 164
0 164 164
0 164 164
0 164 164
0 164 164
0 164 164
0 164 164
0 88 88

32 176 176
0 112 112
0 112 112
0 112 112
0 108 108
0 108 108
0 108 108
0 116 116
0 112 112
0 116 116
0 116 116
0 88 88
0 88 88
0 120 120
0 120 120
0 120 120
0 96 96
64 0 0
64 0 0
64 0 0
64 0 0
64 0 0
64 0 0
64 0 0
64 0 0
64 0 0
64 0 0
64 0 0
64 0 0
64 0 0
64 0 0
64 0 0
64 0 0
64 0 0
64 0 0
64 0 0
64 0 0
64 0 0
64 0 0
64 0 0
64 0 0
64 0 0
64 0 0
64 0 0
64 0 0
64 0 0
64 0 0
64 0 0
64 0 0
0 100 100
0 152 152
0 152 152
32 180 180
116 200 200
0 152 152
0 164 164
0 152 152
0 164 164
0 152 152
0 164 164
0 164 164
0 164 164
0 164 164
0 88 88

32 176 176
0 108 108
0 112 112
0 112 112
0 112 112
0 112 112
0 112 112
0 116 116
0 116 116
0 116 116
0 116 116
0 88 88
0 88 88
0 120 120
0 120 120
0 120 120
64 0 0
88 84 0
132 132 0
132 132 0
132 132 0
132 132 0
132 132 0
132 132 0
132 132 0
132 132 0
132 132 0
132 132 0
132 132 0
132 132 0
132 132 0
132 132 0
132 132 0
132 132 0
132 132 0
132 132 0
132 132 0
132 132 0
132 132 0
132 132 0
132 132 0
132 132 0
132 132 0
132 132 0
132 132 0
132 132 0
132 132 0
132 132 0
88 84 0
64 0 0
0 152 152
0 152 152
32 180 180
116 200 200
0 152 152
0 152 152
0 152 152
0 152 152
0 164 164
0 152 152
0 164 164
0 152 152
0 164 164
0 88 88

32 176 176
0 108 108
0 108 108
0 112 112
0 112 112
0 112 112
0 112 112
0 112 112
0 116 116
0 116 116
0 116 116
0 88 88
0 64 64
0 120 120
0 120 120
0 120 120
64 0 0
132 132 0
88 84 0
64 0 0
64 0 0
64 0 0
64 0 0
64 0 0
64 0 0
64 0 0
64 0 0
64 0 0
64 0 0
64 0 0
64 0 0
64 0 0
64 0 0
64 0 0
64 0 0
64 0 0
64 0 0
64 0 0
64 0 0
64 0 0
64 0 0
64 0 0
64 0 0
64 0 0
64 0 0
64 0 0
64 0 0
88 84 0
132 132 0
64 0 0
0 152 152
0 152 152
32 180 180
116 200 200
0 152 152
0 152 152
0 152 152
0 152 152
0 152 152
0 152 152
0 152 152
0 164 164
0 152 152
0 88 88

0 164 164
0 108 108
0 108 108
0 116 116
0 124 124
0 124 124
0 120 120
0 112 112
0 112 112
0 116 116
0 116 116
0 88 88
0 64 64
0 116 116
0 120 120
0 116 116
64 0 0
132 132 0
64 0 0
64 0 0
124 124 124
64 0 0
64 0 0
64 0 0
124 124 124
64 0 0
124 124 124
64 0 0
124 124 124
64 0 0
124 124 124
124 124 124
124 124 124
64 0 0
124 124 124
64 0 0
124 124 124
64 0 0
124 124 124
64 0 0
124 124 124
64 0 0
64 0 0
124 124 124
124 124 124
64 0 0
124 124 124
64 0 0
132 132 0
64 0 0
0 152 152
0 152 152
32 180 180
116 200 200
0 152 152
0 152 152
0 152 152
0 140 140
0 164 164
0 164 164
0 132 132
0 140 140
0 152 152
0 88 88

0 164 164
0 108 108
0 108 108
0 124 124
0 152 152
0 132 132
0 120 120
0 100 100
0 112 112
0 112 112
0 116 116
0 88 88
0 64 64
0 116 116
0 116 116
0 120 120
64 0 0
132 132 0
64 0 0
124 124 124
64 0 0
124 124 124
64 0 0
124 124 124
64 0 0
64 0 0
124 124 124
64 0 0
124 124 124
64 0 0
64 0 0
124 124 124
64 0 0
64 0 0
124 124 124
64 0 0
124 124 124
64 0 0
124 124 124
124 124 124
124 124 124
64 0 0
124 124 124
64 0 0
64 0 0
64 0 0
124 124 124
64 0 0
132 132 0
64 0 0
0 140 140
0 152 152
32 180 180
116 200 200
0 152 152
0 152 152
0 152 152
0 164 164
156 220 220
0 164 164
0 120 120
0 112 112
0 152 152
0 88 88

0 164 164
0 108 108
0 112 112
0 120 120
0 132 132
0 132 132
0 112 112
0 88 88
0 100 100
0 112 112
0 112 112
0 88 88
0 64 64
0 116 116
0 116 116
0 116 116
64 0 0
132 132 0
64 0 0
124 124 124
64 0 0
124 124 124
64 0 0
124 124 124
64 0 0
64 0 0
124 124 124
64 0 0
124 124 124
64 0 0
64 0 0
124 124 124
64 0 0
64 0 0
124 124 124
64 0 0
124 124 124
64 0 0
124 124 124
124 124 124
124 124 124
64 0 0
124 124 124
64 0 0
64 0 0
64 0 0
124 124 124
64 0 0
132 132 0
64 0 0
0 152 152
0 140 140
32 180 180
116 200 200
0 152 152
0 152 152
0 152 152
0 164 164
0 164 164
0 132 132
0 120 120
0 112 112
0 152 152
0 88 88

0 164 164
0 108 108
0 108 108
0 100 100
0 108 108
0 112 112
0 100 100
0 88 88
0 100 100
0 112 112
0 112 112
0 88 88
0 64 64
0 116 116
0 112 112
0 116 116
64 0 0
132 132 0
64 0 0
124 124 124
124 124 124
124 124 124
64 0 0
124 124 124
64 0 0
64 0 0
124 124 124
124 124 124
124 124 124
64 0 0
64 0 0
124 124 124
64 0 0
64 0 0
124 124 124
64 0 0
124 124 124
64 0 0
124 124 124
64 0 0
124 124 124
64 0 0
124 124 124
64 0 0
124 124 124
64 0 0
64 0 0
64 0 0
132 132 0
64 0 0
0 140 140
0 140 140
32 180 180
116 200 200
0 140 140
0 152 152
0 152 152
0 152 152
0 132 132
0 120 120
0 112 112
0 140 140
0 152 152
0 88 88

0 164 164
0 100 100
0 108 108
0 88 88
0 88 88
0 88 88
0 88 88
0 100 100
0 100 100
0 112 112
0 112 112
0 88 88
0 64 64
0 112 112
0 116 116
0 116 116
64 0 0
132 132 0
64 0 0
124 124 124
64 0 0
124 124 124
64 0 0
64 0 0
124 124 124
64 0 0
124 124 124
64 0 0
124 124 124
64 0 0
64 0 0
124 124 124
64 0 0
64 0 0
64 0 0
124 124 124
124 124 124
64 0 0
124 124 124
64 0 0
124 124 124
64 0 0
64 0 0
124 124 124
124 124 124
64 0 0
124 124 124
64 0 0
132 132 0
64 0 0
0 140 140
0 140 140
32 180 180
116 200 200
0 152 152
0 140 140
0 152 152
0 140 140
0 152 152
0 140 140
0 152 152
0 152 152
0 152 152
0 88 88

0 164 164
0 96 96
0 100 100
0 108 108
0 100 100
0 100 100
0 100 100
0 100 100
0 112 112
0 112 112
0 112 112
0 64 64
0 64 64
0 112 112
0 112 112
0 116 116
64 0 0
132 132 0
64 0 0
64 0 0
64 0 0
64 0 0
64 0 0
64 0 0
64 0 0
64 0 0
64 0 0
64 0 0
64 0 0
64 0 0
64 0 0
64 0 0
64 0 0
64 0 0
64 0 0
64 0 0
64 0 0
64 0 0
64 0 0
64 0 0
64 0 0
64 0 0
64 0 0
64 0 0
64 0 0
64 0 0
64 0 0
64 0 0
132 132 0
64 0 0
0 140 140
0 140 140
32 180 180
116 200 200
0 140 140
0 140 140
0 140 140
0 152 152
0 140 140
0 152 152
0 152 152
0 152 152
0 152 152
0 88 88

0 164 164
0 96 96
0 96 96
0 100 100
0 108 108
0 112 112
0 108 108
0 108 108
0 112 112
0 108 108
0 112 112
0 64 64
0 64 64
0 112 112
0 112 112
0 112 112
64 0 0
132 132 0
64 0 0
64 0 0
64 0 0
64 0 0
64 0 0
64 0 0
64 0 0
64 0 0
64 0 0
64 0 0
64 0 0
64 0 0
64 0 0
64 0 0
64 0 0
64 0 0
64 0 0
64 0 0
64 0 0
64 0 0
64 0 0
64 0 0
64 0 0
64 0 0
64 0 0
64 0 0
64 0 0
64 0 0
64 0 0
64 0 0
132 132 0
64 0 0
0 140 140
0 140 140
32 180 180
116 200 200
0 140 140
0 140 140
0 140 140
0 140 140
0 140 140
0 140 140
0 152 152
0 140 140
0 152 152
0 88 88

0 164 164
0 88 88
0 96 96
0 100 100
0 100 100
0 108 108
0 108 108
0 108 108
0 108 108
0 112 112
0 112 112
0 64 64
0 64 64
0 112 112
0 112 112
0 112 112
64 0 0
132 132 0
64 0 0
64 0 0
64 0 0
64 0 0
64 0 0
64 0 0
64 0 0
64 0 0
64 0 0
64 0 0
64 0 0
64 0 0
64 0 0
64 0 0
64 0 0
64 0 0
64 0 0
64 0 0
64 0 0
64 0 0
64 0 0
64 0 0
64 0 0
64 0 0
64 0 0
64 0 0
64 0 0
64 0 0
64 0 0
64 0 0
132 132 0
64 0 0
0 140 140
0 140 140
32 180 180
116 200 200
0 140 140
0 140 140
0 140 140
0 140 140
0 140 140
0 140 140
0 140 140
0 152 152
0 140 140
0 88 88

0 164 164
0 88 88
0 96 96
0 108 108
0 108 108
0 120 120
0 116 116
0 108 108
0 108 108
0 108 108
0 112 112
0 64 64
0 64 64
0 112 112
0 112 112
0 112 112
64 0 0
132 132 0
64 0 0
64 0 0
64 0 0
84 84 84
84 84 84
84 84 84
84 84 84
84 84 84
84 84 84
84 84 84
84 84 84
64 0 0
84 84 84
84 84 84
84 84 84
64 0 0
84 84 84
84 84 84
64 0 0
84 84 84
84 84 84
84 84 84
84 84 84
84 84 84
64 0 0
84 84 84
84 84 84
84 84 84
64 0 0
64 0 0
132 132 0
64 0 0
0 140 140
0 132 132
32 176 176
116 200 200
0 140 140
0 140 140
0 140 140
0 140 140
0 164 164
0 152 152
0 132 132
0 140 140
0 140 140
0 88 88

0 164 164
0 88 88
0 88 88
0 108 108
0 132 132
0 124 124
0 108 108
0 108 108
0 108 108
0 108 108
0 108 108
0 64 64
0 64 64
0 112 112
0 112 112
0 112 112
64 0 0
132 132 0
64 0 0
64 0 0
64 0 0
64 0 0
64 0 0
64 0 0
64 0 0
64 0 0
64 0 0
64 0 0
64 0 0
64 0 0
64 0 0
64 0 0
64 0 0
64 0 0
64 0 0
64 0 0
64 0 0
64 0 0
64 0 0
64 0 0
64 0 0
64 0 0
64 0 0
64 0 0
64 0 0
64 0 0
64 0 0
64 0 0
132 132 0
64 0 0
0 132 132
0 140 140
32 176 176
116 200 200
0 140 140
0 140 140
0 140 140
0 164 164
156 220 220
0 164 164
0 120 120
0 112 112
0 140 140
0 88 88

0 164 164
0 96 96
0 88 88
0 100 100
0 124 124
0 120 120
0 108 108
0 88 88
0 108 108
0 108 108
0 112 112
0 64 64
0 64 64
0 108 108
0 112 112
0 112 112
64 0 0
132 132 0
64 0 0
64 0 0
84 84 84
84 84 84
84 84 84
64 0 0
84 84 84
84 84 84
84 84 84
64 0 0
84 84 84
84 84 84
84 84 84
84 84 84
84 84 84
64 0 0
84 84 84
64 0 0
84 84 84
84 84 84
84 84 84
84 84 84
84 84 84
84 84 84
84 84 84
84 84 84
84 84 84
84 84 84
64 0 0
64 0 0
132 132 0
64 0 0
0 140 140
0 132 132
32 176 176
72 192 192
0 140 140
0 132 132
0 140 140
0 164 164
32 180 180
0 132 132
0 120 120
0 112 112
0 140 140
0 88 88

0 164 164
0 96 96
0 96 96
0 100 100
0 96 96
0 96 96
0 88 88
0 88 88
0 100 100
0 108 108
0 108 108
0 64 64
0 64 64
0 112 112
0 112 112
0 112 112
64 0 0
132 132 0
64 0 0
64 0 0
64 0 0
64 0 0
64 0 0
64 0 0
64 0 0
64 0 0
64 0 0
64 0 0
64 0 0
64 0 0
64 0 0
64 0 0
64 0 0
64 0 0
64 0 0
64 0 0
64 0 0
64 0 0
64 0 0
64 0 0
64 0 0
64 0 0
64 0 0
64 0 0
64 0 0
64 0 0
64 0 0
64 0 0
132 132 0
64 0 0
0 132 132
0 132 132
32 176 176
72 192 192
0 132 132
0 140 140
0 132 132
0 152 152
0 132 132
0 120 120
0 112 112
0 140 140
0 140 140
0 88 88

0 164 164
0 100 100
0 96 96
0 88 88
0 88 88
0 88 88
0 88 88
0 88 88
0 108 108
0 100 100
0 108 108
0 64 64
0 64 64
0 108 108
0 112 112
0 112 112
64 0 0
132 132 0
64 0 0
64 0 0
84 84 84
84 84 84
84 84 84
84 84 84
84 84 84
64 0 0
84 84 84
84 84 84
84 84 84
84 84 84
84 84 84
64 0 0
84 84 84
64 0 0
84 84 84
84 84 84
84 84 84
64 0 0
84 84 84
84 84 84
84 84 84
84 84 84
64 0 0
84 84 84
84 84 84
84 84 84
64 0 0
64 0 0
132 132 0
64 0 0
0 132 132
0 132 132
32 176 176
72 192 192
0 140 140
0 132 132
0 140 140
0 132 132
0 140 140
0 132 132
0 140 140
0 140 140
0 140 140
0 88 88

0 164 164
0 108 108
0 96 96
0 96 96
0 88 88
0 88 88
0 88 88
0 96 96
0 100 100
0 108 108
0 108 108
0 64 64
0 64 64
0 108 108
0 108 108
0 112 112
64 0 0
132 132 0
64 0 0
64 0 0
64 0 0
64 0 0
64 0 0
64 0 0
64 0 0
64 0 0
64 0 0
64 0 0
64 0 0
64 0 0
64 0 0
64 0 0
64 0 0
64 0 0
64 0 0
64 0 0
64 0 0
64 0 0
64 0 0
64 0 0
64 0 0
64 0 0
64 0 0
64 0 0
64 0 0
64 0 0
64 0 0
64 0 0
132 132 0
64 0 0
0 124 124
0 132 132
32 176 176
72 192 192
0 132 132
0 132 132
0 132 132
0 140 140
0 132 132
0 140 140
0 132 132
0 140 140
0 140 140
0 88 88

0 152 152
0 100 100
0 96 96
0 96 96
0 88 88
0 88 88
0 96 96
0 88 88
0 96 96
0 108 108
0 108 108
0 64 64
0 64 64
0 108 108
0 108 108
0 108 108
64 0 0
132 132 0
64 0 0
64 0 0
84 84 84
84 84 84
64 0 0
84 84 84
84 84 84
84 84 84
84 84 84
84 84 84
84 84 84
64 0 0
64 0 0
84 84 84
84 84 84
84 84 84
84 84 84
84 84 84
64 0 0
84 84 84
84 84 84
84 84 84
84 84 84
64 0 0
84 84 84
84 84 84
84 84 84
84 84 84
64 0 0
64 0 0
132 132 0
64 0 0
0 132 132
0 124 124
32 176 176
72 192 192
0 132 132
0 132 132
0 132 132
0 132 132
0 140 140
0 132 132
0 140 140
0 132 132
0 140 140
0 88 88

0 152 152
0 108 108
0 100 100
0 96 96
0 96 96
0 88 88
0 88 88
0 96 96
0 96 96
0 100 100
0 108 108
0 64 64
0 64 64
0 108 108
0 108 108
0 108 108
64 0 0
132 132 0
64 0 0
64 0 0
64 0 0
64 0 0
64 0 0
64 0 0
64 0 0
64 0 0
64 0 0
64 0 0
64 0 0
64 0 0
64 0 0
64 0 0
64 0 0
64 0 0
64 0 0
64 0 0
64 0 0
64 0 0
64 0 0
64 0 0
64 0 0
64 0 0
64 0 0
64 0 0
64 0 0
64 0 0
64 0 0
64 0 0
132 132 0
64 0 0
0 124 124
0 132 132
32 176 176
72 192 192
0 124 124
0 132 132
0 132 132
0 132 132
0 132 132
0 132 132
0 132 132
0 140 140
0 132 132
0 88 88

0 152 152
0 112 112
0 108 108
0 96 96
0 96 96
0 96 96
0 88 88
0 88 88
0 96 96
0 96 96
0 100 100
0 64 64
0 64 64
0 100 100
0 108 108
0 108 108
64 0 0
132 132 0
64 0 0
64 0 0
84 84 84
84 84 84
84 84 84
84 84 84
64 0 0
84 84 84
84 84 84
84 84 84
84 84 84
64 0 0
84 84 84
84 84 84
64 0 0
84 84 84
64 0 0
84 84 84
84 84 84
84 84 84
84 84 84
84 84 84
84 84 84
84 84 84
84 84 84
64 0 0
84 84 84
84 84 84
64 0 0
64 0 0
132 132 0
64 0 0
0 124 124
0 124 124
32 176 176
72 192 192
0 132 132
0 124 124
0 132 132
0 140 140
0 152 152
0 152 152
0 132 132
0 140 140
0 140 140
0 88 88

0 152 152
0 112 112
0 100 100
0 96 96
0 116 116
0 108 108
0 100 100
0 88 88
0 88 88
0 96 96
0 96 96
0 64 64
0 64 64
0 108 108
0 108 108
0 108 108
64 0 0
132 132 0
64 0 0
64 0 0
64 0 0
64 0 0
64 0 0
64 0 0
64 0 0
64 0 0
64 0 0
64 0 0
64 0 0
64 0 0
64 0 0
64 0 0
64 0 0
64 0 0
64 0 0
64 0 0
64 0 0
64 0 0
64 0 0
64 0 0
64 0 0
64 0 0
64 0 0
64 0 0
64 0 0
64 0 0
64 0 0
64 0 0
132 132 0
64 0 0
0 124 124
0 124 124
0 164 164
32 180 180
0 124 124
0 132 132
0 124 124
0 152 152
116 200 200
0 164 164
0 120 120
0 112 112
0 132 132
0 88 88

0 152 152
0 108 108
0 108 108
0 112 112
0 108 108
0 108 108
0 96 96
0 88 88
0 88 88
0 88 88
0 96 96
0 64 64
0 64 64
0 100 100
0 108 108
0 100 100
64 0 0
132 132 0
64 0 0
64 0 0
84 84 84
84 84 84
64 0 0
84 84 84
84 84 84
84 84 84
84 84 84
64 0 0
84 84 84
84 84 84
84 84 84
84 84 84
84 84 84
84 84 84
84 84 84
64 0 0
84 84 84
84 84 84
84 84 84
84 84 84
84 84 84
64 0 0
84 84 84
84 84 84
84 84 84
84 84 84
64 0 0
64 0 0
132 132 0
64 0 0
0 124 124
0 124 124
0 164 164
32 180 180
0 124 124
0 124 124
0 132 132
0 152 152
0 164 164
0 132 132
0 120 120
0 112 112
0 132 132
0 88 88

0 152 152
0 108 108
0 108 108
0 100 100
0 96 96
0 100 100
0 88 88
0 88 88
0 88 88
0 88 88
0 88 88
0 64 64
0 64 64
0 108 108
0 100 100
0 108 108
64 0 0
132 132 0
64 0 0
64 0 0
64 0 0
64 0 0
64 0 0
64 0 0
64 0 0
64 0 0
64 0 0
64 0 0
64 0 0
64 0 0
64 0 0
64 0 0
64 0 0
64 0 0
64 0 0
64 0 0
64 0 0
64 0 0
64 0 0
64 0 0
64 0 0
64 0 0
64 0 0
64 0 0
64 0 0
64 0 0
64 0 0
64 0 0
132 132 0
64 0 0
0 120 120
0 124 124
0 164 164
32 180 180
0 124 124
0 124 124
0 124 124
0 132 132
0 124 124
0 120 120
0 112 112
0 140 140
0 132 132
0 88 88

0 140 140
0 108 108
0 108 108
0 88 88
0 88 88
0 88 88
0 88 88
0 88 88
0 88 88
0 88 88
0 96 96
0 64 64
0 64 64
0 100 100
0 100 100
0 100 100
64 0 0
132 132 0
64 0 0
64 0 0
64 0 0
64 0 0
64 0 0
64 0 0
64 0 0
64 0 0
64 0 0
64 0 0
64 0 0
64 0 0
64 0 0
64 0 0
64 0 0
64 0 0
64 0 0
64 0 0
64 0 0
64 0 0
64 0 0
64 0 0
64 0 0
64 0 0
64 0 0
64 0 0
64 0 0
64 0 0
64 0 0
64 0 0
132 132 0
64 0 0
0 124 124
0 120 120
0 164 164
32 180 180
0 124 124
0 124 124
0 124 124
0 124 124
0 132 132
0 124 124
0 132 132
0 124 124
0 124 124
0 88 88

0 140 140
0 112 112
0 108 108
0 108 108
0 100 100
0 100 100
0 96 96
0 96 96
0 88 88
0 88 88
0 88 88
0 64 64
0 64 64
0 96 96
0 100 100
0 100 100
64 0 0
132 132 0
64 0 0
64 0 0
64 0 0
64 0 0
64 0 0
64 0 0
56 56 56
100 100 100
100 100 100
100 100 100
56 56 56
64 0 0
64 0 0
64 0 0
64 0 0
64 0 0
64 0 0
64 0 0
64 0 0
64 0 0
64 0 0
64 0 0
64 0 0
64 0 0
64 0 0
64 0 0
64 0 0
64 0 0
64 0 0
64 0 0
132 132 0
64 0 0
0 120 120
0 124 124
0 164 164
32 180 180
0 124 124
0 124 124
0 124 124
0 124 124
0 124 124
0 124 124
0 124 124
0 132 132
0 124 124
0 88 88

0 140 140
0 112 112
0 108 108
0 108 108
0 108 108
0 100 100
0 96 96
0 96 96
0 96 96
0 88 88
0 88 88
0 64 64
0 64 64
0 96 96
0 96 96
0 100 100
64 0 0
132 132 0
64 0 0
64 0 0
64 0 0
64 0 0
64 0 0
56 56 56
100 100 100
100 100 100
0 0 0
0 0 0
100 100 100
56 56 56
64 0 0
64 0 0
64 0 0
64 0 0
84 84 84
84 84 84
84 84 84
84 84 84
84 84 84
84 84 84
84 84 84
84 84 84
84 84 84
84 84 84
84 84 84
84 84 84
64 0 0
64 0 0
132 132 0
64 0 0
0 120 120
0 120 120
0 164 164
32 176 176
0 124 124
0 124 124
0 124 124
0 124 124
0 124 124
0 124 124
0 124 124
0 124 124
0 132 132
0 88 88

0 140 140
0 112 112
0 112 112
0 108 108
0 108 108
0 108 108
0 100 100
0 96 96
0 88 88
0 96 96
0 88 88
0 64 64
0 64 64
0 96 96
0 96 96
0 100 100
64 0 0
132 132 0
64 0 0
64 0 0
64 0 0
64 0 0
64 0 0
100 100 100
0 0 0
100 100 100
0 0 0
100 100 100
100 100 100
100 100 100
64 0 0
64 0 0
64 0 0
64 0 0
64 0 0
64 0 0
64 0 0
64 0 0
64 0 0
64 0 0
64 0 0
64 0 0
64 0 0
64 0 0
64 0 0
64 0 0
64 0 0
64 0 0
132 132 0
64 0 0
0 120 120
0 120 120
0 164 164
32 176 176
0 120 120
0 124 124
0 124 124
0 124 124
0 120 120
0 124 124
0 124 124
0 124 124
0 124 124
0 88 88

0 140 140
0 112 112
0 112 112
0 116 116
0 124 124
0 120 120
0 96 96
0 96 96
0 96 96
0 88 88
0 88 88
0 64 64
0 64 64
0 88 88
0 96 96
0 96 96
64 0 0
132 132 0
64 0 0
64 0 0
64 0 0
64 0 0
64 0 0
100 100 100
0 0 0
0 0 0
0 0 0
0 0 0
0 0 0
100 100 100
64 0 0
64 0 0
64 0 0
64 0 0
84 84 84
84 84 84
84 84 84
84 84 84
84 84 84
84 84 84
84 84 84
84 84 84
84 84 84
84 84 84
84 84 84
84 84 84
64 0 0
64 0 0
132 132 0
64 0 0
0 120 120
0 120 120
0 164 164
32 176 176
0 120 120
0 120 120
0 124 124
0 140 140
0 164 164
0 164 164
0 132 132
0 120 120
0 124 124
0 88 88

0 140 140
0 116 116
0 112 112
0 124 124
0 132 132
0 124 124
0 108 108
0 96 96
0 96 96
0 96 96
0 88 88
0 64 64
0 64 64
0 88 88
0 88 88
0 96 96
64 0 0
132 132 0
64 0 0
64 0 0
64 0 0
64 0 0
64 0 0
100 100 100
100 100 100
100 100 100
0 0 0
100 100 100
0 0 0
100 100 100
64 0 0
64 0 0
64 0 0
64 0 0
64 0 0
64 0 0
64 0 0
64 0 0
64 0 0
64 0 0
64 0 0
64 0 0
64 0 0
64 0 0
64 0 0
64 0 0
64 0 0
64 0 0
132 132 0
64 0 0
0 120 120
0 120 120
0 164 164
32 176 176
0 120 120
0 124 124
0 120 120
0 164 164
32 180 180
0 164 164
0 120 120
0 112 112
0 124 124
0 88 88

0 140 140
0 116 116
0 112 112
0 120 120
0 124 124
0 120 120
0 108 108
0 88 88
0 100 100
0 96 96
0 96 96
0 64 64
0 64 64
0 88 88
0 96 96
0 88 88
64 0 0
132 132 0
64 0 0
64 0 0
64 0 0
64 0 0
64 0 0
56 56 56
100 100 100
0 0 0
0 0 0
100 100 100
100 100 100
56 56 56
64 0 0
64 0 0
64 0 0
64 0 0
64 0 0
72 72 72
56 56 56
64 0 0
64 0 0
64 0 0
64 0 0
56 56 56
72 72 72
64 0 0
64 0 0
64 0 0
64 0 0
64 0 0
132 132 0
64 0 0
0 120 120
0 120 120
0 152 152
32 176 176
0 120 120
0 120 120
0 120 120
0 152 152
0 164 164
0 132 132
0 120 120
0 112 112
0 124 124
0 88 88

0 140 140
0 116 116
0 116 116
0 108 108
0 108 108
0 108 108
0 88 88
0 88 88
0 100 100
0 96 96
0 96 96
0 64 64
0 64 64
0 88 88
0 88 88
0 96 96
64 0 0
132 132 0
64 0 0
64 0 0
64 0 0
64 0 0
64 0 0
64 0 0
56 56 56
100 100 100
100 100 100
100 100 100
56 56 56
64 0 0
64 0 0
64 0 0
64 0 0
64 0 0
64 0 0
72 72 72
84 84 84
84 84 84
84 84 84
72 72 72
56 56 56
72 72 72
84 84 84
72 72 72
72 72 72
84 84 84
84 84 84
64 0 0
132 132 0
64 0 0
0 120 120
0 120 120
0 152 152
32 176 176
0 120 120
0 120 120
0 120 120
0 120 120
0 132 132
0 120 120
0 112 112
0 120 120
0 120 120
0 88 88

0 140 140
0 116 116
0 116 116
0 100 100
0 100 100
0 88 88
0 88 88
0 96 96
0 100 100
0 100 100
0 96 96
0 64 64
0 64 64
0 88 88
0 88 88
0 88 88
64 0 0
132 132 0
64 0 0
64 0 0
64 0 0
64 0 0
64 0 0
64 0 0
64 0 0
64 0 0
64 0 0
64 0 0
64 0 0
64 0 0
64 0 0
64 0 0
64 0 0
64 0 0
64 0 0
64 0 0
64 0 0
64 0 0
64 0 0
64 0 0
64 0 0
64 0 0
64 0 0
64 0 0
64 0 0
64 0 0
64 0 0
64 0 0
132 132 0
64 0 0
0 120 120
0 120 120
0 152 152
32 176 176
0 120 120
0 120 120
0 120 120
0 120 120
0 120 120
0 120 120
0 124 124
0 120 120
0 120 120
0 88 88

0 140 140
0 116 116
0 116 116
0 112 112
0 112 112
0 108 108
0 108 108
0 108 108
0 100 100
0 100 100
0 96 96
0 64 64
0 64 64
0 88 88
0 88 88
0 88 88
64 0 0
132 132 0
64 0 0
64 0 0
64 0 0
64 0 0
64 0 0
64 0 0
64 0 0
64 0 0
64 0 0
64 0 0
64 0 0
64 0 0
64 0 0
64 0 0
64 0 0
64 0 0
64 0 0
64 0 0
64 0 0
64 0 0
64 0 0
64 0 0
64 0 0
64 0 0
64 0 0
64 0 0
64 0 0
64 0 0
64 0 0
64 0 0
132 132 0
64 0 0
0 116 116
0 120 120
0 152 152
0 164 164
0 120 120
0 120 120
0 120 120
0 120 120
0 120 120
0 120 120
0 120 120
0 124 124
0 120 120
0 88 88

0 140 140
0 116 116
0 116 116
0 116 116
0 112 112
0 108 108
0 108 108
0 100 100
0 108 108
0 100 100
0 100 100
0 64 64
0 64 64
0 88 88
0 88 88
0 88 88
64 0 0
132 132 0
88 84 0
64 0 0
64 0 0
64 0 0
64 0 0
64 0 0
64 0 0
64 0 0
64 0 0
64 0 0
64 0 0
64 0 0
64 0 0
64 0 0
64 0 0
64 0 0
64 0 0
64 0 0
64 0 0
64 0 0
64 0 0
64 0 0
64 0 0
64 0 0
64 0 0
64 0 0
64 0 0
64 0 0
64 0 0
88 84 0
132 132 0
64 0 0
0 116 116
0 116 116
0 152 152
0 164 164
0 120 120
0 120 120
0 120 120
0 120 120
0 120 120
0 120 120
0 120 120
0 120 120
0 120 120
0 88 88

0 140 140
0 116 116
0 116 116
0 116 116
0 112 112
0 112 112
0 108 108
0 108 108
0 100 100
0 108 108
0 100 100
0 64 64
0 64 64
0 96 96
0 88 88
0 88 88
64 0 0
88 84 0
132 132 0
132 132 0
132 132 0
132 132 0
132 132 0
132 132 0
132 132 0
132 132 0
132 132 0
132 132 0
132 132 0
132 132 0
132 132 0
132 132 0
132 132 0
132 132 0
132 132 0
132 132 0
132 132 0
132 132 0
132 132 0
132 132 0
132 132 0
132 132 0
132 132 0
132 132 0
132 132 0
132 132 0
132 132 0
132 132 0
88 84 0
64 0 0
0 116 116
0 116 116
0 140 140
0 164 164
0 120 120
0 120 120
0 120 120
0 120 120
0 120 120
0 120 120
0 120 120
0 120 120
0 120 120
0 88 88

0 140 140
0 116 116
0 116 116
0 116 116
0 124 124
0 120 120
0 120 120
0 108 108
0 108 108
0 100 100
0 100 100
0 64 64
0 64 64
0 96 96
0 96 96
0 88 88
0 64 64
64 0 0
64 0 0
64 0 0
64 0 0
64 0 0
64 0 0
64 0 0
64 0 0
64 0 0
64 0 0
64 0 0
64 0 0
64 0 0
64 0 0
64 0 0
64 0 0
64 0 0
64 0 0
64 0 0
64 0 0
64 0 0
64 0 0
64 0 0
64 0 0
64 0 0
64 0 0
64 0 0
64 0 0
64 0 0
64 0 0
64 0 0
64 0 0
0 96 96
0 116 116
0 116 116
0 140 140
0 164 164
0 120 120
0 116 116
0 120 120
0 120 120
0 140 140
0 140 140
0 132 132
0 120 120
0 120 120
0 88 88

0 140 140
0 116 116
0 116 116
0 124 124
0 152 152
0 124 124
0 120 120
0 112 112
0 108 108
0 108 108
0 100 100
0 64 64
0 64 64
0 96 96
0 88 88
0 96 96
0 88 88
0 88 88
0 88 88
0 96 96
0 88 88
0 96 96
0 96 96
0 100 100
0 100 100
0 108 108
0 100 100
0 108 108
0 108 108
0 108 108
0 108 108
0 112 112
0 108 108
0 112 112
0 112 112
0 112 112
0 112 112
0 112 112
0 112 112
0 112 112
0 112 112
0 112 112
0 112 112
0 116 116
0 112 112
0 116 116
0 112 112
0 116 116
0 112 112
0 116 116
0 116 116
0 116 116
0 132 132
0 164 164
0 116 116
0 120 120
0 116 116
0 140 140
32 180 180
0 164 164
0 120 120
0 112 112
0 120 120
0 88 88

0 140 140
0 116 116
0 116 116
0 120 120
0 124 124
0 120 120
0 108 108
0 96 96
0 108 108
0 108 108
0 108 108
0 64 64
0 64 64
0 96 96
0 96 96
0 88 88
0 88 88
0 88 88
0 88 88
0 88 88
0 96 96
0 88 88
0 96 96
0 96 96
0 100 100
0 100 100
0 108 108
0 100 100
0 108 108
0 108 108
0 108 108
0 108 108
0 112 112
0 108 108
0 112 112
0 112 112
0 112 112
0 112 112
0 112 112
0 112 112
0 112 112
0 112 112
0 112 112
0 112 112
0 112 112
0 112 112
0 116 116
0 112 112
0 116 116
0 116 116
0 116 116
0 116 116
0 132 132
0 152 152
0 116 116
0 116 116
0 120 120
0 140 140
0 164 164
0 132 132
0 116 116
0 112 112
0 120 120
0 88 88

0 140 140
0 120 120
0 116 116
0 108 108
0 108 108
0 108 108
0 88 88
0 88 88
0 108 108
0 108 108
0 100 100
0 64 64
0 88 88
0 100 100
0 96 96
0 96 96
0 88 88
0 88 88
0 88 88
0 88 88
0 96 96
0 88 88
0 88 88
0 96 96
0 100 100
0 100 100
0 100 100
0 108 108
0 100 100
0 108 108
0 108 108
0 108 108
0 108 108
0 112 112
0 108 108
0 112 112
0 112 112
0 112 112
0 112 112
0 112 112
0 112 112
0 112 112
0 112 112
0 112 112
0 112 112
0 116 116
0 112 112
0 116 116
0 112 112
0 116 116
0 112 112
0 116 116
0 132 132
0 152 152
0 116 116
0 116 116
0 116 116
0 120 120
0 132 132
0 120 120
0 112 112
0 112 112
0 120 120
0 88 88

0 140 140
0 120 120
0 116 116
0 100 100
0 96 96
0 88 88
0 88 88
0 96 96
0 108 108
0 108 108
0 112 112
0 64 64
0 88 88
0 116 116
0 116 116
0 116 116
0 112 112
0 108 108
0 100 100
0 100 100
0 100 100
0 100 100
0 100 100
0 108 108
0 108 108
0 112 112
0 112 112
0 116 116
0 116 116
0 120 120
0 120 120
0 120 120
0 120 120
0 120 120
0 120 120
0 120 120
0 120 120
0 120 120
0 120 120
0 120 120
0 120 120
0 120 120
0 120 120
0 120 120
0 120 120
0 120 120
0 124 124
0 124 124
0 124 124
0 124 124
0 132 132
0 132 132
0 132 132
0 152 152
0 116 116
0 116 116
0 116 116
0 116 116
0 120 120
0 112 112
0 112 112
0 120 120
0 120 120
0 88 88

0 140 140
0 120 120
0 116 116
0 116 116
0 116 116
0 116 116
0 112 112
0 112 112
0 108 108
0 108 108
0 108 108
0 64 64
0 116 116
0 116 116
0 112 112
0 112 112
0 112 112
0 100 100
0 100 100
0 100 100
0 100 100
0 100 100
0 100 100
0 100 100
0 108 108
0 108 108
0 112 112
0 112 112
0 112 112
0 112 112
0 116 116
0 116 116
0 116 116
0 116 116
0 124 124
0 132 132
0 132 132
0 132 132
0 132 132
0 132 132
0 132 132
0 132 132
0 132 132
0 132 132
0 132 132
0 132 132
0 132 132
0 132 132
0 132 132
0 140 140
0 152 152
0 152 152
0 152 152
0 152 152
0 116 116
0 116 116
0 116 116
0 116 116
0 116 116
0 120 120
0 120 120
0 120 120
0 120 120
0 88 88

0 140 140
0 120 120
0 116 116
0 116 116
0 116 116
0 116 116
0 112 112
0 112 112
0 112 112
0 100 100
0 108 108
0 100 100
0 108 108
0 100 100
0 100 100
0 100 100
0 96 96
0 88 88
0 88 88
0 88 88
0 88 88
0 88 88
0 96 96
0 88 88
0 96 96
0 96 96
0 96 96
0 100 100
0 100 100
0 100 100
0 108 108
0 108 108
0 108 108
0 108 108
0 108 108
0 108 108
0 112 112
0 108 108
0 112 112
0 112 112
0 112 112
0 112 112
0 112 112
0 112 112
0 112 112
0 112 112
0 112 112
0 112 112
0 112 112
0 112 112
0 116 116
0 112 112
0 116 116
0 116 116
0 116 116
0 116 116
0 116 116
0 116 116
0 116 116
0 116 116
0 116 116
0 120 120
0 120 120
0 88 88

0 140 140
0 120 120
0 116 116
0 116 116
0 116 116
0 116 116
0 112 112
0 112 112
0 112 112
0 108 108
0 108 108
0 108 108
0 64 64
0 100 100
0 100 100
0 100 100
0 64 64
0 96 96
0 88 88
0 88 88
0 64 64
0 88 88
0 88 88
0 96 96
0 64 64
0 96 96
0 96 96
0 100 100
0 64 64
0 100 100
0 100 100
0 108 108
0 64 64
0 108 108
0 108 108
0 108 108
0 64 64
0 112 112
0 108 108
0 112 112
0 64 64
0 112 112
0 112 112
0 112 112
0 64 64
0 112 112
0 112 112
0 112 112
0 64 64
0 116 116
0 112 112
0 116 116
0 64 64
0 116 116
0 112 112
0 116 116
0 116 116
0 116 116
0 116 116
0 116 116
0 116 116
0 116 116
0 120 120
0 88 88

0 140 140
0 120 120
0 120 120
0 112 112
0 124 124
0 124 124
0 112 112
0 112 112
0 112 112
0 108 108
0 108 108
0 100 100
0 108 108
0 108 108
0 100 100
0 100 100
0 100 100
0 96 96
0 96 96
0 88 88
0 88 88
0 88 88
0 88 88
0 88 88
0 96 96
0 96 96
0 96 96
0 96 96
0 100 100
0 100 100
0 100 100
0 100 100
0 108 108
0 100 100
0 108 108
0 108 108
0 108 108
0 108 108
0 112 112
0 108 108
0 112 112
0 112 112
0 112 112
0 112 112
0 112 112
0 112 112
0 112 112
0 112 112
0 112 112
0 112 112
0 112 112
0 112 112
0 116 116
0 112 112
0 116 116
0 116 116
0 116 116
0 116 116
0 132 132
0 132 132
0 120 120
0 116 116
0 116 116
0 88 88

0 140 140
0 120 120
0 120 120
0 124 124
0 164 164
0 140 140
0 112 112
0 96 96
0 112 112
0 112 112
0 108 108
0 108 108
0 108 108
0 108 108
0 100 100
0 100 100
0 100 100
0 96 96
0 88 88
0 96 96
0 88 88
0 88 88
0 88 88
0 88 88
0 96 96
0 88 88
0 96 96
0 96 96
0 96 96
0 100 100
0 100 100
0 100 100
0 100 100
0 108 108
0 108 108
0 108 108
0 108 108
0 108 108
0 108 108
0 112 112
0 112 112
0 112 112
0 112 112
0 112 112
0 112 112
0 112 112
0 112 112
0 112 112
0 112 112
0 112 112
0 112 112
0 116 116
0 112 112
0 116 116
0 112 112
0 116 116
0 112 112
0 132 132
32 176 176
0 152 152
0 120 120
0 112 112
0 116 116
0 88 88

0 140 140
0 120 120
0 120 120
0 124 124
0 140 140
0 116 116
0 88 88
0 96 96
0 112 112
0 112 112
0 108 108
0 108 108
0 108 108
0 100 100
0 108 108
0 100 100
0 100 100
0 100 100
0 96 96
0 88 88
0 96 96
0 88 88
0 88 88
0 88 88
0 88 88
0 88 88
0 96 96
0 88 88
0 96 96
0 96 96
0 100 100
0 100 100
0 108 108
0 100 100
0 108 108
0 100 100
0 108 108
0 108 108
0 108 108
0 108 108
0 112 112
0 108 108
0 112 112
0 112 112
0 112 112
0 112 112
0 112 112
0 112 112
0 112 112
0 112 112
0 112 112
0 112 112
0 112 112
0 112 112
0 116 116
0 112 112
0 116 116
0 132 132
0 152 152
0 132 132
0 116 116
0 112 112
0 116 116
0 88 88

0 140 140
0 120 120
0 120 120
0 112 112
0 88 88
0 88 88
0 88 88
0 96 96
0 112 112
0 112 112
0 112 112
0 108 108
0 108 108
0 108 108
0 100 100
0 100 100
0 100 100
0 100 100
0 96 96
0 96 96
0 88 88
0 88 88
0 88 88
0 88 88
0 88 88
0 88 88
0 88 88
0 96 96
0 88 88
0 96 96
0 100 100
0 100 100
0 100 100
0 108 108
0 100 100
0 108 108
0 108 108
0 108 108
0 108 108
0 108 108
0 108 108
0 112 112
0 112 112
0 112 112
0 112 112
0 112 112
0 112 112
0 112 112
0 112 112
0 112 112
0 112 112
0 112 112
0 112 112
0 116 116
0 112 112
0 116 116
0 112 112
0 116 116
0 116 116
0 116 116
0 112 112
0 112 112
0 116 116
0 88 88

0 140 140
0 120 120
0 120 120
0 96 96
0 96 96
0 96 96
0 96 96
0 112 112
0 112 112
0 112 112
0 112 112
0 108 108
0 108 108
0 108 108
0 108 108
0 100 100
0 100 100
0 100 100
0 100 100
0 96 96
0 96 96
0 88 88
0 88 88
0 88 88
0 88 88
0 88 88
0 96 96
0 88 88
0 96 96
0 88 88
0 96 96
0 100 100
0 100 100
0 100 100
0 108 108
0 100 100
0 108 108
0 100 100
0 108 108
0 108 108
0 108 108
0 108 108
0 112 112
0 108 108
0 112 112
0 112 112
0 112 112
0 112 112
0 112 112
0 112 112
0 112 112
0 112 112
0 112 112
0 112 112
0 112 112
0 112 112
0 116 116
0 112 112
0 112 112
0 112 112
0 112 112
0 116 116
0 116 116
0 88 88

100 100 100
100 100 100
100 100 100
100 100 100
100 100 100
100 100 100
100 100 100
100 100 100
100 100 100
100 100 100
100 100 100
100 100 100
100 100 100
100 100 100
100 100 100
100 100 100
100 100 100
100 100 100
100 100 100
100 100 100
100 100 100
100 100 100
100 100 100
100 100 100
100 100 100
100 100 100
100 100 100
100 100 100
100 100 100
100 100 100
100 100 100
100 100 100
100 100 100
100 100 100
100 100 100
100 100 100
100 100 100
100 100 100
100 100 100
100 100 100
100 100 100
100 100 100
100 100 100
100 100 100
100 100 100
100 100 100
100 100 100
100 100 100
100 100 100
100 100 100
100 100 100
100 100 100
100 100 100
100 100 100
100 100 100
100 100 100
100 100 100
100 100 100
100 100 100
100 100 100
100 100 100
100 100 100
100 100 100
100 100 100

