P3
# ASCII PPM file
64 64
255

40 32 12
40 32 12
40 32 12
40 32 12
40 32 12
40 32 12
40 32 12
40 32 12
40 32 12
40 32 12
40 32 12
40 32 12
40 32 12
40 32 12
40 32 12
40 32 12
40 32 12
40 32 12
40 32 12
40 32 12
40 32 12
40 32 12
40 32 12
40 32 12
40 32 12
40 32 12
40 32 12
40 32 12
40 32 12
40 32 12
40 32 12
40 32 12
40 32 12
40 32 12
40 32 12
40 32 12
40 32 12
40 32 12
40 32 12
40 32 12
40 32 12
40 32 12
40 32 12
40 32 12
40 32 12
40 32 12
40 32 12
40 32 12
40 32 12
40 32 12
40 32 12
40 32 12
40 32 12
40 32 12
40 32 12
40 32 12
40 32 12
40 32 12
40 32 12
40 32 12
40 32 12
40 32 12
40 32 12
40 32 12

64 48 24
64 48 24
64 48 24
64 48 24
64 48 24
64 48 24
64 48 24
64 48 24
64 48 24
64 48 24
64 48 24
64 48 24
64 48 24
64 48 24
64 48 24
64 48 24
64 48 24
64 48 24
64 48 24
64 48 24
64 48 24
64 48 24
64 48 24
64 48 24
64 48 24
64 48 24
64 48 24
64 48 24
64 48 24
64 48 24
64 48 24
64 48 24
64 48 24
64 48 24
64 48 24
64 48 24
64 48 24
64 48 24
64 48 24
64 48 24
64 48 24
64 48 24
64 48 24
64 48 24
64 48 24
64 48 24
64 48 24
64 48 24
64 48 24
64 48 24
64 48 24
64 48 24
64 48 24
64 48 24
64 48 24
64 48 24
64 48 24
64 48 24
64 48 24
64 48 24
64 48 24
64 48 24
64 48 24
64 48 24

92 64 32
92 64 32
92 64 32
92 64 32
92 64 32
92 64 32
92 64 32
92 64 32
92 64 32
92 64 32
92 64 32
92 64 32
92 64 32
92 64 32
92 64 32
92 64 32
92 64 32
92 64 32
92 64 32
92 64 32
92 64 32
92 64 32
92 64 32
92 64 32
92 64 32
92 64 32
92 64 32
92 64 32
92 64 32
92 64 32
92 64 32
92 64 32
92 64 32
92 64 32
92 64 32
92 64 32
92 64 32
92 64 32
92 64 32
92 64 32
92 64 32
92 64 32
92 64 32
92 64 32
92 64 32
92 64 32
92 64 32
92 64 32
92 64 32
92 64 32
92 64 32
92 64 32
92 64 32
92 64 32
92 64 32
92 64 32
92 64 32
92 64 32
92 64 32
92 64 32
92 64 32
92 64 32
92 64 32
92 64 32

40 32 12
40 32 12
40 32 12
40 32 12
40 32 12
40 32 12
40 32 12
40 32 12
40 32 12
40 32 12
40 32 12
40 32 12
40 32 12
40 32 12
40 32 12
40 32 12
40 32 12
40 32 12
40 32 12
40 32 12
40 32 12
40 32 12
40 32 12
40 32 12
40 32 12
40 32 12
40 32 12
40 32 12
40 32 12
40 32 12
40 32 12
40 32 12
40 32 12
40 32 12
40 32 12
40 32 12
40 32 12
40 32 12
40 32 12
40 32 12
40 32 12
40 32 12
40 32 12
40 32 12
40 32 12
40 32 12
40 32 12
40 32 12
40 32 12
40 32 12
40 32 12
40 32 12
40 32 12
40 32 12
40 32 12
40 32 12
40 32 12
40 32 12
40 32 12
40 32 12
40 32 12
40 32 12
40 32 12
40 32 12

40 32 12
40 32 12
64 48 24
72 56 24
72 56 24
72 56 24
72 56 24
40 32 12
92 64 32
40 32 12
40 32 12
92 64 32
56 44 20
40 32 12
40 32 12
40 32 12
40 32 12
72 56 24
72 56 24
40 32 12
64 48 24
40 32 12
64 48 24
40 32 12
40 32 12
40 32 12
92 64 32
40 32 12
40 32 12
92 64 32
72 56 24
40 32 12
72 56 24
40 32 12
92 64 32
40 32 12
40 32 12
92 64 32
56 44 20
40 32 12
40 32 12
40 32 12
56 44 20
40 32 12
92 64 32
40 32 12
40 32 12
92 64 32
40 32 12
72 56 24
40 32 12
40 32 12
72 56 24
40 32 12
72 56 24
40 32 12
72 56 24
72 56 24
40 32 12
92 64 32
40 32 12
40 32 12
92 64 32
64 48 24

40 32 12
40 32 12
64 48 24
72 56 24
72 56 24
72 56 24
56 44 20
40 32 12
92 64 32
40 32 12
40 32 12
92 64 32
64 48 24
40 32 12
40 32 12
40 32 12
40 32 12
72 56 24
72 56 24
40 32 12
64 48 24
40 32 12
64 48 24
40 32 12
40 32 12
40 32 12
92 64 32
40 32 12
40 32 12
92 64 32
72 56 24
40 32 12
72 56 24
40 32 12
92 64 32
40 32 12
40 32 12
92 64 32
72 56 24
56 44 20
40 32 12
56 44 20
72 56 24
40 32 12
92 64 32
40 32 12
40 32 12
92 64 32
40 32 12
72 56 24
40 32 12
40 32 12
72 56 24
40 32 12
72 56 24
40 32 12
72 56 24
72 56 24
40 32 12
92 64 32
40 32 12
40 32 12
92 64 32
64 48 24

40 32 12
40 32 12
56 44 20
72 56 24
72 56 24
72 56 24
40 32 12
40 32 12
92 64 32
40 32 12
40 32 12
92 64 32
72 56 24
40 32 12
40 32 12
40 32 12
40 32 12
72 56 24
72 56 24
40 32 12
64 48 24
40 32 12
64 48 24
40 32 12
40 32 12
40 32 12
92 64 32
40 32 12
40 32 12
92 64 32
64 48 24
40 32 12
72 56 24
40 32 12
92 64 32
40 32 12
40 32 12
92 64 32
72 56 24
72 56 24
56 44 20
72 56 24
72 56 24
40 32 12
92 64 32
40 32 12
40 32 12
92 64 32
40 32 12
72 56 24
40 32 12
40 32 12
72 56 24
40 32 12
72 56 24
40 32 12
72 56 24
72 56 24
40 32 12
92 64 32
40 32 12
40 32 12
92 64 32
64 48 24

40 32 12
40 32 12
40 32 12
64 48 24
72 56 24
72 56 24
40 32 12
40 32 12
92 64 32
40 32 12
40 32 12
92 64 32
72 56 24
40 32 12
40 32 12
40 32 12
56 44 20
72 56 24
64 48 24
40 32 12
64 48 24
40 32 12
64 48 24
40 32 12
40 32 12
40 32 12
92 64 32
40 32 12
40 32 12
92 64 32
64 48 24
40 32 12
72 56 24
40 32 12
92 64 32
40 32 12
40 32 12
92 64 32
72 56 24
72 56 24
72 56 24
72 56 24
72 56 24
40 32 12
92 64 32
40 32 12
40 32 12
92 64 32
40 32 12
72 56 24
40 32 12
40 32 12
72 56 24
40 32 12
72 56 24
40 32 12
72 56 24
72 56 24
40 32 12
92 64 32
40 32 12
40 32 12
92 64 32
64 48 24

64 48 24
40 32 12
40 32 12
56 44 20
72 56 24
56 44 20
40 32 12
40 32 12
92 64 32
40 32 12
40 32 12
92 64 32
72 56 24
56 44 20
40 32 12
40 32 12
64 48 24
72 56 24
64 48 24
40 32 12
64 48 24
40 32 12
64 48 24
40 32 12
40 32 12
40 32 12
92 64 32
40 32 12
40 32 12
92 64 32
64 48 24
40 32 12
72 56 24
40 32 12
92 64 32
40 32 12
40 32 12
92 64 32
72 56 24
72 56 24
72 56 24
72 56 24
72 56 24
40 32 12
92 64 32
40 32 12
40 32 12
92 64 32
40 32 12
72 56 24
40 32 12
40 32 12
72 56 24
40 32 12
72 56 24
40 32 12
64 48 24
72 56 24
40 32 12
92 64 32
40 32 12
40 32 12
92 64 32
40 32 12

64 48 24
40 32 12
40 32 12
40 32 12
56 44 20
40 32 12
40 32 12
40 32 12
92 64 32
40 32 12
40 32 12
92 64 32
72 56 24
64 48 24
40 32 12
56 44 20
72 56 24
72 56 24
56 44 20
40 32 12
64 48 24
40 32 12
64 48 24
40 32 12
40 32 12
40 32 12
92 64 32
40 32 12
40 32 12
92 64 32
56 44 20
40 32 12
72 56 24
40 32 12
92 64 32
40 32 12
40 32 12
92 64 32
72 56 24
72 56 24
72 56 24
72 56 24
72 56 24
40 32 12
92 64 32
40 32 12
40 32 12
92 64 32
40 32 12
72 56 24
40 32 12
40 32 12
72 56 24
40 32 12
72 56 24
40 32 12
64 48 24
72 56 24
40 32 12
92 64 32
40 32 12
40 32 12
92 64 32
40 32 12

72 56 24
40 32 12
40 32 12
40 32 12
40 32 12
40 32 12
40 32 12
40 32 12
92 64 32
40 32 12
40 32 12
92 64 32
72 56 24
72 56 24
56 44 20
64 48 24
72 56 24
72 56 24
56 44 20
40 32 12
64 48 24
40 32 12
64 48 24
40 32 12
40 32 12
40 32 12
92 64 32
40 32 12
40 32 12
92 64 32
56 44 20
40 32 12
72 56 24
40 32 12
92 64 32
40 32 12
40 32 12
92 64 32
72 56 24
72 56 24
72 56 24
72 56 24
72 56 24
40 32 12
92 64 32
40 32 12
40 32 12
92 64 32
40 32 12
72 56 24
40 32 12
40 32 12
72 56 24
40 32 12
72 56 24
40 32 12
56 44 20
72 56 24
40 32 12
92 64 32
40 32 12
40 32 12
92 64 32
40 32 12

72 56 24
40 32 12
40 32 12
40 32 12
40 32 12
40 32 12
40 32 12
40 32 12
92 64 32
40 32 12
40 32 12
92 64 32
72 56 24
72 56 24
64 48 24
72 56 24
72 56 24
72 56 24
40 32 12
40 32 12
64 48 24
40 32 12
64 48 24
40 32 12
40 32 12
40 32 12
92 64 32
40 32 12
40 32 12
92 64 32
40 32 12
40 32 12
72 56 24
40 32 12
92 64 32
40 32 12
40 32 12
92 64 32
72 56 24
72 56 24
72 56 24
72 56 24
72 56 24
40 32 12
92 64 32
40 32 12
40 32 12
92 64 32
40 32 12
72 56 24
40 32 12
40 32 12
72 56 24
40 32 12
72 56 24
40 32 12
56 44 20
72 56 24
40 32 12
92 64 32
40 32 12
40 32 12
92 64 32
40 32 12

64 48 24
72 56 24
40 32 12
40 32 12
40 32 12
40 32 12
72 56 24
40 32 12
92 64 32
40 32 12
40 32 12
92 64 32
72 56 24
72 56 24
64 48 24
72 56 24
72 56 24
72 56 24
40 32 12
40 32 12
64 48 24
40 32 12
64 48 24
40 32 12
40 32 12
40 32 12
92 64 32
40 32 12
40 32 12
92 64 32
40 32 12
56 44 20
72 56 24
40 32 12
92 64 32
40 32 12
40 32 12
92 64 32
64 48 24
72 56 24
72 56 24
72 56 24
72 56 24
40 32 12
92 64 32
40 32 12
40 32 12
92 64 32
40 32 12
72 56 24
40 32 12
40 32 12
72 56 24
40 32 12
72 56 24
40 32 12
40 32 12
72 56 24
40 32 12
92 64 32
40 32 12
40 32 12
92 64 32
40 32 12

64 48 24
72 56 24
40 32 12
40 32 12
40 32 12
40 32 12
72 56 24
40 32 12
92 64 32
40 32 12
40 32 12
92 64 32
72 56 24
72 56 24
72 56 24
72 56 24
72 56 24
64 48 24
40 32 12
40 32 12
64 48 24
40 32 12
64 48 24
40 32 12
40 32 12
40 32 12
92 64 32
40 32 12
40 32 12
92 64 32
40 32 12
56 44 20
72 56 24
40 32 12
92 64 32
40 32 12
40 32 12
92 64 32
64 48 24
72 56 24
72 56 24
72 56 24
64 48 24
40 32 12
92 64 32
40 32 12
40 32 12
92 64 32
40 32 12
72 56 24
40 32 12
40 32 12
72 56 24
40 32 12
72 56 24
40 32 12
40 32 12
72 56 24
40 32 12
92 64 32
40 32 12
40 32 12
92 64 32
40 32 12

56 44 20
72 56 24
72 56 24
40 32 12
40 32 12
72 56 24
72 56 24
40 32 12
92 64 32
40 32 12
40 32 12
92 64 32
72 56 24
72 56 24
72 56 24
72 56 24
72 56 24
64 48 24
40 32 12
40 32 12
64 48 24
40 32 12
64 48 24
40 32 12
40 32 12
40 32 12
92 64 32
40 32 12
40 32 12
92 64 32
40 32 12
72 56 24
72 56 24
40 32 12
92 64 32
40 32 12
40 32 12
92 64 32
56 44 20
72 56 24
72 56 24
72 56 24
64 48 24
40 32 12
92 64 32
40 32 12
40 32 12
92 64 32
40 32 12
72 56 24
40 32 12
40 32 12
72 56 24
40 32 12
72 56 24
40 32 12
40 32 12
72 56 24
40 32 12
92 64 32
40 32 12
40 32 12
92 64 32
40 32 12

40 32 12
72 56 24
72 56 24
72 56 24
40 32 12
72 56 24
56 44 20
40 32 12
92 64 32
40 32 12
40 32 12
92 64 32
64 48 24
72 56 24
72 56 24
72 56 24
72 56 24
64 48 24
40 32 12
40 32 12
64 48 24
40 32 12
64 48 24
40 32 12
40 32 12
40 32 12
92 64 32
40 32 12
40 32 12
92 64 32
56 44 20
72 56 24
72 56 24
40 32 12
92 64 32
40 32 12
40 32 12
92 64 32
40 32 12
64 48 24
72 56 24
64 48 24
56 44 20
40 32 12
92 64 32
40 32 12
40 32 12
92 64 32
40 32 12
72 56 24
40 32 12
40 32 12
72 56 24
40 32 12
72 56 24
40 32 12
40 32 12
72 56 24
40 32 12
92 64 32
40 32 12
40 32 12
92 64 32
40 32 12

40 32 12
64 48 24
72 56 24
72 56 24
56 44 20
72 56 24
40 32 12
40 32 12
92 64 32
40 32 12
40 32 12
92 64 32
64 48 24
72 56 24
72 56 24
72 56 24
72 56 24
56 44 20
40 32 12
40 32 12
64 48 24
40 32 12
64 48 24
40 32 12
40 32 12
40 32 12
92 64 32
40 32 12
40 32 12
92 64 32
56 44 20
72 56 24
64 48 24
40 32 12
92 64 32
40 32 12
40 32 12
92 64 32
40 32 12
56 44 20
64 48 24
56 44 20
40 32 12
40 32 12
92 64 32
40 32 12
40 32 12
92 64 32
40 32 12
72 56 24
40 32 12
40 32 12
72 56 24
40 32 12
72 56 24
56 44 20
40 32 12
72 56 24
40 32 12
92 64 32
40 32 12
40 32 12
92 64 32
40 32 12

40 32 12
64 48 24
72 56 24
72 56 24
72 56 24
72 56 24
40 32 12
40 32 12
92 64 32
40 32 12
40 32 12
92 64 32
56 44 20
72 56 24
72 56 24
72 56 24
72 56 24
56 44 20
40 32 12
40 32 12
64 48 24
40 32 12
64 48 24
40 32 12
40 32 12
40 32 12
92 64 32
40 32 12
40 32 12
92 64 32
72 56 24
72 56 24
64 48 24
40 32 12
92 64 32
40 32 12
40 32 12
92 64 32
40 32 12
40 32 12
56 44 20
40 32 12
40 32 12
40 32 12
92 64 32
40 32 12
40 32 12
92 64 32
40 32 12
72 56 24
40 32 12
40 32 12
72 56 24
40 32 12
72 56 24
56 44 20
40 32 12
64 48 24
40 32 12
92 64 32
40 32 12
40 32 12
92 64 32
40 32 12

40 32 12
56 44 20
64 48 24
72 56 24
72 56 24
72 56 24
40 32 12
40 32 12
92 64 32
40 32 12
40 32 12
92 64 32
56 44 20
72 56 24
72 56 24
72 56 24
72 56 24
40 32 12
40 32 12
40 32 12
64 48 24
40 32 12
64 48 24
40 32 12
40 32 12
40 32 12
92 64 32
40 32 12
40 32 12
92 64 32
72 56 24
72 56 24
56 44 20
40 32 12
92 64 32
40 32 12
40 32 12
92 64 32
40 32 12
40 32 12
40 32 12
40 32 12
40 32 12
40 32 12
92 64 32
40 32 12
40 32 12
92 64 32
40 32 12
72 56 24
40 32 12
40 32 12
72 56 24
40 32 12
72 56 24
64 48 24
40 32 12
64 48 24
40 32 12
92 64 32
40 32 12
40 32 12
92 64 32
64 48 24

40 32 12
40 32 12
64 48 24
72 56 24
72 56 24
56 44 20
40 32 12
40 32 12
92 64 32
40 32 12
40 32 12
92 64 32
40 32 12
64 48 24
72 56 24
72 56 24
72 56 24
40 32 12
40 32 12
40 32 12
64 48 24
40 32 12
64 48 24
40 32 12
40 32 12
40 32 12
92 64 32
40 32 12
40 32 12
92 64 32
72 56 24
64 48 24
56 44 20
40 32 12
92 64 32
40 32 12
40 32 12
92 64 32
40 32 12
40 32 12
40 32 12
40 32 12
40 32 12
40 32 12
92 64 32
40 32 12
40 32 12
92 64 32
40 32 12
72 56 24
40 32 12
40 32 12
72 56 24
40 32 12
72 56 24
64 48 24
40 32 12
64 48 24
40 32 12
92 64 32
40 32 12
40 32 12
92 64 32
64 48 24

40 32 12
40 32 12
56 44 20
72 56 24
72 56 24
40 32 12
40 32 12
40 32 12
92 64 32
40 32 12
40 32 12
92 64 32
40 32 12
64 48 24
72 56 24
72 56 24
64 48 24
40 32 12
40 32 12
40 32 12
64 48 24
40 32 12
64 48 24
40 32 12
40 32 12
40 32 12
92 64 32
40 32 12
40 32 12
92 64 32
72 56 24
64 48 24
40 32 12
40 32 12
92 64 32
40 32 12
40 32 12
92 64 32
40 32 12
40 32 12
40 32 12
40 32 12
40 32 12
40 32 12
92 64 32
40 32 12
40 32 12
92 64 32
40 32 12
72 56 24
40 32 12
40 32 12
72 56 24
40 32 12
72 56 24
64 48 24
40 32 12
56 44 20
40 32 12
92 64 32
40 32 12
40 32 12
92 64 32
64 48 24

40 32 12
40 32 12
40 32 12
72 56 24
72 56 24
40 32 12
40 32 12
40 32 12
92 64 32
40 32 12
40 32 12
92 64 32
40 32 12
56 44 20
72 56 24
72 56 24
64 48 24
40 32 12
40 32 12
40 32 12
64 48 24
40 32 12
64 48 24
40 32 12
40 32 12
40 32 12
92 64 32
40 32 12
40 32 12
92 64 32
72 56 24
56 44 20
40 32 12
40 32 12
92 64 32
40 32 12
40 32 12
92 64 32
56 44 20
40 32 12
40 32 12
40 32 12
56 44 20
40 32 12
92 64 32
40 32 12
40 32 12
92 64 32
40 32 12
72 56 24
40 32 12
40 32 12
72 56 24
40 32 12
72 56 24
72 56 24
40 32 12
56 44 20
40 32 12
92 64 32
40 32 12
40 32 12
92 64 32
64 48 24

40 32 12
40 32 12
40 32 12
56 44 20
40 32 12
40 32 12
40 32 12
40 32 12
92 64 32
40 32 12
40 32 12
92 64 32
40 32 12
56 44 20
72 56 24
72 56 24
56 44 20
40 32 12
40 32 12
56 44 20
64 48 24
40 32 12
64 48 24
40 32 12
40 32 12
40 32 12
92 64 32
40 32 12
40 32 12
92 64 32
64 48 24
40 32 12
40 32 12
40 32 12
92 64 32
40 32 12
40 32 12
92 64 32
64 48 24
56 44 20
40 32 12
56 44 20
64 48 24
40 32 12
92 64 32
40 32 12
40 32 12
92 64 32
40 32 12
72 56 24
40 32 12
40 32 12
72 56 24
40 32 12
64 48 24
72 56 24
40 32 12
40 32 12
40 32 12
92 64 32
40 32 12
40 32 12
92 64 32
64 48 24

40 32 12
40 32 12
40 32 12
40 32 12
40 32 12
40 32 12
40 32 12
40 32 12
92 64 32
40 32 12
40 32 12
92 64 32
40 32 12
40 32 12
64 48 24
64 48 24
56 44 20
40 32 12
40 32 12
56 44 20
64 48 24
40 32 12
64 48 24
40 32 12
40 32 12
40 32 12
92 64 32
40 32 12
40 32 12
92 64 32
56 44 20
40 32 12
40 32 12
40 32 12
92 64 32
40 32 12
40 32 12
92 64 32
72 56 24
64 48 24
56 44 20
64 48 24
72 56 24
40 32 12
92 64 32
40 32 12
40 32 12
92 64 32
40 32 12
72 56 24
40 32 12
40 32 12
72 56 24
40 32 12
64 48 24
72 56 24
40 32 12
40 32 12
40 32 12
92 64 32
40 32 12
40 32 12
92 64 32
64 48 24

40 32 12
40 32 12
40 32 12
40 32 12
40 32 12
40 32 12
40 32 12
40 32 12
92 64 32
40 32 12
40 32 12
92 64 32
40 32 12
40 32 12
56 44 20
56 44 20
40 32 12
40 32 12
40 32 12
56 44 20
56 44 20
40 32 12
64 48 24
40 32 12
40 32 12
40 32 12
92 64 32
40 32 12
40 32 12
92 64 32
40 32 12
40 32 12
40 32 12
40 32 12
92 64 32
40 32 12
40 32 12
92 64 32
72 56 24
72 56 24
64 48 24
72 56 24
72 56 24
40 32 12
92 64 32
40 32 12
40 32 12
92 64 32
40 32 12
72 56 24
40 32 12
40 32 12
72 56 24
40 32 12
56 44 20
72 56 24
40 32 12
40 32 12
40 32 12
92 64 32
40 32 12
40 32 12
92 64 32
56 44 20

64 48 24
40 32 12
40 32 12
40 32 12
40 32 12
40 32 12
64 48 24
40 32 12
92 64 32
40 32 12
40 32 12
92 64 32
40 32 12
40 32 12
40 32 12
40 32 12
40 32 12
40 32 12
40 32 12
64 48 24
40 32 12
40 32 12
64 48 24
40 32 12
40 32 12
40 32 12
92 64 32
40 32 12
40 32 12
92 64 32
40 32 12
40 32 12
40 32 12
40 32 12
92 64 32
40 32 12
40 32 12
92 64 32
72 56 24
72 56 24
72 56 24
72 56 24
72 56 24
40 32 12
92 64 32
40 32 12
40 32 12
92 64 32
40 32 12
72 56 24
40 32 12
40 32 12
72 56 24
40 32 12
56 44 20
72 56 24
56 44 20
40 32 12
40 32 12
92 64 32
40 32 12
40 32 12
92 64 32
40 32 12

64 48 24
40 32 12
40 32 12
40 32 12
40 32 12
40 32 12
64 48 24
40 32 12
92 64 32
40 32 12
40 32 12
92 64 32
40 32 12
40 32 12
40 32 12
40 32 12
40 32 12
40 32 12
40 32 12
64 48 24
40 32 12
40 32 12
64 48 24
40 32 12
40 32 12
40 32 12
92 64 32
40 32 12
40 32 12
92 64 32
40 32 12
40 32 12
40 32 12
40 32 12
92 64 32
40 32 12
40 32 12
92 64 32
72 56 24
72 56 24
72 56 24
72 56 24
72 56 24
40 32 12
92 64 32
40 32 12
40 32 12
92 64 32
40 32 12
72 56 24
40 32 12
40 32 12
72 56 24
40 32 12
40 32 12
72 56 24
56 44 20
40 32 12
40 32 12
92 64 32
40 32 12
40 32 12
92 64 32
40 32 12

64 48 24
40 32 12
40 32 12
40 32 12
40 32 12
40 32 12
56 44 20
40 32 12
92 64 32
40 32 12
40 32 12
92 64 32
40 32 12
40 32 12
40 32 12
40 32 12
40 32 12
40 32 12
40 32 12
72 56 24
40 32 12
40 32 12
64 48 24
40 32 12
40 32 12
40 32 12
92 64 32
40 32 12
40 32 12
92 64 32
40 32 12
40 32 12
40 32 12
40 32 12
92 64 32
40 32 12
40 32 12
92 64 32
72 56 24
72 56 24
72 56 24
72 56 24
72 56 24
40 32 12
92 64 32
40 32 12
40 32 12
92 64 32
40 32 12
72 56 24
40 32 12
40 32 12
72 56 24
40 32 12
40 32 12
72 56 24
64 48 24
40 32 12
40 32 12
92 64 32
40 32 12
40 32 12
92 64 32
40 32 12

56 44 20
40 32 12
40 32 12
40 32 12
40 32 12
40 32 12
40 32 12
40 32 12
92 64 32
40 32 12
40 32 12
92 64 32
40 32 12
40 32 12
40 32 12
40 32 12
40 32 12
40 32 12
56 44 20
72 56 24
40 32 12
40 32 12
64 48 24
40 32 12
40 32 12
40 32 12
92 64 32
40 32 12
40 32 12
92 64 32
40 32 12
40 32 12
56 44 20
40 32 12
92 64 32
40 32 12
40 32 12
92 64 32
64 48 24
72 56 24
72 56 24
72 56 24
72 56 24
40 32 12
92 64 32
40 32 12
40 32 12
92 64 32
40 32 12
72 56 24
40 32 12
40 32 12
72 56 24
40 32 12
40 32 12
72 56 24
64 48 24
40 32 12
40 32 12
92 64 32
40 32 12
40 32 12
92 64 32
40 32 12

40 32 12
64 48 24
40 32 12
40 32 12
40 32 12
64 48 24
40 32 12
40 32 12
92 64 32
40 32 12
40 32 12
92 64 32
40 32 12
40 32 12
40 32 12
40 32 12
40 32 12
40 32 12
56 44 20
72 56 24
40 32 12
40 32 12
64 48 24
40 32 12
40 32 12
40 32 12
92 64 32
40 32 12
40 32 12
92 64 32
40 32 12
40 32 12
64 48 24
40 32 12
92 64 32
40 32 12
40 32 12
92 64 32
64 48 24
72 56 24
72 56 24
72 56 24
72 56 24
40 32 12
92 64 32
40 32 12
40 32 12
92 64 32
40 32 12
72 56 24
40 32 12
40 32 12
72 56 24
40 32 12
40 32 12
72 56 24
72 56 24
56 44 20
40 32 12
92 64 32
40 32 12
40 32 12
92 64 32
40 32 12

40 32 12
64 48 24
40 32 12
40 32 12
40 32 12
64 48 24
40 32 12
40 32 12
92 64 32
40 32 12
40 32 12
92 64 32
40 32 12
40 32 12
40 32 12
40 32 12
40 32 12
40 32 12
64 48 24
72 56 24
40 32 12
40 32 12
64 48 24
40 32 12
40 32 12
40 32 12
92 64 32
40 32 12
40 32 12
92 64 32
40 32 12
40 32 12
64 48 24
40 32 12
92 64 32
40 32 12
40 32 12
92 64 32
56 44 20
72 56 24
72 56 24
72 56 24
64 48 24
40 32 12
92 64 32
40 32 12
40 32 12
92 64 32
40 32 12
72 56 24
40 32 12
40 32 12
72 56 24
40 32 12
40 32 12
72 56 24
72 56 24
56 44 20
40 32 12
92 64 32
40 32 12
40 32 12
92 64 32
40 32 12

40 32 12
56 44 20
40 32 12
40 32 12
64 48 24
56 44 20
40 32 12
40 32 12
92 64 32
40 32 12
40 32 12
92 64 32
40 32 12
40 32 12
40 32 12
40 32 12
40 32 12
40 32 12
64 48 24
72 56 24
40 32 12
40 32 12
64 48 24
40 32 12
40 32 12
40 32 12
92 64 32
40 32 12
40 32 12
92 64 32
40 32 12
56 44 20
72 56 24
40 32 12
92 64 32
40 32 12
40 32 12
92 64 32
56 44 20
64 48 24
72 56 24
72 56 24
64 48 24
40 32 12
92 64 32
40 32 12
40 32 12
92 64 32
40 32 12
72 56 24
40 32 12
40 32 12
72 56 24
40 32 12
40 32 12
64 48 24
72 56 24
64 48 24
40 32 12
92 64 32
40 32 12
40 32 12
92 64 32
40 32 12

40 32 12
40 32 12
64 48 24
40 32 12
64 48 24
40 32 12
40 32 12
40 32 12
92 64 32
40 32 12
40 32 12
92 64 32
56 44 20
40 32 12
40 32 12
40 32 12
40 32 12
40 32 12
72 56 24
64 48 24
40 32 12
40 32 12
64 48 24
40 32 12
40 32 12
40 32 12
92 64 32
40 32 12
40 32 12
92 64 32
40 32 12
64 48 24
72 56 24
40 32 12
92 64 32
40 32 12
40 32 12
92 64 32
40 32 12
64 48 24
72 56 24
72 56 24
56 44 20
40 32 12
92 64 32
40 32 12
40 32 12
92 64 32
40 32 12
72 56 24
40 32 12
40 32 12
72 56 24
40 32 12
40 32 12
64 48 24
72 56 24
64 48 24
40 32 12
92 64 32
40 32 12
40 32 12
92 64 32
40 32 12

40 32 12
40 32 12
64 48 24
40 32 12
64 48 24
40 32 12
40 32 12
40 32 12
92 64 32
40 32 12
40 32 12
92 64 32
64 48 24
40 32 12
40 32 12
40 32 12
40 32 12
56 44 20
72 56 24
64 48 24
40 32 12
40 32 12
64 48 24
40 32 12
40 32 12
40 32 12
92 64 32
40 32 12
40 32 12
92 64 32
56 44 20
72 56 24
72 56 24
40 32 12
92 64 32
40 32 12
40 32 12
92 64 32
40 32 12
56 44 20
72 56 24
64 48 24
40 32 12
40 32 12
92 64 32
40 32 12
40 32 12
92 64 32
40 32 12
72 56 24
40 32 12
40 32 12
72 56 24
40 32 12
40 32 12
56 44 20
72 56 24
72 56 24
40 32 12
92 64 32
40 32 12
40 32 12
92 64 32
40 32 12

40 32 12
40 32 12
56 44 20
64 48 24
56 44 20
40 32 12
40 32 12
40 32 12
92 64 32
40 32 12
40 32 12
92 64 32
72 56 24
56 44 20
40 32 12
40 32 12
40 32 12
56 44 20
72 56 24
56 44 20
40 32 12
56 44 20
64 48 24
40 32 12
40 32 12
40 32 12
92 64 32
40 32 12
40 32 12
92 64 32
64 48 24
72 56 24
72 56 24
40 32 12
92 64 32
40 32 12
40 32 12
92 64 32
40 32 12
40 32 12
64 48 24
56 44 20
40 32 12
40 32 12
92 64 32
40 32 12
40 32 12
92 64 32
40 32 12
72 56 24
40 32 12
40 32 12
72 56 24
40 32 12
40 32 12
56 44 20
72 56 24
72 56 24
40 32 12
92 64 32
40 32 12
40 32 12
92 64 32
40 32 12

40 32 12
40 32 12
40 32 12
56 44 20
40 32 12
40 32 12
40 32 12
40 32 12
92 64 32
40 32 12
40 32 12
92 64 32
72 56 24
64 48 24
40 32 12
40 32 12
40 32 12
72 56 24
72 56 24
40 32 12
40 32 12
56 44 20
64 48 24
40 32 12
40 32 12
40 32 12
92 64 32
40 32 12
40 32 12
92 64 32
72 56 24
72 56 24
72 56 24
40 32 12
92 64 32
40 32 12
40 32 12
92 64 32
40 32 12
40 32 12
56 44 20
40 32 12
40 32 12
40 32 12
92 64 32
40 32 12
40 32 12
92 64 32
40 32 12
72 56 24
40 32 12
40 32 12
72 56 24
40 32 12
40 32 12
40 32 12
72 56 24
72 56 24
40 32 12
92 64 32
40 32 12
40 32 12
92 64 32
40 32 12

40 32 12
40 32 12
40 32 12
40 32 12
40 32 12
40 32 12
40 32 12
40 32 12
92 64 32
40 32 12
40 32 12
92 64 32
72 56 24
72 56 24
56 44 20
40 32 12
56 44 20
72 56 24
72 56 24
40 32 12
40 32 12
56 44 20
64 48 24
40 32 12
40 32 12
40 32 12
92 64 32
40 32 12
40 32 12
92 64 32
72 56 24
72 56 24
64 48 24
40 32 12
92 64 32
40 32 12
40 32 12
92 64 32
40 32 12
40 32 12
40 32 12
40 32 12
40 32 12
40 32 12
92 64 32
40 32 12
40 32 12
92 64 32
40 32 12
72 56 24
40 32 12
40 32 12
72 56 24
40 32 12
40 32 12
40 32 12
72 56 24
72 56 24
40 32 12
92 64 32
40 32 12
40 32 12
92 64 32
56 44 20

40 32 12
40 32 12
40 32 12
40 32 12
40 32 12
40 32 12
40 32 12
40 32 12
92 64 32
40 32 12
40 32 12
92 64 32
72 56 24
72 56 24
72 56 24
56 44 20
72 56 24
72 56 24
72 56 24
40 32 12
40 32 12
64 48 24
64 48 24
40 32 12
40 32 12
40 32 12
92 64 32
40 32 12
40 32 12
92 64 32
72 56 24
72 56 24
64 48 24
40 32 12
92 64 32
40 32 12
40 32 12
92 64 32
40 32 12
40 32 12
40 32 12
40 32 12
40 32 12
40 32 12
92 64 32
40 32 12
40 32 12
92 64 32
40 32 12
72 56 24
40 32 12
40 32 12
72 56 24
56 44 20
40 32 12
40 32 12
72 56 24
72 56 24
40 32 12
92 64 32
40 32 12
40 32 12
92 64 32
64 48 24

40 32 12
40 32 12
40 32 12
40 32 12
40 32 12
40 32 12
40 32 12
40 32 12
92 64 32
40 32 12
40 32 12
92 64 32
72 56 24
72 56 24
72 56 24
72 56 24
72 56 24
72 56 24
64 48 24
40 32 12
40 32 12
64 48 24
64 48 24
40 32 12
40 32 12
40 32 12
92 64 32
40 32 12
40 32 12
92 64 32
72 56 24
72 56 24
56 44 20
40 32 12
92 64 32
40 32 12
40 32 12
92 64 32
40 32 12
40 32 12
40 32 12
40 32 12
40 32 12
40 32 12
92 64 32
40 32 12
40 32 12
92 64 32
40 32 12
72 56 24
40 32 12
40 32 12
72 56 24
56 44 20
40 32 12
40 32 12
64 48 24
72 56 24
40 32 12
92 64 32
40 32 12
40 32 12
92 64 32
64 48 24

40 32 12
40 32 12
40 32 12
40 32 12
40 32 12
40 32 12
40 32 12
40 32 12
92 64 32
40 32 12
40 32 12
92 64 32
64 48 24
72 56 24
72 56 24
72 56 24
72 56 24
72 56 24
64 48 24
40 32 12
40 32 12
72 56 24
64 48 24
40 32 12
40 32 12
40 32 12
92 64 32
40 32 12
40 32 12
92 64 32
72 56 24
64 48 24
56 44 20
40 32 12
92 64 32
40 32 12
40 32 12
92 64 32
56 44 20
40 32 12
40 32 12
40 32 12
40 32 12
40 32 12
92 64 32
40 32 12
40 32 12
92 64 32
40 32 12
72 56 24
40 32 12
40 32 12
72 56 24
64 48 24
40 32 12
40 32 12
64 48 24
72 56 24
40 32 12
92 64 32
40 32 12
40 32 12
92 64 32
64 48 24

40 32 12
40 32 12
40 32 12
40 32 12
40 32 12
40 32 12
56 44 20
40 32 12
92 64 32
40 32 12
40 32 12
92 64 32
64 48 24
72 56 24
72 56 24
72 56 24
72 56 24
72 56 24
56 44 20
40 32 12
40 32 12
72 56 24
64 48 24
40 32 12
40 32 12
40 32 12
92 64 32
40 32 12
40 32 12
92 64 32
72 56 24
64 48 24
40 32 12
40 32 12
92 64 32
40 32 12
40 32 12
92 64 32
56 44 20
40 32 12
40 32 12
40 32 12
40 32 12
40 32 12
92 64 32
40 32 12
40 32 12
92 64 32
40 32 12
72 56 24
40 32 12
40 32 12
64 48 24
64 48 24
40 32 12
40 32 12
56 44 20
72 56 24
40 32 12
92 64 32
40 32 12
40 32 12
92 64 32
40 32 12

64 48 24
40 32 12
40 32 12
40 32 12
40 32 12
40 32 12
56 44 20
40 32 12
92 64 32
40 32 12
40 32 12
92 64 32
56 44 20
72 56 24
72 56 24
72 56 24
72 56 24
72 56 24
40 32 12
40 32 12
40 32 12
72 56 24
56 44 20
40 32 12
40 32 12
40 32 12
92 64 32
40 32 12
40 32 12
92 64 32
72 56 24
56 44 20
40 32 12
40 32 12
92 64 32
40 32 12
40 32 12
92 64 32
64 48 24
56 44 20
40 32 12
40 32 12
56 44 20
40 32 12
92 64 32
40 32 12
40 32 12
92 64 32
40 32 12
72 56 24
40 32 12
40 32 12
64 48 24
72 56 24
40 32 12
40 32 12
56 44 20
72 56 24
40 32 12
92 64 32
40 32 12
40 32 12
92 64 32
40 32 12

64 48 24
40 32 12
40 32 12
40 32 12
40 32 12
40 32 12
64 48 24
40 32 12
92 64 32
40 32 12
40 32 12
92 64 32
40 32 12
72 56 24
72 56 24
72 56 24
72 56 24
72 56 24
40 32 12
40 32 12
40 32 12
72 56 24
56 44 20
40 32 12
40 32 12
40 32 12
92 64 32
40 32 12
40 32 12
92 64 32
64 48 24
56 44 20
40 32 12
40 32 12
92 64 32
40 32 12
40 32 12
92 64 32
72 56 24
56 44 20
40 32 12
56 44 20
56 44 20
40 32 12
92 64 32
40 32 12
40 32 12
92 64 32
40 32 12
72 56 24
40 32 12
40 32 12
56 44 20
72 56 24
40 32 12
40 32 12
40 32 12
64 48 24
40 32 12
92 64 32
40 32 12
40 32 12
92 64 32
40 32 12

64 48 24
56 44 20
40 32 12
40 32 12
40 32 12
56 44 20
64 48 24
40 32 12
92 64 32
40 32 12
40 32 12
92 64 32
40 32 12
64 48 24
72 56 24
72 56 24
72 56 24
64 48 24
40 32 12
40 32 12
40 32 12
72 56 24
40 32 12
40 32 12
40 32 12
40 32 12
92 64 32
40 32 12
40 32 12
92 64 32
64 48 24
40 32 12
40 32 12
40 32 12
92 64 32
40 32 12
40 32 12
92 64 32
72 56 24
64 48 24
56 44 20
56 44 20
64 48 24
40 32 12
92 64 32
40 32 12
40 32 12
92 64 32
40 32 12
72 56 24
40 32 12
40 32 12
56 44 20
72 56 24
40 32 12
40 32 12
40 32 12
64 48 24
40 32 12
92 64 32
40 32 12
40 32 12
92 64 32
40 32 12

64 48 24
64 48 24
40 32 12
40 32 12
40 32 12
64 48 24
56 44 20
40 32 12
92 64 32
40 32 12
40 32 12
92 64 32
40 32 12
56 44 20
72 56 24
72 56 24
72 56 24
56 44 20
40 32 12
40 32 12
56 44 20
72 56 24
40 32 12
40 32 12
40 32 12
40 32 12
92 64 32
40 32 12
40 32 12
92 64 32
56 44 20
40 32 12
40 32 12
40 32 12
92 64 32
40 32 12
40 32 12
92 64 32
72 56 24
72 56 24
56 44 20
64 48 24
72 56 24
40 32 12
92 64 32
40 32 12
40 32 12
92 64 32
40 32 12
72 56 24
40 32 12
40 32 12
40 32 12
72 56 24
40 32 12
40 32 12
40 32 12
56 44 20
40 32 12
92 64 32
40 32 12
40 32 12
92 64 32
40 32 12

56 44 20
64 48 24
56 44 20
40 32 12
56 44 20
64 48 24
40 32 12
40 32 12
92 64 32
40 32 12
40 32 12
92 64 32
40 32 12
40 32 12
64 48 24
72 56 24
64 48 24
40 32 12
40 32 12
40 32 12
64 48 24
72 56 24
40 32 12
40 32 12
40 32 12
40 32 12
92 64 32
40 32 12
40 32 12
92 64 32
40 32 12
40 32 12
40 32 12
40 32 12
92 64 32
40 32 12
40 32 12
92 64 32
72 56 24
72 56 24
64 48 24
72 56 24
72 56 24
40 32 12
92 64 32
40 32 12
40 32 12
92 64 32
40 32 12
72 56 24
40 32 12
40 32 12
40 32 12
72 56 24
56 44 20
40 32 12
40 32 12
56 44 20
40 32 12
92 64 32
40 32 12
40 32 12
92 64 32
40 32 12

40 32 12
64 48 24
64 48 24
56 44 20
64 48 24
64 48 24
40 32 12
40 32 12
92 64 32
40 32 12
40 32 12
92 64 32
40 32 12
40 32 12
40 32 12
64 48 24
56 44 20
40 32 12
40 32 12
40 32 12
64 48 24
72 56 24
40 32 12
40 32 12
40 32 12
40 32 12
92 64 32
40 32 12
40 32 12
92 64 32
40 32 12
40 32 12
40 32 12
40 32 12
92 64 32
40 32 12
40 32 12
92 64 32
72 56 24
72 56 24
72 56 24
72 56 24
72 56 24
40 32 12
92 64 32
40 32 12
40 32 12
92 64 32
40 32 12
72 56 24
40 32 12
40 32 12
40 32 12
72 56 24
56 44 20
40 32 12
40 32 12
40 32 12
40 32 12
92 64 32
40 32 12
40 32 12
92 64 32
40 32 12

40 32 12
64 48 24
64 48 24
56 44 20
64 48 24
64 48 24
40 32 12
40 32 12
92 64 32
40 32 12
40 32 12
92 64 32
40 32 12
40 32 12
40 32 12
40 32 12
40 32 12
40 32 12
40 32 12
40 32 12
72 56 24
64 48 24
40 32 12
40 32 12
40 32 12
40 32 12
92 64 32
40 32 12
40 32 12
92 64 32
40 32 12
40 32 12
40 32 12
40 32 12
92 64 32
40 32 12
40 32 12
92 64 32
72 56 24
72 56 24
72 56 24
72 56 24
72 56 24
40 32 12
92 64 32
40 32 12
40 32 12
92 64 32
40 32 12
72 56 24
40 32 12
40 32 12
40 32 12
72 56 24
64 48 24
40 32 12
40 32 12
40 32 12
40 32 12
92 64 32
40 32 12
40 32 12
92 64 32
40 32 12

40 32 12
64 48 24
72 56 24
72 56 24
72 56 24
64 48 24
40 32 12
40 32 12
92 64 32
40 32 12
40 32 12
92 64 32
40 32 12
40 32 12
40 32 12
40 32 12
40 32 12
40 32 12
40 32 12
40 32 12
72 56 24
64 48 24
40 32 12
40 32 12
40 32 12
40 32 12
92 64 32
40 32 12
40 32 12
92 64 32
40 32 12
40 32 12
56 44 20
40 32 12
92 64 32
40 32 12
40 32 12
92 64 32
72 56 24
72 56 24
72 56 24
72 56 24
64 48 24
40 32 12
92 64 32
40 32 12
40 32 12
92 64 32
40 32 12
72 56 24
40 32 12
40 32 12
40 32 12
72 56 24
64 48 24
40 32 12
40 32 12
40 32 12
40 32 12
92 64 32
40 32 12
40 32 12
92 64 32
40 32 12

40 32 12
56 44 20
72 56 24
72 56 24
72 56 24
64 48 24
40 32 12
40 32 12
92 64 32
40 32 12
40 32 12
92 64 32
40 32 12
40 32 12
40 32 12
40 32 12
40 32 12
40 32 12
40 32 12
56 44 20
72 56 24
56 44 20
40 32 12
40 32 12
40 32 12
40 32 12
92 64 32
40 32 12
40 32 12
92 64 32
40 32 12
40 32 12
64 48 24
40 32 12
92 64 32
40 32 12
40 32 12
92 64 32
64 48 24
72 56 24
72 56 24
72 56 24
64 48 24
40 32 12
92 64 32
40 32 12
40 32 12
92 64 32
40 32 12
72 56 24
40 32 12
40 32 12
40 32 12
64 48 24
72 56 24
56 44 20
40 32 12
40 32 12
40 32 12
92 64 32
40 32 12
40 32 12
92 64 32
40 32 12

40 32 12
40 32 12
64 48 24
72 56 24
72 56 24
64 48 24
40 32 12
40 32 12
92 64 32
40 32 12
40 32 12
92 64 32
56 44 20
40 32 12
40 32 12
40 32 12
40 32 12
40 32 12
40 32 12
64 48 24
72 56 24
56 44 20
40 32 12
40 32 12
40 32 12
40 32 12
92 64 32
40 32 12
40 32 12
92 64 32
40 32 12
56 44 20
72 56 24
40 32 12
92 64 32
40 32 12
40 32 12
92 64 32
64 48 24
72 56 24
72 56 24
72 56 24
56 44 20
40 32 12
92 64 32
40 32 12
40 32 12
92 64 32
40 32 12
72 56 24
40 32 12
40 32 12
40 32 12
64 48 24
72 56 24
56 44 20
40 32 12
40 32 12
40 32 12
92 64 32
40 32 12
40 32 12
92 64 32
40 32 12

40 32 12
40 32 12
64 48 24
72 56 24
72 56 24
56 44 20
40 32 12
40 32 12
92 64 32
40 32 12
40 32 12
92 64 32
64 48 24
40 32 12
40 32 12
40 32 12
40 32 12
40 32 12
40 32 12
64 48 24
72 56 24
40 32 12
40 32 12
40 32 12
40 32 12
40 32 12
92 64 32
40 32 12
40 32 12
92 64 32
40 32 12
64 48 24
72 56 24
40 32 12
92 64 32
40 32 12
40 32 12
92 64 32
56 44 20
72 56 24
72 56 24
72 56 24
56 44 20
40 32 12
92 64 32
40 32 12
40 32 12
92 64 32
40 32 12
72 56 24
40 32 12
40 32 12
40 32 12
56 44 20
72 56 24
64 48 24
40 32 12
40 32 12
40 32 12
92 64 32
40 32 12
40 32 12
92 64 32
40 32 12

40 32 12
40 32 12
56 44 20
72 56 24
64 48 24
56 44 20
40 32 12
40 32 12
92 64 32
40 32 12
40 32 12
92 64 32
72 56 24
40 32 12
40 32 12
40 32 12
40 32 12
40 32 12
40 32 12
72 56 24
64 48 24
40 32 12
40 32 12
40 32 12
40 32 12
40 32 12
92 64 32
40 32 12
40 32 12
92 64 32
64 48 24
72 56 24
72 56 24
40 32 12
92 64 32
40 32 12
40 32 12
92 64 32
56 44 20
72 56 24
72 56 24
64 48 24
40 32 12
40 32 12
92 64 32
40 32 12
40 32 12
92 64 32
40 32 12
72 56 24
40 32 12
40 32 12
40 32 12
56 44 20
72 56 24
64 48 24
56 44 20
40 32 12
40 32 12
92 64 32
40 32 12
40 32 12
92 64 32
40 32 12

40 32 12
40 32 12
40 32 12
64 48 24
64 48 24
40 32 12
40 32 12
40 32 12
92 64 32
40 32 12
40 32 12
92 64 32
72 56 24
56 44 20
40 32 12
40 32 12
40 32 12
40 32 12
56 44 20
72 56 24
64 48 24
40 32 12
40 32 12
56 44 20
40 32 12
40 32 12
92 64 32
40 32 12
40 32 12
92 64 32
72 56 24
72 56 24
72 56 24
40 32 12
92 64 32
40 32 12
40 32 12
92 64 32
40 32 12
64 48 24
72 56 24
64 48 24
40 32 12
40 32 12
92 64 32
40 32 12
40 32 12
92 64 32
40 32 12
72 56 24
40 32 12
40 32 12
40 32 12
40 32 12
64 48 24
72 56 24
56 44 20
40 32 12
40 32 12
92 64 32
40 32 12
40 32 12
92 64 32
56 44 20

40 32 12
40 32 12
40 32 12
64 48 24
56 44 20
40 32 12
40 32 12
40 32 12
92 64 32
40 32 12
40 32 12
92 64 32
64 48 24
64 48 24
40 32 12
40 32 12
40 32 12
40 32 12
64 48 24
72 56 24
56 44 20
40 32 12
40 32 12
56 44 20
40 32 12
40 32 12
92 64 32
40 32 12
40 32 12
92 64 32
72 56 24
72 56 24
72 56 24
40 32 12
92 64 32
40 32 12
40 32 12
92 64 32
40 32 12
64 48 24
72 56 24
56 44 20
40 32 12
40 32 12
92 64 32
40 32 12
40 32 12
92 64 32
40 32 12
72 56 24
40 32 12
40 32 12
40 32 12
40 32 12
56 44 20
72 56 24
64 48 24
40 32 12
40 32 12
92 64 32
40 32 12
40 32 12
92 64 32
56 44 20

40 32 12
40 32 12
40 32 12
56 44 20
56 44 20
40 32 12
40 32 12
40 32 12
92 64 32
40 32 12
40 32 12
92 64 32
64 48 24
72 56 24
40 32 12
40 32 12
40 32 12
40 32 12
64 48 24
72 56 24
40 32 12
40 32 12
40 32 12
64 48 24
40 32 12
40 32 12
92 64 32
40 32 12
40 32 12
92 64 32
72 56 24
72 56 24
72 56 24
40 32 12
92 64 32
40 32 12
40 32 12
92 64 32
40 32 12
56 44 20
64 48 24
40 32 12
40 32 12
40 32 12
92 64 32
40 32 12
40 32 12
92 64 32
40 32 12
72 56 24
40 32 12
40 32 12
40 32 12
40 32 12
56 44 20
72 56 24
64 48 24
40 32 12
40 32 12
92 64 32
40 32 12
40 32 12
92 64 32
64 48 24

40 32 12
40 32 12
40 32 12
40 32 12
40 32 12
40 32 12
40 32 12
40 32 12
92 64 32
40 32 12
40 32 12
92 64 32
56 44 20
72 56 24
64 48 24
40 32 12
40 32 12
40 32 12
72 56 24
72 56 24
40 32 12
40 32 12
40 32 12
64 48 24
40 32 12
40 32 12
92 64 32
40 32 12
40 32 12
92 64 32
72 56 24
72 56 24
72 56 24
40 32 12
92 64 32
40 32 12
40 32 12
92 64 32
40 32 12
40 32 12
56 44 20
40 32 12
40 32 12
40 32 12
92 64 32
40 32 12
40 32 12
92 64 32
40 32 12
72 56 24
40 32 12
40 32 12
40 32 12
40 32 12
40 32 12
64 48 24
72 56 24
40 32 12
40 32 12
92 64 32
40 32 12
40 32 12
92 64 32
64 48 24

40 32 12
40 32 12
40 32 12
40 32 12
40 32 12
40 32 12
40 32 12
40 32 12
92 64 32
40 32 12
40 32 12
92 64 32
40 32 12
64 48 24
72 56 24
64 48 24
40 32 12
72 56 24
72 56 24
64 48 24
40 32 12
40 32 12
40 32 12
64 48 24
40 32 12
40 32 12
92 64 32
40 32 12
40 32 12
92 64 32
72 56 24
72 56 24
72 56 24
40 32 12
92 64 32
40 32 12
40 32 12
92 64 32
40 32 12
40 32 12
40 32 12
40 32 12
40 32 12
40 32 12
92 64 32
40 32 12
40 32 12
92 64 32
40 32 12
64 48 24
56 44 20
40 32 12
40 32 12
40 32 12
40 32 12
56 44 20
72 56 24
64 48 24
40 32 12
92 64 32
40 32 12
40 32 12
92 64 32
72 56 24

40 32 12
40 32 12
40 32 12
40 32 12
40 32 12
40 32 12
40 32 12
40 32 12
92 64 32
40 32 12
40 32 12
92 64 32
40 32 12
56 44 20
72 56 24
72 56 24
72 56 24
72 56 24
72 56 24
56 44 20
40 32 12
40 32 12
40 32 12
72 56 24
40 32 12
40 32 12
92 64 32
40 32 12
40 32 12
92 64 32
72 56 24
72 56 24
64 48 24
40 32 12
92 64 32
40 32 12
40 32 12
92 64 32
40 32 12
40 32 12
40 32 12
40 32 12
40 32 12
40 32 12
92 64 32
40 32 12
40 32 12
92 64 32
40 32 12
64 48 24
64 48 24
40 32 12
40 32 12
40 32 12
40 32 12
56 44 20
72 56 24
64 48 24
40 32 12
92 64 32
40 32 12
40 32 12
92 64 32
72 56 24

56 44 20
40 32 12
40 32 12
40 32 12
40 32 12
40 32 12
64 48 24
40 32 12
92 64 32
40 32 12
40 32 12
92 64 32
40 32 12
40 32 12
72 56 24
72 56 24
72 56 24
72 56 24
64 48 24
40 32 12
40 32 12
40 32 12
56 44 20
72 56 24
40 32 12
40 32 12
92 64 32
40 32 12
40 32 12
92 64 32
72 56 24
72 56 24
64 48 24
40 32 12
92 64 32
40 32 12
40 32 12
92 64 32
40 32 12
40 32 12
40 32 12
40 32 12
40 32 12
40 32 12
92 64 32
40 32 12
40 32 12
92 64 32
40 32 12
56 44 20
64 48 24
40 32 12
40 32 12
40 32 12
40 32 12
40 32 12
64 48 24
64 48 24
40 32 12
92 64 32
40 32 12
40 32 12
92 64 32
72 56 24

56 44 20
40 32 12
40 32 12
40 32 12
40 32 12
40 32 12
64 48 24
40 32 12
92 64 32
40 32 12
40 32 12
92 64 32
40 32 12
40 32 12
56 44 20
64 48 24
72 56 24
64 48 24
56 44 20
40 32 12
40 32 12
40 32 12
64 48 24
72 56 24
40 32 12
40 32 12
92 64 32
40 32 12
40 32 12
92 64 32
72 56 24
64 48 24
56 44 20
40 32 12
92 64 32
40 32 12
40 32 12
92 64 32
40 32 12
40 32 12
40 32 12
40 32 12
40 32 12
40 32 12
92 64 32
40 32 12
40 32 12
92 64 32
40 32 12
56 44 20
72 56 24
40 32 12
40 32 12
40 32 12
40 32 12
40 32 12
56 44 20
56 44 20
40 32 12
92 64 32
40 32 12
40 32 12
92 64 32
72 56 24

64 48 24
40 32 12
40 32 12
40 32 12
40 32 12
40 32 12
64 48 24
40 32 12
92 64 32
40 32 12
40 32 12
92 64 32
40 32 12
40 32 12
40 32 12
56 44 20
64 48 24
56 44 20
40 32 12
40 32 12
40 32 12
40 32 12
64 48 24
72 56 24
40 32 12
40 32 12
92 64 32
40 32 12
40 32 12
92 64 32
72 56 24
64 48 24
56 44 20
40 32 12
92 64 32
40 32 12
40 32 12
92 64 32
40 32 12
40 32 12
40 32 12
40 32 12
40 32 12
40 32 12
92 64 32
40 32 12
40 32 12
92 64 32
40 32 12
40 32 12
72 56 24
40 32 12
40 32 12
40 32 12
40 32 12
40 32 12
40 32 12
40 32 12
40 32 12
92 64 32
40 32 12
40 32 12
92 64 32
72 56 24

64 48 24
56 44 20
40 32 12
40 32 12
40 32 12
40 32 12
64 48 24
40 32 12
92 64 32
40 32 12
40 32 12
92 64 32
40 32 12
40 32 12
40 32 12
40 32 12
56 44 20
40 32 12
40 32 12
40 32 12
40 32 12
64 48 24
72 56 24
72 56 24
56 44 20
40 32 12
92 64 32
40 32 12
40 32 12
92 64 32
64 48 24
56 44 20
40 32 12
40 32 12
92 64 32
40 32 12
40 32 12
92 64 32
40 32 12
40 32 12
40 32 12
40 32 12
40 32 12
40 32 12
92 64 32
40 32 12
40 32 12
92 64 32
56 44 20
40 32 12
72 56 24
56 44 20
40 32 12
40 32 12
40 32 12
40 32 12
40 32 12
40 32 12
40 32 12
92 64 32
40 32 12
40 32 12
92 64 32
72 56 24

56 44 20
56 44 20
56 44 20
56 44 20
56 44 20
56 44 20
56 44 20
40 32 12
92 64 32
40 32 12
40 32 12
92 64 32
56 44 20
40 32 12
40 32 12
40 32 12
40 32 12
40 32 12
40 32 12
40 32 12
56 44 20
56 44 20
56 44 20
56 44 20
56 44 20
40 32 12
92 64 32
40 32 12
40 32 12
92 64 32
56 44 20
40 32 12
40 32 12
40 32 12
92 64 32
40 32 12
40 32 12
92 64 32
56 44 20
40 32 12
40 32 12
40 32 12
56 44 20
40 32 12
92 64 32
40 32 12
40 32 12
92 64 32
56 44 20
40 32 12
56 44 20
56 44 20
40 32 12
40 32 12
40 32 12
40 32 12
40 32 12
40 32 12
40 32 12
92 64 32
40 32 12
40 32 12
92 64 32
56 44 20

