P3
# ASCII PPM file
64 64
255

184 252 252
184 252 252
184 252 252
184 252 252
184 252 252
184 252 252
184 252 252
184 252 252
184 252 252
184 252 252
184 252 252
184 252 252
184 252 252
184 252 252
184 252 252
184 252 252
184 252 252
184 252 252
184 252 252
184 252 252
184 252 252
184 252 252
184 252 252
184 252 252
184 252 252
184 252 252
184 252 252
184 252 252
184 252 252
184 252 252
184 252 252
184 252 252
184 252 252
184 252 252
184 252 252
184 252 252
184 252 252
184 252 252
184 252 252
184 252 252
184 252 252
184 252 252
184 252 252
184 252 252
184 252 252
184 252 252
184 252 252
184 252 252
184 252 252
184 252 252
184 252 252
184 252 252
184 252 252
184 252 252
184 252 252
184 252 252
184 252 252
184 252 252
184 252 252
184 252 252
184 252 252
184 252 252
184 252 252
184 252 252

184 252 252
184 252 252
184 252 252
184 252 252
184 252 252
184 252 252
184 252 252
184 252 252
184 252 252
184 252 252
184 252 252
184 252 252
184 252 252
184 252 252
184 252 252
184 252 252
184 252 252
184 252 252
184 252 252
184 252 252
184 252 252
184 252 252
184 252 252
184 252 252
184 252 252
184 252 252
184 252 252
184 252 252
184 252 252
184 252 252
184 252 252
184 252 252
184 252 252
184 252 252
184 252 252
184 252 252
184 252 252
184 252 252
184 252 252
184 252 252
184 252 252
184 252 252
184 252 252
184 252 252
184 252 252
184 252 252
184 252 252
184 252 252
184 252 252
184 252 252
184 252 252
184 252 252
184 252 252
184 252 252
184 252 252
184 252 252
184 252 252
184 252 252
184 252 252
184 252 252
184 252 252
184 252 252
184 252 252
184 252 252

184 252 252
184 252 252
184 252 252
184 252 252
184 252 252
184 252 252
184 252 252
184 252 252
184 252 252
184 252 252
184 252 252
184 252 252
184 252 252
184 252 252
184 252 252
184 252 252
184 252 252
184 252 252
184 252 252
184 252 252
184 252 252
184 252 252
184 252 252
184 252 252
184 252 252
184 252 252
184 252 252
184 252 252
184 252 252
184 252 252
184 252 252
184 252 252
184 252 252
184 252 252
184 252 252
184 252 252
184 252 252
184 252 252
184 252 252
184 252 252
184 252 252
184 252 252
184 252 252
184 252 252
184 252 252
184 252 252
184 252 252
184 252 252
184 252 252
184 252 252
184 252 252
184 252 252
184 252 252
184 252 252
184 252 252
184 252 252
184 252 252
184 252 252
184 252 252
184 252 252
184 252 252
184 252 252
184 252 252
184 252 252

184 252 252
184 252 252
184 252 252
184 252 252
184 252 252
184 252 252
184 252 252
184 252 252
184 252 252
184 252 252
184 252 252
184 252 252
184 252 252
184 252 252
184 252 252
184 252 252
184 252 252
184 252 252
184 252 252
184 252 252
184 252 252
184 252 252
184 252 252
184 252 252
184 252 252
184 252 252
184 252 252
184 252 252
184 252 252
184 252 252
184 252 252
184 252 252
184 252 252
184 252 252
184 252 252
184 252 252
184 252 252
184 252 252
184 252 252
184 252 252
184 252 252
184 252 252
184 252 252
184 252 252
184 252 252
184 252 252
184 252 252
184 252 252
184 252 252
184 252 252
184 252 252
184 252 252
184 252 252
184 252 252
184 252 252
184 252 252
184 252 252
184 252 252
184 252 252
184 252 252
184 252 252
184 252 252
184 252 252
184 252 252

184 252 252
184 252 252
184 252 252
184 252 252
184 252 252
184 252 252
184 252 252
184 252 252
184 252 252
184 252 252
184 252 252
184 252 252
184 252 252
184 252 252
184 252 252
184 252 252
184 252 252
184 252 252
184 252 252
184 252 252
184 252 252
184 252 252
184 252 252
184 252 252
184 252 252
184 252 252
184 252 252
184 252 252
184 252 252
184 252 252
184 252 252
184 252 252
184 252 252
184 252 252
184 252 252
184 252 252
184 252 252
184 252 252
184 252 252
184 252 252
184 252 252
184 252 252
184 252 252
184 252 252
184 252 252
156 252 252
156 252 252
156 252 252
156 252 252
184 252 252
184 252 252
184 252 252
184 252 252
184 252 252
184 252 252
184 252 252
184 252 252
184 252 252
184 252 252
184 252 252
184 252 252
184 252 252
184 252 252
184 252 252

184 252 252
184 252 252
184 252 252
184 252 252
184 252 252
156 252 252
156 252 252
156 252 252
156 252 252
156 252 252
156 252 252
156 252 252
156 252 252
184 252 252
184 252 252
184 252 252
184 252 252
184 252 252
184 252 252
184 252 252
184 252 252
184 252 252
184 252 252
184 252 252
184 252 252
184 252 252
184 252 252
184 252 252
184 252 252
184 252 252
184 252 252
184 252 252
184 252 252
184 252 252
184 252 252
184 252 252
184 252 252
184 252 252
184 252 252
184 252 252
184 252 252
184 252 252
184 252 252
184 252 252
156 252 252
156 252 252
156 252 252
156 252 252
156 252 252
156 252 252
156 252 252
156 252 252
156 252 252
156 252 252
184 252 252
184 252 252
184 252 252
184 252 252
184 252 252
184 252 252
184 252 252
156 252 252
156 252 252
124 252 248

184 252 252
184 252 252
184 252 252
184 252 252
156 252 252
156 252 252
156 252 252
124 252 248
124 252 248
124 252 248
156 252 252
156 252 252
156 252 252
156 252 252
156 252 252
156 252 252
184 252 252
184 252 252
156 252 252
156 252 252
184 252 252
184 252 252
184 252 252
184 252 252
184 252 252
184 252 252
184 252 252
184 252 252
184 252 252
184 252 252
184 252 252
184 252 252
184 252 252
184 252 252
184 252 252
184 252 252
184 252 252
184 252 252
184 252 252
156 252 252
156 252 252
156 252 252
156 252 252
184 252 252
184 252 252
156 252 252
124 252 248
124 252 248
124 252 248
124 252 248
156 252 252
156 252 252
156 252 252
156 252 252
156 252 252
184 252 252
184 252 252
184 252 252
184 252 252
184 252 252
156 252 252
156 252 252
156 252 252
124 252 248

156 252 252
156 252 252
156 252 252
156 252 252
156 252 252
156 252 252
156 252 252
124 252 248
124 252 248
124 252 248
124 252 248
124 252 248
124 252 248
124 252 248
156 252 252
156 252 252
156 252 252
156 252 252
156 252 252
156 252 252
156 252 252
156 252 252
156 252 252
156 252 252
156 252 252
156 252 252
156 252 252
184 252 252
184 252 252
184 252 252
184 252 252
156 252 252
156 252 252
156 252 252
156 252 252
156 252 252
156 252 252
156 252 252
156 252 252
156 252 252
156 252 252
156 252 252
156 252 252
156 252 252
156 252 252
156 252 252
124 252 248
124 252 248
124 252 248
156 252 252
156 252 252
156 252 252
156 252 252
156 252 252
156 252 252
156 252 252
156 252 252
184 252 252
184 252 252
184 252 252
156 252 252
184 252 252
156 252 252
124 252 248

156 252 252
156 252 252
156 252 252
156 252 252
156 252 252
156 252 252
124 252 248
124 252 248
124 252 248
124 252 248
124 252 248
124 252 248
124 252 248
156 252 252
156 252 252
124 252 248
124 252 248
124 252 248
124 252 248
156 252 252
156 252 252
156 252 252
156 252 252
156 252 252
156 252 252
156 252 252
156 252 252
156 252 252
156 252 252
156 252 252
156 252 252
156 252 252
156 252 252
156 252 252
156 252 252
156 252 252
156 252 252
156 252 252
156 252 252
124 252 248
124 252 248
124 252 248
124 252 248
156 252 252
156 252 252
156 252 252
124 252 248
124 252 248
124 252 248
124 252 248
124 252 248
124 252 248
156 252 252
156 252 252
156 252 252
156 252 252
156 252 252
156 252 252
156 252 252
156 252 252
124 252 248
124 252 248
156 252 252
124 252 248

124 252 248
156 252 252
156 252 252
124 252 248
124 252 248
124 252 248
156 252 252
156 252 252
156 252 252
156 252 252
156 252 252
156 252 252
156 252 252
156 252 252
156 252 252
156 252 252
124 252 248
124 252 248
124 252 248
124 252 248
124 252 248
156 252 252
156 252 252
156 252 252
124 252 248
124 252 248
156 252 252
156 252 252
156 252 252
156 252 252
156 252 252
156 252 252
156 252 252
156 252 252
156 252 252
156 252 252
156 252 252
156 252 252
156 252 252
156 252 252
156 252 252
156 252 252
156 252 252
156 252 252
156 252 252
156 252 252
156 252 252
156 252 252
156 252 252
156 252 252
124 252 248
156 252 252
156 252 252
156 252 252
156 252 252
156 252 252
156 252 252
156 252 252
156 252 252
124 252 248
124 252 248
124 252 248
124 252 248
124 252 248

124 252 248
124 252 248
124 252 248
124 252 248
124 252 248
156 252 252
156 252 252
156 252 252
156 252 252
156 252 252
156 252 252
156 252 252
156 252 252
156 252 252
156 252 252
156 252 252
124 252 248
124 252 248
124 252 248
124 252 248
124 252 248
124 252 248
124 252 248
124 252 248
124 252 248
124 252 248
124 252 248
124 252 248
124 252 248
124 252 248
124 252 248
124 252 248
124 252 248
156 252 252
124 252 248
124 252 248
124 252 248
124 252 248
124 252 248
156 252 252
156 252 252
156 252 252
156 252 252
156 252 252
156 252 252
156 252 252
156 252 252
156 252 252
156 252 252
156 252 252
156 252 252
156 252 252
156 252 252
156 252 252
156 252 252
156 252 252
156 252 252
156 252 252
156 252 252
156 252 252
124 252 248
124 252 248
124 252 248
124 252 248

124 252 248
124 252 248
124 252 248
124 252 248
124 252 248
124 252 248
124 252 248
124 252 248
156 252 252
156 252 252
156 252 252
156 252 252
124 252 248
124 252 248
156 252 252
156 252 252
156 252 252
156 252 252
156 252 252
156 252 252
124 252 248
124 252 248
124 252 248
124 252 248
124 252 248
124 252 248
124 252 248
124 252 248
124 252 248
124 252 248
124 252 248
124 252 248
124 252 248
124 252 248
124 252 248
124 252 248
124 252 248
124 252 248
124 252 248
124 252 248
124 252 248
124 252 248
124 252 248
124 252 248
156 252 252
156 252 252
156 252 252
156 252 252
156 252 252
156 252 252
156 252 252
156 252 252
156 252 252
156 252 252
156 252 252
124 252 248
156 252 252
156 252 252
124 252 248
124 252 248
124 252 248
124 252 248
124 252 248
124 252 248

124 252 248
124 252 248
124 252 248
124 252 248
124 252 248
124 252 248
124 252 248
124 252 248
124 252 248
124 252 248
124 252 248
124 252 248
124 252 248
124 252 248
124 252 248
124 252 248
124 252 248
124 252 248
124 252 248
124 252 248
124 252 248
124 252 248
124 252 248
124 252 248
124 252 248
124 252 248
124 252 248
124 252 248
124 252 248
124 252 248
124 252 248
124 252 248
124 252 248
124 252 248
124 252 248
124 252 248
124 252 248
124 252 248
124 252 248
124 252 248
124 252 248
124 252 248
124 252 248
124 252 248
124 252 248
124 252 248
124 252 248
124 252 248
124 252 248
124 252 248
124 252 248
124 252 248
124 252 248
124 252 248
124 252 248
124 252 248
124 252 248
124 252 248
124 252 248
124 252 248
124 252 248
124 252 248
124 252 248
124 252 248

124 252 248
124 252 248
124 252 248
124 252 248
124 252 248
124 252 248
124 252 248
124 252 248
124 252 248
124 252 248
124 252 248
124 252 248
124 252 248
124 252 248
124 252 248
124 252 248
124 252 248
124 252 248
124 252 248
124 252 248
124 252 248
124 252 248
124 252 248
124 252 248
124 252 248
124 252 248
124 252 248
124 252 248
124 252 248
124 252 248
156 252 252
156 252 252
156 252 252
156 252 252
124 252 248
124 252 248
124 252 248
124 252 248
124 252 248
124 252 248
124 252 248
124 252 248
124 252 248
124 252 248
124 252 248
124 252 248
124 252 248
124 252 248
124 252 248
124 252 248
124 252 248
124 252 248
124 252 248
124 252 248
124 252 248
124 252 248
124 252 248
124 252 248
124 252 248
124 252 248
124 252 248
124 252 248
124 252 248
124 252 248

124 252 248
124 252 248
124 252 248
124 252 248
124 252 248
124 252 248
124 252 248
124 252 248
124 252 248
124 252 248
124 252 248
124 252 248
124 252 248
124 252 248
124 252 248
124 252 248
124 252 248
124 252 248
124 252 248
124 252 248
124 252 248
124 252 248
124 252 248
124 252 248
156 252 252
156 252 252
156 252 252
156 252 252
156 252 252
156 252 252
156 252 252
124 252 248
124 252 248
156 252 252
156 252 252
124 252 248
124 252 248
124 252 248
124 252 248
124 252 248
124 252 248
124 252 248
124 252 248
124 252 248
124 252 248
124 252 248
124 252 248
124 252 248
124 252 248
124 252 248
124 252 248
124 252 248
124 252 248
124 252 248
124 252 248
124 252 248
124 252 248
124 252 248
124 252 248
124 252 248
124 252 248
124 252 248
124 252 248
124 252 248

124 252 248
124 252 248
124 252 248
124 252 248
124 252 248
124 252 248
124 252 248
124 252 248
124 252 248
124 252 248
124 252 248
124 252 248
124 252 248
124 252 248
124 252 248
124 252 248
124 252 248
124 252 248
124 252 248
124 252 248
124 252 248
124 252 248
124 252 248
124 252 248
156 252 252
156 252 252
156 252 252
124 252 248
124 252 248
124 252 248
124 252 248
124 252 248
124 252 248
124 252 248
124 252 248
124 252 248
124 252 248
124 252 248
124 252 248
124 252 248
124 252 248
124 252 248
124 252 248
124 252 248
156 252 252
156 252 252
156 252 252
156 252 252
124 252 248
124 252 248
124 252 248
156 252 252
156 252 252
124 252 248
124 252 248
124 252 248
124 252 248
124 252 248
124 252 248
124 252 248
124 252 248
124 252 248
124 252 248
124 252 248

124 252 248
124 252 248
124 252 248
124 252 248
124 252 248
124 252 248
124 252 248
124 252 248
124 252 248
124 252 248
124 252 248
124 252 248
124 252 248
124 252 248
124 252 248
156 252 252
156 252 252
156 252 252
156 252 252
156 252 252
156 252 252
124 252 248
124 252 248
124 252 248
124 252 248
124 252 248
124 252 248
124 252 248
124 252 248
124 252 248
124 252 248
124 252 248
124 252 248
124 252 248
124 252 248
124 252 248
124 252 248
124 252 248
124 252 248
124 252 248
124 252 248
124 252 248
124 252 248
124 252 248
156 252 252
124 252 248
124 252 248
124 252 248
156 252 252
156 252 252
156 252 252
156 252 252
124 252 248
124 252 248
124 252 248
124 252 248
124 252 248
124 252 248
124 252 248
124 252 248
124 252 248
124 252 248
124 252 248
124 252 248

124 252 248
124 252 248
124 252 248
124 252 248
124 252 248
124 252 248
124 252 248
124 252 248
124 252 248
124 252 248
124 252 248
124 252 248
124 252 248
124 252 248
124 252 248
124 252 248
124 252 248
124 252 248
124 252 248
124 252 248
124 252 248
124 252 248
124 252 248
124 252 248
124 252 248
124 252 248
124 252 248
124 252 248
124 252 248
124 252 248
124 252 248
124 252 248
124 252 248
124 252 248
124 252 248
124 252 248
124 252 248
124 252 248
124 252 248
124 252 248
124 252 248
124 252 248
124 252 248
124 252 248
124 252 248
124 252 248
124 252 248
156 252 252
156 252 252
124 252 248
124 252 248
124 252 248
124 252 248
124 252 248
124 252 248
124 252 248
124 252 248
124 252 248
124 252 248
124 252 248
124 252 248
124 252 248
124 252 248
84 252 252

124 252 248
124 252 248
124 252 248
124 252 248
124 252 248
124 252 248
124 252 248
124 252 248
124 252 248
124 252 248
124 252 248
124 252 248
124 252 248
124 252 248
124 252 248
124 252 248
124 252 248
124 252 248
124 252 248
124 252 248
124 252 248
124 252 248
124 252 248
124 252 248
124 252 248
124 252 248
124 252 248
124 252 248
124 252 248
124 252 248
124 252 248
124 252 248
124 252 248
124 252 248
124 252 248
124 252 248
124 252 248
124 252 248
124 252 248
124 252 248
124 252 248
124 252 248
124 252 248
124 252 248
124 252 248
124 252 248
124 252 248
124 252 248
124 252 248
124 252 248
124 252 248
124 252 248
124 252 248
124 252 248
124 252 248
124 252 248
124 252 248
124 252 248
124 252 248
124 252 248
124 252 248
124 252 248
124 252 248
84 252 252

124 252 248
124 252 248
124 252 248
124 252 248
124 252 248
124 252 248
124 252 248
124 252 248
124 252 248
124 252 248
124 252 248
124 252 248
124 252 248
124 252 248
124 252 248
124 252 248
124 252 248
124 252 248
124 252 248
124 252 248
124 252 248
124 252 248
124 252 248
124 252 248
124 252 248
124 252 248
124 252 248
124 252 248
124 252 248
124 252 248
124 252 248
124 252 248
124 252 248
124 252 248
124 252 248
124 252 248
124 252 248
124 252 248
124 252 248
124 252 248
124 252 248
124 252 248
124 252 248
124 252 248
124 252 248
124 252 248
124 252 248
124 252 248
124 252 248
124 252 248
124 252 248
124 252 248
124 252 248
124 252 248
124 252 248
124 252 248
124 252 248
124 252 248
124 252 248
124 252 248
124 252 248
124 252 248
124 252 248
84 252 252

124 252 248
124 252 248
124 252 248
124 252 248
124 252 248
124 252 248
124 252 248
124 252 248
124 252 248
124 252 248
124 252 248
124 252 248
124 252 248
124 252 248
124 252 248
124 252 248
124 252 248
124 252 248
124 252 248
124 252 248
124 252 248
124 252 248
124 252 248
124 252 248
124 252 248
124 252 248
124 252 248
124 252 248
124 252 248
124 252 248
124 252 248
124 252 248
124 252 248
124 252 248
124 252 248
124 252 248
124 252 248
124 252 248
124 252 248
124 252 248
124 252 248
124 252 248
124 252 248
124 252 248
124 252 248
124 252 248
124 252 248
124 252 248
124 252 248
124 252 248
124 252 248
124 252 248
124 252 248
124 252 248
124 252 248
124 252 248
124 252 248
124 252 248
124 252 248
124 252 248
124 252 248
124 252 248
124 252 248
84 252 252

124 252 248
124 252 248
124 252 248
124 252 248
124 252 248
124 252 248
124 252 248
124 252 248
124 252 248
124 252 248
124 252 248
124 252 248
124 252 248
124 252 248
124 252 248
124 252 248
124 252 248
124 252 248
124 252 248
124 252 248
124 252 248
124 252 248
124 252 248
124 252 248
124 252 248
124 252 248
124 252 248
124 252 248
124 252 248
124 252 248
124 252 248
124 252 248
124 252 248
124 252 248
124 252 248
124 252 248
124 252 248
124 252 248
124 252 248
124 252 248
124 252 248
124 252 248
124 252 248
124 252 248
124 252 248
124 252 248
124 252 248
124 252 248
124 252 248
124 252 248
124 252 248
124 252 248
124 252 248
124 252 248
124 252 248
124 252 248
124 252 248
124 252 248
124 252 248
124 252 248
124 252 248
124 252 248
124 252 248
84 252 252

92 252 252
92 252 252
92 252 252
92 252 252
92 252 252
92 252 252
92 252 252
92 252 252
92 252 252
124 252 248
124 252 248
124 252 248
124 252 248
124 252 248
92 252 252
92 252 252
92 252 252
92 252 252
92 252 252
124 252 248
124 252 248
124 252 248
124 252 248
124 252 248
124 252 248
124 252 248
124 252 248
124 252 248
92 252 252
124 252 248
92 252 252
92 252 252
124 252 248
92 252 252
92 252 252
124 252 248
124 252 248
124 252 248
124 252 248
124 252 248
124 252 248
124 252 248
124 252 248
124 252 248
124 252 248
124 252 248
124 252 248
124 252 248
124 252 248
124 252 248
124 252 248
124 252 248
124 252 248
92 252 252
92 252 252
92 252 252
92 252 252
92 252 252
92 252 252
92 252 252
92 252 252
124 252 248
92 252 252
92 252 252

92 252 252
92 252 252
92 252 252
92 252 252
92 252 252
92 252 252
124 252 248
124 252 248
124 252 248
124 252 248
124 252 248
92 252 252
92 252 252
92 252 252
92 252 252
92 252 252
92 252 252
92 252 252
92 252 252
92 252 252
92 252 252
92 252 252
92 252 252
92 252 252
92 252 252
92 252 252
92 252 252
124 252 248
124 252 248
92 252 252
92 252 252
92 252 252
92 252 252
124 252 248
124 252 248
92 252 252
124 252 248
124 252 248
124 252 248
124 252 248
124 252 248
124 252 248
124 252 248
124 252 248
124 252 248
92 252 252
92 252 252
92 252 252
92 252 252
92 252 252
124 252 248
124 252 248
124 252 248
124 252 248
124 252 248
124 252 248
124 252 248
124 252 248
124 252 248
124 252 248
124 252 248
124 252 248
92 252 252
92 252 252

92 252 252
92 252 252
92 252 252
92 252 252
92 252 252
92 252 252
92 252 252
92 252 252
92 252 252
92 252 252
92 252 252
92 252 252
92 252 252
92 252 252
92 252 252
92 252 252
92 252 252
92 252 252
92 252 252
92 252 252
92 252 252
92 252 252
92 252 252
92 252 252
92 252 252
92 252 252
92 252 252
92 252 252
92 252 252
92 252 252
92 252 252
92 252 252
92 252 252
92 252 252
92 252 252
92 252 252
92 252 252
92 252 252
92 252 252
92 252 252
92 252 252
92 252 252
92 252 252
92 252 252
92 252 252
92 252 252
92 252 252
92 252 252
92 252 252
92 252 252
92 252 252
92 252 252
92 252 252
92 252 252
92 252 252
92 252 252
92 252 252
92 252 252
92 252 252
92 252 252
92 252 252
92 252 252
92 252 252
92 252 252

64 252 252
64 252 252
64 252 252
64 252 252
64 252 252
64 252 252
64 252 252
64 252 252
64 252 252
64 252 252
64 252 252
64 252 252
64 252 252
64 252 252
64 252 252
64 252 252
64 252 252
64 252 252
64 252 252
64 252 252
64 252 252
64 252 252
64 252 252
64 252 252
64 252 252
64 252 252
64 252 252
64 252 252
64 252 252
64 252 252
64 252 252
64 252 252
64 252 252
64 252 252
64 252 252
64 252 252
64 252 252
64 252 252
64 252 252
64 252 252
64 252 252
64 252 252
64 252 252
64 252 252
64 252 252
64 252 252
64 252 252
64 252 252
64 252 252
64 252 252
64 252 252
64 252 252
64 252 252
64 252 252
64 252 252
64 252 252
64 252 252
64 252 252
64 252 252
64 252 252
64 252 252
64 252 252
64 252 252
64 252 252

64 252 252
64 252 252
64 252 252
64 252 252
64 252 252
64 252 252
64 252 252
64 252 252
64 252 252
64 252 252
64 252 252
64 252 252
64 252 252
64 252 252
64 252 252
64 252 252
64 252 252
64 252 252
64 252 252
64 252 252
64 252 252
64 252 252
64 252 252
64 252 252
64 252 252
64 252 252
64 252 252
64 252 252
64 252 252
64 252 252
64 252 252
64 252 252
64 252 252
64 252 252
64 252 252
64 252 252
64 252 252
64 252 252
64 252 252
64 252 252
64 252 252
64 252 252
64 252 252
64 252 252
64 252 252
64 252 252
64 252 252
64 252 252
64 252 252
64 252 252
64 252 252
64 252 252
64 252 252
64 252 252
64 252 252
64 252 252
64 252 252
64 252 252
64 252 252
64 252 252
64 252 252
64 252 252
64 252 252
64 252 252

64 252 252
64 252 252
64 252 252
64 252 252
64 252 252
64 252 252
64 252 252
64 252 252
64 252 252
64 252 252
64 252 252
64 252 252
64 252 252
64 252 252
64 252 252
64 252 252
64 252 252
64 252 252
64 252 252
64 252 252
64 252 252
64 252 252
64 252 252
64 252 252
64 252 252
64 252 252
64 252 252
64 252 252
64 252 252
64 252 252
64 252 252
64 252 252
64 252 252
64 252 252
64 252 252
64 252 252
64 252 252
64 252 252
64 252 252
64 252 252
64 252 252
64 252 252
64 252 252
64 252 252
64 252 252
64 252 252
64 252 252
64 252 252
64 252 252
64 252 252
64 252 252
64 252 252
64 252 252
64 252 252
64 252 252
64 252 252
64 252 252
64 252 252
64 252 252
64 252 252
64 252 252
64 252 252
64 252 252
64 252 252

64 252 252
64 252 252
64 252 252
64 252 252
64 252 252
64 252 252
64 252 252
64 252 252
64 252 252
64 252 252
0 228 228
0 228 228
64 252 252
64 252 252
64 252 252
64 252 252
0 228 228
0 228 228
0 228 228
0 228 228
0 228 228
0 228 228
64 252 252
64 252 252
64 252 252
64 252 252
64 252 252
64 252 252
64 252 252
0 228 228
64 252 252
64 252 252
64 252 252
64 252 252
64 252 252
64 252 252
64 252 252
64 252 252
64 252 252
64 252 252
64 252 252
64 252 252
64 252 252
64 252 252
64 252 252
64 252 252
64 252 252
64 252 252
64 252 252
64 252 252
64 252 252
64 252 252
64 252 252
64 252 252
64 252 252
64 252 252
64 252 252
64 252 252
64 252 252
64 252 252
64 252 252
64 252 252
64 252 252
64 252 252

32 252 252
32 252 252
0 228 228
0 228 228
32 252 252
32 252 252
0 228 228
0 228 228
0 228 228
0 228 228
0 228 228
0 228 228
0 228 228
0 228 228
0 228 228
0 228 228
0 228 228
0 228 228
0 228 228
0 228 228
0 228 228
0 228 228
0 228 228
32 252 252
0 228 228
0 228 228
32 252 252
32 252 252
32 252 252
32 252 252
32 252 252
32 252 252
32 252 252
32 252 252
32 252 252
32 252 252
32 252 252
0 228 228
32 252 252
0 228 228
0 228 228
32 252 252
0 228 228
0 228 228
0 228 228
0 228 228
0 228 228
0 228 228
32 252 252
0 228 228
0 228 228
32 252 252
32 252 252
32 252 252
32 252 252
32 252 252
32 252 252
32 252 252
32 252 252
32 252 252
32 252 252
32 252 252
32 252 252
32 252 252

32 252 252
32 252 252
32 252 252
32 252 252
32 252 252
32 252 252
32 252 252
32 252 252
32 252 252
32 252 252
32 252 252
32 252 252
32 252 252
32 252 252
32 252 252
32 252 252
32 252 252
32 252 252
32 252 252
32 252 252
32 252 252
32 252 252
32 252 252
32 252 252
32 252 252
32 252 252
32 252 252
32 252 252
32 252 252
32 252 252
32 252 252
32 252 252
32 252 252
32 252 252
32 252 252
32 252 252
32 252 252
32 252 252
32 252 252
32 252 252
32 252 252
32 252 252
32 252 252
32 252 252
32 252 252
32 252 252
32 252 252
32 252 252
32 252 252
32 252 252
32 252 252
32 252 252
32 252 252
32 252 252
32 252 252
32 252 252
32 252 252
32 252 252
32 252 252
32 252 252
32 252 252
32 252 252
32 252 252
32 252 252

32 252 252
32 252 252
0 228 228
32 252 252
32 252 252
0 228 228
0 228 228
32 252 252
32 252 252
32 252 252
32 252 252
0 228 228
0 228 228
0 228 228
0 228 228
0 228 228
0 228 228
0 228 228
0 228 228
0 228 228
0 228 228
0 228 228
32 252 252
0 228 228
0 228 228
0 228 228
0 228 228
32 252 252
0 228 228
0 228 228
0 228 228
0 228 228
0 228 228
0 228 228
0 228 228
0 228 228
0 228 228
0 228 228
0 228 228
0 228 228
0 228 228
0 228 228
0 228 228
0 228 228
32 252 252
32 252 252
32 252 252
0 228 228
0 228 228
0 228 228
0 228 228
0 228 228
0 228 228
0 228 228
0 228 228
0 228 228
32 252 252
32 252 252
32 252 252
32 252 252
32 252 252
32 252 252
32 252 252
32 252 252

0 228 228
0 228 228
0 228 228
0 228 228
0 228 228
0 228 228
0 228 228
0 228 228
0 228 228
0 228 228
0 228 228
0 228 228
0 228 228
0 228 228
0 228 228
0 228 228
0 228 228
0 228 228
0 228 228
0 228 228
0 228 228
0 228 228
0 228 228
0 228 228
0 228 228
0 228 228
0 228 228
0 228 228
0 228 228
0 228 228
0 228 228
0 228 228
0 228 228
0 228 228
0 228 228
0 228 228
0 228 228
0 228 228
0 228 228
0 228 228
0 228 228
0 228 228
0 228 228
0 228 228
0 228 228
0 228 228
0 228 228
0 228 228
0 228 228
0 228 228
0 228 228
0 228 228
0 228 228
0 228 228
0 228 228
0 228 228
0 228 228
0 228 228
0 228 228
0 228 228
0 228 228
0 228 228
0 228 228
0 228 228

0 228 228
0 228 228
0 228 228
0 228 228
0 204 204
0 204 204
0 228 228
0 228 228
0 228 228
0 228 228
0 228 228
0 228 228
0 228 228
0 228 228
0 228 228
0 204 204
0 204 204
0 228 228
0 228 228
0 204 204
0 204 204
0 228 228
0 204 204
0 228 228
0 228 228
0 228 228
0 228 228
0 204 204
0 204 204
0 204 204
0 204 204
0 204 204
0 204 204
0 204 204
0 228 228
0 204 204
0 228 228
0 228 228
0 228 228
0 204 204
0 228 228
0 204 204
0 228 228
0 228 228
0 228 228
0 228 228
0 228 228
0 204 204
0 204 204
0 204 204
0 204 204
0 204 204
0 204 204
0 204 204
0 228 228
0 228 228
0 228 228
0 228 228
0 228 228
0 228 228
0 228 228
0 228 228
0 228 228
0 228 228

0 204 204
0 204 204
0 204 204
0 204 204
0 204 204
0 204 204
0 204 204
0 204 204
0 204 204
0 204 204
0 204 204
0 204 204
0 204 204
0 204 204
0 204 204
0 204 204
0 204 204
0 204 204
0 204 204
0 204 204
0 204 204
0 204 204
0 204 204
0 204 204
0 204 204
0 204 204
0 204 204
0 204 204
0 204 204
0 204 204
0 204 204
0 204 204
0 204 204
0 204 204
0 204 204
0 204 204
0 204 204
0 204 204
0 204 204
0 204 204
0 204 204
0 204 204
0 204 204
0 204 204
0 204 204
0 204 204
0 204 204
0 204 204
0 204 204
0 204 204
0 204 204
0 204 204
0 204 204
0 204 204
0 204 204
0 204 204
0 204 204
0 204 204
0 204 204
0 204 204
0 204 204
0 204 204
0 204 204
0 204 204

0 204 204
0 204 204
72 192 192
72 192 192
72 192 192
72 192 192
0 204 204
0 204 204
0 204 204
72 192 192
72 192 192
72 192 192
72 192 192
72 192 192
72 192 192
72 192 192
72 192 192
0 204 204
0 204 204
0 204 204
0 204 204
0 204 204
0 204 204
0 204 204
0 204 204
0 204 204
0 204 204
0 204 204
0 204 204
0 204 204
0 204 204
0 204 204
0 204 204
72 192 192
72 192 192
72 192 192
72 192 192
72 192 192
72 192 192
0 204 204
0 204 204
0 204 204
0 204 204
72 192 192
72 192 192
0 204 204
72 192 192
72 192 192
0 180 180
0 180 180
72 192 192
72 192 192
0 204 204
72 192 192
72 192 192
72 192 192
0 204 204
72 192 192
72 192 192
0 204 204
0 204 204
0 204 204
0 204 204
0 204 204

0 180 180
0 156 252
0 156 252
0 156 252
0 156 252
0 156 252
0 156 252
0 156 252
0 156 252
0 156 252
0 156 252
0 156 252
0 156 252
0 156 252
0 156 252
0 180 180
0 156 252
0 180 180
0 180 180
0 180 180
0 180 180
0 180 180
0 180 180
0 156 252
0 156 252
0 156 252
0 156 252
0 156 252
0 180 180
0 180 180
0 180 180
32 168 252
0 180 180
0 180 180
32 168 252
32 168 252
32 168 252
32 168 252
32 168 252
0 180 180
0 180 180
0 180 180
0 180 180
0 180 180
0 180 180
0 156 252
0 156 252
0 156 252
0 180 180
0 180 180
0 180 180
0 180 180
0 180 180
0 180 180
0 180 180
0 180 180
0 180 180
32 168 252
32 168 252
32 168 252
0 180 180
0 180 180
0 180 180
0 180 180

0 124 204
0 124 204
0 132 132
0 132 132
0 132 132
0 132 132
0 124 204
0 124 204
0 124 204
0 124 204
0 124 204
0 124 204
0 132 132
0 132 132
0 132 132
0 132 132
0 132 132
0 132 132
0 132 132
0 156 156
0 124 204
0 124 204
0 124 204
0 124 204
0 124 204
0 124 204
0 124 204
0 124 204
0 124 204
0 124 204
0 124 204
0 124 204
0 124 204
0 124 204
0 124 204
0 124 204
0 124 204
0 124 204
0 124 204
0 124 204
0 124 204
0 124 204
0 124 204
0 124 204
0 124 204
0 124 204
0 124 204
0 124 204
0 124 204
0 124 204
0 124 204
0 124 204
0 124 204
0 124 204
0 124 204
0 124 204
0 124 204
0 124 204
0 124 204
0 124 204
0 124 204
0 124 204
0 124 204
0 124 204

0 88 88
0 88 88
0 88 88
0 132 132
0 88 88
0 88 88
0 112 112
0 88 88
0 88 88
0 124 204
0 88 88
0 112 112
0 88 88
0 64 64
0 88 88
0 88 88
0 64 64
0 64 64
0 88 88
0 88 88
0 112 112
0 88 88
0 124 204
0 88 88
0 112 112
0 88 88
0 88 88
0 88 88
0 124 204
0 88 88
0 112 112
0 88 88
0 64 64
0 64 64
0 88 88
0 112 112
0 88 88
0 88 88
0 64 64
0 88 88
0 112 112
0 124 204
0 112 112
0 88 88
0 88 88
0 88 88
0 88 88
0 132 132
0 112 112
0 88 88
0 88 88
0 88 88
0 88 88
0 112 112
0 88 88
0 132 132
0 124 204
0 132 132
0 88 88
0 88 88
0 132 132
0 124 204
0 88 88
0 88 88

0 96 96
0 108 108
0 108 108
0 108 108
0 108 108
0 96 96
0 96 96
0 96 96
0 96 96
0 108 108
0 108 108
0 96 96
0 108 108
0 96 96
0 96 96
0 96 96
0 96 96
0 96 96
0 108 108
0 108 108
0 96 96
0 96 96
0 96 96
0 108 108
0 108 108
0 108 108
0 96 96
0 96 96
0 108 108
0 96 96
0 96 96
0 96 96
0 108 108
0 108 108
0 96 96
0 96 96
0 96 96
0 108 108
0 96 96
0 96 96
0 108 108
0 108 108
0 96 96
0 96 96
0 96 96
0 108 108
0 108 108
0 96 96
0 108 108
0 108 108
0 108 108
0 96 96
0 108 108
0 108 108
0 96 96
0 96 96
0 96 96
0 108 108
0 108 108
0 108 108
0 108 108
0 96 96
0 96 96
0 96 96

0 108 108
0 108 108
0 108 108
0 108 108
0 108 108
0 108 108
0 108 108
0 108 108
0 108 108
0 108 108
0 108 108
0 108 108
0 108 108
0 108 108
0 108 108
0 108 108
0 108 108
0 108 108
0 108 108
0 108 108
0 108 108
0 108 108
0 108 108
0 108 108
0 108 108
0 108 108
0 108 108
0 108 108
0 108 108
0 108 108
0 108 108
0 108 108
0 108 108
0 108 108
0 108 108
0 108 108
0 108 108
0 108 108
0 108 108
0 108 108
0 108 108
0 108 108
0 108 108
0 108 108
0 108 108
0 108 108
0 108 108
0 108 108
0 108 108
0 108 108
0 108 108
0 108 108
0 108 108
0 108 108
0 108 108
0 108 108
0 108 108
0 108 108
0 108 108
0 108 108
0 108 108
0 108 108
0 108 108
0 108 108

4 124 0
0 116 116
0 116 116
0 116 116
0 116 116
0 120 120
4 124 0
4 136 0
4 124 0
0 116 116
4 124 0
0 116 116
0 120 120
0 116 116
0 116 116
0 116 116
0 116 116
0 116 116
0 116 116
0 116 116
0 120 120
4 124 0
4 124 0
4 124 0
0 120 120
0 116 116
0 116 116
0 116 116
0 116 116
0 120 120
4 124 0
0 120 120
4 124 0
0 120 120
4 124 0
4 124 0
4 124 0
4 124 0
0 116 116
0 116 116
4 124 0
4 136 0
4 124 0
0 116 116
0 116 116
0 116 116
0 116 116
0 116 116
0 116 116
0 120 120
4 136 0
4 124 0
4 124 0
4 136 0
4 124 0
0 120 120
0 116 116
0 116 116
0 120 120
4 136 0
4 124 0
0 116 116
0 116 116
4 124 0

4 124 0
4 124 0
4 124 0
4 136 0
4 124 0
4 124 0
4 124 0
4 124 0
4 136 0
4 124 0
4 124 0
4 124 0
4 124 0
4 124 0
4 136 0
4 124 0
4 124 0
4 136 0
4 124 0
4 124 0
4 124 0
4 124 0
4 124 0
4 136 0
4 124 0
4 124 0
4 124 0
4 124 0
4 124 0
4 124 0
4 124 0
4 124 0
4 124 0
4 136 0
4 124 0
4 124 0
4 124 0
4 124 0
4 124 0
4 124 0
4 124 0
4 124 0
4 124 0
4 124 0
4 124 0
4 124 0
4 124 0
4 124 0
4 124 0
4 124 0
4 124 0
4 124 0
4 124 0
4 124 0
4 124 0
4 124 0
4 124 0
4 124 0
4 136 0
4 124 0
4 124 0
4 124 0
4 124 0
4 124 0

4 136 0
4 124 0
4 124 0
4 124 0
4 124 0
4 124 0
4 136 0
4 124 0
4 124 0
4 124 0
4 124 0
4 124 0
4 136 0
4 124 0
4 124 0
4 136 0
4 124 0
4 124 0
4 136 0
4 124 0
4 124 0
4 124 0
4 136 0
4 124 0
4 124 0
4 124 0
4 136 0
4 124 0
4 136 0
4 124 0
4 136 0
4 124 0
4 136 0
4 124 0
4 124 0
4 124 0
4 124 0
4 124 0
4 124 0
4 124 0
4 124 0
4 136 0
4 124 0
4 136 0
4 124 0
4 136 0
4 124 0
4 124 0
4 124 0
4 124 0
4 124 0
4 124 0
4 136 0
4 124 0
4 124 0
4 136 0
4 124 0
4 124 0
4 136 0
4 124 0
4 124 0
4 124 0
4 136 0
4 124 0

4 136 0
4 136 0
4 136 0
4 124 0
4 124 0
4 124 0
4 124 0
4 124 0
4 124 0
4 136 0
4 124 0
4 124 0
4 124 0
4 124 0
4 124 0
4 124 0
4 124 0
4 124 0
4 124 0
4 124 0
4 136 0
4 124 0
4 124 0
4 136 0
4 124 0
4 124 0
4 136 0
4 124 0
4 124 0
4 136 0
4 124 0
4 124 0
4 124 0
4 124 0
4 136 0
4 124 0
4 124 0
4 124 0
4 124 0
4 124 0
4 124 0
4 124 0
4 124 0
4 136 0
4 124 0
4 124 0
4 136 0
4 124 0
4 136 0
4 124 0
4 136 0
4 124 0
4 124 0
4 124 0
4 136 0
4 124 0
4 124 0
4 136 0
4 124 0
4 124 0
4 136 0
4 124 0
4 124 0
4 136 0

4 136 0
4 124 0
4 124 0
4 136 0
4 124 0
4 124 0
4 136 0
4 124 0
4 124 0
4 124 0
4 124 0
4 136 0
4 124 0
4 136 0
4 124 0
4 124 0
4 136 0
4 124 0
4 136 0
4 124 0
4 124 0
4 136 0
4 124 0
4 136 0
4 124 0
4 136 0
4 124 0
4 124 0
4 124 0
4 136 0
4 124 0
4 124 0
4 136 0
4 124 0
4 124 0
4 124 0
4 124 0
4 136 0
4 136 0
4 124 0
4 124 0
4 124 0
4 136 0
4 124 0
4 136 0
4 124 0
4 124 0
4 136 0
4 124 0
4 124 0
4 124 0
4 136 0
4 124 0
4 136 0
4 124 0
4 136 0
4 124 0
4 124 0
4 124 0
4 136 0
4 124 0
4 136 0
4 136 0
4 124 0

4 136 0
4 136 0
4 136 0
4 136 0
4 124 0
4 124 0
4 124 0
4 124 0
4 136 0
4 124 0
4 124 0
4 124 0
4 124 0
4 124 0
4 136 0
4 124 0
4 124 0
4 136 0
4 124 0
4 136 0
4 136 0
4 124 0
4 124 0
4 124 0
4 124 0
4 124 0
4 124 0
4 136 0
4 124 0
4 124 0
4 124 0
4 136 0
4 124 0
4 136 0
4 124 0
4 124 0
4 136 0
4 124 0
4 124 0
4 124 0
4 136 0
4 124 0
4 136 0
4 124 0
4 124 0
4 124 0
4 136 0
4 124 0
4 136 0
4 124 0
4 136 0
4 124 0
4 136 0
4 124 0
4 124 0
4 124 0
4 136 0
4 136 0
4 124 0
4 124 0
4 136 0
4 124 0
4 136 0
4 136 0

4 136 0
4 136 0
4 124 0
4 136 0
4 136 0
4 124 0
4 136 0
4 136 0
4 124 0
4 136 0
4 136 0
4 124 0
4 136 0
4 136 0
4 124 0
4 124 0
4 136 0
4 124 0
4 136 0
4 136 0
4 124 0
4 124 0
4 136 0
4 124 0
4 136 0
4 124 0
4 136 0
4 136 0
4 136 0
4 124 0
4 136 0
4 124 0
4 124 0
4 136 0
4 124 0
4 136 0
4 124 0
4 136 0
4 136 0
4 124 0
4 124 0
4 124 0
4 124 0
4 136 0
4 136 0
4 124 0
4 124 0
4 136 0
4 124 0
4 136 0
4 136 0
4 124 0
4 124 0
4 124 0
4 136 0
4 136 0
4 124 0
4 124 0
4 136 0
4 136 0
4 124 0
4 136 0
4 136 0
4 124 0

4 124 0
4 124 0
4 136 0
4 124 0
4 136 0
4 136 0
4 136 0
4 124 0
4 124 0
4 136 0
4 124 0
4 124 0
4 124 0
4 124 0
4 136 0
4 124 0
4 124 0
4 136 0
4 124 0
4 124 0
4 124 0
4 136 0
4 124 0
4 136 0
4 124 0
4 136 0
4 124 0
4 124 0
4 136 0
4 136 0
4 136 0
4 124 0
4 136 0
4 124 0
4 124 0
4 124 0
4 136 0
4 124 0
4 124 0
4 136 0
4 124 0
4 136 0
4 136 0
4 124 0
4 124 0
4 136 0
4 124 0
4 124 0
4 136 0
4 124 0
4 124 0
4 136 0
4 124 0
4 136 0
4 136 0
4 136 0
4 124 0
4 136 0
4 124 0
4 136 0
4 124 0
4 136 0
4 124 0
4 136 0

4 136 0
4 136 0
4 136 0
4 136 0
4 136 0
4 124 0
4 136 0
4 124 0
4 136 0
4 124 0
4 124 0
4 136 0
4 124 0
4 136 0
4 124 0
4 136 0
4 152 0
4 136 0
4 124 0
4 124 0
4 136 0
4 136 0
4 124 0
4 136 0
4 124 0
4 124 0
4 136 0
4 136 0
4 124 0
4 124 0
4 124 0
4 136 0
4 136 0
4 124 0
4 124 0
4 136 0
4 124 0
4 124 0
4 136 0
4 136 0
4 124 0
4 136 0
4 136 0
4 136 0
4 136 0
4 124 0
4 124 0
4 136 0
4 136 0
4 136 0
4 124 0
4 124 0
4 136 0
4 124 0
4 124 0
4 152 0
4 136 0
4 124 0
4 124 0
4 136 0
4 136 0
4 136 0
4 124 0
4 136 0

4 136 0
4 124 0
4 124 0
4 124 0
4 136 0
4 136 0
4 124 0
4 136 0
4 124 0
4 124 0
4 152 0
4 136 0
4 136 0
4 136 0
4 124 0
4 124 0
4 124 0
4 124 0
4 152 0
4 124 0
4 124 0
4 136 0
4 136 0
4 136 0
4 152 0
4 124 0
4 136 0
4 136 0
4 124 0
4 152 0
4 136 0
4 124 0
4 136 0
4 136 0
4 136 0
4 136 0
4 136 0
4 136 0
4 124 0
4 124 0
4 136 0
4 136 0
4 152 0
4 152 0
4 124 0
4 124 0
4 136 0
4 136 0
4 136 0
4 136 0
4 124 0
4 136 0
4 136 0
4 136 0
4 136 0
4 136 0
4 124 0
4 124 0
4 136 0
4 124 0
4 136 0
4 136 0
4 124 0
4 152 0

4 136 0
4 124 0
4 124 0
4 136 0
4 124 0
4 136 0
4 136 0
4 124 0
4 124 0
4 136 0
4 124 0
4 136 0
4 136 0
4 136 0
4 124 0
4 136 0
4 124 0
4 136 0
4 136 0
4 124 0
4 136 0
4 136 0
4 152 0
4 136 0
4 136 0
4 136 0
4 136 0
4 124 0
4 124 0
4 136 0
4 136 0
4 136 0
4 124 0
4 136 0
4 124 0
4 136 0
4 124 0
4 152 0
4 136 0
4 124 0
4 124 0
4 124 0
4 136 0
4 124 0
4 136 0
4 124 0
4 124 0
4 124 0
4 124 0
4 124 0
4 136 0
4 136 0
4 124 0
4 124 0
4 136 0
4 136 0
4 124 0
4 124 0
4 136 0
4 124 0
4 136 0
4 124 0
4 136 0
4 136 0

4 136 0
4 136 0
4 136 0
4 152 0
4 124 0
4 124 0
4 136 0
4 152 0
4 136 0
4 136 0
4 136 0
4 124 0
4 152 0
4 136 0
4 136 0
4 124 0
4 124 0
4 136 0
4 136 0
4 136 0
4 136 0
4 136 0
4 124 0
4 124 0
4 136 0
4 136 0
4 136 0
4 164 0
4 124 0
4 124 0
4 124 0
4 136 0
4 136 0
4 136 0
4 136 0
4 152 0
4 136 0
4 124 0
4 152 0
4 136 0
4 124 0
4 136 0
4 136 0
4 136 0
4 136 0
4 136 0
4 124 0
4 136 0
4 136 0
4 136 0
4 124 0
4 124 0
4 124 0
4 136 0
4 136 0
4 152 0
4 136 0
4 124 0
4 152 0
4 124 0
4 124 0
4 136 0
4 124 0
4 136 0

4 136 0
4 136 0
4 136 0
4 136 0
4 136 0
4 136 0
4 152 0
4 136 0
4 136 0
4 136 0
4 152 0
4 124 0
4 136 0
4 136 0
4 152 0
4 124 0
4 124 0
4 136 0
4 152 0
4 164 0
4 136 0
4 136 0
4 136 0
4 136 0
4 152 0
4 136 0
4 136 0
4 136 0
4 136 0
4 152 0
4 136 0
4 136 0
4 164 0
4 136 0
4 136 0
4 136 0
4 136 0
4 136 0
4 136 0
4 136 0
4 136 0
4 136 0
4 152 0
4 152 0
4 136 0
4 136 0
4 136 0
4 152 0
4 136 0
4 136 0
4 136 0
4 136 0
4 124 0
4 152 0
4 136 0
4 136 0
4 136 0
4 136 0
4 136 0
4 124 0
4 136 0
4 124 0
4 124 0
4 152 0

4 136 0
4 124 0
4 136 0
4 152 0
4 136 0
4 136 0
4 152 0
4 152 0
4 136 0
4 136 0
4 152 0
4 124 0
4 136 0
4 152 0
4 136 0
4 124 0
4 124 0
4 136 0
4 124 0
4 124 0
4 136 0
4 164 0
4 136 0
4 164 0
4 152 0
4 152 0
4 136 0
4 164 0
4 152 0
4 152 0
4 152 0
4 152 0
4 152 0
4 136 0
4 152 0
4 136 0
4 152 0
4 136 0
4 152 0
4 136 0
4 136 0
4 152 0
4 136 0
4 152 0
4 136 0
4 152 0
4 136 0
4 136 0
4 136 0
4 136 0
4 152 0
4 136 0
4 152 0
4 152 0
4 164 0
4 136 0
4 136 0
4 152 0
4 152 0
4 152 0
4 136 0
4 152 0
4 136 0
4 136 0

4 152 0
4 152 0
4 136 0
4 136 0
4 136 0
4 136 0
4 124 0
4 136 0
4 152 0
4 136 0
4 152 0
4 152 0
4 136 0
4 164 0
4 152 0
4 152 0
4 152 0
4 136 0
4 124 0
4 152 0
4 164 0
4 152 0
4 136 0
4 136 0
4 136 0
4 152 0
4 152 0
4 152 0
4 136 0
4 136 0
4 136 0
4 152 0
4 136 0
4 164 0
4 136 0
4 152 0
4 164 0
4 136 0
4 164 0
4 152 0
4 152 0
4 136 0
4 152 0
4 136 0
4 152 0
4 152 0
4 136 0
4 136 0
4 152 0
4 152 0
4 152 0
4 152 0
4 136 0
4 152 0
4 136 0
4 164 0
4 152 0
4 152 0
4 136 0
4 152 0
4 152 0
4 136 0
4 152 0
4 152 0

4 152 0
4 152 0
4 136 0
4 136 0
4 152 0
4 152 0
4 124 0
4 152 0
4 136 0
4 152 0
4 152 0
4 152 0
4 152 0
4 152 0
4 152 0
4 136 0
4 136 0
4 152 0
4 152 0
4 136 0
4 152 0
4 136 0
4 136 0
4 152 0
4 136 0
4 152 0
4 164 0
4 152 0
4 136 0
4 152 0
4 164 0
4 164 0
4 152 0
4 136 0
4 152 0
4 152 0
4 152 0
4 152 0
4 164 0
4 152 0
4 124 0
4 124 0
4 152 0
4 152 0
4 152 0
4 152 0
4 136 0
4 164 0
4 152 0
4 136 0
4 152 0
4 152 0
4 152 0
4 152 0
4 152 0
4 152 0
4 164 0
4 152 0
4 152 0
4 164 0
4 152 0
4 152 0
4 152 0
4 152 0

4 152 0
4 152 0
4 152 0
4 152 0
4 136 0
4 152 0
4 152 0
4 136 0
4 152 0
4 136 0
4 136 0
4 152 0
4 136 0
4 152 0
4 136 0
4 136 0
4 152 0
4 152 0
4 164 0
4 136 0
4 152 0
4 136 0
4 152 0
4 152 0
4 152 0
4 136 0
4 136 0
4 136 0
4 152 0
4 152 0
4 164 0
4 152 0
4 164 0
4 152 0
4 152 0
4 152 0
4 152 0
4 152 0
4 152 0
4 188 0
4 152 0
4 136 0
4 152 0
4 164 0
4 152 0
4 152 0
4 164 0
4 152 0
4 152 0
4 152 0
4 136 0
4 152 0
4 152 0
4 136 0
4 152 0
4 152 0
4 152 0
4 164 0
4 152 0
4 164 0
4 152 0
4 136 0
4 152 0
4 152 0

4 152 0
4 152 0
4 152 0
4 152 0
4 152 0
4 164 0
4 152 0
4 136 0
4 152 0
4 152 0
4 152 0
4 152 0
4 152 0
4 164 0
4 152 0
4 152 0
4 164 0
4 152 0
4 152 0
4 152 0
4 136 0
4 152 0
4 164 0
4 136 0
4 164 0
4 152 0
4 152 0
4 136 0
4 152 0
4 152 0
4 152 0
4 164 0
4 152 0
4 188 0
4 164 0
4 164 0
4 152 0
4 164 0
4 152 0
4 152 0
4 152 0
4 164 0
4 152 0
4 188 0
4 152 0
4 152 0
4 152 0
4 152 0
4 152 0
4 164 0
4 152 0
4 152 0
4 152 0
4 152 0
4 152 0
4 152 0
4 188 0
4 152 0
4 136 0
4 152 0
4 164 0
4 164 0
4 152 0
4 152 0

4 164 0
4 164 0
4 164 0
4 164 0
4 164 0
4 152 0
4 188 0
4 164 0
4 164 0
4 164 0
4 164 0
4 188 0
4 152 0
4 188 0
4 164 0
4 152 0
4 152 0
4 164 0
4 164 0
4 164 0
4 164 0
4 188 0
4 188 0
4 164 0
4 152 0
4 152 0
4 152 0
4 152 0
4 152 0
4 152 0
4 152 0
4 188 0
4 164 0
4 164 0
4 152 0
4 164 0
4 164 0
4 164 0
4 164 0
4 164 0
4 188 0
4 152 0
4 152 0
4 164 0
4 164 0
4 152 0
4 164 0
4 152 0
4 164 0
4 164 0
4 152 0
4 152 0
4 152 0
4 164 0
4 152 0
4 152 0
4 152 0
4 152 0
4 188 0
4 164 0
4 188 0
4 164 0
4 164 0
0 168 0

4 164 0
4 164 0
4 164 0
4 188 0
4 164 0
4 152 0
4 152 0
4 152 0
4 188 0
4 152 0
4 152 0
4 164 0
4 188 0
4 152 0
4 188 0
4 164 0
4 164 0
4 188 0
4 164 0
4 164 0
4 164 0
4 152 0
4 152 0
4 164 0
4 164 0
4 164 0
4 152 0
4 152 0
4 152 0
4 152 0
4 164 0
4 152 0
4 164 0
4 152 0
4 164 0
4 164 0
4 164 0
4 164 0
4 164 0
4 188 0
4 164 0
4 164 0
4 164 0
4 164 0
4 164 0
4 164 0
4 188 0
4 164 0
4 152 0
4 152 0
4 188 0
4 152 0
4 152 0
4 164 0
4 164 0
4 188 0
4 152 0
4 164 0
4 188 0
4 164 0
0 168 0
4 164 0
4 164 0
0 168 0

4 188 0
4 164 0
4 188 0
4 164 0
4 164 0
4 164 0
4 152 0
4 164 0
4 164 0
4 164 0
4 152 0
4 164 0
4 164 0
4 164 0
4 164 0
4 164 0
4 164 0
4 164 0
4 188 0
4 164 0
4 188 0
4 164 0
4 164 0
4 188 0
4 152 0
4 164 0
4 164 0
4 164 0
4 164 0
4 164 0
4 152 0
4 164 0
4 188 0
4 164 0
4 188 0
4 164 0
4 164 0
4 188 0
4 188 0
4 164 0
4 164 0
4 188 0
4 188 0
4 188 0
4 188 0
4 164 0
4 164 0
4 164 0
4 188 0
4 164 0
4 188 0
4 188 0
4 152 0
4 164 0
4 188 0
4 188 0
4 164 0
4 188 0
4 164 0
4 164 0
4 164 0
4 188 0
4 164 0
0 168 0

4 188 0
4 188 0
4 188 0
4 164 0
4 164 0
4 188 0
4 164 0
4 164 0
4 164 0
4 164 0
4 164 0
4 164 0
4 188 0
4 188 0
4 188 0
4 188 0
4 188 0
4 188 0
4 188 0
4 188 0
4 188 0
4 188 0
4 188 0
4 164 0
4 164 0
4 188 0
4 188 0
4 164 0
4 164 0
4 188 0
4 164 0
4 188 0
4 188 0
4 188 0
4 164 0
4 188 0
4 188 0
4 188 0
4 188 0
4 188 0
4 188 0
4 188 0
4 188 0
4 188 0
4 164 0
4 164 0
4 188 0
4 164 0
4 164 0
4 188 0
4 188 0
4 188 0
4 188 0
4 164 0
4 188 0
4 188 0
4 164 0
4 188 0
4 188 0
4 188 0
4 188 0
4 188 0
4 188 0
4 188 0

4 188 0
4 188 0
4 188 0
4 188 0
4 188 0
4 188 0
4 164 0
4 188 0
4 188 0
4 188 0
4 188 0
4 188 0
4 188 0
4 188 0
4 188 0
4 188 0
4 188 0
4 188 0
4 188 0
4 188 0
4 188 0
4 188 0
4 188 0
4 188 0
4 188 0
4 188 0
4 188 0
4 188 0
4 188 0
4 188 0
4 188 0
4 188 0
4 188 0
4 188 0
4 188 0
4 188 0
4 188 0
4 188 0
4 188 0
4 188 0
4 188 0
4 188 0
4 188 0
4 188 0
4 188 0
4 188 0
4 164 0
4 188 0
4 188 0
4 188 0
4 188 0
4 188 0
4 188 0
4 188 0
4 188 0
4 188 0
4 188 0
4 188 0
4 188 0
4 188 0
4 188 0
4 188 0
4 188 0
4 188 0

