P3
# ASCII PPM file
64 64
255

56 56 56
56 56 56
56 56 56
56 56 56
56 56 56
56 56 56
56 56 56
56 56 56
56 56 56
56 56 56
56 56 56
56 56 56
56 56 56
56 56 56
56 56 56
56 56 56
56 56 56
56 56 56
56 56 56
56 56 56
56 56 56
56 56 56
56 56 56
56 56 56
56 56 56
56 56 56
56 56 56
56 56 56
56 56 56
56 56 56
56 56 56
56 56 56
56 56 56
56 56 56
56 56 56
56 56 56
56 56 56
56 56 56
56 56 56
56 56 56
56 56 56
56 56 56
56 56 56
56 56 56
56 56 56
56 56 56
56 56 56
56 56 56
56 56 56
56 56 56
56 56 56
56 56 56
56 56 56
56 56 56
56 56 56
56 56 56
56 56 56
56 56 56
56 56 56
56 56 56
56 56 56
56 56 56
56 56 56
56 56 56

56 56 56
32 32 32
56 56 56
44 44 44
44 44 44
44 44 44
44 44 44
44 44 44
56 56 56
44 44 44
44 44 44
44 44 44
44 44 44
44 44 44
44 44 44
56 56 56
44 44 44
32 32 32
44 44 44
44 44 44
44 44 44
44 44 44
44 44 44
44 44 44
44 44 44
56 56 56
56 56 56
56 56 56
56 56 56
56 56 56
56 56 56
44 44 44
44 44 44
44 44 44
44 44 44
44 44 44
44 44 44
44 44 44
44 44 44
44 44 44
56 56 56
56 56 56
56 56 56
56 56 56
56 56 56
56 56 56
56 56 56
44 44 44
44 44 44
44 44 44
44 44 44
32 32 32
32 32 32
32 32 32
44 44 44
44 44 44
56 56 56
56 56 56
44 44 44
44 44 44
44 44 44
44 44 44
44 44 44
32 32 32

32 32 32
200 0 0
200 0 0
200 0 0
200 0 0
164 0 0
164 0 0
164 0 0
164 0 0
164 0 0
164 0 0
164 0 0
136 0 0
44 44 44
44 44 44
56 56 56
188 0 0
188 0 0
188 0 0
188 0 0
176 0 0
176 0 0
176 0 0
176 0 0
164 0 0
164 0 0
164 0 0
164 0 0
152 0 0
152 0 0
152 0 0
152 0 0
152 0 0
152 0 0
152 0 0
152 0 0
136 0 0
44 44 44
32 32 32
56 56 56
200 0 0
200 0 0
200 0 0
200 0 0
176 0 0
176 0 0
176 0 0
176 0 0
176 0 0
164 0 0
164 0 0
164 0 0
164 0 0
164 0 0
164 0 0
164 0 0
152 0 0
152 0 0
152 0 0
152 0 0
152 0 0
152 0 0
136 0 0
44 44 44

44 44 44
200 0 0
176 0 0
152 0 0
152 0 0
188 0 0
112 0 0
136 0 0
188 0 0
112 0 0
176 0 0
136 0 0
76 0 0
32 32 32
44 44 44
56 56 56
188 0 0
164 0 0
112 0 0
164 0 0
112 0 0
164 0 0
112 0 0
164 0 0
100 0 0
164 0 0
124 0 0
164 0 0
124 0 0
164 0 0
100 0 0
164 0 0
100 0 0
164 0 0
176 0 0
136 0 0
88 0 0
32 32 32
44 44 44
32 32 32
200 0 0
136 0 0
176 0 0
152 0 0
176 0 0
152 0 0
152 0 0
176 0 0
88 0 0
176 0 0
100 0 0
176 0 0
152 0 0
176 0 0
112 0 0
152 0 0
136 0 0
100 0 0
176 0 0
124 0 0
176 0 0
136 0 0
100 0 0
32 32 32

44 44 44
176 0 0
136 0 0
100 0 0
136 0 0
112 0 0
136 0 0
124 0 0
88 0 0
136 0 0
112 0 0
88 0 0
76 0 0
32 32 32
44 44 44
56 56 56
188 0 0
164 0 0
112 0 0
112 0 0
136 0 0
112 0 0
88 0 0
136 0 0
136 0 0
88 0 0
124 0 0
136 0 0
136 0 0
88 0 0
124 0 0
136 0 0
88 0 0
136 0 0
124 0 0
88 0 0
76 0 0
32 32 32
44 44 44
56 56 56
200 0 0
136 0 0
136 0 0
100 0 0
76 0 0
136 0 0
112 0 0
88 0 0
112 0 0
136 0 0
100 0 0
112 0 0
136 0 0
136 0 0
112 0 0
136 0 0
100 0 0
112 0 0
136 0 0
76 0 0
136 0 0
88 0 0
76 0 0
32 32 32

44 44 44
176 0 0
100 0 0
136 0 0
136 0 0
88 0 0
124 0 0
136 0 0
136 0 0
88 0 0
136 0 0
76 0 0
76 0 0
32 32 32
44 44 44
56 56 56
176 0 0
112 0 0
164 0 0
136 0 0
112 0 0
136 0 0
88 0 0
136 0 0
112 0 0
136 0 0
88 0 0
136 0 0
88 0 0
112 0 0
100 0 0
136 0 0
88 0 0
124 0 0
100 0 0
88 0 0
76 0 0
32 32 32
44 44 44
44 44 44
200 0 0
88 0 0
136 0 0
76 0 0
112 0 0
136 0 0
76 0 0
136 0 0
88 0 0
136 0 0
100 0 0
136 0 0
112 0 0
136 0 0
76 0 0
136 0 0
124 0 0
100 0 0
136 0 0
100 0 0
136 0 0
88 0 0
76 0 0
32 32 32

44 44 44
176 0 0
136 0 0
100 0 0
112 0 0
124 0 0
100 0 0
136 0 0
88 0 0
112 0 0
136 0 0
88 0 0
76 0 0
32 32 32
44 44 44
56 56 56
164 0 0
164 0 0
112 0 0
136 0 0
112 0 0
112 0 0
124 0 0
136 0 0
88 0 0
64 64 0
88 84 0
132 132 0
132 132 0
132 132 0
132 132 0
112 108 0
88 84 0
112 108 0
132 132 0
132 132 0
132 132 0
132 132 0
132 132 0
64 64 0
164 0 0
88 0 0
136 0 0
100 0 0
136 0 0
112 0 0
76 0 0
136 0 0
88 0 0
88 0 0
136 0 0
136 0 0
88 0 0
136 0 0
112 0 0
136 0 0
136 0 0
100 0 0
136 0 0
76 0 0
136 0 0
112 0 0
76 0 0
32 32 32

44 44 44
124 0 0
100 0 0
136 0 0
136 0 0
88 0 0
136 0 0
124 0 0
88 0 0
124 0 0
88 0 0
76 0 0
76 0 0
32 32 32
44 44 44
44 44 44
176 0 0
176 0 0
112 0 0
136 0 0
88 0 0
136 0 0
88 0 0
88 84 0
88 84 0
64 64 0
64 64 0
112 108 0
132 132 0
132 132 0
112 108 0
88 84 0
156 156 0
156 156 0
156 156 0
156 156 0
156 156 0
156 156 0
156 156 0
112 108 0
88 84 0
88 84 0
136 0 0
76 0 0
112 0 0
136 0 0
100 0 0
112 0 0
88 0 0
112 0 0
100 0 0
136 0 0
112 0 0
136 0 0
76 0 0
136 0 0
100 0 0
112 0 0
136 0 0
100 0 0
136 0 0
88 0 0
76 0 0
32 32 32

44 44 44
124 0 0
136 0 0
88 0 0
112 0 0
76 0 0
88 0 0
100 0 0
76 0 0
88 0 0
112 0 0
88 0 0
76 0 0
32 32 32
32 32 32
56 56 56
124 0 0
124 0 0
88 0 0
88 0 0
76 0 0
64 64 0
64 64 0
88 84 0
88 84 0
64 64 0
64 64 0
64 64 0
112 108 0
112 108 0
64 64 0
132 132 0
132 132 0
132 132 0
132 132 0
132 132 0
132 132 0
64 64 0
64 64 0
64 64 0
88 84 0
88 84 0
64 64 0
64 64 0
88 0 0
88 0 0
76 0 0
112 0 0
76 0 0
88 0 0
76 0 0
112 0 0
76 0 0
88 0 0
76 0 0
112 0 0
76 0 0
76 0 0
88 0 0
112 0 0
88 0 0
112 0 0
76 0 0
32 32 32

44 44 44
100 0 0
76 0 0
76 0 0
76 0 0
76 0 0
76 0 0
76 0 0
76 0 0
76 0 0
76 0 0
76 0 0
76 0 0
32 32 32
32 32 32
44 44 44
100 0 0
76 0 0
76 0 0
64 64 0
88 84 0
88 84 0
64 64 0
64 64 0
64 64 0
64 64 0
156 156 0
64 64 0
64 64 0
112 108 0
64 64 0
112 108 0
112 108 0
112 108 0
112 108 0
112 108 0
156 156 0
132 132 0
156 156 0
64 64 0
64 64 0
64 64 0
64 64 0
88 84 0
88 84 0
64 64 0
76 0 0
76 0 0
76 0 0
76 0 0
76 0 0
88 0 0
76 0 0
76 0 0
76 0 0
76 0 0
76 0 0
76 0 0
76 0 0
88 0 0
76 0 0
76 0 0
76 0 0
32 32 32

44 44 44
44 44 44
32 32 32
32 32 32
32 32 32
32 32 32
32 32 32
32 32 32
32 32 32
32 32 32
32 32 32
32 32 32
32 32 32
32 32 32
32 32 32
56 56 56
44 44 44
32 32 32
64 64 0
64 64 0
88 84 0
88 84 0
132 132 0
156 156 0
156 156 0
156 156 0
156 156 0
132 132 0
64 64 0
72 56 24
88 84 0
88 84 0
88 84 0
88 84 0
88 84 0
112 108 0
88 84 0
132 132 0
132 132 0
88 84 0
156 156 0
156 156 0
64 64 0
88 84 0
88 84 0
64 64 0
64 64 0
32 32 32
32 32 32
32 32 32
32 32 32
32 32 32
32 32 32
32 32 32
32 32 32
32 32 32
32 32 32
32 32 32
32 32 32
32 32 32
32 32 32
32 32 32
32 32 32
32 32 32

56 56 56
32 32 32
32 32 32
32 32 32
32 32 32
44 44 44
44 44 44
44 44 44
44 44 44
32 32 32
32 32 32
32 32 32
32 32 32
32 32 32
44 44 44
32 32 32
44 44 44
64 64 0
64 64 0
64 64 0
64 64 0
64 64 0
156 156 0
156 156 0
204 196 0
204 196 0
64 64 0
64 64 0
72 56 24
72 56 24
72 56 24
72 56 24
72 56 24
72 56 24
72 56 24
72 56 24
88 84 0
64 64 0
64 64 0
204 196 0
204 196 0
112 108 0
156 156 0
64 64 0
64 64 0
64 64 0
64 64 0
64 64 0
72 72 72
56 56 56
56 56 56
44 44 44
44 44 44
32 32 32
32 32 32
32 32 32
56 56 56
32 32 32
56 56 56
44 44 44
44 44 44
44 44 44
56 56 56
32 32 32

176 0 0
176 0 0
176 0 0
164 0 0
164 0 0
164 0 0
164 0 0
164 0 0
164 0 0
164 0 0
164 0 0
164 0 0
164 0 0
164 0 0
164 0 0
136 0 0
64 64 0
88 84 0
88 84 0
64 64 0
132 132 0
156 156 0
156 156 0
132 132 0
64 64 0
64 64 0
64 64 0
132 132 0
64 48 24
72 56 24
64 64 0
64 64 0
64 64 0
64 64 0
64 64 0
64 64 0
132 132 0
132 132 0
64 64 0
64 64 0
64 64 0
132 132 0
88 84 0
156 156 0
156 156 0
64 64 0
88 84 0
88 84 0
64 64 0
64 0 0
64 0 0
100 0 0
136 0 0
44 44 44
32 32 32
56 56 56
188 0 0
188 0 0
176 0 0
176 0 0
176 0 0
176 0 0
176 0 0
176 0 0

152 0 0
112 0 0
112 0 0
152 0 0
124 0 0
100 0 0
152 0 0
100 0 0
124 0 0
112 0 0
152 0 0
76 0 0
152 0 0
112 0 0
136 0 0
88 84 0
88 84 0
64 64 0
88 84 0
64 64 0
132 132 0
204 196 0
204 196 0
64 64 0
88 84 0
88 84 0
112 108 0
64 64 0
64 48 24
56 44 20
56 44 20
56 44 20
56 44 20
56 44 20
56 44 20
88 84 0
64 64 0
64 64 0
112 108 0
88 84 0
88 84 0
64 64 0
204 196 0
204 196 0
156 156 0
64 64 0
88 84 0
64 64 0
88 84 0
88 84 0
64 0 0
64 0 0
76 0 0
32 32 32
44 44 44
32 32 32
188 0 0
176 0 0
100 0 0
152 0 0
112 0 0
152 0 0
112 0 0
152 0 0

112 0 0
136 0 0
112 0 0
136 0 0
100 0 0
112 0 0
112 0 0
76 0 0
136 0 0
112 0 0
76 0 0
112 0 0
136 0 0
136 0 0
64 64 0
88 84 0
88 84 0
64 64 0
64 64 0
64 64 0
112 108 0
64 64 0
64 64 0
64 64 0
64 64 0
132 132 0
132 132 0
64 64 0
56 44 20
40 32 12
40 32 12
40 32 12
40 32 12
40 32 12
40 32 12
88 84 0
88 84 0
64 64 0
132 132 0
132 132 0
64 64 0
64 64 0
64 64 0
64 64 0
112 108 0
64 64 0
64 64 0
64 64 0
88 84 0
88 84 0
64 64 0
64 0 0
76 0 0
32 32 32
44 44 44
56 56 56
188 0 0
152 0 0
100 0 0
136 0 0
112 0 0
100 0 0
136 0 0
124 0 0

88 0 0
136 0 0
136 0 0
112 0 0
124 0 0
76 0 0
136 0 0
100 0 0
112 0 0
112 0 0
124 0 0
76 0 0
136 0 0
64 64 0
64 64 0
64 64 0
64 64 0
64 64 0
132 132 0
64 64 0
64 64 0
64 64 0
88 84 0
64 64 0
64 64 0
64 64 0
64 64 0
64 64 0
56 44 20
40 32 12
40 32 12
0 0 0
0 0 0
0 0 0
0 0 0
56 44 20
64 64 0
64 64 0
64 64 0
64 64 0
64 64 0
64 64 0
88 84 0
64 64 0
64 64 0
64 64 0
132 132 0
64 64 0
64 64 0
64 64 0
64 64 0
64 64 0
64 0 0
32 32 32
32 32 32
44 44 44
176 0 0
100 0 0
136 0 0
136 0 0
136 0 0
100 0 0
136 0 0
100 0 0

136 0 0
112 0 0
112 0 0
136 0 0
112 0 0
100 0 0
100 0 0
112 0 0
100 0 0
136 0 0
124 0 0
76 0 0
88 84 0
88 84 0
64 64 0
132 132 0
132 132 0
132 132 0
156 156 0
156 156 0
64 64 0
64 64 0
132 132 0
132 132 0
64 64 0
88 84 0
64 64 0
56 44 20
0 0 0
0 0 0
28 28 28
28 28 28
64 64 0
28 28 28
28 28 28
28 28 28
28 28 28
28 28 28
88 84 0
88 84 0
64 64 0
132 132 0
132 132 0
64 64 0
64 64 0
156 156 0
64 64 0
132 132 0
64 64 0
64 64 0
64 64 0
88 84 0
88 84 0
0 0 0
32 32 32
44 44 44
176 0 0
152 0 0
100 0 0
136 0 0
100 0 0
136 0 0
124 0 0
100 0 0

88 0 0
136 0 0
76 0 0
136 0 0
88 0 0
112 0 0
100 0 0
124 0 0
76 0 0
136 0 0
76 0 0
112 0 0
88 84 0
88 84 0
64 64 0
132 132 0
156 156 0
156 156 0
64 64 0
32 32 32
64 64 0
64 64 0
64 64 0
64 64 0
64 64 0
64 64 0
56 44 20
0 0 0
0 0 0
28 28 28
28 28 28
64 64 0
112 108 0
112 108 0
28 28 28
28 28 28
28 28 28
28 28 28
56 44 20
64 64 0
64 64 0
64 64 0
64 64 0
64 64 0
64 64 0
32 32 32
156 156 0
64 64 0
156 156 0
156 156 0
64 64 0
88 84 0
88 84 0
0 0 0
0 0 0
32 32 32
152 0 0
100 0 0
136 0 0
136 0 0
76 0 0
136 0 0
100 0 0
112 0 0

88 0 0
152 0 0
76 0 0
88 0 0
76 0 0
100 0 0
88 0 0
124 0 0
88 0 0
124 0 0
88 0 0
32 32 32
32 32 32
32 32 32
64 64 0
112 108 0
156 156 0
64 64 0
156 156 0
88 84 0
64 64 0
88 84 0
88 84 0
64 64 0
64 64 0
0 0 0
0 0 0
0 0 0
28 28 28
28 28 28
64 64 0
112 108 0
112 108 0
112 108 0
156 156 0
28 28 28
28 28 28
32 32 32
32 32 32
32 32 32
64 64 0
64 64 0
88 84 0
88 84 0
64 64 0
88 84 0
156 156 0
156 156 0
64 64 0
156 156 0
64 64 0
32 32 32
32 32 32
32 32 32
0 0 0
32 32 32
152 0 0
136 0 0
100 0 0
88 0 0
76 0 0
88 0 0
124 0 0
88 0 0

76 0 0
88 0 0
76 0 0
76 0 0
76 0 0
76 0 0
76 0 0
76 0 0
76 0 0
76 0 0
76 0 0
64 64 0
32 32 32
156 156 0
132 132 0
156 156 0
112 108 0
88 84 0
64 64 0
32 32 32
64 64 0
64 64 0
88 84 0
64 64 0
0 0 0
0 0 0
0 0 0
28 28 28
28 28 28
64 64 0
112 108 0
112 108 0
112 108 0
112 108 0
112 108 0
156 156 0
32 32 32
32 32 32
32 32 32
32 32 32
32 32 32
88 84 0
88 84 0
64 64 0
64 64 0
32 32 32
64 64 0
88 84 0
156 156 0
64 64 0
156 156 0
156 156 0
32 32 32
64 64 0
0 0 0
0 0 0
136 0 0
76 0 0
76 0 0
76 0 0
76 0 0
76 0 0
76 0 0
76 0 0

32 32 32
32 32 32
32 32 32
32 32 32
32 32 32
32 32 32
32 32 32
32 32 32
32 32 32
32 32 32
88 84 0
88 84 0
64 64 0
132 132 0
132 132 0
156 156 0
64 64 0
112 108 0
156 156 0
64 64 0
88 84 0
64 64 0
64 64 0
0 0 0
0 0 0
0 0 0
28 28 28
28 28 28
64 64 0
112 108 0
112 108 0
112 108 0
112 108 0
112 108 0
64 64 0
0 0 0
32 32 32
32 32 32
32 32 32
32 32 32
32 32 32
32 32 32
64 64 0
64 64 0
88 84 0
64 64 0
156 156 0
156 156 0
132 132 0
64 64 0
88 84 0
132 132 0
64 64 0
88 84 0
88 84 0
0 0 0
0 0 0
0 0 0
0 0 0
0 0 0
0 0 0
32 32 32
32 32 32
32 32 32

56 56 56
56 56 56
44 44 44
32 32 32
32 32 32
44 44 44
56 56 56
32 32 32
56 56 56
32 32 32
88 84 0
88 84 0
64 64 0
64 64 0
156 156 0
156 156 0
64 64 0
88 84 0
132 132 0
64 64 0
64 64 0
88 84 0
0 0 0
0 0 0
0 0 0
28 28 28
28 28 28
64 64 0
112 108 0
112 108 0
112 108 0
112 108 0
112 108 0
64 64 0
0 0 0
0 0 0
32 32 32
32 32 32
32 32 32
32 32 32
32 32 32
32 32 32
32 32 32
88 84 0
64 64 0
64 64 0
132 132 0
88 84 0
88 84 0
132 132 0
64 64 0
64 64 0
64 64 0
88 84 0
88 84 0
0 0 0
0 0 0
0 0 0
32 32 32
32 32 32
56 56 56
44 44 44
44 44 44
44 44 44

56 56 56
188 0 0
188 0 0
188 0 0
176 0 0
176 0 0
164 0 0
164 0 0
164 0 0
164 0 0
64 64 0
64 64 0
156 156 0
156 156 0
156 156 0
112 108 0
112 108 0
64 64 0
64 64 0
88 84 0
64 64 0
0 0 0
0 0 0
0 0 0
28 28 28
28 28 28
64 64 0
112 108 0
112 108 0
112 108 0
112 108 0
112 108 0
64 64 0
0 0 0
0 0 0
32 32 32
32 32 32
156 156 0
156 156 0
32 32 32
32 32 32
32 32 32
32 32 32
32 32 32
64 64 0
88 84 0
64 64 0
64 64 0
156 156 0
156 156 0
64 64 0
156 156 0
156 156 0
64 64 0
64 64 0
64 0 0
76 0 0
100 0 0
152 0 0
152 0 0
152 0 0
152 0 0
136 0 0
44 44 44

56 56 56
176 0 0
112 0 0
152 0 0
164 0 0
100 0 0
164 0 0
100 0 0
164 0 0
64 64 0
64 64 0
64 64 0
156 156 0
112 108 0
156 156 0
64 64 0
112 108 0
156 156 0
64 64 0
88 84 0
64 64 0
0 0 0
0 0 0
28 28 28
28 28 28
64 64 0
112 108 0
112 108 0
112 108 0
112 108 0
112 108 0
64 64 0
0 0 0
0 0 0
32 32 32
32 32 32
156 156 0
112 108 0
112 108 0
156 156 0
32 32 32
32 32 32
32 32 32
32 32 32
88 84 0
88 84 0
64 64 0
156 156 0
156 156 0
132 132 0
156 156 0
88 84 0
156 156 0
64 64 0
64 64 0
64 64 0
64 0 0
64 0 0
64 0 0
136 0 0
76 0 0
136 0 0
76 0 0
32 32 32

32 32 32
176 0 0
152 0 0
112 0 0
136 0 0
124 0 0
136 0 0
100 0 0
88 0 0
88 84 0
64 64 0
64 64 0
112 108 0
132 132 0
156 156 0
64 64 0
112 108 0
132 132 0
64 64 0
64 64 0
32 32 32
0 0 0
28 28 28
28 28 28
64 64 0
112 108 0
112 108 0
112 108 0
112 108 0
112 108 0
64 64 0
0 0 0
0 0 0
32 32 32
32 32 32
156 156 0
112 108 0
112 108 0
112 108 0
112 108 0
156 156 0
32 32 32
32 32 32
32 32 32
32 32 32
64 64 0
64 64 0
132 132 0
112 108 0
112 108 0
156 156 0
64 64 0
112 108 0
64 64 0
64 64 0
88 84 0
28 28 28
64 0 0
64 0 0
136 0 0
100 0 0
88 0 0
76 0 0
32 32 32

44 44 44
176 0 0
76 0 0
136 0 0
136 0 0
88 0 0
112 0 0
76 0 0
136 0 0
88 84 0
88 84 0
64 64 0
64 64 0
64 64 0
64 64 0
112 108 0
112 108 0
32 32 32
64 64 0
64 64 0
0 0 0
0 0 0
28 28 28
28 28 28
64 64 0
88 84 0
112 108 0
112 108 0
112 108 0
112 108 0
112 108 0
132 132 0
64 64 0
32 32 32
156 156 0
112 108 0
112 108 0
112 108 0
112 108 0
112 108 0
112 108 0
156 156 0
32 32 32
32 32 32
32 32 32
64 64 0
64 64 0
32 32 32
112 108 0
112 108 0
64 64 0
64 64 0
64 64 0
64 64 0
88 84 0
88 84 0
28 28 28
64 0 0
64 0 0
64 0 0
76 0 0
88 0 0
76 0 0
32 32 32

44 44 44
176 0 0
152 0 0
112 0 0
136 0 0
76 0 0
136 0 0
76 0 0
88 0 0
88 84 0
64 64 0
64 64 0
32 32 32
64 64 0
64 64 0
64 64 0
32 32 32
88 84 0
88 84 0
64 64 0
0 0 0
28 28 28
28 28 28
28 28 28
28 28 28
64 64 0
88 84 0
112 108 0
112 108 0
112 108 0
112 108 0
112 108 0
132 132 0
156 156 0
112 108 0
112 108 0
112 108 0
112 108 0
112 108 0
112 108 0
112 108 0
112 108 0
156 156 0
32 32 32
32 32 32
64 64 0
88 84 0
88 84 0
32 32 32
64 64 0
64 64 0
64 64 0
32 32 32
64 64 0
64 64 0
88 84 0
28 28 28
64 0 0
64 0 0
64 0 0
100 0 0
88 0 0
76 0 0
32 32 32

56 56 56
176 0 0
88 0 0
76 0 0
136 0 0
76 0 0
112 0 0
100 0 0
136 0 0
88 84 0
64 64 0
64 64 0
64 64 0
156 156 0
156 156 0
32 32 32
88 84 0
88 84 0
88 84 0
32 32 32
32 32 32
64 64 0
112 108 0
32 32 32
28 28 28
32 32 32
64 64 0
88 84 0
112 108 0
112 108 0
112 108 0
112 108 0
112 108 0
112 108 0
112 108 0
112 108 0
112 108 0
64 64 0
112 108 0
112 108 0
112 108 0
112 108 0
112 108 0
156 156 0
32 32 32
32 32 32
88 84 0
88 84 0
88 84 0
32 32 32
156 156 0
156 156 0
64 64 0
64 64 0
64 64 0
88 84 0
28 28 28
64 0 0
28 28 28
64 0 0
112 0 0
88 0 0
76 0 0
32 32 32

44 44 44
176 0 0
136 0 0
76 0 0
88 0 0
88 0 0
88 0 0
76 0 0
88 0 0
64 64 0
64 64 0
64 64 0
64 64 0
156 156 0
88 84 0
64 64 0
64 64 0
64 64 0
64 64 0
32 32 32
64 64 0
112 108 0
112 108 0
156 156 0
32 32 32
32 32 32
32 32 32
64 64 0
88 84 0
112 108 0
112 108 0
112 108 0
112 108 0
112 108 0
112 108 0
112 108 0
64 64 0
0 0 0
64 64 0
112 108 0
112 108 0
112 108 0
112 108 0
112 108 0
156 156 0
32 32 32
64 64 0
64 64 0
64 64 0
64 64 0
112 108 0
132 132 0
64 64 0
64 64 0
64 64 0
64 64 0
28 28 28
64 0 0
64 0 0
64 0 0
88 0 0
88 0 0
76 0 0
32 32 32

44 44 44
136 0 0
124 0 0
76 0 0
76 0 0
76 0 0
76 0 0
76 0 0
76 0 0
64 64 0
64 64 0
112 108 0
112 108 0
156 156 0
64 64 0
156 156 0
156 156 0
64 64 0
64 64 0
64 64 0
112 108 0
112 108 0
112 108 0
112 108 0
156 156 0
32 32 32
32 32 32
32 32 32
64 64 0
88 84 0
112 108 0
112 108 0
112 108 0
112 108 0
112 108 0
64 64 0
0 0 0
0 0 0
0 0 0
64 64 0
112 108 0
112 108 0
112 108 0
112 108 0
112 108 0
64 64 0
64 64 0
64 64 0
156 156 0
156 156 0
132 132 0
88 84 0
156 156 0
156 156 0
64 64 0
64 64 0
28 28 28
28 28 28
28 28 28
64 0 0
76 0 0
76 0 0
76 0 0
32 32 32

44 44 44
44 44 44
32 32 32
32 32 32
32 32 32
32 32 32
32 32 32
32 32 32
32 32 32
64 64 0
64 64 0
132 132 0
156 156 0
156 156 0
64 64 0
132 132 0
88 84 0
64 64 0
88 84 0
0 0 0
64 64 0
112 108 0
112 108 0
112 108 0
112 108 0
156 156 0
32 32 32
32 32 32
32 32 32
112 108 0
112 108 0
112 108 0
112 108 0
112 108 0
112 108 0
112 108 0
156 156 0
32 32 32
32 32 32
0 0 0
64 64 0
112 108 0
112 108 0
112 108 0
64 64 0
0 0 0
88 84 0
64 64 0
88 84 0
112 108 0
132 132 0
88 84 0
88 84 0
132 132 0
64 64 0
64 64 0
0 0 0
0 0 0
0 0 0
0 0 0
0 0 0
32 32 32
32 32 32
32 32 32

56 56 56
56 56 56
56 56 56
56 56 56
56 56 56
44 44 44
44 44 44
32 32 32
44 44 44
64 64 0
32 32 32
112 108 0
156 156 0
156 156 0
64 64 0
112 108 0
64 64 0
64 64 0
88 84 0
32 32 32
0 0 0
64 64 0
112 108 0
112 108 0
112 108 0
112 108 0
156 156 0
32 32 32
156 156 0
112 108 0
112 108 0
112 108 0
112 108 0
112 108 0
112 108 0
112 108 0
112 108 0
156 156 0
32 32 32
32 32 32
0 0 0
64 64 0
112 108 0
64 64 0
0 0 0
0 0 0
88 84 0
64 64 0
64 64 0
88 84 0
156 156 0
64 64 0
88 84 0
64 64 0
32 32 32
64 64 0
0 0 0
0 0 0
28 28 28
28 28 28
32 32 32
44 44 44
56 56 56
32 32 32

164 0 0
164 0 0
164 0 0
152 0 0
152 0 0
152 0 0
152 0 0
152 0 0
152 0 0
88 84 0
64 64 0
32 32 32
64 64 0
132 132 0
112 108 0
88 84 0
156 156 0
132 132 0
64 64 0
64 64 0
32 32 32
0 0 0
64 64 0
112 108 0
112 108 0
112 108 0
112 108 0
156 156 0
112 108 0
112 108 0
112 108 0
112 108 0
64 64 0
112 108 0
112 108 0
112 108 0
112 108 0
112 108 0
156 156 0
32 32 32
32 32 32
0 0 0
64 64 0
0 0 0
0 0 0
64 64 0
64 64 0
64 64 0
156 156 0
156 156 0
156 156 0
64 64 0
64 64 0
32 32 32
64 64 0
88 84 0
64 0 0
64 0 0
76 0 0
88 0 0
100 0 0
164 0 0
164 0 0
164 0 0

136 0 0
152 0 0
136 0 0
152 0 0
124 0 0
176 0 0
152 0 0
152 0 0
176 0 0
88 84 0
88 84 0
64 64 0
112 108 0
132 132 0
156 156 0
64 64 0
132 132 0
132 132 0
88 84 0
64 64 0
32 32 32
32 32 32
0 0 0
64 64 0
112 108 0
112 108 0
112 108 0
112 108 0
112 108 0
112 108 0
112 108 0
64 64 0
0 0 0
64 64 0
112 108 0
112 108 0
112 108 0
112 108 0
112 108 0
156 156 0
32 32 32
32 32 32
0 0 0
0 0 0
32 32 32
88 84 0
88 84 0
64 64 0
112 108 0
112 108 0
156 156 0
64 64 0
156 156 0
64 64 0
88 84 0
88 84 0
28 28 28
64 0 0
64 0 0
64 0 0
64 0 0
136 0 0
88 0 0
136 0 0

136 0 0
100 0 0
112 0 0
136 0 0
124 0 0
136 0 0
100 0 0
136 0 0
112 0 0
64 64 0
64 64 0
64 64 0
132 132 0
156 156 0
132 132 0
64 64 0
132 132 0
64 64 0
64 64 0
64 64 0
32 32 32
32 32 32
32 32 32
0 0 0
64 64 0
112 108 0
112 108 0
112 108 0
112 108 0
112 108 0
64 64 0
0 0 0
0 0 0
32 32 32
112 108 0
112 108 0
112 108 0
112 108 0
112 108 0
112 108 0
112 108 0
32 32 32
32 32 32
32 32 32
32 32 32
64 64 0
64 64 0
64 64 0
64 64 0
112 108 0
132 132 0
64 64 0
132 132 0
64 64 0
64 64 0
64 64 0
28 28 28
28 28 28
64 0 0
64 0 0
64 0 0
124 0 0
112 0 0
88 0 0

112 0 0
100 0 0
136 0 0
124 0 0
100 0 0
136 0 0
100 0 0
124 0 0
136 0 0
88 0 0
64 64 0
32 32 32
112 108 0
156 156 0
156 156 0
112 108 0
88 84 0
132 132 0
132 132 0
64 64 0
64 64 0
32 32 32
32 32 32
32 32 32
0 0 0
64 64 0
112 108 0
112 108 0
112 108 0
64 64 0
0 0 0
0 0 0
32 32 32
156 156 0
112 108 0
112 108 0
112 108 0
112 108 0
112 108 0
64 64 0
0 0 0
32 32 32
32 32 32
32 32 32
64 64 0
64 64 0
64 64 0
64 64 0
156 156 0
156 156 0
64 64 0
88 84 0
64 64 0
32 32 32
64 64 0
28 28 28
28 28 28
64 0 0
28 28 28
64 0 0
64 0 0
100 0 0
136 0 0
88 0 0

136 0 0
112 0 0
100 0 0
136 0 0
124 0 0
136 0 0
124 0 0
100 0 0
112 0 0
88 0 0
64 64 0
64 64 0
32 32 32
64 64 0
88 84 0
156 156 0
64 64 0
132 132 0
156 156 0
64 64 0
64 64 0
32 32 32
32 32 32
32 32 32
32 32 32
0 0 0
64 64 0
112 108 0
64 64 0
0 0 0
0 0 0
32 32 32
156 156 0
112 108 0
112 108 0
112 108 0
112 108 0
112 108 0
64 64 0
0 0 0
0 0 0
32 32 32
32 32 32
32 32 32
64 64 0
64 64 0
156 156 0
112 108 0
112 108 0
156 156 0
64 64 0
64 64 0
32 32 32
64 64 0
64 64 0
28 28 28
28 28 28
28 28 28
64 0 0
64 0 0
64 0 0
100 0 0
88 0 0
112 0 0

136 0 0
112 0 0
100 0 0
136 0 0
100 0 0
136 0 0
100 0 0
124 0 0
136 0 0
88 0 0
112 108 0
64 64 0
64 64 0
112 108 0
156 156 0
156 156 0
112 108 0
88 84 0
88 84 0
64 64 0
88 84 0
64 64 0
32 32 32
32 32 32
32 32 32
32 32 32
0 0 0
64 64 0
0 0 0
0 0 0
32 32 32
156 156 0
112 108 0
112 108 0
112 108 0
112 108 0
112 108 0
64 64 0
0 0 0
0 0 0
32 32 32
32 32 32
32 32 32
64 64 0
88 84 0
64 64 0
88 84 0
156 156 0
132 132 0
64 64 0
156 156 0
156 156 0
64 64 0
64 64 0
112 108 0
28 28 28
64 0 0
28 28 28
64 0 0
64 0 0
100 0 0
112 0 0
136 0 0
88 0 0

88 0 0
88 0 0
112 0 0
124 0 0
88 0 0
88 0 0
124 0 0
88 0 0
88 0 0
88 0 0
64 64 0
64 64 0
64 64 0
132 132 0
132 132 0
156 156 0
64 64 0
64 64 0
32 32 32
32 32 32
64 64 0
64 64 0
64 64 0
32 32 32
32 32 32
32 32 32
32 32 32
0 0 0
0 0 0
32 32 32
156 156 0
112 108 0
112 108 0
112 108 0
112 108 0
112 108 0
64 64 0
0 0 0
0 0 0
32 32 32
32 32 32
32 32 32
64 64 0
88 84 0
88 84 0
32 32 32
32 32 32
64 64 0
64 64 0
64 64 0
112 108 0
132 132 0
64 64 0
64 64 0
64 64 0
28 28 28
64 0 0
28 28 28
64 0 0
64 0 0
100 0 0
136 0 0
136 0 0
88 0 0

76 0 0
76 0 0
76 0 0
76 0 0
76 0 0
76 0 0
76 0 0
76 0 0
76 0 0
76 0 0
76 0 0
64 64 0
32 32 32
64 64 0
156 156 0
88 84 0
64 64 0
64 64 0
64 64 0
64 64 0
64 64 0
64 64 0
88 84 0
88 84 0
32 32 32
32 32 32
32 32 32
32 32 32
32 32 32
112 108 0
112 108 0
112 108 0
112 108 0
112 108 0
112 108 0
64 64 0
0 0 0
0 0 0
32 32 32
32 32 32
32 32 32
64 64 0
88 84 0
64 64 0
64 64 0
64 64 0
64 64 0
64 64 0
64 64 0
88 84 0
156 156 0
64 64 0
32 32 32
64 64 0
28 28 28
28 28 28
28 28 28
28 28 28
28 28 28
64 0 0
76 0 0
76 0 0
76 0 0
76 0 0

32 32 32
32 32 32
32 32 32
32 32 32
32 32 32
32 32 32
32 32 32
32 32 32
32 32 32
32 32 32
32 32 32
64 64 0
64 64 0
32 32 32
64 64 0
64 64 0
32 32 32
156 156 0
88 84 0
64 64 0
156 156 0
156 156 0
64 64 0
64 64 0
64 64 0
32 32 32
32 32 32
32 32 32
32 32 32
0 0 0
64 64 0
112 108 0
112 108 0
112 108 0
64 64 0
0 0 0
0 0 0
32 32 32
32 32 32
32 32 32
64 64 0
64 64 0
64 64 0
132 132 0
132 132 0
64 64 0
88 84 0
156 156 0
32 32 32
64 64 0
64 64 0
32 32 32
64 64 0
64 64 0
0 0 0
0 0 0
0 0 0
0 0 0
0 0 0
28 28 28
28 28 28
32 32 32
32 32 32
32 32 32

56 56 56
44 44 44
56 56 56
32 32 32
44 44 44
32 32 32
32 32 32
44 44 44
44 44 44
32 32 32
32 32 32
32 32 32
64 64 0
64 64 0
64 64 0
64 64 0
64 64 0
64 64 0
156 156 0
156 156 0
156 156 0
132 132 0
64 64 0
64 64 0
64 64 0
112 108 0
44 44 44
32 32 32
32 32 32
32 32 32
0 0 0
64 64 0
112 108 0
64 64 0
0 0 0
0 0 0
32 32 32
32 32 32
64 64 0
88 84 0
64 64 0
64 64 0
64 64 0
132 132 0
156 156 0
132 132 0
156 156 0
64 64 0
64 64 0
64 64 0
64 64 0
64 64 0
64 64 0
0 0 0
0 0 0
0 0 0
28 28 28
28 28 28
28 28 28
32 32 32
56 56 56
32 32 32
56 56 56
32 32 32

32 32 32
188 0 0
188 0 0
176 0 0
176 0 0
176 0 0
176 0 0
176 0 0
164 0 0
164 0 0
164 0 0
164 0 0
64 0 0
88 84 0
88 84 0
64 64 0
64 64 0
64 64 0
64 64 0
156 156 0
156 156 0
64 64 0
112 108 0
156 156 0
64 64 0
88 84 0
64 64 0
132 132 0
88 84 0
32 32 32
32 32 32
0 0 0
64 64 0
0 0 0
0 0 0
64 64 0
112 108 0
132 132 0
132 132 0
88 84 0
64 64 0
88 84 0
112 108 0
64 64 0
132 132 0
64 64 0
64 64 0
64 64 0
64 64 0
64 64 0
88 84 0
88 84 0
64 0 0
28 28 28
64 0 0
64 0 0
64 0 0
64 0 0
64 0 0
152 0 0
152 0 0
152 0 0
136 0 0
44 44 44

56 56 56
188 0 0
136 0 0
112 0 0
112 0 0
136 0 0
76 0 0
136 0 0
136 0 0
100 0 0
124 0 0
136 0 0
64 0 0
64 64 0
88 84 0
64 64 0
64 64 0
64 64 0
88 84 0
64 64 0
156 156 0
156 156 0
156 156 0
156 156 0
132 132 0
64 64 0
64 64 0
64 64 0
132 132 0
132 132 0
132 132 0
132 132 0
64 64 0
132 132 0
132 132 0
132 132 0
132 132 0
132 132 0
64 64 0
64 64 0
132 132 0
112 108 0
156 156 0
132 132 0
64 64 0
64 64 0
88 84 0
64 64 0
64 64 0
64 64 0
88 84 0
64 64 0
64 0 0
28 28 28
64 0 0
64 0 0
64 0 0
64 0 0
64 0 0
88 0 0
112 0 0
136 0 0
76 0 0
32 32 32

44 44 44
176 0 0
136 0 0
76 0 0
136 0 0
112 0 0
76 0 0
136 0 0
112 0 0
124 0 0
100 0 0
136 0 0
76 0 0
64 0 0
64 64 0
64 64 0
64 64 0
64 64 0
132 132 0
88 84 0
64 64 0
156 156 0
156 156 0
156 156 0
88 84 0
132 132 0
156 156 0
64 64 0
88 84 0
112 108 0
132 132 0
64 64 0
156 156 0
156 156 0
156 156 0
156 156 0
156 156 0
64 64 0
88 84 0
112 108 0
64 64 0
132 132 0
132 132 0
64 64 0
64 64 0
88 84 0
132 132 0
64 64 0
64 64 0
64 64 0
64 64 0
0 0 0
64 0 0
64 0 0
64 0 0
64 0 0
64 0 0
64 0 0
124 0 0
136 0 0
76 0 0
112 0 0
76 0 0
32 32 32

44 44 44
176 0 0
112 0 0
76 0 0
136 0 0
76 0 0
112 0 0
88 0 0
76 0 0
136 0 0
76 0 0
136 0 0
112 0 0
64 0 0
64 0 0
64 64 0
64 64 0
64 64 0
64 64 0
64 64 0
88 84 0
64 64 0
64 64 0
156 156 0
156 156 0
156 156 0
156 156 0
64 64 0
64 64 0
112 108 0
64 64 0
132 132 0
132 132 0
132 132 0
132 132 0
132 132 0
132 132 0
64 64 0
112 108 0
156 156 0
132 132 0
64 64 0
64 64 0
112 108 0
88 84 0
64 64 0
64 64 0
64 64 0
64 64 0
64 64 0
64 0 0
28 28 28
64 0 0
64 0 0
64 0 0
64 0 0
64 0 0
64 0 0
88 0 0
112 0 0
76 0 0
136 0 0
76 0 0
32 32 32

32 32 32
176 0 0
136 0 0
112 0 0
136 0 0
112 0 0
76 0 0
136 0 0
112 0 0
100 0 0
124 0 0
136 0 0
100 0 0
64 0 0
64 0 0
64 0 0
64 64 0
112 108 0
64 64 0
32 32 32
132 132 0
64 64 0
64 64 0
64 64 0
64 64 0
156 156 0
156 156 0
88 84 0
64 64 0
112 108 0
64 64 0
112 108 0
112 108 0
112 108 0
112 108 0
112 108 0
112 108 0
64 64 0
132 132 0
132 132 0
64 64 0
112 108 0
64 64 0
88 84 0
132 132 0
32 32 32
64 64 0
112 108 0
64 64 0
64 0 0
28 28 28
64 0 0
64 0 0
64 0 0
64 0 0
64 0 0
64 0 0
64 0 0
88 0 0
136 0 0
112 0 0
136 0 0
76 0 0
32 32 32

56 56 56
176 0 0
136 0 0
76 0 0
112 0 0
136 0 0
76 0 0
136 0 0
76 0 0
136 0 0
76 0 0
136 0 0
76 0 0
136 0 0
64 0 0
64 0 0
76 0 0
64 64 0
64 64 0
64 64 0
32 32 32
32 32 32
32 32 32
88 84 0
112 108 0
64 64 0
64 64 0
64 64 0
64 64 0
56 44 20
84 60 28
84 60 28
84 60 28
84 60 28
84 60 28
84 60 28
84 60 28
64 64 0
64 64 0
64 64 0
112 108 0
88 84 0
32 32 32
32 32 32
32 32 32
64 64 0
64 64 0
64 64 0
0 0 0
64 0 0
28 28 28
64 0 0
28 28 28
64 0 0
64 0 0
64 0 0
64 0 0
100 0 0
124 0 0
112 0 0
76 0 0
88 0 0
76 0 0
32 32 32

32 32 32
176 0 0
136 0 0
76 0 0
136 0 0
76 0 0
112 0 0
88 0 0
112 0 0
124 0 0
100 0 0
136 0 0
112 0 0
112 0 0
112 0 0
64 0 0
64 0 0
64 0 0
64 0 0
64 64 0
88 84 0
64 64 0
32 32 32
132 132 0
132 132 0
88 84 0
64 64 0
64 64 0
72 56 24
56 44 20
88 84 0
88 84 0
88 84 0
88 84 0
88 84 0
88 84 0
88 84 0
56 44 20
64 64 0
88 84 0
132 132 0
132 132 0
32 32 32
64 64 0
88 84 0
64 64 0
0 0 0
64 0 0
28 28 28
64 0 0
64 0 0
64 0 0
64 0 0
64 0 0
64 0 0
64 0 0
100 0 0
124 0 0
88 0 0
136 0 0
76 0 0
136 0 0
76 0 0
32 32 32

56 56 56
136 0 0
76 0 0
76 0 0
76 0 0
76 0 0
76 0 0
76 0 0
76 0 0
76 0 0
76 0 0
76 0 0
76 0 0
76 0 0
64 0 0
64 0 0
64 0 0
64 0 0
64 0 0
64 0 0
64 64 0
88 84 0
64 64 0
32 32 32
64 64 0
64 64 0
64 64 0
64 64 0
56 44 20
72 56 24
72 56 24
72 56 24
72 56 24
72 56 24
72 56 24
72 56 24
72 56 24
56 44 20
64 64 0
64 64 0
64 64 0
32 32 32
64 64 0
88 84 0
64 64 0
28 28 28
28 28 28
28 28 28
28 28 28
28 28 28
28 28 28
28 28 28
28 28 28
64 0 0
64 0 0
76 0 0
76 0 0
76 0 0
76 0 0
76 0 0
76 0 0
76 0 0
76 0 0
32 32 32

32 32 32
44 44 44
32 32 32
32 32 32
32 32 32
32 32 32
32 32 32
32 32 32
32 32 32
32 32 32
32 32 32
32 32 32
32 32 32
32 32 32
32 32 32
32 32 32
0 0 0
0 0 0
0 0 0
0 0 0
0 0 0
0 0 0
64 64 0
64 64 0
64 64 0
64 64 0
64 64 0
64 64 0
56 44 20
56 44 20
56 44 20
56 44 20
56 44 20
56 44 20
56 44 20
56 44 20
56 44 20
56 44 20
64 64 0
64 64 0
64 64 0
64 64 0
0 0 0
0 0 0
0 0 0
0 0 0
0 0 0
0 0 0
0 0 0
0 0 0
0 0 0
0 0 0
28 28 28
28 28 28
28 28 28
28 28 28
28 28 28
32 32 32
32 32 32
32 32 32
32 32 32
32 32 32
32 32 32
32 32 32

56 56 56
32 32 32
56 56 56
32 32 32
56 56 56
44 44 44
56 56 56
44 44 44
44 44 44
44 44 44
44 44 44
56 56 56
72 72 72
72 72 72
56 56 56
44 44 44
32 32 32
32 32 32
28 28 28
28 28 28
28 28 28
0 0 0
0 0 0
0 0 0
0 0 0
40 32 12
40 32 12
40 32 12
56 44 20
40 32 12
40 32 12
40 32 12
40 32 12
40 32 12
40 32 12
40 32 12
40 32 12
40 32 12
40 32 12
40 32 12
0 0 0
0 0 0
0 0 0
0 0 0
0 0 0
0 0 0
28 28 28
28 28 28
28 28 28
28 28 28
28 28 28
32 32 32
44 44 44
44 44 44
32 32 32
32 32 32
32 32 32
32 32 32
32 32 32
32 32 32
44 44 44
44 44 44
56 56 56
44 44 44

164 0 0
164 0 0
164 0 0
164 0 0
164 0 0
164 0 0
152 0 0
152 0 0
152 0 0
152 0 0
152 0 0
152 0 0
152 0 0
152 0 0
152 0 0
152 0 0
152 0 0
136 0 0
32 32 32
28 28 28
28 28 28
76 0 0
64 0 0
28 28 28
64 0 0
28 28 28
0 0 0
0 0 0
40 32 12
40 32 12
40 32 12
40 32 12
40 32 12
40 32 12
40 32 12
40 32 12
40 32 12
40 32 12
40 32 12
0 0 0
0 0 0
28 28 28
64 0 0
64 0 0
64 0 0
64 0 0
64 0 0
28 28 28
28 28 28
32 32 32
188 0 0
188 0 0
188 0 0
188 0 0
176 0 0
176 0 0
176 0 0
164 0 0
164 0 0
164 0 0
164 0 0
164 0 0
164 0 0
164 0 0

100 0 0
136 0 0
76 0 0
136 0 0
136 0 0
76 0 0
124 0 0
76 0 0
136 0 0
100 0 0
176 0 0
100 0 0
136 0 0
76 0 0
136 0 0
100 0 0
136 0 0
76 0 0
32 32 32
44 44 44
32 32 32
100 0 0
64 0 0
64 0 0
64 0 0
64 0 0
64 0 0
28 28 28
0 0 0
0 0 0
0 0 0
0 0 0
0 0 0
0 0 0
0 0 0
0 0 0
0 0 0
0 0 0
0 0 0
64 0 0
64 0 0
28 28 28
64 0 0
64 0 0
64 0 0
64 0 0
64 0 0
28 28 28
32 32 32
32 32 32
176 0 0
136 0 0
76 0 0
112 0 0
136 0 0
76 0 0
136 0 0
88 0 0
136 0 0
88 0 0
136 0 0
76 0 0
136 0 0
88 0 0

136 0 0
100 0 0
100 0 0
136 0 0
100 0 0
136 0 0
76 0 0
124 0 0
100 0 0
76 0 0
136 0 0
76 0 0
100 0 0
76 0 0
112 0 0
76 0 0
112 0 0
76 0 0
32 32 32
44 44 44
44 44 44
176 0 0
64 0 0
64 0 0
64 0 0
28 28 28
64 0 0
28 28 28
64 0 0
28 28 28
64 0 0
64 0 0
64 0 0
28 28 28
64 0 0
64 0 0
64 0 0
28 28 28
64 0 0
64 0 0
64 0 0
64 0 0
64 0 0
64 0 0
64 0 0
64 0 0
64 0 0
28 28 28
32 32 32
56 56 56
188 0 0
76 0 0
136 0 0
76 0 0
136 0 0
88 0 0
136 0 0
88 0 0
112 0 0
136 0 0
88 0 0
136 0 0
112 0 0
76 0 0

136 0 0
100 0 0
76 0 0
100 0 0
136 0 0
76 0 0
124 0 0
76 0 0
100 0 0
136 0 0
100 0 0
76 0 0
136 0 0
112 0 0
76 0 0
124 0 0
100 0 0
76 0 0
32 32 32
44 44 44
44 44 44
152 0 0
100 0 0
100 0 0
88 0 0
64 0 0
64 0 0
64 0 0
64 0 0
64 0 0
64 0 0
64 0 0
64 0 0
64 0 0
64 0 0
64 0 0
64 0 0
64 0 0
64 0 0
64 0 0
64 0 0
64 0 0
64 0 0
64 0 0
64 0 0
64 0 0
76 0 0
32 32 32
32 32 32
56 56 56
188 0 0
76 0 0
136 0 0
88 0 0
88 0 0
136 0 0
136 0 0
112 0 0
88 0 0
112 0 0
88 0 0
76 0 0
88 0 0
112 0 0

100 0 0
124 0 0
76 0 0
124 0 0
76 0 0
76 0 0
136 0 0
76 0 0
136 0 0
100 0 0
136 0 0
76 0 0
100 0 0
88 0 0
76 0 0
136 0 0
76 0 0
76 0 0
32 32 32
44 44 44
32 32 32
152 0 0
136 0 0
76 0 0
88 0 0
136 0 0
76 0 0
76 0 0
76 0 0
76 0 0
64 0 0
64 0 0
64 0 0
64 0 0
64 0 0
64 0 0
64 0 0
64 0 0
64 0 0
64 0 0
64 0 0
64 0 0
76 0 0
88 0 0
124 0 0
76 0 0
76 0 0
32 32 32
44 44 44
56 56 56
188 0 0
136 0 0
76 0 0
76 0 0
136 0 0
112 0 0
88 0 0
88 0 0
136 0 0
88 0 0
136 0 0
76 0 0
88 0 0
136 0 0

76 0 0
136 0 0
100 0 0
136 0 0
76 0 0
136 0 0
76 0 0
112 0 0
136 0 0
76 0 0
136 0 0
100 0 0
76 0 0
112 0 0
136 0 0
100 0 0
112 0 0
76 0 0
32 32 32
44 44 44
56 56 56
176 0 0
76 0 0
136 0 0
136 0 0
76 0 0
136 0 0
76 0 0
88 0 0
112 0 0
76 0 0
100 0 0
76 0 0
76 0 0
76 0 0
76 0 0
76 0 0
100 0 0
76 0 0
76 0 0
112 0 0
88 0 0
76 0 0
112 0 0
88 0 0
76 0 0
76 0 0
32 32 32
44 44 44
44 44 44
188 0 0
76 0 0
136 0 0
112 0 0
136 0 0
88 0 0
136 0 0
112 0 0
88 0 0
88 0 0
76 0 0
136 0 0
88 0 0
136 0 0

76 0 0
136 0 0
100 0 0
100 0 0
76 0 0
124 0 0
124 0 0
76 0 0
124 0 0
76 0 0
100 0 0
76 0 0
136 0 0
76 0 0
136 0 0
76 0 0
124 0 0
76 0 0
32 32 32
44 44 44
44 44 44
176 0 0
76 0 0
136 0 0
88 0 0
136 0 0
76 0 0
100 0 0
100 0 0
112 0 0
76 0 0
124 0 0
76 0 0
112 0 0
76 0 0
76 0 0
100 0 0
76 0 0
76 0 0
112 0 0
76 0 0
136 0 0
76 0 0
136 0 0
76 0 0
112 0 0
76 0 0
32 32 32
32 32 32
44 44 44
188 0 0
76 0 0
136 0 0
76 0 0
88 0 0
76 0 0
136 0 0
88 0 0
136 0 0
88 0 0
76 0 0
76 0 0
136 0 0
76 0 0

100 0 0
124 0 0
76 0 0
136 0 0
76 0 0
76 0 0
112 0 0
76 0 0
100 0 0
100 0 0
136 0 0
76 0 0
136 0 0
76 0 0
88 0 0
112 0 0
100 0 0
76 0 0
32 32 32
44 44 44
56 56 56
176 0 0
136 0 0
76 0 0
88 0 0
136 0 0
76 0 0
136 0 0
76 0 0
112 0 0
76 0 0
136 0 0
76 0 0
136 0 0
88 0 0
76 0 0
136 0 0
76 0 0
76 0 0
136 0 0
76 0 0
112 0 0
88 0 0
112 0 0
76 0 0
112 0 0
76 0 0
32 32 32
32 32 32
44 44 44
176 0 0
76 0 0
76 0 0
76 0 0
136 0 0
76 0 0
136 0 0
88 0 0
136 0 0
88 0 0
136 0 0
76 0 0
136 0 0
88 0 0

76 0 0
76 0 0
76 0 0
76 0 0
76 0 0
76 0 0
76 0 0
76 0 0
76 0 0
76 0 0
76 0 0
76 0 0
76 0 0
76 0 0
76 0 0
76 0 0
76 0 0
76 0 0
32 32 32
44 44 44
44 44 44
136 0 0
76 0 0
76 0 0
76 0 0
76 0 0
76 0 0
76 0 0
76 0 0
76 0 0
76 0 0
76 0 0
76 0 0
76 0 0
76 0 0
76 0 0
76 0 0
76 0 0
76 0 0
76 0 0
76 0 0
76 0 0
76 0 0
76 0 0
76 0 0
76 0 0
76 0 0
32 32 32
44 44 44
56 56 56
136 0 0
76 0 0
76 0 0
76 0 0
76 0 0
76 0 0
76 0 0
76 0 0
76 0 0
76 0 0
76 0 0
76 0 0
76 0 0
76 0 0

32 32 32
32 32 32
32 32 32
32 32 32
32 32 32
32 32 32
32 32 32
32 32 32
32 32 32
32 32 32
32 32 32
32 32 32
32 32 32
32 32 32
32 32 32
32 32 32
32 32 32
32 32 32
32 32 32
44 44 44
56 56 56
44 44 44
32 32 32
32 32 32
32 32 32
32 32 32
32 32 32
32 32 32
32 32 32
32 32 32
32 32 32
32 32 32
32 32 32
32 32 32
32 32 32
32 32 32
32 32 32
32 32 32
32 32 32
32 32 32
32 32 32
32 32 32
32 32 32
32 32 32
32 32 32
32 32 32
32 32 32
32 32 32
32 32 32
44 44 44
44 44 44
32 32 32
32 32 32
32 32 32
32 32 32
32 32 32
32 32 32
32 32 32
32 32 32
32 32 32
32 32 32
32 32 32
32 32 32
32 32 32

32 32 32
56 56 56
32 32 32
56 56 56
32 32 32
32 32 32
32 32 32
44 44 44
44 44 44
44 44 44
44 44 44
44 44 44
56 56 56
56 56 56
32 32 32
44 44 44
44 44 44
44 44 44
44 44 44
56 56 56
56 56 56
56 56 56
56 56 56
56 56 56
44 44 44
44 44 44
44 44 44
56 56 56
44 44 44
44 44 44
44 44 44
56 56 56
44 44 44
44 44 44
32 32 32
44 44 44
44 44 44
44 44 44
44 44 44
32 32 32
32 32 32
44 44 44
32 32 32
32 32 32
44 44 44
44 44 44
32 32 32
32 32 32
32 32 32
56 56 56
44 44 44
44 44 44
32 32 32
56 56 56
44 44 44
44 44 44
44 44 44
44 44 44
32 32 32
32 32 32
32 32 32
44 44 44
44 44 44
44 44 44

72 72 72
72 72 72
72 72 72
72 72 72
72 72 72
72 72 72
72 72 72
72 72 72
72 72 72
72 72 72
72 72 72
72 72 72
72 72 72
72 72 72
72 72 72
72 72 72
72 72 72
72 72 72
72 72 72
72 72 72
72 72 72
72 72 72
72 72 72
72 72 72
72 72 72
72 72 72
72 72 72
72 72 72
72 72 72
72 72 72
72 72 72
72 72 72
72 72 72
72 72 72
72 72 72
72 72 72
72 72 72
72 72 72
72 72 72
72 72 72
72 72 72
72 72 72
72 72 72
72 72 72
72 72 72
72 72 72
72 72 72
72 72 72
72 72 72
72 72 72
72 72 72
72 72 72
72 72 72
72 72 72
72 72 72
72 72 72
72 72 72
72 72 72
72 72 72
72 72 72
72 72 72
72 72 72
72 72 72
72 72 72

