P3
# ASCII PPM file
64 64
255

0 0 0
0 0 0
0 0 0
0 0 0
56 56 56
0 0 0
0 0 0
0 0 0
0 0 0
0 0 0
0 0 0
0 0 0
0 0 0
56 56 56
0 0 0
0 0 0
44 44 44
0 0 0
0 0 0
0 0 0
84 84 84
0 0 0
44 44 44
0 0 0
0 0 0
0 0 0
0 0 0
0 0 0
56 56 56
0 0 0
0 0 0
0 0 0
0 0 0
0 0 0
0 0 0
0 0 0
0 0 0
0 0 0
0 0 0
0 0 0
0 0 0
0 0 0
56 56 56
0 0 0
0 0 0
0 0 0
0 0 0
0 0 0
140 140 140
0 0 0
0 0 0
84 84 84
0 0 0
0 0 0
0 0 0
0 0 0
0 0 0
0 0 0
0 0 0
0 0 0
56 56 56
0 0 0
0 0 0
0 0 0

0 0 0
0 0 0
0 0 0
0 0 0
0 0 0
0 0 0
0 0 0
56 56 56
0 0 0
0 0 0
0 0 0
0 0 0
0 0 0
0 0 0
0 0 0
0 0 0
0 0 0
0 0 0
0 0 0
0 0 0
0 0 0
0 0 0
0 0 0
140 140 140
0 0 0
0 0 0
0 0 0
56 56 56
0 0 0
0 0 0
0 0 0
0 0 0
0 0 0
0 0 0
56 56 56
0 0 0
0 0 0
0 0 0
84 84 84
0 0 0
0 0 0
0 0 0
0 0 0
0 0 0
0 0 0
0 0 0
56 56 56
0 0 0
0 0 0
0 0 0
0 0 0
0 0 0
0 0 0
0 0 0
44 44 44
0 0 0
0 0 0
0 0 0
0 0 0
0 0 0
0 0 0
0 0 0
0 0 0
0 0 0

56 56 56
0 0 0
0 0 0
0 0 0
0 0 0
0 0 0
0 0 0
0 0 0
0 0 0
0 0 0
0 0 0
252 252 252
0 0 0
0 0 0
44 44 44
0 0 0
0 0 0
0 0 0
0 0 0
0 0 0
0 0 0
56 56 56
0 0 0
0 0 0
0 0 0
0 0 0
0 0 0
0 0 0
0 0 0
0 0 0
0 0 0
0 0 0
0 0 0
0 0 0
0 0 0
0 0 0
0 0 0
0 0 0
0 0 0
0 0 0
0 0 0
0 0 0
0 0 0
44 44 44
0 0 0
56 56 56
0 0 0
0 0 0
0 0 0
0 0 0
140 140 140
0 0 0
0 0 0
0 0 0
0 0 0
0 0 0
0 0 0
0 0 0
0 0 0
0 0 0
0 0 0
0 0 0
252 252 252
0 0 0

0 0 0
0 0 0
0 0 0
0 0 0
0 0 0
0 0 0
0 0 0
0 0 0
0 0 0
0 0 0
0 0 0
0 0 0
0 0 0
0 0 0
0 0 0
0 0 0
0 0 0
0 0 0
0 0 0
0 0 0
0 0 0
0 0 0
0 0 0
0 0 0
0 0 0
0 0 0
0 0 0
0 0 0
0 0 0
0 0 0
0 0 0
252 252 252
0 0 0
0 0 0
0 0 0
0 0 0
0 0 0
0 0 0
0 0 0
0 0 0
84 84 84
0 0 0
0 0 0
0 0 0
0 0 0
0 0 0
0 0 0
0 0 0
0 0 0
0 0 0
0 0 0
0 0 0
0 0 0
0 0 0
0 0 0
0 0 0
44 44 44
0 0 0
0 0 0
0 0 0
56 56 56
0 0 0
0 0 0
0 0 0

0 0 0
0 0 0
124 124 124
0 0 0
0 0 0
0 0 0
0 0 0
0 0 0
0 0 0
0 0 0
0 0 0
0 0 0
0 0 0
84 84 84
0 0 0
0 0 0
0 0 0
0 0 0
0 0 0
0 0 0
0 0 0
0 0 0
0 0 0
0 0 0
0 0 0
168 168 168
0 0 0
0 0 0
0 0 0
0 0 0
0 0 0
0 0 0
0 0 0
168 168 168
0 0 0
0 0 0
0 0 0
0 0 0
0 0 0
0 0 0
0 0 0
0 0 0
0 0 0
0 0 0
0 0 0
0 0 0
0 0 0
0 0 0
0 0 0
0 0 0
44 44 44
0 0 0
0 0 0
0 0 0
0 0 0
112 112 112
0 0 0
0 0 0
0 0 0
0 0 0
0 0 0
0 0 0
0 0 0
0 0 0

0 0 0
0 0 0
56 56 56
0 0 0
0 0 0
56 56 56
0 0 0
0 0 0
0 0 0
0 0 0
56 56 56
0 0 0
0 0 0
0 0 0
0 0 0
0 0 0
0 0 0
0 0 0
0 0 0
56 56 56
0 0 0
0 0 0
0 0 0
0 0 0
0 0 0
0 0 0
0 0 0
0 0 0
0 0 0
56 56 56
0 0 0
0 0 0
0 0 0
0 0 0
0 0 0
0 0 0
168 168 168
0 0 0
0 0 0
0 0 0
0 0 0
0 0 0
0 0 0
0 0 0
0 0 0
0 0 0
0 0 0
0 0 0
0 0 0
0 0 0
0 0 0
0 0 0
0 0 0
0 0 0
0 0 0
44 44 44
0 0 0
0 0 0
0 0 0
0 0 0
0 0 0
0 0 0
0 0 0
0 0 0

0 0 0
0 0 0
0 0 0
0 0 0
0 0 0
0 0 0
0 0 0
0 0 0
0 0 0
0 0 0
0 0 0
0 0 0
0 0 0
0 0 0
0 0 0
0 0 0
0 0 0
0 0 0
0 0 0
0 0 0
0 0 0
0 0 0
56 56 56
0 0 0
0 0 0
0 0 0
0 0 0
0 0 0
0 0 0
0 0 0
0 0 0
0 0 0
0 0 0
0 0 0
0 0 0
0 0 0
0 0 0
0 0 0
0 0 0
0 0 0
0 0 0
0 0 0
84 84 84
0 0 0
0 0 0
0 0 0
0 0 0
0 0 0
0 0 0
0 0 0
0 0 0
0 0 0
252 252 252
0 0 0
140 140 140
0 0 0
0 0 0
0 0 0
0 0 0
0 0 0
0 0 0
0 0 0
0 0 0
0 0 0

0 0 0
0 0 0
0 0 0
0 0 0
0 0 0
0 0 0
0 0 0
0 0 0
0 0 0
192 192 192
0 0 0
56 56 56
0 0 0
0 0 0
0 0 0
0 0 0
0 0 0
0 0 0
0 0 0
0 0 0
0 0 0
0 0 0
0 0 0
0 0 0
0 0 0
0 0 0
0 0 0
0 0 0
0 0 0
0 0 0
0 0 0
0 0 0
0 0 0
0 0 0
0 0 0
0 0 0
0 0 0
0 0 0
0 0 0
0 0 0
0 0 0
0 0 0
0 0 0
0 0 0
0 0 0
0 0 0
0 0 0
0 0 0
0 0 0
0 0 0
0 0 0
32 32 32
0 0 0
0 0 0
0 0 0
0 0 0
0 0 0
0 0 0
0 0 0
0 0 0
44 44 44
0 0 0
0 0 0
56 56 56

0 0 0
0 0 0
0 0 0
0 0 0
0 0 0
0 0 0
0 0 0
0 0 0
0 0 0
0 0 0
0 0 0
0 0 0
0 0 0
0 0 0
0 0 0
0 0 0
0 0 0
0 0 0
0 0 0
152 152 152
0 0 0
0 0 0
0 0 0
0 0 0
0 0 0
0 0 0
0 0 0
0 0 0
0 0 0
0 0 0
0 0 0
0 0 0
0 0 0
0 0 0
0 0 0
84 84 84
0 0 0
0 0 0
0 0 0
0 0 0
0 0 0
0 0 0
0 0 0
0 0 0
0 0 0
56 56 56
0 0 0
0 0 0
0 0 0
0 0 0
0 0 0
100 100 100
0 0 0
0 0 0
44 44 44
0 0 0
0 0 0
0 0 0
0 0 0
168 168 168
0 0 0
0 0 0
0 0 0
0 0 0

0 0 0
0 0 0
0 0 0
0 0 0
0 0 0
0 0 0
0 0 0
0 0 0
56 56 56
0 0 0
0 0 0
56 56 56
0 0 0
0 0 0
0 0 0
0 0 0
0 0 0
0 0 0
0 0 0
0 0 0
0 0 0
0 0 0
0 0 0
0 0 0
0 0 0
84 84 84
0 0 0
0 0 0
0 0 0
0 0 0
0 0 0
84 84 84
0 0 0
0 0 0
0 0 0
0 0 0
124 124 124
0 0 0
84 84 84
0 0 0
0 0 0
0 0 0
56 56 56
0 0 0
0 0 0
0 0 0
0 0 0
0 0 0
0 0 0
84 84 84
0 0 0
0 0 0
0 0 0
0 0 0
0 0 0
0 0 0
0 0 0
0 0 0
44 44 44
0 0 0
0 0 0
192 192 192
0 0 0
0 0 0

0 0 0
0 0 0
0 0 0
84 84 84
0 0 0
0 0 0
0 0 0
0 0 0
0 0 0
0 0 0
0 0 0
0 0 0
0 0 0
0 0 0
0 0 0
0 0 0
0 0 0
0 0 0
0 0 0
0 0 0
84 84 84
0 0 0
0 0 0
0 0 0
0 0 0
0 0 0
0 0 0
0 0 0
168 168 168
0 0 0
0 0 0
0 0 0
0 0 0
0 0 0
84 84 84
0 0 0
0 0 0
72 72 72
0 0 0
0 0 0
0 0 0
0 0 0
0 0 0
0 0 0
0 0 0
0 0 0
0 0 0
0 0 0
0 0 0
0 0 0
0 0 0
44 44 44
56 56 56
0 0 0
0 0 0
0 0 0
0 0 0
0 0 0
0 0 0
0 0 0
0 0 0
0 0 0
0 0 0
0 0 0

0 0 0
0 0 0
0 0 0
0 0 0
0 0 0
0 0 0
0 0 0
0 0 0
0 0 0
0 0 0
0 0 0
0 0 0
0 0 0
0 0 0
0 0 0
0 0 0
72 72 72
0 0 0
0 0 0
0 0 0
0 0 0
180 180 180
0 0 0
0 0 0
0 0 0
0 0 0
0 0 0
84 84 84
0 0 0
0 0 0
0 0 0
0 0 0
0 0 0
0 0 0
0 0 0
0 0 0
0 0 0
0 0 0
0 0 0
0 0 0
0 0 0
0 0 0
0 0 0
0 0 0
0 0 0
0 0 0
0 0 0
0 0 0
44 44 44
84 84 84
44 44 44
0 0 0
0 0 0
0 0 0
0 0 0
0 0 0
0 0 0
72 72 72
0 0 0
0 0 0
0 0 0
0 0 0
0 0 0
0 0 0

0 0 0
0 0 0
0 0 0
0 0 0
0 0 0
0 0 0
0 0 0
0 0 0
0 0 0
0 0 0
0 0 0
0 0 0
0 0 0
0 0 0
72 72 72
0 0 0
0 0 0
0 0 0
0 0 0
0 0 0
0 0 0
0 0 0
84 84 84
0 0 0
0 0 0
0 0 0
0 0 0
0 0 0
0 0 0
0 0 0
0 0 0
84 84 84
0 0 0
0 0 0
0 0 0
0 0 0
0 0 0
32 32 32
0 0 0
0 0 0
0 0 0
0 0 0
0 0 0
0 0 0
0 0 0
0 0 0
0 0 0
0 0 0
0 0 0
0 0 0
0 0 0
0 0 0
0 0 0
0 0 0
0 0 0
0 0 0
168 168 168
0 0 0
0 0 0
0 0 0
0 0 0
0 0 0
0 0 0
0 0 0

0 0 0
168 168 168
0 0 0
0 0 0
0 0 0
0 0 0
0 0 0
0 0 0
0 0 0
0 0 0
0 0 0
100 100 100
0 0 0
0 0 0
0 0 0
124 124 124
0 0 0
0 0 0
56 56 56
0 0 0
0 0 0
0 0 0
0 0 0
0 0 0
0 0 0
0 0 0
0 0 0
0 0 0
0 0 0
0 0 0
0 0 0
0 0 0
0 0 0
0 0 0
0 0 0
0 0 0
56 56 56
0 0 0
0 0 0
0 0 0
0 0 0
0 0 0
0 0 0
0 0 0
168 168 168
0 0 0
0 0 0
44 44 44
0 0 0
0 0 0
0 0 0
0 0 0
0 0 0
0 0 0
0 0 0
0 0 0
0 0 0
0 0 0
72 72 72
0 0 0
0 0 0
0 0 0
0 0 0
0 0 0

56 56 56
0 0 0
0 0 0
0 0 0
0 0 0
0 0 0
0 0 0
0 0 0
0 0 0
0 0 0
0 0 0
0 0 0
0 0 0
0 0 0
0 0 0
0 0 0
0 0 0
0 0 0
0 0 0
0 0 0
0 0 0
0 0 0
0 0 0
0 0 0
0 0 0
0 0 0
0 0 0
0 0 0
0 0 0
0 0 0
0 0 0
0 0 0
0 0 0
0 0 0
0 0 0
32 32 32
0 0 0
0 0 0
0 0 0
0 0 0
0 0 0
0 0 0
0 0 0
0 0 0
0 0 0
0 0 0
0 0 0
0 0 0
0 0 0
0 0 0
0 0 0
0 0 0
0 0 0
0 0 0
0 0 0
0 0 0
0 0 0
0 0 0
0 0 0
0 0 0
0 0 0
0 0 0
0 0 0
0 0 0

0 0 0
0 0 0
0 0 0
0 0 0
0 0 0
0 0 0
0 0 0
0 0 0
0 0 0
56 56 56
0 0 0
0 0 0
0 0 0
0 0 0
0 0 0
0 0 0
0 0 0
0 0 0
0 0 0
0 0 0
0 0 0
0 0 0
0 0 0
0 0 0
0 0 0
0 0 0
0 0 0
0 0 0
0 0 0
0 0 0
0 0 0
56 56 56
0 0 0
0 0 0
0 0 0
0 0 0
0 0 0
0 0 0
0 0 0
124 124 124
0 0 0
0 0 0
0 0 0
0 0 0
0 0 0
0 0 0
0 0 0
0 0 0
0 0 0
0 0 0
0 0 0
0 0 0
44 44 44
0 0 0
0 0 0
0 0 0
72 72 72
0 0 0
0 0 0
0 0 0
0 0 0
0 0 0
32 32 32
0 0 0

0 0 0
0 0 0
0 0 0
0 0 0
0 0 0
0 0 0
100 100 100
0 0 0
0 0 0
140 140 140
0 0 0
0 0 0
0 0 0
0 0 0
72 72 72
0 0 0
0 0 0
0 0 0
0 0 0
0 0 0
0 0 0
0 0 0
0 0 0
0 0 0
0 0 0
0 0 0
0 0 0
0 0 0
0 0 0
0 0 0
168 168 168
0 0 0
0 0 0
0 0 0
0 0 0
44 44 44
0 0 0
0 0 0
0 0 0
0 0 0
0 0 0
0 0 0
0 0 0
0 0 0
0 0 0
0 0 0
0 0 0
0 0 0
0 0 0
0 0 0
0 0 0
0 0 0
0 0 0
0 0 0
0 0 0
0 0 0
0 0 0
0 0 0
0 0 0
0 0 0
0 0 0
72 72 72
0 0 0
0 0 0

0 0 0
0 0 0
0 0 0
0 0 0
56 56 56
0 0 0
0 0 0
0 0 0
0 0 0
84 84 84
0 0 0
0 0 0
0 0 0
0 0 0
0 0 0
0 0 0
72 72 72
0 0 0
0 0 0
0 0 0
0 0 0
44 44 44
0 0 0
0 0 0
0 0 0
0 0 0
0 0 0
0 0 0
0 0 0
0 0 0
0 0 0
0 0 0
0 0 0
0 0 0
32 32 32
0 0 0
44 44 44
0 0 0
0 0 0
0 0 0
0 0 0
0 0 0
0 0 0
0 0 0
0 0 0
0 0 0
0 0 0
0 0 0
0 0 0
0 0 0
0 0 0
0 0 0
0 0 0
0 0 0
0 0 0
0 0 0
0 0 0
0 0 0
0 0 0
0 0 0
0 0 0
0 0 0
0 0 0
0 0 0

0 0 0
0 0 0
0 0 0
0 0 0
0 0 0
0 0 0
0 0 0
0 0 0
0 0 0
0 0 0
84 84 84
0 0 0
0 0 0
0 0 0
0 0 0
0 0 0
0 0 0
0 0 0
0 0 0
44 44 44
0 0 0
0 0 0
0 0 0
0 0 0
0 0 0
0 0 0
0 0 0
0 0 0
56 56 56
0 0 0
0 0 0
0 0 0
56 56 56
0 0 0
0 0 0
0 0 0
0 0 0
0 0 0
0 0 0
0 0 0
0 0 0
0 0 0
32 32 32
0 0 0
0 0 0
0 0 0
32 32 32
0 0 0
0 0 0
84 84 84
0 0 0
0 0 0
0 0 0
0 0 0
0 0 0
0 0 0
0 0 0
0 0 0
0 0 0
0 0 0
0 0 0
0 0 0
0 0 0
0 0 0

0 0 0
0 0 0
0 0 0
0 0 0
0 0 0
0 0 0
0 0 0
112 112 112
44 44 44
0 0 0
0 0 0
0 0 0
0 0 0
0 0 0
0 0 0
0 0 0
0 0 0
0 0 0
152 152 152
0 0 0
100 100 100
0 0 0
0 0 0
0 0 0
0 0 0
0 0 0
0 0 0
0 0 0
0 0 0
0 0 0
0 0 0
0 0 0
0 0 0
0 0 0
0 0 0
0 0 0
0 0 0
0 0 0
0 0 0
0 0 0
0 0 0
0 0 0
0 0 0
0 0 0
0 0 0
0 0 0
0 0 0
0 0 0
0 0 0
0 0 0
0 0 0
0 0 0
0 0 0
0 0 0
0 0 0
0 0 0
72 72 72
0 0 0
0 0 0
0 0 0
0 0 0
0 0 0
0 0 0
0 0 0

0 0 0
0 0 0
0 0 0
0 0 0
0 0 0
0 0 0
0 0 0
0 0 0
0 0 0
100 100 100
0 0 0
0 0 0
0 0 0
0 0 0
0 0 0
0 0 0
44 44 44
0 0 0
0 0 0
0 0 0
0 0 0
0 0 0
0 0 0
0 0 0
0 0 0
0 0 0
0 0 0
0 0 0
0 0 0
0 0 0
0 0 0
0 0 0
0 0 0
0 0 0
0 0 0
0 0 0
0 0 0
0 0 0
32 32 32
48 48 48
32 32 32
0 0 0
124 124 124
0 0 0
0 0 0
0 0 0
0 0 0
0 0 0
0 0 0
0 0 0
0 0 0
0 0 0
0 0 0
0 0 0
0 0 0
124 124 124
0 0 0
0 0 0
0 0 0
0 0 0
0 0 0
0 0 0
0 0 0
0 0 0

56 56 56
0 0 0
0 0 0
0 0 0
0 0 0
140 140 140
0 0 0
0 0 0
140 140 140
0 0 0
0 0 0
0 0 0
0 0 0
0 0 0
0 0 0
0 0 0
0 0 0
44 44 44
0 0 0
0 0 0
0 0 0
0 0 0
0 0 0
0 0 0
0 0 0
0 0 0
0 0 0
0 0 0
0 0 0
0 0 0
56 56 56
0 0 0
0 0 0
0 0 0
0 0 0
0 0 0
0 0 0
76 76 76
0 0 0
0 0 0
0 0 0
48 48 48
0 0 0
0 0 0
0 0 0
44 44 44
0 0 0
0 0 0
0 0 0
0 0 0
0 0 0
0 0 0
0 0 0
0 0 0
0 0 0
0 0 0
0 0 0
0 0 0
0 0 0
0 0 0
0 0 0
252 252 252
0 0 0
32 32 32

0 0 0
44 44 44
0 0 0
0 0 0
0 0 0
56 56 56
0 0 0
0 0 0
0 0 0
0 0 0
0 0 0
0 0 0
0 0 0
0 0 0
0 0 0
0 0 0
0 0 0
0 0 0
100 100 100
0 0 0
0 0 0
0 0 0
0 0 0
0 0 0
0 0 0
168 168 168
0 0 0
0 0 0
84 84 84
0 0 0
0 0 0
0 0 0
0 0 0
0 0 0
0 0 0
0 0 0
0 0 0
0 0 0
0 0 0
32 32 32
0 0 0
0 0 0
0 0 0
0 0 0
0 0 0
0 0 0
0 0 0
0 0 0
0 0 0
0 0 0
0 0 0
0 0 0
0 0 0
72 72 72
0 0 0
0 0 0
0 0 0
0 0 0
0 0 0
0 0 0
0 0 0
0 0 0
0 0 0
0 0 0

0 0 0
0 0 0
0 0 0
0 0 0
0 0 0
0 0 0
0 0 0
0 0 0
0 0 0
0 0 0
0 0 0
0 0 0
0 0 0
0 0 0
0 0 0
0 0 0
0 0 0
0 0 0
0 0 0
0 0 0
0 0 0
152 152 152
0 0 0
0 0 0
0 0 0
0 0 0
0 0 0
0 0 0
0 0 0
0 0 0
0 0 0
0 0 0
168 168 168
0 0 0
0 0 0
0 0 0
48 48 48
0 0 0
32 32 32
76 76 76
32 32 32
0 0 0
32 32 32
0 0 0
0 0 0
0 0 0
0 0 0
0 0 0
0 0 0
0 0 0
0 0 0
0 0 0
0 0 0
0 0 0
0 0 0
0 0 0
0 0 0
72 72 72
0 0 0
0 0 0
0 0 0
0 0 0
0 0 0
0 0 0

0 0 0
0 0 0
0 0 0
0 0 0
0 0 0
0 0 0
0 0 0
0 0 0
0 0 0
0 0 0
0 0 0
0 0 0
0 0 0
0 0 0
0 0 0
0 0 0
0 0 0
0 0 0
0 0 0
0 0 0
0 0 0
0 0 0
0 0 0
0 0 0
0 0 0
0 0 0
0 0 0
0 0 0
0 0 0
72 72 72
0 0 0
0 0 0
0 0 0
0 0 0
0 0 0
0 0 0
0 0 0
0 0 0
0 0 0
32 32 32
0 0 0
0 0 0
0 0 0
0 0 0
0 0 0
0 0 0
0 0 0
84 84 84
0 0 0
0 0 0
0 0 0
0 0 0
0 0 0
0 0 0
0 0 0
0 0 0
0 0 0
0 0 0
0 0 0
0 0 0
0 0 0
0 0 0
0 0 0
0 0 0

0 0 0
0 0 0
0 0 0
0 0 0
0 0 0
0 0 0
100 100 100
0 0 0
0 0 0
0 0 0
0 0 0
0 0 0
84 84 84
0 0 0
0 0 0
0 0 0
0 0 0
0 0 0
0 0 0
0 0 0
0 0 0
0 0 0
0 0 0
0 0 0
0 0 0
0 0 0
0 0 0
124 124 124
0 0 0
0 0 0
0 0 0
0 0 0
0 0 0
0 0 0
0 0 0
0 0 0
0 0 0
0 0 0
0 0 0
0 0 0
0 0 0
0 0 0
0 0 0
0 0 0
0 0 0
0 0 0
0 0 0
0 0 0
0 0 0
0 0 0
0 0 0
0 0 0
72 72 72
0 0 0
0 0 0
0 0 0
0 0 0
0 0 0
0 0 0
0 0 0
0 0 0
0 0 0
0 0 0
0 0 0

0 0 0
0 0 0
0 0 0
0 0 0
0 0 0
168 168 168
0 0 0
0 0 0
0 0 0
0 0 0
0 0 0
0 0 0
0 0 0
0 0 0
0 0 0
0 0 0
0 0 0
0 0 0
0 0 0
0 0 0
0 0 0
0 0 0
0 0 0
0 0 0
0 0 0
72 72 72
0 0 0
0 0 0
44 44 44
0 0 0
0 0 0
0 0 0
0 0 0
0 0 0
0 0 0
0 0 0
0 0 0
0 0 0
0 0 0
0 0 0
0 0 0
0 0 0
0 0 0
0 0 0
0 0 0
0 0 0
0 0 0
0 0 0
0 0 0
0 0 0
0 0 0
0 0 0
0 0 0
0 0 0
0 0 0
0 0 0
0 0 0
0 0 0
0 0 0
0 0 0
0 0 0
0 0 0
0 0 0
32 32 32

0 0 0
0 0 0
0 0 0
0 0 0
0 0 0
0 0 0
0 0 0
0 0 0
0 0 0
0 0 0
0 0 0
0 0 0
0 0 0
0 0 0
0 0 0
0 0 0
0 0 0
0 0 0
44 44 44
0 0 0
0 0 0
0 0 0
0 0 0
0 0 0
0 0 0
0 0 0
0 0 0
0 0 0
0 0 0
0 0 0
72 72 72
0 0 0
0 0 0
0 0 0
0 0 0
0 0 0
0 0 0
0 0 0
0 0 0
0 0 0
0 0 0
0 0 0
0 0 0
44 44 44
0 0 0
0 0 0
0 0 0
0 0 0
0 0 0
0 0 0
0 0 0
0 0 0
0 0 0
0 0 0
0 0 0
124 124 124
0 0 0
100 100 100
0 0 0
0 0 0
72 72 72
0 0 0
0 0 0
0 0 0

0 0 0
0 0 0
0 0 0
0 0 0
0 0 0
0 0 0
0 0 0
0 0 0
0 0 0
0 0 0
0 0 0
0 0 0
0 0 0
0 0 0
0 0 0
0 0 0
0 0 0
72 72 72
0 0 0
0 0 0
0 0 0
0 0 0
0 0 0
0 0 0
0 0 0
0 0 0
0 0 0
0 0 0
72 72 72
0 0 0
0 0 0
0 0 0
0 0 0
0 0 0
0 0 0
0 0 0
0 0 0
0 0 0
0 0 0
0 0 0
0 0 0
0 0 0
0 0 0
0 0 0
0 0 0
0 0 0
0 0 0
72 72 72
0 0 0
0 0 0
0 0 0
0 0 0
0 0 0
0 0 0
0 0 0
0 0 0
0 0 0
0 0 0
0 0 0
0 0 0
0 0 0
0 0 0
0 0 0
0 0 0

0 0 0
0 0 0
0 0 0
0 0 0
0 0 0
0 0 0
0 0 0
0 0 0
0 0 0
0 0 0
0 0 0
0 0 0
0 0 0
0 0 0
0 0 0
0 0 0
0 0 0
0 0 0
0 0 0
0 0 0
0 0 0
0 0 0
0 0 0
0 0 0
44 44 44
0 0 0
0 0 0
0 0 0
0 0 0
44 44 44
0 0 0
0 0 0
0 0 0
0 0 0
0 0 0
0 0 0
0 0 0
0 0 0
0 0 0
72 72 72
0 0 0
0 0 0
0 0 0
44 44 44
0 0 0
0 0 0
124 124 124
0 0 0
0 0 0
0 0 0
0 0 0
0 0 0
0 0 0
0 0 0
0 0 0
0 0 0
0 0 0
0 0 0
0 0 0
0 0 0
0 0 0
0 0 0
0 0 0
0 0 0

0 0 0
112 112 112
0 0 0
0 0 0
0 0 0
0 0 0
0 0 0
0 0 0
0 0 0
0 0 0
44 44 44
0 0 0
0 0 0
0 0 0
0 0 0
44 44 44
0 0 0
0 0 0
0 0 0
0 0 0
0 0 0
0 0 0
0 0 0
44 44 44
0 0 0
0 0 0
0 0 0
0 0 0
0 0 0
0 0 0
0 0 0
0 0 0
0 0 0
0 0 0
0 0 0
0 0 0
0 0 0
0 0 0
0 0 0
0 0 0
0 0 0
0 0 0
0 0 0
0 0 0
0 0 0
0 0 0
0 0 0
0 0 0
0 0 0
0 0 0
0 0 0
0 0 0
44 44 44
0 0 0
0 0 0
0 0 0
44 44 44
0 0 0
0 0 0
0 0 0
0 0 0
0 0 0
0 0 0
0 0 0

0 0 0
0 0 0
0 0 0
0 0 0
0 0 0
0 0 0
0 0 0
0 0 0
0 0 0
0 0 0
0 0 0
0 0 0
0 0 0
0 0 0
0 0 0
0 0 0
0 0 0
0 0 0
0 0 0
0 0 0
0 0 0
0 0 0
0 0 0
0 0 0
0 0 0
0 0 0
44 44 44
0 0 0
0 0 0
0 0 0
0 0 0
0 0 0
0 0 0
0 0 0
44 44 44
0 0 0
0 0 0
0 0 0
0 0 0
0 0 0
0 0 0
0 0 0
0 0 0
0 0 0
0 0 0
0 0 0
0 0 0
0 0 0
0 0 0
0 0 0
0 0 0
0 0 0
0 0 0
0 0 0
0 0 0
0 0 0
0 0 0
0 0 0
0 0 0
0 0 0
0 0 0
0 0 0
0 0 0
0 0 0

0 0 0
0 0 0
0 0 0
56 56 56
0 0 0
0 0 0
0 0 0
0 0 0
0 0 0
0 0 0
0 0 0
0 0 0
0 0 0
0 0 0
0 0 0
0 0 0
0 0 0
0 0 0
0 0 0
0 0 0
0 0 0
0 0 0
0 0 0
0 0 0
0 0 0
0 0 0
0 0 0
0 0 0
0 0 0
0 0 0
0 0 0
0 0 0
0 0 0
0 0 0
0 0 0
0 0 0
0 0 0
0 0 0
44 44 44
0 0 0
0 0 0
0 0 0
0 0 0
0 0 0
0 0 0
0 0 0
0 0 0
0 0 0
0 0 0
0 0 0
0 0 0
0 0 0
0 0 0
0 0 0
0 0 0
0 0 0
0 0 0
0 0 0
0 0 0
0 0 0
0 0 0
0 0 0
0 0 0
0 0 0

0 0 0
0 0 0
0 0 0
0 0 0
0 0 0
0 0 0
0 0 0
0 0 0
0 0 0
0 0 0
0 0 0
0 0 0
0 0 0
0 0 0
0 0 0
0 0 0
0 0 0
0 0 0
0 0 0
0 0 0
0 0 0
0 0 0
0 0 0
0 0 0
0 0 0
0 0 0
0 0 0
0 0 0
0 0 0
0 0 0
0 0 0
0 0 0
0 0 0
0 0 0
0 0 0
0 0 0
56 56 56
0 0 0
0 0 0
44 44 44
0 0 0
0 0 0
0 0 0
0 0 0
0 0 0
0 0 0
0 0 0
0 0 0
0 0 0
0 0 0
0 0 0
0 0 0
0 0 0
0 0 0
0 0 0
0 0 0
0 0 0
0 0 0
0 0 0
44 44 44
0 0 0
0 0 0
0 0 0
0 0 0

0 0 0
0 0 0
0 0 0
0 0 0
0 0 0
0 0 0
0 0 0
0 0 0
0 0 0
0 0 0
0 0 0
0 0 0
0 0 0
0 0 0
0 0 0
0 0 0
0 0 0
0 0 0
0 0 0
0 0 0
0 0 0
0 0 0
44 44 44
0 0 0
0 0 0
0 0 0
0 0 0
0 0 0
0 0 0
0 0 0
0 0 0
0 0 0
0 0 0
0 0 0
0 0 0
0 0 0
0 0 0
0 0 0
0 0 0
0 0 0
0 0 0
0 0 0
0 0 0
0 0 0
0 0 0
0 0 0
0 0 0
0 0 0
0 0 0
0 0 0
0 0 0
0 0 0
0 0 0
0 0 0
0 0 0
0 0 0
0 0 0
0 0 0
0 0 0
0 0 0
0 0 0
0 0 0
0 0 0
0 0 0

0 0 0
0 0 0
0 0 0
0 0 0
0 0 0
0 0 0
0 0 0
0 0 0
0 0 0
0 0 0
0 0 0
0 0 0
0 0 0
56 56 56
0 0 0
0 0 0
0 0 0
0 0 0
0 0 0
0 0 0
0 0 0
0 0 0
0 0 0
0 0 0
0 0 0
0 0 0
0 0 0
0 0 0
0 0 0
0 0 0
0 0 0
0 0 0
0 0 0
0 0 0
0 0 0
0 0 0
0 0 0
0 0 0
0 0 0
0 0 0
0 0 0
0 0 0
0 0 0
0 0 0
28 28 28
28 28 28
0 0 0
0 0 0
0 0 0
0 0 0
0 0 0
0 0 0
0 0 0
0 0 0
56 56 56
0 0 0
0 0 0
0 0 0
0 0 0
0 0 0
0 0 0
0 0 0
0 0 0
0 0 0

0 0 0
32 32 32
32 32 32
32 32 32
0 0 0
0 0 0
28 28 28
32 32 32
32 32 32
0 0 0
32 32 32
28 28 28
28 28 28
28 28 28
32 32 32
0 0 0
32 32 32
28 28 28
28 28 28
32 32 32
0 0 0
0 0 0
32 32 32
32 32 32
28 28 28
0 0 0
0 0 0
0 0 0
0 0 0
28 28 28
32 32 32
32 32 32
28 28 28
0 0 0
32 32 32
32 32 32
32 32 32
0 0 0
0 0 0
32 32 32
0 0 0
32 32 32
28 28 28
28 28 28
32 32 32
32 32 32
0 0 0
32 32 32
0 0 0
32 32 32
28 28 28
0 0 0
0 0 0
0 0 0
28 28 28
32 32 32
32 32 32
0 0 0
32 32 32
32 32 32
0 0 0
32 32 32
28 28 28
0 0 0

32 32 32
32 32 32
32 32 32
32 32 32
32 32 32
32 32 32
32 32 32
32 32 32
32 32 32
32 32 32
32 32 32
32 32 32
32 32 32
32 32 32
32 32 32
32 32 32
32 32 32
32 32 32
32 32 32
32 32 32
32 32 32
32 32 32
32 32 32
32 32 32
32 32 32
32 32 32
32 32 32
32 32 32
32 32 32
32 32 32
28 28 28
32 32 32
32 32 32
32 32 32
32 32 32
32 32 32
32 32 32
32 32 32
32 32 32
32 32 32
32 32 32
32 32 32
32 32 32
32 32 32
32 32 32
32 32 32
32 32 32
32 32 32
32 32 32
32 32 32
32 32 32
32 32 32
32 32 32
32 32 32
32 32 32
32 32 32
32 32 32
32 32 32
32 32 32
32 32 32
32 32 32
32 32 32
32 32 32
32 32 32

40 40 40
40 40 40
32 32 32
40 40 40
32 32 32
32 32 32
40 40 40
40 40 40
40 40 40
40 40 40
32 32 32
32 32 32
40 40 40
40 40 40
40 40 40
40 40 40
32 32 32
40 40 40
40 40 40
40 40 40
32 32 32
40 40 40
40 40 40
32 32 32
40 40 40
32 32 32
40 40 40
32 32 32
40 40 40
40 40 40
40 40 40
32 32 32
40 40 40
40 40 40
40 40 40
32 32 32
32 32 32
40 40 40
32 32 32
32 32 32
32 32 32
32 32 32
40 40 40
40 40 40
40 40 40
32 32 32
40 40 40
40 40 40
32 32 32
40 40 40
40 40 40
40 40 40
32 32 32
32 32 32
40 40 40
32 32 32
32 32 32
40 40 40
40 40 40
40 40 40
32 32 32
40 40 40
40 40 40
40 40 40

40 40 40
40 40 40
44 44 44
40 40 40
40 40 40
44 44 44
40 40 40
32 32 32
40 40 40
40 40 40
40 40 40
44 44 44
40 40 40
40 40 40
32 32 32
44 44 44
44 44 44
40 40 40
40 40 40
44 44 44
44 44 44
40 40 40
40 40 40
40 40 40
40 40 40
44 44 44
40 40 40
40 40 40
32 32 32
40 40 40
40 40 40
40 40 40
40 40 40
44 44 44
40 40 40
40 40 40
40 40 40
32 32 32
40 40 40
44 44 44
40 40 40
40 40 40
44 44 44
32 32 32
40 40 40
40 40 40
40 40 40
40 40 40
40 40 40
40 40 40
32 32 32
44 44 44
40 40 40
40 40 40
32 32 32
40 40 40
40 40 40
40 40 40
40 40 40
32 32 32
40 40 40
40 40 40
32 32 32
40 40 40

44 44 44
44 44 44
44 44 44
44 44 44
40 40 40
44 44 44
40 40 40
44 44 44
44 44 44
44 44 44
40 40 40
40 40 40
44 44 44
44 44 44
44 44 44
44 44 44
40 40 40
44 44 44
40 40 40
44 44 44
44 44 44
44 44 44
40 40 40
44 44 44
40 40 40
44 44 44
40 40 40
44 44 44
44 44 44
44 44 44
40 40 40
44 44 44
40 40 40
40 40 40
44 44 44
44 44 44
40 40 40
44 44 44
40 40 40
44 44 44
40 40 40
44 44 44
44 44 44
44 44 44
44 44 44
40 40 40
44 44 44
40 40 40
44 44 44
44 44 44
40 40 40
44 44 44
40 40 40
44 44 44
44 44 44
40 40 40
40 40 40
44 44 44
40 40 40
40 40 40
44 44 44
44 44 44
40 40 40
44 44 44

44 44 44
44 44 44
40 40 40
44 44 44
44 44 44
48 48 48
44 44 44
44 44 44
40 40 40
44 44 44
44 44 44
48 48 48
40 40 40
44 44 44
40 40 40
40 40 40
44 44 44
44 44 44
48 48 48
40 40 40
48 48 48
44 44 44
40 40 40
40 40 40
48 48 48
44 44 44
48 48 48
44 44 44
40 40 40
44 44 44
44 44 44
40 40 40
44 44 44
44 44 44
44 44 44
44 44 44
44 44 44
44 44 44
44 44 44
44 44 44
44 44 44
44 44 44
40 40 40
40 40 40
44 44 44
44 44 44
44 44 44
44 44 44
40 40 40
44 44 44
44 44 44
40 40 40
44 44 44
44 44 44
44 44 44
44 44 44
44 44 44
44 44 44
40 40 40
44 44 44
44 44 44
40 40 40
44 44 44
44 44 44

44 44 44
40 40 40
40 40 40
48 48 48
40 40 40
40 40 40
44 44 44
44 44 44
48 48 48
48 48 48
44 44 44
44 44 44
48 48 48
48 48 48
44 44 44
48 48 48
44 44 44
44 44 44
44 44 44
48 48 48
48 48 48
40 40 40
48 48 48
44 44 44
48 48 48
44 44 44
44 44 44
48 48 48
48 48 48
44 44 44
48 48 48
48 48 48
44 44 44
44 44 44
48 48 48
40 40 40
48 48 48
44 44 44
48 48 48
44 44 44
48 48 48
44 44 44
44 44 44
48 48 48
44 44 44
44 44 44
44 44 44
48 48 48
44 44 44
40 40 40
44 44 44
44 44 44
44 44 44
44 44 44
44 44 44
48 48 48
44 44 44
48 48 48
44 44 44
44 44 44
48 48 48
44 44 44
44 44 44
44 44 44

48 48 48
44 44 44
48 48 48
48 48 48
44 44 44
44 44 44
48 48 48
40 40 40
40 40 40
48 48 48
48 48 48
40 40 40
44 44 44
44 44 44
48 48 48
44 44 44
40 40 40
44 44 44
48 48 48
44 44 44
48 48 48
44 44 44
44 44 44
44 44 44
48 48 48
44 44 44
48 48 48
44 44 44
48 48 48
44 44 44
44 44 44
48 48 48
44 44 44
48 48 48
48 48 48
44 44 44
48 48 48
44 44 44
44 44 44
44 44 44
48 48 48
44 44 44
44 44 44
48 48 48
44 44 44
48 48 48
44 44 44
44 44 44
44 44 44
48 48 48
44 44 44
44 44 44
48 48 48
44 44 44
44 44 44
48 48 48
48 48 48
44 44 44
48 48 48
48 48 48
44 44 44
48 48 48
48 48 48
48 48 48

48 48 48
48 48 48
44 44 44
44 44 44
48 48 48
44 44 44
44 44 44
48 48 48
48 48 48
44 44 44
48 48 48
48 48 48
48 48 48
48 48 48
48 48 48
40 40 40
44 44 44
44 44 44
48 48 48
48 48 48
44 44 44
48 48 48
44 44 44
44 44 44
44 44 44
48 48 48
48 48 48
44 44 44
48 48 48
48 48 48
44 44 44
44 44 44
44 44 44
48 48 48
44 44 44
48 48 48
44 44 44
48 48 48
44 44 44
48 48 48
48 48 48
48 48 48
44 44 44
44 44 44
44 44 44
48 48 48
48 48 48
48 48 48
44 44 44
48 48 48
48 48 48
48 48 48
44 44 44
48 48 48
48 48 48
48 48 48
44 44 44
44 44 44
48 48 48
44 44 44
48 48 48
44 44 44
48 48 48
48 48 48

44 44 44
48 48 48
48 48 48
48 48 48
44 44 44
48 48 48
48 48 48
44 44 44
48 48 48
48 48 48
48 48 48
48 48 48
48 48 48
44 44 44
48 48 48
48 48 48
44 44 44
44 44 44
44 44 44
44 44 44
48 48 48
48 48 48
48 48 48
48 48 48
44 44 44
48 48 48
48 48 48
48 48 48
44 44 44
48 48 48
48 48 48
48 48 48
48 48 48
48 48 48
48 48 48
48 48 48
48 48 48
44 44 44
48 48 48
48 48 48
44 44 44
48 48 48
48 48 48
48 48 48
48 48 48
44 44 44
48 48 48
48 48 48
44 44 44
44 44 44
48 48 48
48 48 48
44 44 44
48 48 48
48 48 48
44 44 44
48 48 48
44 44 44
48 48 48
44 44 44
44 44 44
48 48 48
48 48 48
48 48 48

48 48 48
48 48 48
48 48 48
48 48 48
48 48 48
44 44 44
48 48 48
48 48 48
48 48 48
48 48 48
48 48 48
44 44 44
48 48 48
44 44 44
48 48 48
48 48 48
48 48 48
48 48 48
48 48 48
48 48 48
44 44 44
48 48 48
48 48 48
48 48 48
48 48 48
48 48 48
48 48 48
48 48 48
48 48 48
48 48 48
48 48 48
48 48 48
44 44 44
48 48 48
48 48 48
44 44 44
48 48 48
44 44 44
48 48 48
44 44 44
48 48 48
48 48 48
48 48 48
48 48 48
44 44 44
48 48 48
48 48 48
48 48 48
48 48 48
48 48 48
44 44 44
48 48 48
48 48 48
48 48 48
44 44 44
44 44 44
48 48 48
48 48 48
48 48 48
48 48 48
48 48 48
44 44 44
48 48 48
48 48 48

48 48 48
48 48 48
48 48 48
48 48 48
48 48 48
48 48 48
48 48 48
48 48 48
48 48 48
48 48 48
48 48 48
48 48 48
48 48 48
48 48 48
48 48 48
48 48 48
48 48 48
48 48 48
48 48 48
44 44 44
48 48 48
48 48 48
48 48 48
48 48 48
48 48 48
44 44 44
48 48 48
48 48 48
48 48 48
48 48 48
44 44 44
48 48 48
48 48 48
48 48 48
44 44 44
48 48 48
48 48 48
48 48 48
48 48 48
48 48 48
48 48 48
48 48 48
48 48 48
48 48 48
48 48 48
48 48 48
48 48 48
48 48 48
44 44 44
48 48 48
48 48 48
48 48 48
48 48 48
48 48 48
48 48 48
48 48 48
48 48 48
48 48 48
48 48 48
48 48 48
48 48 48
48 48 48
48 48 48
48 48 48

48 48 48
48 48 48
48 48 48
48 48 48
48 48 48
48 48 48
48 48 48
48 48 48
48 48 48
48 48 48
48 48 48
48 48 48
48 48 48
48 48 48
48 48 48
48 48 48
48 48 48
48 48 48
48 48 48
48 48 48
48 48 48
48 48 48
48 48 48
48 48 48
48 48 48
48 48 48
48 48 48
48 48 48
48 48 48
48 48 48
48 48 48
48 48 48
48 48 48
48 48 48
48 48 48
48 48 48
48 48 48
48 48 48
48 48 48
48 48 48
48 48 48
48 48 48
48 48 48
48 48 48
48 48 48
48 48 48
48 48 48
48 48 48
48 48 48
48 48 48
48 48 48
48 48 48
48 48 48
48 48 48
48 48 48
48 48 48
48 48 48
48 48 48
48 48 48
48 48 48
48 48 48
48 48 48
48 48 48
48 48 48

48 48 48
48 48 48
48 48 48
48 48 48
48 48 48
48 48 48
48 48 48
48 48 48
48 48 48
48 48 48
48 48 48
48 48 48
48 48 48
48 48 48
48 48 48
48 48 48
48 48 48
48 48 48
48 48 48
48 48 48
48 48 48
48 48 48
48 48 48
48 48 48
48 48 48
48 48 48
48 48 48
48 48 48
48 48 48
48 48 48
48 48 48
48 48 48
48 48 48
48 48 48
48 48 48
48 48 48
48 48 48
48 48 48
48 48 48
48 48 48
48 48 48
48 48 48
48 48 48
48 48 48
48 48 48
48 48 48
48 48 48
48 48 48
48 48 48
48 48 48
48 48 48
48 48 48
48 48 48
48 48 48
48 48 48
48 48 48
48 48 48
48 48 48
48 48 48
48 48 48
48 48 48
48 48 48
48 48 48
48 48 48

48 48 48
48 48 48
48 48 48
48 48 48
48 48 48
48 48 48
48 48 48
48 48 48
48 48 48
48 48 48
48 48 48
48 48 48
48 48 48
48 48 48
48 48 48
48 48 48
48 48 48
48 48 48
48 48 48
48 48 48
48 48 48
48 48 48
48 48 48
48 48 48
48 48 48
48 48 48
48 48 48
48 48 48
48 48 48
48 48 48
48 48 48
48 48 48
48 48 48
48 48 48
48 48 48
48 48 48
48 48 48
48 48 48
48 48 48
48 48 48
48 48 48
48 48 48
48 48 48
48 48 48
48 48 48
48 48 48
48 48 48
48 48 48
48 48 48
48 48 48
48 48 48
48 48 48
48 48 48
48 48 48
48 48 48
48 48 48
48 48 48
48 48 48
48 48 48
48 48 48
48 48 48
48 48 48
48 48 48
48 48 48

48 48 48
48 48 48
48 48 48
48 48 48
48 48 48
48 48 48
48 48 48
48 48 48
48 48 48
48 48 48
48 48 48
48 48 48
48 48 48
48 48 48
48 48 48
48 48 48
48 48 48
48 48 48
48 48 48
48 48 48
48 48 48
48 48 48
48 48 48
48 48 48
48 48 48
48 48 48
48 48 48
48 48 48
48 48 48
48 48 48
48 48 48
48 48 48
48 48 48
48 48 48
48 48 48
48 48 48
48 48 48
48 48 48
48 48 48
48 48 48
48 48 48
48 48 48
48 48 48
48 48 48
48 48 48
48 48 48
48 48 48
48 48 48
48 48 48
48 48 48
48 48 48
48 48 48
48 48 48
48 48 48
48 48 48
48 48 48
48 48 48
48 48 48
48 48 48
48 48 48
48 48 48
48 48 48
48 48 48
48 48 48

48 48 48
48 48 48
48 48 48
48 48 48
48 48 48
48 48 48
48 48 48
48 48 48
48 48 48
48 48 48
48 48 48
48 48 48
48 48 48
48 48 48
48 48 48
48 48 48
48 48 48
48 48 48
48 48 48
48 48 48
48 48 48
48 48 48
48 48 48
48 48 48
48 48 48
48 48 48
48 48 48
48 48 48
48 48 48
48 48 48
48 48 48
48 48 48
48 48 48
48 48 48
48 48 48
48 48 48
48 48 48
48 48 48
48 48 48
48 48 48
48 48 48
48 48 48
48 48 48
48 48 48
48 48 48
48 48 48
48 48 48
48 48 48
48 48 48
48 48 48
48 48 48
48 48 48
48 48 48
48 48 48
48 48 48
48 48 48
48 48 48
48 48 48
48 48 48
48 48 48
48 48 48
48 48 48
48 48 48
48 48 48

48 48 48
48 48 48
48 48 48
48 48 48
48 48 48
48 48 48
48 48 48
48 48 48
48 48 48
48 48 48
48 48 48
48 48 48
48 48 48
48 48 48
48 48 48
48 48 48
48 48 48
48 48 48
48 48 48
48 48 48
48 48 48
48 48 48
48 48 48
48 48 48
48 48 48
48 48 48
48 48 48
48 48 48
48 48 48
48 48 48
48 48 48
48 48 48
48 48 48
48 48 48
48 48 48
48 48 48
48 48 48
48 48 48
48 48 48
48 48 48
48 48 48
48 48 48
48 48 48
48 48 48
48 48 48
48 48 48
48 48 48
48 48 48
48 48 48
48 48 48
48 48 48
48 48 48
48 48 48
48 48 48
48 48 48
48 48 48
48 48 48
48 48 48
48 48 48
48 48 48
48 48 48
48 48 48
48 48 48
48 48 48

48 48 48
48 48 48
48 48 48
48 48 48
48 48 48
48 48 48
48 48 48
48 48 48
48 48 48
48 48 48
48 48 48
48 48 48
48 48 48
48 48 48
48 48 48
48 48 48
48 48 48
48 48 48
48 48 48
48 48 48
48 48 48
48 48 48
48 48 48
48 48 48
48 48 48
48 48 48
48 48 48
48 48 48
48 48 48
48 48 48
48 48 48
48 48 48
48 48 48
48 48 48
48 48 48
48 48 48
48 48 48
48 48 48
48 48 48
48 48 48
48 48 48
48 48 48
48 48 48
48 48 48
48 48 48
48 48 48
48 48 48
48 48 48
48 48 48
48 48 48
48 48 48
48 48 48
48 48 48
48 48 48
48 48 48
48 48 48
48 48 48
48 48 48
48 48 48
48 48 48
48 48 48
48 48 48
48 48 48
48 48 48

48 48 48
48 48 48
48 48 48
48 48 48
48 48 48
48 48 48
48 48 48
48 48 48
48 48 48
48 48 48
48 48 48
48 48 48
48 48 48
48 48 48
48 48 48
48 48 48
48 48 48
48 48 48
48 48 48
48 48 48
48 48 48
48 48 48
48 48 48
48 48 48
48 48 48
48 48 48
48 48 48
48 48 48
48 48 48
48 48 48
48 48 48
48 48 48
48 48 48
48 48 48
48 48 48
48 48 48
48 48 48
48 48 48
48 48 48
48 48 48
48 48 48
48 48 48
48 48 48
48 48 48
48 48 48
48 48 48
48 48 48
48 48 48
48 48 48
48 48 48
48 48 48
48 48 48
48 48 48
48 48 48
48 48 48
48 48 48
48 48 48
48 48 48
48 48 48
48 48 48
48 48 48
48 48 48
48 48 48
48 48 48

56 56 56
56 56 56
56 56 56
56 56 56
56 56 56
56 56 56
56 56 56
56 56 56
56 56 56
56 56 56
56 56 56
56 56 56
56 56 56
56 56 56
56 56 56
56 56 56
56 56 56
56 56 56
56 56 56
56 56 56
56 56 56
56 56 56
56 56 56
56 56 56
56 56 56
56 56 56
56 56 56
56 56 56
56 56 56
56 56 56
56 56 56
56 56 56
56 56 56
56 56 56
56 56 56
56 56 56
56 56 56
56 56 56
56 56 56
56 56 56
56 56 56
56 56 56
56 56 56
56 56 56
56 56 56
56 56 56
56 56 56
56 56 56
56 56 56
56 56 56
56 56 56
56 56 56
56 56 56
56 56 56
56 56 56
56 56 56
56 56 56
56 56 56
56 56 56
56 56 56
56 56 56
56 56 56
56 56 56
56 56 56

72 72 72
72 72 72
72 72 72
72 72 72
72 72 72
72 72 72
72 72 72
72 72 72
72 72 72
72 72 72
72 72 72
72 72 72
72 72 72
72 72 72
72 72 72
72 72 72
72 72 72
72 72 72
72 72 72
72 72 72
72 72 72
72 72 72
72 72 72
72 72 72
72 72 72
72 72 72
72 72 72
72 72 72
72 72 72
72 72 72
72 72 72
72 72 72
72 72 72
72 72 72
72 72 72
72 72 72
72 72 72
72 72 72
72 72 72
72 72 72
72 72 72
72 72 72
72 72 72
72 72 72
72 72 72
72 72 72
72 72 72
72 72 72
72 72 72
72 72 72
72 72 72
72 72 72
72 72 72
72 72 72
72 72 72
72 72 72
72 72 72
72 72 72
72 72 72
72 72 72
72 72 72
72 72 72
72 72 72
72 72 72

76 76 76
76 76 76
76 76 76
76 76 76
76 76 76
76 76 76
76 76 76
76 76 76
76 76 76
76 76 76
76 76 76
76 76 76
76 76 76
76 76 76
76 76 76
76 76 76
76 76 76
76 76 76
76 76 76
76 76 76
76 76 76
76 76 76
76 76 76
76 76 76
76 76 76
76 76 76
76 76 76
76 76 76
76 76 76
76 76 76
76 76 76
76 76 76
76 76 76
76 76 76
76 76 76
76 76 76
76 76 76
76 76 76
76 76 76
76 76 76
76 76 76
76 76 76
76 76 76
76 76 76
76 76 76
76 76 76
76 76 76
76 76 76
76 76 76
76 76 76
76 76 76
76 76 76
76 76 76
76 76 76
76 76 76
76 76 76
76 76 76
76 76 76
76 76 76
76 76 76
76 76 76
76 76 76
76 76 76
76 76 76

84 84 84
84 84 84
84 84 84
84 84 84
84 84 84
84 84 84
84 84 84
84 84 84
84 84 84
84 84 84
84 84 84
84 84 84
84 84 84
84 84 84
84 84 84
84 84 84
84 84 84
84 84 84
84 84 84
84 84 84
84 84 84
84 84 84
84 84 84
84 84 84
84 84 84
84 84 84
84 84 84
84 84 84
84 84 84
84 84 84
84 84 84
84 84 84
84 84 84
84 84 84
84 84 84
84 84 84
84 84 84
84 84 84
84 84 84
84 84 84
84 84 84
84 84 84
84 84 84
84 84 84
84 84 84
84 84 84
84 84 84
84 84 84
84 84 84
84 84 84
84 84 84
84 84 84
84 84 84
84 84 84
84 84 84
84 84 84
84 84 84
84 84 84
84 84 84
84 84 84
84 84 84
84 84 84
84 84 84
84 84 84

92 92 92
92 92 92
92 92 92
92 92 92
92 92 92
92 92 92
92 92 92
92 92 92
92 92 92
92 92 92
92 92 92
92 92 92
92 92 92
92 92 92
92 92 92
92 92 92
92 92 92
92 92 92
92 92 92
92 92 92
92 92 92
92 92 92
92 92 92
92 92 92
92 92 92
92 92 92
92 92 92
92 92 92
92 92 92
92 92 92
92 92 92
92 92 92
92 92 92
92 92 92
92 92 92
92 92 92
92 92 92
92 92 92
92 92 92
92 92 92
92 92 92
92 92 92
92 92 92
92 92 92
92 92 92
92 92 92
92 92 92
92 92 92
92 92 92
92 92 92
92 92 92
92 92 92
92 92 92
92 92 92
92 92 92
92 92 92
92 92 92
92 92 92
92 92 92
92 92 92
92 92 92
92 92 92
92 92 92
92 92 92

100 100 100
100 100 100
100 100 100
100 100 100
100 100 100
100 100 100
100 100 100
100 100 100
100 100 100
100 100 100
100 100 100
100 100 100
100 100 100
100 100 100
100 100 100
100 100 100
100 100 100
100 100 100
100 100 100
100 100 100
100 100 100
100 100 100
100 100 100
100 100 100
100 100 100
100 100 100
100 100 100
100 100 100
100 100 100
100 100 100
100 100 100
100 100 100
100 100 100
100 100 100
100 100 100
100 100 100
100 100 100
100 100 100
100 100 100
100 100 100
100 100 100
100 100 100
100 100 100
100 100 100
100 100 100
100 100 100
100 100 100
100 100 100
100 100 100
100 100 100
100 100 100
100 100 100
100 100 100
100 100 100
100 100 100
100 100 100
100 100 100
100 100 100
100 100 100
100 100 100
100 100 100
100 100 100
100 100 100
100 100 100

112 112 112
112 112 112
112 112 112
112 112 112
112 112 112
112 112 112
112 112 112
112 112 112
112 112 112
112 112 112
112 112 112
112 112 112
112 112 112
112 112 112
112 112 112
112 112 112
112 112 112
112 112 112
112 112 112
112 112 112
112 112 112
112 112 112
112 112 112
112 112 112
112 112 112
112 112 112
112 112 112
112 112 112
112 112 112
112 112 112
112 112 112
112 112 112
112 112 112
112 112 112
112 112 112
112 112 112
112 112 112
112 112 112
112 112 112
112 112 112
112 112 112
112 112 112
112 112 112
112 112 112
112 112 112
112 112 112
112 112 112
112 112 112
112 112 112
112 112 112
112 112 112
112 112 112
112 112 112
112 112 112
112 112 112
112 112 112
112 112 112
112 112 112
112 112 112
112 112 112
112 112 112
112 112 112
112 112 112
112 112 112

112 112 112
112 112 112
112 112 112
112 112 112
112 112 112
112 112 112
112 112 112
112 112 112
112 112 112
112 112 112
112 112 112
112 112 112
112 112 112
112 112 112
112 112 112
112 112 112
112 112 112
112 112 112
112 112 112
112 112 112
112 112 112
112 112 112
112 112 112
112 112 112
112 112 112
112 112 112
112 112 112
112 112 112
112 112 112
112 112 112
112 112 112
112 112 112
112 112 112
112 112 112
112 112 112
112 112 112
112 112 112
112 112 112
112 112 112
112 112 112
112 112 112
112 112 112
112 112 112
112 112 112
112 112 112
112 112 112
112 112 112
112 112 112
112 112 112
112 112 112
112 112 112
112 112 112
112 112 112
112 112 112
112 112 112
112 112 112
112 112 112
112 112 112
112 112 112
112 112 112
112 112 112
112 112 112
112 112 112
112 112 112

