P3
# ASCII PPM file
64 64
255

56 56 56
56 56 56
56 56 56
56 56 56
56 56 56
56 56 56
56 56 56
56 56 56
56 56 56
56 56 56
56 56 56
56 56 56
56 56 56
56 56 56
56 56 56
56 56 56
56 56 56
56 56 56
56 56 56
56 56 56
56 56 56
56 56 56
56 56 56
56 56 56
56 56 56
56 56 56
56 56 56
56 56 56
56 56 56
56 56 56
56 56 56
56 56 56
56 56 56
56 56 56
56 56 56
56 56 56
56 56 56
56 56 56
56 56 56
56 56 56
56 56 56
56 56 56
56 56 56
56 56 56
56 56 56
56 56 56
56 56 56
56 56 56
56 56 56
56 56 56
56 56 56
56 56 56
56 56 56
56 56 56
56 56 56
56 56 56
56 56 56
56 56 56
56 56 56
56 56 56
56 56 56
56 56 56
56 56 56
56 56 56

84 84 84
56 56 56
84 84 84
72 72 72
72 72 72
72 72 72
72 72 72
72 72 72
84 84 84
72 72 72
72 72 72
72 72 72
72 72 72
72 72 72
72 72 72
84 84 84
72 72 72
56 56 56
72 72 72
72 72 72
72 72 72
72 72 72
72 72 72
72 72 72
72 72 72
84 84 84
84 84 84
84 84 84
84 84 84
84 84 84
84 84 84
72 72 72
72 72 72
72 72 72
72 72 72
72 72 72
72 72 72
72 72 72
72 72 72
72 72 72
84 84 84
84 84 84
84 84 84
84 84 84
84 84 84
84 84 84
84 84 84
72 72 72
72 72 72
72 72 72
72 72 72
56 56 56
56 56 56
56 56 56
72 72 72
72 72 72
84 84 84
84 84 84
72 72 72
72 72 72
72 72 72
72 72 72
72 72 72
56 56 56

56 56 56
236 0 0
236 0 0
212 0 0
212 0 0
212 0 0
212 0 0
212 0 0
212 0 0
212 0 0
212 0 0
212 0 0
164 0 0
72 72 72
72 72 72
84 84 84
236 0 0
236 0 0
212 0 0
212 0 0
212 0 0
212 0 0
212 0 0
212 0 0
212 0 0
212 0 0
212 0 0
212 0 0
212 0 0
212 0 0
212 0 0
212 0 0
212 0 0
212 0 0
212 0 0
212 0 0
164 0 0
72 72 72
56 56 56
84 84 84
236 0 0
236 0 0
236 0 0
236 0 0
224 0 0
224 0 0
224 0 0
224 0 0
224 0 0
224 0 0
212 0 0
212 0 0
212 0 0
212 0 0
212 0 0
200 0 0
200 0 0
200 0 0
200 0 0
188 0 0
188 0 0
188 0 0
164 0 0
72 72 72

72 72 72
236 0 0
200 0 0
176 0 0
176 0 0
212 0 0
136 0 0
164 0 0
212 0 0
136 0 0
200 0 0
164 0 0
100 0 0
44 44 44
72 72 72
84 84 84
236 0 0
188 0 0
136 0 0
188 0 0
136 0 0
188 0 0
136 0 0
188 0 0
124 0 0
188 0 0
152 0 0
188 0 0
152 0 0
188 0 0
124 0 0
188 0 0
124 0 0
188 0 0
200 0 0
164 0 0
112 0 0
44 44 44
72 72 72
56 56 56
212 0 0
164 0 0
200 0 0
176 0 0
200 0 0
176 0 0
176 0 0
200 0 0
112 0 0
200 0 0
124 0 0
200 0 0
176 0 0
200 0 0
136 0 0
176 0 0
164 0 0
124 0 0
200 0 0
152 0 0
200 0 0
164 0 0
124 0 0
44 44 44

72 72 72
212 0 0
164 0 0
124 0 0
164 0 0
136 0 0
164 0 0
152 0 0
112 0 0
164 0 0
136 0 0
112 0 0
100 0 0
44 44 44
72 72 72
84 84 84
212 0 0
188 0 0
136 0 0
136 0 0
164 0 0
136 0 0
112 0 0
164 0 0
164 0 0
112 0 0
152 0 0
164 0 0
164 0 0
112 0 0
152 0 0
164 0 0
112 0 0
164 0 0
152 0 0
112 0 0
88 0 0
44 44 44
72 72 72
84 84 84
212 0 0
164 0 0
164 0 0
124 0 0
100 0 0
164 0 0
136 0 0
112 0 0
136 0 0
164 0 0
124 0 0
136 0 0
164 0 0
164 0 0
136 0 0
164 0 0
124 0 0
136 0 0
164 0 0
88 0 0
164 0 0
112 0 0
100 0 0
44 44 44

72 72 72
212 0 0
124 0 0
164 0 0
164 0 0
112 0 0
152 0 0
164 0 0
164 0 0
112 0 0
164 0 0
88 0 0
64 0 0
44 44 44
72 72 72
84 84 84
212 0 0
136 0 0
188 0 0
164 0 0
136 0 0
164 0 0
112 0 0
164 0 0
136 0 0
164 0 0
112 0 0
164 0 0
112 0 0
136 0 0
124 0 0
164 0 0
112 0 0
152 0 0
124 0 0
112 0 0
88 0 0
44 44 44
72 72 72
72 72 72
212 0 0
112 0 0
164 0 0
100 0 0
136 0 0
164 0 0
100 0 0
164 0 0
112 0 0
164 0 0
124 0 0
164 0 0
136 0 0
164 0 0
100 0 0
164 0 0
152 0 0
124 0 0
164 0 0
124 0 0
164 0 0
112 0 0
76 0 0
44 44 44

72 72 72
200 0 0
164 0 0
124 0 0
136 0 0
152 0 0
124 0 0
164 0 0
112 0 0
136 0 0
164 0 0
112 0 0
64 0 0
44 44 44
72 72 72
84 84 84
188 0 0
188 0 0
136 0 0
164 0 0
136 0 0
136 0 0
152 0 0
164 0 0
112 0 0
112 108 0
156 156 0
204 196 0
204 196 0
204 196 0
204 196 0
180 172 0
156 156 0
180 172 0
204 196 0
204 196 0
204 196 0
204 196 0
204 196 0
112 108 0
188 0 0
112 0 0
164 0 0
124 0 0
164 0 0
136 0 0
100 0 0
164 0 0
112 0 0
112 0 0
164 0 0
164 0 0
112 0 0
164 0 0
136 0 0
164 0 0
164 0 0
124 0 0
164 0 0
88 0 0
164 0 0
136 0 0
76 0 0
44 44 44

72 72 72
188 0 0
124 0 0
164 0 0
164 0 0
112 0 0
164 0 0
152 0 0
112 0 0
152 0 0
112 0 0
88 0 0
64 0 0
44 44 44
72 72 72
72 72 72
188 0 0
200 0 0
136 0 0
164 0 0
112 0 0
164 0 0
112 0 0
156 156 0
156 156 0
112 108 0
132 132 0
180 172 0
204 196 0
204 196 0
180 172 0
156 156 0
228 216 0
228 216 0
228 216 0
228 216 0
228 216 0
228 216 0
228 216 0
180 172 0
156 156 0
156 156 0
164 0 0
100 0 0
136 0 0
164 0 0
124 0 0
136 0 0
112 0 0
136 0 0
124 0 0
164 0 0
136 0 0
164 0 0
100 0 0
164 0 0
124 0 0
136 0 0
164 0 0
124 0 0
164 0 0
112 0 0
64 0 0
44 44 44

72 72 72
188 0 0
164 0 0
112 0 0
136 0 0
88 0 0
112 0 0
124 0 0
88 0 0
112 0 0
136 0 0
112 0 0
64 0 0
44 44 44
56 56 56
84 84 84
152 0 0
152 0 0
112 0 0
112 0 0
76 0 0
112 108 0
112 108 0
156 156 0
156 156 0
112 108 0
112 108 0
112 108 0
180 172 0
180 172 0
132 132 0
204 196 0
204 196 0
204 196 0
204 196 0
204 196 0
204 196 0
112 108 0
88 84 0
112 108 0
156 156 0
156 156 0
112 108 0
112 108 0
112 0 0
112 0 0
76 0 0
136 0 0
76 0 0
112 0 0
88 0 0
136 0 0
76 0 0
112 0 0
76 0 0
136 0 0
100 0 0
76 0 0
112 0 0
136 0 0
112 0 0
136 0 0
64 0 0
44 44 44

72 72 72
124 0 0
100 0 0
100 0 0
100 0 0
64 0 0
64 0 0
64 0 0
64 0 0
64 0 0
64 0 0
64 0 0
64 0 0
44 44 44
56 56 56
72 72 72
124 0 0
100 0 0
100 0 0
112 108 0
156 156 0
156 156 0
112 108 0
88 84 0
88 84 0
132 132 0
228 216 0
132 132 0
112 108 0
180 172 0
132 132 0
180 172 0
180 172 0
180 172 0
180 172 0
228 216 0
252 244 0
204 196 0
228 216 0
132 132 0
88 84 0
88 84 0
112 108 0
156 156 0
156 156 0
112 108 0
100 0 0
100 0 0
100 0 0
100 0 0
100 0 0
88 0 0
88 0 0
88 0 0
88 0 0
88 0 0
88 0 0
88 0 0
88 0 0
88 0 0
64 0 0
64 0 0
64 0 0
44 44 44

72 72 72
72 72 72
44 44 44
44 44 44
44 44 44
44 44 44
44 44 44
44 44 44
44 44 44
44 44 44
32 32 32
32 32 32
32 32 32
44 44 44
56 56 56
84 84 84
72 72 72
44 44 44
88 84 0
132 132 0
156 156 0
156 156 0
228 216 0
228 216 0
228 216 0
228 216 0
228 216 0
204 196 0
132 132 0
112 108 0
156 156 0
156 156 0
156 156 0
156 156 0
156 156 0
252 244 0
156 156 0
204 196 0
204 196 0
156 156 0
228 216 0
228 216 0
112 108 0
156 156 0
156 156 0
132 132 0
88 84 0
44 44 44
44 44 44
44 44 44
44 44 44
44 44 44
32 32 32
32 32 32
32 32 32
32 32 32
32 32 32
44 44 44
44 44 44
44 44 44
44 44 44
44 44 44
44 44 44
44 44 44

84 84 84
56 56 56
56 56 56
56 56 56
56 56 56
72 72 72
72 72 72
72 72 72
72 72 72
56 56 56
56 56 56
56 56 56
56 56 56
56 56 56
72 72 72
56 56 56
72 72 72
88 84 0
88 84 0
88 84 0
88 84 0
112 108 0
228 216 0
228 216 0
252 244 0
252 244 0
132 132 0
132 132 0
156 156 0
112 108 0
132 132 0
132 132 0
132 132 0
132 132 0
132 132 0
88 84 0
156 156 0
132 132 0
132 132 0
252 244 0
252 244 0
180 172 0
228 216 0
112 108 0
88 84 0
88 84 0
88 84 0
88 84 0
92 92 92
84 84 84
84 84 84
72 72 72
72 72 72
64 64 64
56 56 56
64 64 64
84 84 84
56 56 56
84 84 84
72 72 72
72 72 72
72 72 72
84 84 84
56 56 56

236 0 0
212 0 0
212 0 0
212 0 0
188 0 0
188 0 0
188 0 0
188 0 0
188 0 0
188 0 0
188 0 0
188 0 0
188 0 0
188 0 0
188 0 0
164 0 0
88 84 0
156 156 0
156 156 0
112 108 0
228 216 0
228 216 0
228 216 0
204 196 0
132 132 0
132 132 0
112 108 0
204 196 0
64 64 0
112 108 0
112 108 0
112 108 0
112 108 0
112 108 0
112 108 0
88 84 0
204 196 0
204 196 0
112 108 0
132 132 0
132 132 0
204 196 0
156 156 0
228 216 0
228 216 0
112 108 0
156 156 0
156 156 0
88 84 0
76 0 0
112 0 0
188 0 0
164 0 0
72 72 72
64 64 64
84 84 84
236 0 0
236 0 0
212 0 0
212 0 0
212 0 0
212 0 0
212 0 0
212 0 0

176 0 0
136 0 0
136 0 0
176 0 0
152 0 0
124 0 0
176 0 0
124 0 0
152 0 0
136 0 0
176 0 0
100 0 0
176 0 0
136 0 0
164 0 0
156 156 0
156 156 0
88 84 0
156 156 0
88 84 0
228 216 0
252 244 0
252 244 0
132 132 0
156 156 0
156 156 0
180 172 0
112 108 0
64 64 0
88 84 0
88 84 0
88 84 0
88 84 0
88 84 0
88 84 0
156 156 0
88 84 0
112 108 0
180 172 0
156 156 0
156 156 0
132 132 0
252 244 0
252 244 0
228 216 0
88 84 0
156 156 0
88 84 0
156 156 0
156 156 0
76 0 0
76 0 0
112 0 0
56 56 56
72 72 72
56 56 56
236 0 0
200 0 0
124 0 0
176 0 0
136 0 0
176 0 0
136 0 0
176 0 0

136 0 0
164 0 0
136 0 0
164 0 0
124 0 0
136 0 0
136 0 0
100 0 0
164 0 0
136 0 0
100 0 0
136 0 0
164 0 0
164 0 0
88 84 0
156 156 0
156 156 0
88 84 0
88 84 0
88 84 0
180 172 0
132 132 0
132 132 0
112 108 0
112 108 0
204 196 0
204 196 0
88 84 0
64 64 0
64 64 0
64 64 0
64 64 0
64 64 0
64 64 0
64 64 0
156 156 0
156 156 0
88 84 0
204 196 0
204 196 0
112 108 0
112 108 0
132 132 0
132 132 0
180 172 0
88 84 0
88 84 0
88 84 0
156 156 0
156 156 0
88 84 0
76 0 0
64 0 0
56 56 56
72 72 72
84 84 84
200 0 0
176 0 0
124 0 0
164 0 0
136 0 0
124 0 0
164 0 0
152 0 0

112 0 0
164 0 0
164 0 0
136 0 0
152 0 0
100 0 0
164 0 0
124 0 0
136 0 0
136 0 0
152 0 0
100 0 0
164 0 0
88 84 0
88 84 0
88 84 0
88 84 0
132 132 0
204 196 0
132 132 0
88 84 0
132 132 0
156 156 0
132 132 0
88 84 0
88 84 0
88 84 0
88 84 0
64 64 0
64 64 0
64 64 0
64 64 0
64 64 0
64 64 0
64 64 0
132 132 0
132 132 0
88 84 0
88 84 0
88 84 0
88 84 0
132 132 0
156 156 0
132 132 0
88 84 0
132 132 0
204 196 0
132 132 0
88 84 0
88 84 0
88 84 0
88 84 0
64 0 0
32 32 32
64 64 64
72 72 72
200 0 0
124 0 0
164 0 0
164 0 0
164 0 0
124 0 0
164 0 0
124 0 0

164 0 0
136 0 0
136 0 0
164 0 0
136 0 0
124 0 0
124 0 0
136 0 0
124 0 0
164 0 0
152 0 0
100 0 0
156 156 0
156 156 0
88 84 0
88 84 0
132 132 0
204 196 0
228 216 0
228 216 0
88 84 0
112 108 0
204 196 0
204 196 0
88 84 0
156 156 0
112 108 0
64 64 0
64 64 0
32 32 32
32 32 32
32 32 32
112 108 0
44 44 44
44 44 44
64 64 0
64 64 0
64 64 0
156 156 0
156 156 0
88 84 0
204 196 0
204 196 0
112 108 0
88 84 0
228 216 0
132 132 0
204 196 0
132 132 0
88 84 0
88 84 0
156 156 0
156 156 0
32 32 32
32 32 32
72 72 72
200 0 0
176 0 0
124 0 0
164 0 0
124 0 0
164 0 0
152 0 0
124 0 0

112 0 0
164 0 0
100 0 0
164 0 0
112 0 0
136 0 0
124 0 0
152 0 0
100 0 0
164 0 0
100 0 0
136 0 0
156 156 0
156 156 0
88 84 0
228 216 0
228 216 0
228 216 0
132 132 0
64 64 0
112 108 0
88 84 0
88 84 0
88 84 0
88 84 0
112 108 0
32 32 32
32 32 32
32 32 32
32 32 32
32 32 32
112 108 0
132 132 0
180 172 0
44 44 44
44 44 44
44 44 44
44 44 44
132 132 0
88 84 0
88 84 0
88 84 0
88 84 0
88 84 0
112 108 0
64 64 0
228 216 0
132 132 0
228 216 0
228 216 0
88 84 0
156 156 0
156 156 0
32 32 32
32 32 32
72 72 72
176 0 0
124 0 0
164 0 0
164 0 0
88 0 0
164 0 0
124 0 0
136 0 0

112 0 0
176 0 0
100 0 0
112 0 0
76 0 0
124 0 0
112 0 0
152 0 0
112 0 0
152 0 0
112 0 0
64 64 0
64 64 0
64 64 0
132 132 0
180 172 0
228 216 0
132 132 0
228 216 0
156 156 0
112 108 0
156 156 0
156 156 0
112 108 0
88 84 0
32 32 32
32 32 32
32 32 32
32 32 32
32 32 32
112 108 0
132 132 0
132 132 0
132 132 0
252 244 0
44 44 44
44 44 44
44 44 44
44 44 44
44 44 44
88 84 0
112 108 0
156 156 0
156 156 0
112 108 0
156 156 0
228 216 0
228 216 0
132 132 0
228 216 0
132 132 0
64 64 0
64 64 0
64 64 0
0 0 0
32 32 32
176 0 0
164 0 0
124 0 0
112 0 0
88 0 0
112 0 0
152 0 0
112 0 0

64 0 0
76 0 0
76 0 0
76 0 0
76 0 0
76 0 0
76 0 0
76 0 0
76 0 0
76 0 0
76 0 0
88 84 0
64 64 0
228 216 0
180 172 0
228 216 0
132 132 0
156 156 0
132 132 0
64 64 0
88 84 0
88 84 0
156 156 0
112 108 0
32 32 32
32 32 32
32 32 32
32 32 32
32 32 32
112 108 0
132 132 0
132 132 0
132 132 0
132 132 0
180 172 0
156 156 0
44 44 44
56 56 56
44 44 44
44 44 44
44 44 44
156 156 0
156 156 0
88 84 0
88 84 0
64 64 0
132 132 0
156 156 0
228 216 0
132 132 0
228 216 0
228 216 0
64 64 0
88 84 0
0 0 0
32 32 32
164 0 0
100 0 0
64 0 0
100 0 0
64 0 0
64 0 0
100 0 0
64 0 0

44 44 44
44 44 44
44 44 44
32 32 32
44 44 44
44 44 44
44 44 44
32 32 32
32 32 32
32 32 32
156 156 0
156 156 0
132 132 0
204 196 0
156 156 0
228 216 0
132 132 0
180 172 0
228 216 0
112 108 0
156 156 0
88 84 0
88 84 0
32 32 32
32 32 32
32 32 32
32 32 32
32 32 32
112 108 0
132 132 0
132 132 0
132 132 0
132 132 0
132 132 0
88 84 0
44 44 44
44 44 44
56 56 56
56 56 56
44 44 44
44 44 44
44 44 44
88 84 0
88 84 0
156 156 0
112 108 0
228 216 0
228 216 0
204 196 0
132 132 0
156 156 0
204 196 0
132 132 0
156 156 0
156 156 0
0 0 0
32 32 32
32 32 32
32 32 32
32 32 32
44 44 44
44 44 44
44 44 44
44 44 44

84 84 84
84 84 84
72 72 72
56 56 56
56 56 56
72 72 72
84 84 84
56 56 56
84 84 84
56 56 56
156 156 0
156 156 0
132 132 0
112 108 0
228 216 0
228 216 0
132 132 0
156 156 0
204 196 0
88 84 0
112 108 0
156 156 0
32 32 32
32 32 32
32 32 32
32 32 32
32 32 32
112 108 0
132 132 0
132 132 0
132 132 0
132 132 0
132 132 0
88 84 0
44 44 44
44 44 44
84 84 84
84 84 84
84 84 84
56 56 56
44 44 44
44 44 44
44 44 44
156 156 0
112 108 0
88 84 0
204 196 0
156 156 0
156 156 0
204 196 0
132 132 0
112 108 0
132 132 0
156 156 0
156 156 0
0 0 0
32 32 32
32 32 32
56 56 56
64 64 64
84 84 84
72 72 72
72 72 72
72 72 72

84 84 84
236 0 0
236 0 0
212 0 0
212 0 0
212 0 0
212 0 0
212 0 0
212 0 0
212 0 0
112 108 0
88 84 0
228 216 0
228 216 0
228 216 0
132 132 0
180 172 0
112 108 0
88 84 0
156 156 0
88 84 0
32 32 32
32 32 32
32 32 32
32 32 32
32 32 32
112 108 0
132 132 0
132 132 0
132 132 0
132 132 0
132 132 0
88 84 0
44 44 44
44 44 44
84 84 84
84 84 84
252 244 0
252 244 0
84 84 84
56 56 56
44 44 44
44 44 44
44 44 44
88 84 0
156 156 0
88 84 0
112 108 0
228 216 0
228 216 0
132 132 0
228 216 0
228 216 0
88 84 0
112 108 0
76 0 0
88 0 0
112 0 0
188 0 0
188 0 0
188 0 0
188 0 0
164 0 0
72 72 72

84 84 84
236 0 0
136 0 0
176 0 0
188 0 0
124 0 0
188 0 0
124 0 0
188 0 0
132 132 0
112 108 0
88 84 0
228 216 0
180 172 0
228 216 0
132 132 0
180 172 0
228 216 0
88 84 0
156 156 0
112 108 0
32 32 32
32 32 32
32 32 32
32 32 32
112 108 0
132 132 0
132 132 0
132 132 0
132 132 0
132 132 0
88 84 0
44 44 44
44 44 44
56 56 56
84 84 84
252 244 0
180 172 0
180 172 0
252 244 0
84 84 84
56 56 56
44 44 44
44 44 44
156 156 0
156 156 0
88 84 0
228 216 0
228 216 0
204 196 0
228 216 0
156 156 0
228 216 0
88 84 0
112 108 0
132 132 0
76 0 0
76 0 0
100 0 0
164 0 0
88 0 0
164 0 0
64 0 0
44 44 44

56 56 56
236 0 0
176 0 0
136 0 0
164 0 0
152 0 0
164 0 0
124 0 0
112 0 0
156 156 0
112 108 0
88 84 0
180 172 0
204 196 0
228 216 0
132 132 0
180 172 0
204 196 0
88 84 0
88 84 0
32 32 32
32 32 32
32 32 32
32 32 32
112 108 0
132 132 0
132 132 0
132 132 0
132 132 0
132 132 0
88 84 0
44 44 44
44 44 44
56 56 56
84 84 84
252 244 0
180 172 0
132 132 0
132 132 0
180 172 0
252 244 0
56 56 56
56 56 56
44 44 44
44 44 44
88 84 0
88 84 0
204 196 0
180 172 0
180 172 0
228 216 0
132 132 0
180 172 0
88 84 0
112 108 0
156 156 0
76 0 0
64 0 0
76 0 0
112 0 0
124 0 0
112 0 0
64 0 0
44 44 44

72 72 72
188 0 0
100 0 0
164 0 0
164 0 0
112 0 0
136 0 0
88 0 0
164 0 0
156 156 0
156 156 0
88 84 0
88 84 0
112 108 0
112 108 0
180 172 0
180 172 0
64 64 0
112 108 0
112 108 0
32 32 32
32 32 32
32 32 32
32 32 32
88 84 0
112 108 0
132 132 0
132 132 0
132 132 0
132 132 0
132 132 0
180 172 0
88 84 0
56 56 56
252 244 0
180 172 0
132 132 0
132 132 0
132 132 0
132 132 0
180 172 0
252 244 0
56 56 56
44 44 44
44 44 44
112 108 0
112 108 0
64 64 0
180 172 0
180 172 0
112 108 0
112 108 0
88 84 0
88 84 0
156 156 0
156 156 0
64 0 0
64 0 0
76 0 0
76 0 0
88 0 0
112 0 0
64 0 0
44 44 44

72 72 72
188 0 0
176 0 0
136 0 0
164 0 0
76 0 0
164 0 0
88 0 0
112 0 0
156 156 0
132 132 0
88 84 0
64 64 0
112 108 0
112 108 0
112 108 0
64 64 0
156 156 0
156 156 0
88 84 0
32 32 32
32 32 32
32 32 32
44 44 44
56 56 56
88 84 0
112 108 0
132 132 0
132 132 0
132 132 0
132 132 0
180 172 0
252 244 0
252 244 0
180 172 0
132 132 0
132 132 0
132 132 0
132 132 0
132 132 0
132 132 0
180 172 0
252 244 0
56 56 56
44 44 44
88 84 0
156 156 0
156 156 0
64 64 0
112 108 0
112 108 0
112 108 0
64 64 0
88 84 0
132 132 0
156 156 0
76 0 0
76 0 0
64 0 0
76 0 0
112 0 0
112 0 0
64 0 0
44 44 44

84 84 84
188 0 0
112 0 0
100 0 0
164 0 0
76 0 0
136 0 0
124 0 0
164 0 0
156 156 0
88 84 0
88 84 0
88 84 0
228 216 0
228 216 0
64 64 0
156 156 0
156 156 0
156 156 0
32 32 32
32 32 32
112 108 0
156 156 0
44 44 44
56 56 56
56 56 56
88 84 0
112 108 0
132 132 0
132 132 0
132 132 0
132 132 0
180 172 0
180 172 0
132 132 0
132 132 0
132 132 0
88 84 0
132 132 0
132 132 0
132 132 0
132 132 0
180 172 0
252 244 0
44 44 44
44 44 44
156 156 0
156 156 0
156 156 0
64 64 0
228 216 0
228 216 0
88 84 0
88 84 0
88 84 0
156 156 0
64 0 0
64 0 0
76 0 0
76 0 0
112 0 0
112 0 0
64 0 0
44 44 44

72 72 72
200 0 0
164 0 0
100 0 0
112 0 0
112 0 0
112 0 0
88 0 0
112 0 0
132 132 0
88 84 0
88 84 0
112 108 0
228 216 0
156 156 0
88 84 0
88 84 0
88 84 0
88 84 0
32 32 32
112 108 0
132 132 0
132 132 0
252 244 0
56 56 56
56 56 56
56 56 56
88 84 0
112 108 0
132 132 0
132 132 0
132 132 0
132 132 0
132 132 0
132 132 0
132 132 0
88 84 0
44 44 44
88 84 0
132 132 0
132 132 0
132 132 0
132 132 0
180 172 0
252 244 0
44 44 44
88 84 0
88 84 0
88 84 0
88 84 0
180 172 0
204 196 0
112 108 0
88 84 0
88 84 0
132 132 0
76 0 0
64 0 0
76 0 0
76 0 0
112 0 0
112 0 0
64 0 0
44 44 44

72 72 72
164 0 0
152 0 0
100 0 0
100 0 0
100 0 0
100 0 0
100 0 0
100 0 0
88 84 0
112 108 0
180 172 0
180 172 0
228 216 0
132 132 0
228 216 0
228 216 0
112 108 0
112 108 0
112 108 0
156 156 0
132 132 0
132 132 0
180 172 0
252 244 0
56 56 56
56 56 56
56 56 56
88 84 0
112 108 0
132 132 0
132 132 0
132 132 0
132 132 0
132 132 0
88 84 0
44 44 44
44 44 44
44 44 44
88 84 0
132 132 0
132 132 0
132 132 0
132 132 0
132 132 0
88 84 0
112 108 0
112 108 0
228 216 0
228 216 0
204 196 0
156 156 0
228 216 0
228 216 0
112 108 0
88 84 0
64 0 0
64 0 0
64 0 0
76 0 0
112 0 0
88 0 0
64 0 0
44 44 44

72 72 72
72 72 72
56 56 56
44 44 44
44 44 44
44 44 44
44 44 44
44 44 44
44 44 44
88 84 0
112 108 0
204 196 0
228 216 0
228 216 0
132 132 0
180 172 0
156 156 0
88 84 0
156 156 0
44 44 44
88 84 0
132 132 0
132 132 0
132 132 0
180 172 0
252 244 0
56 56 56
56 56 56
56 56 56
156 156 0
132 132 0
132 132 0
132 132 0
132 132 0
132 132 0
132 132 0
252 244 0
44 44 44
56 56 56
44 44 44
88 84 0
132 132 0
132 132 0
132 132 0
88 84 0
44 44 44
156 156 0
88 84 0
156 156 0
180 172 0
204 196 0
156 156 0
156 156 0
204 196 0
112 108 0
88 84 0
0 0 0
0 0 0
0 0 0
32 32 32
32 32 32
32 32 32
44 44 44
44 44 44

84 84 84
84 84 84
84 84 84
84 84 84
84 84 84
72 72 72
72 72 72
56 56 56
72 72 72
88 84 0
64 64 0
112 108 0
228 216 0
228 216 0
132 132 0
132 132 0
88 84 0
88 84 0
156 156 0
44 44 44
44 44 44
88 84 0
132 132 0
132 132 0
132 132 0
180 172 0
252 244 0
56 56 56
252 244 0
132 132 0
132 132 0
132 132 0
132 132 0
132 132 0
132 132 0
132 132 0
156 156 0
252 244 0
56 56 56
56 56 56
44 44 44
88 84 0
132 132 0
88 84 0
44 44 44
44 44 44
156 156 0
88 84 0
88 84 0
156 156 0
228 216 0
132 132 0
156 156 0
112 108 0
64 64 0
88 84 0
32 32 32
32 32 32
32 32 32
32 32 32
72 72 72
72 72 72
84 84 84
56 56 56

188 0 0
188 0 0
188 0 0
188 0 0
188 0 0
188 0 0
188 0 0
188 0 0
188 0 0
156 156 0
88 84 0
64 64 0
112 108 0
156 156 0
132 132 0
228 216 0
228 216 0
112 108 0
112 108 0
88 84 0
44 44 44
44 44 44
88 84 0
132 132 0
132 132 0
132 132 0
180 172 0
252 244 0
180 172 0
132 132 0
132 132 0
132 132 0
88 84 0
132 132 0
132 132 0
132 132 0
132 132 0
156 156 0
252 244 0
56 56 56
56 56 56
44 44 44
88 84 0
56 56 56
56 56 56
112 108 0
112 108 0
112 108 0
228 216 0
228 216 0
228 216 0
132 132 0
112 108 0
64 64 0
88 84 0
156 156 0
76 0 0
88 0 0
100 0 0
112 0 0
188 0 0
188 0 0
188 0 0
188 0 0

164 0 0
176 0 0
164 0 0
176 0 0
152 0 0
200 0 0
176 0 0
176 0 0
200 0 0
156 156 0
156 156 0
112 108 0
180 172 0
180 172 0
228 216 0
132 132 0
180 172 0
88 84 0
156 156 0
112 108 0
44 44 44
44 44 44
44 44 44
88 84 0
132 132 0
132 132 0
132 132 0
180 172 0
132 132 0
132 132 0
132 132 0
88 84 0
44 44 44
88 84 0
132 132 0
132 132 0
132 132 0
132 132 0
156 156 0
252 244 0
56 56 56
56 56 56
56 56 56
56 56 56
72 72 72
156 156 0
156 156 0
88 84 0
180 172 0
180 172 0
228 216 0
132 132 0
228 216 0
112 108 0
156 156 0
156 156 0
76 0 0
76 0 0
64 0 0
76 0 0
112 0 0
164 0 0
112 0 0
164 0 0

164 0 0
124 0 0
136 0 0
164 0 0
152 0 0
164 0 0
124 0 0
164 0 0
136 0 0
88 84 0
88 84 0
112 108 0
204 196 0
228 216 0
204 196 0
132 132 0
132 132 0
88 84 0
88 84 0
88 84 0
44 44 44
44 44 44
44 44 44
44 44 44
88 84 0
132 132 0
132 132 0
132 132 0
132 132 0
132 132 0
88 84 0
44 44 44
44 44 44
44 44 44
156 156 0
132 132 0
132 132 0
132 132 0
132 132 0
156 156 0
156 156 0
56 56 56
72 72 72
72 72 72
84 84 84
88 84 0
88 84 0
88 84 0
132 132 0
180 172 0
204 196 0
132 132 0
204 196 0
112 108 0
88 84 0
88 84 0
64 0 0
76 0 0
76 0 0
76 0 0
112 0 0
152 0 0
136 0 0
112 0 0

136 0 0
124 0 0
164 0 0
152 0 0
124 0 0
164 0 0
124 0 0
152 0 0
164 0 0
112 0 0
88 84 0
64 64 0
112 108 0
228 216 0
228 216 0
132 132 0
228 216 0
132 132 0
88 84 0
132 132 0
88 84 0
44 44 44
44 44 44
44 44 44
44 44 44
88 84 0
132 132 0
132 132 0
132 132 0
88 84 0
44 44 44
44 44 44
44 44 44
252 244 0
132 132 0
132 132 0
132 132 0
132 132 0
132 132 0
88 84 0
44 44 44
44 44 44
56 56 56
84 84 84
112 108 0
132 132 0
132 132 0
132 132 0
228 216 0
228 216 0
132 132 0
156 156 0
112 108 0
64 64 0
88 84 0
64 0 0
76 0 0
64 0 0
76 0 0
76 0 0
112 0 0
124 0 0
164 0 0
112 0 0

164 0 0
136 0 0
124 0 0
164 0 0
152 0 0
164 0 0
152 0 0
124 0 0
136 0 0
112 0 0
112 108 0
88 84 0
64 64 0
112 108 0
156 156 0
228 216 0
132 132 0
180 172 0
228 216 0
88 84 0
132 132 0
44 44 44
44 44 44
44 44 44
44 44 44
44 44 44
88 84 0
132 132 0
88 84 0
44 44 44
44 44 44
44 44 44
252 244 0
156 156 0
132 132 0
132 132 0
132 132 0
132 132 0
88 84 0
44 44 44
44 44 44
56 56 56
56 56 56
72 72 72
132 132 0
88 84 0
228 216 0
180 172 0
180 172 0
228 216 0
132 132 0
112 108 0
64 64 0
88 84 0
112 108 0
64 0 0
76 0 0
64 0 0
64 0 0
76 0 0
112 0 0
124 0 0
112 0 0
136 0 0

164 0 0
136 0 0
124 0 0
164 0 0
124 0 0
164 0 0
124 0 0
152 0 0
164 0 0
112 0 0
180 172 0
132 132 0
88 84 0
180 172 0
228 216 0
228 216 0
132 132 0
228 216 0
156 156 0
88 84 0
156 156 0
112 108 0
44 44 44
56 56 56
44 44 44
44 44 44
44 44 44
88 84 0
44 44 44
44 44 44
44 44 44
252 244 0
156 156 0
132 132 0
132 132 0
132 132 0
132 132 0
88 84 0
44 44 44
44 44 44
56 56 56
72 72 72
84 84 84
112 108 0
156 156 0
88 84 0
156 156 0
228 216 0
204 196 0
132 132 0
228 216 0
228 216 0
88 84 0
132 132 0
180 172 0
64 0 0
64 0 0
64 0 0
76 0 0
76 0 0
112 0 0
136 0 0
164 0 0
112 0 0

112 0 0
112 0 0
136 0 0
152 0 0
112 0 0
112 0 0
152 0 0
112 0 0
112 0 0
112 0 0
132 132 0
112 108 0
88 84 0
204 196 0
180 172 0
228 216 0
132 132 0
132 132 0
64 64 0
64 64 0
88 84 0
112 108 0
112 108 0
56 56 56
56 56 56
44 44 44
44 44 44
44 44 44
44 44 44
44 44 44
252 244 0
156 156 0
132 132 0
132 132 0
132 132 0
132 132 0
88 84 0
44 44 44
44 44 44
56 56 56
72 72 72
84 84 84
112 108 0
156 156 0
156 156 0
64 64 0
64 64 0
132 132 0
132 132 0
132 132 0
180 172 0
204 196 0
88 84 0
112 108 0
132 132 0
64 0 0
76 0 0
64 0 0
76 0 0
112 0 0
124 0 0
164 0 0
164 0 0
112 0 0

64 0 0
64 0 0
76 0 0
76 0 0
76 0 0
76 0 0
76 0 0
76 0 0
76 0 0
64 0 0
64 0 0
88 84 0
64 64 0
112 108 0
228 216 0
156 156 0
112 108 0
112 108 0
88 84 0
112 108 0
112 108 0
88 84 0
156 156 0
156 156 0
72 72 72
56 56 56
44 44 44
44 44 44
44 44 44
156 156 0
156 156 0
132 132 0
132 132 0
132 132 0
132 132 0
88 84 0
44 44 44
44 44 44
56 56 56
72 72 72
84 84 84
112 108 0
156 156 0
88 84 0
88 84 0
112 108 0
88 84 0
112 108 0
112 108 0
156 156 0
228 216 0
112 108 0
64 64 0
88 84 0
64 0 0
64 0 0
64 0 0
64 0 0
76 0 0
88 0 0
88 0 0
88 0 0
88 0 0
64 0 0

44 44 44
44 44 44
44 44 44
44 44 44
44 44 44
44 44 44
44 44 44
44 44 44
44 44 44
44 44 44
44 44 44
88 84 0
88 84 0
64 64 0
112 108 0
112 108 0
64 64 0
228 216 0
156 156 0
112 108 0
228 216 0
228 216 0
88 84 0
88 84 0
112 108 0
72 72 72
72 72 72
72 72 72
56 56 56
44 44 44
88 84 0
132 132 0
132 132 0
132 132 0
88 84 0
44 44 44
44 44 44
56 56 56
72 72 72
72 72 72
112 108 0
88 84 0
88 84 0
204 196 0
204 196 0
112 108 0
156 156 0
228 216 0
64 64 0
112 108 0
112 108 0
64 64 0
88 84 0
88 84 0
0 0 0
0 0 0
0 0 0
32 32 32
32 32 32
32 32 32
32 32 32
44 44 44
44 44 44
44 44 44

84 84 84
72 72 72
84 84 84
56 56 56
72 72 72
56 56 56
56 56 56
72 72 72
72 72 72
56 56 56
56 56 56
56 56 56
88 84 0
112 108 0
88 84 0
88 84 0
88 84 0
112 108 0
228 216 0
228 216 0
228 216 0
204 196 0
112 108 0
112 108 0
88 84 0
180 172 0
84 84 84
84 84 84
72 72 72
44 44 44
44 44 44
88 84 0
132 132 0
88 84 0
44 44 44
44 44 44
56 56 56
56 56 56
112 108 0
156 156 0
88 84 0
112 108 0
112 108 0
204 196 0
228 216 0
204 196 0
228 216 0
112 108 0
88 84 0
88 84 0
88 84 0
112 108 0
88 84 0
0 0 0
0 0 0
32 32 32
32 32 32
32 32 32
32 32 32
56 56 56
84 84 84
56 56 56
84 84 84
56 56 56

56 56 56
236 0 0
212 0 0
212 0 0
212 0 0
212 0 0
212 0 0
212 0 0
212 0 0
188 0 0
188 0 0
112 0 0
76 0 0
156 156 0
156 156 0
132 132 0
88 84 0
132 132 0
112 108 0
228 216 0
228 216 0
132 132 0
180 172 0
228 216 0
88 84 0
156 156 0
112 108 0
204 196 0
156 156 0
44 44 44
44 44 44
44 44 44
88 84 0
44 44 44
44 44 44
132 132 0
180 172 0
204 196 0
204 196 0
156 156 0
88 84 0
156 156 0
180 172 0
132 132 0
204 196 0
132 132 0
112 108 0
132 132 0
88 84 0
132 132 0
156 156 0
156 156 0
76 0 0
76 0 0
88 0 0
88 0 0
112 0 0
112 0 0
188 0 0
188 0 0
188 0 0
188 0 0
164 0 0
72 72 72

84 84 84
212 0 0
164 0 0
136 0 0
136 0 0
164 0 0
100 0 0
164 0 0
164 0 0
124 0 0
152 0 0
112 0 0
76 0 0
112 108 0
156 156 0
132 132 0
88 84 0
112 108 0
156 156 0
132 132 0
228 216 0
228 216 0
228 216 0
228 216 0
204 196 0
132 132 0
132 132 0
112 108 0
204 196 0
204 196 0
204 196 0
204 196 0
132 132 0
204 196 0
204 196 0
204 196 0
204 196 0
204 196 0
132 132 0
88 84 0
204 196 0
180 172 0
228 216 0
204 196 0
132 132 0
132 132 0
156 156 0
112 108 0
88 84 0
132 132 0
156 156 0
112 108 0
64 0 0
76 0 0
76 0 0
76 0 0
76 0 0
124 0 0
152 0 0
112 0 0
136 0 0
164 0 0
64 0 0
44 44 44

72 72 72
212 0 0
164 0 0
100 0 0
164 0 0
136 0 0
100 0 0
164 0 0
136 0 0
152 0 0
124 0 0
164 0 0
100 0 0
76 0 0
112 108 0
88 84 0
88 84 0
112 108 0
204 196 0
156 156 0
112 108 0
228 216 0
228 216 0
228 216 0
156 156 0
204 196 0
228 216 0
112 108 0
156 156 0
180 172 0
204 196 0
132 132 0
228 216 0
228 216 0
228 216 0
228 216 0
228 216 0
132 132 0
156 156 0
180 172 0
112 108 0
204 196 0
204 196 0
132 132 0
112 108 0
156 156 0
204 196 0
112 108 0
88 84 0
88 84 0
112 108 0
76 0 0
64 0 0
76 0 0
76 0 0
76 0 0
76 0 0
112 0 0
152 0 0
164 0 0
100 0 0
136 0 0
64 0 0
44 44 44

72 72 72
212 0 0
136 0 0
100 0 0
164 0 0
100 0 0
136 0 0
112 0 0
100 0 0
164 0 0
100 0 0
164 0 0
112 0 0
76 0 0
76 0 0
88 84 0
112 108 0
88 84 0
88 84 0
112 108 0
156 156 0
132 132 0
132 132 0
228 216 0
228 216 0
228 216 0
228 216 0
132 132 0
112 108 0
180 172 0
132 132 0
204 196 0
204 196 0
204 196 0
204 196 0
204 196 0
204 196 0
132 132 0
180 172 0
228 216 0
204 196 0
132 132 0
132 132 0
180 172 0
156 156 0
112 108 0
88 84 0
88 84 0
112 108 0
88 84 0
76 0 0
64 0 0
76 0 0
64 0 0
64 0 0
76 0 0
124 0 0
164 0 0
112 0 0
136 0 0
100 0 0
164 0 0
64 0 0
44 44 44

56 56 56
212 0 0
164 0 0
136 0 0
164 0 0
136 0 0
100 0 0
164 0 0
136 0 0
124 0 0
152 0 0
164 0 0
124 0 0
88 0 0
76 0 0
76 0 0
112 108 0
180 172 0
132 132 0
64 64 0
204 196 0
132 132 0
112 108 0
132 132 0
132 132 0
228 216 0
228 216 0
156 156 0
112 108 0
180 172 0
132 132 0
180 172 0
180 172 0
180 172 0
180 172 0
180 172 0
180 172 0
132 132 0
204 196 0
204 196 0
132 132 0
180 172 0
112 108 0
156 156 0
204 196 0
64 64 0
132 132 0
180 172 0
112 108 0
76 0 0
76 0 0
64 0 0
64 0 0
76 0 0
64 0 0
76 0 0
88 0 0
124 0 0
112 0 0
164 0 0
136 0 0
164 0 0
64 0 0
44 44 44

84 84 84
212 0 0
164 0 0
100 0 0
136 0 0
164 0 0
100 0 0
164 0 0
100 0 0
164 0 0
100 0 0
164 0 0
100 0 0
112 0 0
76 0 0
76 0 0
76 0 0
112 108 0
88 84 0
88 84 0
64 64 0
64 64 0
64 64 0
156 156 0
180 172 0
132 132 0
132 132 0
132 132 0
112 108 0
132 132 0
156 156 0
156 156 0
156 156 0
156 156 0
156 156 0
156 156 0
156 156 0
112 108 0
132 132 0
132 132 0
180 172 0
156 156 0
64 64 0
64 64 0
64 64 0
88 84 0
88 84 0
112 108 0
76 0 0
76 0 0
64 0 0
64 0 0
76 0 0
64 0 0
76 0 0
124 0 0
88 0 0
124 0 0
152 0 0
136 0 0
100 0 0
112 0 0
64 0 0
44 44 44

56 56 56
200 0 0
164 0 0
100 0 0
164 0 0
100 0 0
136 0 0
112 0 0
136 0 0
152 0 0
124 0 0
164 0 0
136 0 0
136 0 0
112 0 0
76 0 0
76 0 0
76 0 0
76 0 0
88 84 0
156 156 0
132 132 0
64 64 0
204 196 0
204 196 0
156 156 0
88 84 0
132 132 0
112 108 0
132 132 0
156 156 0
156 156 0
156 156 0
156 156 0
156 156 0
156 156 0
156 156 0
88 84 0
88 84 0
156 156 0
204 196 0
204 196 0
64 64 0
132 132 0
156 156 0
88 84 0
76 0 0
64 0 0
64 0 0
64 0 0
76 0 0
64 0 0
76 0 0
76 0 0
112 0 0
88 0 0
124 0 0
152 0 0
112 0 0
164 0 0
100 0 0
164 0 0
64 0 0
44 44 44

84 84 84
164 0 0
100 0 0
100 0 0
100 0 0
100 0 0
100 0 0
100 0 0
100 0 0
100 0 0
100 0 0
76 0 0
76 0 0
76 0 0
76 0 0
76 0 0
76 0 0
76 0 0
76 0 0
76 0 0
112 108 0
156 156 0
88 84 0
64 64 0
88 84 0
88 84 0
88 84 0
88 84 0
88 84 0
132 132 0
132 132 0
132 132 0
132 132 0
132 132 0
132 132 0
132 132 0
132 132 0
88 84 0
112 108 0
88 84 0
88 84 0
64 64 0
88 84 0
156 156 0
112 108 0
64 0 0
64 0 0
64 0 0
64 0 0
64 0 0
64 0 0
64 0 0
64 0 0
64 0 0
76 0 0
76 0 0
76 0 0
76 0 0
76 0 0
76 0 0
76 0 0
64 0 0
64 0 0
44 44 44

56 56 56
72 72 72
44 44 44
44 44 44
44 44 44
44 44 44
44 44 44
44 44 44
44 44 44
44 44 44
44 44 44
44 44 44
56 56 56
56 56 56
56 56 56
44 44 44
32 32 32
0 0 0
0 0 0
0 0 0
0 0 0
0 0 0
88 84 0
112 108 0
112 108 0
112 108 0
132 132 0
88 84 0
88 84 0
112 108 0
112 108 0
112 108 0
112 108 0
112 108 0
112 108 0
112 108 0
112 108 0
88 84 0
132 132 0
112 108 0
112 108 0
112 108 0
88 84 0
0 0 0
0 0 0
0 0 0
0 0 0
0 0 0
0 0 0
32 32 32
32 32 32
44 44 44
32 32 32
44 44 44
44 44 44
32 32 32
32 32 32
32 32 32
44 44 44
44 44 44
44 44 44
44 44 44
44 44 44
44 44 44

84 84 84
56 56 56
84 84 84
56 56 56
84 84 84
72 72 72
84 84 84
72 72 72
72 72 72
72 72 72
72 72 72
84 84 84
100 100 100
100 100 100
84 84 84
72 72 72
56 56 56
56 56 56
44 44 44
32 32 32
32 32 32
0 0 0
0 0 0
0 0 0
132 132 0
132 132 0
132 132 0
88 84 0
88 84 0
88 84 0
88 84 0
88 84 0
88 84 0
88 84 0
88 84 0
88 84 0
88 84 0
88 84 0
132 132 0
132 132 0
132 132 0
0 0 0
0 0 0
0 0 0
0 0 0
0 0 0
32 32 32
32 32 32
44 44 44
32 32 32
44 44 44
44 44 44
44 44 44
56 56 56
56 56 56
48 48 48
32 32 32
32 32 32
48 48 48
56 56 56
72 72 72
72 72 72
84 84 84
72 72 72

212 0 0
212 0 0
212 0 0
212 0 0
212 0 0
188 0 0
188 0 0
188 0 0
188 0 0
188 0 0
188 0 0
188 0 0
188 0 0
188 0 0
188 0 0
188 0 0
188 0 0
164 0 0
72 72 72
56 56 56
44 44 44
100 0 0
88 0 0
88 0 0
76 0 0
64 0 0
64 0 0
64 0 0
64 64 0
64 64 0
64 64 0
64 64 0
64 64 0
64 64 0
64 64 0
64 64 0
64 64 0
64 0 0
64 0 0
64 0 0
64 0 0
64 0 0
76 0 0
76 0 0
76 0 0
76 0 0
64 0 0
32 32 32
32 32 32
44 44 44
236 0 0
212 0 0
212 0 0
212 0 0
212 0 0
212 0 0
188 0 0
188 0 0
188 0 0
188 0 0
188 0 0
188 0 0
188 0 0
188 0 0

124 0 0
164 0 0
88 0 0
164 0 0
164 0 0
100 0 0
152 0 0
100 0 0
164 0 0
124 0 0
200 0 0
124 0 0
164 0 0
100 0 0
164 0 0
124 0 0
164 0 0
64 0 0
44 44 44
72 72 72
56 56 56
212 0 0
76 0 0
76 0 0
76 0 0
76 0 0
76 0 0
76 0 0
64 0 0
64 0 0
64 0 0
64 0 0
64 0 0
64 0 0
64 0 0
64 0 0
64 0 0
64 0 0
64 0 0
64 0 0
64 0 0
64 0 0
64 0 0
64 0 0
64 0 0
64 0 0
64 0 0
32 32 32
44 44 44
44 44 44
212 0 0
164 0 0
100 0 0
136 0 0
164 0 0
88 0 0
164 0 0
112 0 0
164 0 0
112 0 0
164 0 0
100 0 0
164 0 0
112 0 0

164 0 0
124 0 0
124 0 0
164 0 0
124 0 0
164 0 0
100 0 0
152 0 0
124 0 0
100 0 0
164 0 0
88 0 0
124 0 0
100 0 0
136 0 0
100 0 0
136 0 0
64 0 0
44 44 44
72 72 72
72 72 72
212 0 0
124 0 0
112 0 0
76 0 0
76 0 0
76 0 0
76 0 0
76 0 0
64 0 0
76 0 0
64 0 0
76 0 0
64 0 0
64 0 0
64 0 0
76 0 0
64 0 0
76 0 0
64 0 0
64 0 0
64 0 0
76 0 0
64 0 0
64 0 0
76 0 0
64 0 0
32 32 32
44 44 44
44 44 44
212 0 0
100 0 0
164 0 0
88 0 0
164 0 0
112 0 0
164 0 0
112 0 0
136 0 0
164 0 0
112 0 0
164 0 0
136 0 0
76 0 0

164 0 0
124 0 0
88 0 0
124 0 0
164 0 0
100 0 0
152 0 0
100 0 0
124 0 0
164 0 0
124 0 0
88 0 0
164 0 0
136 0 0
100 0 0
152 0 0
124 0 0
64 0 0
44 44 44
72 72 72
64 64 64
212 0 0
124 0 0
124 0 0
112 0 0
112 0 0
100 0 0
76 0 0
76 0 0
64 0 0
76 0 0
64 0 0
64 0 0
76 0 0
64 0 0
64 0 0
76 0 0
64 0 0
64 0 0
64 0 0
76 0 0
64 0 0
64 0 0
64 0 0
76 0 0
76 0 0
64 0 0
32 32 32
44 44 44
56 56 56
212 0 0
100 0 0
164 0 0
112 0 0
112 0 0
164 0 0
164 0 0
136 0 0
112 0 0
136 0 0
112 0 0
100 0 0
112 0 0
136 0 0

124 0 0
152 0 0
88 0 0
152 0 0
100 0 0
100 0 0
164 0 0
100 0 0
164 0 0
124 0 0
164 0 0
88 0 0
124 0 0
112 0 0
100 0 0
164 0 0
100 0 0
64 0 0
44 44 44
72 72 72
64 64 64
212 0 0
164 0 0
76 0 0
112 0 0
164 0 0
100 0 0
112 0 0
76 0 0
112 0 0
76 0 0
64 0 0
76 0 0
76 0 0
76 0 0
64 0 0
76 0 0
64 0 0
76 0 0
76 0 0
64 0 0
76 0 0
76 0 0
76 0 0
76 0 0
76 0 0
64 0 0
44 44 44
56 56 56
72 72 72
212 0 0
164 0 0
100 0 0
88 0 0
164 0 0
136 0 0
112 0 0
112 0 0
164 0 0
112 0 0
164 0 0
100 0 0
112 0 0
164 0 0

100 0 0
164 0 0
124 0 0
164 0 0
100 0 0
164 0 0
100 0 0
136 0 0
164 0 0
100 0 0
164 0 0
124 0 0
88 0 0
136 0 0
164 0 0
124 0 0
136 0 0
64 0 0
44 44 44
72 72 72
64 64 64
212 0 0
76 0 0
164 0 0
164 0 0
100 0 0
164 0 0
124 0 0
112 0 0
136 0 0
88 0 0
124 0 0
76 0 0
112 0 0
76 0 0
112 0 0
100 0 0
76 0 0
88 0 0
100 0 0
76 0 0
112 0 0
88 0 0
124 0 0
112 0 0
100 0 0
64 0 0
44 44 44
72 72 72
72 72 72
212 0 0
100 0 0
164 0 0
136 0 0
164 0 0
112 0 0
164 0 0
136 0 0
112 0 0
112 0 0
88 0 0
164 0 0
112 0 0
164 0 0

100 0 0
164 0 0
124 0 0
124 0 0
100 0 0
152 0 0
152 0 0
100 0 0
152 0 0
100 0 0
124 0 0
88 0 0
164 0 0
100 0 0
164 0 0
100 0 0
152 0 0
64 0 0
44 44 44
72 72 72
72 72 72
212 0 0
76 0 0
164 0 0
112 0 0
164 0 0
100 0 0
124 0 0
124 0 0
136 0 0
76 0 0
152 0 0
100 0 0
76 0 0
76 0 0
100 0 0
124 0 0
88 0 0
88 0 0
136 0 0
76 0 0
164 0 0
88 0 0
164 0 0
88 0 0
136 0 0
64 0 0
44 44 44
56 56 56
72 72 72
212 0 0
100 0 0
164 0 0
88 0 0
112 0 0
88 0 0
164 0 0
112 0 0
164 0 0
112 0 0
88 0 0
100 0 0
164 0 0
76 0 0

124 0 0
152 0 0
88 0 0
164 0 0
100 0 0
100 0 0
136 0 0
100 0 0
124 0 0
124 0 0
164 0 0
88 0 0
164 0 0
100 0 0
112 0 0
136 0 0
124 0 0
64 0 0
44 44 44
72 72 72
84 84 84
200 0 0
164 0 0
76 0 0
112 0 0
164 0 0
100 0 0
164 0 0
76 0 0
136 0 0
100 0 0
164 0 0
76 0 0
124 0 0
112 0 0
100 0 0
164 0 0
100 0 0
124 0 0
164 0 0
100 0 0
136 0 0
112 0 0
136 0 0
100 0 0
136 0 0
64 0 0
44 44 44
56 56 56
72 72 72
200 0 0
100 0 0
100 0 0
88 0 0
164 0 0
88 0 0
164 0 0
112 0 0
164 0 0
112 0 0
164 0 0
100 0 0
164 0 0
112 0 0

76 0 0
76 0 0
76 0 0
76 0 0
76 0 0
76 0 0
76 0 0
76 0 0
76 0 0
76 0 0
76 0 0
76 0 0
76 0 0
76 0 0
76 0 0
76 0 0
64 0 0
64 0 0
44 44 44
72 72 72
72 72 72
164 0 0
64 0 0
64 0 0
64 0 0
64 0 0
64 0 0
76 0 0
76 0 0
76 0 0
76 0 0
76 0 0
76 0 0
76 0 0
76 0 0
76 0 0
76 0 0
76 0 0
76 0 0
76 0 0
76 0 0
76 0 0
76 0 0
76 0 0
76 0 0
64 0 0
64 0 0
32 32 32
72 72 72
84 84 84
164 0 0
64 0 0
64 0 0
76 0 0
76 0 0
76 0 0
76 0 0
76 0 0
76 0 0
76 0 0
76 0 0
76 0 0
76 0 0
76 0 0

44 44 44
44 44 44
44 44 44
44 44 44
44 44 44
44 44 44
44 44 44
44 44 44
44 44 44
44 44 44
44 44 44
44 44 44
44 44 44
44 44 44
44 44 44
44 44 44
44 44 44
44 44 44
44 44 44
72 72 72
84 84 84
72 72 72
56 56 56
52 52 52
52 52 52
44 44 44
44 44 44
44 44 44
44 44 44
44 44 44
44 44 44
44 44 44
44 44 44
44 44 44
44 44 44
44 44 44
44 44 44
44 44 44
44 44 44
32 32 32
32 32 32
32 32 32
32 32 32
32 32 32
44 44 44
32 32 32
32 32 32
32 32 32
56 56 56
72 72 72
72 72 72
44 44 44
44 44 44
44 44 44
44 44 44
44 44 44
44 44 44
32 32 32
32 32 32
32 32 32
32 32 32
32 32 32
44 44 44
44 44 44

56 56 56
84 84 84
56 56 56
84 84 84
56 56 56
56 56 56
56 56 56
72 72 72
72 72 72
72 72 72
72 72 72
72 72 72
84 84 84
84 84 84
56 56 56
72 72 72
72 72 72
72 72 72
72 72 72
84 84 84
84 84 84
84 84 84
84 84 84
84 84 84
72 72 72
72 72 72
72 72 72
84 84 84
72 72 72
72 72 72
72 72 72
84 84 84
72 72 72
72 72 72
56 56 56
72 72 72
72 72 72
72 72 72
64 64 64
56 56 56
56 56 56
64 64 64
56 56 56
56 56 56
64 64 64
72 72 72
64 64 64
56 56 56
64 64 64
84 84 84
72 72 72
72 72 72
56 56 56
84 84 84
72 72 72
72 72 72
72 72 72
72 72 72
64 64 64
56 56 56
64 64 64
72 72 72
72 72 72
72 72 72

84 84 84
84 84 84
84 84 84
84 84 84
84 84 84
84 84 84
84 84 84
84 84 84
84 84 84
84 84 84
84 84 84
84 84 84
84 84 84
84 84 84
84 84 84
84 84 84
84 84 84
84 84 84
84 84 84
84 84 84
84 84 84
84 84 84
84 84 84
84 84 84
84 84 84
84 84 84
84 84 84
84 84 84
84 84 84
84 84 84
84 84 84
84 84 84
84 84 84
84 84 84
84 84 84
84 84 84
84 84 84
84 84 84
84 84 84
84 84 84
84 84 84
84 84 84
84 84 84
84 84 84
84 84 84
84 84 84
84 84 84
84 84 84
84 84 84
84 84 84
84 84 84
84 84 84
84 84 84
84 84 84
84 84 84
84 84 84
84 84 84
84 84 84
84 84 84
84 84 84
84 84 84
84 84 84
84 84 84
84 84 84

