P3
# ASCII PPM file
64 64
255

80 0 80
80 0 80
80 0 80
32 32 32
64 0 64
64 0 64
64 0 64
32 32 32
64 0 64
80 0 80
88 0 88
64 0 64
80 0 80
32 32 32
64 0 64
64 0 64
64 0 64
64 0 64
64 0 64
32 32 32
80 0 80
80 0 80
80 0 80
80 0 80
80 0 80
80 0 80
72 0 72
32 32 32
64 0 64
64 0 64
64 0 64
64 0 64
64 0 64
64 0 64
64 0 64
32 32 32
72 0 72
80 0 80
88 0 88
88 0 88
80 0 80
72 0 72
64 0 64
32 32 32
64 0 64
64 0 64
64 0 64
64 0 64
64 0 64
64 0 64
64 0 64
64 0 64
64 0 64
64 0 64
32 32 32
32 32 32
64 0 64
64 0 64
64 0 64
64 0 64
64 0 64
64 0 64
64 0 64
64 0 64

64 48 24
88 0 88
88 0 88
80 0 80
32 32 32
32 32 32
32 32 32
64 0 64
80 0 80
88 0 88
80 0 80
80 0 80
64 0 64
64 0 64
32 32 32
64 0 64
64 0 64
32 32 32
32 32 32
80 0 80
88 0 88
108 0 112
72 56 24
72 56 24
72 56 24
64 48 24
80 0 80
64 0 64
32 32 32
32 32 32
64 0 64
64 0 64
32 32 32
32 32 32
64 0 64
64 0 64
80 0 80
88 0 88
88 0 88
88 0 88
88 0 88
80 0 80
88 0 88
80 0 80
32 32 32
64 0 64
64 0 64
64 0 64
64 0 64
64 0 64
64 0 64
64 0 64
32 32 32
64 0 64
64 0 64
72 0 72
80 0 80
88 0 88
88 0 88
72 56 24
72 56 24
72 56 24
72 56 24
72 56 24

72 56 24
64 48 24
88 0 88
88 0 88
88 0 88
80 0 80
32 32 32
64 0 64
80 0 80
80 0 80
64 0 64
80 0 80
80 0 80
80 0 80
64 0 64
32 32 32
32 32 32
64 0 64
64 0 64
88 0 88
108 0 112
72 56 24
72 56 24
64 48 24
64 48 24
64 48 24
64 48 24
72 0 72
64 0 64
64 0 64
32 32 32
32 32 32
64 0 64
64 0 64
64 0 64
64 0 64
80 0 80
88 0 88
88 0 88
88 0 88
80 0 80
88 0 88
80 0 80
80 0 80
64 0 64
32 32 32
32 32 32
64 0 64
64 0 64
64 0 64
32 32 32
32 32 32
64 0 64
64 0 64
64 0 64
80 0 80
88 0 88
88 0 88
72 56 24
72 56 24
72 56 24
72 56 24
72 56 24
72 56 24

64 48 24
64 48 24
64 48 24
88 0 88
80 0 80
72 0 72
64 0 64
64 0 64
64 0 64
64 0 64
80 0 80
80 0 80
64 0 64
64 0 64
28 28 28
32 32 32
64 0 64
64 0 64
64 0 64
88 0 88
108 0 112
72 56 24
64 48 24
72 0 72
72 0 72
72 0 72
64 48 24
80 0 80
64 0 64
64 0 64
64 0 64
64 0 64
72 0 72
72 0 72
72 0 72
64 0 64
80 0 80
88 0 88
80 0 80
88 0 88
80 0 80
80 0 80
72 0 72
64 0 64
64 0 64
64 0 64
64 0 64
32 32 32
64 0 64
64 0 64
32 32 32
64 0 64
64 0 64
64 0 64
64 0 64
80 0 80
88 0 88
72 56 24
72 56 24
72 56 24
72 56 24
56 44 20
56 44 20
64 0 64

88 0 88
64 48 24
40 32 12
80 0 80
88 0 88
80 0 80
72 0 72
64 0 64
64 0 64
64 0 64
64 0 64
64 0 64
64 0 64
32 32 32
32 32 32
64 0 64
64 0 64
64 0 64
64 0 64
80 0 80
88 0 88
88 0 88
72 0 72
64 0 64
80 0 80
88 0 88
72 56 24
80 0 80
64 0 64
64 0 64
64 48 24
64 48 24
64 48 24
88 0 88
80 0 80
72 0 72
64 0 64
80 0 80
88 0 88
80 0 80
72 0 72
64 0 64
64 48 24
64 48 24
72 56 24
64 48 24
64 48 24
64 48 24
56 44 20
56 44 20
56 44 20
40 32 12
64 0 64
64 0 64
64 0 64
80 0 80
88 0 88
72 56 24
72 56 24
72 56 24
56 44 20
64 0 64
56 44 20
80 0 80

88 0 88
64 48 24
56 44 20
88 0 88
88 0 88
80 0 80
80 0 80
72 0 72
80 0 80
80 0 80
88 0 88
88 0 88
88 0 88
88 0 88
88 0 88
80 0 80
80 0 80
72 0 72
64 0 64
64 0 64
80 0 80
88 0 88
80 0 80
88 0 88
88 0 88
80 0 80
56 44 20
72 0 72
64 0 64
64 48 24
72 56 24
72 56 24
72 56 24
64 48 24
88 0 88
80 0 80
64 0 64
64 0 64
80 0 80
40 32 12
56 44 20
64 48 24
72 56 24
72 56 24
72 56 24
72 56 24
72 56 24
64 48 24
64 48 24
64 48 24
48 36 16
64 48 24
56 44 20
64 0 64
64 0 64
80 0 80
88 0 88
80 0 80
72 56 24
64 48 24
56 44 20
80 0 80
56 44 20
88 0 88

80 0 80
88 0 88
64 48 24
80 0 80
88 0 88
80 0 80
88 0 88
80 0 80
88 0 88
88 0 88
88 0 88
88 0 88
72 56 24
80 0 80
80 0 80
88 0 88
88 0 88
80 0 80
80 0 80
64 0 64
72 0 72
80 0 80
72 0 72
88 0 88
80 0 80
80 0 80
40 32 12
64 0 64
64 48 24
72 56 24
72 56 24
56 44 20
56 44 20
64 48 24
88 0 88
80 0 80
64 0 64
48 36 16
56 44 20
72 56 24
72 56 24
84 60 28
72 56 24
72 56 24
72 56 24
64 48 24
56 44 20
56 44 20
40 32 12
56 44 20
40 32 12
48 36 16
64 48 24
48 36 16
64 0 64
72 0 72
80 0 80
88 0 88
72 56 24
64 48 24
48 36 16
88 0 88
56 44 20
80 0 80

88 0 88
88 0 88
64 48 24
88 0 88
80 0 80
80 0 80
80 0 80
88 0 88
64 48 24
84 60 28
88 0 88
72 56 24
64 48 24
80 0 80
72 0 72
80 0 80
80 0 80
80 0 80
88 0 88
80 0 80
64 0 64
64 0 64
64 0 64
72 0 72
80 0 80
64 0 64
40 32 12
64 0 64
72 56 24
64 48 24
56 44 20
64 0 64
64 0 64
56 44 20
80 0 80
64 0 64
40 32 12
56 44 20
72 56 24
84 60 28
84 60 28
84 60 28
84 60 28
84 60 28
72 56 24
48 36 16
56 44 20
40 32 12
0 0 0
56 44 20
64 0 64
64 0 64
64 48 24
48 36 16
40 32 12
64 0 64
72 0 72
88 0 88
72 56 24
64 48 24
48 36 16
88 0 88
56 44 20
64 0 64

80 0 80
88 0 88
64 48 24
80 0 80
64 0 64
80 0 80
88 0 88
64 48 24
84 60 28
84 60 28
72 56 24
64 48 24
56 44 20
80 0 80
64 0 64
64 0 64
64 0 64
72 0 72
80 0 80
80 0 80
64 0 64
80 0 80
72 0 72
64 0 64
80 0 80
80 0 80
64 48 24
80 0 80
64 48 24
64 48 24
64 0 64
88 0 88
80 0 80
48 36 16
88 0 88
80 0 80
56 44 20
72 56 24
84 60 28
84 60 28
92 64 32
92 64 32
84 60 28
84 60 28
72 56 24
40 32 12
0 0 0
40 32 12
64 0 64
56 44 20
80 0 80
80 0 80
56 44 20
64 0 64
48 36 16
64 0 64
64 0 64
80 0 80
64 48 24
56 44 20
48 36 16
80 0 80
56 44 20
64 0 64

72 0 72
80 0 80
64 48 24
64 0 64
80 0 80
88 0 88
88 0 88
84 60 28
84 60 28
72 56 24
64 48 24
64 48 24
56 44 20
80 0 80
64 0 64
72 0 72
80 0 80
64 0 64
64 0 64
64 0 64
64 0 64
72 0 72
80 0 80
80 0 80
80 0 80
80 0 80
56 44 20
64 0 64
64 48 24
64 48 24
80 0 80
88 0 88
88 0 88
48 36 16
80 0 80
48 36 16
72 56 24
56 44 20
40 32 12
92 64 32
92 64 32
84 60 28
84 60 28
72 56 24
64 48 24
40 32 12
64 0 64
40 32 12
64 0 64
56 44 20
88 0 88
88 0 88
56 44 20
80 0 80
48 36 16
64 0 64
64 0 64
72 0 72
64 48 24
56 44 20
48 36 16
88 0 88
56 44 20
64 0 64

64 0 64
72 0 72
56 44 20
80 0 80
80 0 80
88 0 88
108 0 112
84 60 28
72 56 24
64 48 24
64 48 24
56 44 20
48 36 16
80 0 80
64 0 64
80 0 80
80 0 80
64 48 24
64 48 24
64 48 24
56 44 20
40 32 12
64 0 64
64 0 64
64 0 64
80 0 80
40 32 12
64 0 64
48 36 16
64 0 64
88 0 88
80 0 80
80 0 80
40 32 12
64 0 64
48 36 16
56 44 20
72 56 24
80 0 80
92 64 32
84 60 28
72 56 24
72 56 24
64 48 24
56 44 20
40 32 12
64 0 64
64 0 64
64 0 64
88 0 88
88 0 88
56 44 20
56 44 20
80 0 80
48 36 16
40 32 12
72 0 72
64 0 64
64 0 64
56 44 20
48 36 16
80 0 80
64 0 64
64 0 64

64 0 64
64 0 64
48 36 16
80 0 80
88 0 88
88 0 88
108 0 112
84 60 28
64 48 24
56 44 20
56 44 20
48 36 16
48 36 16
80 0 80
72 0 72
80 0 80
64 48 24
72 56 24
72 56 24
72 56 24
72 56 24
64 48 24
80 0 80
72 0 72
64 0 64
64 0 64
64 0 64
64 0 64
48 36 16
80 0 80
88 0 88
64 0 64
80 0 80
40 32 12
32 32 32
40 32 12
56 44 20
56 44 20
80 0 80
92 64 32
72 56 24
72 56 24
64 48 24
56 44 20
56 44 20
56 44 20
40 32 12
88 0 88
64 0 64
88 0 88
56 44 20
56 44 20
56 44 20
56 44 20
48 36 16
48 36 16
80 0 80
72 0 72
64 0 64
56 44 20
40 32 12
64 0 64
64 0 64
64 0 64

64 0 64
64 0 64
48 36 16
80 0 80
88 0 88
108 0 112
108 0 112
80 0 80
64 48 24
56 44 20
48 36 16
80 0 80
48 36 16
64 0 64
80 0 80
64 0 64
72 56 24
72 56 24
64 48 24
72 0 72
64 48 24
72 56 24
88 0 88
80 0 80
64 0 64
64 0 64
32 32 32
32 32 32
40 32 12
64 0 64
64 0 64
64 0 64
64 0 64
32 32 32
32 32 32
64 0 64
56 44 20
48 36 16
88 0 88
72 56 24
72 56 24
64 48 24
56 44 20
64 0 64
80 0 80
56 44 20
56 44 20
40 32 12
88 0 88
88 0 88
56 44 20
48 36 16
40 32 12
56 44 20
48 36 16
48 36 16
80 0 80
80 0 80
64 0 64
56 44 20
40 32 12
64 0 64
64 0 64
32 32 32

64 0 64
64 0 64
40 32 12
80 0 80
108 0 112
88 0 88
72 56 24
72 56 24
72 56 24
64 48 24
40 32 12
64 0 64
48 36 16
64 0 64
64 0 64
64 48 24
72 56 24
64 48 24
72 0 72
80 0 80
88 0 88
64 48 24
88 0 88
80 0 80
64 0 64
28 28 28
0 0 0
32 32 32
64 0 64
64 0 64
72 0 72
72 0 72
72 0 72
72 0 72
64 0 64
64 0 64
56 44 20
48 36 16
88 0 88
72 56 24
64 48 24
56 44 20
64 0 64
80 0 80
88 0 88
80 0 80
56 44 20
40 32 12
64 48 24
72 56 24
48 36 16
40 32 12
40 32 12
88 0 88
40 32 12
48 36 16
80 0 80
88 0 88
72 0 72
64 0 64
64 0 64
64 0 64
32 32 32
32 32 32

64 0 64
64 0 64
64 0 64
80 0 80
88 0 88
72 56 24
72 56 24
64 48 24
80 0 80
80 0 80
80 0 80
80 0 80
48 36 16
32 32 32
64 0 64
64 48 24
72 56 24
64 48 24
72 0 72
88 0 88
80 0 80
64 48 24
88 0 88
80 0 80
64 0 64
32 32 32
32 32 32
64 0 64
64 0 64
64 0 64
80 0 80
88 0 88
88 0 88
80 0 80
72 0 72
64 0 64
48 36 16
40 32 12
88 0 88
72 56 24
64 0 64
56 44 20
80 0 80
88 0 88
88 0 88
88 0 88
72 56 24
64 48 24
72 56 24
56 44 20
40 32 12
80 0 80
80 0 80
80 0 80
40 32 12
40 32 12
80 0 80
88 0 88
80 0 80
64 0 64
64 0 64
64 0 64
32 32 32
32 32 32

64 0 64
64 0 64
64 0 64
80 0 80
88 0 88
72 56 24
64 48 24
80 0 80
88 0 88
108 0 112
108 0 112
88 0 88
40 32 12
28 28 28
64 0 64
64 48 24
72 56 24
64 48 24
64 0 64
88 0 88
72 0 72
56 44 20
80 0 80
64 0 64
32 32 32
64 0 64
40 32 12
40 32 12
40 32 12
72 0 72
80 0 80
80 0 80
80 0 80
80 0 80
72 0 72
32 32 32
48 36 16
64 0 64
88 0 88
72 56 24
88 0 88
56 44 20
64 0 64
40 32 12
56 44 20
72 56 24
72 56 24
72 56 24
56 44 20
40 32 12
80 0 80
88 0 88
80 0 80
64 0 64
80 0 80
40 32 12
40 32 12
80 0 80
80 0 80
64 0 64
32 32 32
32 32 32
32 32 32
32 32 32

64 0 64
64 0 64
64 0 64
80 0 80
88 0 88
72 56 24
80 0 80
88 0 88
108 0 112
88 0 88
80 0 80
80 0 80
40 32 12
0 0 0
64 0 64
72 56 24
88 0 88
56 44 20
64 0 64
80 0 80
64 0 64
40 32 12
72 0 72
64 0 64
64 0 64
64 48 24
72 56 24
72 56 24
64 48 24
64 48 24
40 32 12
72 0 72
80 0 80
64 0 64
32 32 32
32 32 32
48 36 16
64 0 64
88 0 88
72 56 24
88 0 88
56 44 20
40 32 12
72 56 24
72 56 24
72 56 24
72 56 24
72 56 24
72 56 24
56 44 20
40 32 12
80 0 80
80 0 80
72 0 72
88 0 88
40 32 12
40 32 12
40 32 12
80 0 80
64 0 64
32 32 32
32 32 32
32 32 32
32 32 32

64 0 64
64 0 64
64 0 64
80 0 80
80 0 80
72 56 24
80 0 80
108 0 112
88 0 88
64 0 64
64 0 64
0 0 0
40 32 12
0 0 0
64 0 64
72 56 24
88 0 88
40 32 12
64 0 64
80 0 80
64 0 64
40 32 12
64 0 64
72 0 72
72 56 24
92 64 32
92 64 32
92 64 32
92 64 32
72 56 24
64 48 24
64 0 64
72 0 72
80 0 80
32 32 32
32 32 32
48 36 16
80 0 80
88 0 88
72 0 72
88 0 88
56 44 20
72 56 24
72 56 24
72 56 24
72 56 24
56 44 20
56 44 20
56 44 20
56 44 20
48 36 16
80 0 80
88 0 88
80 0 80
80 0 80
80 0 80
40 32 12
40 32 12
40 32 12
64 0 64
32 32 32
32 32 32
64 0 64
64 0 64

64 0 64
64 0 64
64 0 64
80 0 80
80 0 80
72 56 24
80 0 80
108 0 112
72 0 72
80 0 80
88 0 88
64 0 64
40 32 12
32 32 32
64 0 64
88 0 88
88 0 88
80 0 80
88 0 88
80 0 80
64 0 64
64 0 64
64 0 64
88 0 88
92 64 32
72 56 24
64 48 24
64 48 24
64 48 24
64 48 24
72 56 24
56 44 20
64 0 64
64 0 64
64 0 64
32 32 32
48 36 16
80 0 80
80 0 80
72 0 72
72 0 72
56 44 20
72 56 24
72 56 24
56 44 20
56 44 20
40 32 12
56 44 20
40 32 12
56 44 20
48 36 16
80 0 80
80 0 80
72 0 72
64 0 64
88 0 88
80 0 80
40 32 12
64 0 64
0 0 0
64 0 64
64 0 64
64 0 64
64 0 64

72 0 72
72 0 72
72 0 72
72 0 72
80 0 80
80 0 80
88 0 88
80 0 80
64 0 64
88 0 88
80 0 80
64 0 64
40 32 12
64 0 64
64 0 64
80 0 80
88 0 88
88 0 88
80 0 80
72 0 72
64 0 64
64 0 64
72 0 72
88 0 88
64 48 24
80 0 80
132 0 132
108 0 112
88 0 88
108 0 112
64 48 24
56 44 20
40 32 12
40 32 12
64 0 64
64 0 64
40 32 12
80 0 80
88 0 88
64 0 64
56 44 20
56 44 20
72 56 24
56 44 20
48 36 16
40 32 12
64 0 64
56 44 20
64 0 64
56 44 20
48 36 16
80 0 80
72 0 72
80 0 80
64 0 64
88 0 88
80 0 80
40 32 12
64 0 64
32 32 32
64 0 64
64 0 64
64 0 64
80 0 80

80 0 80
80 0 80
80 0 80
64 0 64
72 0 72
80 0 80
88 0 88
72 0 72
64 0 64
80 0 80
80 0 80
88 0 88
80 0 80
64 0 64
80 0 80
88 0 88
80 0 80
80 0 80
72 0 72
64 0 64
72 0 72
72 0 72
88 0 88
72 56 24
132 0 132
132 0 132
108 0 112
88 0 88
88 0 88
56 44 20
88 0 88
56 44 20
56 44 20
40 32 12
64 0 64
64 0 64
40 32 12
80 0 80
80 0 80
64 0 64
72 0 72
56 44 20
72 56 24
56 44 20
40 32 12
64 0 64
80 0 80
72 0 72
80 0 80
56 44 20
48 36 16
80 0 80
64 0 64
80 0 80
64 0 64
80 0 80
80 0 80
40 32 12
64 0 64
64 0 64
80 0 80
80 0 80
80 0 80
80 0 80

72 56 24
88 0 88
88 0 88
80 0 80
64 0 64
80 0 80
80 0 80
64 0 64
80 0 80
64 0 64
64 0 64
80 0 80
88 0 88
80 0 80
72 0 72
72 0 72
72 0 72
64 0 64
64 0 64
72 0 72
80 0 80
88 0 88
72 56 24
84 60 28
88 0 88
108 0 112
88 0 88
72 56 24
56 44 20
56 44 20
40 32 12
56 44 20
40 32 12
40 32 12
40 32 12
64 0 64
40 32 12
80 0 80
72 0 72
64 0 64
72 0 72
56 44 20
88 0 88
56 44 20
40 32 12
80 0 80
80 0 80
72 0 72
64 0 64
40 32 12
64 0 64
64 0 64
80 0 80
72 0 72
64 0 64
80 0 80
64 0 64
40 32 12
64 0 64
80 0 80
88 0 88
84 60 28
84 60 28
72 56 24

72 56 24
72 56 24
64 48 24
88 0 88
80 0 80
64 0 64
64 0 64
64 0 64
72 0 72
80 0 80
88 0 88
72 0 72
64 0 64
28 28 28
28 28 28
64 0 64
64 0 64
64 0 64
72 0 72
80 0 80
88 0 88
72 56 24
84 60 28
72 56 24
72 56 24
72 56 24
72 56 24
64 48 24
40 32 12
64 0 64
80 0 80
40 32 12
64 0 64
40 32 12
40 32 12
40 32 12
56 44 20
40 32 12
64 0 64
64 0 64
80 0 80
56 44 20
88 0 88
48 36 16
40 32 12
72 0 72
72 0 72
72 0 72
80 0 80
80 0 80
64 0 64
80 0 80
72 0 72
64 0 64
64 0 64
64 0 64
40 32 12
56 44 20
88 0 88
88 0 88
84 60 28
84 60 28
72 56 24
72 56 24

64 48 24
64 48 24
72 56 24
56 44 20
80 0 80
72 0 72
72 0 72
80 0 80
88 0 88
88 0 88
88 0 88
80 0 80
64 0 64
0 0 0
28 28 28
64 48 24
64 48 24
48 36 16
72 0 72
80 0 80
88 0 88
72 56 24
84 60 28
80 0 80
88 0 88
72 56 24
56 44 20
56 44 20
64 0 64
80 0 80
88 0 88
64 0 64
40 32 12
48 36 16
56 44 20
64 48 24
72 56 24
64 48 24
64 0 64
72 0 72
80 0 80
80 0 80
88 0 88
48 36 16
80 0 80
64 0 64
64 0 64
64 0 64
72 0 72
88 0 88
80 0 80
64 0 64
64 0 64
64 0 64
32 32 32
0 0 0
40 32 12
64 48 24
72 56 24
72 56 24
84 60 28
84 60 28
72 56 24
72 56 24

64 48 24
56 44 20
56 44 20
56 44 20
80 0 80
88 0 88
80 0 80
80 0 80
88 0 88
88 0 88
88 0 88
80 0 80
72 0 72
0 0 0
56 44 20
64 48 24
56 44 20
56 44 20
64 0 64
80 0 80
88 0 88
72 56 24
84 60 28
80 0 80
88 0 88
72 56 24
56 44 20
40 32 12
64 0 64
88 0 88
64 0 64
40 32 12
48 36 16
48 36 16
48 36 16
48 36 16
56 44 20
56 44 20
56 44 20
80 0 80
80 0 80
80 0 80
88 0 88
40 32 12
88 0 88
80 0 80
80 0 80
88 0 88
88 0 88
80 0 80
88 0 88
28 28 28
32 32 32
0 0 0
64 0 64
64 0 64
64 48 24
72 56 24
84 60 28
84 60 28
88 0 88
88 0 88
88 0 88
64 48 24

64 0 64
64 0 64
56 44 20
48 36 16
48 36 16
80 0 80
80 0 80
88 0 88
88 0 88
88 0 88
80 0 80
64 0 64
0 0 0
64 0 64
72 56 24
80 0 80
64 0 64
48 36 16
64 0 64
80 0 80
88 0 88
72 56 24
84 60 28
72 56 24
72 56 24
56 44 20
40 32 12
40 32 12
80 0 80
88 0 88
56 44 20
40 32 12
40 32 12
48 36 16
48 36 16
56 44 20
56 44 20
40 32 12
56 44 20
56 44 20
48 36 16
88 0 88
80 0 80
80 0 80
80 0 80
88 0 88
88 0 88
80 0 80
80 0 80
72 0 72
28 28 28
0 0 0
0 0 0
28 28 28
64 0 64
80 0 80
72 56 24
84 60 28
84 60 28
108 0 112
88 0 88
80 0 80
80 0 80
80 0 80

72 0 72
72 0 72
72 0 72
48 36 16
48 36 16
80 0 80
64 0 64
80 0 80
80 0 80
80 0 80
64 0 64
40 32 12
72 56 24
72 56 24
72 56 24
64 0 64
80 0 80
40 32 12
40 32 12
80 0 80
88 0 88
72 56 24
72 56 24
80 0 80
64 0 64
64 0 64
80 0 80
80 0 80
88 0 88
88 0 88
56 44 20
40 32 12
48 36 16
48 36 16
64 0 64
64 0 64
80 0 80
56 44 20
56 44 20
48 36 16
48 36 16
48 36 16
80 0 80
88 0 88
80 0 80
80 0 80
88 0 88
80 0 80
72 0 72
64 0 64
28 28 28
0 0 0
28 28 28
32 32 32
80 0 80
88 0 88
84 60 28
84 60 28
108 0 112
108 0 112
88 0 88
64 0 64
80 0 80
64 0 64

88 0 88
88 0 88
88 0 88
56 44 20
56 44 20
64 0 64
88 0 88
80 0 80
72 0 72
64 0 64
40 32 12
56 44 20
56 44 20
64 48 24
64 0 64
64 0 64
64 0 64
40 32 12
64 0 64
80 0 80
88 0 88
88 0 88
72 56 24
80 0 80
64 0 64
80 0 80
72 56 24
72 56 24
72 56 24
56 44 20
48 36 16
40 32 12
48 36 16
56 44 20
56 44 20
88 0 88
108 0 112
56 44 20
80 0 80
56 44 20
48 36 16
48 36 16
40 32 12
80 0 80
64 0 64
72 0 72
80 0 80
72 0 72
64 0 64
64 0 64
28 28 28
32 32 32
28 28 28
64 0 64
88 0 88
84 60 28
72 56 24
84 60 28
84 60 28
84 60 28
84 60 28
72 56 24
64 0 64
64 0 64

72 0 72
80 0 80
80 0 80
64 48 24
64 48 24
64 0 64
80 0 80
72 0 72
64 0 64
64 0 64
40 32 12
80 0 80
80 0 80
56 44 20
80 0 80
80 0 80
88 0 88
80 0 80
64 0 64
72 0 72
80 0 80
88 0 88
72 56 24
88 0 88
108 0 112
108 0 112
108 0 112
108 0 112
108 0 112
56 44 20
48 36 16
80 0 80
80 0 80
40 32 12
56 44 20
88 0 88
88 0 88
56 44 20
80 0 80
56 44 20
56 44 20
48 36 16
40 32 12
72 0 72
64 0 64
64 0 64
64 0 64
64 0 64
64 48 24
64 48 24
64 48 24
64 0 64
64 0 64
80 0 80
88 0 88
72 56 24
84 60 28
64 48 24
64 48 24
64 48 24
84 60 28
84 60 28
72 56 24
80 0 80

64 0 64
80 0 80
88 0 88
72 56 24
64 48 24
88 0 88
72 0 72
64 0 64
64 0 64
64 0 64
64 0 64
64 0 64
80 0 80
48 36 16
88 0 88
88 0 88
80 0 80
64 0 64
32 32 32
64 0 64
72 0 72
88 0 88
88 0 88
108 0 112
108 0 112
108 0 112
88 0 88
88 0 88
88 0 88
56 44 20
48 36 16
64 0 64
108 0 112
88 0 88
40 32 12
64 0 64
80 0 80
56 44 20
80 0 80
56 44 20
56 44 20
48 36 16
40 32 12
72 0 72
72 0 72
64 0 64
64 0 64
64 48 24
64 48 24
64 48 24
64 0 64
64 0 64
80 0 80
88 0 88
108 0 112
72 56 24
64 48 24
88 0 88
132 0 132
132 0 132
64 48 24
72 56 24
72 56 24
88 0 88

80 0 80
88 0 88
80 0 80
64 48 24
64 48 24
80 0 80
64 0 64
80 0 80
64 0 64
64 0 64
64 0 64
80 0 80
80 0 80
40 32 12
40 32 12
40 32 12
40 32 12
40 32 12
32 32 32
32 32 32
64 0 64
88 0 88
88 0 88
108 0 112
108 0 112
88 0 88
88 0 88
80 0 80
64 48 24
56 44 20
40 32 12
80 0 80
88 0 88
88 0 88
40 32 12
64 0 64
64 0 64
56 44 20
64 0 64
56 44 20
56 44 20
48 36 16
40 32 12
80 0 80
64 0 64
40 32 12
64 0 64
64 48 24
56 44 20
88 0 88
88 0 88
88 0 88
88 0 88
88 0 88
108 0 112
72 56 24
88 0 88
132 0 132
88 0 88
88 0 88
108 0 112
108 0 112
72 56 24
64 48 24

80 0 80
88 0 88
80 0 80
56 44 20
56 44 20
88 0 88
80 0 80
88 0 88
80 0 80
64 0 64
80 0 80
88 0 88
108 0 112
108 0 112
88 0 88
88 0 88
80 0 80
56 44 20
40 32 12
40 32 12
80 0 80
88 0 88
108 0 112
88 0 88
64 48 24
72 56 24
72 56 24
56 44 20
40 32 12
56 44 20
80 0 80
108 0 112
80 0 80
80 0 80
40 32 12
64 0 64
80 0 80
80 0 80
80 0 80
56 44 20
56 44 20
48 36 16
40 32 12
80 0 80
64 0 64
64 0 64
64 0 64
56 44 20
88 0 88
88 0 88
88 0 88
80 0 80
80 0 80
88 0 88
108 0 112
72 56 24
88 0 88
132 0 132
80 0 80
80 0 80
108 0 112
108 0 112
64 48 24
64 48 24

72 0 72
88 0 88
80 0 80
48 36 16
48 36 16
88 0 88
64 0 64
80 0 80
64 0 64
64 0 64
88 0 88
132 0 132
132 0 132
108 0 112
64 48 24
64 48 24
56 44 20
88 0 88
40 32 12
64 0 64
88 0 88
88 0 88
88 0 88
64 48 24
72 56 24
64 48 24
56 44 20
48 36 16
56 44 20
80 0 80
108 0 112
88 0 88
80 0 80
88 0 88
64 0 64
80 0 80
88 0 88
88 0 88
88 0 88
56 44 20
56 44 20
48 36 16
40 32 12
80 0 80
64 0 64
28 28 28
64 0 64
56 44 20
80 0 80
88 0 88
88 0 88
80 0 80
64 0 64
88 0 88
88 0 88
72 56 24
88 0 88
108 0 112
80 0 80
72 0 72
88 0 88
88 0 88
56 44 20
56 44 20

64 0 64
80 0 80
88 0 88
56 44 20
56 44 20
80 0 80
80 0 80
80 0 80
64 0 64
80 0 80
108 0 112
132 0 132
108 0 112
64 48 24
64 48 24
64 48 24
64 48 24
56 44 20
80 0 80
64 0 64
88 0 88
88 0 88
88 0 88
72 56 24
64 48 24
40 32 12
32 32 32
40 32 12
56 44 20
40 32 12
108 0 112
88 0 88
64 0 64
80 0 80
80 0 80
80 0 80
88 0 88
88 0 88
88 0 88
56 44 20
56 44 20
48 36 16
40 32 12
80 0 80
64 0 64
32 32 32
64 0 64
48 36 16
80 0 80
80 0 80
80 0 80
72 0 72
80 0 80
88 0 88
88 0 88
72 56 24
88 0 88
108 0 112
80 0 80
64 0 64
80 0 80
40 32 12
48 36 16
48 36 16

72 0 72
80 0 80
88 0 88
72 56 24
64 48 24
80 0 80
88 0 88
88 0 88
64 0 64
88 0 88
108 0 112
108 0 112
64 48 24
64 48 24
56 44 20
56 44 20
80 0 80
48 36 16
88 0 88
64 0 64
88 0 88
88 0 88
80 0 80
56 44 20
40 32 12
64 0 64
64 0 64
64 0 64
48 36 16
40 32 12
88 0 88
80 0 80
32 32 32
64 0 64
80 0 80
88 0 88
88 0 88
80 0 80
64 0 64
56 44 20
48 36 16
40 32 12
40 32 12
80 0 80
64 0 64
28 28 28
64 0 64
48 36 16
64 0 64
72 0 72
80 0 80
72 0 72
72 0 72
80 0 80
88 0 88
64 48 24
80 0 80
88 0 88
80 0 80
64 0 64
80 0 80
40 32 12
40 32 12
40 32 12

88 0 88
72 0 72
88 0 88
64 48 24
48 36 16
80 0 80
88 0 88
80 0 80
64 0 64
88 0 88
88 0 88
108 0 112
80 0 80
56 44 20
48 36 16
48 36 16
88 0 88
48 36 16
80 0 80
64 0 64
88 0 88
88 0 88
64 0 64
40 32 12
32 32 32
64 0 64
80 0 80
64 0 64
48 36 16
40 32 12
80 0 80
64 0 64
32 32 32
64 0 64
80 0 80
88 0 88
88 0 88
80 0 80
64 0 64
56 44 20
48 36 16
64 0 64
80 0 80
72 0 72
64 0 64
64 0 64
64 0 64
48 36 16
64 0 64
64 0 64
72 0 72
64 0 64
64 0 64
72 0 72
80 0 80
56 44 20
80 0 80
88 0 88
80 0 80
72 0 72
64 0 64
64 0 64
56 44 20
56 44 20

64 0 64
72 0 72
88 0 88
48 36 16
40 32 12
80 0 80
80 0 80
72 0 72
64 0 64
80 0 80
88 0 88
88 0 88
80 0 80
48 36 16
48 36 16
40 32 12
80 0 80
48 36 16
64 0 64
64 0 64
80 0 80
88 0 88
80 0 80
48 36 16
32 32 32
80 0 80
80 0 80
64 0 64
48 36 16
40 32 12
64 0 64
32 32 32
64 0 64
64 0 64
64 0 64
80 0 80
88 0 88
64 0 64
64 0 64
56 44 20
48 36 16
64 0 64
80 0 80
72 0 72
64 0 64
64 0 64
64 0 64
40 32 12
64 0 64
64 0 64
64 0 64
64 0 64
64 0 64
64 0 64
72 0 72
48 36 16
64 0 64
80 0 80
80 0 80
80 0 80
72 0 72
64 0 64
64 48 24
64 48 24

64 0 64
72 0 72
80 0 80
40 32 12
80 0 80
72 0 72
72 0 72
64 0 64
64 0 64
80 0 80
88 0 88
88 0 88
88 0 88
48 36 16
40 32 12
40 32 12
64 0 64
40 32 12
32 32 32
64 0 64
64 0 64
80 0 80
80 0 80
64 48 24
28 28 28
64 0 64
64 0 64
32 32 32
48 36 16
40 32 12
32 32 32
32 32 32
80 0 80
64 0 64
64 0 64
88 0 88
64 0 64
64 0 64
80 0 80
80 0 80
48 36 16
80 0 80
88 0 88
80 0 80
80 0 80
80 0 80
80 0 80
40 32 12
64 0 64
64 0 64
72 0 72
72 0 72
72 0 72
64 0 64
64 0 64
48 36 16
28 28 28
64 0 64
80 0 80
80 0 80
80 0 80
80 0 80
72 56 24
72 56 24

64 0 64
64 0 64
88 0 88
80 0 80
72 0 72
64 0 64
64 0 64
64 0 64
64 0 64
72 0 72
80 0 80
80 0 80
88 0 88
80 0 80
40 32 12
64 0 64
64 0 64
40 32 12
32 32 32
32 32 32
64 0 64
64 0 64
72 0 72
56 44 20
0 0 0
80 0 80
64 0 64
32 32 32
40 32 12
40 32 12
32 32 32
64 0 64
64 0 64
32 32 32
64 0 64
64 0 64
80 0 80
80 0 80
64 0 64
80 0 80
40 32 12
64 0 64
80 0 80
80 0 80
88 0 88
88 0 88
88 0 88
40 32 12
64 0 64
72 0 72
80 0 80
80 0 80
80 0 80
80 0 80
64 0 64
56 44 20
64 0 64
28 28 28
64 0 64
64 0 64
64 0 64
64 0 64
72 56 24
72 56 24

64 0 64
64 0 64
80 0 80
64 0 64
64 0 64
64 0 64
64 0 64
64 0 64
64 0 64
64 0 64
72 0 72
80 0 80
80 0 80
64 0 64
40 32 12
72 0 72
72 0 72
64 0 64
64 0 64
64 0 64
32 32 32
64 0 64
64 0 64
48 36 16
28 28 28
64 0 64
64 0 64
88 0 88
80 0 80
40 32 12
28 28 28
32 32 32
32 32 32
64 0 64
64 0 64
80 0 80
88 0 88
88 0 88
64 0 64
80 0 80
64 0 64
40 32 12
64 0 64
80 0 80
88 0 88
88 0 88
80 0 80
40 32 12
72 0 72
80 0 80
88 0 88
88 0 88
88 0 88
88 0 88
80 0 80
64 0 64
64 0 64
32 32 32
28 28 28
0 0 0
0 0 0
0 0 0
64 48 24
64 48 24

64 0 64
64 0 64
64 0 64
80 0 80
80 0 80
80 0 80
80 0 80
64 0 64
80 0 80
64 0 64
64 0 64
72 0 72
80 0 80
88 0 88
88 0 88
88 0 88
88 0 88
80 0 80
72 0 72
64 0 64
64 0 64
64 0 64
64 0 64
48 36 16
32 32 32
28 28 28
28 28 28
80 0 80
64 0 64
40 32 12
0 0 0
32 32 32
32 32 32
64 0 64
80 0 80
88 0 88
88 0 88
80 0 80
64 0 64
64 0 64
64 0 64
40 32 12
64 0 64
88 0 88
80 0 80
64 0 64
64 0 64
40 32 12
40 32 12
64 48 24
64 48 24
88 0 88
88 0 88
88 0 88
88 0 88
80 0 80
80 0 80
64 0 64
32 32 32
28 28 28
0 0 0
0 0 0
56 44 20
48 36 16

64 0 64
64 0 64
80 0 80
88 0 88
72 56 24
72 56 24
88 0 88
80 0 80
88 0 88
80 0 80
72 0 72
80 0 80
88 0 88
88 0 88
88 0 88
88 0 88
88 0 88
88 0 88
88 0 88
72 0 72
72 0 72
72 0 72
64 0 64
48 36 16
32 32 32
32 32 32
28 28 28
28 28 28
28 28 28
40 32 12
0 0 0
32 32 32
64 0 64
72 0 72
80 0 80
88 0 88
80 0 80
64 0 64
64 0 64
80 0 80
64 0 64
64 0 64
64 0 64
64 0 64
64 0 64
88 0 88
40 32 12
64 48 24
64 48 24
72 56 24
72 56 24
64 48 24
64 48 24
88 0 88
80 0 80
80 0 80
88 0 88
80 0 80
64 0 64
32 32 32
28 28 28
0 0 0
48 36 16
48 36 16

64 0 64
64 0 64
80 0 80
72 56 24
64 48 24
64 48 24
56 44 20
80 0 80
80 0 80
72 0 72
80 0 80
80 0 80
88 0 88
88 0 88
72 56 24
72 56 24
56 44 20
56 44 20
80 0 80
80 0 80
88 0 88
80 0 80
64 0 64
40 32 12
64 0 64
32 32 32
32 32 32
32 32 32
32 32 32
40 32 12
28 28 28
64 0 64
80 0 80
80 0 80
72 0 72
64 0 64
64 0 64
64 0 64
64 0 64
64 0 64
64 0 64
32 32 32
64 0 64
64 0 64
72 0 72
80 0 80
88 0 88
64 48 24
72 56 24
64 48 24
56 44 20
64 0 64
56 44 20
80 0 80
88 0 88
80 0 80
88 0 88
88 0 88
80 0 80
64 0 64
32 32 32
28 28 28
40 32 12
40 32 12

64 0 64
64 0 64
88 0 88
64 48 24
80 0 80
80 0 80
56 44 20
64 0 64
64 0 64
80 0 80
88 0 88
88 0 88
88 0 88
72 56 24
72 56 24
72 56 24
56 44 20
56 44 20
64 0 64
72 0 72
80 0 80
64 0 64
32 32 32
40 32 12
64 0 64
64 0 64
64 0 64
64 0 64
64 0 64
40 32 12
64 0 64
64 0 64
64 0 64
64 0 64
72 0 72
80 0 80
72 0 72
64 0 64
64 0 64
64 0 64
32 32 32
28 28 28
64 0 64
64 0 64
80 0 80
88 0 88
108 0 112
72 56 24
72 56 24
56 44 20
40 32 12
0 0 0
40 32 12
80 0 80
88 0 88
88 0 88
88 0 88
80 0 80
88 0 88
80 0 80
64 0 64
64 0 64
40 32 12
40 32 12

64 0 64
64 0 64
88 0 88
56 44 20
80 0 80
88 0 88
56 44 20
88 0 88
80 0 80
88 0 88
88 0 88
72 56 24
72 56 24
72 56 24
64 48 24
64 48 24
56 44 20
40 32 12
64 0 64
64 0 64
64 0 64
64 0 64
28 28 28
40 32 12
64 0 64
56 44 20
56 44 20
56 44 20
56 44 20
64 48 24
88 0 88
88 0 88
64 0 64
64 0 64
72 0 72
80 0 80
80 0 80
80 0 80
72 0 72
72 0 72
64 0 64
64 0 64
64 0 64
72 0 72
80 0 80
88 0 88
108 0 112
56 44 20
88 0 88
40 32 12
64 0 64
0 0 0
64 0 64
64 0 64
80 0 80
88 0 88
80 0 80
64 0 64
80 0 80
64 0 64
80 0 80
64 0 64
40 32 12
0 0 0

64 0 64
64 0 64
80 0 80
56 44 20
80 0 80
64 0 64
56 44 20
80 0 80
80 0 80
88 0 88
88 0 88
64 48 24
88 0 88
72 56 24
64 0 64
64 0 64
56 44 20
40 32 12
64 0 64
80 0 80
64 0 64
64 0 64
0 0 0
40 32 12
56 44 20
72 56 24
72 56 24
64 48 24
64 48 24
72 56 24
108 0 112
108 0 112
88 0 88
64 0 64
64 0 64
80 0 80
88 0 88
88 0 88
80 0 80
80 0 80
72 0 72
64 0 64
72 0 72
80 0 80
88 0 88
72 56 24
108 0 112
56 44 20
88 0 88
40 32 12
0 0 0
0 0 0
64 0 64
80 0 80
88 0 88
88 0 88
80 0 80
64 0 64
64 0 64
80 0 80
88 0 88
80 0 80
40 32 12
0 0 0

64 0 64
64 0 64
64 0 64
40 32 12
80 0 80
88 0 88
88 0 88
80 0 80
88 0 88
88 0 88
80 0 80
56 44 20
64 0 64
88 0 88
64 0 64
64 0 64
64 0 64
40 32 12
80 0 80
88 0 88
80 0 80
64 0 64
32 32 32
56 44 20
72 56 24
92 64 32
84 60 28
72 56 24
64 48 24
72 56 24
88 0 88
132 0 132
108 0 112
72 56 24
40 32 12
80 0 80
88 0 88
88 0 88
80 0 80
88 0 88
80 0 80
64 0 64
80 0 80
88 0 88
72 56 24
72 56 24
88 0 88
40 32 12
80 0 80
64 0 64
0 0 0
64 0 64
64 0 64
40 32 12
64 48 24
108 0 112
88 0 88
80 0 80
80 0 80
80 0 80
88 0 88
80 0 80
40 32 12
0 0 0

32 32 32
64 0 64
64 0 64
40 32 12
80 0 80
88 0 88
88 0 88
80 0 80
88 0 88
88 0 88
80 0 80
64 0 64
88 0 88
64 0 64
64 0 64
80 0 80
88 0 88
108 0 112
40 32 12
88 0 88
80 0 80
64 0 64
64 0 64
64 48 24
92 64 32
84 60 28
84 60 28
72 56 24
72 56 24
72 56 24
80 0 80
108 0 112
88 0 88
64 48 24
72 56 24
40 32 12
88 0 88
80 0 80
88 0 88
80 0 80
80 0 80
72 0 72
80 0 80
72 56 24
72 56 24
72 56 24
88 0 88
40 32 12
80 0 80
64 0 64
64 0 64
40 32 12
40 32 12
64 48 24
72 56 24
84 60 28
88 0 88
80 0 80
88 0 88
80 0 80
80 0 80
80 0 80
64 0 64
64 0 64

64 0 64
32 32 32
64 0 64
40 32 12
80 0 80
80 0 80
80 0 80
64 0 64
80 0 80
88 0 88
80 0 80
64 0 64
64 0 64
64 0 64
80 0 80
80 0 80
108 0 112
80 0 80
40 32 12
80 0 80
72 0 72
64 0 64
64 0 64
72 56 24
84 60 28
72 56 24
72 56 24
64 48 24
72 56 24
72 56 24
72 56 24
88 0 88
108 0 112
88 0 88
64 48 24
64 48 24
80 0 80
88 0 88
80 0 80
88 0 88
80 0 80
80 0 80
72 56 24
72 56 24
72 56 24
72 56 24
72 56 24
72 56 24
64 0 64
40 32 12
40 32 12
64 48 24
64 48 24
72 56 24
84 60 28
64 48 24
80 0 80
80 0 80
88 0 88
80 0 80
80 0 80
88 0 88
80 0 80
40 32 12

64 0 64
32 32 32
64 0 64
40 32 12
64 0 64
64 0 64
64 0 64
64 0 64
72 0 72
80 0 80
72 0 72
72 0 72
64 0 64
80 0 80
72 0 72
80 0 80
80 0 80
40 32 12
80 0 80
88 0 88
80 0 80
64 0 64
72 56 24
72 56 24
64 48 24
56 44 20
72 56 24
56 44 20
64 48 24
72 56 24
72 56 24
72 56 24
88 0 88
108 0 112
88 0 88
64 48 24
40 32 12
80 0 80
80 0 80
80 0 80
80 0 80
88 0 88
72 56 24
72 56 24
64 48 24
64 48 24
64 48 24
64 48 24
72 56 24
88 0 88
88 0 88
84 60 28
84 60 28
84 60 28
64 48 24
48 36 16
64 0 64
64 0 64
80 0 80
80 0 80
80 0 80
88 0 88
80 0 80
40 32 12

32 32 32
28 28 28
32 32 32
40 32 12
32 32 32
64 0 64
64 0 64
64 0 64
64 0 64
72 0 72
80 0 80
80 0 80
72 0 72
64 0 64
64 0 64
32 32 32
0 0 0
40 32 12
64 0 64
80 0 80
72 0 72
64 0 64
88 0 88
72 56 24
56 44 20
64 48 24
64 48 24
48 36 16
56 44 20
64 48 24
64 48 24
64 48 24
80 0 80
88 0 88
88 0 88
64 48 24
40 32 12
64 0 64
64 0 64
72 0 72
80 0 80
72 56 24
72 56 24
64 48 24
64 48 24
32 32 32
64 0 64
64 0 64
64 0 64
80 0 80
80 0 80
64 48 24
40 32 12
64 0 64
64 48 24
48 36 16
64 0 64
80 0 80
88 0 88
88 0 88
80 0 80
88 0 88
80 0 80
40 32 12

28 28 28
0 0 0
28 28 28
40 32 12
32 32 32
28 28 28
32 32 32
32 32 32
64 0 64
64 0 64
64 0 64
64 0 64
64 0 64
80 0 80
80 0 80
32 32 32
32 32 32
40 32 12
64 0 64
64 0 64
40 32 12
72 56 24
72 56 24
72 56 24
72 56 24
64 48 24
48 36 16
64 48 24
56 44 20
56 44 20
48 36 16
48 36 16
64 48 24
72 56 24
88 0 88
64 48 24
48 36 16
32 32 32
64 0 64
64 0 64
72 0 72
72 56 24
64 48 24
80 0 80
56 44 20
64 0 64
64 0 64
64 0 64
80 0 80
88 0 88
88 0 88
64 48 24
40 32 12
80 0 80
64 48 24
48 36 16
80 0 80
88 0 88
88 0 88
80 0 80
64 0 64
80 0 80
64 0 64
64 0 64

32 32 32
0 0 0
0 0 0
28 28 28
28 28 28
32 32 32
64 0 64
64 0 64
64 0 64
72 0 72
72 0 72
72 0 72
72 0 72
64 0 64
64 0 64
64 0 64
64 0 64
40 32 12
40 32 12
48 36 16
72 56 24
56 44 20
56 44 20
48 36 16
64 48 24
48 36 16
64 48 24
56 44 20
48 36 16
48 36 16
40 32 12
40 32 12
48 36 16
64 48 24
64 48 24
64 48 24
64 48 24
48 36 16
32 32 32
64 0 64
64 0 64
56 44 20
88 0 88
80 0 80
56 44 20
64 0 64
40 32 12
64 48 24
64 48 24
48 36 16
48 36 16
64 48 24
88 0 88
88 0 88
80 0 80
48 36 16
88 0 88
88 0 88
56 44 20
64 48 24
40 32 12
64 0 64
64 0 64
40 32 12

64 0 64
0 0 0
0 0 0
40 32 12
32 32 32
64 0 64
64 0 64
72 0 72
80 0 80
80 0 80
88 0 88
88 0 88
88 0 88
88 0 88
88 0 88
80 0 80
64 0 64
40 32 12
40 32 12
72 56 24
56 44 20
56 44 20
48 36 16
48 36 16
40 32 12
40 32 12
56 44 20
48 36 16
40 32 12
32 32 32
64 0 64
64 0 64
80 0 80
80 0 80
56 44 20
56 44 20
64 48 24
64 48 24
48 36 16
40 32 12
64 0 64
48 36 16
80 0 80
88 0 88
48 36 16
80 0 80
64 48 24
56 44 20
56 44 20
48 36 16
48 36 16
64 48 24
88 0 88
80 0 80
80 0 80
48 36 16
80 0 80
56 44 20
64 48 24
64 48 24
64 48 24
40 32 12
64 0 64
40 32 12

28 28 28
0 0 0
28 28 28
32 32 32
64 0 64
72 0 72
80 0 80
88 0 88
88 0 88
88 0 88
72 56 24
72 56 24
72 56 24
72 56 24
72 56 24
88 0 88
80 0 80
64 0 64
48 36 16
64 48 24
56 44 20
40 32 12
28 28 28
40 32 12
40 32 12
28 28 28
48 36 16
48 36 16
40 32 12
64 0 64
88 0 88
80 0 80
80 0 80
64 0 64
48 36 16
48 36 16
48 36 16
48 36 16
56 44 20
40 32 12
32 32 32
40 32 12
64 0 64
80 0 80
40 32 12
88 0 88
80 0 80
48 36 16
32 32 32
40 32 12
48 36 16
64 48 24
80 0 80
64 0 64
64 0 64
40 32 12
88 0 88
80 0 80
80 0 80
56 44 20
56 44 20
40 32 12
64 0 64
64 0 64

32 32 32
28 28 28
32 32 32
32 32 32
64 0 64
80 0 80
88 0 88
108 0 112
108 0 112
64 48 24
72 56 24
56 44 20
56 44 20
56 44 20
56 44 20
72 56 24
88 0 88
64 0 64
48 36 16
56 44 20
40 32 12
28 28 28
28 28 28
40 32 12
40 32 12
28 28 28
40 32 12
40 32 12
40 32 12
80 0 80
88 0 88
88 0 88
88 0 88
88 0 88
40 32 12
48 36 16
48 36 16
40 32 12
56 44 20
40 32 12
64 0 64
40 32 12
32 32 32
64 0 64
40 32 12
88 0 88
80 0 80
48 36 16
32 32 32
40 32 12
40 32 12
64 0 64
64 0 64
80 0 80
64 0 64
40 32 12
80 0 80
64 0 64
80 0 80
40 32 12
40 32 12
40 32 12
64 0 64
64 0 64

32 32 32
32 32 32
32 32 32
32 32 32
72 0 72
80 0 80
88 0 88
108 0 112
108 0 112
72 56 24
64 0 64
80 0 80
80 0 80
80 0 80
56 44 20
56 44 20
80 0 80
64 0 64
48 36 16
56 44 20
40 32 12
32 32 32
32 32 32
32 32 32
40 32 12
32 32 32
32 32 32
64 0 64
40 32 12
64 0 64
80 0 80
88 0 88
88 0 88
88 0 88
40 32 12
40 32 12
40 32 12
32 32 32
48 36 16
40 32 12
64 0 64
64 0 64
64 0 64
32 32 32
40 32 12
80 0 80
80 0 80
40 32 12
32 32 32
40 32 12
40 32 12
64 0 64
64 0 64
88 0 88
64 0 64
40 32 12
64 0 64
64 0 64
64 0 64
40 32 12
40 32 12
40 32 12
64 0 64
64 0 64

64 0 64
32 32 32
32 32 32
64 0 64
72 0 72
80 0 80
88 0 88
108 0 112
64 0 64
56 44 20
80 0 80
88 0 88
80 0 80
88 0 88
80 0 80
56 44 20
80 0 80
64 0 64
48 36 16
88 0 88
88 0 88
72 0 72
72 0 72
88 0 88
40 32 12
72 0 72
88 0 88
72 0 72
40 32 12
72 0 72
80 0 80
88 0 88
80 0 80
80 0 80
40 32 12
40 32 12
32 32 32
64 0 64
48 36 16
40 32 12
64 0 64
64 0 64
64 0 64
32 32 32
40 32 12
64 0 64
64 0 64
40 32 12
64 0 64
56 44 20
56 44 20
40 32 12
64 0 64
64 0 64
64 0 64
40 32 12
64 0 64
80 0 80
64 0 64
64 0 64
64 48 24
56 44 20
56 44 20
64 0 64

64 0 64
32 32 32
32 32 32
64 0 64
72 0 72
80 0 80
88 0 88
56 44 20
56 44 20
40 32 12
56 44 20
56 44 20
88 0 88
80 0 80
88 0 88
48 36 16
80 0 80
80 0 80
48 36 16
72 0 72
88 0 88
88 0 88
72 0 72
64 0 64
40 32 12
64 0 64
72 0 72
72 0 72
40 32 12
80 0 80
64 0 64
80 0 80
72 0 72
32 32 32
32 32 32
40 32 12
64 0 64
80 0 80
48 36 16
40 32 12
32 32 32
80 0 80
32 32 32
64 0 64
40 32 12
64 0 64
64 0 64
64 0 64
64 0 64
64 48 24
80 0 80
64 48 24
40 32 12
64 0 64
64 0 64
40 32 12
80 0 80
64 0 64
64 0 64
64 48 24
92 64 32
72 56 24
72 56 24
56 44 20

64 0 64
32 32 32
32 32 32
64 0 64
56 44 20
72 56 24
72 56 24
72 56 24
80 0 80
88 0 88
80 0 80
80 0 80
80 0 80
80 0 80
80 0 80
48 36 16
80 0 80
88 0 88
40 32 12
64 0 64
72 0 72
72 0 72
64 0 64
64 0 64
40 32 12
40 32 12
40 32 12
40 32 12
40 32 12
80 0 80
80 0 80
72 0 72
64 0 64
64 0 64
32 32 32
40 32 12
80 0 80
64 0 64
48 36 16
40 32 12
32 32 32
64 0 64
64 0 64
64 0 64
40 32 12
80 0 80
80 0 80
64 0 64
88 0 88
56 44 20
88 0 88
80 0 80
40 32 12
40 32 12
64 0 64
40 32 12
64 0 64
64 0 64
64 48 24
92 64 32
72 56 24
64 48 24
64 48 24
88 0 88

40 32 12
64 0 64
64 0 64
80 0 80
72 56 24
72 56 24
64 48 24
64 48 24
72 56 24
80 0 80
80 0 80
88 0 88
88 0 88
40 32 12
40 32 12
40 32 12
40 32 12
40 32 12
40 32 12
64 0 64
64 0 64
88 0 88
64 0 64
40 32 12
48 36 16
48 36 16
48 36 16
48 36 16
48 36 16
48 36 16
48 36 16
40 32 12
40 32 12
40 32 12
40 32 12
40 32 12
40 32 12
64 0 64
48 36 16
40 32 12
32 32 32
80 0 80
64 0 64
80 0 80
88 0 88
88 0 88
88 0 88
80 0 80
64 0 64
40 32 12
40 32 12
40 32 12
40 32 12
40 32 12
40 32 12
40 32 12
48 36 16
48 36 16
72 56 24
92 64 32
64 48 24
80 0 80
40 32 12
40 32 12

40 32 12
40 32 12
40 32 12
88 0 88
72 56 24
64 0 64
80 0 80
88 0 88
56 44 20
88 0 88
64 0 64
80 0 80
40 32 12
40 32 12
48 36 16
48 36 16
48 36 16
48 36 16
48 36 16
40 32 12
40 32 12
48 36 16
48 36 16
56 44 20
64 48 24
88 0 88
64 48 24
64 48 24
64 48 24
64 48 24
56 44 20
56 44 20
56 44 20
56 44 20
48 36 16
48 36 16
48 36 16
40 32 12
40 32 12
40 32 12
80 0 80
88 0 88
80 0 80
80 0 80
88 0 88
88 0 88
88 0 88
40 32 12
40 32 12
48 36 16
56 44 20
56 44 20
56 44 20
56 44 20
64 48 24
64 48 24
64 48 24
72 56 24
92 64 32
64 48 24
48 36 16
88 0 88
80 0 80
40 32 12

40 32 12
40 32 12
40 32 12
40 32 12
64 48 24
80 0 80
88 0 88
64 0 64
40 32 12
40 32 12
40 32 12
40 32 12
48 36 16
56 44 20
64 48 24
72 56 24
72 56 24
64 48 24
64 48 24
56 44 20
48 36 16
40 32 12
40 32 12
48 36 16
56 44 20
64 48 24
72 56 24
84 60 28
92 64 32
84 60 28
72 56 24
72 56 24
64 48 24
64 48 24
64 48 24
64 48 24
56 44 20
56 44 20
56 44 20
48 36 16
48 36 16
48 36 16
40 32 12
40 32 12
40 32 12
48 36 16
48 36 16
48 36 16
48 36 16
48 36 16
56 44 20
64 48 24
72 56 24
72 56 24
72 56 24
72 56 24
72 56 24
72 56 24
64 48 24
48 36 16
48 36 16
40 32 12
40 32 12
40 32 12

100 100 100
72 72 72
56 56 56
40 32 12
40 32 12
40 32 12
40 32 12
40 32 12
40 32 12
40 32 12
40 32 12
40 32 12
40 32 12
48 36 16
48 36 16
48 36 16
48 36 16
48 36 16
56 56 56
72 72 72
100 100 100
100 100 100
84 84 84
56 56 56
40 32 12
40 32 12
40 32 12
48 36 16
48 36 16
48 36 16
48 36 16
48 36 16
48 36 16
48 36 16
48 36 16
48 36 16
48 36 16
48 36 16
40 32 12
40 32 12
40 32 12
40 32 12
40 32 12
56 56 56
72 72 72
84 84 84
84 84 84
72 72 72
56 56 56
40 32 12
40 32 12
40 32 12
40 32 12
40 32 12
40 32 12
40 32 12
40 32 12
40 32 12
40 32 12
40 32 12
40 32 12
56 56 56
72 72 72
100 100 100

