P3
# ASCII PPM file
64 64
255

56 56 56
56 56 56
56 56 56
56 56 56
56 56 56
56 56 56
56 56 56
56 56 56
56 56 56
56 56 56
56 56 56
56 56 56
56 56 56
56 56 56
56 56 56
56 56 56
56 56 56
56 56 56
56 56 56
56 56 56
56 56 56
56 56 56
56 56 56
56 56 56
56 56 56
56 56 56
56 56 56
56 56 56
56 56 56
56 56 56
56 56 56
56 56 56
56 56 56
56 56 56
56 56 56
56 56 56
56 56 56
56 56 56
56 56 56
56 56 56
56 56 56
56 56 56
56 56 56
56 56 56
56 56 56
56 56 56
56 56 56
56 56 56
56 56 56
56 56 56
56 56 56
56 56 56
56 56 56
56 56 56
56 56 56
56 56 56
56 56 56
56 56 56
56 56 56
56 56 56
56 56 56
56 56 56
56 56 56
56 56 56

56 56 56
32 32 32
56 56 56
44 44 44
44 44 44
44 44 44
44 44 44
44 44 44
56 56 56
44 44 44
44 44 44
44 44 44
44 44 44
44 44 44
44 44 44
56 56 56
44 44 44
32 32 32
44 44 44
44 44 44
44 44 44
44 44 44
44 44 44
44 44 44
44 44 44
56 56 56
56 56 56
56 56 56
56 56 56
56 56 56
56 56 56
44 44 44
44 44 44
44 44 44
44 44 44
44 44 44
44 44 44
44 44 44
44 44 44
44 44 44
56 56 56
56 56 56
56 56 56
56 56 56
56 56 56
56 56 56
56 56 56
44 44 44
44 44 44
44 44 44
44 44 44
32 32 32
32 32 32
32 32 32
44 44 44
44 44 44
56 56 56
56 56 56
44 44 44
44 44 44
44 44 44
44 44 44
44 44 44
32 32 32

32 32 32
200 0 0
200 0 0
200 0 0
200 0 0
164 0 0
164 0 0
164 0 0
164 0 0
164 0 0
164 0 0
164 0 0
136 0 0
44 44 44
44 44 44
56 56 56
188 0 0
188 0 0
188 0 0
188 0 0
176 0 0
176 0 0
176 0 0
176 0 0
164 0 0
164 0 0
164 0 0
164 0 0
152 0 0
152 0 0
152 0 0
152 0 0
152 0 0
152 0 0
152 0 0
152 0 0
136 0 0
44 44 44
32 32 32
56 56 56
200 0 0
200 0 0
200 0 0
200 0 0
176 0 0
176 0 0
176 0 0
176 0 0
176 0 0
164 0 0
164 0 0
164 0 0
164 0 0
164 0 0
164 0 0
164 0 0
152 0 0
152 0 0
152 0 0
152 0 0
152 0 0
152 0 0
136 0 0
44 44 44

44 44 44
200 0 0
176 0 0
152 0 0
152 0 0
188 0 0
112 0 0
136 0 0
188 0 0
112 0 0
176 0 0
136 0 0
76 0 0
32 32 32
44 44 44
56 56 56
188 0 0
164 0 0
112 0 0
164 0 0
112 0 0
164 0 0
112 0 0
164 0 0
100 0 0
164 0 0
124 0 0
164 0 0
124 0 0
164 0 0
100 0 0
164 0 0
100 0 0
164 0 0
176 0 0
136 0 0
88 0 0
32 32 32
44 44 44
32 32 32
200 0 0
136 0 0
176 0 0
152 0 0
176 0 0
152 0 0
152 0 0
176 0 0
88 0 0
176 0 0
100 0 0
176 0 0
152 0 0
176 0 0
112 0 0
152 0 0
136 0 0
100 0 0
176 0 0
124 0 0
176 0 0
136 0 0
100 0 0
32 32 32

44 44 44
176 0 0
136 0 0
100 0 0
136 0 0
112 0 0
136 0 0
124 0 0
88 0 0
136 0 0
112 0 0
88 0 0
76 0 0
32 32 32
44 44 44
56 56 56
188 0 0
164 0 0
112 0 0
112 0 0
136 0 0
112 0 0
88 0 0
136 0 0
136 0 0
88 0 0
124 0 0
136 0 0
136 0 0
88 0 0
124 0 0
136 0 0
88 0 0
136 0 0
124 0 0
88 0 0
76 0 0
32 32 32
44 44 44
56 56 56
200 0 0
136 0 0
136 0 0
100 0 0
76 0 0
136 0 0
112 0 0
88 0 0
112 0 0
136 0 0
100 0 0
112 0 0
136 0 0
136 0 0
112 0 0
136 0 0
100 0 0
112 0 0
136 0 0
76 0 0
136 0 0
88 0 0
76 0 0
32 32 32

44 44 44
176 0 0
100 0 0
136 0 0
136 0 0
88 0 0
124 0 0
136 0 0
136 0 0
88 0 0
136 0 0
76 0 0
76 0 0
32 32 32
44 44 44
56 56 56
176 0 0
112 0 0
164 0 0
136 0 0
112 0 0
136 0 0
88 0 0
136 0 0
112 0 0
136 0 0
88 0 0
136 0 0
88 0 0
112 0 0
100 0 0
136 0 0
88 0 0
124 0 0
100 0 0
88 0 0
76 0 0
32 32 32
44 44 44
44 44 44
200 0 0
88 0 0
136 0 0
76 0 0
112 0 0
136 0 0
76 0 0
136 0 0
88 0 0
136 0 0
100 0 0
136 0 0
112 0 0
136 0 0
76 0 0
136 0 0
124 0 0
100 0 0
136 0 0
100 0 0
136 0 0
88 0 0
76 0 0
32 32 32

44 44 44
176 0 0
136 0 0
100 0 0
112 0 0
124 0 0
100 0 0
136 0 0
88 0 0
112 0 0
136 0 0
88 0 0
76 0 0
32 32 32
44 44 44
56 56 56
164 0 0
164 0 0
112 0 0
136 0 0
112 0 0
112 0 0
124 0 0
136 0 0
88 0 0
112 0 0
88 0 0
136 0 0
112 0 0
88 0 0
124 0 0
100 0 0
112 0 0
88 0 0
136 0 0
88 0 0
76 0 0
32 32 32
32 32 32
44 44 44
164 0 0
88 0 0
136 0 0
100 0 0
136 0 0
112 0 0
76 0 0
136 0 0
88 0 0
88 0 0
136 0 0
136 0 0
88 0 0
136 0 0
112 0 0
136 0 0
136 0 0
100 0 0
136 0 0
76 0 0
136 0 0
112 0 0
76 0 0
32 32 32

44 44 44
124 0 0
100 0 0
136 0 0
136 0 0
88 0 0
136 0 0
124 0 0
88 0 0
124 0 0
88 0 0
76 0 0
76 0 0
32 32 32
44 44 44
44 44 44
176 0 0
176 0 0
112 0 0
136 0 0
88 0 0
136 0 0
88 0 0
136 0 0
88 0 0
136 0 0
88 0 0
124 0 0
112 0 0
88 0 0
100 0 0
136 0 0
88 0 0
124 0 0
100 0 0
88 0 0
76 0 0
32 32 32
32 32 32
44 44 44
124 0 0
124 0 0
136 0 0
76 0 0
112 0 0
136 0 0
100 0 0
112 0 0
88 0 0
112 0 0
100 0 0
136 0 0
112 0 0
136 0 0
76 0 0
136 0 0
100 0 0
112 0 0
136 0 0
100 0 0
136 0 0
88 0 0
76 0 0
32 32 32

44 44 44
124 0 0
136 0 0
88 0 0
112 0 0
76 0 0
88 0 0
100 0 0
76 0 0
88 0 0
112 0 0
88 0 0
76 0 0
32 32 32
32 32 32
56 56 56
124 0 0
124 0 0
88 0 0
88 0 0
76 0 0
112 0 0
88 0 0
88 0 0
112 0 0
88 0 0
76 0 0
88 0 0
112 0 0
88 0 0
112 0 0
88 0 0
76 0 0
112 0 0
88 0 0
88 0 0
76 0 0
32 32 32
32 32 32
44 44 44
176 0 0
88 0 0
88 0 0
76 0 0
88 0 0
88 0 0
76 0 0
112 0 0
76 0 0
88 0 0
76 0 0
112 0 0
76 0 0
88 0 0
76 0 0
112 0 0
76 0 0
76 0 0
88 0 0
112 0 0
88 0 0
112 0 0
76 0 0
32 32 32

44 44 44
100 0 0
76 0 0
76 0 0
76 0 0
76 0 0
76 0 0
76 0 0
76 0 0
76 0 0
76 0 0
76 0 0
76 0 0
32 32 32
32 32 32
44 44 44
100 0 0
76 0 0
76 0 0
76 0 0
76 0 0
76 0 0
76 0 0
76 0 0
76 0 0
76 0 0
76 0 0
76 0 0
76 0 0
76 0 0
76 0 0
76 0 0
76 0 0
76 0 0
76 0 0
76 0 0
76 0 0
32 32 32
32 32 32
44 44 44
112 0 0
76 0 0
76 0 0
76 0 0
76 0 0
76 0 0
76 0 0
76 0 0
76 0 0
76 0 0
76 0 0
88 0 0
76 0 0
76 0 0
76 0 0
76 0 0
76 0 0
76 0 0
76 0 0
88 0 0
76 0 0
76 0 0
76 0 0
32 32 32

44 44 44
44 44 44
32 32 32
32 32 32
32 32 32
32 32 32
32 32 32
32 32 32
32 32 32
32 32 32
32 32 32
32 32 32
32 32 32
32 32 32
32 32 32
56 56 56
44 44 44
32 32 32
32 32 32
32 32 32
32 32 32
32 32 32
32 32 32
32 32 32
32 32 32
32 32 32
32 32 32
32 32 32
32 32 32
32 32 32
32 32 32
32 32 32
32 32 32
32 32 32
32 32 32
32 32 32
32 32 32
32 32 32
44 44 44
56 56 56
32 32 32
32 32 32
32 32 32
32 32 32
32 32 32
32 32 32
32 32 32
32 32 32
32 32 32
32 32 32
32 32 32
32 32 32
32 32 32
32 32 32
32 32 32
32 32 32
32 32 32
32 32 32
32 32 32
32 32 32
32 32 32
32 32 32
32 32 32
32 32 32

56 56 56
32 32 32
32 32 32
32 32 32
32 32 32
44 44 44
44 44 44
44 44 44
44 44 44
32 32 32
32 32 32
32 32 32
32 32 32
32 32 32
44 44 44
32 32 32
44 44 44
44 44 44
44 44 44
44 44 44
44 44 44
44 44 44
44 44 44
32 32 32
32 32 32
32 32 32
56 56 56
44 44 44
44 44 44
44 44 44
32 32 32
32 32 32
44 44 44
44 44 44
44 44 44
44 44 44
44 44 44
44 44 44
56 56 56
32 32 32
44 44 44
56 56 56
56 56 56
56 56 56
56 56 56
72 72 72
72 72 72
72 72 72
72 72 72
56 56 56
56 56 56
44 44 44
44 44 44
32 32 32
32 32 32
32 32 32
56 56 56
32 32 32
56 56 56
44 44 44
44 44 44
44 44 44
56 56 56
32 32 32

176 0 0
176 0 0
176 0 0
164 0 0
164 0 0
164 0 0
164 0 0
164 0 0
164 0 0
164 0 0
164 0 0
164 0 0
164 0 0
164 0 0
164 0 0
136 0 0
44 44 44
56 56 56
44 44 44
188 0 0
188 0 0
188 0 0
176 0 0
176 0 0
176 0 0
176 0 0
176 0 0
176 0 0
176 0 0
176 0 0
164 0 0
164 0 0
164 0 0
164 0 0
164 0 0
164 0 0
164 0 0
164 0 0
164 0 0
164 0 0
164 0 0
164 0 0
152 0 0
152 0 0
152 0 0
152 0 0
152 0 0
152 0 0
152 0 0
152 0 0
152 0 0
152 0 0
136 0 0
44 44 44
32 32 32
56 56 56
188 0 0
188 0 0
176 0 0
176 0 0
176 0 0
176 0 0
176 0 0
176 0 0

152 0 0
112 0 0
112 0 0
152 0 0
124 0 0
100 0 0
152 0 0
100 0 0
124 0 0
112 0 0
152 0 0
76 0 0
152 0 0
112 0 0
136 0 0
76 0 0
32 32 32
44 44 44
56 56 56
188 0 0
88 0 0
152 0 0
176 0 0
100 0 0
164 0 0
76 0 0
112 0 0
164 0 0
112 0 0
112 0 0
176 0 0
124 0 0
136 0 0
112 0 0
100 0 0
112 0 0
136 0 0
112 0 0
136 0 0
112 0 0
136 0 0
100 0 0
176 0 0
76 0 0
176 0 0
112 0 0
124 0 0
164 0 0
176 0 0
124 0 0
176 0 0
136 0 0
76 0 0
32 32 32
44 44 44
32 32 32
188 0 0
176 0 0
100 0 0
152 0 0
112 0 0
152 0 0
112 0 0
152 0 0

112 0 0
136 0 0
112 0 0
136 0 0
100 0 0
112 0 0
112 0 0
76 0 0
136 0 0
112 0 0
76 0 0
112 0 0
136 0 0
136 0 0
88 0 0
76 0 0
32 32 32
44 44 44
44 44 44
176 0 0
152 0 0
88 0 0
136 0 0
100 0 0
136 0 0
136 0 0
112 0 0
136 0 0
76 0 0
136 0 0
88 0 0
76 0 0
112 0 0
136 0 0
100 0 0
136 0 0
100 0 0
136 0 0
76 0 0
136 0 0
136 0 0
112 0 0
76 0 0
136 0 0
112 0 0
136 0 0
88 0 0
112 0 0
136 0 0
88 0 0
136 0 0
88 0 0
76 0 0
32 32 32
44 44 44
56 56 56
188 0 0
152 0 0
100 0 0
136 0 0
112 0 0
100 0 0
136 0 0
124 0 0

88 0 0
136 0 0
136 0 0
112 0 0
124 0 0
76 0 0
136 0 0
100 0 0
112 0 0
112 0 0
124 0 0
76 0 0
136 0 0
112 0 0
88 0 0
76 0 0
32 32 32
32 32 32
44 44 44
176 0 0
88 0 0
136 0 0
112 0 0
124 0 0
112 0 0
112 0 0
76 0 0
112 0 0
112 0 0
88 0 0
136 0 0
112 0 0
76 0 0
136 0 0
112 0 0
100 0 0
76 0 0
100 0 0
112 0 0
112 0 0
136 0 0
76 0 0
112 0 0
100 0 0
136 0 0
88 0 0
136 0 0
88 0 0
136 0 0
136 0 0
88 0 0
88 0 0
76 0 0
32 32 32
44 44 44
44 44 44
176 0 0
100 0 0
136 0 0
136 0 0
136 0 0
100 0 0
136 0 0
100 0 0

136 0 0
112 0 0
112 0 0
136 0 0
112 0 0
100 0 0
100 0 0
112 0 0
100 0 0
136 0 0
124 0 0
76 0 0
136 0 0
76 0 0
88 0 0
76 0 0
32 32 32
32 32 32
44 44 44
176 0 0
88 0 0
136 0 0
136 0 0
100 0 0
136 0 0
76 0 0
112 0 0
136 0 0
76 0 0
88 0 0
136 0 0
76 0 0
112 0 0
136 0 0
100 0 0
112 0 0
100 0 0
136 0 0
76 0 0
136 0 0
112 0 0
76 0 0
136 0 0
76 0 0
136 0 0
88 0 0
112 0 0
88 0 0
136 0 0
88 0 0
136 0 0
88 0 0
76 0 0
32 32 32
32 32 32
44 44 44
176 0 0
152 0 0
100 0 0
136 0 0
100 0 0
136 0 0
124 0 0
100 0 0

88 0 0
136 0 0
76 0 0
136 0 0
88 0 0
112 0 0
100 0 0
124 0 0
76 0 0
136 0 0
76 0 0
112 0 0
136 0 0
136 0 0
88 0 0
76 0 0
32 32 32
44 44 44
56 56 56
176 0 0
152 0 0
76 0 0
136 0 0
100 0 0
136 0 0
112 0 0
76 0 0
112 0 0
76 0 0
112 0 0
88 0 0
76 0 0
136 0 0
112 0 0
100 0 0
76 0 0
100 0 0
136 0 0
76 0 0
112 0 0
76 0 0
112 0 0
136 0 0
76 0 0
112 0 0
136 0 0
88 0 0
112 0 0
136 0 0
88 0 0
136 0 0
88 0 0
76 0 0
32 32 32
32 32 32
44 44 44
152 0 0
100 0 0
136 0 0
136 0 0
76 0 0
136 0 0
100 0 0
112 0 0

88 0 0
152 0 0
76 0 0
88 0 0
76 0 0
100 0 0
88 0 0
124 0 0
88 0 0
124 0 0
88 0 0
76 0 0
124 0 0
88 0 0
88 0 0
76 0 0
32 32 32
44 44 44
56 56 56
152 0 0
136 0 0
88 0 0
112 0 0
76 0 0
88 0 0
124 0 0
88 0 0
112 0 0
76 0 0
88 0 0
112 0 0
76 0 0
88 0 0
124 0 0
88 0 0
124 0 0
76 0 0
112 0 0
88 0 0
112 0 0
112 0 0
76 0 0
124 0 0
88 0 0
88 0 0
112 0 0
76 0 0
88 0 0
124 0 0
88 0 0
112 0 0
88 0 0
76 0 0
32 32 32
44 44 44
56 56 56
152 0 0
136 0 0
100 0 0
88 0 0
76 0 0
88 0 0
124 0 0
88 0 0

76 0 0
88 0 0
76 0 0
76 0 0
76 0 0
76 0 0
76 0 0
76 0 0
76 0 0
76 0 0
76 0 0
76 0 0
76 0 0
76 0 0
76 0 0
76 0 0
32 32 32
44 44 44
56 56 56
136 0 0
76 0 0
76 0 0
76 0 0
76 0 0
76 0 0
76 0 0
76 0 0
76 0 0
76 0 0
76 0 0
76 0 0
76 0 0
76 0 0
76 0 0
76 0 0
76 0 0
76 0 0
76 0 0
76 0 0
76 0 0
76 0 0
76 0 0
76 0 0
76 0 0
76 0 0
76 0 0
76 0 0
76 0 0
76 0 0
76 0 0
76 0 0
76 0 0
76 0 0
32 32 32
44 44 44
32 32 32
136 0 0
76 0 0
76 0 0
76 0 0
76 0 0
76 0 0
76 0 0
76 0 0

32 32 32
32 32 32
32 32 32
32 32 32
32 32 32
32 32 32
32 32 32
32 32 32
32 32 32
32 32 32
32 32 32
32 32 32
32 32 32
32 32 32
32 32 32
32 32 32
32 32 32
44 44 44
32 32 32
44 44 44
32 32 32
32 32 32
32 32 32
32 32 32
32 32 32
32 32 32
32 32 32
32 32 32
32 32 32
32 32 32
32 32 32
32 32 32
32 32 32
32 32 32
32 32 32
32 32 32
32 32 32
32 32 32
32 32 32
32 32 32
32 32 32
32 32 32
32 32 32
32 32 32
32 32 32
32 32 32
32 32 32
32 32 32
32 32 32
32 32 32
32 32 32
32 32 32
32 32 32
32 32 32
44 44 44
56 56 56
44 44 44
32 32 32
32 32 32
32 32 32
32 32 32
32 32 32
32 32 32
32 32 32

56 56 56
56 56 56
44 44 44
32 32 32
32 32 32
44 44 44
56 56 56
32 32 32
56 56 56
32 32 32
44 44 44
44 44 44
32 32 32
32 32 32
32 32 32
32 32 32
44 44 44
44 44 44
56 56 56
44 44 44
44 44 44
44 44 44
56 56 56
32 32 32
44 44 44
32 32 32
44 44 44
32 32 32
56 56 56
44 44 44
44 44 44
44 44 44
56 56 56
32 32 32
56 56 56
44 44 44
44 44 44
32 32 32
32 32 32
32 32 32
44 44 44
44 44 44
44 44 44
44 44 44
56 56 56
32 32 32
32 32 32
32 32 32
44 44 44
44 44 44
44 44 44
44 44 44
56 56 56
44 44 44
56 56 56
32 32 32
56 56 56
32 32 32
32 32 32
32 32 32
56 56 56
44 44 44
44 44 44
44 44 44

56 56 56
188 0 0
188 0 0
188 0 0
176 0 0
176 0 0
164 0 0
164 0 0
164 0 0
164 0 0
164 0 0
164 0 0
164 0 0
164 0 0
164 0 0
152 0 0
152 0 0
152 0 0
152 0 0
152 0 0
152 0 0
152 0 0
152 0 0
152 0 0
152 0 0
152 0 0
152 0 0
136 0 0
44 44 44
56 56 56
56 56 56
188 0 0
188 0 0
188 0 0
176 0 0
176 0 0
176 0 0
176 0 0
176 0 0
176 0 0
176 0 0
164 0 0
164 0 0
164 0 0
164 0 0
164 0 0
164 0 0
164 0 0
164 0 0
152 0 0
152 0 0
152 0 0
152 0 0
152 0 0
152 0 0
152 0 0
152 0 0
152 0 0
152 0 0
152 0 0
152 0 0
152 0 0
136 0 0
44 44 44

56 56 56
176 0 0
112 0 0
152 0 0
164 0 0
100 0 0
164 0 0
100 0 0
164 0 0
100 0 0
152 0 0
112 0 0
152 0 0
112 0 0
152 0 0
176 0 0
112 0 0
152 0 0
112 0 0
152 0 0
112 0 0
164 0 0
152 0 0
76 0 0
152 0 0
176 0 0
88 0 0
76 0 0
32 32 32
44 44 44
56 56 56
188 0 0
164 0 0
88 0 0
188 0 0
136 0 0
152 0 0
112 0 0
136 0 0
152 0 0
112 0 0
152 0 0
124 0 0
152 0 0
100 0 0
76 0 0
136 0 0
112 0 0
88 0 0
112 0 0
136 0 0
100 0 0
112 0 0
136 0 0
124 0 0
112 0 0
136 0 0
100 0 0
112 0 0
136 0 0
76 0 0
136 0 0
76 0 0
32 32 32

32 32 32
176 0 0
152 0 0
112 0 0
136 0 0
124 0 0
136 0 0
100 0 0
88 0 0
112 0 0
136 0 0
136 0 0
112 0 0
124 0 0
112 0 0
136 0 0
112 0 0
76 0 0
136 0 0
88 0 0
136 0 0
112 0 0
76 0 0
112 0 0
136 0 0
88 0 0
152 0 0
76 0 0
32 32 32
44 44 44
72 72 72
188 0 0
164 0 0
124 0 0
136 0 0
76 0 0
136 0 0
76 0 0
112 0 0
88 0 0
124 0 0
112 0 0
76 0 0
136 0 0
76 0 0
112 0 0
136 0 0
76 0 0
136 0 0
88 0 0
136 0 0
100 0 0
136 0 0
112 0 0
136 0 0
76 0 0
136 0 0
124 0 0
100 0 0
136 0 0
100 0 0
88 0 0
76 0 0
32 32 32

44 44 44
176 0 0
76 0 0
136 0 0
136 0 0
88 0 0
112 0 0
76 0 0
136 0 0
76 0 0
136 0 0
88 0 0
136 0 0
112 0 0
124 0 0
136 0 0
76 0 0
112 0 0
136 0 0
88 0 0
112 0 0
136 0 0
112 0 0
76 0 0
100 0 0
136 0 0
88 0 0
76 0 0
32 32 32
56 56 56
72 72 72
188 0 0
164 0 0
100 0 0
136 0 0
100 0 0
136 0 0
76 0 0
136 0 0
88 0 0
124 0 0
136 0 0
100 0 0
136 0 0
100 0 0
136 0 0
112 0 0
76 0 0
136 0 0
88 0 0
88 0 0
136 0 0
124 0 0
88 0 0
124 0 0
112 0 0
136 0 0
136 0 0
100 0 0
136 0 0
76 0 0
88 0 0
76 0 0
32 32 32

44 44 44
176 0 0
152 0 0
112 0 0
136 0 0
76 0 0
136 0 0
76 0 0
88 0 0
112 0 0
136 0 0
112 0 0
88 0 0
100 0 0
136 0 0
100 0 0
112 0 0
76 0 0
100 0 0
136 0 0
76 0 0
136 0 0
112 0 0
76 0 0
136 0 0
88 0 0
76 0 0
76 0 0
32 32 32
56 56 56
72 72 72
188 0 0
88 0 0
136 0 0
88 0 0
124 0 0
112 0 0
76 0 0
112 0 0
124 0 0
88 0 0
136 0 0
76 0 0
112 0 0
76 0 0
112 0 0
136 0 0
100 0 0
112 0 0
88 0 0
112 0 0
100 0 0
136 0 0
112 0 0
136 0 0
76 0 0
136 0 0
100 0 0
112 0 0
136 0 0
100 0 0
88 0 0
76 0 0
32 32 32

56 56 56
176 0 0
88 0 0
76 0 0
136 0 0
76 0 0
112 0 0
100 0 0
136 0 0
76 0 0
136 0 0
76 0 0
136 0 0
76 0 0
136 0 0
112 0 0
76 0 0
112 0 0
136 0 0
112 0 0
76 0 0
136 0 0
76 0 0
112 0 0
100 0 0
100 0 0
152 0 0
76 0 0
32 32 32
44 44 44
56 56 56
152 0 0
176 0 0
88 0 0
136 0 0
88 0 0
136 0 0
112 0 0
136 0 0
112 0 0
88 0 0
136 0 0
76 0 0
136 0 0
76 0 0
88 0 0
88 0 0
76 0 0
136 0 0
76 0 0
136 0 0
76 0 0
136 0 0
76 0 0
136 0 0
136 0 0
112 0 0
76 0 0
76 0 0
88 0 0
112 0 0
88 0 0
76 0 0
32 32 32

44 44 44
176 0 0
136 0 0
76 0 0
88 0 0
88 0 0
88 0 0
76 0 0
88 0 0
76 0 0
88 0 0
88 0 0
112 0 0
76 0 0
112 0 0
88 0 0
88 0 0
112 0 0
88 0 0
88 0 0
76 0 0
88 0 0
124 0 0
88 0 0
124 0 0
88 0 0
88 0 0
76 0 0
32 32 32
32 32 32
56 56 56
176 0 0
136 0 0
88 0 0
124 0 0
88 0 0
112 0 0
76 0 0
88 0 0
88 0 0
88 0 0
88 0 0
76 0 0
112 0 0
88 0 0
112 0 0
76 0 0
136 0 0
76 0 0
88 0 0
136 0 0
76 0 0
88 0 0
112 0 0
76 0 0
136 0 0
76 0 0
136 0 0
76 0 0
136 0 0
88 0 0
88 0 0
76 0 0
32 32 32

44 44 44
136 0 0
124 0 0
76 0 0
76 0 0
76 0 0
76 0 0
76 0 0
76 0 0
76 0 0
76 0 0
76 0 0
76 0 0
76 0 0
76 0 0
76 0 0
76 0 0
76 0 0
76 0 0
76 0 0
76 0 0
76 0 0
76 0 0
76 0 0
76 0 0
76 0 0
76 0 0
76 0 0
32 32 32
32 32 32
56 56 56
136 0 0
76 0 0
76 0 0
76 0 0
76 0 0
76 0 0
76 0 0
76 0 0
76 0 0
76 0 0
76 0 0
76 0 0
76 0 0
76 0 0
76 0 0
76 0 0
76 0 0
76 0 0
76 0 0
76 0 0
76 0 0
76 0 0
76 0 0
76 0 0
76 0 0
76 0 0
76 0 0
76 0 0
76 0 0
76 0 0
76 0 0
76 0 0
32 32 32

44 44 44
44 44 44
32 32 32
32 32 32
32 32 32
32 32 32
32 32 32
32 32 32
32 32 32
32 32 32
32 32 32
32 32 32
32 32 32
32 32 32
32 32 32
32 32 32
32 32 32
32 32 32
32 32 32
32 32 32
32 32 32
32 32 32
32 32 32
32 32 32
32 32 32
32 32 32
32 32 32
32 32 32
32 32 32
44 44 44
44 44 44
44 44 44
32 32 32
32 32 32
32 32 32
32 32 32
32 32 32
32 32 32
32 32 32
32 32 32
32 32 32
32 32 32
32 32 32
32 32 32
32 32 32
32 32 32
32 32 32
32 32 32
32 32 32
32 32 32
32 32 32
32 32 32
32 32 32
32 32 32
32 32 32
32 32 32
32 32 32
32 32 32
32 32 32
32 32 32
32 32 32
32 32 32
32 32 32
32 32 32

56 56 56
56 56 56
56 56 56
56 56 56
56 56 56
44 44 44
44 44 44
32 32 32
44 44 44
32 32 32
32 32 32
32 32 32
44 44 44
56 56 56
72 72 72
72 72 72
56 56 56
56 56 56
56 56 56
44 44 44
44 44 44
44 44 44
44 44 44
32 32 32
32 32 32
32 32 32
44 44 44
32 32 32
32 32 32
32 32 32
56 56 56
44 44 44
44 44 44
44 44 44
56 56 56
32 32 32
56 56 56
44 44 44
56 56 56
44 44 44
44 44 44
32 32 32
44 44 44
32 32 32
44 44 44
44 44 44
56 56 56
56 56 56
44 44 44
44 44 44
44 44 44
32 32 32
44 44 44
44 44 44
44 44 44
44 44 44
56 56 56
32 32 32
56 56 56
44 44 44
44 44 44
44 44 44
56 56 56
32 32 32

164 0 0
164 0 0
164 0 0
152 0 0
152 0 0
152 0 0
152 0 0
152 0 0
152 0 0
152 0 0
136 0 0
44 44 44
32 32 32
56 56 56
188 0 0
176 0 0
176 0 0
176 0 0
176 0 0
164 0 0
164 0 0
164 0 0
164 0 0
164 0 0
164 0 0
164 0 0
164 0 0
164 0 0
164 0 0
164 0 0
164 0 0
152 0 0
152 0 0
152 0 0
152 0 0
152 0 0
152 0 0
152 0 0
152 0 0
136 0 0
44 44 44
56 56 56
56 56 56
188 0 0
188 0 0
176 0 0
176 0 0
176 0 0
164 0 0
164 0 0
164 0 0
164 0 0
164 0 0
164 0 0
164 0 0
164 0 0
164 0 0
164 0 0
164 0 0
164 0 0
164 0 0
164 0 0
164 0 0
164 0 0

136 0 0
152 0 0
136 0 0
152 0 0
124 0 0
176 0 0
152 0 0
152 0 0
176 0 0
136 0 0
76 0 0
32 32 32
44 44 44
32 32 32
188 0 0
136 0 0
76 0 0
136 0 0
88 0 0
136 0 0
136 0 0
76 0 0
136 0 0
112 0 0
136 0 0
136 0 0
88 0 0
136 0 0
112 0 0
76 0 0
136 0 0
136 0 0
76 0 0
136 0 0
136 0 0
88 0 0
136 0 0
100 0 0
136 0 0
76 0 0
32 32 32
44 44 44
56 56 56
188 0 0
136 0 0
100 0 0
136 0 0
88 0 0
136 0 0
136 0 0
76 0 0
136 0 0
100 0 0
112 0 0
100 0 0
136 0 0
88 0 0
136 0 0
112 0 0
136 0 0
100 0 0
136 0 0
88 0 0
136 0 0

136 0 0
100 0 0
112 0 0
136 0 0
124 0 0
136 0 0
100 0 0
136 0 0
112 0 0
88 0 0
76 0 0
32 32 32
44 44 44
56 56 56
176 0 0
76 0 0
136 0 0
100 0 0
112 0 0
136 0 0
100 0 0
136 0 0
124 0 0
88 0 0
136 0 0
112 0 0
112 0 0
88 0 0
112 0 0
112 0 0
136 0 0
112 0 0
76 0 0
136 0 0
88 0 0
112 0 0
136 0 0
76 0 0
136 0 0
76 0 0
32 32 32
56 56 56
56 56 56
176 0 0
136 0 0
76 0 0
136 0 0
88 0 0
136 0 0
112 0 0
76 0 0
136 0 0
112 0 0
136 0 0
100 0 0
112 0 0
112 0 0
124 0 0
88 0 0
124 0 0
100 0 0
124 0 0
112 0 0
88 0 0

112 0 0
100 0 0
136 0 0
124 0 0
100 0 0
136 0 0
100 0 0
124 0 0
136 0 0
88 0 0
76 0 0
32 32 32
44 44 44
32 32 32
176 0 0
76 0 0
136 0 0
136 0 0
100 0 0
124 0 0
136 0 0
88 0 0
136 0 0
88 0 0
136 0 0
112 0 0
136 0 0
76 0 0
136 0 0
76 0 0
112 0 0
112 0 0
136 0 0
112 0 0
88 0 0
124 0 0
136 0 0
100 0 0
136 0 0
76 0 0
32 32 32
56 56 56
72 72 72
176 0 0
136 0 0
100 0 0
136 0 0
88 0 0
136 0 0
112 0 0
136 0 0
112 0 0
136 0 0
136 0 0
100 0 0
136 0 0
88 0 0
124 0 0
112 0 0
136 0 0
124 0 0
100 0 0
136 0 0
88 0 0

136 0 0
112 0 0
100 0 0
136 0 0
124 0 0
136 0 0
124 0 0
100 0 0
112 0 0
88 0 0
76 0 0
32 32 32
44 44 44
56 56 56
176 0 0
124 0 0
76 0 0
136 0 0
100 0 0
136 0 0
100 0 0
76 0 0
124 0 0
112 0 0
112 0 0
112 0 0
88 0 0
112 0 0
136 0 0
76 0 0
136 0 0
112 0 0
76 0 0
112 0 0
124 0 0
88 0 0
112 0 0
136 0 0
100 0 0
76 0 0
32 32 32
56 56 56
72 72 72
176 0 0
100 0 0
136 0 0
136 0 0
88 0 0
136 0 0
76 0 0
136 0 0
136 0 0
100 0 0
100 0 0
136 0 0
100 0 0
136 0 0
112 0 0
124 0 0
124 0 0
112 0 0
100 0 0
88 0 0
112 0 0

136 0 0
112 0 0
100 0 0
136 0 0
100 0 0
136 0 0
100 0 0
124 0 0
136 0 0
88 0 0
76 0 0
32 32 32
44 44 44
44 44 44
176 0 0
76 0 0
136 0 0
100 0 0
76 0 0
124 0 0
136 0 0
88 0 0
112 0 0
112 0 0
136 0 0
112 0 0
136 0 0
88 0 0
112 0 0
76 0 0
76 0 0
124 0 0
76 0 0
136 0 0
124 0 0
88 0 0
136 0 0
100 0 0
136 0 0
76 0 0
32 32 32
44 44 44
56 56 56
176 0 0
136 0 0
100 0 0
136 0 0
136 0 0
88 0 0
136 0 0
112 0 0
112 0 0
100 0 0
136 0 0
100 0 0
136 0 0
88 0 0
124 0 0
112 0 0
136 0 0
100 0 0
112 0 0
136 0 0
88 0 0

88 0 0
88 0 0
112 0 0
124 0 0
88 0 0
88 0 0
124 0 0
88 0 0
88 0 0
88 0 0
76 0 0
32 32 32
44 44 44
44 44 44
124 0 0
76 0 0
136 0 0
136 0 0
76 0 0
136 0 0
100 0 0
88 0 0
136 0 0
88 0 0
136 0 0
76 0 0
136 0 0
76 0 0
112 0 0
76 0 0
136 0 0
112 0 0
76 0 0
124 0 0
88 0 0
124 0 0
136 0 0
76 0 0
100 0 0
76 0 0
32 32 32
44 44 44
56 56 56
176 0 0
136 0 0
76 0 0
136 0 0
88 0 0
136 0 0
136 0 0
112 0 0
136 0 0
112 0 0
136 0 0
100 0 0
136 0 0
88 0 0
124 0 0
88 0 0
124 0 0
100 0 0
136 0 0
136 0 0
88 0 0

76 0 0
76 0 0
76 0 0
76 0 0
76 0 0
76 0 0
76 0 0
76 0 0
76 0 0
76 0 0
76 0 0
32 32 32
44 44 44
44 44 44
136 0 0
76 0 0
76 0 0
76 0 0
76 0 0
76 0 0
76 0 0
76 0 0
76 0 0
76 0 0
76 0 0
76 0 0
76 0 0
76 0 0
76 0 0
76 0 0
76 0 0
76 0 0
76 0 0
76 0 0
76 0 0
76 0 0
76 0 0
76 0 0
76 0 0
76 0 0
32 32 32
44 44 44
44 44 44
136 0 0
76 0 0
76 0 0
76 0 0
76 0 0
76 0 0
76 0 0
76 0 0
76 0 0
76 0 0
76 0 0
76 0 0
76 0 0
76 0 0
76 0 0
76 0 0
76 0 0
76 0 0
76 0 0
76 0 0
76 0 0

32 32 32
32 32 32
32 32 32
32 32 32
32 32 32
32 32 32
32 32 32
32 32 32
32 32 32
32 32 32
32 32 32
32 32 32
44 44 44
56 56 56
44 44 44
32 32 32
32 32 32
32 32 32
32 32 32
32 32 32
32 32 32
32 32 32
32 32 32
32 32 32
32 32 32
32 32 32
32 32 32
32 32 32
32 32 32
32 32 32
32 32 32
32 32 32
32 32 32
32 32 32
32 32 32
32 32 32
32 32 32
32 32 32
32 32 32
32 32 32
32 32 32
44 44 44
44 44 44
44 44 44
32 32 32
32 32 32
32 32 32
32 32 32
32 32 32
32 32 32
44 44 44
32 32 32
32 32 32
32 32 32
32 32 32
32 32 32
32 32 32
32 32 32
32 32 32
32 32 32
32 32 32
32 32 32
32 32 32
32 32 32

56 56 56
44 44 44
56 56 56
32 32 32
44 44 44
32 32 32
32 32 32
44 44 44
44 44 44
32 32 32
32 32 32
32 32 32
32 32 32
44 44 44
44 44 44
32 32 32
32 32 32
32 32 32
44 44 44
44 44 44
44 44 44
44 44 44
44 44 44
56 56 56
56 56 56
44 44 44
44 44 44
32 32 32
32 32 32
32 32 32
56 56 56
44 44 44
44 44 44
44 44 44
56 56 56
32 32 32
44 44 44
32 32 32
44 44 44
32 32 32
44 44 44
44 44 44
56 56 56
44 44 44
56 56 56
32 32 32
56 56 56
44 44 44
56 56 56
72 72 72
72 72 72
56 56 56
56 56 56
44 44 44
44 44 44
32 32 32
56 56 56
44 44 44
56 56 56
44 44 44
56 56 56
32 32 32
56 56 56
32 32 32

32 32 32
188 0 0
188 0 0
176 0 0
176 0 0
176 0 0
176 0 0
176 0 0
164 0 0
164 0 0
164 0 0
164 0 0
164 0 0
164 0 0
164 0 0
164 0 0
164 0 0
152 0 0
152 0 0
152 0 0
152 0 0
152 0 0
152 0 0
152 0 0
152 0 0
152 0 0
152 0 0
152 0 0
152 0 0
152 0 0
152 0 0
136 0 0
32 32 32
56 56 56
32 32 32
188 0 0
188 0 0
176 0 0
176 0 0
176 0 0
176 0 0
164 0 0
164 0 0
164 0 0
164 0 0
164 0 0
164 0 0
164 0 0
164 0 0
164 0 0
164 0 0
164 0 0
152 0 0
152 0 0
152 0 0
152 0 0
152 0 0
152 0 0
152 0 0
152 0 0
152 0 0
152 0 0
136 0 0
44 44 44

56 56 56
188 0 0
136 0 0
112 0 0
112 0 0
136 0 0
76 0 0
136 0 0
136 0 0
100 0 0
124 0 0
136 0 0
100 0 0
136 0 0
88 0 0
112 0 0
136 0 0
76 0 0
136 0 0
100 0 0
136 0 0
112 0 0
136 0 0
76 0 0
136 0 0
76 0 0
136 0 0
136 0 0
100 0 0
88 0 0
136 0 0
76 0 0
32 32 32
44 44 44
56 56 56
188 0 0
136 0 0
136 0 0
76 0 0
136 0 0
76 0 0
136 0 0
76 0 0
136 0 0
88 0 0
136 0 0
76 0 0
136 0 0
112 0 0
76 0 0
124 0 0
112 0 0
88 0 0
136 0 0
112 0 0
100 0 0
136 0 0
100 0 0
124 0 0
88 0 0
112 0 0
136 0 0
76 0 0
32 32 32

44 44 44
176 0 0
136 0 0
76 0 0
136 0 0
112 0 0
76 0 0
136 0 0
112 0 0
124 0 0
100 0 0
136 0 0
76 0 0
112 0 0
76 0 0
136 0 0
124 0 0
76 0 0
136 0 0
76 0 0
112 0 0
124 0 0
112 0 0
76 0 0
136 0 0
100 0 0
136 0 0
100 0 0
136 0 0
88 0 0
124 0 0
76 0 0
32 32 32
44 44 44
44 44 44
176 0 0
112 0 0
136 0 0
76 0 0
112 0 0
76 0 0
100 0 0
76 0 0
112 0 0
76 0 0
124 0 0
100 0 0
136 0 0
76 0 0
136 0 0
76 0 0
136 0 0
88 0 0
112 0 0
88 0 0
136 0 0
112 0 0
100 0 0
124 0 0
136 0 0
76 0 0
112 0 0
76 0 0
32 32 32

44 44 44
176 0 0
112 0 0
76 0 0
136 0 0
76 0 0
112 0 0
88 0 0
76 0 0
136 0 0
76 0 0
136 0 0
112 0 0
100 0 0
112 0 0
136 0 0
76 0 0
124 0 0
112 0 0
112 0 0
76 0 0
100 0 0
136 0 0
76 0 0
124 0 0
76 0 0
112 0 0
76 0 0
112 0 0
112 0 0
88 0 0
76 0 0
32 32 32
32 32 32
44 44 44
176 0 0
112 0 0
136 0 0
76 0 0
76 0 0
112 0 0
136 0 0
100 0 0
76 0 0
136 0 0
100 0 0
76 0 0
124 0 0
136 0 0
76 0 0
136 0 0
88 0 0
88 0 0
136 0 0
88 0 0
136 0 0
100 0 0
136 0 0
88 0 0
112 0 0
76 0 0
136 0 0
76 0 0
32 32 32

32 32 32
176 0 0
136 0 0
112 0 0
136 0 0
112 0 0
76 0 0
136 0 0
112 0 0
100 0 0
124 0 0
136 0 0
100 0 0
136 0 0
76 0 0
112 0 0
136 0 0
76 0 0
136 0 0
76 0 0
112 0 0
136 0 0
76 0 0
124 0 0
136 0 0
100 0 0
136 0 0
136 0 0
136 0 0
88 0 0
100 0 0
76 0 0
32 32 32
32 32 32
44 44 44
176 0 0
136 0 0
76 0 0
136 0 0
112 0 0
76 0 0
136 0 0
76 0 0
136 0 0
88 0 0
124 0 0
100 0 0
100 0 0
76 0 0
112 0 0
76 0 0
136 0 0
100 0 0
112 0 0
124 0 0
112 0 0
124 0 0
100 0 0
88 0 0
136 0 0
112 0 0
136 0 0
76 0 0
32 32 32

56 56 56
176 0 0
136 0 0
76 0 0
112 0 0
136 0 0
76 0 0
136 0 0
76 0 0
136 0 0
76 0 0
136 0 0
76 0 0
136 0 0
88 0 0
136 0 0
76 0 0
76 0 0
136 0 0
76 0 0
112 0 0
100 0 0
136 0 0
100 0 0
112 0 0
76 0 0
124 0 0
76 0 0
112 0 0
88 0 0
136 0 0
76 0 0
32 32 32
32 32 32
56 56 56
176 0 0
136 0 0
76 0 0
76 0 0
136 0 0
76 0 0
100 0 0
76 0 0
136 0 0
76 0 0
136 0 0
76 0 0
124 0 0
76 0 0
136 0 0
76 0 0
112 0 0
88 0 0
136 0 0
88 0 0
100 0 0
136 0 0
100 0 0
124 0 0
112 0 0
76 0 0
88 0 0
76 0 0
32 32 32

32 32 32
176 0 0
136 0 0
76 0 0
136 0 0
76 0 0
112 0 0
88 0 0
112 0 0
124 0 0
100 0 0
136 0 0
112 0 0
112 0 0
112 0 0
136 0 0
124 0 0
76 0 0
112 0 0
100 0 0
76 0 0
76 0 0
136 0 0
76 0 0
136 0 0
88 0 0
124 0 0
100 0 0
136 0 0
88 0 0
136 0 0
76 0 0
32 32 32
32 32 32
56 56 56
176 0 0
88 0 0
136 0 0
76 0 0
112 0 0
76 0 0
136 0 0
76 0 0
100 0 0
136 0 0
100 0 0
76 0 0
124 0 0
88 0 0
112 0 0
76 0 0
136 0 0
88 0 0
136 0 0
88 0 0
136 0 0
100 0 0
124 0 0
88 0 0
136 0 0
76 0 0
136 0 0
76 0 0
32 32 32

56 56 56
136 0 0
76 0 0
76 0 0
76 0 0
76 0 0
76 0 0
76 0 0
76 0 0
76 0 0
76 0 0
76 0 0
76 0 0
76 0 0
76 0 0
76 0 0
76 0 0
76 0 0
76 0 0
76 0 0
76 0 0
76 0 0
76 0 0
76 0 0
76 0 0
76 0 0
76 0 0
76 0 0
76 0 0
76 0 0
76 0 0
76 0 0
32 32 32
44 44 44
56 56 56
136 0 0
76 0 0
76 0 0
76 0 0
76 0 0
76 0 0
76 0 0
76 0 0
76 0 0
76 0 0
76 0 0
76 0 0
76 0 0
76 0 0
76 0 0
76 0 0
76 0 0
76 0 0
76 0 0
76 0 0
76 0 0
76 0 0
76 0 0
76 0 0
76 0 0
76 0 0
76 0 0
76 0 0
32 32 32

32 32 32
44 44 44
32 32 32
32 32 32
32 32 32
32 32 32
32 32 32
32 32 32
32 32 32
32 32 32
32 32 32
32 32 32
32 32 32
32 32 32
32 32 32
32 32 32
32 32 32
32 32 32
32 32 32
32 32 32
32 32 32
32 32 32
32 32 32
32 32 32
32 32 32
32 32 32
32 32 32
32 32 32
32 32 32
32 32 32
32 32 32
32 32 32
32 32 32
44 44 44
32 32 32
44 44 44
32 32 32
32 32 32
32 32 32
32 32 32
32 32 32
32 32 32
32 32 32
32 32 32
32 32 32
32 32 32
32 32 32
32 32 32
32 32 32
32 32 32
32 32 32
32 32 32
32 32 32
32 32 32
32 32 32
32 32 32
32 32 32
32 32 32
32 32 32
32 32 32
32 32 32
32 32 32
32 32 32
32 32 32

56 56 56
32 32 32
56 56 56
32 32 32
56 56 56
44 44 44
56 56 56
44 44 44
44 44 44
44 44 44
44 44 44
56 56 56
72 72 72
72 72 72
56 56 56
44 44 44
56 56 56
32 32 32
56 56 56
44 44 44
56 56 56
44 44 44
44 44 44
32 32 32
32 32 32
32 32 32
44 44 44
44 44 44
56 56 56
44 44 44
44 44 44
32 32 32
44 44 44
44 44 44
56 56 56
32 32 32
56 56 56
44 44 44
44 44 44
44 44 44
44 44 44
44 44 44
44 44 44
44 44 44
44 44 44
56 56 56
56 56 56
56 56 56
56 56 56
56 56 56
44 44 44
44 44 44
44 44 44
44 44 44
32 32 32
32 32 32
32 32 32
32 32 32
32 32 32
32 32 32
44 44 44
44 44 44
56 56 56
44 44 44

164 0 0
164 0 0
164 0 0
164 0 0
164 0 0
164 0 0
152 0 0
152 0 0
152 0 0
152 0 0
152 0 0
152 0 0
152 0 0
152 0 0
152 0 0
152 0 0
152 0 0
136 0 0
44 44 44
56 56 56
44 44 44
188 0 0
188 0 0
188 0 0
188 0 0
176 0 0
176 0 0
176 0 0
176 0 0
176 0 0
164 0 0
164 0 0
164 0 0
164 0 0
164 0 0
164 0 0
152 0 0
152 0 0
152 0 0
152 0 0
152 0 0
152 0 0
152 0 0
152 0 0
152 0 0
152 0 0
136 0 0
44 44 44
32 32 32
56 56 56
188 0 0
188 0 0
188 0 0
188 0 0
176 0 0
176 0 0
176 0 0
164 0 0
164 0 0
164 0 0
164 0 0
164 0 0
164 0 0
164 0 0

100 0 0
136 0 0
76 0 0
136 0 0
136 0 0
76 0 0
124 0 0
76 0 0
136 0 0
100 0 0
176 0 0
100 0 0
136 0 0
76 0 0
136 0 0
100 0 0
136 0 0
76 0 0
32 32 32
44 44 44
44 44 44
188 0 0
136 0 0
136 0 0
136 0 0
136 0 0
76 0 0
136 0 0
76 0 0
136 0 0
100 0 0
136 0 0
76 0 0
136 0 0
76 0 0
136 0 0
124 0 0
136 0 0
76 0 0
136 0 0
76 0 0
136 0 0
76 0 0
136 0 0
88 0 0
76 0 0
76 0 0
32 32 32
44 44 44
56 56 56
176 0 0
136 0 0
76 0 0
112 0 0
136 0 0
76 0 0
136 0 0
88 0 0
136 0 0
88 0 0
136 0 0
76 0 0
136 0 0
88 0 0

136 0 0
100 0 0
100 0 0
136 0 0
100 0 0
136 0 0
76 0 0
124 0 0
100 0 0
76 0 0
136 0 0
76 0 0
100 0 0
76 0 0
112 0 0
76 0 0
112 0 0
76 0 0
32 32 32
44 44 44
44 44 44
176 0 0
100 0 0
136 0 0
88 0 0
136 0 0
76 0 0
88 0 0
76 0 0
100 0 0
124 0 0
100 0 0
136 0 0
112 0 0
76 0 0
112 0 0
124 0 0
76 0 0
100 0 0
112 0 0
88 0 0
112 0 0
76 0 0
136 0 0
76 0 0
136 0 0
76 0 0
32 32 32
44 44 44
56 56 56
188 0 0
76 0 0
136 0 0
76 0 0
136 0 0
88 0 0
136 0 0
88 0 0
112 0 0
136 0 0
88 0 0
136 0 0
112 0 0
76 0 0

136 0 0
100 0 0
76 0 0
100 0 0
136 0 0
76 0 0
124 0 0
76 0 0
100 0 0
136 0 0
100 0 0
76 0 0
136 0 0
112 0 0
76 0 0
124 0 0
100 0 0
76 0 0
32 32 32
44 44 44
44 44 44
152 0 0
100 0 0
100 0 0
88 0 0
136 0 0
76 0 0
100 0 0
100 0 0
136 0 0
76 0 0
136 0 0
76 0 0
136 0 0
136 0 0
76 0 0
136 0 0
76 0 0
136 0 0
76 0 0
112 0 0
76 0 0
112 0 0
112 0 0
76 0 0
88 0 0
76 0 0
32 32 32
44 44 44
56 56 56
188 0 0
76 0 0
136 0 0
88 0 0
88 0 0
136 0 0
136 0 0
112 0 0
88 0 0
112 0 0
88 0 0
76 0 0
88 0 0
112 0 0

100 0 0
124 0 0
76 0 0
124 0 0
76 0 0
76 0 0
136 0 0
76 0 0
136 0 0
100 0 0
136 0 0
76 0 0
100 0 0
88 0 0
76 0 0
136 0 0
76 0 0
76 0 0
32 32 32
44 44 44
32 32 32
152 0 0
136 0 0
76 0 0
88 0 0
136 0 0
76 0 0
136 0 0
76 0 0
136 0 0
100 0 0
124 0 0
76 0 0
136 0 0
76 0 0
112 0 0
100 0 0
76 0 0
136 0 0
76 0 0
136 0 0
112 0 0
76 0 0
88 0 0
124 0 0
76 0 0
76 0 0
32 32 32
44 44 44
56 56 56
188 0 0
136 0 0
76 0 0
76 0 0
136 0 0
112 0 0
88 0 0
88 0 0
136 0 0
88 0 0
136 0 0
76 0 0
88 0 0
136 0 0

76 0 0
136 0 0
100 0 0
136 0 0
76 0 0
136 0 0
76 0 0
112 0 0
136 0 0
76 0 0
136 0 0
100 0 0
76 0 0
112 0 0
136 0 0
100 0 0
112 0 0
76 0 0
32 32 32
44 44 44
56 56 56
176 0 0
76 0 0
136 0 0
136 0 0
76 0 0
136 0 0
100 0 0
88 0 0
112 0 0
76 0 0
100 0 0
76 0 0
136 0 0
76 0 0
136 0 0
76 0 0
100 0 0
100 0 0
76 0 0
112 0 0
88 0 0
76 0 0
112 0 0
88 0 0
76 0 0
76 0 0
32 32 32
44 44 44
44 44 44
188 0 0
76 0 0
136 0 0
112 0 0
136 0 0
88 0 0
136 0 0
112 0 0
88 0 0
88 0 0
76 0 0
136 0 0
88 0 0
136 0 0

76 0 0
136 0 0
100 0 0
100 0 0
76 0 0
124 0 0
124 0 0
76 0 0
124 0 0
76 0 0
100 0 0
76 0 0
136 0 0
76 0 0
136 0 0
76 0 0
124 0 0
76 0 0
32 32 32
44 44 44
44 44 44
176 0 0
76 0 0
136 0 0
88 0 0
136 0 0
76 0 0
100 0 0
100 0 0
112 0 0
76 0 0
124 0 0
76 0 0
112 0 0
76 0 0
136 0 0
100 0 0
76 0 0
136 0 0
112 0 0
76 0 0
136 0 0
76 0 0
136 0 0
76 0 0
112 0 0
76 0 0
32 32 32
32 32 32
44 44 44
188 0 0
76 0 0
136 0 0
76 0 0
88 0 0
76 0 0
136 0 0
88 0 0
136 0 0
88 0 0
76 0 0
76 0 0
136 0 0
76 0 0

100 0 0
124 0 0
76 0 0
136 0 0
76 0 0
76 0 0
112 0 0
76 0 0
100 0 0
100 0 0
136 0 0
76 0 0
136 0 0
76 0 0
88 0 0
112 0 0
100 0 0
76 0 0
32 32 32
44 44 44
56 56 56
176 0 0
136 0 0
76 0 0
88 0 0
136 0 0
76 0 0
136 0 0
76 0 0
112 0 0
76 0 0
136 0 0
76 0 0
136 0 0
88 0 0
76 0 0
136 0 0
76 0 0
100 0 0
136 0 0
76 0 0
112 0 0
88 0 0
112 0 0
76 0 0
112 0 0
76 0 0
32 32 32
32 32 32
44 44 44
176 0 0
76 0 0
76 0 0
76 0 0
136 0 0
76 0 0
136 0 0
88 0 0
136 0 0
88 0 0
136 0 0
76 0 0
136 0 0
88 0 0

76 0 0
76 0 0
76 0 0
76 0 0
76 0 0
76 0 0
76 0 0
76 0 0
76 0 0
76 0 0
76 0 0
76 0 0
76 0 0
76 0 0
76 0 0
76 0 0
76 0 0
76 0 0
32 32 32
44 44 44
44 44 44
136 0 0
76 0 0
76 0 0
76 0 0
76 0 0
76 0 0
76 0 0
76 0 0
76 0 0
76 0 0
76 0 0
76 0 0
76 0 0
76 0 0
76 0 0
76 0 0
76 0 0
76 0 0
76 0 0
76 0 0
76 0 0
76 0 0
76 0 0
76 0 0
76 0 0
76 0 0
32 32 32
44 44 44
56 56 56
136 0 0
76 0 0
76 0 0
76 0 0
76 0 0
76 0 0
76 0 0
76 0 0
76 0 0
76 0 0
76 0 0
76 0 0
76 0 0
76 0 0

32 32 32
32 32 32
32 32 32
32 32 32
32 32 32
32 32 32
32 32 32
32 32 32
32 32 32
32 32 32
32 32 32
32 32 32
32 32 32
32 32 32
32 32 32
32 32 32
32 32 32
32 32 32
32 32 32
44 44 44
56 56 56
44 44 44
32 32 32
32 32 32
32 32 32
32 32 32
32 32 32
32 32 32
32 32 32
32 32 32
32 32 32
32 32 32
32 32 32
32 32 32
32 32 32
32 32 32
32 32 32
32 32 32
32 32 32
32 32 32
32 32 32
32 32 32
32 32 32
32 32 32
32 32 32
32 32 32
32 32 32
32 32 32
32 32 32
44 44 44
44 44 44
32 32 32
32 32 32
32 32 32
32 32 32
32 32 32
32 32 32
32 32 32
32 32 32
32 32 32
32 32 32
32 32 32
32 32 32
32 32 32

32 32 32
56 56 56
32 32 32
56 56 56
32 32 32
32 32 32
32 32 32
44 44 44
44 44 44
44 44 44
44 44 44
44 44 44
56 56 56
56 56 56
32 32 32
44 44 44
44 44 44
44 44 44
44 44 44
56 56 56
56 56 56
56 56 56
56 56 56
56 56 56
44 44 44
44 44 44
44 44 44
56 56 56
44 44 44
44 44 44
44 44 44
56 56 56
44 44 44
44 44 44
32 32 32
44 44 44
44 44 44
44 44 44
44 44 44
32 32 32
32 32 32
44 44 44
32 32 32
32 32 32
44 44 44
44 44 44
32 32 32
32 32 32
32 32 32
56 56 56
44 44 44
44 44 44
32 32 32
56 56 56
44 44 44
44 44 44
44 44 44
44 44 44
32 32 32
32 32 32
32 32 32
44 44 44
44 44 44
44 44 44

72 72 72
72 72 72
72 72 72
72 72 72
72 72 72
72 72 72
72 72 72
72 72 72
72 72 72
72 72 72
72 72 72
72 72 72
72 72 72
72 72 72
72 72 72
72 72 72
72 72 72
72 72 72
72 72 72
72 72 72
72 72 72
72 72 72
72 72 72
72 72 72
72 72 72
72 72 72
72 72 72
72 72 72
72 72 72
72 72 72
72 72 72
72 72 72
72 72 72
72 72 72
72 72 72
72 72 72
72 72 72
72 72 72
72 72 72
72 72 72
72 72 72
72 72 72
72 72 72
72 72 72
72 72 72
72 72 72
72 72 72
72 72 72
72 72 72
72 72 72
72 72 72
72 72 72
72 72 72
72 72 72
72 72 72
72 72 72
72 72 72
72 72 72
72 72 72
72 72 72
72 72 72
72 72 72
72 72 72
72 72 72

