P3
# ASCII PPM file
64 64
255

56 56 56
56 56 56
56 56 56
56 56 56
56 56 56
56 56 56
56 56 56
56 56 56
56 56 56
56 56 56
56 56 56
56 56 56
56 56 56
56 56 56
56 56 56
56 56 56
56 56 56
56 56 56
56 56 56
56 56 56
56 56 56
56 56 56
56 56 56
56 56 56
56 56 56
56 56 56
56 56 56
56 56 56
56 56 56
56 56 56
56 56 56
56 56 56
56 56 56
56 56 56
56 56 56
56 56 56
56 56 56
56 56 56
56 56 56
56 56 56
56 56 56
56 56 56
56 56 56
56 56 56
56 56 56
56 56 56
56 56 56
56 56 56
56 56 56
56 56 56
56 56 56
56 56 56
56 56 56
56 56 56
56 56 56
56 56 56
56 56 56
56 56 56
56 56 56
56 56 56
56 56 56
56 56 56
56 56 56
56 56 56

56 56 56
32 32 32
56 56 56
44 44 44
44 44 44
44 44 44
44 44 44
44 44 44
56 56 56
44 44 44
44 44 44
44 44 44
44 44 44
44 44 44
44 44 44
56 56 56
44 44 44
32 32 32
44 44 44
44 44 44
44 44 44
44 44 44
44 44 44
44 44 44
44 44 44
56 56 56
56 56 56
56 56 56
56 56 56
56 56 56
56 56 56
44 44 44
44 44 44
44 44 44
44 44 44
44 44 44
44 44 44
44 44 44
44 44 44
44 44 44
56 56 56
56 56 56
56 56 56
56 56 56
56 56 56
56 56 56
56 56 56
44 44 44
44 44 44
44 44 44
44 44 44
32 32 32
32 32 32
32 32 32
44 44 44
44 44 44
56 56 56
56 56 56
44 44 44
44 44 44
44 44 44
44 44 44
44 44 44
32 32 32

32 32 32
200 0 0
200 0 0
200 0 0
200 0 0
164 0 0
164 0 0
164 0 0
164 0 0
164 0 0
164 0 0
164 0 0
136 0 0
44 44 44
44 44 44
56 56 56
188 0 0
188 0 0
188 0 0
188 0 0
176 0 0
176 0 0
176 0 0
176 0 0
164 0 0
164 0 0
164 0 0
164 0 0
152 0 0
152 0 0
152 0 0
152 0 0
152 0 0
152 0 0
152 0 0
152 0 0
136 0 0
44 44 44
32 32 32
56 56 56
200 0 0
200 0 0
200 0 0
200 0 0
176 0 0
176 0 0
176 0 0
176 0 0
176 0 0
164 0 0
164 0 0
164 0 0
164 0 0
164 0 0
164 0 0
164 0 0
152 0 0
152 0 0
152 0 0
152 0 0
152 0 0
152 0 0
136 0 0
44 44 44

44 44 44
156 156 0
176 0 0
152 0 0
152 0 0
188 0 0
112 0 0
136 0 0
188 0 0
112 0 0
176 0 0
136 0 0
76 0 0
32 32 32
44 44 44
56 56 56
188 0 0
164 0 0
112 0 0
164 0 0
112 0 0
164 0 0
112 0 0
164 0 0
100 0 0
164 0 0
124 0 0
164 0 0
124 0 0
164 0 0
100 0 0
164 0 0
100 0 0
164 0 0
176 0 0
136 0 0
88 0 0
32 32 32
44 44 44
32 32 32
200 0 0
136 0 0
176 0 0
152 0 0
176 0 0
152 0 0
152 0 0
176 0 0
88 0 0
176 0 0
100 0 0
176 0 0
152 0 0
176 0 0
112 0 0
152 0 0
136 0 0
100 0 0
176 0 0
124 0 0
176 0 0
136 0 0
156 156 0
32 32 32

156 156 0
132 132 0
132 132 0
140 140 140
140 140 140
140 140 140
140 140 140
140 140 140
140 140 140
140 140 140
140 140 140
140 140 140
140 140 140
140 140 140
140 140 140
140 140 140
140 140 140
140 140 140
140 140 140
140 140 140
140 140 140
140 140 140
140 140 140
140 140 140
140 140 140
140 140 140
140 140 140
140 140 140
140 140 140
140 140 140
140 140 140
140 140 140
140 140 140
140 140 140
140 140 140
140 140 140
140 140 140
140 140 140
140 140 140
140 140 140
140 140 140
140 140 140
140 140 140
140 140 140
140 140 140
140 140 140
140 140 140
140 140 140
140 140 140
140 140 140
140 140 140
140 140 140
140 140 140
140 140 140
140 140 140
140 140 140
140 140 140
140 140 140
140 140 140
140 140 140
140 140 140
180 172 0
180 172 0
112 108 0

116 76 40
112 108 0
88 84 0
72 72 72
72 72 72
84 84 84
84 84 84
84 84 84
84 84 84
84 84 84
84 84 84
84 84 84
84 84 84
84 84 84
84 84 84
84 84 84
84 84 84
84 84 84
84 84 84
84 84 84
84 84 84
84 84 84
84 84 84
84 84 84
84 84 84
84 84 84
84 84 84
84 84 84
84 84 84
84 84 84
84 84 84
84 84 84
84 84 84
84 84 84
84 84 84
84 84 84
84 84 84
84 84 84
84 84 84
84 84 84
84 84 84
84 84 84
84 84 84
84 84 84
84 84 84
84 84 84
84 84 84
84 84 84
84 84 84
84 84 84
84 84 84
84 84 84
84 84 84
84 84 84
84 84 84
84 84 84
84 84 84
84 84 84
72 72 72
72 72 72
72 72 72
88 84 0
136 88 48
88 84 0

44 44 44
56 44 20
136 0 0
84 84 84
84 84 84
84 84 84
84 84 84
112 112 112
112 112 112
112 112 112
112 112 112
112 112 112
112 112 112
112 112 112
112 112 112
112 112 112
112 112 112
112 112 112
112 112 112
112 112 112
112 112 112
112 112 112
112 112 112
112 112 112
112 112 112
112 112 112
112 112 112
112 112 112
112 112 112
112 112 112
112 112 112
112 112 112
112 112 112
112 112 112
112 112 112
112 112 112
112 112 112
112 112 112
112 112 112
112 112 112
112 112 112
112 112 112
112 112 112
112 112 112
112 112 112
112 112 112
112 112 112
112 112 112
112 112 112
112 112 112
112 112 112
112 112 112
112 112 112
112 112 112
112 112 112
112 112 112
112 112 112
84 84 84
72 72 72
84 84 84
84 84 84
64 0 0
92 64 32
32 32 32

44 44 44
124 0 0
100 0 0
112 112 112
84 84 84
164 0 0
112 0 0
64 0 0
64 0 0
44 44 44
76 0 0
76 0 0
76 0 0
76 0 0
76 0 0
76 0 0
76 0 0
76 0 0
76 0 0
76 0 0
76 0 0
76 0 0
76 0 0
76 0 0
76 0 0
76 0 0
76 0 0
76 0 0
76 0 0
76 0 0
76 0 0
76 0 0
76 0 0
76 0 0
76 0 0
76 0 0
76 0 0
76 0 0
76 0 0
76 0 0
76 0 0
76 0 0
76 0 0
76 0 0
76 0 0
76 0 0
76 0 0
76 0 0
76 0 0
100 0 0
136 0 0
152 0 0
200 0 0
176 0 0
84 84 84
64 0 0
64 0 0
64 0 0
84 84 84
152 152 152
72 72 72
64 0 0
76 0 0
32 32 32

44 44 44
124 0 0
136 0 0
124 124 124
84 84 84
112 0 0
152 152 152
112 112 112
72 72 72
64 0 0
84 84 84
124 124 124
152 152 152
168 168 168
152 152 152
152 152 152
140 140 140
140 140 140
140 140 140
140 140 140
140 140 140
140 140 140
140 140 140
140 140 140
140 140 140
140 140 140
140 140 140
140 140 140
140 140 140
140 140 140
140 140 140
140 140 140
140 140 140
140 140 140
140 140 140
140 140 140
140 140 140
140 140 140
140 140 140
140 140 140
140 140 140
140 140 140
140 140 140
140 140 140
140 140 140
140 140 140
140 140 140
140 140 140
152 152 152
152 152 152
152 152 152
152 152 152
152 152 152
84 84 84
64 0 0
84 84 84
72 72 72
112 112 112
188 0 0
84 84 84
72 72 72
64 0 0
76 0 0
32 32 32

44 44 44
100 0 0
76 0 0
140 140 140
112 112 112
64 0 0
112 112 112
152 152 152
112 112 112
84 84 84
100 100 100
112 112 112
124 124 124
124 124 124
100 100 100
84 84 84
124 124 124
168 168 168
152 152 152
140 140 140
140 140 140
140 140 140
140 140 140
140 140 140
140 140 140
140 140 140
140 140 140
140 140 140
140 140 140
140 140 140
140 140 140
140 140 140
140 140 140
140 140 140
140 140 140
140 140 140
140 140 140
140 140 140
140 140 140
140 140 140
140 140 140
140 140 140
140 140 140
140 140 140
140 140 140
140 140 140
140 140 140
100 100 100
72 0 72
56 56 56
152 152 152
140 140 140
124 124 124
124 124 124
124 124 124
72 72 72
124 124 124
168 168 168
124 0 0
72 72 72
84 84 84
76 0 0
76 0 0
32 32 32

44 44 44
44 44 44
32 32 32
168 168 168
124 124 124
64 0 0
112 112 112
124 124 124
152 152 152
112 112 112
84 84 84
84 84 84
112 112 112
112 112 112
56 56 56
64 0 64
72 72 72
124 124 124
168 168 168
168 168 168
152 152 152
152 152 152
140 140 140
140 140 140
140 140 140
140 140 140
140 140 140
140 140 140
140 140 140
140 140 140
140 140 140
140 140 140
140 140 140
140 140 140
140 140 140
140 140 140
140 140 140
140 140 140
140 140 140
140 140 140
140 140 140
140 140 140
140 140 140
140 140 140
152 152 152
152 152 152
100 100 100
56 56 56
64 0 64
32 32 32
112 112 112
124 124 124
124 124 124
112 112 112
112 112 112
124 124 124
168 168 168
84 84 84
64 0 0
84 84 84
112 112 112
0 0 0
0 0 0
32 32 32

56 56 56
32 32 32
32 32 32
168 168 168
140 140 140
44 44 44
72 72 72
112 112 112
140 140 140
152 152 152
112 112 112
84 84 84
84 84 84
100 100 100
32 32 32
44 44 44
64 0 64
64 0 64
84 84 84
124 124 124
168 168 168
152 152 152
152 152 152
152 152 152
152 152 152
152 152 152
140 140 140
140 140 140
32 32 32
72 72 72
56 56 56
32 32 32
32 32 32
32 32 32
32 32 32
92 64 32
116 76 40
144 92 52
112 112 112
140 140 140
140 140 140
140 140 140
152 152 152
152 152 152
100 100 100
56 56 56
64 0 64
44 44 44
32 32 32
32 32 32
112 112 112
112 112 112
112 112 112
112 112 112
124 124 124
168 168 168
152 152 152
56 56 56
44 44 44
100 100 100
124 124 124
0 0 0
32 32 32
32 32 32

176 0 0
176 0 0
176 0 0
140 140 140
168 168 168
64 0 0
84 84 84
112 112 112
124 124 124
140 140 140
152 152 152
112 112 112
72 72 72
56 56 56
44 44 44
28 28 28
32 32 32
40 40 40
44 44 44
64 0 64
84 84 84
124 124 124
140 140 140
140 140 140
140 140 140
140 140 140
140 140 140
140 140 140
32 32 32
32 32 32
32 32 32
32 32 32
32 32 32
84 84 84
32 32 32
92 64 32
92 64 32
116 76 40
144 92 52
140 140 140
140 140 140
140 140 140
100 100 100
56 56 56
64 0 64
44 44 44
32 32 32
32 32 32
32 32 32
44 44 44
112 112 112
112 112 112
112 112 112
124 124 124
152 152 152
152 152 152
124 124 124
84 84 84
64 0 0
112 112 112
124 124 124
64 0 0
100 0 0
176 0 0

152 0 0
112 0 0
112 0 0
140 140 140
168 168 168
112 0 0
112 112 112
100 100 100
112 112 112
124 124 124
140 140 140
84 84 84
80 0 80
72 72 72
56 56 56
44 44 44
28 28 28
28 28 28
32 32 32
40 40 40
44 44 44
44 44 44
64 0 64
84 84 84
100 100 100
140 140 140
140 140 140
140 140 140
72 72 72
32 32 32
32 32 32
32 32 32
32 32 32
32 32 32
32 32 32
92 64 32
100 100 100
140 140 140
140 140 140
100 100 100
56 56 56
64 0 64
64 0 64
44 44 44
44 44 44
32 32 32
32 32 32
32 32 32
44 44 44
72 72 72
72 72 72
32 32 32
72 72 72
124 124 124
152 152 152
124 124 124
100 100 100
84 84 84
64 0 0
124 124 124
140 140 140
64 0 0
64 0 0
152 0 0

112 0 0
136 0 0
112 0 0
140 140 140
168 168 168
176 0 0
124 124 124
112 112 112
100 100 100
112 112 112
84 84 84
88 0 88
88 0 88
44 44 44
72 72 72
56 56 56
44 44 44
32 32 32
28 28 28
32 32 32
32 32 32
88 0 88
44 44 44
44 44 44
64 0 64
72 72 72
100 100 100
140 140 140
140 140 140
32 32 32
32 32 32
32 32 32
32 32 32
32 32 32
32 32 32
100 100 100
140 140 140
100 100 100
56 56 56
64 0 64
64 0 64
44 44 44
88 0 88
32 32 32
32 32 32
32 32 32
28 28 28
44 44 44
72 72 72
56 56 56
72 0 72
64 0 64
88 0 88
72 72 72
124 124 124
112 112 112
84 84 84
100 100 100
76 0 0
124 124 124
140 140 140
64 0 0
64 0 0
124 0 0

88 0 0
136 0 0
136 0 0
140 140 140
140 140 140
152 0 0
140 140 140
112 112 112
100 100 100
100 100 100
64 0 64
80 0 80
88 0 88
80 0 80
44 44 44
44 44 44
56 56 56
44 44 44
44 44 44
32 32 32
28 28 28
64 0 64
32 32 32
44 44 44
44 44 44
64 0 64
64 0 64
140 140 140
140 140 140
32 32 32
32 32 32
32 32 32
32 32 32
32 32 32
32 32 32
140 140 140
140 140 140
44 44 44
64 0 64
64 0 64
44 44 44
32 32 32
64 0 64
28 28 28
28 28 28
32 32 32
44 44 44
56 56 56
44 44 44
32 32 32
64 0 64
80 0 80
88 0 88
88 0 88
112 112 112
100 100 100
84 84 84
100 100 100
76 0 0
124 124 124
140 140 140
64 0 0
64 0 0
100 0 0

136 0 0
112 0 0
112 0 0
140 140 140
140 140 140
112 0 0
152 152 152
124 124 124
112 112 112
100 100 100
28 28 28
64 0 64
80 0 80
88 0 88
80 0 80
64 0 64
44 44 44
44 44 44
56 56 56
44 44 44
32 32 32
28 28 28
28 28 28
32 32 32
32 32 32
44 44 44
56 56 56
140 140 140
140 140 140
32 32 32
32 32 32
32 32 32
32 32 32
32 32 32
32 32 32
140 140 140
140 140 140
56 56 56
40 40 40
40 40 40
32 32 32
32 32 32
28 28 28
28 28 28
32 32 32
44 44 44
44 44 44
28 28 28
32 32 32
40 40 40
72 0 72
88 0 88
80 0 80
72 0 72
100 100 100
84 84 84
100 100 100
100 100 100
76 0 0
124 124 124
140 140 140
64 0 0
64 0 0
100 0 0

88 0 0
136 0 0
76 0 0
140 140 140
140 140 140
76 0 0
168 168 168
140 140 140
124 124 124
112 112 112
44 44 44
28 28 28
64 0 64
64 0 64
72 0 72
72 0 72
64 0 64
44 44 44
32 32 32
32 32 32
28 28 28
28 28 28
28 28 28
28 28 28
28 28 28
100 100 100
140 140 140
140 140 140
72 72 72
32 32 32
32 32 32
32 32 32
32 32 32
32 32 32
32 32 32
72 72 72
140 140 140
140 140 140
100 100 100
32 32 32
32 32 32
28 28 28
28 28 28
28 28 28
28 28 28
28 28 28
28 28 28
32 32 32
40 40 40
64 0 64
80 0 80
80 0 80
72 0 72
56 56 56
100 100 100
84 84 84
100 100 100
112 112 112
76 0 0
140 140 140
140 140 140
64 0 0
64 0 0
112 0 0

88 0 0
152 0 0
76 0 0
140 140 140
140 140 140
76 0 0
168 168 168
152 152 152
140 140 140
112 112 112
56 56 56
44 44 44
28 28 28
64 0 64
64 0 64
64 0 64
72 0 72
64 0 64
40 40 40
72 0 72
28 28 28
28 28 28
28 28 28
28 28 28
100 100 100
32 32 32
72 72 72
140 140 140
32 32 32
32 32 32
32 32 32
32 32 32
32 32 32
32 32 32
32 32 32
32 32 32
140 140 140
72 72 72
28 28 28
100 100 100
28 28 28
28 28 28
28 28 28
28 28 28
44 44 44
28 28 28
28 28 28
40 40 40
64 0 64
72 0 72
72 0 72
72 0 72
56 56 56
84 84 84
84 84 84
100 100 100
100 100 100
124 124 124
76 0 0
140 140 140
140 140 140
64 0 0
64 0 0
88 0 0

76 0 0
88 0 0
76 0 0
140 140 140
140 140 140
76 0 0
168 168 168
168 168 168
56 56 56
32 32 32
72 72 72
56 56 56
44 44 44
32 32 32
40 40 40
64 0 64
64 0 64
72 0 72
44 44 44
88 0 88
32 32 32
32 32 32
28 28 28
28 28 28
32 32 32
28 28 28
32 32 32
140 140 140
140 140 140
32 32 32
32 32 32
32 32 32
32 32 32
32 32 32
32 32 32
140 140 140
140 140 140
28 28 28
28 28 28
28 28 28
28 28 28
28 28 28
28 28 28
44 44 44
72 0 72
32 32 32
40 40 40
64 0 64
64 0 64
72 0 72
56 56 56
84 84 84
56 56 56
44 44 44
44 44 44
56 56 56
112 112 112
124 124 124
76 0 0
140 140 140
140 140 140
64 0 0
64 0 0
76 0 0

32 32 32
32 32 32
32 32 32
140 140 140
140 140 140
76 0 0
140 140 140
168 168 168
44 44 44
32 32 32
28 28 28
44 44 44
56 56 56
44 44 44
44 44 44
40 40 40
64 0 64
64 0 64
72 0 72
40 40 40
88 0 88
32 32 32
32 32 32
32 32 32
28 28 28
32 32 32
28 28 28
84 84 84
56 56 56
32 32 32
32 32 32
32 32 32
32 32 32
32 32 32
32 32 32
56 56 56
84 84 84
28 28 28
28 28 28
28 28 28
28 28 28
28 28 28
28 28 28
72 0 72
44 44 44
44 44 44
64 0 64
64 0 64
56 56 56
100 100 100
84 84 84
56 56 56
44 44 44
28 28 28
28 28 28
28 28 28
112 112 112
124 124 124
76 0 0
140 140 140
140 140 140
0 0 0
0 0 0
32 32 32

56 56 56
56 56 56
44 44 44
140 140 140
140 140 140
76 0 0
140 140 140
168 168 168
64 0 64
44 44 44
32 32 32
32 32 32
28 28 28
32 32 32
44 44 44
44 44 44
44 44 44
56 56 56
56 56 56
44 44 44
32 32 32
40 40 40
32 32 32
32 32 32
28 28 28
28 28 28
32 32 32
32 32 32
32 32 32
32 32 32
32 32 32
32 32 32
32 32 32
32 32 32
32 32 32
32 32 32
28 28 28
28 28 28
28 28 28
28 28 28
28 28 28
28 28 28
32 32 32
40 40 40
44 44 44
56 56 56
56 56 56
100 100 100
84 84 84
56 56 56
32 32 32
28 28 28
28 28 28
28 28 28
28 28 28
28 28 28
124 124 124
124 124 124
76 0 0
140 140 140
140 140 140
0 0 0
32 32 32
32 32 32

56 56 56
188 0 0
188 0 0
140 140 140
140 140 140
76 0 0
140 140 140
140 140 140
64 0 64
64 0 64
40 40 40
32 32 32
28 28 28
28 28 28
28 28 28
28 28 28
32 32 32
32 32 32
44 44 44
108 0 112
44 44 44
32 32 32
40 40 40
32 32 32
40 40 40
32 32 32
32 32 32
32 32 32
32 32 32
32 32 32
32 32 32
32 32 32
32 32 32
32 32 32
32 32 32
32 32 32
28 28 28
28 28 28
28 28 28
28 28 28
28 28 28
32 32 32
40 40 40
40 40 40
108 0 112
44 44 44
44 44 44
40 40 40
40 40 40
32 32 32
28 28 28
28 28 28
28 28 28
28 28 28
28 28 28
44 44 44
124 124 124
124 124 124
76 0 0
140 140 140
140 140 140
64 0 0
100 0 0
32 32 32

56 56 56
176 0 0
112 0 0
140 140 140
140 140 140
76 0 0
140 140 140
112 112 112
44 44 44
64 0 64
44 44 44
32 32 32
32 32 32
28 28 28
28 28 28
28 28 28
28 28 28
32 32 32
32 32 32
64 0 64
40 40 40
40 40 40
32 32 32
40 40 40
32 32 32
40 40 40
32 32 32
32 32 32
32 32 32
32 32 32
32 32 32
32 32 32
32 32 32
32 32 32
32 32 32
32 32 32
32 32 32
28 28 28
28 28 28
32 32 32
32 32 32
40 40 40
40 40 40
40 40 40
88 0 88
44 44 44
44 44 44
40 40 40
32 32 32
28 28 28
28 28 28
28 28 28
28 28 28
28 28 28
28 28 28
44 44 44
112 112 112
124 124 124
76 0 0
140 140 140
140 140 140
64 0 0
64 0 0
32 32 32

32 32 32
176 0 0
152 0 0
140 140 140
140 140 140
76 0 0
140 140 140
112 112 112
72 72 72
44 44 44
64 0 64
40 40 40
32 32 32
28 28 28
28 28 28
28 28 28
28 28 28
28 28 28
28 28 28
64 0 64
40 40 40
32 32 32
40 40 40
32 32 32
40 40 40
32 32 32
32 32 32
32 32 32
56 56 56
56 56 56
56 56 56
72 72 72
72 72 72
56 56 56
56 56 56
56 56 56
32 32 32
32 32 32
32 32 32
32 32 32
40 40 40
40 40 40
40 40 40
44 44 44
80 0 80
44 44 44
40 40 40
32 32 32
28 28 28
28 28 28
28 28 28
28 28 28
28 28 28
28 28 28
28 28 28
72 72 72
112 112 112
124 124 124
76 0 0
140 140 140
140 140 140
64 0 0
64 0 0
32 32 32

44 44 44
176 0 0
76 0 0
140 140 140
140 140 140
76 0 0
140 140 140
112 112 112
112 112 112
72 72 72
44 44 44
44 44 44
40 40 40
32 32 32
28 28 28
28 28 28
32 32 32
28 28 28
32 32 32
40 40 40
64 0 64
40 40 40
32 32 32
32 32 32
32 32 32
32 32 32
32 32 32
32 32 32
56 56 56
64 0 64
88 0 88
64 0 64
64 0 64
88 0 88
64 0 64
56 56 56
32 32 32
32 32 32
32 32 32
40 40 40
40 40 40
40 40 40
44 44 44
80 0 80
44 44 44
40 40 40
32 32 32
28 28 28
28 28 28
28 28 28
28 28 28
28 28 28
28 28 28
44 44 44
72 72 72
112 112 112
112 112 112
140 140 140
76 0 0
140 140 140
140 140 140
64 0 0
64 0 0
32 32 32

44 44 44
176 0 0
152 0 0
140 140 140
140 140 140
76 0 0
140 140 140
32 32 32
44 44 44
44 44 44
56 56 56
72 72 72
72 72 72
56 56 56
56 56 56
44 44 44
44 44 44
40 40 40
40 40 40
28 28 28
32 32 32
40 40 40
64 0 64
40 40 40
32 32 32
32 32 32
32 32 32
32 32 32
84 84 84
88 0 88
64 0 64
64 0 64
64 0 64
64 0 64
88 0 88
84 84 84
32 32 32
32 32 32
40 40 40
32 32 32
40 40 40
80 0 80
44 44 44
44 44 44
40 40 40
32 32 32
32 32 32
40 40 40
40 40 40
40 40 40
40 40 40
44 44 44
44 44 44
56 56 56
44 44 44
64 0 64
72 0 72
140 140 140
76 0 0
140 140 140
140 140 140
64 0 0
64 0 0
32 32 32

56 56 56
176 0 0
88 0 0
140 140 140
140 140 140
76 0 0
140 140 140
32 32 32
32 32 32
44 44 44
44 44 44
44 44 44
44 44 44
32 32 32
28 28 28
32 32 32
28 28 28
32 32 32
28 28 28
32 32 32
28 28 28
32 32 32
40 40 40
64 0 64
64 0 64
32 32 32
32 32 32
32 32 32
44 44 44
64 0 64
64 0 64
64 0 64
64 0 64
64 0 64
64 0 64
44 44 44
32 32 32
40 40 40
32 32 32
72 0 72
80 0 80
40 40 40
44 44 44
40 40 40
32 32 32
40 40 40
28 28 28
28 28 28
28 28 28
28 28 28
28 28 28
28 28 28
28 28 28
32 32 32
44 44 44
64 0 64
72 0 72
140 140 140
76 0 0
140 140 140
140 140 140
64 0 0
64 0 0
32 32 32

44 44 44
176 0 0
136 0 0
140 140 140
140 140 140
88 0 0
140 140 140
32 32 32
32 32 32
32 32 32
32 32 32
32 32 32
32 32 32
32 32 32
32 32 32
32 32 32
32 32 32
32 32 32
32 32 32
32 32 32
32 32 32
32 32 32
32 32 32
32 32 32
32 32 32
32 32 32
32 32 32
32 32 32
72 72 72
32 32 32
64 0 64
64 0 64
64 0 64
64 0 64
32 32 32
72 72 72
32 32 32
32 32 32
40 40 40
40 40 40
40 40 40
40 40 40
40 40 40
32 32 32
40 40 40
32 32 32
32 32 32
32 32 32
32 32 32
32 32 32
32 32 32
32 32 32
32 32 32
32 32 32
32 32 32
32 32 32
32 32 32
140 140 140
76 0 0
140 140 140
140 140 140
64 0 0
64 0 0
32 32 32

44 44 44
136 0 0
124 0 0
152 152 152
152 152 152
88 0 0
152 152 152
32 32 32
32 32 32
32 32 32
32 32 32
32 32 32
32 32 32
32 32 32
32 32 32
32 32 32
32 32 32
32 32 32
32 32 32
32 32 32
32 32 32
32 32 32
32 32 32
32 32 32
32 32 32
32 32 32
32 32 32
32 32 32
44 44 44
64 0 64
88 0 88
32 32 32
64 0 64
88 0 88
64 0 64
44 44 44
32 32 32
40 40 40
32 32 32
40 40 40
32 32 32
40 40 40
32 32 32
40 40 40
32 32 32
32 32 32
32 32 32
32 32 32
32 32 32
32 32 32
32 32 32
32 32 32
32 32 32
32 32 32
32 32 32
32 32 32
32 32 32
140 140 140
76 0 0
140 140 140
140 140 140
64 0 0
64 0 0
32 32 32

44 44 44
44 44 44
32 32 32
152 152 152
152 152 152
100 0 0
152 152 152
32 32 32
32 32 32
32 32 32
32 32 32
32 32 32
32 32 32
32 32 32
32 32 32
32 32 32
32 32 32
32 32 32
44 44 44
44 44 44
32 32 32
32 32 32
32 32 32
32 32 32
44 44 44
32 32 32
32 32 32
32 32 32
56 56 56
44 44 44
64 0 64
32 32 32
64 0 64
64 0 64
44 44 44
56 56 56
32 32 32
32 32 32
32 32 32
32 32 32
40 40 40
32 32 32
40 40 40
32 32 32
32 32 32
32 32 32
32 32 32
32 32 32
32 32 32
32 32 32
32 32 32
32 32 32
32 32 32
32 32 32
32 32 32
32 32 32
44 44 44
140 140 140
76 0 0
140 140 140
140 140 140
0 0 0
0 0 0
32 32 32

56 56 56
56 56 56
56 56 56
168 168 168
168 168 168
100 0 0
168 168 168
56 56 56
32 32 32
32 32 32
32 32 32
32 32 32
32 32 32
32 32 32
32 32 32
32 32 32
44 44 44
56 56 56
32 32 32
32 32 32
32 32 32
32 32 32
32 32 32
44 44 44
32 32 32
32 32 32
32 32 32
32 32 32
44 44 44
56 56 56
48 48 48
44 44 44
44 44 44
48 48 48
56 56 56
44 44 44
32 32 32
32 32 32
32 32 32
40 40 40
32 32 32
40 40 40
32 32 32
32 32 32
32 32 32
32 32 32
56 56 56
32 32 32
32 32 32
32 32 32
32 32 32
32 32 32
32 32 32
32 32 32
32 32 32
44 44 44
56 56 56
140 140 140
76 0 0
140 140 140
140 140 140
0 0 0
28 28 28
32 32 32

164 0 0
164 0 0
164 0 0
168 168 168
168 168 168
100 0 0
168 168 168
112 112 112
56 56 56
44 44 44
32 32 32
32 32 32
32 32 32
44 44 44
56 56 56
56 56 56
44 44 44
32 32 32
32 32 32
32 32 32
32 32 32
32 32 32
56 56 56
32 32 32
32 32 32
32 32 32
32 32 32
32 32 32
32 32 32
32 32 32
44 44 44
48 48 48
48 48 48
44 44 44
32 32 32
32 32 32
32 32 32
32 32 32
32 32 32
32 32 32
32 32 32
56 56 56
32 32 32
32 32 32
32 32 32
32 32 32
32 32 32
44 44 44
72 72 72
72 72 72
44 44 44
32 32 32
32 32 32
32 32 32
44 44 44
56 56 56
112 112 112
140 140 140
76 0 0
140 140 140
140 140 140
64 0 0
100 0 0
164 0 0

136 0 0
152 0 0
136 0 0
152 152 152
152 152 152
100 0 0
152 152 152
140 140 140
140 140 140
112 112 112
112 112 112
112 112 112
84 84 84
72 72 72
44 44 44
32 32 32
32 32 32
32 32 32
32 32 32
32 32 32
32 32 32
56 56 56
32 32 32
32 32 32
32 32 32
32 32 32
32 32 32
32 32 32
32 32 32
32 32 32
32 32 32
32 32 32
32 32 32
32 32 32
32 32 32
32 32 32
32 32 32
32 32 32
32 32 32
32 32 32
32 32 32
32 32 32
56 56 56
32 32 32
32 32 32
32 32 32
32 32 32
32 32 32
32 32 32
44 44 44
72 72 72
84 84 84
112 112 112
112 112 112
112 112 112
140 140 140
140 140 140
140 140 140
76 0 0
140 140 140
140 140 140
64 0 0
64 0 0
136 0 0

136 0 0
100 0 0
112 0 0
152 152 152
152 152 152
88 0 0
152 152 152
140 140 140
112 112 112
84 84 84
72 72 72
44 44 44
32 32 32
32 32 32
32 32 32
32 32 32
32 32 32
32 32 32
32 32 32
32 32 32
72 72 72
32 32 32
32 32 32
32 32 32
32 32 32
32 32 32
32 32 32
32 32 32
32 32 32
32 32 32
32 32 32
32 32 32
32 32 32
32 32 32
32 32 32
32 32 32
32 32 32
32 32 32
32 32 32
32 32 32
32 32 32
32 32 32
32 32 32
72 72 72
32 32 32
32 32 32
32 32 32
32 32 32
32 32 32
32 32 32
32 32 32
32 32 32
44 44 44
72 72 72
84 84 84
112 112 112
140 140 140
140 140 140
76 0 0
140 140 140
140 140 140
64 0 0
64 0 0
88 0 0

112 0 0
100 0 0
136 0 0
140 140 140
140 140 140
88 0 0
140 140 140
140 140 140
44 44 44
32 32 32
32 32 32
32 32 32
32 32 32
32 32 32
32 32 32
32 32 32
32 32 32
32 32 32
32 32 32
72 72 72
32 32 32
32 32 32
32 32 32
32 32 32
72 72 72
32 32 32
72 72 72
32 32 32
32 32 32
32 32 32
32 32 32
32 32 32
32 32 32
32 32 32
32 32 32
32 32 32
32 32 32
72 72 72
32 32 32
72 72 72
32 32 32
32 32 32
32 32 32
32 32 32
72 72 72
32 32 32
32 32 32
32 32 32
32 32 32
32 32 32
32 32 32
32 32 32
32 32 32
32 32 32
32 32 32
44 44 44
140 140 140
140 140 140
76 0 0
140 140 140
140 140 140
64 0 0
64 0 0
88 0 0

136 0 0
112 0 0
100 0 0
140 140 140
140 140 140
76 0 0
140 140 140
140 140 140
44 44 44
32 32 32
32 32 32
32 32 32
32 32 32
32 32 32
32 32 32
32 32 32
32 32 32
32 32 32
72 72 72
32 32 32
32 32 32
32 32 32
32 32 32
56 56 56
112 112 112
72 72 72
32 32 32
32 32 32
32 32 32
32 32 32
32 32 32
32 32 32
32 32 32
32 32 32
32 32 32
32 32 32
32 32 32
32 32 32
72 72 72
112 112 112
56 56 56
32 32 32
32 32 32
32 32 32
32 32 32
72 72 72
32 32 32
32 32 32
32 32 32
32 32 32
32 32 32
32 32 32
32 32 32
32 32 32
32 32 32
44 44 44
140 140 140
140 140 140
76 0 0
140 140 140
140 140 140
64 0 0
64 0 0
112 0 0

136 0 0
112 0 0
100 0 0
140 140 140
140 140 140
76 0 0
140 140 140
140 140 140
72 72 72
32 32 32
32 32 32
32 32 32
32 32 32
32 32 32
32 32 32
32 32 32
32 32 32
72 72 72
32 32 32
32 32 32
32 32 32
32 32 32
32 32 32
112 112 112
32 32 32
32 32 32
32 32 32
32 32 32
32 32 32
32 32 32
32 32 32
32 32 32
32 32 32
32 32 32
32 32 32
32 32 32
32 32 32
32 32 32
32 32 32
56 56 56
112 112 112
32 32 32
32 32 32
32 32 32
32 32 32
32 32 32
72 72 72
32 32 32
32 32 32
32 32 32
32 32 32
32 32 32
32 32 32
32 32 32
32 32 32
72 72 72
140 140 140
140 140 140
76 0 0
140 140 140
140 140 140
64 0 0
64 0 0
88 0 0

88 0 0
88 0 0
112 0 0
140 140 140
140 140 140
76 0 0
140 140 140
140 140 140
112 112 112
44 44 44
32 32 32
32 32 32
32 32 32
32 32 32
32 32 32
32 32 32
72 72 72
32 32 32
32 32 32
32 32 32
32 32 32
32 32 32
112 112 112
32 32 32
32 32 32
32 32 32
32 32 32
32 32 32
32 32 32
32 32 32
32 32 32
32 32 32
32 32 32
32 32 32
32 32 32
32 32 32
32 32 32
32 32 32
32 32 32
32 32 32
56 56 56
112 112 112
32 32 32
32 32 32
32 32 32
32 32 32
32 32 32
72 72 72
32 32 32
32 32 32
32 32 32
32 32 32
32 32 32
32 32 32
44 44 44
112 112 112
140 140 140
140 140 140
76 0 0
140 140 140
140 140 140
64 0 0
64 0 0
88 0 0

76 0 0
76 0 0
76 0 0
124 124 124
124 124 124
64 0 0
124 124 124
124 124 124
124 124 124
72 72 72
44 44 44
32 32 32
32 32 32
32 32 32
44 44 44
72 72 72
32 32 32
32 32 32
32 32 32
32 32 32
32 32 32
32 32 32
32 32 32
32 32 32
32 32 32
32 32 32
32 32 32
32 32 32
32 32 32
32 32 32
32 32 32
32 32 32
32 32 32
32 32 32
32 32 32
32 32 32
32 32 32
32 32 32
32 32 32
32 32 32
32 32 32
56 56 56
56 56 56
32 32 32
32 32 32
32 32 32
32 32 32
32 32 32
72 72 72
32 32 32
32 32 32
32 32 32
32 32 32
44 44 44
72 72 72
140 140 140
140 140 140
140 140 140
76 0 0
140 140 140
140 140 140
64 0 0
64 0 0
76 0 0

32 32 32
32 32 32
32 32 32
124 124 124
124 124 124
64 0 0
124 124 124
124 124 124
124 124 124
124 124 124
72 72 72
44 44 44
32 32 32
44 44 44
72 72 72
32 32 32
32 32 32
32 32 32
32 32 32
32 32 32
32 32 32
112 112 112
32 32 32
32 32 32
32 32 32
32 32 32
32 32 32
32 32 32
32 32 32
32 32 32
32 32 32
32 32 32
32 32 32
32 32 32
32 32 32
32 32 32
32 32 32
32 32 32
32 32 32
32 32 32
32 32 32
32 32 32
112 112 112
56 56 56
32 32 32
32 32 32
32 32 32
32 32 32
32 32 32
72 72 72
32 32 32
32 32 32
44 44 44
72 72 72
140 140 140
140 140 140
140 140 140
140 140 140
76 0 0
140 140 140
140 140 140
0 0 0
0 0 0
32 32 32

56 56 56
44 44 44
56 56 56
124 124 124
124 124 124
64 0 0
124 124 124
124 124 124
124 124 124
140 140 140
124 124 124
112 112 112
112 112 112
112 112 112
112 112 112
72 72 72
32 32 32
32 32 32
32 32 32
44 44 44
112 112 112
140 140 140
88 0 88
32 32 32
32 32 32
32 32 32
32 32 32
32 32 32
32 32 32
72 72 72
32 32 32
32 32 32
32 32 32
32 32 32
72 72 72
32 32 32
32 32 32
32 32 32
32 32 32
32 32 32
32 32 32
88 0 88
140 140 140
112 112 112
56 56 56
32 32 32
32 32 32
32 32 32
56 56 56
112 112 112
112 112 112
112 112 112
112 112 112
140 140 140
140 140 140
140 140 140
140 140 140
140 140 140
76 0 0
140 140 140
140 140 140
0 0 0
32 32 32
32 32 32

32 32 32
188 0 0
188 0 0
124 124 124
124 124 124
64 0 0
124 124 124
124 124 124
140 140 140
124 124 124
140 140 140
124 124 124
140 140 140
140 140 140
112 112 112
112 112 112
72 72 72
44 44 44
44 44 44
112 112 112
140 140 140
140 140 140
140 140 140
72 72 72
32 32 32
32 32 32
32 32 32
32 32 32
32 32 32
32 32 32
32 32 32
32 32 32
32 32 32
32 32 32
32 32 32
32 32 32
32 32 32
32 32 32
32 32 32
32 32 32
72 72 72
140 140 140
140 140 140
140 140 140
112 112 112
56 56 56
32 32 32
56 56 56
112 112 112
112 112 112
140 140 140
140 140 140
140 140 140
140 140 140
140 140 140
140 140 140
140 140 140
140 140 140
76 0 0
140 140 140
140 140 140
64 0 0
100 0 0
32 32 32

56 56 56
188 0 0
136 0 0
124 124 124
124 124 124
64 0 0
124 124 124
140 140 140
124 124 124
140 140 140
124 124 124
140 140 140
140 140 140
84 84 84
136 88 48
136 88 48
84 84 84
140 140 140
140 140 140
140 140 140
140 140 140
84 84 84
92 64 32
32 32 32
32 32 32
32 32 32
32 32 32
32 32 32
32 32 32
32 32 32
32 32 32
32 32 32
32 32 32
32 32 32
32 32 32
32 32 32
32 32 32
32 32 32
32 32 32
32 32 32
32 32 32
128 80 44
84 84 84
140 140 140
140 140 140
140 140 140
140 140 140
84 84 84
128 80 44
128 80 44
84 84 84
140 140 140
140 140 140
140 140 140
140 140 140
140 140 140
140 140 140
140 140 140
76 0 0
140 140 140
140 140 140
64 0 0
64 0 0
32 32 32

44 44 44
176 0 0
136 0 0
140 140 140
140 140 140
76 0 0
140 140 140
140 140 140
140 140 140
140 140 140
140 140 140
140 140 140
140 140 140
136 88 48
92 64 32
116 76 40
136 88 48
136 88 48
144 92 52
144 92 52
136 88 48
136 88 48
136 88 48
116 76 40
92 64 32
32 32 32
32 32 32
72 72 72
140 140 140
32 32 32
32 32 32
32 32 32
32 32 32
32 32 32
32 32 32
140 140 140
72 72 72
32 32 32
32 32 32
92 64 32
128 80 44
136 88 48
136 88 48
144 92 52
144 92 52
144 92 52
136 88 48
136 88 48
116 76 40
84 60 28
116 76 40
140 140 140
140 140 140
140 140 140
140 140 140
140 140 140
140 140 140
140 140 140
76 0 0
140 140 140
140 140 140
64 0 0
64 0 0
32 32 32

44 44 44
176 0 0
112 0 0
140 140 140
140 140 140
76 0 0
140 140 140
140 140 140
140 140 140
140 140 140
140 140 140
140 140 140
140 140 140
140 140 140
84 84 84
56 56 56
92 64 32
144 92 52
144 92 52
136 88 48
136 88 48
128 80 44
92 64 32
84 84 84
140 140 140
140 140 140
140 140 140
140 140 140
72 72 72
32 32 32
32 32 32
32 32 32
32 32 32
32 32 32
32 32 32
72 72 72
140 140 140
140 140 140
140 140 140
140 140 140
84 84 84
92 64 32
116 76 40
128 80 44
144 92 52
144 92 52
128 80 44
92 64 32
56 56 56
84 84 84
140 140 140
140 140 140
140 140 140
140 140 140
140 140 140
140 140 140
140 140 140
140 140 140
76 0 0
140 140 140
140 140 140
64 0 0
64 0 0
32 32 32

32 32 32
176 0 0
136 0 0
140 140 140
140 140 140
76 0 0
140 140 140
140 140 140
140 140 140
140 140 140
140 140 140
140 140 140
140 140 140
100 100 100
136 88 48
136 88 48
136 88 48
144 92 52
136 88 48
116 76 40
92 64 32
92 64 32
108 72 36
136 88 48
140 140 140
140 140 140
140 140 140
72 72 72
32 32 32
32 32 32
32 32 32
32 32 32
32 32 32
32 32 32
32 32 32
32 32 32
72 72 72
140 140 140
140 140 140
140 140 140
136 88 48
116 76 40
92 64 32
92 64 32
116 76 40
144 92 52
144 92 52
136 88 48
128 80 44
116 76 40
100 100 100
140 140 140
140 140 140
140 140 140
140 140 140
140 140 140
140 140 140
140 140 140
76 0 0
140 140 140
140 140 140
64 0 0
64 0 0
32 32 32

56 56 56
176 0 0
136 0 0
140 140 140
140 140 140
76 0 0
140 140 140
140 140 140
140 140 140
140 140 140
140 140 140
140 140 140
140 140 140
136 88 48
92 64 32
92 64 32
100 100 100
136 88 48
136 88 48
92 64 32
100 100 100
100 100 100
92 64 32
108 72 36
140 140 140
84 84 84
32 32 32
32 32 32
32 32 32
32 32 32
32 32 32
32 32 32
32 32 32
32 32 32
32 32 32
32 32 32
32 32 32
32 32 32
84 84 84
140 140 140
116 76 40
92 64 32
100 100 100
100 100 100
92 64 32
136 88 48
128 80 44
116 76 40
92 64 32
92 64 32
116 76 40
140 140 140
140 140 140
140 140 140
140 140 140
140 140 140
140 140 140
140 140 140
76 0 0
140 140 140
140 140 140
64 0 0
64 0 0
32 32 32

32 32 32
176 0 0
136 0 0
140 140 140
140 140 140
76 0 0
140 140 140
140 140 140
140 140 140
140 140 140
140 140 140
140 140 140
140 140 140
116 76 40
84 84 84
100 100 100
140 140 140
116 76 40
136 88 48
140 140 140
140 140 140
140 140 140
140 140 140
84 84 84
44 44 44
32 32 32
32 32 32
32 32 32
32 32 32
32 32 32
32 32 32
32 32 32
32 32 32
32 32 32
32 32 32
32 32 32
32 32 32
32 32 32
32 32 32
44 44 44
84 84 84
140 140 140
140 140 140
140 140 140
140 140 140
136 88 48
128 80 44
140 140 140
100 100 100
84 84 84
92 64 32
140 140 140
140 140 140
140 140 140
140 140 140
140 140 140
140 140 140
140 140 140
76 0 0
140 140 140
140 140 140
64 0 0
64 0 0
32 32 32

56 56 56
136 0 0
76 0 0
140 140 140
140 140 140
76 0 0
140 140 140
140 140 140
140 140 140
140 140 140
140 140 140
140 140 140
140 140 140
140 140 140
140 140 140
140 140 140
140 140 140
92 64 32
116 76 40
140 140 140
140 140 140
84 84 84
44 44 44
32 32 32
32 32 32
32 32 32
32 32 32
32 32 32
32 32 32
32 32 32
32 32 32
32 32 32
32 32 32
32 32 32
32 32 32
32 32 32
32 32 32
32 32 32
32 32 32
32 32 32
32 32 32
44 44 44
84 84 84
140 140 140
140 140 140
116 76 40
92 64 32
140 140 140
140 140 140
140 140 140
140 140 140
140 140 140
140 140 140
140 140 140
140 140 140
140 140 140
140 140 140
140 140 140
76 0 0
140 140 140
140 140 140
64 0 0
64 0 0
32 32 32

32 32 32
44 44 44
32 32 32
140 140 140
140 140 140
76 0 0
112 112 112
140 140 140
140 140 140
140 140 140
140 140 140
140 140 140
140 140 140
140 140 140
140 140 140
140 140 140
140 140 140
100 100 100
92 64 32
140 140 140
72 72 72
32 32 32
32 32 32
32 32 32
32 32 32
32 32 32
32 32 32
32 32 32
32 32 32
84 84 84
32 32 32
32 32 32
32 32 32
32 32 32
84 84 84
32 32 32
32 32 32
32 32 32
32 32 32
32 32 32
32 32 32
32 32 32
32 32 32
32 32 32
140 140 140
92 64 32
100 100 100
140 140 140
140 140 140
140 140 140
140 140 140
140 140 140
140 140 140
140 140 140
140 140 140
140 140 140
140 140 140
112 112 112
76 0 0
140 140 140
140 140 140
0 0 0
0 0 0
32 32 32

56 56 56
32 32 32
56 56 56
140 140 140
140 140 140
76 0 0
84 84 84
140 140 140
140 140 140
140 140 140
140 140 140
140 140 140
140 140 140
140 140 140
140 140 140
140 140 140
140 140 140
140 140 140
140 140 140
140 140 140
100 100 100
44 44 44
32 32 32
32 32 32
32 32 32
32 32 32
32 32 32
84 84 84
140 140 140
32 32 32
32 32 32
32 32 32
32 32 32
32 32 32
32 32 32
140 140 140
84 84 84
32 32 32
32 32 32
32 32 32
32 32 32
32 32 32
44 44 44
84 84 84
140 140 140
140 140 140
140 140 140
140 140 140
140 140 140
140 140 140
140 140 140
140 140 140
140 140 140
140 140 140
140 140 140
140 140 140
140 140 140
84 84 84
76 0 0
140 140 140
140 140 140
0 0 0
32 32 32
32 32 32

164 0 0
164 0 0
164 0 0
124 124 124
140 140 140
84 84 84
76 0 0
84 84 84
112 112 112
140 140 140
140 140 140
140 140 140
140 140 140
140 140 140
140 140 140
140 140 140
140 140 140
140 140 140
140 140 140
140 140 140
140 140 140
112 112 112
84 84 84
44 44 44
32 32 32
56 56 56
84 84 84
140 140 140
84 84 84
32 32 32
32 32 32
32 32 32
32 32 32
32 32 32
32 32 32
84 84 84
140 140 140
84 84 84
56 56 56
32 32 32
44 44 44
84 84 84
140 140 140
140 140 140
140 140 140
140 140 140
140 140 140
140 140 140
140 140 140
140 140 140
140 140 140
140 140 140
140 140 140
140 140 140
140 140 140
112 112 112
84 84 84
76 0 0
84 84 84
140 140 140
124 124 124
64 0 0
100 0 0
164 0 0

100 0 0
136 0 0
76 0 0
100 100 100
140 140 140
140 140 140
84 84 84
76 0 0
76 0 0
76 0 0
84 84 84
112 112 112
140 140 140
140 140 140
140 140 140
140 140 140
140 140 140
140 140 140
140 140 140
140 140 140
140 140 140
140 140 140
140 140 140
140 140 140
140 140 140
140 140 140
140 140 140
140 140 140
72 72 72
32 32 32
32 32 32
32 32 32
32 32 32
32 32 32
32 32 32
72 72 72
140 140 140
140 140 140
140 140 140
140 140 140
140 140 140
140 140 140
140 140 140
140 140 140
140 140 140
140 140 140
140 140 140
140 140 140
140 140 140
140 140 140
140 140 140
140 140 140
112 112 112
100 100 100
76 0 0
76 0 0
76 0 0
84 84 84
112 112 112
140 140 140
100 100 100
64 0 0
64 0 0
88 0 0

136 0 0
100 0 0
100 0 0
72 72 72
100 100 100
140 140 140
140 140 140
140 140 140
112 112 112
84 84 84
76 0 0
76 0 0
76 0 0
76 0 0
84 84 84
112 112 112
140 140 140
140 140 140
140 140 140
140 140 140
140 140 140
140 140 140
140 140 140
140 140 140
140 140 140
140 140 140
140 140 140
140 140 140
140 140 140
72 72 72
32 32 32
32 32 32
32 32 32
32 32 32
72 72 72
140 140 140
140 140 140
140 140 140
140 140 140
140 140 140
140 140 140
140 140 140
140 140 140
140 140 140
140 140 140
140 140 140
140 140 140
140 140 140
112 112 112
84 84 84
76 0 0
76 0 0
76 0 0
76 0 0
100 100 100
112 112 112
140 140 140
140 140 140
124 124 124
100 100 100
72 72 72
64 0 0
64 0 0
76 0 0

136 0 0
100 0 0
76 0 0
64 0 0
64 0 0
72 72 72
100 100 100
124 124 124
140 140 140
140 140 140
140 140 140
140 140 140
112 112 112
84 84 84
76 0 0
76 0 0
76 0 0
84 84 84
112 112 112
140 140 140
140 140 140
140 140 140
140 140 140
140 140 140
140 140 140
140 140 140
140 140 140
140 140 140
140 140 140
140 140 140
72 72 72
32 32 32
32 32 32
72 72 72
140 140 140
140 140 140
140 140 140
140 140 140
140 140 140
140 140 140
140 140 140
140 140 140
140 140 140
140 140 140
140 140 140
112 112 112
84 84 84
76 0 0
76 0 0
76 0 0
84 84 84
112 112 112
140 140 140
140 140 140
140 140 140
140 140 140
124 124 124
100 100 100
72 72 72
64 0 0
64 0 0
64 0 0
64 0 0
112 0 0

100 0 0
124 0 0
76 0 0
64 0 0
64 0 0
64 0 0
64 0 0
72 72 72
100 100 100
124 124 124
140 140 140
140 140 140
140 140 140
140 140 140
140 140 140
112 112 112
84 84 84
76 0 0
76 0 0
76 0 0
84 84 84
112 112 112
140 140 140
140 140 140
140 140 140
140 140 140
140 140 140
140 140 140
140 140 140
140 140 140
140 140 140
72 72 72
72 72 72
140 140 140
140 140 140
140 140 140
140 140 140
140 140 140
140 140 140
140 140 140
140 140 140
140 140 140
112 112 112
84 84 84
76 0 0
76 0 0
76 0 0
84 84 84
112 112 112
140 140 140
140 140 140
140 140 140
140 140 140
124 124 124
100 100 100
72 72 72
64 0 0
64 0 0
64 0 0
64 0 0
64 0 0
64 0 0
88 0 0
136 0 0

76 0 0
136 0 0
100 0 0
136 0 0
64 0 0
64 0 0
76 0 0
64 0 0
64 0 0
64 0 0
64 0 0
72 72 72
100 100 100
124 124 124
140 140 140
140 140 140
140 140 140
140 140 140
112 112 112
84 84 84
76 0 0
76 0 0
76 0 0
84 84 84
112 112 112
140 140 140
140 140 140
140 140 140
140 140 140
140 140 140
140 140 140
140 140 140
140 140 140
140 140 140
140 140 140
140 140 140
140 140 140
140 140 140
140 140 140
112 112 112
84 84 84
76 0 0
76 0 0
76 0 0
84 84 84
112 112 112
140 140 140
140 140 140
140 140 140
140 140 140
124 124 124
100 100 100
72 72 72
64 0 0
64 0 0
64 0 0
64 0 0
64 0 0
64 0 0
88 0 0
76 0 0
136 0 0
88 0 0
136 0 0

76 0 0
136 0 0
100 0 0
100 0 0
76 0 0
124 0 0
64 0 0
64 0 0
64 0 0
76 0 0
64 0 0
64 0 0
64 0 0
64 0 0
72 72 72
100 100 100
124 124 124
140 140 140
140 140 140
140 140 140
140 140 140
112 112 112
84 84 84
76 0 0
76 0 0
76 0 0
76 0 0
84 84 84
112 112 112
140 140 140
140 140 140
140 140 140
140 140 140
140 140 140
140 140 140
112 112 112
84 84 84
76 0 0
76 0 0
76 0 0
76 0 0
84 84 84
112 112 112
140 140 140
140 140 140
140 140 140
140 140 140
124 124 124
100 100 100
72 72 72
64 0 0
64 0 0
64 0 0
64 0 0
64 0 0
76 0 0
64 0 0
88 0 0
136 0 0
88 0 0
76 0 0
76 0 0
136 0 0
76 0 0

100 0 0
124 0 0
76 0 0
136 0 0
76 0 0
76 0 0
112 0 0
76 0 0
100 0 0
64 0 0
64 0 0
64 0 0
64 0 0
64 0 0
64 0 0
64 0 0
64 0 0
64 0 0
72 72 72
100 100 100
124 124 124
140 140 140
140 140 140
140 140 140
140 140 140
112 112 112
84 84 84
76 0 0
76 0 0
76 0 0
84 84 84
112 112 112
112 112 112
84 84 84
76 0 0
76 0 0
76 0 0
84 84 84
112 112 112
140 140 140
140 140 140
140 140 140
140 140 140
124 124 124
100 100 100
72 72 72
76 0 0
0 0 0
0 0 0
0 0 0
64 0 0
64 0 0
64 0 0
64 0 0
64 0 0
76 0 0
136 0 0
88 0 0
136 0 0
88 0 0
136 0 0
76 0 0
136 0 0
88 0 0

76 0 0
76 0 0
76 0 0
76 0 0
76 0 0
76 0 0
76 0 0
76 0 0
76 0 0
76 0 0
64 0 0
64 0 0
64 0 0
64 0 0
64 0 0
64 0 0
64 0 0
64 0 0
0 0 0
28 28 28
28 28 28
72 72 72
100 100 100
124 124 124
140 140 140
140 140 140
140 140 140
140 140 140
112 112 112
84 84 84
76 0 0
76 0 0
76 0 0
76 0 0
84 84 84
112 112 112
140 140 140
140 140 140
140 140 140
124 124 124
100 100 100
72 72 72
76 0 0
76 0 0
76 0 0
76 0 0
76 0 0
0 0 0
28 28 28
28 28 28
64 0 0
76 0 0
76 0 0
76 0 0
76 0 0
76 0 0
76 0 0
76 0 0
76 0 0
76 0 0
76 0 0
76 0 0
76 0 0
76 0 0

32 32 32
32 32 32
32 32 32
32 32 32
32 32 32
32 32 32
32 32 32
32 32 32
32 32 32
32 32 32
32 32 32
32 32 32
0 0 0
0 0 0
0 0 0
0 0 0
0 0 0
0 0 0
0 0 0
28 28 28
28 28 28
28 28 28
28 28 28
28 28 28
28 28 28
72 72 72
100 100 100
124 124 124
140 140 140
140 140 140
140 140 140
140 140 140
140 140 140
140 140 140
140 140 140
140 140 140
124 124 124
100 100 100
72 72 72
28 28 28
28 28 28
28 28 28
28 28 28
28 28 28
28 28 28
28 28 28
28 28 28
32 32 32
32 32 32
32 32 32
32 32 32
32 32 32
32 32 32
32 32 32
32 32 32
32 32 32
32 32 32
32 32 32
32 32 32
32 32 32
32 32 32
32 32 32
32 32 32
32 32 32

32 32 32
56 56 56
32 32 32
56 56 56
32 32 32
32 32 32
32 32 32
44 44 44
44 44 44
44 44 44
44 44 44
44 44 44
56 56 56
32 32 32
32 32 32
32 32 32
32 32 32
32 32 32
32 32 32
32 32 32
32 32 32
32 32 32
32 32 32
28 28 28
28 28 28
28 28 28
28 28 28
28 28 28
28 28 28
72 72 72
100 100 100
124 124 124
124 124 124
100 100 100
72 72 72
28 28 28
28 28 28
28 28 28
28 28 28
28 28 28
28 28 28
28 28 28
28 28 28
32 32 32
32 32 32
32 32 32
32 32 32
32 32 32
32 32 32
56 56 56
44 44 44
44 44 44
32 32 32
56 56 56
44 44 44
44 44 44
44 44 44
44 44 44
32 32 32
32 32 32
32 32 32
44 44 44
44 44 44
44 44 44

72 72 72
72 72 72
72 72 72
72 72 72
72 72 72
72 72 72
72 72 72
72 72 72
72 72 72
72 72 72
72 72 72
72 72 72
72 72 72
72 72 72
64 64 64
64 64 64
64 64 64
64 64 64
56 56 56
56 56 56
56 56 56
56 56 56
56 56 56
56 56 56
56 56 56
56 56 56
56 56 56
56 56 56
56 56 56
56 56 56
56 56 56
56 56 56
56 56 56
56 56 56
56 56 56
56 56 56
56 56 56
56 56 56
56 56 56
56 56 56
56 56 56
56 56 56
56 56 56
64 64 64
64 64 64
64 64 64
64 64 64
72 72 72
72 72 72
72 72 72
72 72 72
72 72 72
72 72 72
72 72 72
72 72 72
72 72 72
72 72 72
72 72 72
72 72 72
72 72 72
72 72 72
72 72 72
72 72 72
72 72 72

