P3
# ASCII PPM file
64 64
255

40 32 12
40 32 12
40 32 12
40 32 12
40 32 12
40 32 12
40 32 12
40 32 12
40 32 12
40 32 12
40 32 12
40 32 12
40 32 12
40 32 12
40 32 12
40 32 12
40 32 12
40 32 12
40 32 12
40 32 12
40 32 12
40 32 12
40 32 12
40 32 12
40 32 12
40 32 12
40 32 12
40 32 12
40 32 12
40 32 12
40 32 12
40 32 12
40 32 12
40 32 12
40 32 12
40 32 12
40 32 12
40 32 12
40 32 12
40 32 12
40 32 12
40 32 12
40 32 12
40 32 12
40 32 12
40 32 12
40 32 12
40 32 12
40 32 12
40 32 12
40 32 12
40 32 12
40 32 12
40 32 12
40 32 12
40 32 12
40 32 12
40 32 12
40 32 12
40 32 12
40 32 12
40 32 12
40 32 12
40 32 12

64 48 24
64 48 24
64 48 24
64 48 24
64 48 24
64 48 24
64 48 24
64 48 24
64 48 24
64 48 24
64 48 24
64 48 24
64 48 24
64 48 24
64 48 24
64 48 24
64 48 24
64 48 24
64 48 24
64 48 24
64 48 24
64 48 24
64 48 24
64 48 24
64 48 24
64 48 24
64 48 24
64 48 24
64 48 24
64 48 24
64 48 24
64 48 24
64 48 24
64 48 24
64 48 24
64 48 24
64 48 24
64 48 24
64 48 24
64 48 24
64 48 24
64 48 24
64 48 24
64 48 24
64 48 24
64 48 24
64 48 24
64 48 24
64 48 24
64 48 24
64 48 24
64 48 24
64 48 24
64 48 24
64 48 24
64 48 24
64 48 24
64 48 24
64 48 24
64 48 24
64 48 24
64 48 24
64 48 24
64 48 24

92 64 32
92 64 32
92 64 32
92 64 32
92 64 32
92 64 32
92 64 32
92 64 32
92 64 32
92 64 32
92 64 32
92 64 32
92 64 32
92 64 32
92 64 32
92 64 32
92 64 32
92 64 32
92 64 32
92 64 32
92 64 32
92 64 32
92 64 32
92 64 32
92 64 32
92 64 32
92 64 32
92 64 32
92 64 32
92 64 32
92 64 32
92 64 32
92 64 32
92 64 32
92 64 32
92 64 32
92 64 32
92 64 32
92 64 32
92 64 32
92 64 32
92 64 32
92 64 32
92 64 32
92 64 32
92 64 32
92 64 32
92 64 32
92 64 32
92 64 32
92 64 32
92 64 32
92 64 32
92 64 32
92 64 32
92 64 32
92 64 32
92 64 32
92 64 32
92 64 32
92 64 32
92 64 32
92 64 32
92 64 32

40 32 12
40 32 12
40 32 12
40 32 12
40 32 12
40 32 12
40 32 12
40 32 12
40 32 12
40 32 12
40 32 12
40 32 12
40 32 12
40 32 12
40 32 12
40 32 12
40 32 12
40 32 12
40 32 12
40 32 12
40 32 12
40 32 12
40 32 12
40 32 12
40 32 12
40 32 12
40 32 12
40 32 12
40 32 12
40 32 12
40 32 12
40 32 12
40 32 12
40 32 12
40 32 12
40 32 12
40 32 12
40 32 12
40 32 12
40 32 12
40 32 12
40 32 12
40 32 12
40 32 12
40 32 12
40 32 12
40 32 12
40 32 12
40 32 12
40 32 12
40 32 12
40 32 12
40 32 12
40 32 12
40 32 12
40 32 12
40 32 12
40 32 12
40 32 12
40 32 12
40 32 12
40 32 12
40 32 12
40 32 12

40 32 12
40 32 12
64 48 24
72 56 24
72 56 24
72 56 24
72 56 24
40 32 12
92 64 32
40 32 12
40 32 12
92 64 32
56 44 20
40 32 12
40 32 12
40 32 12
40 32 12
72 56 24
72 56 24
40 32 12
64 48 24
40 32 12
64 48 24
112 108 0
132 132 0
156 156 0
156 156 0
112 108 0
112 108 0
92 64 32
72 56 24
40 32 12
72 56 24
40 32 12
112 108 0
112 108 0
156 156 0
156 156 0
132 132 0
112 108 0
40 32 12
40 32 12
56 44 20
40 32 12
92 64 32
40 32 12
40 32 12
92 64 32
40 32 12
72 56 24
40 32 12
40 32 12
72 56 24
40 32 12
72 56 24
40 32 12
72 56 24
72 56 24
40 32 12
92 64 32
40 32 12
40 32 12
92 64 32
64 48 24

40 32 12
40 32 12
64 48 24
72 56 24
72 56 24
72 56 24
56 44 20
40 32 12
92 64 32
40 32 12
40 32 12
92 64 32
64 48 24
40 32 12
40 32 12
40 32 12
40 32 12
72 56 24
72 56 24
40 32 12
64 48 24
40 32 12
64 48 24
40 32 12
40 32 12
88 84 0
88 84 0
156 156 0
156 156 0
132 132 0
112 108 0
40 32 12
112 108 0
132 132 0
156 156 0
112 108 0
88 84 0
88 84 0
56 44 20
56 44 20
40 32 12
56 44 20
72 56 24
40 32 12
92 64 32
40 32 12
40 32 12
92 64 32
40 32 12
72 56 24
40 32 12
40 32 12
72 56 24
40 32 12
72 56 24
40 32 12
72 56 24
72 56 24
40 32 12
92 64 32
40 32 12
40 32 12
92 64 32
64 48 24

40 32 12
40 32 12
56 44 20
72 56 24
72 56 24
72 56 24
40 32 12
40 32 12
92 64 32
40 32 12
40 32 12
92 64 32
72 56 24
40 32 12
40 32 12
40 32 12
40 32 12
72 56 24
72 56 24
40 32 12
112 108 0
112 108 0
156 156 0
180 172 0
156 156 0
40 32 12
56 44 20
40 32 12
132 132 0
156 156 0
156 156 0
156 156 0
156 156 0
156 156 0
132 132 0
40 32 12
40 32 12
56 44 20
88 84 0
132 132 0
180 172 0
180 172 0
180 172 0
40 32 12
64 48 24
40 32 12
40 32 12
56 44 20
40 32 12
72 56 24
40 32 12
40 32 12
72 56 24
40 32 12
72 56 24
40 32 12
72 56 24
72 56 24
40 32 12
92 64 32
40 32 12
40 32 12
92 64 32
64 48 24

40 32 12
40 32 12
40 32 12
64 48 24
72 56 24
72 56 24
40 32 12
40 32 12
92 64 32
40 32 12
40 32 12
92 64 32
72 56 24
40 32 12
40 32 12
40 32 12
56 44 20
132 132 0
156 156 0
180 172 0
64 48 24
112 108 0
156 156 0
180 172 0
180 172 0
156 156 0
132 132 0
132 132 0
112 108 0
112 108 0
112 108 0
112 108 0
112 108 0
112 108 0
112 108 0
180 172 0
180 172 0
180 172 0
180 172 0
180 172 0
132 132 0
180 172 0
72 56 24
132 132 0
180 172 0
180 172 0
64 48 24
56 44 20
40 32 12
64 48 24
40 32 12
40 32 12
72 56 24
40 32 12
72 56 24
40 32 12
72 56 24
72 56 24
40 32 12
92 64 32
40 32 12
40 32 12
92 64 32
64 48 24

64 48 24
40 32 12
40 32 12
56 44 20
72 56 24
56 44 20
40 32 12
40 32 12
92 64 32
40 32 12
40 32 12
92 64 32
72 56 24
56 44 20
40 32 12
40 32 12
132 132 0
112 108 0
156 156 0
180 172 0
180 172 0
180 172 0
180 172 0
88 84 0
88 84 0
88 84 0
88 84 0
112 108 0
88 84 0
0 0 0
0 0 0
0 0 0
0 0 0
0 0 0
88 84 0
112 108 0
88 84 0
88 84 0
112 108 0
112 108 0
180 172 0
180 172 0
180 172 0
132 132 0
132 132 0
180 172 0
180 172 0
56 44 20
40 32 12
56 44 20
40 32 12
40 32 12
72 56 24
40 32 12
72 56 24
40 32 12
64 48 24
72 56 24
40 32 12
92 64 32
40 32 12
40 32 12
92 64 32
40 32 12

64 48 24
40 32 12
40 32 12
40 32 12
56 44 20
40 32 12
40 32 12
40 32 12
92 64 32
40 32 12
40 32 12
92 64 32
72 56 24
64 48 24
112 108 0
156 156 0
72 56 24
132 132 0
180 172 0
180 172 0
88 84 0
88 84 0
88 84 0
112 108 0
112 108 0
156 156 0
180 172 0
0 0 0
0 0 0
0 0 0
0 0 0
0 0 0
0 0 0
0 0 0
0 0 0
0 0 0
88 84 0
132 132 0
132 132 0
132 132 0
112 108 0
88 84 0
88 84 0
180 172 0
180 172 0
180 172 0
40 32 12
132 132 0
180 172 0
56 44 20
40 32 12
40 32 12
64 48 24
40 32 12
72 56 24
40 32 12
64 48 24
72 56 24
40 32 12
92 64 32
40 32 12
40 32 12
92 64 32
40 32 12

72 56 24
40 32 12
40 32 12
40 32 12
40 32 12
40 32 12
40 32 12
40 32 12
92 64 32
40 32 12
40 32 12
92 64 32
72 56 24
112 108 0
132 132 0
180 172 0
180 172 0
180 172 0
88 84 0
88 84 0
88 84 0
156 156 0
0 0 0
112 108 0
112 108 0
156 156 0
180 172 0
0 0 0
0 0 0
0 0 0
0 0 0
0 0 0
0 0 0
0 0 0
0 0 0
0 0 0
88 84 0
132 132 0
132 132 0
180 172 0
0 0 0
88 84 0
88 84 0
112 108 0
112 108 0
180 172 0
180 172 0
132 132 0
180 172 0
180 172 0
40 32 12
40 32 12
56 44 20
40 32 12
72 56 24
40 32 12
56 44 20
72 56 24
40 32 12
92 64 32
40 32 12
40 32 12
92 64 32
40 32 12

72 56 24
40 32 12
40 32 12
40 32 12
40 32 12
40 32 12
40 32 12
40 32 12
92 64 32
40 32 12
40 32 12
92 64 32
72 56 24
132 132 0
156 156 0
180 172 0
180 172 0
88 84 0
112 108 0
112 108 0
156 156 0
180 172 0
0 0 0
112 108 0
112 108 0
156 156 0
0 0 0
0 0 0
0 0 0
0 0 0
0 0 0
0 0 0
0 0 0
0 0 0
0 0 0
0 0 0
0 0 0
132 132 0
180 172 0
180 172 0
0 0 0
88 84 0
132 132 0
132 132 0
132 132 0
88 84 0
112 108 0
112 108 0
180 172 0
180 172 0
40 32 12
40 32 12
56 44 20
40 32 12
64 48 24
40 32 12
56 44 20
72 56 24
40 32 12
92 64 32
40 32 12
40 32 12
92 64 32
40 32 12

64 48 24
72 56 24
40 32 12
40 32 12
40 32 12
40 32 12
72 56 24
40 32 12
92 64 32
40 32 12
40 32 12
92 64 32
112 108 0
132 132 0
180 172 0
88 84 0
88 84 0
88 84 0
0 0 0
112 108 0
156 156 0
0 0 0
0 0 0
0 0 0
0 0 0
0 0 0
0 0 0
0 0 0
0 0 0
0 0 0
0 0 0
0 0 0
0 0 0
0 0 0
0 0 0
0 0 0
0 0 0
0 0 0
0 0 0
0 0 0
0 0 0
0 0 0
132 132 0
180 172 0
0 0 0
88 84 0
132 132 0
180 172 0
112 108 0
132 132 0
132 132 0
40 32 12
56 44 20
40 32 12
56 44 20
40 32 12
40 32 12
72 56 24
40 32 12
92 64 32
40 32 12
40 32 12
92 64 32
40 32 12

64 48 24
72 56 24
40 32 12
40 32 12
40 32 12
40 32 12
72 56 24
40 32 12
112 108 0
132 132 0
88 84 0
88 84 0
64 64 0
132 132 0
88 84 0
112 108 0
180 172 0
0 0 0
0 0 0
0 0 0
0 0 0
0 0 0
0 0 0
0 0 0
0 0 0
0 0 0
0 0 0
0 0 0
0 0 0
0 0 0
0 0 0
0 0 0
0 0 0
0 0 0
0 0 0
0 0 0
0 0 0
0 0 0
0 0 0
0 0 0
0 0 0
0 0 0
0 0 0
0 0 0
0 0 0
0 0 0
180 172 0
180 172 0
132 132 0
132 132 0
64 64 0
88 84 0
88 84 0
132 132 0
132 132 0
40 32 12
40 32 12
72 56 24
40 32 12
92 64 32
40 32 12
40 32 12
92 64 32
40 32 12

56 44 20
72 56 24
72 56 24
40 32 12
40 32 12
72 56 24
72 56 24
112 108 0
132 132 0
180 172 0
180 172 0
180 172 0
88 84 0
88 84 0
0 0 0
0 0 0
0 0 0
0 0 0
0 0 0
0 0 0
0 0 0
0 0 0
0 0 0
0 0 0
0 0 0
0 0 0
0 0 0
0 0 0
0 0 0
0 0 0
0 0 0
0 0 0
0 0 0
0 0 0
0 0 0
0 0 0
0 0 0
0 0 0
0 0 0
0 0 0
0 0 0
0 0 0
0 0 0
0 0 0
0 0 0
0 0 0
0 0 0
0 0 0
0 0 0
88 84 0
88 84 0
64 64 0
132 132 0
132 132 0
132 132 0
180 172 0
40 32 12
64 48 24
40 32 12
92 64 32
40 32 12
40 32 12
92 64 32
40 32 12

40 32 12
72 56 24
72 56 24
72 56 24
40 32 12
72 56 24
56 44 20
132 132 0
180 172 0
180 172 0
180 172 0
112 108 0
112 108 0
88 84 0
0 0 0
0 0 0
0 0 0
0 0 0
0 0 0
124 124 124
124 124 124
124 124 124
124 124 124
124 124 124
124 124 124
124 124 124
124 124 124
124 124 124
124 124 124
124 124 124
124 124 124
124 124 124
124 124 124
124 124 124
124 124 124
124 124 124
124 124 124
124 124 124
124 124 124
124 124 124
124 124 124
124 124 124
124 124 124
124 124 124
0 0 0
0 0 0
0 0 0
0 0 0
0 0 0
88 84 0
132 132 0
180 172 0
112 108 0
132 132 0
180 172 0
180 172 0
40 32 12
56 44 20
40 32 12
92 64 32
40 32 12
40 32 12
92 64 32
40 32 12

40 32 12
64 48 24
72 56 24
72 56 24
56 44 20
72 56 24
40 32 12
40 32 12
88 84 0
180 172 0
112 108 0
112 108 0
132 132 0
156 156 0
180 172 0
0 0 0
0 0 0
0 0 0
0 0 0
112 112 112
0 0 52
0 0 52
0 0 52
0 0 52
0 0 52
0 0 52
0 0 52
0 0 52
0 0 52
0 0 52
0 0 52
0 0 52
0 0 52
0 0 52
0 0 52
0 0 52
0 0 52
0 0 52
0 0 52
0 0 52
0 0 52
0 0 52
0 0 52
112 112 112
0 0 0
0 0 0
0 0 0
0 0 0
88 84 0
132 132 0
132 132 0
132 132 0
180 172 0
112 108 0
88 84 0
56 44 20
40 32 12
56 44 20
40 32 12
92 64 32
40 32 12
40 32 12
92 64 32
40 32 12

40 32 12
64 48 24
72 56 24
72 56 24
72 56 24
72 56 24
40 32 12
112 108 0
180 172 0
180 172 0
88 84 0
132 132 0
156 156 0
180 172 0
180 172 0
0 0 0
0 0 0
0 0 0
0 0 0
32 32 32
112 112 112
32 32 32
84 84 84
100 100 100
100 100 100
100 100 100
100 100 100
100 100 100
100 100 100
100 100 100
100 100 100
100 100 100
100 100 100
100 100 100
100 100 100
100 100 100
100 100 100
100 100 100
100 100 100
100 100 100
84 84 84
32 32 32
112 112 112
32 32 32
0 0 0
0 0 0
0 0 0
0 0 0
132 132 0
132 132 0
132 132 0
180 172 0
180 172 0
112 108 0
88 84 0
132 132 0
40 32 12
56 44 20
40 32 12
92 64 32
40 32 12
40 32 12
92 64 32
40 32 12

40 32 12
56 44 20
64 48 24
72 56 24
72 56 24
72 56 24
112 108 0
132 132 0
180 172 0
112 108 0
88 84 0
0 0 0
180 172 0
180 172 0
0 0 0
0 0 0
0 0 0
0 0 0
0 0 0
0 0 0
56 56 56
84 84 84
0 0 52
100 100 100
32 32 32
0 0 44
0 0 44
0 0 44
0 0 44
0 0 44
0 0 44
0 0 44
0 0 44
0 0 44
0 0 44
0 0 44
0 0 44
0 0 44
32 32 32
100 100 100
0 0 52
84 84 84
56 56 56
0 0 0
0 0 0
0 0 0
0 0 0
0 0 0
0 0 0
180 172 0
180 172 0
40 32 12
88 84 0
180 172 0
112 108 0
132 132 0
180 172 0
56 44 20
40 32 12
92 64 32
40 32 12
40 32 12
92 64 32
64 48 24

40 32 12
40 32 12
64 48 24
72 56 24
72 56 24
56 44 20
132 132 0
180 172 0
180 172 0
88 84 0
132 132 0
180 172 0
0 0 0
0 0 0
0 0 0
0 0 0
0 0 0
0 0 0
0 0 0
0 0 0
32 32 32
112 112 112
32 32 32
84 84 84
56 56 56
0 0 44
0 0 44
0 0 44
0 0 44
0 0 44
0 0 44
0 0 44
0 0 44
0 0 44
0 0 44
0 0 44
0 0 44
0 0 44
56 56 56
84 84 84
32 32 32
112 112 112
32 32 32
0 0 0
0 0 0
0 0 0
0 0 0
0 0 0
0 0 0
0 0 0
0 0 0
88 84 0
132 132 0
180 172 0
112 108 0
180 172 0
180 172 0
56 44 20
40 32 12
92 64 32
40 32 12
40 32 12
92 64 32
64 48 24

40 32 12
40 32 12
56 44 20
72 56 24
72 56 24
40 32 12
40 32 12
180 172 0
112 108 0
156 156 0
156 156 0
180 172 0
0 0 0
0 0 0
0 0 0
0 0 0
0 0 0
0 0 0
0 0 0
0 0 0
0 0 0
56 56 56
84 84 84
0 0 52
84 84 84
32 32 32
0 0 44
0 0 44
0 0 44
0 0 44
0 0 44
0 0 44
0 0 44
0 0 44
0 0 44
0 0 44
0 0 44
32 32 32
84 84 84
0 0 52
84 84 84
56 56 56
0 0 0
0 0 0
0 0 0
0 0 0
0 0 0
0 0 0
0 0 0
0 0 0
0 0 0
180 172 0
180 172 0
180 172 0
180 172 0
112 108 0
40 32 12
56 44 20
40 32 12
72 56 24
40 32 12
40 32 12
92 64 32
64 48 24

40 32 12
40 32 12
40 32 12
72 56 24
72 56 24
88 84 0
112 108 0
180 172 0
88 84 0
0 0 0
156 156 0
0 0 0
0 0 0
124 124 124
112 112 112
32 32 32
0 0 0
0 0 0
0 0 0
0 0 0
0 0 0
32 32 32
112 112 112
32 32 32
100 100 100
56 56 56
0 0 44
0 0 44
0 0 44
0 0 44
0 0 44
0 0 44
0 0 44
0 0 44
0 0 44
0 0 44
0 0 44
56 56 56
100 100 100
32 32 32
112 112 112
32 32 32
0 0 0
0 0 0
0 0 0
0 0 0
0 0 0
32 32 32
112 112 112
124 124 124
0 0 0
0 0 0
180 172 0
40 32 12
180 172 0
112 108 0
132 132 0
132 132 0
40 32 12
64 48 24
40 32 12
40 32 12
92 64 32
64 48 24

40 32 12
40 32 12
40 32 12
56 44 20
40 32 12
112 108 0
180 172 0
180 172 0
88 84 0
112 108 0
0 0 0
0 0 0
0 0 0
124 124 124
0 0 52
112 112 112
56 56 56
32 32 32
0 0 0
0 0 0
0 0 0
0 0 0
56 56 56
84 84 84
0 0 52
84 84 84
32 32 32
0 0 44
0 0 44
0 0 44
0 0 44
0 0 44
0 0 44
0 0 44
0 0 44
0 0 44
32 32 32
84 84 84
0 0 52
84 84 84
56 56 56
0 0 0
0 0 0
0 0 0
0 0 0
32 32 32
56 56 56
112 112 112
0 0 52
124 124 124
0 0 0
0 0 0
0 0 0
112 108 0
112 108 0
180 172 0
132 132 0
180 172 0
40 32 12
64 48 24
40 32 12
40 32 12
92 64 32
64 48 24

40 32 12
40 32 12
40 32 12
40 32 12
40 32 12
132 132 0
180 172 0
180 172 0
88 84 0
112 108 0
0 0 0
0 0 0
0 0 0
124 124 124
0 0 52
0 0 52
84 84 84
112 112 112
56 56 56
32 32 32
0 0 0
0 0 0
32 32 32
112 112 112
32 32 32
100 100 100
56 56 56
0 0 44
0 0 44
0 0 44
0 0 44
0 0 44
0 0 44
0 0 44
0 0 44
0 0 44
56 56 56
100 100 100
32 32 32
112 112 112
32 32 32
0 0 0
0 0 0
32 32 32
56 56 56
112 112 112
84 84 84
32 32 32
0 0 52
124 124 124
0 0 0
0 0 0
0 0 0
112 108 0
180 172 0
180 172 0
180 172 0
180 172 0
40 32 12
64 48 24
40 32 12
40 32 12
92 64 32
64 48 24

40 32 12
40 32 12
40 32 12
40 32 12
40 32 12
40 32 12
132 132 0
156 156 0
88 84 0
0 0 0
0 0 0
0 0 0
0 0 0
124 124 124
0 0 52
84 84 84
0 0 52
32 32 32
84 84 84
112 112 112
56 56 56
32 32 32
0 0 0
56 56 56
84 84 84
44 44 44
84 84 84
0 0 44
0 0 44
0 0 44
0 0 44
0 0 44
0 0 44
0 0 44
0 0 44
0 0 44
84 84 84
44 44 44
84 84 84
56 56 56
0 0 0
32 32 32
56 56 56
112 112 112
84 84 84
32 32 32
0 0 52
84 84 84
0 0 52
124 124 124
0 0 0
0 0 0
0 0 0
0 0 0
180 172 0
180 172 0
132 132 0
40 32 12
40 32 12
64 48 24
40 32 12
40 32 12
92 64 32
56 44 20

64 48 24
40 32 12
40 32 12
40 32 12
88 84 0
88 84 0
64 64 0
0 0 0
0 0 0
0 0 0
0 0 0
0 0 0
0 0 0
124 124 124
0 0 52
100 100 100
100 100 100
84 84 84
0 0 52
32 32 32
84 84 84
112 112 112
56 56 56
0 0 0
112 112 112
0 0 52
100 100 100
32 32 32
0 0 44
0 0 44
0 0 44
0 0 44
0 0 44
0 0 44
0 0 44
32 32 32
100 100 100
0 0 52
112 112 112
0 0 0
56 56 56
112 112 112
84 84 84
32 32 32
0 0 52
84 84 84
100 100 100
100 100 100
0 0 52
124 124 124
0 0 0
0 0 0
0 0 0
0 0 0
0 0 0
0 0 0
64 64 0
88 84 0
88 84 0
64 48 24
40 32 12
40 32 12
92 64 32
40 32 12

64 48 24
40 32 12
40 32 12
112 108 0
132 132 0
180 172 0
180 172 0
88 84 0
88 84 0
0 0 0
0 0 0
0 0 0
0 0 0
124 124 124
0 0 52
100 100 100
32 32 32
56 56 56
100 100 100
84 84 84
0 0 52
32 32 32
84 84 84
112 112 112
112 112 112
32 32 32
56 56 56
56 56 56
0 0 44
0 0 44
0 0 44
0 0 44
0 0 44
0 0 44
0 0 44
56 56 56
56 56 56
32 32 32
112 112 112
112 112 112
84 84 84
32 32 32
0 0 52
84 84 84
100 100 100
56 56 56
32 32 32
100 100 100
0 0 52
124 124 124
0 0 0
0 0 0
0 0 0
0 0 0
88 84 0
132 132 0
180 172 0
64 64 0
132 132 0
180 172 0
40 32 12
40 32 12
92 64 32
40 32 12

64 48 24
40 32 12
40 32 12
132 132 0
180 172 0
180 172 0
112 108 0
88 84 0
156 156 0
180 172 0
0 0 0
0 0 0
0 0 0
124 124 124
0 0 52
100 100 100
0 0 44
0 0 44
32 32 32
56 56 56
100 100 100
84 84 84
44 44 44
0 0 52
32 32 32
84 84 84
0 0 52
100 100 100
0 0 44
0 0 44
0 0 44
0 0 44
0 0 44
0 0 44
0 0 44
100 100 100
0 0 52
84 84 84
32 32 32
0 0 52
44 44 44
84 84 84
100 100 100
56 56 56
32 32 32
0 0 44
0 0 44
100 100 100
0 0 52
124 124 124
0 0 0
0 0 0
0 0 0
88 84 0
132 132 0
132 132 0
180 172 0
112 108 0
180 172 0
180 172 0
40 32 12
40 32 12
92 64 32
40 32 12

56 44 20
40 32 12
40 32 12
40 32 12
180 172 0
180 172 0
112 108 0
132 132 0
156 156 0
180 172 0
0 0 0
0 0 0
0 0 0
124 124 124
0 0 52
100 100 100
0 0 44
0 0 44
0 0 44
0 0 44
32 32 32
56 56 56
84 84 84
100 100 100
56 56 56
0 0 52
0 0 52
100 100 100
0 0 44
0 0 44
0 0 44
0 0 44
0 0 44
0 0 44
0 0 44
100 100 100
0 0 52
0 0 52
56 56 56
100 100 100
84 84 84
56 56 56
32 32 32
0 0 44
0 0 44
0 0 44
0 0 44
100 100 100
0 0 52
124 124 124
0 0 0
0 0 0
0 0 0
180 172 0
180 172 0
180 172 0
180 172 0
112 108 0
180 172 0
64 48 24
40 32 12
40 32 12
92 64 32
40 32 12

40 32 12
64 48 24
40 32 12
88 84 0
88 84 0
180 172 0
88 84 0
132 132 0
180 172 0
0 0 0
0 0 0
0 0 0
0 0 0
124 124 124
0 0 52
100 100 100
0 0 44
0 0 44
0 0 44
0 0 44
0 0 44
0 0 44
0 0 44
32 32 32
56 56 56
84 84 84
100 100 100
100 100 100
0 0 44
0 0 44
0 0 44
0 0 44
0 0 44
0 0 44
0 0 44
100 100 100
100 100 100
84 84 84
56 56 56
32 32 32
0 0 44
0 0 44
0 0 44
0 0 44
0 0 44
0 0 44
0 0 44
100 100 100
0 0 52
124 124 124
0 0 0
0 0 0
0 0 0
0 0 0
180 172 0
180 172 0
180 172 0
88 84 0
88 84 0
88 84 0
40 32 12
40 32 12
92 64 32
40 32 12

40 32 12
64 48 24
40 32 12
132 132 0
180 172 0
180 172 0
88 84 0
88 84 0
0 0 0
0 0 0
0 0 0
0 0 0
0 0 0
124 124 124
0 0 52
100 100 100
0 0 44
0 0 44
0 0 44
0 0 44
0 0 44
0 0 44
0 0 44
0 0 44
0 0 44
0 0 44
0 0 44
0 0 44
0 0 44
0 0 44
0 0 44
0 0 44
0 0 44
0 0 44
0 0 44
0 0 44
0 0 44
0 0 44
0 0 44
0 0 44
0 0 44
0 0 44
0 0 44
0 0 44
0 0 44
0 0 44
0 0 44
100 100 100
0 0 52
124 124 124
0 0 0
0 0 0
0 0 0
0 0 0
0 0 0
88 84 0
180 172 0
112 108 0
132 132 0
180 172 0
40 32 12
40 32 12
92 64 32
40 32 12

40 32 12
56 44 20
40 32 12
112 108 0
180 172 0
180 172 0
88 84 0
156 156 0
180 172 0
0 0 0
0 0 0
0 0 0
0 0 0
124 124 124
0 0 52
100 100 100
0 0 44
0 0 44
0 0 44
0 0 44
0 0 44
0 0 44
0 0 44
0 0 44
0 0 44
0 0 44
0 0 44
0 0 44
0 0 44
0 0 44
0 0 44
0 0 44
0 0 44
0 0 44
0 0 44
0 0 44
0 0 44
0 0 44
0 0 44
0 0 44
0 0 44
0 0 44
0 0 44
0 0 44
0 0 44
0 0 44
0 0 44
100 100 100
0 0 52
124 124 124
0 0 0
0 0 0
0 0 0
0 0 0
88 84 0
132 132 0
180 172 0
112 108 0
180 172 0
180 172 0
40 32 12
40 32 12
92 64 32
40 32 12

40 32 12
40 32 12
64 48 24
40 32 12
88 84 0
180 172 0
88 84 0
156 156 0
180 172 0
0 0 0
0 0 0
0 0 0
0 0 0
124 124 124
0 0 52
100 100 100
0 0 44
0 0 44
0 0 44
0 0 44
0 0 44
0 0 44
0 0 44
0 0 44
0 0 44
0 0 44
0 0 44
0 0 44
0 0 44
0 0 44
0 0 44
0 0 44
0 0 44
0 0 44
0 0 44
0 0 44
0 0 44
0 0 44
0 0 44
0 0 44
0 0 44
0 0 44
0 0 44
0 0 44
0 0 44
0 0 44
0 0 44
100 100 100
0 0 52
124 124 124
0 0 0
0 0 0
0 0 0
0 0 0
180 172 0
180 172 0
180 172 0
112 108 0
88 84 0
64 48 24
40 32 12
40 32 12
92 64 32
40 32 12

40 32 12
40 32 12
64 48 24
88 84 0
88 84 0
180 172 0
88 84 0
0 0 0
0 0 0
0 0 0
0 0 0
0 0 0
0 0 0
124 124 124
0 0 52
100 100 100
0 0 44
0 0 44
0 0 44
0 0 44
0 0 44
0 0 44
0 0 44
0 0 44
0 0 44
0 0 44
0 0 44
0 0 44
0 0 44
0 0 44
0 0 44
0 0 44
0 0 44
0 0 44
0 0 44
0 0 44
0 0 44
0 0 44
0 0 44
0 0 44
0 0 44
0 0 44
0 0 44
0 0 44
0 0 44
0 0 44
0 0 44
100 100 100
0 0 52
124 124 124
0 0 0
0 0 0
0 0 0
0 0 0
0 0 0
0 0 0
88 84 0
88 84 0
88 84 0
88 84 0
40 32 12
40 32 12
92 64 32
40 32 12

40 32 12
40 32 12
56 44 20
112 108 0
180 172 0
180 172 0
88 84 0
180 172 0
0 0 0
0 0 0
0 0 0
0 0 0
0 0 0
124 124 124
0 0 52
100 100 100
0 0 44
0 0 44
0 0 44
0 0 44
0 0 44
0 0 44
0 0 44
0 0 44
0 0 44
0 0 44
0 0 44
0 0 44
0 0 44
0 0 44
0 0 44
0 0 44
0 0 44
0 0 44
0 0 44
0 0 44
0 0 44
0 0 44
0 0 44
0 0 44
0 0 44
0 0 44
0 0 44
0 0 44
0 0 44
0 0 44
0 0 44
100 100 100
0 0 52
124 124 124
0 0 0
0 0 0
0 0 0
0 0 0
0 0 0
88 84 0
180 172 0
112 108 0
180 172 0
180 172 0
40 32 12
40 32 12
92 64 32
40 32 12

40 32 12
40 32 12
40 32 12
56 44 20
180 172 0
180 172 0
88 84 0
156 156 0
56 44 20
40 32 12
40 32 12
56 44 20
40 32 12
124 124 124
0 0 52
100 100 100
0 0 44
0 0 44
0 0 44
0 0 44
0 0 44
0 0 44
0 0 44
0 0 44
0 0 44
0 0 44
0 0 44
0 0 44
0 0 44
0 0 44
0 0 44
0 0 44
0 0 44
0 0 44
0 0 44
0 0 44
0 0 44
0 0 44
0 0 44
0 0 44
0 0 44
0 0 44
0 0 44
0 0 44
0 0 44
0 0 44
0 0 44
100 100 100
0 0 52
124 124 124
40 32 12
40 32 12
40 32 12
40 32 12
40 32 12
132 132 0
180 172 0
112 108 0
180 172 0
64 48 24
40 32 12
40 32 12
92 64 32
40 32 12

40 32 12
40 32 12
40 32 12
40 32 12
40 32 12
180 172 0
112 108 0
40 32 12
56 44 20
40 32 12
40 32 12
56 44 20
40 32 12
124 124 124
0 0 52
100 100 100
0 0 44
0 0 44
0 0 44
0 0 44
0 0 44
0 0 44
0 0 44
0 0 44
0 0 44
0 0 44
0 0 44
0 0 44
0 0 44
0 0 44
0 0 44
0 0 44
0 0 44
0 0 44
0 0 44
0 0 44
0 0 44
0 0 44
0 0 44
0 0 44
0 0 44
0 0 44
0 0 44
0 0 44
0 0 44
0 0 44
0 0 44
100 100 100
0 0 52
124 124 124
40 32 12
40 32 12
40 32 12
40 32 12
40 32 12
40 32 12
132 132 0
132 132 0
40 32 12
64 48 24
40 32 12
40 32 12
92 64 32
56 44 20

40 32 12
40 32 12
40 32 12
40 32 12
40 32 12
40 32 12
40 32 12
40 32 12
56 44 20
40 32 12
40 32 12
56 44 20
40 32 12
124 124 124
0 0 52
100 100 100
0 0 44
0 0 44
0 0 44
0 0 44
0 0 44
0 0 44
0 0 44
32 32 32
56 56 56
84 84 84
100 100 100
100 100 100
0 0 44
0 0 44
0 0 44
0 0 44
0 0 44
0 0 44
0 0 44
100 100 100
100 100 100
84 84 84
56 56 56
32 32 32
0 0 44
0 0 44
0 0 44
0 0 44
0 0 44
0 0 44
0 0 44
100 100 100
0 0 52
124 124 124
40 32 12
40 32 12
40 32 12
40 32 12
40 32 12
40 32 12
40 32 12
40 32 12
40 32 12
64 48 24
40 32 12
40 32 12
92 64 32
64 48 24

40 32 12
40 32 12
40 32 12
40 32 12
40 32 12
40 32 12
40 32 12
40 32 12
92 64 32
40 32 12
40 32 12
92 64 32
72 56 24
124 124 124
0 0 52
100 100 100
0 0 44
0 0 44
0 0 44
0 0 44
32 32 32
56 56 56
84 84 84
100 100 100
56 56 56
0 0 52
0 0 52
100 100 100
0 0 44
0 0 44
0 0 44
0 0 44
0 0 44
0 0 44
0 0 44
100 100 100
0 0 52
0 0 52
56 56 56
100 100 100
84 84 84
56 56 56
32 32 32
0 0 44
0 0 44
0 0 44
0 0 44
100 100 100
0 0 52
124 124 124
40 32 12
40 32 12
40 32 12
56 44 20
40 32 12
40 32 12
40 32 12
40 32 12
40 32 12
64 48 24
40 32 12
40 32 12
92 64 32
64 48 24

40 32 12
40 32 12
40 32 12
40 32 12
40 32 12
40 32 12
40 32 12
40 32 12
92 64 32
40 32 12
40 32 12
92 64 32
64 48 24
124 124 124
0 0 52
100 100 100
0 0 44
0 0 44
32 32 32
56 56 56
84 84 84
100 100 100
44 44 44
0 0 52
32 32 32
84 84 84
0 0 52
84 84 84
0 0 44
0 0 44
0 0 44
0 0 44
0 0 44
0 0 44
0 0 44
84 84 84
0 0 52
84 84 84
32 32 32
0 0 52
44 44 44
100 100 100
84 84 84
56 56 56
32 32 32
0 0 44
0 0 44
100 100 100
0 0 52
124 124 124
40 32 12
40 32 12
40 32 12
64 48 24
40 32 12
40 32 12
64 48 24
72 56 24
40 32 12
92 64 32
40 32 12
40 32 12
92 64 32
64 48 24

40 32 12
40 32 12
40 32 12
40 32 12
40 32 12
40 32 12
56 44 20
40 32 12
92 64 32
40 32 12
40 32 12
92 64 32
64 48 24
124 124 124
0 0 52
100 100 100
32 32 32
56 56 56
84 84 84
100 100 100
0 0 52
32 32 32
84 84 84
112 112 112
112 112 112
32 32 32
56 56 56
56 56 56
0 0 44
0 0 44
0 0 44
0 0 44
0 0 44
0 0 44
0 0 44
56 56 56
56 56 56
32 32 32
112 112 112
112 112 112
84 84 84
32 32 32
0 0 52
100 100 100
84 84 84
56 56 56
32 32 32
100 100 100
0 0 52
124 124 124
40 32 12
40 32 12
40 32 12
64 48 24
40 32 12
40 32 12
56 44 20
72 56 24
40 32 12
92 64 32
40 32 12
40 32 12
92 64 32
40 32 12

64 48 24
40 32 12
40 32 12
40 32 12
40 32 12
40 32 12
56 44 20
40 32 12
92 64 32
40 32 12
40 32 12
92 64 32
56 44 20
124 124 124
0 0 52
100 100 100
100 100 100
84 84 84
0 0 52
32 32 32
84 84 84
112 112 112
56 56 56
40 32 12
112 112 112
0 0 52
100 100 100
32 32 32
0 0 44
0 0 44
0 0 44
0 0 44
0 0 44
0 0 44
0 0 44
32 32 32
100 100 100
0 0 52
112 112 112
40 32 12
56 56 56
112 112 112
84 84 84
32 32 32
0 0 52
84 84 84
100 100 100
100 100 100
0 0 52
124 124 124
40 32 12
40 32 12
40 32 12
72 56 24
40 32 12
40 32 12
56 44 20
72 56 24
40 32 12
92 64 32
40 32 12
40 32 12
92 64 32
40 32 12

64 48 24
40 32 12
40 32 12
40 32 12
40 32 12
40 32 12
64 48 24
40 32 12
92 64 32
40 32 12
40 32 12
92 64 32
40 32 12
124 124 124
0 0 52
84 84 84
0 0 52
32 32 32
84 84 84
112 112 112
56 56 56
40 32 12
40 32 12
56 56 56
84 84 84
44 44 44
84 84 84
0 0 44
0 0 44
0 0 44
0 0 44
0 0 44
0 0 44
0 0 44
0 0 44
0 0 44
84 84 84
44 44 44
84 84 84
56 56 56
40 32 12
40 32 12
56 56 56
112 112 112
84 84 84
32 32 32
0 0 52
84 84 84
0 0 52
124 124 124
40 32 12
40 32 12
40 32 12
72 56 24
40 32 12
40 32 12
40 32 12
64 48 24
40 32 12
92 64 32
40 32 12
40 32 12
92 64 32
40 32 12

64 48 24
56 44 20
40 32 12
40 32 12
40 32 12
56 44 20
64 48 24
40 32 12
92 64 32
40 32 12
40 32 12
92 64 32
40 32 12
124 124 124
0 0 52
0 0 52
84 84 84
112 112 112
56 56 56
40 32 12
40 32 12
40 32 12
40 32 12
112 112 112
32 32 32
100 100 100
56 56 56
0 0 44
0 0 44
0 0 44
0 0 44
0 0 44
0 0 44
0 0 44
0 0 44
0 0 44
56 56 56
100 100 100
32 32 32
112 112 112
40 32 12
40 32 12
40 32 12
40 32 12
56 56 56
112 112 112
84 84 84
32 32 32
0 0 52
124 124 124
40 32 12
40 32 12
40 32 12
72 56 24
40 32 12
40 32 12
40 32 12
64 48 24
40 32 12
92 64 32
40 32 12
40 32 12
92 64 32
40 32 12

64 48 24
64 48 24
40 32 12
40 32 12
40 32 12
64 48 24
56 44 20
40 32 12
92 64 32
40 32 12
40 32 12
92 64 32
40 32 12
124 124 124
0 0 52
112 112 112
56 56 56
40 32 12
40 32 12
40 32 12
40 32 12
40 32 12
56 56 56
84 84 84
0 0 52
84 84 84
32 32 32
0 0 44
0 0 44
0 0 44
0 0 44
0 0 44
0 0 44
0 0 44
0 0 44
0 0 44
32 32 32
84 84 84
0 0 52
84 84 84
56 56 56
40 32 12
40 32 12
40 32 12
56 44 20
40 32 12
56 56 56
112 112 112
0 0 52
124 124 124
40 32 12
40 32 12
40 32 12
72 56 24
40 32 12
40 32 12
40 32 12
56 44 20
40 32 12
92 64 32
40 32 12
40 32 12
92 64 32
40 32 12

56 44 20
64 48 24
56 44 20
40 32 12
56 44 20
64 48 24
40 32 12
40 32 12
92 64 32
40 32 12
40 32 12
92 64 32
40 32 12
124 124 124
112 112 112
40 32 12
40 32 12
40 32 12
40 32 12
40 32 12
40 32 12
72 56 24
112 112 112
32 32 32
100 100 100
56 56 56
0 0 44
0 0 44
0 0 44
0 0 44
0 0 44
0 0 44
0 0 44
0 0 44
0 0 44
0 0 44
0 0 44
56 56 56
100 100 100
32 32 32
112 112 112
40 32 12
40 32 12
40 32 12
56 44 20
40 32 12
40 32 12
56 44 20
112 112 112
124 124 124
40 32 12
40 32 12
40 32 12
72 56 24
56 44 20
40 32 12
40 32 12
56 44 20
40 32 12
92 64 32
40 32 12
40 32 12
92 64 32
40 32 12

40 32 12
64 48 24
64 48 24
56 44 20
64 48 24
64 48 24
40 32 12
40 32 12
92 64 32
40 32 12
40 32 12
92 64 32
40 32 12
40 32 12
40 32 12
40 32 12
40 32 12
40 32 12
40 32 12
40 32 12
64 48 24
56 56 56
84 84 84
0 0 52
84 84 84
32 32 32
0 0 44
0 0 44
0 0 44
0 0 44
0 0 44
0 0 44
0 0 44
0 0 44
0 0 44
0 0 44
0 0 44
32 32 32
100 100 100
0 0 52
84 84 84
56 56 56
40 32 12
40 32 12
56 44 20
40 32 12
40 32 12
56 44 20
40 32 12
40 32 12
40 32 12
40 32 12
40 32 12
72 56 24
56 44 20
40 32 12
40 32 12
40 32 12
40 32 12
92 64 32
40 32 12
40 32 12
92 64 32
40 32 12

40 32 12
64 48 24
64 48 24
56 44 20
64 48 24
64 48 24
40 32 12
40 32 12
92 64 32
40 32 12
40 32 12
92 64 32
40 32 12
40 32 12
40 32 12
40 32 12
40 32 12
40 32 12
40 32 12
40 32 12
72 56 24
112 112 112
32 32 32
84 84 84
56 56 56
0 0 44
0 0 44
0 0 44
0 0 44
0 0 44
0 0 44
0 0 44
0 0 44
0 0 44
0 0 44
0 0 44
0 0 44
0 0 44
56 56 56
84 84 84
32 32 32
112 112 112
40 32 12
40 32 12
64 48 24
40 32 12
40 32 12
56 44 20
40 32 12
40 32 12
40 32 12
40 32 12
40 32 12
72 56 24
64 48 24
40 32 12
40 32 12
40 32 12
40 32 12
92 64 32
40 32 12
40 32 12
92 64 32
40 32 12

40 32 12
64 48 24
72 56 24
72 56 24
72 56 24
64 48 24
40 32 12
40 32 12
92 64 32
40 32 12
40 32 12
92 64 32
40 32 12
40 32 12
40 32 12
40 32 12
40 32 12
40 32 12
40 32 12
40 32 12
56 56 56
84 84 84
0 0 52
100 100 100
32 32 32
0 0 44
0 0 44
0 0 44
0 0 44
0 0 44
0 0 44
0 0 44
0 0 44
0 0 44
0 0 44
0 0 44
0 0 44
0 0 44
32 32 32
100 100 100
0 0 52
84 84 84
56 56 56
40 32 12
92 64 32
40 32 12
40 32 12
64 48 24
40 32 12
40 32 12
40 32 12
40 32 12
40 32 12
72 56 24
64 48 24
40 32 12
40 32 12
40 32 12
40 32 12
92 64 32
40 32 12
40 32 12
92 64 32
40 32 12

40 32 12
56 44 20
72 56 24
72 56 24
72 56 24
64 48 24
40 32 12
40 32 12
92 64 32
40 32 12
40 32 12
92 64 32
40 32 12
40 32 12
40 32 12
40 32 12
40 32 12
40 32 12
40 32 12
56 44 20
112 112 112
32 32 32
84 84 84
100 100 100
100 100 100
100 100 100
100 100 100
100 100 100
100 100 100
100 100 100
100 100 100
100 100 100
100 100 100
100 100 100
100 100 100
100 100 100
100 100 100
100 100 100
100 100 100
100 100 100
84 84 84
32 32 32
112 112 112
40 32 12
64 48 24
40 32 12
40 32 12
92 64 32
40 32 12
72 56 24
40 32 12
40 32 12
40 32 12
64 48 24
72 56 24
56 44 20
40 32 12
40 32 12
40 32 12
92 64 32
40 32 12
40 32 12
92 64 32
40 32 12

40 32 12
40 32 12
64 48 24
72 56 24
72 56 24
64 48 24
40 32 12
40 32 12
92 64 32
40 32 12
40 32 12
92 64 32
56 44 20
40 32 12
40 32 12
40 32 12
40 32 12
40 32 12
40 32 12
112 112 112
0 0 52
0 0 52
0 0 52
0 0 52
0 0 52
0 0 52
0 0 52
0 0 52
0 0 52
0 0 52
0 0 52
0 0 52
0 0 52
0 0 52
0 0 52
0 0 52
0 0 52
0 0 52
0 0 52
0 0 52
0 0 52
0 0 52
0 0 52
112 112 112
64 48 24
40 32 12
40 32 12
92 64 32
40 32 12
72 56 24
40 32 12
40 32 12
40 32 12
64 48 24
72 56 24
56 44 20
40 32 12
40 32 12
40 32 12
92 64 32
40 32 12
40 32 12
92 64 32
40 32 12

40 32 12
40 32 12
64 48 24
72 56 24
72 56 24
56 44 20
40 32 12
40 32 12
92 64 32
40 32 12
40 32 12
92 64 32
64 48 24
40 32 12
40 32 12
40 32 12
40 32 12
40 32 12
40 32 12
124 124 124
124 124 124
124 124 124
124 124 124
124 124 124
124 124 124
124 124 124
124 124 124
124 124 124
124 124 124
124 124 124
124 124 124
124 124 124
124 124 124
124 124 124
124 124 124
124 124 124
124 124 124
124 124 124
124 124 124
124 124 124
124 124 124
124 124 124
124 124 124
124 124 124
56 44 20
40 32 12
40 32 12
92 64 32
40 32 12
72 56 24
40 32 12
40 32 12
40 32 12
56 44 20
72 56 24
64 48 24
40 32 12
40 32 12
40 32 12
92 64 32
40 32 12
40 32 12
92 64 32
40 32 12

40 32 12
40 32 12
56 44 20
72 56 24
64 48 24
56 44 20
40 32 12
40 32 12
92 64 32
40 32 12
40 32 12
92 64 32
72 56 24
40 32 12
40 32 12
40 32 12
40 32 12
40 32 12
40 32 12
40 32 12
40 32 12
40 32 12
40 32 12
40 32 12
40 32 12
40 32 12
56 44 20
40 32 12
40 32 12
56 44 20
40 32 12
40 32 12
40 32 12
40 32 12
56 44 20
40 32 12
40 32 12
56 44 20
40 32 12
40 32 12
40 32 12
40 32 12
40 32 12
40 32 12
56 44 20
40 32 12
40 32 12
92 64 32
40 32 12
72 56 24
40 32 12
40 32 12
40 32 12
56 44 20
72 56 24
64 48 24
56 44 20
40 32 12
40 32 12
92 64 32
40 32 12
40 32 12
92 64 32
40 32 12

40 32 12
40 32 12
40 32 12
64 48 24
64 48 24
40 32 12
40 32 12
40 32 12
92 64 32
40 32 12
40 32 12
92 64 32
72 56 24
56 44 20
40 32 12
40 32 12
40 32 12
40 32 12
56 44 20
72 56 24
40 32 12
40 32 12
40 32 12
40 32 12
40 32 12
40 32 12
56 44 20
40 32 12
40 32 12
56 44 20
40 32 12
40 32 12
40 32 12
40 32 12
56 44 20
40 32 12
40 32 12
56 44 20
40 32 12
40 32 12
40 32 12
40 32 12
40 32 12
40 32 12
56 44 20
40 32 12
40 32 12
92 64 32
40 32 12
72 56 24
40 32 12
40 32 12
40 32 12
40 32 12
64 48 24
72 56 24
56 44 20
40 32 12
40 32 12
92 64 32
40 32 12
40 32 12
92 64 32
56 44 20

40 32 12
40 32 12
40 32 12
64 48 24
56 44 20
40 32 12
40 32 12
40 32 12
92 64 32
40 32 12
40 32 12
92 64 32
64 48 24
64 48 24
40 32 12
40 32 12
40 32 12
40 32 12
64 48 24
72 56 24
56 44 20
40 32 12
40 32 12
40 32 12
40 32 12
40 32 12
56 44 20
40 32 12
40 32 12
56 44 20
40 32 12
40 32 12
40 32 12
40 32 12
56 44 20
40 32 12
40 32 12
56 44 20
40 32 12
40 32 12
40 32 12
40 32 12
40 32 12
40 32 12
64 48 24
40 32 12
40 32 12
92 64 32
40 32 12
72 56 24
40 32 12
40 32 12
40 32 12
40 32 12
56 44 20
72 56 24
64 48 24
40 32 12
40 32 12
92 64 32
40 32 12
40 32 12
92 64 32
56 44 20

40 32 12
40 32 12
40 32 12
56 44 20
56 44 20
40 32 12
40 32 12
40 32 12
92 64 32
40 32 12
40 32 12
92 64 32
64 48 24
72 56 24
40 32 12
40 32 12
40 32 12
40 32 12
64 48 24
72 56 24
40 32 12
40 32 12
40 32 12
64 48 24
40 32 12
40 32 12
92 64 32
40 32 12
40 32 12
92 64 32
72 56 24
72 56 24
72 56 24
40 32 12
92 64 32
40 32 12
40 32 12
92 64 32
40 32 12
56 44 20
64 48 24
40 32 12
40 32 12
40 32 12
92 64 32
40 32 12
40 32 12
92 64 32
40 32 12
72 56 24
40 32 12
40 32 12
40 32 12
40 32 12
56 44 20
72 56 24
64 48 24
40 32 12
40 32 12
92 64 32
40 32 12
40 32 12
92 64 32
64 48 24

40 32 12
40 32 12
40 32 12
40 32 12
40 32 12
40 32 12
40 32 12
40 32 12
92 64 32
40 32 12
40 32 12
92 64 32
56 44 20
72 56 24
64 48 24
40 32 12
40 32 12
40 32 12
72 56 24
72 56 24
40 32 12
40 32 12
40 32 12
64 48 24
40 32 12
40 32 12
92 64 32
40 32 12
40 32 12
92 64 32
72 56 24
72 56 24
72 56 24
40 32 12
92 64 32
40 32 12
40 32 12
92 64 32
40 32 12
40 32 12
56 44 20
40 32 12
40 32 12
40 32 12
92 64 32
40 32 12
40 32 12
92 64 32
40 32 12
72 56 24
40 32 12
40 32 12
40 32 12
40 32 12
40 32 12
64 48 24
72 56 24
40 32 12
40 32 12
92 64 32
40 32 12
40 32 12
92 64 32
64 48 24

40 32 12
40 32 12
40 32 12
40 32 12
40 32 12
40 32 12
40 32 12
40 32 12
92 64 32
40 32 12
40 32 12
92 64 32
40 32 12
64 48 24
72 56 24
64 48 24
40 32 12
72 56 24
72 56 24
64 48 24
40 32 12
40 32 12
40 32 12
64 48 24
40 32 12
40 32 12
92 64 32
40 32 12
40 32 12
92 64 32
72 56 24
72 56 24
72 56 24
40 32 12
92 64 32
40 32 12
40 32 12
92 64 32
40 32 12
40 32 12
40 32 12
40 32 12
40 32 12
40 32 12
92 64 32
40 32 12
40 32 12
92 64 32
40 32 12
64 48 24
56 44 20
40 32 12
40 32 12
40 32 12
40 32 12
56 44 20
72 56 24
64 48 24
40 32 12
92 64 32
40 32 12
40 32 12
92 64 32
72 56 24

40 32 12
40 32 12
40 32 12
40 32 12
40 32 12
40 32 12
40 32 12
40 32 12
92 64 32
40 32 12
40 32 12
92 64 32
40 32 12
56 44 20
72 56 24
72 56 24
72 56 24
72 56 24
72 56 24
56 44 20
40 32 12
40 32 12
40 32 12
72 56 24
40 32 12
40 32 12
92 64 32
40 32 12
40 32 12
92 64 32
72 56 24
72 56 24
64 48 24
40 32 12
92 64 32
40 32 12
40 32 12
92 64 32
40 32 12
40 32 12
40 32 12
40 32 12
40 32 12
40 32 12
92 64 32
40 32 12
40 32 12
92 64 32
40 32 12
64 48 24
64 48 24
40 32 12
40 32 12
40 32 12
40 32 12
56 44 20
72 56 24
64 48 24
40 32 12
92 64 32
40 32 12
40 32 12
92 64 32
72 56 24

56 44 20
40 32 12
40 32 12
40 32 12
40 32 12
40 32 12
64 48 24
40 32 12
92 64 32
40 32 12
40 32 12
92 64 32
40 32 12
40 32 12
72 56 24
72 56 24
72 56 24
72 56 24
64 48 24
40 32 12
40 32 12
40 32 12
56 44 20
72 56 24
40 32 12
40 32 12
92 64 32
40 32 12
40 32 12
92 64 32
72 56 24
72 56 24
64 48 24
40 32 12
92 64 32
40 32 12
40 32 12
92 64 32
40 32 12
40 32 12
40 32 12
40 32 12
40 32 12
40 32 12
92 64 32
40 32 12
40 32 12
92 64 32
40 32 12
56 44 20
64 48 24
40 32 12
40 32 12
40 32 12
40 32 12
40 32 12
64 48 24
64 48 24
40 32 12
92 64 32
40 32 12
40 32 12
92 64 32
72 56 24

56 44 20
40 32 12
40 32 12
40 32 12
40 32 12
40 32 12
64 48 24
40 32 12
92 64 32
40 32 12
40 32 12
92 64 32
40 32 12
40 32 12
56 44 20
64 48 24
72 56 24
64 48 24
56 44 20
40 32 12
40 32 12
40 32 12
64 48 24
72 56 24
40 32 12
40 32 12
92 64 32
40 32 12
40 32 12
92 64 32
72 56 24
64 48 24
56 44 20
40 32 12
92 64 32
40 32 12
40 32 12
92 64 32
40 32 12
40 32 12
40 32 12
40 32 12
40 32 12
40 32 12
92 64 32
40 32 12
40 32 12
92 64 32
40 32 12
56 44 20
72 56 24
40 32 12
40 32 12
40 32 12
40 32 12
40 32 12
56 44 20
56 44 20
40 32 12
92 64 32
40 32 12
40 32 12
92 64 32
72 56 24

64 48 24
40 32 12
40 32 12
40 32 12
40 32 12
40 32 12
64 48 24
40 32 12
92 64 32
40 32 12
40 32 12
92 64 32
40 32 12
40 32 12
40 32 12
56 44 20
64 48 24
56 44 20
40 32 12
40 32 12
40 32 12
40 32 12
64 48 24
72 56 24
40 32 12
40 32 12
92 64 32
40 32 12
40 32 12
92 64 32
72 56 24
64 48 24
56 44 20
40 32 12
92 64 32
40 32 12
40 32 12
92 64 32
40 32 12
40 32 12
40 32 12
40 32 12
40 32 12
40 32 12
92 64 32
40 32 12
40 32 12
92 64 32
40 32 12
40 32 12
72 56 24
40 32 12
40 32 12
40 32 12
40 32 12
40 32 12
40 32 12
40 32 12
40 32 12
92 64 32
40 32 12
40 32 12
92 64 32
72 56 24

64 48 24
56 44 20
40 32 12
40 32 12
40 32 12
40 32 12
64 48 24
40 32 12
92 64 32
40 32 12
40 32 12
92 64 32
40 32 12
40 32 12
40 32 12
40 32 12
56 44 20
40 32 12
40 32 12
40 32 12
40 32 12
64 48 24
72 56 24
72 56 24
56 44 20
40 32 12
92 64 32
40 32 12
40 32 12
92 64 32
64 48 24
56 44 20
40 32 12
40 32 12
92 64 32
40 32 12
40 32 12
92 64 32
40 32 12
40 32 12
40 32 12
40 32 12
40 32 12
40 32 12
92 64 32
40 32 12
40 32 12
92 64 32
56 44 20
40 32 12
72 56 24
56 44 20
40 32 12
40 32 12
40 32 12
40 32 12
40 32 12
40 32 12
40 32 12
92 64 32
40 32 12
40 32 12
92 64 32
72 56 24

56 44 20
56 44 20
56 44 20
56 44 20
56 44 20
56 44 20
56 44 20
40 32 12
92 64 32
40 32 12
40 32 12
92 64 32
56 44 20
40 32 12
40 32 12
40 32 12
40 32 12
40 32 12
40 32 12
40 32 12
56 44 20
56 44 20
56 44 20
56 44 20
56 44 20
40 32 12
92 64 32
40 32 12
40 32 12
92 64 32
56 44 20
40 32 12
40 32 12
40 32 12
92 64 32
40 32 12
40 32 12
92 64 32
56 44 20
40 32 12
40 32 12
40 32 12
56 44 20
40 32 12
92 64 32
40 32 12
40 32 12
92 64 32
56 44 20
40 32 12
56 44 20
56 44 20
40 32 12
40 32 12
40 32 12
40 32 12
40 32 12
40 32 12
40 32 12
92 64 32
40 32 12
40 32 12
92 64 32
56 44 20

