P3
# ASCII PPM file
64 64
255

64 48 24
64 48 24
64 48 24
64 48 24
64 48 24
64 48 24
64 48 24
64 48 24
64 48 24
64 48 24
64 48 24
64 48 24
64 48 24
64 48 24
64 48 24
64 48 24
64 48 24
64 48 24
64 48 24
64 48 24
64 48 24
64 48 24
64 48 24
64 48 24
64 48 24
64 48 24
64 48 24
64 48 24
64 48 24
64 48 24
64 48 24
64 48 24
64 48 24
64 48 24
64 48 24
64 48 24
64 48 24
64 48 24
64 48 24
64 48 24
64 48 24
64 48 24
64 48 24
64 48 24
64 48 24
64 48 24
64 48 24
64 48 24
64 48 24
64 48 24
64 48 24
64 48 24
64 48 24
64 48 24
64 48 24
64 48 24
64 48 24
64 48 24
64 48 24
64 48 24
64 48 24
64 48 24
64 48 24
64 48 24

108 72 36
108 72 36
108 72 36
108 72 36
108 72 36
108 72 36
108 72 36
108 72 36
108 72 36
108 72 36
108 72 36
108 72 36
108 72 36
108 72 36
108 72 36
108 72 36
108 72 36
108 72 36
108 72 36
108 72 36
108 72 36
108 72 36
108 72 36
108 72 36
108 72 36
108 72 36
108 72 36
108 72 36
108 72 36
108 72 36
108 72 36
108 72 36
108 72 36
108 72 36
108 72 36
108 72 36
108 72 36
108 72 36
108 72 36
108 72 36
108 72 36
108 72 36
108 72 36
108 72 36
108 72 36
108 72 36
108 72 36
108 72 36
108 72 36
108 72 36
108 72 36
108 72 36
108 72 36
108 72 36
108 72 36
108 72 36
108 72 36
108 72 36
108 72 36
108 72 36
108 72 36
108 72 36
108 72 36
108 72 36

144 92 52
144 92 52
144 92 52
144 92 52
144 92 52
144 92 52
144 92 52
144 92 52
144 92 52
144 92 52
144 92 52
144 92 52
144 92 52
144 92 52
144 92 52
144 92 52
144 92 52
144 92 52
144 92 52
144 92 52
144 92 52
144 92 52
144 92 52
144 92 52
144 92 52
144 92 52
144 92 52
144 92 52
144 92 52
144 92 52
144 92 52
144 92 52
144 92 52
144 92 52
144 92 52
144 92 52
144 92 52
144 92 52
144 92 52
144 92 52
144 92 52
144 92 52
144 92 52
144 92 52
144 92 52
144 92 52
144 92 52
144 92 52
144 92 52
144 92 52
144 92 52
144 92 52
144 92 52
144 92 52
144 92 52
144 92 52
144 92 52
144 92 52
144 92 52
144 92 52
144 92 52
144 92 52
144 92 52
144 92 52

84 60 28
84 60 28
84 60 28
84 60 28
84 60 28
84 60 28
84 60 28
56 44 20
84 60 28
40 32 12
56 44 20
84 60 28
84 60 28
84 60 28
84 60 28
84 60 28
84 60 28
84 60 28
84 60 28
84 60 28
84 60 28
84 60 28
84 60 28
84 60 28
84 60 28
56 44 20
84 60 28
40 32 12
56 44 20
84 60 28
84 60 28
84 60 28
84 60 28
56 44 20
84 60 28
40 32 12
56 44 20
84 60 28
84 60 28
84 60 28
84 60 28
84 60 28
84 60 28
56 44 20
84 60 28
40 32 12
56 44 20
84 60 28
84 60 28
84 60 28
84 60 28
84 60 28
84 60 28
84 60 28
84 60 28
84 60 28
84 60 28
84 60 28
56 44 20
84 60 28
40 32 12
56 44 20
84 60 28
84 60 28

72 56 24
72 56 24
108 72 36
116 76 40
116 76 40
116 76 40
116 76 40
84 60 28
144 92 52
40 32 12
84 60 28
144 92 52
92 64 32
72 56 24
72 56 24
72 56 24
72 56 24
116 76 40
116 76 40
72 56 24
108 72 36
72 56 24
108 72 36
228 216 0
228 216 0
228 216 0
228 216 0
40 32 12
84 60 28
144 92 52
116 76 40
72 56 24
116 76 40
84 60 28
144 92 52
40 32 12
228 216 0
228 216 0
228 216 0
228 216 0
72 56 24
72 56 24
92 64 32
84 60 28
144 92 52
40 32 12
84 60 28
144 92 52
72 56 24
116 76 40
72 56 24
72 56 24
116 76 40
72 56 24
116 76 40
72 56 24
116 76 40
116 76 40
84 60 28
144 92 52
40 32 12
84 60 28
144 92 52
108 72 36

72 56 24
72 56 24
108 72 36
116 76 40
116 76 40
116 76 40
92 64 32
84 60 28
144 92 52
40 32 12
84 60 28
144 92 52
108 72 36
72 56 24
72 56 24
72 56 24
84 60 28
116 76 40
116 76 40
72 56 24
108 72 36
72 56 24
108 72 36
72 56 24
72 56 24
156 156 0
156 156 0
228 216 0
228 216 0
228 216 0
228 216 0
72 56 24
228 216 0
228 216 0
228 216 0
228 216 0
156 156 0
156 156 0
72 56 24
72 56 24
72 56 24
92 64 32
116 76 40
84 60 28
144 92 52
40 32 12
84 60 28
144 92 52
72 56 24
116 76 40
72 56 24
72 56 24
116 76 40
72 56 24
116 76 40
72 56 24
116 76 40
116 76 40
84 60 28
144 92 52
40 32 12
84 60 28
144 92 52
108 72 36

72 56 24
72 56 24
92 64 32
116 76 40
116 76 40
116 76 40
84 60 28
84 60 28
144 92 52
40 32 12
84 60 28
144 92 52
116 76 40
84 60 28
72 56 24
72 56 24
84 60 28
116 76 40
116 76 40
72 56 24
180 172 0
180 172 0
228 216 0
252 244 0
228 216 0
84 60 28
144 92 52
40 32 12
228 216 0
228 216 0
228 216 0
228 216 0
228 216 0
228 216 0
228 216 0
40 32 12
72 56 24
92 64 32
156 156 0
204 196 0
252 244 0
252 244 0
252 244 0
84 60 28
92 64 32
40 32 12
84 60 28
144 92 52
72 56 24
116 76 40
72 56 24
72 56 24
116 76 40
72 56 24
116 76 40
72 56 24
116 76 40
116 76 40
84 60 28
144 92 52
40 32 12
84 60 28
144 92 52
108 72 36

84 60 28
72 56 24
84 60 28
108 72 36
116 76 40
116 76 40
84 60 28
84 60 28
144 92 52
40 32 12
84 60 28
144 92 52
116 76 40
84 60 28
72 56 24
72 56 24
92 64 32
204 196 0
228 216 0
252 244 0
108 72 36
180 172 0
228 216 0
252 244 0
252 244 0
228 216 0
204 196 0
204 196 0
180 172 0
180 172 0
180 172 0
180 172 0
180 172 0
180 172 0
180 172 0
252 244 0
252 244 0
252 244 0
252 244 0
252 244 0
204 196 0
252 244 0
92 64 32
204 196 0
252 244 0
252 244 0
84 60 28
92 64 32
72 56 24
116 76 40
72 56 24
72 56 24
116 76 40
72 56 24
116 76 40
72 56 24
116 76 40
116 76 40
84 60 28
144 92 52
40 32 12
84 60 28
144 92 52
108 72 36

108 72 36
72 56 24
72 56 24
92 64 32
116 76 40
92 64 32
72 56 24
84 60 28
144 92 52
40 32 12
84 60 28
144 92 52
116 76 40
92 64 32
72 56 24
84 60 28
204 196 0
180 172 0
228 216 0
252 244 0
252 244 0
252 244 0
252 244 0
156 156 0
156 156 0
156 156 0
156 156 0
180 172 0
156 156 0
0 0 0
0 0 0
0 0 0
32 32 32
32 32 32
156 156 0
180 172 0
156 156 0
156 156 0
180 172 0
180 172 0
252 244 0
252 244 0
252 244 0
204 196 0
204 196 0
252 244 0
252 244 0
72 56 24
72 56 24
92 64 32
72 56 24
72 56 24
116 76 40
72 56 24
116 76 40
72 56 24
108 72 36
116 76 40
84 60 28
144 92 52
40 32 12
84 60 28
144 92 52
84 60 28

108 72 36
72 56 24
84 60 28
72 56 24
92 64 32
84 60 28
72 56 24
84 60 28
144 92 52
40 32 12
84 60 28
144 92 52
116 76 40
108 72 36
180 172 0
228 216 0
116 76 40
204 196 0
252 244 0
252 244 0
156 156 0
156 156 0
156 156 0
180 172 0
180 172 0
228 216 0
252 244 0
0 0 0
0 0 0
32 32 32
32 32 32
32 32 32
32 32 32
32 32 32
32 32 32
32 32 32
156 156 0
204 196 0
204 196 0
204 196 0
180 172 0
156 156 0
156 156 0
252 244 0
252 244 0
252 244 0
56 44 20
204 196 0
252 244 0
72 56 24
56 44 20
72 56 24
116 76 40
72 56 24
116 76 40
72 56 24
108 72 36
116 76 40
84 60 28
144 92 52
40 32 12
84 60 28
144 92 52
84 60 28

116 76 40
84 60 28
72 56 24
72 56 24
84 60 28
72 56 24
72 56 24
84 60 28
144 92 52
40 32 12
84 60 28
144 92 52
116 76 40
180 172 0
204 196 0
252 244 0
252 244 0
252 244 0
156 156 0
156 156 0
156 156 0
228 216 0
0 0 0
180 172 0
180 172 0
228 216 0
252 244 0
0 0 0
0 0 0
32 32 32
44 44 44
44 44 44
44 44 44
44 44 44
44 44 44
44 44 44
156 156 0
204 196 0
204 196 0
252 244 0
44 44 44
156 156 0
156 156 0
180 172 0
180 172 0
252 244 0
252 244 0
204 196 0
252 244 0
252 244 0
56 44 20
72 56 24
92 64 32
72 56 24
116 76 40
72 56 24
92 64 32
116 76 40
84 60 28
144 92 52
40 32 12
84 60 28
144 92 52
84 60 28

116 76 40
84 60 28
72 56 24
72 56 24
72 56 24
72 56 24
84 60 28
84 60 28
144 92 52
40 32 12
84 60 28
144 92 52
116 76 40
204 196 0
228 216 0
252 244 0
252 244 0
156 156 0
180 172 0
180 172 0
228 216 0
252 244 0
0 0 0
180 172 0
180 172 0
228 216 0
0 0 0
32 32 32
32 32 32
44 44 44
44 44 44
44 44 44
44 44 44
44 44 44
44 44 44
44 44 44
44 44 44
204 196 0
252 244 0
252 244 0
32 32 32
156 156 0
204 196 0
204 196 0
204 196 0
156 156 0
180 172 0
180 172 0
252 244 0
252 244 0
56 44 20
56 44 20
72 56 24
72 56 24
116 76 40
72 56 24
92 64 32
116 76 40
84 60 28
144 92 52
40 32 12
84 60 28
144 92 52
72 56 24

108 72 36
116 76 40
72 56 24
72 56 24
72 56 24
84 60 28
116 76 40
84 60 28
144 92 52
40 32 12
84 60 28
144 92 52
180 172 0
204 196 0
252 244 0
156 156 0
156 156 0
156 156 0
0 0 0
180 172 0
228 216 0
0 0 0
0 0 0
0 0 0
0 0 0
0 0 0
32 32 32
32 32 32
44 44 44
44 44 44
44 44 44
44 44 44
44 44 44
44 44 44
44 44 44
44 44 44
44 44 44
44 44 44
44 44 44
32 32 32
32 32 32
32 32 32
204 196 0
252 244 0
32 32 32
156 156 0
204 196 0
252 244 0
180 172 0
204 196 0
204 196 0
56 44 20
72 56 24
72 56 24
116 76 40
84 60 28
72 56 24
116 76 40
84 60 28
144 92 52
40 32 12
84 60 28
144 92 52
72 56 24

108 72 36
116 76 40
84 60 28
72 56 24
72 56 24
84 60 28
116 76 40
84 60 28
180 172 0
204 196 0
156 156 0
156 156 0
132 132 0
204 196 0
156 156 0
180 172 0
252 244 0
0 0 0
0 0 0
0 0 0
0 0 0
32 32 32
32 32 32
32 32 32
32 32 32
32 32 32
44 44 44
44 44 44
44 44 44
44 44 44
44 44 44
44 44 44
44 44 44
44 44 44
44 44 44
44 44 44
44 44 44
44 44 44
44 44 44
44 44 44
44 44 44
44 44 44
44 44 44
32 32 32
32 32 32
44 44 44
252 244 0
252 244 0
204 196 0
204 196 0
132 132 0
156 156 0
156 156 0
204 196 0
204 196 0
84 60 28
72 56 24
116 76 40
84 60 28
144 92 52
40 32 12
84 60 28
144 92 52
72 56 24

92 64 32
116 76 40
116 76 40
72 56 24
84 60 28
116 76 40
116 76 40
180 172 0
204 196 0
252 244 0
252 244 0
252 244 0
156 156 0
156 156 0
0 0 0
0 0 0
0 0 0
32 32 32
32 32 32
32 32 32
32 32 32
44 44 44
44 44 44
44 44 44
44 44 44
44 44 44
44 44 44
44 44 44
44 44 44
44 44 44
44 44 44
44 44 44
44 44 44
44 44 44
44 44 44
44 44 44
44 44 44
44 44 44
44 44 44
44 44 44
44 44 44
44 44 44
44 44 44
44 44 44
44 44 44
44 44 44
44 44 44
32 32 32
32 32 32
156 156 0
156 156 0
132 132 0
204 196 0
204 196 0
204 196 0
252 244 0
56 44 20
108 72 36
84 60 28
144 92 52
40 32 12
84 60 28
144 92 52
72 56 24

84 60 28
116 76 40
116 76 40
116 76 40
84 60 28
116 76 40
92 64 32
204 196 0
252 244 0
252 244 0
252 244 0
180 172 0
180 172 0
156 156 0
0 0 0
0 0 0
32 32 32
44 44 44
44 44 44
168 168 168
168 168 168
168 168 168
168 168 168
168 168 168
168 168 168
168 168 168
168 168 168
168 168 168
168 168 168
168 168 168
168 168 168
168 168 168
168 168 168
168 168 168
168 168 168
168 168 168
168 168 168
168 168 168
168 168 168
168 168 168
168 168 168
168 168 168
168 168 168
168 168 168
44 44 44
44 44 44
44 44 44
44 44 44
44 44 44
156 156 0
204 196 0
252 244 0
180 172 0
204 196 0
252 244 0
252 244 0
56 44 20
92 64 32
84 60 28
144 92 52
40 32 12
84 60 28
144 92 52
84 60 28

72 56 24
108 72 36
116 76 40
116 76 40
92 64 32
116 76 40
84 60 28
84 60 28
156 156 0
252 244 0
180 172 0
180 172 0
204 196 0
228 216 0
252 244 0
0 0 0
32 32 32
44 44 44
44 44 44
152 152 152
0 0 88
0 0 88
0 0 88
0 0 88
0 0 88
0 0 88
0 0 88
0 0 88
0 0 88
0 0 88
0 0 88
0 0 88
0 0 88
0 0 88
0 0 88
0 0 88
0 0 88
0 0 88
0 0 88
0 0 88
0 0 88
0 0 88
0 0 88
152 152 152
44 44 44
44 44 44
44 44 44
44 44 44
156 156 0
204 196 0
204 196 0
204 196 0
252 244 0
180 172 0
156 156 0
56 44 20
56 44 20
72 56 24
84 60 28
144 92 52
40 32 12
84 60 28
144 92 52
84 60 28

72 56 24
108 72 36
116 76 40
116 76 40
116 76 40
116 76 40
84 60 28
180 172 0
252 244 0
252 244 0
156 156 0
204 196 0
228 216 0
252 244 0
252 244 0
0 0 0
32 32 32
44 44 44
44 44 44
72 72 72
152 152 152
72 72 72
124 124 124
140 140 140
140 140 140
140 140 140
140 140 140
140 140 140
140 140 140
140 140 140
140 140 140
140 140 140
140 140 140
140 140 140
140 140 140
140 140 140
140 140 140
140 140 140
140 140 140
140 140 140
124 124 124
72 72 72
152 152 152
72 72 72
44 44 44
44 44 44
44 44 44
44 44 44
204 196 0
204 196 0
204 196 0
252 244 0
252 244 0
180 172 0
156 156 0
204 196 0
56 44 20
72 56 24
84 60 28
144 92 52
40 32 12
84 60 28
144 92 52
84 60 28

72 56 24
92 64 32
108 72 36
116 76 40
116 76 40
116 76 40
180 172 0
204 196 0
252 244 0
180 172 0
156 156 0
0 0 0
252 244 0
252 244 0
0 0 0
0 0 0
32 32 32
44 44 44
44 44 44
56 56 56
100 100 100
124 124 124
0 0 88
140 140 140
72 72 72
0 0 76
0 0 76
0 0 76
0 0 76
0 0 76
0 0 76
0 0 76
0 0 76
0 0 76
0 0 76
0 0 76
0 0 76
0 0 76
72 72 72
140 140 140
0 0 88
124 124 124
100 100 100
56 56 56
44 44 44
44 44 44
44 44 44
44 44 44
44 44 44
252 244 0
252 244 0
72 56 24
156 156 0
252 244 0
180 172 0
204 196 0
252 244 0
72 56 24
84 60 28
144 92 52
40 32 12
84 60 28
144 92 52
108 72 36

72 56 24
84 60 28
108 72 36
116 76 40
116 76 40
92 64 32
204 196 0
252 244 0
252 244 0
156 156 0
204 196 0
252 244 0
0 0 0
0 0 0
0 0 0
32 32 32
44 44 44
44 44 44
44 44 44
44 44 44
72 72 72
152 152 152
72 72 72
124 124 124
100 100 100
0 0 76
0 0 76
0 0 76
0 0 76
0 0 76
0 0 76
0 0 76
0 0 76
0 0 76
0 0 76
0 0 76
0 0 76
0 0 76
100 100 100
124 124 124
72 72 72
152 152 152
72 72 72
44 44 44
44 44 44
44 44 44
44 44 44
44 44 44
44 44 44
44 44 44
44 44 44
156 156 0
204 196 0
252 244 0
180 172 0
252 244 0
252 244 0
72 56 24
84 60 28
116 76 40
40 32 12
84 60 28
144 92 52
108 72 36

72 56 24
72 56 24
92 64 32
116 76 40
116 76 40
84 60 28
72 56 24
252 244 0
180 172 0
228 216 0
228 216 0
252 244 0
0 0 0
32 32 32
32 32 32
44 44 44
44 44 44
44 44 44
44 44 44
44 44 44
56 56 56
100 100 100
124 124 124
0 0 88
124 124 124
72 72 72
0 0 76
0 0 76
0 0 76
0 0 76
0 0 76
0 0 76
0 0 76
0 0 76
0 0 76
0 0 76
0 0 76
72 72 72
124 124 124
0 0 88
124 124 124
100 100 100
56 56 56
44 44 44
44 44 44
44 44 44
44 44 44
44 44 44
44 44 44
44 44 44
44 44 44
252 244 0
252 244 0
252 244 0
252 244 0
180 172 0
56 44 20
56 44 20
56 44 20
108 72 36
40 32 12
84 60 28
144 92 52
108 72 36

72 56 24
72 56 24
84 60 28
116 76 40
116 76 40
156 156 0
180 172 0
252 244 0
156 156 0
0 0 0
228 216 0
0 0 0
32 32 32
168 168 168
152 152 152
72 72 72
56 56 56
44 44 44
44 44 44
44 44 44
44 44 44
72 72 72
152 152 152
72 72 72
140 140 140
100 100 100
0 0 76
0 0 76
0 0 76
0 0 76
0 0 76
0 0 76
0 0 76
0 0 76
0 0 76
0 0 76
0 0 76
100 100 100
140 140 140
72 72 72
152 152 152
72 72 72
44 44 44
44 44 44
44 44 44
44 44 44
56 56 56
72 72 72
152 152 152
168 168 168
44 44 44
44 44 44
252 244 0
72 56 24
252 244 0
180 172 0
204 196 0
204 196 0
56 44 20
92 64 32
40 32 12
84 60 28
144 92 52
108 72 36

84 60 28
72 56 24
84 60 28
92 64 32
84 60 28
180 172 0
252 244 0
252 244 0
156 156 0
180 172 0
0 0 0
0 0 0
32 32 32
168 168 168
0 0 88
152 152 152
100 100 100
72 72 72
56 56 56
44 44 44
44 44 44
56 56 56
100 100 100
124 124 124
0 0 88
124 124 124
72 72 72
0 0 76
0 0 76
0 0 76
0 0 76
0 0 76
0 0 76
0 0 76
0 0 76
0 0 76
72 72 72
124 124 124
0 0 88
124 124 124
100 100 100
56 56 56
44 44 44
44 44 44
56 56 56
72 72 72
100 100 100
152 152 152
0 0 88
168 168 168
44 44 44
44 44 44
44 44 44
180 172 0
180 172 0
252 244 0
204 196 0
252 244 0
56 44 20
84 60 28
40 32 12
84 60 28
144 92 52
108 72 36

84 60 28
72 56 24
72 56 24
84 60 28
72 56 24
204 196 0
252 244 0
252 244 0
156 156 0
180 172 0
0 0 0
32 32 32
32 32 32
168 168 168
0 0 88
0 0 88
124 124 124
152 152 152
100 100 100
72 72 72
56 56 56
44 44 44
72 72 72
152 152 152
72 72 72
140 140 140
100 100 100
0 0 76
0 0 76
0 0 76
0 0 76
0 0 76
0 0 76
0 0 76
0 0 76
0 0 76
100 100 100
140 140 140
72 72 72
152 152 152
72 72 72
44 44 44
56 56 56
72 72 72
100 100 100
152 152 152
124 124 124
72 72 72
0 0 88
168 168 168
44 44 44
44 44 44
44 44 44
180 172 0
252 244 0
252 244 0
252 244 0
252 244 0
56 44 20
84 60 28
40 32 12
84 60 28
144 92 52
108 72 36

84 60 28
72 56 24
72 56 24
72 56 24
72 56 24
72 56 24
204 196 0
228 216 0
156 156 0
0 0 0
0 0 0
32 32 32
44 44 44
168 168 168
0 0 88
124 124 124
0 0 88
72 72 72
124 124 124
152 152 152
100 100 100
72 72 72
44 44 44
100 100 100
124 124 124
84 84 84
124 124 124
0 0 76
0 0 76
0 0 76
0 0 76
0 0 76
0 0 76
0 0 76
0 0 76
0 0 76
124 124 124
84 84 84
124 124 124
100 100 100
44 44 44
72 72 72
100 100 100
152 152 152
124 124 124
72 72 72
0 0 88
124 124 124
0 0 88
168 168 168
44 44 44
44 44 44
44 44 44
44 44 44
252 244 0
252 244 0
204 196 0
56 44 20
56 44 20
84 60 28
40 32 12
84 60 28
144 92 52
92 64 32

108 72 36
72 56 24
72 56 24
72 56 24
156 156 0
156 156 0
132 132 0
0 0 0
0 0 0
0 0 0
32 32 32
44 44 44
44 44 44
168 168 168
0 0 88
140 140 140
140 140 140
124 124 124
0 0 88
72 72 72
124 124 124
152 152 152
100 100 100
44 44 44
152 152 152
0 0 88
140 140 140
72 72 72
0 0 76
0 0 76
0 0 76
0 0 76
0 0 76
0 0 76
0 0 76
72 72 72
140 140 140
0 0 88
152 152 152
44 44 44
100 100 100
152 152 152
124 124 124
72 72 72
0 0 88
124 124 124
140 140 140
140 140 140
0 0 88
168 168 168
44 44 44
44 44 44
44 44 44
44 44 44
44 44 44
44 44 44
132 132 0
156 156 0
156 156 0
84 60 28
40 32 12
84 60 28
144 92 52
84 60 28

108 72 36
72 56 24
72 56 24
180 172 0
204 196 0
252 244 0
252 244 0
156 156 0
156 156 0
0 0 0
32 32 32
44 44 44
44 44 44
168 168 168
0 0 88
140 140 140
72 72 72
100 100 100
140 140 140
124 124 124
0 0 88
72 72 72
124 124 124
152 152 152
152 152 152
72 72 72
100 100 100
100 100 100
0 0 76
0 0 76
0 0 76
0 0 76
0 0 76
0 0 76
0 0 76
100 100 100
100 100 100
72 72 72
152 152 152
152 152 152
124 124 124
72 72 72
0 0 88
124 124 124
140 140 140
100 100 100
72 72 72
140 140 140
0 0 88
168 168 168
44 44 44
44 44 44
44 44 44
44 44 44
156 156 0
204 196 0
252 244 0
132 132 0
204 196 0
252 244 0
40 32 12
84 60 28
144 92 52
84 60 28

108 72 36
84 60 28
72 56 24
204 196 0
252 244 0
252 244 0
180 172 0
156 156 0
228 216 0
252 244 0
0 0 0
32 32 32
44 44 44
168 168 168
0 0 88
140 140 140
0 0 76
0 0 76
72 72 72
100 100 100
140 140 140
124 124 124
84 84 84
0 0 88
72 72 72
124 124 124
0 0 88
140 140 140
0 0 76
0 0 76
0 0 76
0 0 76
0 0 76
0 0 76
0 0 76
140 140 140
0 0 88
124 124 124
72 72 72
0 0 88
84 84 84
124 124 124
140 140 140
100 100 100
72 72 72
0 0 76
0 0 76
140 140 140
0 0 88
168 168 168
44 44 44
44 44 44
44 44 44
156 156 0
204 196 0
204 196 0
252 244 0
180 172 0
252 244 0
252 244 0
40 32 12
84 60 28
144 92 52
72 56 24

92 64 32
84 60 28
72 56 24
72 56 24
252 244 0
252 244 0
180 172 0
204 196 0
228 216 0
252 244 0
0 0 0
32 32 32
44 44 44
168 168 168
0 0 88
140 140 140
0 0 76
0 0 76
0 0 76
0 0 76
72 72 72
100 100 100
124 124 124
140 140 140
100 100 100
0 0 88
0 0 88
140 140 140
0 0 76
0 0 76
0 0 76
0 0 76
0 0 76
0 0 76
0 0 76
140 140 140
0 0 88
0 0 88
100 100 100
140 140 140
124 124 124
100 100 100
72 72 72
0 0 76
0 0 76
0 0 76
0 0 76
140 140 140
0 0 88
168 168 168
44 44 44
44 44 44
44 44 44
252 244 0
252 244 0
252 244 0
252 244 0
180 172 0
252 244 0
84 60 28
40 32 12
84 60 28
144 92 52
72 56 24

84 60 28
108 72 36
72 56 24
156 156 0
156 156 0
252 244 0
156 156 0
204 196 0
252 244 0
0 0 0
0 0 0
32 32 32
44 44 44
168 168 168
0 0 88
140 140 140
0 0 76
0 0 76
0 0 76
0 0 76
0 0 76
0 0 76
0 0 76
72 72 72
100 100 100
124 124 124
140 140 140
140 140 140
0 0 76
0 0 76
0 0 76
0 0 76
0 0 76
0 0 76
0 0 76
140 140 140
140 140 140
124 124 124
100 100 100
72 72 72
0 0 76
0 0 76
0 0 76
0 0 76
0 0 76
0 0 76
0 0 76
140 140 140
0 0 88
168 168 168
44 44 44
44 44 44
44 44 44
44 44 44
252 244 0
252 244 0
252 244 0
156 156 0
156 156 0
156 156 0
40 32 12
84 60 28
144 92 52
72 56 24

84 60 28
108 72 36
84 60 28
204 196 0
252 244 0
252 244 0
156 156 0
156 156 0
0 0 0
0 0 0
32 32 32
44 44 44
44 44 44
168 168 168
0 0 88
140 140 140
0 0 76
0 0 76
0 0 76
0 0 76
0 0 76
0 0 76
0 0 76
0 0 76
0 0 76
0 0 76
0 0 76
0 0 76
0 0 76
0 0 76
0 0 76
0 0 76
0 0 76
0 0 76
0 0 76
0 0 76
0 0 76
0 0 76
0 0 76
0 0 76
0 0 76
0 0 76
0 0 76
0 0 76
0 0 76
0 0 76
0 0 76
140 140 140
0 0 88
168 168 168
44 44 44
44 44 44
44 44 44
44 44 44
44 44 44
156 156 0
252 244 0
180 172 0
204 196 0
252 244 0
40 32 12
84 60 28
144 92 52
72 56 24

72 56 24
92 64 32
84 60 28
180 172 0
252 244 0
252 244 0
156 156 0
228 216 0
252 244 0
0 0 0
32 32 32
44 44 44
44 44 44
168 168 168
0 0 88
140 140 140
0 0 76
0 0 76
0 0 76
0 0 76
0 0 76
0 0 76
0 0 76
0 0 76
0 0 76
0 0 76
0 0 76
0 0 76
0 0 76
0 0 76
0 0 76
0 0 76
0 0 76
0 0 76
0 0 76
0 0 76
0 0 76
0 0 76
0 0 76
0 0 76
0 0 76
0 0 76
0 0 76
0 0 76
0 0 76
0 0 76
0 0 76
140 140 140
0 0 88
168 168 168
44 44 44
44 44 44
44 44 44
44 44 44
156 156 0
204 196 0
252 244 0
180 172 0
252 244 0
252 244 0
40 32 12
84 60 28
144 92 52
72 56 24

72 56 24
84 60 28
108 72 36
84 60 28
156 156 0
252 244 0
156 156 0
228 216 0
252 244 0
0 0 0
32 32 32
44 44 44
44 44 44
168 168 168
0 0 88
140 140 140
0 0 76
0 0 76
0 0 76
0 0 76
0 0 76
0 0 76
0 0 76
0 0 76
0 0 76
0 0 76
0 0 76
0 0 76
0 0 76
0 0 76
0 0 76
0 0 76
0 0 76
0 0 76
0 0 76
0 0 76
0 0 76
0 0 76
0 0 76
0 0 76
0 0 76
0 0 76
0 0 76
0 0 76
0 0 76
0 0 76
0 0 76
140 140 140
0 0 88
168 168 168
44 44 44
44 44 44
44 44 44
44 44 44
252 244 0
252 244 0
252 244 0
180 172 0
156 156 0
84 60 28
40 32 12
84 60 28
144 92 52
72 56 24

72 56 24
84 60 28
108 72 36
156 156 0
156 156 0
252 244 0
156 156 0
0 0 0
0 0 0
0 0 0
32 32 32
44 44 44
44 44 44
168 168 168
0 0 88
140 140 140
0 0 76
0 0 76
0 0 76
0 0 76
0 0 76
0 0 76
0 0 76
0 0 76
0 0 76
0 0 76
0 0 76
0 0 76
0 0 76
0 0 76
0 0 76
0 0 76
0 0 76
0 0 76
0 0 76
0 0 76
0 0 76
0 0 76
0 0 76
0 0 76
0 0 76
0 0 76
0 0 76
0 0 76
0 0 76
0 0 76
0 0 76
140 140 140
0 0 88
168 168 168
44 44 44
44 44 44
44 44 44
44 44 44
44 44 44
44 44 44
156 156 0
156 156 0
156 156 0
156 156 0
40 32 12
84 60 28
144 92 52
72 56 24

72 56 24
72 56 24
92 64 32
180 172 0
252 244 0
252 244 0
156 156 0
252 244 0
32 32 32
32 32 32
44 44 44
44 44 44
44 44 44
168 168 168
0 0 88
140 140 140
0 0 76
0 0 76
0 0 76
0 0 76
0 0 76
0 0 76
0 0 76
0 0 76
0 0 76
0 0 76
0 0 76
0 0 76
0 0 76
0 0 76
0 0 76
0 0 76
0 0 76
0 0 76
0 0 76
0 0 76
0 0 76
0 0 76
0 0 76
0 0 76
0 0 76
0 0 76
0 0 76
0 0 76
0 0 76
0 0 76
0 0 76
140 140 140
0 0 88
168 168 168
44 44 44
44 44 44
44 44 44
44 44 44
44 44 44
156 156 0
252 244 0
180 172 0
252 244 0
252 244 0
40 32 12
84 60 28
144 92 52
84 60 28

72 56 24
72 56 24
84 60 28
92 64 32
252 244 0
252 244 0
156 156 0
228 216 0
84 60 28
40 32 12
56 44 20
84 60 28
56 44 20
168 168 168
0 0 88
140 140 140
0 0 76
0 0 76
0 0 76
0 0 76
0 0 76
0 0 76
0 0 76
0 0 76
0 0 76
0 0 76
0 0 76
0 0 76
0 0 76
0 0 76
0 0 76
0 0 76
0 0 76
0 0 76
0 0 76
0 0 76
0 0 76
0 0 76
0 0 76
0 0 76
0 0 76
0 0 76
0 0 76
0 0 76
0 0 76
0 0 76
0 0 76
140 140 140
0 0 88
168 168 168
56 44 20
56 44 20
56 44 20
56 44 20
56 44 20
204 196 0
252 244 0
180 172 0
252 244 0
64 48 24
40 32 12
84 60 28
144 92 52
84 60 28

72 56 24
72 56 24
72 56 24
84 60 28
56 44 20
252 244 0
180 172 0
56 44 20
84 60 28
40 32 12
56 44 20
84 60 28
56 44 20
168 168 168
0 0 88
140 140 140
0 0 76
0 0 76
0 0 76
0 0 76
0 0 76
0 0 76
0 0 76
0 0 76
0 0 76
0 0 76
0 0 76
0 0 76
0 0 76
0 0 76
0 0 76
0 0 76
0 0 76
0 0 76
0 0 76
0 0 76
0 0 76
0 0 76
0 0 76
0 0 76
0 0 76
0 0 76
0 0 76
0 0 76
0 0 76
0 0 76
0 0 76
140 140 140
0 0 88
168 168 168
56 44 20
56 44 20
56 44 20
56 44 20
56 44 20
56 44 20
204 196 0
204 196 0
56 44 20
64 48 24
40 32 12
84 60 28
144 92 52
92 64 32

72 56 24
72 56 24
72 56 24
72 56 24
56 44 20
56 44 20
56 44 20
56 44 20
84 60 28
40 32 12
56 44 20
84 60 28
56 44 20
168 168 168
0 0 88
140 140 140
0 0 76
0 0 76
0 0 76
0 0 76
0 0 76
0 0 76
0 0 76
72 72 72
100 100 100
124 124 124
140 140 140
140 140 140
0 0 76
0 0 76
0 0 76
0 0 76
0 0 76
0 0 76
0 0 76
140 140 140
140 140 140
124 124 124
100 100 100
72 72 72
0 0 76
0 0 76
0 0 76
0 0 76
0 0 76
0 0 76
0 0 76
140 140 140
0 0 88
168 168 168
56 44 20
56 44 20
56 44 20
64 48 24
56 44 20
56 44 20
56 44 20
56 44 20
56 44 20
84 60 28
40 32 12
84 60 28
144 92 52
108 72 36

72 56 24
72 56 24
72 56 24
72 56 24
72 56 24
56 44 20
56 44 20
56 44 20
84 60 28
40 32 12
84 60 28
144 92 52
116 76 40
168 168 168
0 0 88
140 140 140
0 0 76
0 0 76
0 0 76
0 0 76
72 72 72
100 100 100
124 124 124
140 140 140
100 100 100
0 0 88
0 0 88
140 140 140
0 0 76
0 0 76
0 0 76
0 0 76
0 0 76
0 0 76
0 0 76
140 140 140
0 0 88
0 0 88
100 100 100
140 140 140
124 124 124
100 100 100
72 72 72
0 0 76
0 0 76
0 0 76
0 0 76
140 140 140
0 0 88
168 168 168
56 44 20
56 44 20
64 48 24
92 64 32
72 56 24
72 56 24
72 56 24
64 48 24
84 60 28
84 60 28
40 32 12
84 60 28
144 92 52
108 72 36

84 60 28
72 56 24
72 56 24
72 56 24
72 56 24
72 56 24
84 60 28
84 60 28
144 92 52
40 32 12
84 60 28
144 92 52
108 72 36
168 168 168
0 0 88
140 140 140
0 0 76
0 0 76
72 72 72
100 100 100
124 124 124
140 140 140
84 84 84
0 0 88
72 72 72
124 124 124
0 0 88
124 124 124
0 0 76
0 0 76
0 0 76
0 0 76
0 0 76
0 0 76
0 0 76
124 124 124
0 0 88
124 124 124
72 72 72
0 0 88
84 84 84
140 140 140
124 124 124
100 100 100
72 72 72
0 0 76
0 0 76
140 140 140
0 0 88
168 168 168
56 44 20
56 44 20
64 48 24
108 72 36
72 56 24
72 56 24
108 72 36
116 76 40
84 60 28
144 92 52
40 32 12
84 60 28
144 92 52
108 72 36

84 60 28
72 56 24
72 56 24
72 56 24
72 56 24
72 56 24
92 64 32
84 60 28
144 92 52
40 32 12
84 60 28
144 92 52
108 72 36
168 168 168
0 0 88
140 140 140
72 72 72
100 100 100
124 124 124
140 140 140
0 0 88
72 72 72
124 124 124
152 152 152
152 152 152
72 72 72
100 100 100
100 100 100
0 0 76
0 0 76
0 0 76
0 0 76
0 0 76
0 0 76
0 0 76
100 100 100
100 100 100
72 72 72
152 152 152
152 152 152
124 124 124
72 72 72
0 0 88
140 140 140
124 124 124
100 100 100
72 72 72
140 140 140
0 0 88
168 168 168
56 44 20
56 44 20
64 48 24
108 72 36
72 56 24
72 56 24
92 64 32
116 76 40
84 60 28
144 92 52
40 32 12
84 60 28
144 92 52
84 60 28

108 72 36
84 60 28
72 56 24
72 56 24
72 56 24
84 60 28
92 64 32
84 60 28
144 92 52
40 32 12
84 60 28
144 92 52
92 64 32
168 168 168
0 0 88
140 140 140
140 140 140
124 124 124
0 0 88
72 72 72
124 124 124
152 152 152
100 100 100
56 44 20
152 152 152
0 0 88
140 140 140
72 72 72
0 0 76
0 0 76
0 0 76
0 0 76
0 0 76
0 0 76
0 0 76
72 72 72
140 140 140
0 0 88
152 152 152
56 44 20
100 100 100
152 152 152
124 124 124
72 72 72
0 0 88
124 124 124
140 140 140
140 140 140
0 0 88
168 168 168
56 44 20
56 44 20
64 48 24
116 76 40
72 56 24
72 56 24
92 64 32
116 76 40
84 60 28
144 92 52
40 32 12
84 60 28
144 92 52
84 60 28

108 72 36
84 60 28
72 56 24
72 56 24
72 56 24
84 60 28
108 72 36
84 60 28
144 92 52
40 32 12
84 60 28
144 92 52
84 60 28
168 168 168
0 0 88
124 124 124
0 0 88
72 72 72
124 124 124
152 152 152
100 100 100
56 44 20
56 44 20
100 100 100
124 124 124
84 84 84
124 124 124
0 0 76
0 0 76
0 0 76
0 0 76
0 0 76
0 0 76
0 0 76
0 0 76
0 0 76
124 124 124
84 84 84
124 124 124
100 100 100
56 44 20
56 44 20
100 100 100
152 152 152
124 124 124
72 72 72
0 0 88
124 124 124
0 0 88
168 168 168
56 44 20
56 44 20
64 48 24
116 76 40
84 60 28
72 56 24
84 60 28
108 72 36
84 60 28
144 92 52
40 32 12
84 60 28
144 92 52
72 56 24

108 72 36
92 64 32
84 60 28
72 56 24
84 60 28
92 64 32
108 72 36
84 60 28
144 92 52
40 32 12
84 60 28
144 92 52
72 56 24
168 168 168
0 0 88
0 0 88
124 124 124
152 152 152
100 100 100
56 44 20
56 44 20
56 44 20
56 44 20
152 152 152
72 72 72
140 140 140
100 100 100
0 0 76
0 0 76
0 0 76
0 0 76
0 0 76
0 0 76
0 0 76
0 0 76
0 0 76
100 100 100
140 140 140
72 72 72
152 152 152
56 44 20
56 44 20
56 44 20
56 44 20
100 100 100
152 152 152
124 124 124
72 72 72
0 0 88
168 168 168
56 44 20
56 44 20
64 48 24
116 76 40
84 60 28
72 56 24
84 60 28
108 72 36
84 60 28
144 92 52
40 32 12
84 60 28
144 92 52
72 56 24

108 72 36
108 72 36
84 60 28
84 60 28
84 60 28
108 72 36
92 64 32
84 60 28
144 92 52
40 32 12
84 60 28
144 92 52
72 56 24
168 168 168
0 0 88
152 152 152
100 100 100
56 44 20
56 44 20
56 44 20
56 44 20
56 44 20
100 100 100
124 124 124
0 0 88
124 124 124
72 72 72
0 0 76
0 0 76
0 0 76
0 0 76
0 0 76
0 0 76
0 0 76
0 0 76
0 0 76
72 72 72
124 124 124
0 0 88
124 124 124
100 100 100
56 44 20
56 44 20
56 44 20
84 60 28
40 32 12
100 100 100
152 152 152
0 0 88
168 168 168
56 44 20
56 44 20
64 48 24
116 76 40
84 60 28
72 56 24
84 60 28
92 64 32
84 60 28
144 92 52
40 32 12
84 60 28
144 92 52
72 56 24

92 64 32
108 72 36
92 64 32
84 60 28
92 64 32
108 72 36
84 60 28
84 60 28
144 92 52
40 32 12
84 60 28
144 92 52
72 56 24
168 168 168
152 152 152
56 44 20
56 44 20
56 44 20
56 44 20
56 44 20
56 44 20
56 44 20
152 152 152
72 72 72
140 140 140
100 100 100
0 0 76
0 0 76
0 0 76
0 0 76
0 0 76
0 0 76
0 0 76
0 0 76
0 0 76
0 0 76
0 0 76
100 100 100
140 140 140
72 72 72
152 152 152
56 44 20
56 44 20
56 44 20
84 60 28
40 32 12
64 48 24
84 60 28
152 152 152
168 168 168
56 44 20
56 44 20
64 48 24
116 76 40
92 64 32
72 56 24
72 56 24
92 64 32
84 60 28
144 92 52
40 32 12
84 60 28
144 92 52
72 56 24

84 60 28
108 72 36
108 72 36
92 64 32
108 72 36
108 72 36
84 60 28
84 60 28
144 92 52
40 32 12
84 60 28
144 92 52
72 56 24
72 56 24
56 44 20
56 44 20
56 44 20
56 44 20
56 44 20
56 44 20
56 44 20
100 100 100
124 124 124
0 0 88
124 124 124
72 72 72
0 0 76
0 0 76
0 0 76
0 0 76
0 0 76
0 0 76
0 0 76
0 0 76
0 0 76
0 0 76
0 0 76
72 72 72
140 140 140
0 0 88
124 124 124
100 100 100
56 44 20
56 44 20
84 60 28
40 32 12
64 48 24
84 60 28
56 44 20
84 60 28
56 44 20
56 44 20
64 48 24
116 76 40
92 64 32
84 60 28
72 56 24
84 60 28
84 60 28
144 92 52
40 32 12
84 60 28
144 92 52
72 56 24

84 60 28
108 72 36
108 72 36
92 64 32
108 72 36
108 72 36
72 56 24
84 60 28
144 92 52
40 32 12
84 60 28
144 92 52
72 56 24
72 56 24
72 56 24
56 44 20
56 44 20
56 44 20
56 44 20
56 44 20
116 76 40
152 152 152
72 72 72
124 124 124
100 100 100
0 0 76
0 0 76
0 0 76
0 0 76
0 0 76
0 0 76
0 0 76
0 0 76
0 0 76
0 0 76
0 0 76
0 0 76
0 0 76
100 100 100
124 124 124
72 72 72
152 152 152
56 44 20
56 44 20
144 92 52
40 32 12
64 48 24
84 60 28
56 44 20
84 60 28
56 44 20
56 44 20
64 48 24
116 76 40
108 72 36
84 60 28
72 56 24
84 60 28
84 60 28
144 92 52
40 32 12
84 60 28
144 92 52
72 56 24

72 56 24
108 72 36
116 76 40
116 76 40
116 76 40
108 72 36
72 56 24
84 60 28
144 92 52
40 32 12
84 60 28
144 92 52
84 60 28
72 56 24
72 56 24
56 44 20
56 44 20
56 44 20
56 44 20
84 60 28
100 100 100
124 124 124
0 0 88
140 140 140
72 72 72
0 0 76
0 0 76
0 0 76
0 0 76
0 0 76
0 0 76
0 0 76
0 0 76
0 0 76
0 0 76
0 0 76
0 0 76
0 0 76
72 72 72
140 140 140
0 0 88
124 124 124
100 100 100
56 44 20
144 92 52
40 32 12
84 60 28
84 60 28
56 44 20
84 60 28
56 44 20
56 44 20
64 48 24
116 76 40
108 72 36
84 60 28
72 56 24
84 60 28
84 60 28
144 92 52
40 32 12
84 60 28
144 92 52
72 56 24

72 56 24
92 64 32
116 76 40
116 76 40
116 76 40
108 72 36
72 56 24
84 60 28
144 92 52
40 32 12
84 60 28
144 92 52
84 60 28
72 56 24
72 56 24
72 56 24
56 44 20
56 44 20
72 56 24
92 64 32
152 152 152
72 72 72
124 124 124
140 140 140
140 140 140
140 140 140
140 140 140
140 140 140
140 140 140
140 140 140
140 140 140
140 140 140
140 140 140
140 140 140
140 140 140
140 140 140
140 140 140
140 140 140
140 140 140
140 140 140
124 124 124
72 72 72
152 152 152
56 44 20
84 60 28
40 32 12
84 60 28
144 92 52
72 56 24
84 60 28
64 48 24
64 48 24
64 48 24
108 72 36
116 76 40
92 64 32
72 56 24
72 56 24
84 60 28
144 92 52
40 32 12
84 60 28
144 92 52
72 56 24

72 56 24
84 60 28
108 72 36
116 76 40
116 76 40
108 72 36
72 56 24
84 60 28
144 92 52
40 32 12
84 60 28
144 92 52
92 64 32
72 56 24
72 56 24
72 56 24
72 56 24
72 56 24
72 56 24
152 152 152
0 0 88
0 0 88
0 0 88
0 0 88
0 0 88
0 0 88
0 0 88
0 0 88
0 0 88
0 0 88
0 0 88
0 0 88
0 0 88
0 0 88
0 0 88
0 0 88
0 0 88
0 0 88
0 0 88
0 0 88
0 0 88
0 0 88
0 0 88
152 152 152
84 60 28
40 32 12
84 60 28
144 92 52
72 56 24
116 76 40
72 56 24
72 56 24
72 56 24
108 72 36
116 76 40
92 64 32
84 60 28
72 56 24
84 60 28
144 92 52
40 32 12
84 60 28
144 92 52
72 56 24

72 56 24
84 60 28
108 72 36
116 76 40
116 76 40
92 64 32
72 56 24
84 60 28
144 92 52
40 32 12
84 60 28
144 92 52
108 72 36
84 60 28
72 56 24
72 56 24
72 56 24
72 56 24
72 56 24
168 168 168
168 168 168
168 168 168
168 168 168
168 168 168
168 168 168
168 168 168
168 168 168
168 168 168
168 168 168
168 168 168
168 168 168
168 168 168
168 168 168
168 168 168
168 168 168
168 168 168
168 168 168
168 168 168
168 168 168
168 168 168
168 168 168
168 168 168
168 168 168
168 168 168
84 60 28
40 32 12
84 60 28
144 92 52
72 56 24
116 76 40
72 56 24
72 56 24
72 56 24
92 64 32
116 76 40
108 72 36
84 60 28
72 56 24
84 60 28
144 92 52
40 32 12
84 60 28
144 92 52
84 60 28

72 56 24
72 56 24
92 64 32
116 76 40
108 72 36
92 64 32
72 56 24
84 60 28
144 92 52
40 32 12
84 60 28
144 92 52
116 76 40
84 60 28
72 56 24
72 56 24
72 56 24
72 56 24
84 60 28
116 76 40
56 44 20
56 44 20
56 44 20
56 44 20
56 44 20
56 44 20
84 60 28
40 32 12
64 48 24
84 60 28
56 44 20
56 44 20
56 44 20
56 44 20
84 60 28
40 32 12
64 48 24
84 60 28
56 44 20
56 44 20
56 44 20
56 44 20
56 44 20
56 44 20
84 60 28
40 32 12
84 60 28
144 92 52
72 56 24
116 76 40
72 56 24
72 56 24
72 56 24
92 64 32
116 76 40
108 72 36
92 64 32
72 56 24
84 60 28
144 92 52
40 32 12
84 60 28
144 92 52
84 60 28

72 56 24
72 56 24
84 60 28
108 72 36
108 72 36
84 60 28
72 56 24
84 60 28
144 92 52
40 32 12
84 60 28
144 92 52
116 76 40
92 64 32
72 56 24
72 56 24
72 56 24
72 56 24
92 64 32
116 76 40
108 72 36
56 44 20
56 44 20
56 44 20
56 44 20
56 44 20
84 60 28
40 32 12
64 48 24
84 60 28
56 44 20
56 44 20
56 44 20
56 44 20
84 60 28
40 32 12
64 48 24
84 60 28
56 44 20
56 44 20
56 44 20
56 44 20
56 44 20
56 44 20
84 60 28
40 32 12
84 60 28
144 92 52
72 56 24
116 76 40
84 60 28
72 56 24
72 56 24
84 60 28
108 72 36
116 76 40
92 64 32
84 60 28
84 60 28
144 92 52
40 32 12
84 60 28
144 92 52
92 64 32

72 56 24
72 56 24
84 60 28
108 72 36
92 64 32
84 60 28
72 56 24
84 60 28
144 92 52
40 32 12
84 60 28
144 92 52
108 72 36
108 72 36
84 60 28
72 56 24
72 56 24
72 56 24
108 72 36
116 76 40
92 64 32
72 56 24
56 44 20
56 44 20
56 44 20
56 44 20
84 60 28
40 32 12
64 48 24
84 60 28
56 44 20
56 44 20
56 44 20
56 44 20
84 60 28
40 32 12
64 48 24
84 60 28
56 44 20
56 44 20
56 44 20
56 44 20
56 44 20
56 44 20
84 60 28
40 32 12
84 60 28
144 92 52
72 56 24
116 76 40
84 60 28
72 56 24
72 56 24
84 60 28
92 64 32
116 76 40
108 72 36
84 60 28
84 60 28
144 92 52
40 32 12
84 60 28
144 92 52
92 64 32

72 56 24
72 56 24
72 56 24
92 64 32
92 64 32
72 56 24
72 56 24
84 60 28
144 92 52
40 32 12
84 60 28
144 92 52
108 72 36
116 76 40
84 60 28
72 56 24
72 56 24
84 60 28
108 72 36
116 76 40
72 56 24
72 56 24
72 56 24
108 72 36
72 56 24
84 60 28
144 92 52
40 32 12
84 60 28
144 92 52
116 76 40
116 76 40
116 76 40
84 60 28
144 92 52
40 32 12
84 60 28
144 92 52
72 56 24
92 64 32
108 72 36
84 60 28
72 56 24
84 60 28
144 92 52
40 32 12
84 60 28
144 92 52
72 56 24
116 76 40
84 60 28
72 56 24
72 56 24
72 56 24
92 64 32
116 76 40
108 72 36
84 60 28
84 60 28
144 92 52
40 32 12
84 60 28
144 92 52
108 72 36

72 56 24
72 56 24
72 56 24
84 60 28
84 60 28
72 56 24
72 56 24
84 60 28
144 92 52
40 32 12
84 60 28
144 92 52
92 64 32
116 76 40
108 72 36
84 60 28
72 56 24
84 60 28
116 76 40
116 76 40
72 56 24
72 56 24
72 56 24
108 72 36
72 56 24
84 60 28
144 92 52
40 32 12
84 60 28
144 92 52
116 76 40
116 76 40
116 76 40
84 60 28
144 92 52
40 32 12
84 60 28
144 92 52
72 56 24
84 60 28
92 64 32
72 56 24
72 56 24
84 60 28
144 92 52
40 32 12
84 60 28
144 92 52
72 56 24
116 76 40
84 60 28
72 56 24
72 56 24
72 56 24
84 60 28
108 72 36
116 76 40
84 60 28
84 60 28
144 92 52
40 32 12
84 60 28
144 92 52
108 72 36

84 60 28
72 56 24
72 56 24
72 56 24
72 56 24
72 56 24
84 60 28
84 60 28
144 92 52
40 32 12
84 60 28
144 92 52
72 56 24
108 72 36
116 76 40
108 72 36
84 60 28
116 76 40
116 76 40
108 72 36
72 56 24
72 56 24
72 56 24
108 72 36
72 56 24
84 60 28
144 92 52
40 32 12
84 60 28
144 92 52
116 76 40
116 76 40
116 76 40
84 60 28
144 92 52
40 32 12
84 60 28
144 92 52
72 56 24
72 56 24
84 60 28
72 56 24
72 56 24
84 60 28
144 92 52
40 32 12
84 60 28
144 92 52
72 56 24
108 72 36
92 64 32
72 56 24
72 56 24
72 56 24
84 60 28
92 64 32
116 76 40
108 72 36
84 60 28
144 92 52
40 32 12
84 60 28
144 92 52
116 76 40

84 60 28
72 56 24
72 56 24
72 56 24
72 56 24
72 56 24
84 60 28
84 60 28
144 92 52
40 32 12
84 60 28
144 92 52
72 56 24
92 64 32
116 76 40
116 76 40
116 76 40
116 76 40
116 76 40
92 64 32
72 56 24
72 56 24
72 56 24
116 76 40
72 56 24
84 60 28
144 92 52
40 32 12
84 60 28
144 92 52
116 76 40
116 76 40
108 72 36
84 60 28
144 92 52
40 32 12
84 60 28
144 92 52
72 56 24
72 56 24
72 56 24
72 56 24
72 56 24
84 60 28
144 92 52
40 32 12
84 60 28
144 92 52
72 56 24
108 72 36
108 72 36
72 56 24
72 56 24
72 56 24
72 56 24
92 64 32
116 76 40
108 72 36
84 60 28
144 92 52
40 32 12
84 60 28
144 92 52
116 76 40

92 64 32
72 56 24
72 56 24
72 56 24
72 56 24
72 56 24
108 72 36
84 60 28
144 92 52
40 32 12
84 60 28
144 92 52
72 56 24
72 56 24
116 76 40
116 76 40
116 76 40
116 76 40
108 72 36
72 56 24
72 56 24
72 56 24
92 64 32
116 76 40
72 56 24
84 60 28
144 92 52
40 32 12
84 60 28
144 92 52
116 76 40
116 76 40
108 72 36
84 60 28
144 92 52
40 32 12
84 60 28
144 92 52
72 56 24
72 56 24
72 56 24
72 56 24
72 56 24
84 60 28
144 92 52
40 32 12
84 60 28
144 92 52
72 56 24
92 64 32
108 72 36
84 60 28
72 56 24
72 56 24
72 56 24
84 60 28
108 72 36
108 72 36
84 60 28
144 92 52
40 32 12
84 60 28
144 92 52
116 76 40

92 64 32
84 60 28
72 56 24
72 56 24
72 56 24
84 60 28
108 72 36
84 60 28
144 92 52
40 32 12
84 60 28
144 92 52
72 56 24
72 56 24
92 64 32
108 72 36
116 76 40
108 72 36
92 64 32
72 56 24
72 56 24
72 56 24
108 72 36
116 76 40
72 56 24
84 60 28
144 92 52
40 32 12
84 60 28
144 92 52
116 76 40
108 72 36
92 64 32
84 60 28
144 92 52
40 32 12
84 60 28
144 92 52
72 56 24
72 56 24
72 56 24
72 56 24
72 56 24
84 60 28
144 92 52
40 32 12
84 60 28
144 92 52
72 56 24
92 64 32
116 76 40
84 60 28
72 56 24
72 56 24
72 56 24
72 56 24
92 64 32
92 64 32
84 60 28
144 92 52
40 32 12
84 60 28
144 92 52
116 76 40

108 72 36
84 60 28
72 56 24
72 56 24
72 56 24
84 60 28
108 72 36
84 60 28
144 92 52
40 32 12
84 60 28
144 92 52
72 56 24
72 56 24
72 56 24
92 64 32
108 72 36
92 64 32
72 56 24
72 56 24
72 56 24
72 56 24
108 72 36
116 76 40
72 56 24
84 60 28
144 92 52
40 32 12
84 60 28
144 92 52
116 76 40
108 72 36
92 64 32
84 60 28
144 92 52
40 32 12
84 60 28
144 92 52
72 56 24
72 56 24
72 56 24
72 56 24
72 56 24
84 60 28
144 92 52
40 32 12
84 60 28
144 92 52
72 56 24
72 56 24
116 76 40
84 60 28
72 56 24
72 56 24
72 56 24
72 56 24
72 56 24
84 60 28
84 60 28
144 92 52
40 32 12
84 60 28
144 92 52
116 76 40

108 72 36
92 64 32
72 56 24
72 56 24
72 56 24
84 60 28
108 72 36
84 60 28
144 92 52
40 32 12
84 60 28
144 92 52
72 56 24
72 56 24
72 56 24
72 56 24
92 64 32
72 56 24
72 56 24
72 56 24
72 56 24
108 72 36
116 76 40
116 76 40
92 64 32
84 60 28
144 92 52
40 32 12
84 60 28
144 92 52
108 72 36
92 64 32
72 56 24
84 60 28
144 92 52
40 32 12
84 60 28
144 92 52
72 56 24
72 56 24
72 56 24
72 56 24
72 56 24
84 60 28
144 92 52
40 32 12
84 60 28
144 92 52
92 64 32
72 56 24
116 76 40
92 64 32
72 56 24
72 56 24
72 56 24
72 56 24
72 56 24
72 56 24
84 60 28
144 92 52
40 32 12
84 60 28
144 92 52
116 76 40

92 64 32
92 64 32
92 64 32
92 64 32
92 64 32
92 64 32
92 64 32
84 60 28
144 92 52
40 32 12
84 60 28
144 92 52
92 64 32
72 56 24
72 56 24
72 56 24
72 56 24
72 56 24
72 56 24
72 56 24
92 64 32
92 64 32
92 64 32
92 64 32
92 64 32
84 60 28
144 92 52
40 32 12
84 60 28
144 92 52
92 64 32
72 56 24
72 56 24
84 60 28
144 92 52
40 32 12
84 60 28
144 92 52
92 64 32
72 56 24
72 56 24
72 56 24
92 64 32
84 60 28
144 92 52
40 32 12
84 60 28
144 92 52
92 64 32
72 56 24
92 64 32
92 64 32
72 56 24
72 56 24
72 56 24
72 56 24
72 56 24
72 56 24
84 60 28
144 92 52
40 32 12
84 60 28
144 92 52
92 64 32

