P3
# ASCII PPM file
64 64
255

56 56 56
56 56 56
56 56 56
56 56 56
56 56 56
56 56 56
56 56 56
56 56 56
56 56 56
56 56 56
56 56 56
56 56 56
56 56 56
56 56 56
56 56 56
56 56 56
56 56 56
56 56 56
56 56 56
56 56 56
56 56 56
56 56 56
56 56 56
56 56 56
56 56 56
56 56 56
56 56 56
56 56 56
56 56 56
56 56 56
56 56 56
56 56 56
56 56 56
56 56 56
56 56 56
56 56 56
56 56 56
56 56 56
56 56 56
56 56 56
56 56 56
56 56 56
56 56 56
56 56 56
56 56 56
56 56 56
56 56 56
56 56 56
56 56 56
56 56 56
56 56 56
56 56 56
56 56 56
56 56 56
56 56 56
56 56 56
56 56 56
56 56 56
56 56 56
56 56 56
56 56 56
56 56 56
56 56 56
56 56 56

56 56 56
0 112 112
0 120 120
0 120 120
0 120 120
0 120 120
0 120 120
0 120 120
0 120 120
0 120 120
0 120 120
0 120 120
0 120 120
0 120 120
0 120 120
0 120 120
0 120 120
0 120 120
0 120 120
0 120 120
0 120 120
0 120 120
0 120 120
0 120 120
0 120 120
0 120 120
0 120 120
0 120 120
0 120 120
0 0 0
0 0 0
0 0 0
0 0 0
0 0 0
0 0 0
0 112 112
0 120 120
0 120 120
0 120 120
0 120 120
0 120 120
0 120 120
0 120 120
0 120 120
0 120 120
0 120 120
0 116 116
0 116 116
0 116 116
0 112 112
0 112 112
0 112 112
0 108 108
0 108 108
0 108 108
0 112 112
0 112 112
0 116 116
0 116 116
0 120 120
0 120 120
0 120 120
0 120 120
56 56 56

56 56 56
0 112 112
0 140 140
0 152 152
0 132 132
116 200 200
0 140 140
0 140 140
0 140 140
0 140 140
0 140 140
0 140 140
0 140 140
0 140 140
0 140 140
0 140 140
0 140 140
0 140 140
0 140 140
0 140 140
0 140 140
0 140 140
0 140 140
0 140 140
0 152 152
0 132 132
116 200 200
0 132 132
0 120 120
0 0 0
0 0 0
0 0 0
0 0 0
0 0 0
0 0 0
0 112 112
0 124 124
0 112 112
0 88 88
32 180 180
0 132 132
0 132 132
0 124 124
0 124 124
0 124 124
0 124 124
0 124 124
0 120 120
0 120 120
0 116 116
0 120 120
0 116 116
0 116 116
0 116 116
0 120 120
0 120 120
0 120 120
0 132 132
0 112 112
0 112 112
32 180 180
0 132 132
0 120 120
56 56 56

56 56 56
0 112 112
0 132 132
0 124 124
0 64 64
0 132 132
32 176 176
32 176 176
32 176 176
32 176 176
32 176 176
32 176 176
32 176 176
32 180 180
32 180 180
32 180 180
32 180 180
32 180 180
116 200 200
116 200 200
116 200 200
72 192 192
72 192 192
0 152 152
0 124 124
0 64 64
0 132 132
32 176 176
0 120 120
0 0 0
0 0 0
0 0 0
0 0 0
0 0 0
0 0 0
0 112 112
0 124 124
0 112 112
0 64 64
0 88 88
0 132 132
0 132 132
0 124 124
0 124 124
0 124 124
0 124 124
0 120 120
0 124 124
0 116 116
0 116 116
0 116 116
0 116 116
0 116 116
0 120 120
0 120 120
0 124 124
0 124 124
0 116 116
0 112 112
0 64 64
0 112 112
0 152 152
0 120 120
56 56 56

56 56 56
0 112 112
0 132 132
0 120 120
0 124 124
0 120 120
32 176 176
32 176 176
32 176 176
32 176 176
32 180 180
32 180 180
32 180 180
32 180 180
32 180 180
32 180 180
72 192 192
116 200 200
116 200 200
116 200 200
72 192 192
72 192 192
72 192 192
0 152 152
0 120 120
0 124 124
0 120 120
32 180 180
0 124 124
0 0 0
0 0 0
0 0 0
0 0 0
0 0 0
0 0 0
0 112 112
0 124 124
0 112 112
0 112 112
0 112 112
0 132 132
0 124 124
0 132 132
0 124 124
0 124 124
0 124 124
0 124 124
0 116 116
0 120 120
0 116 116
0 116 116
0 112 112
0 116 116
0 116 116
0 124 124
0 120 120
0 124 124
0 116 116
0 112 112
0 112 112
0 112 112
0 152 152
0 124 124
56 56 56

56 56 56
0 112 112
0 132 132
0 152 152
0 152 152
0 164 164
32 176 176
32 176 176
32 180 180
32 180 180
32 180 180
32 180 180
32 180 180
32 180 180
72 192 192
116 200 200
116 200 200
116 200 200
116 200 200
72 192 192
72 192 192
72 192 192
72 192 192
0 152 152
0 152 152
0 152 152
0 164 164
32 180 180
0 124 124
0 0 0
0 0 0
0 0 0
0 0 0
0 0 0
0 0 0
0 112 112
0 120 120
0 120 120
0 120 120
0 120 120
0 124 124
0 132 132
0 124 124
0 124 124
0 124 124
0 124 124
0 120 120
0 120 120
0 116 116
0 116 116
0 112 112
0 116 116
0 116 116
0 120 120
0 120 120
0 124 124
0 124 124
0 116 116
0 116 116
0 124 124
0 124 124
0 152 152
0 124 124
56 56 56

56 56 56
0 112 112
0 132 132
32 176 176
32 176 176
32 180 180
32 180 180
32 180 180
0 132 132
0 112 112
0 112 112
0 88 88
0 88 88
0 88 88
0 88 88
0 64 64
0 64 64
0 64 64
0 64 64
0 64 64
0 64 64
0 64 64
32 180 180
32 180 180
32 180 180
32 180 180
32 180 180
32 180 180
0 124 124
0 0 0
0 0 0
0 0 0
0 0 0
0 0 0
0 0 0
0 112 112
0 120 120
0 132 132
0 132 132
0 124 124
0 132 132
0 124 124
0 112 112
0 88 88
0 88 88
0 64 64
0 64 64
0 64 64
0 64 64
0 64 64
0 64 64
0 64 64
0 64 64
0 64 64
0 64 64
0 64 64
0 132 132
0 132 132
0 132 132
0 140 140
0 152 152
0 164 164
0 124 124
56 56 56

56 56 56
0 112 112
0 132 132
32 180 180
32 180 180
32 180 180
32 180 180
32 180 180
156 220 220
0 156 156
0 156 156
0 132 132
0 132 132
0 132 132
0 112 112
0 112 112
0 112 112
0 112 112
0 88 88
0 88 88
0 88 88
0 64 64
32 180 180
32 180 180
32 176 176
32 180 180
32 180 180
32 176 176
0 132 132
0 0 0
0 0 0
0 0 0
0 0 0
0 0 0
0 0 0
0 112 112
0 120 120
0 132 132
0 124 124
0 132 132
0 124 124
0 124 124
0 112 112
0 112 112
0 88 88
0 88 88
0 88 88
0 88 88
0 88 88
0 88 88
0 88 88
0 88 88
0 88 88
0 88 88
0 88 88
0 64 64
0 132 132
0 132 132
0 140 140
0 140 140
0 152 152
0 164 164
0 132 132
56 56 56

56 56 56
0 112 112
0 132 132
32 180 180
32 180 180
32 180 180
32 180 180
32 180 180
156 220 220
156 220 220
72 192 192
116 200 200
116 200 200
116 200 200
116 200 200
72 192 192
72 192 192
72 192 192
72 192 192
32 180 180
0 88 88
0 64 64
32 180 180
32 176 176
32 180 180
32 176 176
32 176 176
32 176 176
0 132 132
0 0 0
0 0 0
0 0 0
0 0 0
0 0 0
0 0 0
0 112 112
0 120 120
0 124 124
0 132 132
0 124 124
0 124 124
0 124 124
0 120 120
0 112 112
0 120 120
0 116 116
0 116 116
0 112 112
0 116 116
0 112 112
0 116 116
0 116 116
0 124 124
0 120 120
0 88 88
0 64 64
0 132 132
0 132 132
0 140 140
0 152 152
0 152 152
0 152 152
0 132 132
56 56 56

56 56 56
0 112 112
0 132 132
32 180 180
32 180 180
32 180 180
72 192 192
72 192 192
216 244 244
184 232 232
116 200 200
116 200 200
156 220 220
116 200 200
72 192 192
72 192 192
72 192 192
32 180 180
32 180 180
32 180 180
0 88 88
0 64 64
32 176 176
32 180 180
32 176 176
32 176 176
32 176 176
0 164 164
0 132 132
0 0 0
0 0 0
0 0 0
0 0 0
0 0 0
0 0 0
0 112 112
0 120 120
0 132 132
0 124 124
0 124 124
0 124 124
0 124 124
0 120 120
0 112 112
0 116 116
0 116 116
0 112 112
0 116 116
0 112 112
0 116 116
0 116 116
0 120 120
0 120 120
0 124 124
0 88 88
0 64 64
0 132 132
0 140 140
0 140 140
0 152 152
0 164 164
0 164 164
0 132 132
56 56 56

56 56 56
0 112 112
0 132 132
32 180 180
72 192 192
72 192 192
72 192 192
72 192 192
216 244 244
184 232 232
156 220 220
156 220 220
116 200 200
72 192 192
72 192 192
72 192 192
32 180 180
32 180 180
32 180 180
32 176 176
0 88 88
0 64 64
32 176 176
32 176 176
32 176 176
32 176 176
0 164 164
0 164 164
0 132 132
0 0 0
0 0 0
0 0 0
0 0 0
0 0 0
0 0 0
0 112 112
0 120 120
0 124 124
0 124 124
0 124 124
0 124 124
0 120 120
0 124 124
0 116 116
0 116 116
0 116 116
0 116 116
0 112 112
0 116 116
0 116 116
0 120 120
0 120 120
0 124 124
0 124 124
0 88 88
0 64 64
0 132 132
0 140 140
0 140 140
0 152 152
0 164 164
0 164 164
0 132 132
56 56 56

56 56 56
0 112 112
0 132 132
72 192 192
72 192 192
72 192 192
116 200 200
116 200 200
216 244 244
184 232 232
116 200 200
116 200 200
72 192 192
72 192 192
72 192 192
32 180 180
32 180 180
32 180 180
32 176 176
32 180 180
0 88 88
0 64 64
32 176 176
32 176 176
32 176 176
0 164 164
0 164 164
0 164 164
0 132 132
0 0 0
0 0 0
0 0 0
0 0 0
0 0 0
0 0 0
0 112 112
0 120 120
0 124 124
0 124 124
0 124 124
0 120 120
0 124 124
0 124 124
0 120 120
0 116 116
0 116 116
0 112 112
0 112 112
0 116 116
0 120 120
0 120 120
0 124 124
0 124 124
0 124 124
0 88 88
0 64 64
0 140 140
0 140 140
0 152 152
0 152 152
0 152 152
0 164 164
0 132 132
56 56 56

56 56 56
0 112 112
0 132 132
72 192 192
116 200 200
116 200 200
156 220 220
156 220 220
216 244 244
184 232 232
72 192 192
72 192 192
72 192 192
32 180 180
32 180 180
32 180 180
32 180 180
32 176 176
32 180 180
32 176 176
0 88 88
0 64 64
32 176 176
0 164 164
0 164 164
0 164 164
0 164 164
0 152 152
0 132 132
0 0 0
0 0 0
0 0 0
0 0 0
0 0 0
0 0 0
0 112 112
0 120 120
0 124 124
0 124 124
0 120 120
0 124 124
0 120 120
0 124 124
0 120 120
0 116 116
0 112 112
0 112 112
0 112 112
0 116 116
0 116 116
0 120 120
0 120 120
0 124 124
0 124 124
0 88 88
0 64 64
0 140 140
0 140 140
0 152 152
0 152 152
0 164 164
0 164 164
0 132 132
56 56 56

56 56 56
0 112 112
0 132 132
116 200 200
184 232 232
156 220 220
156 220 220
116 200 200
216 244 244
184 232 232
72 192 192
72 192 192
32 180 180
32 180 180
32 180 180
32 180 180
32 176 176
32 180 180
32 176 176
32 176 176
0 88 88
0 64 64
0 164 164
0 164 164
0 164 164
0 152 152
0 152 152
0 152 152
0 124 124
0 0 0
0 0 0
0 0 0
0 0 0
0 0 0
0 0 0
0 112 112
0 120 120
0 124 124
0 120 120
0 124 124
0 120 120
0 120 120
0 124 124
0 120 120
0 112 112
0 112 112
0 112 112
0 116 116
0 116 116
0 120 120
0 120 120
0 124 124
0 124 124
0 124 124
0 88 88
0 64 64
0 140 140
0 152 152
0 152 152
0 164 164
0 152 152
0 164 164
0 140 140
56 56 56

56 56 56
0 112 112
0 132 132
184 232 232
156 220 220
156 220 220
116 200 200
116 200 200
216 244 244
184 232 232
72 192 192
32 180 180
32 180 180
32 180 180
32 180 180
32 176 176
32 180 180
32 176 176
32 176 176
32 176 176
0 88 88
0 64 64
0 164 164
0 152 152
0 152 152
0 152 152
0 152 152
0 140 140
0 124 124
0 0 0
0 0 0
0 0 0
0 0 0
0 0 0
0 0 0
0 112 112
0 120 120
0 124 124
0 124 124
0 120 120
0 120 120
0 116 116
0 124 124
0 120 120
0 116 116
0 112 112
0 116 116
0 116 116
0 120 120
0 120 120
0 124 124
0 124 124
0 124 124
0 132 132
0 88 88
0 64 64
0 140 140
0 152 152
0 152 152
0 152 152
0 164 164
0 164 164
0 140 140
56 56 56

56 56 56
0 112 112
0 132 132
156 220 220
116 200 200
116 200 200
116 200 200
72 192 192
216 244 244
184 232 232
32 180 180
32 180 180
32 180 180
32 180 180
32 176 176
32 176 176
32 176 176
32 176 176
32 176 176
32 176 176
0 88 88
0 64 64
0 152 152
0 164 164
0 152 152
0 152 152
0 140 140
0 140 140
0 124 124
0 0 0
0 0 0
0 0 0
0 0 0
0 0 0
0 0 0
0 112 112
0 120 120
0 124 124
0 120 120
0 120 120
0 116 116
0 116 116
0 124 124
0 120 120
0 112 112
0 116 116
0 116 116
0 120 120
0 120 120
0 124 124
0 120 120
0 124 124
0 124 124
0 132 132
0 88 88
0 64 64
0 140 140
0 152 152
0 152 152
0 164 164
0 164 164
0 164 164
0 140 140
56 56 56

56 56 56
0 112 112
0 132 132
116 200 200
116 200 200
72 192 192
72 192 192
72 192 192
216 244 244
184 232 232
32 180 180
32 176 176
32 180 180
32 176 176
32 176 176
32 176 176
32 176 176
32 176 176
0 164 164
0 164 164
0 88 88
0 64 64
0 164 164
0 152 152
0 140 140
0 140 140
0 140 140
0 140 140
0 124 124
0 0 0
0 0 0
0 0 0
0 0 0
0 0 0
0 0 0
0 112 112
0 120 120
0 120 120
0 120 120
0 116 116
0 116 116
0 112 112
0 124 124
0 120 120
0 112 112
0 116 116
0 116 116
0 116 116
0 120 120
0 120 120
0 124 124
0 124 124
0 132 132
0 132 132
0 88 88
0 64 64
0 152 152
0 152 152
0 164 164
0 152 152
0 164 164
0 164 164
0 140 140
56 56 56

56 56 56
0 112 112
0 132 132
116 200 200
72 192 192
72 192 192
72 192 192
32 180 180
216 244 244
156 220 220
32 176 176
32 180 180
32 176 176
32 176 176
32 176 176
32 176 176
32 176 176
0 164 164
0 164 164
0 152 152
0 88 88
0 64 64
0 152 152
0 140 140
0 152 152
0 140 140
0 140 140
0 140 140
0 124 124
0 0 0
0 0 0
0 0 0
0 0 0
0 0 0
0 0 0
0 112 112
0 120 120
0 124 124
0 120 120
0 120 120
0 116 116
0 116 116
0 124 124
0 120 120
0 112 112
0 116 116
0 116 116
0 120 120
0 120 120
0 124 124
0 124 124
0 124 124
0 132 132
0 132 132
0 88 88
0 64 64
0 152 152
0 152 152
0 152 152
0 164 164
0 164 164
32 176 176
0 140 140
56 56 56

56 56 56
0 112 112
0 132 132
72 192 192
72 192 192
32 180 180
32 180 180
32 176 176
216 244 244
156 220 220
32 180 180
32 176 176
32 176 176
32 176 176
32 176 176
32 176 176
0 164 164
0 164 164
0 152 152
0 164 164
0 88 88
0 64 64
0 140 140
0 152 152
0 140 140
0 140 140
0 140 140
0 132 132
0 124 124
0 0 0
0 0 0
0 0 0
0 0 0
0 0 0
0 0 0
0 112 112
0 124 124
0 120 120
0 120 120
0 116 116
0 116 116
0 112 112
0 124 124
0 124 124
0 116 116
0 120 120
0 120 120
0 120 120
0 124 124
0 124 124
0 124 124
0 132 132
0 132 132
0 132 132
0 88 88
0 64 64
0 152 152
0 152 152
0 164 164
0 164 164
0 164 164
32 176 176
0 140 140
56 56 56

56 56 56
0 112 112
0 132 132
72 192 192
32 180 180
32 180 180
32 176 176
32 180 180
216 244 244
156 220 220
32 176 176
32 176 176
32 176 176
32 176 176
0 164 164
0 164 164
0 164 164
0 152 152
0 164 164
0 152 152
0 88 88
0 64 64
0 152 152
0 140 140
0 140 140
0 140 140
0 132 132
0 132 132
0 120 120
0 0 0
0 0 0
0 0 0
0 0 0
0 0 0
0 0 0
0 108 108
0 120 120
0 120 120
0 116 116
0 116 116
0 112 112
0 116 116
0 124 124
0 124 124
0 116 116
0 120 120
0 120 120
0 124 124
0 120 120
0 124 124
0 124 124
0 132 132
0 132 132
0 140 140
0 88 88
0 64 64
0 152 152
0 164 164
0 164 164
0 164 164
0 164 164
32 176 176
0 140 140
56 56 56

56 56 56
0 112 112
0 132 132
32 180 180
32 180 180
32 180 180
32 180 180
32 176 176
216 244 244
156 220 220
32 176 176
32 176 176
32 176 176
0 164 164
0 164 164
0 164 164
0 152 152
0 164 164
0 152 152
0 152 152
0 88 88
0 64 64
0 140 140
0 140 140
0 140 140
0 132 132
0 132 132
0 132 132
0 120 120
0 0 0
0 0 0
0 0 0
0 0 0
0 0 0
0 0 0
0 108 108
0 120 120
0 116 116
0 116 116
0 112 112
0 116 116
0 112 112
0 124 124
0 124 124
0 120 120
0 116 116
0 120 120
0 120 120
0 124 124
0 124 124
0 132 132
0 132 132
0 140 140
0 132 132
0 88 88
0 64 64
0 164 164
0 152 152
0 164 164
0 164 164
32 176 176
32 176 176
0 140 140
56 56 56

56 56 56
0 112 112
0 132 132
32 180 180
32 176 176
32 180 180
32 180 180
32 176 176
216 244 244
156 220 220
32 176 176
32 176 176
0 164 164
0 164 164
0 164 164
0 152 152
0 164 164
0 152 152
0 152 152
0 152 152
0 88 88
0 64 64
0 140 140
0 140 140
0 132 132
0 132 132
0 132 132
0 132 132
0 120 120
0 0 0
0 0 0
0 0 0
0 0 0
0 0 0
0 0 0
0 108 108
0 116 116
0 116 116
0 112 112
0 116 116
0 112 112
0 112 112
0 124 124
0 124 124
0 116 116
0 120 120
0 120 120
0 124 124
0 120 120
0 124 124
0 132 132
0 132 132
0 132 132
0 140 140
0 88 88
0 64 64
0 152 152
0 164 164
0 164 164
0 164 164
32 176 176
32 176 176
0 140 140
56 56 56

56 56 56
0 112 112
0 132 132
32 176 176
32 180 180
32 180 180
32 176 176
32 176 176
216 244 244
156 220 220
32 176 176
0 164 164
0 164 164
0 164 164
0 152 152
0 164 164
0 152 152
0 152 152
0 152 152
0 140 140
0 88 88
0 64 64
0 140 140
0 132 132
0 132 132
0 132 132
0 132 132
0 132 132
0 120 120
0 0 0
0 0 0
0 0 0
0 0 0
0 0 0
0 0 0
0 108 108
0 116 116
0 112 112
0 116 116
0 112 112
0 112 112
0 112 112
0 132 132
0 132 132
0 120 120
0 120 120
0 124 124
0 120 120
0 124 124
0 124 124
0 132 132
0 132 132
0 140 140
0 140 140
0 88 88
0 64 64
0 164 164
0 164 164
0 164 164
0 164 164
32 176 176
32 180 180
0 140 140
56 56 56

56 56 56
0 112 112
0 132 132
32 180 180
32 176 176
32 176 176
32 176 176
32 176 176
216 244 244
156 220 220
0 164 164
0 164 164
0 164 164
0 152 152
0 164 164
0 152 152
0 152 152
0 152 152
0 140 140
0 140 140
0 88 88
0 64 64
0 132 132
0 140 140
0 132 132
0 132 132
0 132 132
0 132 132
0 120 120
0 0 0
0 0 0
0 0 0
0 0 0
0 0 0
0 0 0
0 108 108
0 112 112
0 116 116
0 112 112
0 112 112
0 112 112
0 116 116
0 132 132
0 132 132
0 120 120
0 124 124
0 120 120
0 124 124
0 124 124
0 132 132
0 132 132
0 140 140
0 132 132
0 152 152
0 88 88
0 64 64
0 152 152
0 164 164
0 164 164
0 164 164
32 176 176
32 180 180
0 140 140
56 56 56

56 56 56
0 112 112
0 132 132
32 176 176
32 176 176
32 176 176
32 176 176
32 176 176
216 244 244
156 220 220
0 164 164
0 164 164
0 152 152
0 152 152
0 152 152
0 152 152
0 152 152
0 140 140
0 152 152
0 140 140
0 88 88
0 64 64
0 140 140
0 132 132
0 132 132
0 132 132
0 132 132
0 124 124
0 116 116
0 0 0
0 0 0
0 0 0
0 0 0
0 0 0
0 0 0
0 108 108
0 116 116
0 112 112
0 112 112
0 112 112
0 116 116
0 116 116
0 140 140
0 132 132
0 120 120
0 120 120
0 124 124
0 124 124
0 124 124
0 132 132
0 140 140
0 132 132
0 140 140
0 140 140
0 88 88
0 64 64
0 164 164
0 164 164
0 164 164
32 176 176
32 180 180
32 176 176
0 140 140
56 56 56

56 56 56
0 112 112
0 132 132
32 176 176
32 176 176
32 176 176
32 176 176
0 164 164
216 244 244
156 220 220
0 164 164
0 152 152
0 152 152
0 152 152
0 152 152
0 152 152
0 140 140
0 152 152
0 140 140
0 140 140
0 88 88
0 64 64
0 132 132
0 132 132
0 132 132
0 132 132
0 124 124
0 124 124
0 116 116
0 0 0
0 0 0
0 0 0
0 0 0
0 0 0
0 0 0
0 108 108
0 112 112
0 116 116
0 112 112
0 112 112
0 112 112
0 116 116
0 140 140
0 132 132
0 120 120
0 124 124
0 120 120
0 124 124
0 132 132
0 132 132
0 132 132
0 140 140
0 140 140
0 152 152
0 88 88
0 64 64
0 164 164
0 164 164
0 164 164
32 176 176
32 180 180
72 192 192
0 140 140
56 56 56

56 56 56
0 112 112
0 132 132
32 176 176
32 176 176
0 164 164
0 164 164
0 164 164
216 244 244
156 220 220
0 152 152
0 164 164
0 152 152
0 152 152
0 152 152
0 140 140
0 152 152
0 140 140
0 140 140
0 140 140
0 88 88
0 64 64
0 132 132
0 132 132
0 132 132
0 124 124
0 124 124
0 124 124
0 116 116
0 0 0
0 0 0
0 0 0
0 0 0
0 0 0
0 0 0
0 108 108
0 108 108
0 112 112
0 112 112
0 112 112
0 116 116
0 120 120
0 140 140
0 132 132
0 124 124
0 120 120
0 124 124
0 124 124
0 132 132
0 132 132
0 140 140
0 140 140
0 152 152
0 140 140
0 112 112
0 64 64
0 164 164
0 164 164
0 164 164
32 176 176
32 180 180
72 192 192
0 140 140
56 56 56

56 56 56
0 112 112
0 132 132
32 176 176
0 164 164
0 164 164
0 164 164
0 164 164
216 244 244
156 220 220
0 164 164
0 152 152
0 152 152
0 152 152
0 140 140
0 152 152
0 140 140
0 140 140
0 140 140
0 140 140
0 88 88
0 64 64
0 132 132
0 132 132
0 124 124
0 124 124
0 124 124
0 124 124
0 116 116
0 0 0
0 0 0
0 0 0
0 0 0
0 0 0
0 0 0
0 108 108
0 108 108
0 112 112
0 112 112
0 116 116
0 116 116
0 120 120
0 140 140
0 132 132
0 120 120
0 124 124
0 124 124
0 132 132
0 132 132
0 140 140
0 132 132
0 140 140
0 140 140
0 152 152
0 112 112
0 64 64
0 164 164
0 164 164
32 176 176
32 176 176
32 180 180
72 192 192
0 140 140
56 56 56

56 56 56
0 112 112
0 132 132
0 164 164
0 164 164
0 164 164
0 164 164
0 164 164
216 244 244
156 220 220
0 152 152
0 152 152
0 152 152
0 140 140
0 152 152
0 140 140
0 140 140
0 140 140
0 140 140
0 132 132
0 88 88
0 64 64
0 132 132
0 124 124
0 132 132
0 124 124
0 124 124
0 124 124
0 116 116
0 0 0
0 0 0
0 0 0
0 0 0
0 0 0
0 0 0
0 108 108
0 108 108
0 112 112
0 116 116
0 116 116
0 120 120
0 116 116
0 152 152
0 132 132
0 124 124
0 124 124
0 124 124
0 132 132
0 132 132
0 132 132
0 140 140
0 140 140
0 152 152
0 152 152
0 112 112
0 64 64
0 164 164
0 164 164
32 176 176
32 180 180
72 192 192
72 192 192
0 140 140
56 56 56

56 56 56
0 112 112
0 132 132
0 164 164
0 164 164
0 164 164
0 164 164
0 152 152
216 244 244
156 220 220
0 152 152
0 152 152
0 140 140
0 152 152
0 140 140
0 140 140
0 140 140
0 140 140
0 132 132
0 132 132
0 88 88
0 64 64
0 124 124
0 132 132
0 124 124
0 124 124
0 124 124
0 124 124
0 116 116
0 0 0
0 0 0
0 0 0
0 0 0
0 0 0
0 0 0
0 108 108
0 108 108
0 116 116
0 116 116
0 116 116
0 116 116
0 120 120
0 152 152
0 132 132
0 120 120
0 124 124
0 132 132
0 132 132
0 132 132
0 140 140
0 140 140
0 152 152
0 152 152
0 164 164
0 112 112
0 64 64
0 164 164
0 164 164
32 176 176
32 180 180
72 192 192
72 192 192
0 140 140
56 56 56

56 56 56
0 112 112
0 132 132
0 152 152
0 112 112
184 232 232
0 152 152
0 164 164
216 244 244
156 220 220
0 152 152
0 140 140
0 152 152
0 140 140
0 140 140
0 140 140
0 140 140
0 132 132
0 132 132
0 132 132
0 88 88
0 64 64
0 132 132
0 124 124
0 116 116
0 88 88
0 164 164
0 120 120
0 112 112
0 0 0
0 0 0
0 0 0
0 0 0
0 0 0
0 0 0
0 108 108
0 108 108
0 108 108
0 88 88
0 140 140
0 120 120
0 120 120
0 152 152
0 140 140
0 124 124
0 124 124
0 132 132
0 132 132
0 140 140
0 140 140
0 152 152
0 140 140
0 152 152
0 152 152
0 112 112
0 64 64
0 164 164
32 176 176
0 152 152
32 180 180
216 244 244
72 192 192
0 140 140
56 56 56

56 56 56
0 112 112
0 132 132
0 124 124
0 64 64
0 112 112
0 164 164
0 152 152
216 244 244
156 220 220
0 140 140
0 152 152
0 152 152
0 140 140
0 140 140
0 140 140
0 132 132
0 132 132
0 132 132
0 132 132
0 88 88
0 64 64
0 124 124
0 116 116
0 108 108
0 64 64
0 88 88
0 120 120
0 112 112
0 0 0
0 0 0
0 0 0
0 0 0
0 0 0
0 0 0
0 108 108
0 108 108
0 108 108
0 64 64
0 88 88
0 120 120
0 124 124
0 152 152
0 140 140
0 124 124
0 132 132
0 132 132
0 140 140
0 132 132
0 140 140
0 140 140
0 152 152
0 152 152
0 164 164
0 112 112
0 64 64
0 164 164
0 152 152
0 124 124
0 112 112
32 180 180
72 192 192
0 140 140
56 56 56

56 56 56
0 112 112
0 132 132
0 120 120
0 124 124
0 120 120
0 152 152
0 152 152
216 244 244
156 220 220
0 152 152
0 152 152
0 140 140
0 140 140
0 140 140
0 132 132
0 140 140
0 132 132
0 132 132
0 132 132
0 88 88
0 64 64
0 124 124
0 116 116
0 108 108
0 108 108
0 108 108
0 120 120
0 112 112
0 0 0
0 0 0
0 0 0
0 0 0
0 0 0
0 0 0
0 108 108
0 112 112
0 108 108
0 108 108
0 112 112
0 120 120
0 120 120
0 164 164
0 140 140
0 124 124
0 132 132
0 132 132
0 132 132
0 140 140
0 140 140
0 152 152
0 152 152
0 164 164
0 152 152
0 112 112
0 64 64
0 164 164
0 152 152
0 120 120
0 124 124
0 140 140
116 200 200
0 140 140
56 56 56

56 56 56
0 112 112
0 132 132
0 152 152
0 152 152
0 164 164
0 152 152
0 152 152
216 244 244
156 220 220
0 152 152
0 140 140
0 140 140
0 140 140
0 132 132
0 140 140
0 132 132
0 132 132
0 132 132
0 132 132
0 88 88
0 64 64
0 124 124
0 116 116
0 116 116
0 116 116
0 116 116
0 120 120
0 112 112
0 0 0
0 0 0
0 0 0
0 0 0
0 0 0
0 0 0
0 108 108
0 112 112
0 112 112
0 112 112
0 112 112
0 120 120
0 124 124
0 164 164
0 140 140
0 132 132
0 132 132
0 132 132
0 140 140
0 140 140
0 152 152
0 140 140
0 152 152
0 152 152
0 164 164
0 112 112
0 64 64
0 164 164
0 152 152
0 152 152
0 152 152
72 192 192
116 200 200
0 140 140
56 56 56

56 56 56
0 112 112
0 132 132
0 164 164
0 152 152
0 152 152
0 152 152
0 140 140
216 244 244
156 220 220
0 140 140
0 140 140
0 140 140
0 132 132
0 140 140
0 132 132
0 132 132
0 132 132
0 132 132
0 124 124
0 88 88
0 64 64
0 124 124
0 124 124
0 124 124
0 120 120
0 120 120
0 116 116
0 112 112
0 0 0
0 0 0
0 0 0
0 0 0
0 0 0
0 0 0
0 108 108
0 116 116
0 120 120
0 120 120
0 120 120
0 124 124
0 124 124
0 164 164
0 152 152
0 132 132
0 132 132
0 140 140
0 140 140
0 140 140
0 140 140
0 152 152
0 152 152
0 164 164
0 152 152
0 112 112
0 64 64
32 176 176
32 176 176
32 180 180
72 192 192
116 200 200
116 200 200
0 140 140
56 56 56

56 56 56
0 112 112
0 132 132
0 152 152
0 152 152
0 152 152
0 140 140
0 152 152
216 244 244
156 220 220
0 140 140
0 140 140
0 132 132
0 140 140
0 132 132
0 132 132
0 132 132
0 132 132
0 124 124
0 124 124
0 88 88
0 64 64
0 124 124
0 124 124
0 120 120
0 120 120
0 116 116
0 116 116
0 112 112
0 0 0
0 0 0
0 0 0
0 0 0
0 0 0
0 0 0
0 108 108
0 116 116
0 120 120
0 120 120
0 124 124
0 120 120
0 124 124
0 164 164
0 152 152
0 132 132
0 140 140
0 132 132
0 140 140
0 152 152
0 152 152
0 152 152
0 164 164
0 152 152
0 164 164
0 112 112
0 64 64
32 176 176
32 180 180
72 192 192
72 192 192
116 200 200
116 200 200
0 140 140
56 56 56

56 56 56
0 112 112
0 132 132
0 152 152
0 152 152
0 140 140
0 152 152
0 140 140
216 244 244
156 220 220
0 140 140
0 132 132
0 140 140
0 132 132
0 132 132
0 132 132
0 132 132
0 124 124
0 124 124
0 124 124
0 88 88
0 64 64
0 124 124
0 120 120
0 120 120
0 116 116
0 120 120
0 116 116
0 108 108
0 0 0
0 0 0
0 0 0
0 0 0
0 0 0
0 0 0
0 108 108
0 116 116
0 116 116
0 120 120
0 120 120
0 124 124
0 132 132
32 176 176
0 152 152
0 132 132
0 132 132
0 140 140
0 140 140
0 152 152
0 140 140
0 152 152
0 152 152
0 164 164
0 164 164
0 112 112
0 64 64
32 176 176
32 180 180
72 192 192
116 200 200
0 204 204
116 200 200
0 140 140
56 56 56

56 56 56
0 112 112
0 132 132
0 152 152
0 140 140
0 152 152
0 140 140
0 140 140
216 244 244
156 220 220
0 132 132
0 140 140
0 132 132
0 132 132
0 132 132
0 132 132
0 124 124
0 132 132
0 124 124
0 124 124
0 88 88
0 64 64
0 120 120
0 120 120
0 120 120
0 120 120
0 116 116
0 116 116
0 108 108
0 0 0
0 0 0
0 0 0
0 0 0
0 0 0
0 0 0
0 108 108
0 116 116
0 120 120
0 120 120
0 124 124
0 120 120
0 124 124
32 176 176
0 164 164
0 132 132
0 140 140
0 140 140
0 140 140
0 140 140
0 152 152
0 152 152
0 164 164
0 152 152
0 164 164
0 112 112
0 64 64
32 176 176
32 180 180
72 192 192
116 200 200
116 200 200
116 200 200
0 140 140
56 56 56

56 56 56
0 112 112
0 132 132
0 140 140
0 152 152
0 140 140
0 152 152
0 140 140
156 220 220
156 220 220
0 140 140
0 132 132
0 132 132
0 132 132
0 132 132
0 124 124
0 132 132
0 124 124
0 124 124
0 124 124
0 88 88
0 64 64
0 120 120
0 120 120
0 120 120
0 116 116
0 116 116
0 112 112
0 108 108
0 0 0
0 0 0
0 0 0
0 0 0
0 0 0
0 0 0
0 108 108
0 120 120
0 120 120
0 124 124
0 124 124
0 124 124
0 124 124
32 176 176
0 164 164
0 140 140
0 140 140
0 140 140
0 140 140
0 152 152
0 152 152
0 164 164
0 152 152
0 164 164
0 164 164
0 112 112
0 64 64
32 180 180
32 180 180
72 192 192
116 200 200
116 200 200
72 192 192
0 140 140
56 56 56

56 56 56
0 112 112
0 132 132
0 152 152
0 140 140
0 152 152
0 140 140
0 140 140
156 220 220
116 200 200
0 132 132
0 132 132
0 132 132
0 132 132
0 124 124
0 132 132
0 124 124
0 124 124
0 124 124
0 124 124
0 88 88
0 64 64
0 120 120
0 120 120
0 116 116
0 116 116
0 112 112
0 116 116
0 108 108
0 0 0
0 0 0
0 0 0
0 0 0
0 0 0
0 0 0
0 108 108
0 120 120
0 124 124
0 120 120
0 124 124
0 124 124
0 124 124
32 180 180
0 164 164
0 132 132
0 140 140
0 140 140
0 152 152
0 152 152
0 152 152
0 152 152
0 164 164
0 164 164
0 164 164
0 112 112
0 64 64
32 180 180
72 192 192
72 192 192
116 200 200
116 200 200
72 192 192
0 140 140
56 56 56

56 56 56
0 112 112
0 132 132
0 140 140
0 152 152
0 140 140
0 140 140
0 140 140
156 220 220
116 200 200
0 132 132
0 132 132
0 132 132
0 124 124
0 132 132
0 124 124
0 124 124
0 124 124
0 124 124
0 120 120
0 88 88
0 64 64
0 120 120
0 116 116
0 116 116
0 116 116
0 116 116
0 112 112
0 108 108
0 0 0
0 0 0
0 0 0
0 0 0
0 0 0
0 0 0
0 108 108
0 120 120
0 120 120
0 124 124
0 124 124
0 124 124
0 132 132
32 180 180
0 164 164
0 140 140
0 140 140
0 152 152
0 140 140
0 152 152
0 152 152
0 164 164
0 152 152
0 164 164
0 164 164
0 112 112
0 64 64
32 180 180
72 192 192
72 192 192
116 200 200
116 200 200
72 192 192
0 140 140
56 56 56

56 56 56
0 112 112
0 132 132
0 152 152
0 140 140
0 140 140
0 140 140
0 140 140
156 220 220
116 200 200
0 132 132
0 132 132
0 132 132
0 132 132
0 124 124
0 124 124
0 124 124
0 124 124
0 120 120
0 124 124
0 88 88
0 64 64
0 116 116
0 116 116
0 116 116
0 116 116
0 112 112
0 116 116
0 108 108
0 0 0
0 0 0
0 0 0
0 0 0
0 0 0
0 0 0
0 108 108
0 120 120
0 124 124
0 124 124
0 124 124
0 124 124
0 132 132
32 180 180
0 164 164
0 140 140
0 140 140
0 140 140
0 152 152
0 152 152
0 164 164
0 152 152
0 164 164
0 152 152
0 164 164
0 112 112
0 64 64
32 180 180
72 192 192
116 200 200
116 200 200
116 200 200
72 192 192
0 140 140
56 56 56

56 56 56
0 112 112
0 132 132
0 140 140
0 140 140
0 140 140
0 140 140
0 132 132
72 192 192
116 200 200
0 132 132
0 132 132
0 132 132
0 124 124
0 124 124
0 124 124
0 124 124
0 120 120
0 124 124
0 120 120
0 88 88
0 64 64
0 120 120
0 116 116
0 116 116
0 112 112
0 116 116
0 112 112
0 108 108
0 0 0
0 0 0
0 0 0
0 0 0
0 0 0
0 0 0
0 108 108
0 120 120
0 124 124
0 124 124
0 124 124
0 132 132
0 124 124
32 180 180
0 164 164
0 140 140
0 140 140
0 152 152
0 152 152
0 152 152
0 152 152
0 164 164
0 152 152
0 164 164
0 164 164
0 112 112
0 64 64
72 192 192
72 192 192
116 200 200
116 200 200
116 200 200
72 192 192
0 140 140
56 56 56

56 56 56
0 112 112
0 132 132
0 140 140
0 140 140
0 140 140
0 132 132
0 140 140
72 192 192
72 192 192
0 132 132
0 132 132
0 124 124
0 124 124
0 124 124
0 124 124
0 120 120
0 124 124
0 120 120
0 120 120
0 88 88
0 64 64
0 116 116
0 116 116
0 112 112
0 116 116
0 112 112
0 112 112
0 108 108
0 0 0
0 0 0
0 0 0
0 0 0
0 0 0
0 0 0
0 108 108
0 120 120
0 124 124
0 124 124
0 124 124
0 124 124
0 132 132
72 192 192
0 164 164
0 140 140
0 152 152
0 140 140
0 152 152
0 152 152
0 164 164
0 152 152
0 164 164
0 164 164
32 176 176
0 132 132
0 64 64
72 192 192
72 192 192
116 200 200
116 200 200
116 200 200
72 192 192
0 140 140
56 56 56

56 56 56
0 112 112
0 132 132
0 140 140
0 140 140
0 132 132
0 140 140
0 132 132
72 192 192
72 192 192
0 132 132
0 124 124
0 124 124
0 124 124
0 124 124
0 124 124
0 124 124
0 120 120
0 120 120
0 120 120
0 88 88
0 64 64
0 116 116
0 112 112
0 116 116
0 112 112
0 112 112
0 112 112
0 108 108
0 0 0
0 0 0
0 0 0
0 0 0
0 0 0
0 0 0
0 108 108
0 120 120
0 124 124
0 124 124
0 124 124
0 132 132
0 124 124
116 200 200
32 176 176
0 140 140
0 140 140
0 152 152
0 152 152
0 164 164
0 152 152
0 164 164
0 164 164
0 164 164
32 176 176
0 132 132
0 64 64
72 192 192
72 192 192
116 200 200
116 200 200
116 200 200
72 192 192
0 140 140
56 56 56

56 56 56
0 112 112
0 132 132
0 140 140
0 132 132
0 140 140
0 132 132
0 132 132
32 180 180
32 180 180
0 124 124
0 132 132
0 124 124
0 124 124
0 124 124
0 124 124
0 120 120
0 120 120
0 120 120
0 120 120
0 88 88
0 64 64
0 112 112
0 116 116
0 112 112
0 112 112
0 112 112
0 112 112
0 108 108
0 0 0
0 0 0
0 0 0
0 0 0
0 0 0
0 0 0
0 112 112
0 120 120
0 124 124
0 124 124
0 132 132
0 124 124
0 132 132
116 200 200
32 176 176
0 140 140
0 152 152
0 152 152
0 152 152
0 152 152
0 164 164
0 152 152
0 164 164
0 164 164
32 176 176
0 132 132
0 64 64
72 192 192
116 200 200
116 200 200
116 200 200
116 200 200
72 192 192
0 140 140
56 56 56

56 56 56
0 112 112
0 132 132
0 132 132
0 140 140
0 132 132
0 132 132
0 132 132
32 180 180
32 180 180
0 132 132
0 124 124
0 124 124
0 124 124
0 124 124
0 120 120
0 120 120
0 120 120
0 120 120
0 116 116
0 88 88
0 64 64
0 116 116
0 112 112
0 112 112
0 112 112
0 112 112
0 112 112
0 108 108
0 0 0
0 0 0
0 0 0
0 0 0
0 0 0
0 0 0
0 112 112
0 120 120
0 124 124
0 132 132
0 124 124
0 132 132
0 132 132
116 200 200
32 180 180
0 152 152
0 152 152
0 152 152
0 152 152
0 164 164
0 152 152
0 164 164
0 164 164
0 164 164
32 176 176
0 132 132
0 64 64
72 192 192
116 200 200
116 200 200
116 200 200
72 192 192
72 192 192
0 140 140
56 56 56

56 56 56
0 112 112
0 132 132
0 140 140
0 132 132
0 132 132
0 132 132
0 132 132
32 180 180
32 176 176
0 124 124
0 124 124
0 124 124
0 124 124
0 120 120
0 120 120
0 120 120
0 120 120
0 116 116
0 116 116
0 88 88
0 64 64
0 112 112
0 112 112
0 112 112
0 112 112
0 112 112
0 116 116
0 108 108
0 0 0
0 0 0
0 0 0
0 0 0
0 0 0
0 0 0
0 112 112
0 120 120
0 124 124
0 124 124
0 132 132
0 124 124
0 132 132
116 200 200
32 180 180
0 140 140
0 152 152
0 152 152
0 164 164
0 152 152
0 164 164
0 164 164
0 164 164
32 176 176
32 176 176
0 132 132
0 64 64
72 192 192
116 200 200
116 200 200
116 200 200
72 192 192
72 192 192
0 140 140
56 56 56

56 56 56
0 112 112
0 132 132
0 132 132
0 132 132
0 132 132
0 132 132
0 132 132
32 176 176
32 176 176
0 124 124
0 124 124
0 124 124
0 120 120
0 124 124
0 120 120
0 120 120
0 116 116
0 120 120
0 116 116
0 88 88
0 64 64
0 116 116
0 112 112
0 112 112
0 112 112
0 116 116
0 112 112
0 112 112
0 0 0
0 0 0
0 0 0
0 0 0
0 0 0
0 0 0
0 112 112
0 120 120
0 124 124
0 132 132
0 124 124
0 132 132
0 140 140
156 220 220
72 192 192
0 152 152
0 152 152
0 152 152
0 152 152
0 164 164
0 152 152
0 164 164
0 164 164
32 176 176
32 176 176
0 132 132
0 64 64
72 192 192
116 200 200
116 200 200
116 200 200
72 192 192
32 180 180
0 140 140
56 56 56

56 56 56
0 112 112
0 132 132
0 132 132
0 132 132
0 132 132
0 132 132
0 132 132
32 176 176
0 164 164
0 124 124
0 124 124
0 120 120
0 124 124
0 120 120
0 120 120
0 116 116
0 120 120
0 116 116
0 116 116
0 88 88
0 64 64
0 112 112
0 112 112
0 112 112
0 112 112
0 112 112
0 116 116
0 112 112
0 0 0
0 0 0
0 0 0
0 0 0
0 0 0
0 0 0
0 112 112
0 120 120
0 132 132
0 124 124
0 132 132
0 132 132
0 140 140
156 220 220
72 192 192
0 152 152
0 152 152
0 152 152
0 164 164
0 152 152
0 164 164
0 164 164
0 164 164
32 176 176
32 180 180
0 132 132
0 64 64
116 200 200
116 200 200
116 200 200
116 200 200
72 192 192
32 180 180
0 140 140
56 56 56

56 56 56
0 112 112
0 132 132
0 132 132
0 132 132
0 132 132
0 132 132
0 124 124
32 176 176
0 164 164
0 124 124
0 120 120
0 124 124
0 120 120
0 120 120
0 120 120
0 120 120
0 116 116
0 116 116
0 112 112
0 88 88
0 64 64
0 112 112
0 112 112
0 112 112
0 112 112
0 116 116
0 116 116
0 112 112
0 0 0
0 0 0
0 0 0
0 0 0
0 0 0
0 0 0
0 112 112
0 120 120
0 124 124
0 132 132
0 124 124
0 140 140
0 140 140
156 220 220
72 192 192
0 152 152
0 152 152
0 164 164
0 152 152
0 164 164
0 164 164
0 164 164
32 176 176
32 176 176
32 180 180
0 132 132
0 64 64
116 200 200
116 200 200
116 200 200
116 200 200
72 192 192
32 180 180
0 140 140
56 56 56

56 56 56
0 112 112
0 132 132
0 132 132
0 132 132
0 132 132
0 124 124
0 132 132
0 164 164
0 164 164
0 124 124
0 124 124
0 120 120
0 120 120
0 120 120
0 120 120
0 116 116
0 116 116
0 116 116
0 116 116
0 88 88
0 64 64
0 112 112
0 112 112
0 112 112
0 116 116
0 116 116
0 116 116
0 112 112
0 0 0
0 0 0
0 0 0
0 0 0
0 0 0
0 0 0
0 112 112
0 120 120
0 132 132
0 124 124
0 132 132
0 140 140
0 140 140
156 220 220
72 192 192
0 152 152
0 164 164
0 152 152
0 164 164
0 152 152
0 164 164
0 164 164
32 176 176
32 176 176
32 180 180
0 156 156
0 88 88
116 200 200
116 200 200
116 200 200
116 200 200
72 192 192
32 180 180
0 140 140
56 56 56

56 56 56
0 112 112
0 132 132
0 132 132
0 132 132
0 124 124
0 132 132
0 124 124
0 164 164
0 152 152
0 124 124
0 120 120
0 120 120
0 120 120
0 120 120
0 116 116
0 116 116
0 116 116
0 116 116
0 112 112
0 88 88
0 64 64
0 112 112
0 112 112
0 116 116
0 112 112
0 116 116
0 116 116
0 112 112
0 0 0
0 0 0
0 0 0
0 0 0
0 0 0
0 0 0
0 112 112
0 124 124
0 124 124
0 132 132
0 132 132
0 140 140
0 140 140
216 244 244
116 200 200
0 152 152
0 152 152
0 164 164
0 152 152
0 164 164
0 164 164
0 164 164
32 176 176
32 176 176
32 180 180
0 156 156
0 88 88
116 200 200
116 200 200
116 200 200
116 200 200
72 192 192
32 180 180
0 140 140
56 56 56

56 56 56
0 112 112
0 132 132
0 132 132
0 124 124
0 132 132
0 124 124
0 124 124
0 152 152
0 152 152
0 120 120
0 120 120
0 120 120
0 120 120
0 116 116
0 116 116
0 116 116
0 116 116
0 112 112
0 112 112
0 88 88
0 64 64
0 112 112
0 112 112
0 112 112
0 116 116
0 116 116
0 120 120
0 112 112
0 0 0
0 0 0
0 0 0
0 0 0
0 0 0
0 0 0
0 112 112
0 124 124
0 132 132
0 132 132
0 140 140
0 140 140
0 152 152
216 244 244
116 200 200
0 152 152
0 164 164
0 152 152
0 164 164
0 164 164
0 164 164
32 176 176
32 176 176
32 180 180
72 192 192
0 156 156
0 88 88
116 200 200
116 200 200
116 200 200
72 192 192
72 192 192
32 180 180
0 140 140
56 56 56

56 56 56
0 112 112
0 132 132
0 124 124
0 132 132
0 124 124
0 124 124
0 124 124
0 152 152
0 152 152
0 124 124
0 120 120
0 120 120
0 116 116
0 120 120
0 116 116
0 116 116
0 112 112
0 116 116
0 112 112
0 88 88
0 64 64
0 112 112
0 112 112
0 116 116
0 116 116
0 116 116
0 120 120
0 112 112
0 0 0
0 0 0
0 0 0
0 0 0
0 0 0
0 0 0
0 112 112
0 124 124
0 132 132
0 132 132
0 140 140
0 140 140
0 152 152
216 244 244
116 200 200
0 164 164
0 152 152
0 164 164
0 164 164
0 164 164
0 164 164
32 176 176
32 176 176
32 180 180
72 192 192
0 156 156
0 132 132
116 200 200
116 200 200
116 200 200
72 192 192
72 192 192
32 180 180
0 140 140
56 56 56

56 56 56
0 112 112
0 132 132
0 132 132
0 124 124
0 124 124
0 124 124
0 124 124
0 152 152
0 140 140
0 120 120
0 120 120
0 116 116
0 120 120
0 116 116
0 116 116
0 112 112
0 116 116
0 112 112
0 112 112
0 88 88
0 64 64
0 112 112
0 116 116
0 112 112
0 116 116
0 120 120
0 120 120
0 112 112
0 0 0
0 0 0
0 0 0
0 0 0
0 0 0
0 0 0
0 112 112
0 124 124
0 132 132
0 140 140
0 140 140
0 152 152
0 152 152
216 244 244
156 220 220
0 152 152
0 164 164
0 152 152
0 164 164
0 164 164
0 164 164
32 176 176
32 176 176
32 180 180
72 192 192
0 156 156
0 132 132
116 200 200
116 200 200
116 200 200
72 192 192
72 192 192
32 180 180
0 140 140
56 56 56

56 56 56
0 112 112
0 132 132
0 124 124
0 124 124
0 124 124
0 124 124
0 120 120
0 140 140
0 140 140
0 120 120
0 116 116
0 120 120
0 116 116
0 116 116
0 112 112
0 116 116
0 112 112
0 112 112
0 112 112
0 88 88
0 88 88
0 116 116
0 112 112
0 116 116
0 116 116
0 120 120
0 116 116
0 116 116
0 0 0
0 0 0
0 0 0
0 0 0
0 0 0
0 0 0
0 112 112
0 124 124
0 132 132
0 140 140
0 140 140
0 152 152
0 152 152
216 244 244
156 220 220
0 164 164
0 152 152
0 164 164
0 164 164
0 164 164
0 164 164
32 176 176
32 180 180
72 192 192
116 200 200
0 164 164
32 176 176
116 200 200
116 200 200
116 200 200
72 192 192
32 180 180
32 180 180
0 140 140
56 56 56

56 56 56
0 112 112
0 132 132
0 124 124
0 124 124
0 124 124
0 120 120
0 124 124
0 140 140
0 140 140
0 140 140
0 140 140
0 132 132
0 132 132
0 124 124
0 124 124
0 124 124
0 120 120
0 120 120
0 120 120
0 116 116
0 88 88
0 112 112
0 116 116
0 116 116
0 120 120
0 116 116
0 120 120
0 116 116
0 0 0
0 0 0
0 0 0
0 0 0
0 0 0
0 0 0
0 112 112
0 124 124
0 140 140
0 140 140
0 140 140
0 152 152
0 152 152
216 244 244
156 220 220
156 220 220
156 220 220
156 220 220
156 220 220
184 232 232
184 232 232
184 232 232
184 232 232
184 232 232
184 232 232
32 180 180
116 200 200
116 200 200
116 200 200
116 200 200
72 192 192
32 180 180
32 180 180
0 140 140
56 56 56

56 56 56
0 112 112
0 132 132
0 108 108
0 88 88
0 152 152
0 124 124
0 124 124
0 140 140
0 140 140
0 132 132
0 132 132
0 132 132
0 124 124
0 124 124
0 124 124
0 120 120
0 120 120
0 120 120
0 120 120
0 120 120
0 108 108
0 116 116
0 116 116
0 108 108
0 88 88
0 152 152
0 120 120
0 116 116
0 0 0
0 0 0
0 0 0
0 0 0
0 0 0
0 0 0
0 112 112
0 124 124
0 152 152
0 112 112
32 180 180
0 152 152
0 152 152
216 244 244
216 244 244
216 244 244
216 244 244
216 244 244
216 244 244
216 244 244
216 244 244
216 244 244
216 244 244
216 244 244
216 244 244
216 244 244
216 244 244
116 200 200
116 200 200
32 180 180
0 112 112
184 232 232
32 180 180
0 140 140
56 56 56

56 56 56
0 112 112
0 120 120
0 108 108
0 64 64
0 88 88
0 124 124
0 120 120
0 120 120
0 120 120
0 116 116
0 116 116
0 116 116
0 116 116
0 112 112
0 112 112
0 112 112
0 112 112
0 112 112
0 112 112
0 116 116
0 116 116
0 116 116
0 112 112
0 108 108
0 64 64
0 88 88
0 124 124
0 116 116
0 0 0
0 0 0
0 0 0
0 0 0
0 0 0
0 0 0
0 112 112
0 124 124
0 124 124
0 64 64
0 112 112
0 152 152
0 152 152
0 152 152
0 164 164
0 164 164
0 164 164
0 164 164
0 164 164
0 164 164
32 176 176
32 176 176
32 180 180
72 192 192
72 192 192
116 200 200
116 200 200
116 200 200
116 200 200
0 140 140
0 64 64
0 112 112
32 180 180
0 140 140
56 56 56

56 56 56
0 112 112
0 116 116
0 108 108
0 108 108
0 108 108
0 120 120
0 120 120
0 120 120
0 116 116
0 120 120
0 116 116
0 116 116
0 112 112
0 116 116
0 112 112
0 112 112
0 112 112
0 112 112
0 112 112
0 116 116
0 112 112
0 116 116
0 112 112
0 108 108
0 108 108
0 108 108
0 124 124
0 116 116
0 0 0
0 0 0
0 0 0
0 0 0
0 0 0
0 0 0
0 112 112
0 124 124
0 120 120
0 124 124
0 120 120
0 152 152
0 152 152
0 164 164
0 164 164
0 164 164
0 164 164
0 164 164
0 164 164
32 176 176
32 176 176
32 180 180
72 192 192
72 192 192
116 200 200
116 200 200
116 200 200
116 200 200
72 192 192
0 140 140
0 124 124
0 120 120
32 180 180
0 140 140
56 56 56

56 56 56
0 112 112
0 116 116
0 116 116
0 116 116
0 116 116
0 120 120
0 120 120
0 116 116
0 120 120
0 116 116
0 116 116
0 112 112
0 116 116
0 112 112
0 112 112
0 112 112
0 112 112
0 112 112
0 116 116
0 112 112
0 116 116
0 116 116
0 112 112
0 112 112
0 112 112
0 112 112
0 124 124
0 116 116
0 0 0
0 0 0
0 0 0
0 0 0
0 0 0
0 0 0
0 112 112
0 124 124
0 152 152
0 152 152
0 164 164
0 152 152
0 152 152
0 164 164
0 164 164
0 164 164
0 164 164
0 164 164
0 164 164
32 176 176
32 180 180
32 180 180
72 192 192
72 192 192
116 200 200
116 200 200
116 200 200
116 200 200
32 180 180
0 152 152
0 152 152
0 164 164
32 180 180
0 140 140
56 56 56

72 72 72
0 112 112
0 112 112
0 112 112
0 112 112
0 112 112
0 112 112
0 112 112
0 108 108
0 108 108
0 108 108
0 108 108
0 108 108
0 108 108
0 108 108
0 108 108
0 108 108
0 108 108
0 108 108
0 108 108
0 112 112
0 112 112
0 112 112
0 112 112
0 112 112
0 112 112
0 112 112
0 112 112
0 120 120
0 0 0
0 0 0
0 0 0
0 0 0
0 0 0
0 0 0
0 112 112
0 112 112
0 112 112
0 112 112
0 112 112
0 112 112
0 112 112
0 112 112
0 112 112
0 112 112
0 112 112
0 112 112
0 112 112
0 112 112
0 112 112
0 112 112
0 112 112
0 112 112
0 112 112
0 112 112
0 112 112
0 112 112
0 112 112
0 112 112
0 112 112
0 112 112
0 112 112
0 120 120
72 72 72

84 84 84
84 84 84
84 84 84
84 84 84
84 84 84
84 84 84
84 84 84
84 84 84
84 84 84
84 84 84
84 84 84
84 84 84
84 84 84
84 84 84
84 84 84
84 84 84
84 84 84
84 84 84
84 84 84
84 84 84
84 84 84
84 84 84
84 84 84
84 84 84
84 84 84
84 84 84
84 84 84
84 84 84
72 72 72
56 56 56
56 56 56
56 56 56
56 56 56
56 56 56
56 56 56
72 72 72
84 84 84
84 84 84
84 84 84
84 84 84
84 84 84
84 84 84
84 84 84
84 84 84
84 84 84
84 84 84
84 84 84
84 84 84
84 84 84
84 84 84
84 84 84
84 84 84
84 84 84
84 84 84
84 84 84
84 84 84
84 84 84
84 84 84
84 84 84
84 84 84
84 84 84
84 84 84
84 84 84
84 84 84

