P3
# ASCII PPM file
64 64
255

44 44 44
44 44 44
44 44 44
44 44 44
44 44 44
44 44 44
44 44 44
44 44 44
44 44 44
44 44 44
44 44 44
44 44 44
44 44 44
44 44 44
44 44 44
44 44 44
44 44 44
44 44 44
44 44 44
44 44 44
44 44 44
44 44 44
44 44 44
44 44 44
44 44 44
44 44 44
44 44 44
44 44 44
44 44 44
44 44 44
44 44 44
44 44 44
44 44 44
44 44 44
44 44 44
44 44 44
44 44 44
44 44 44
44 44 44
44 44 44
44 44 44
44 44 44
44 44 44
44 44 44
44 44 44
44 44 44
44 44 44
44 44 44
44 44 44
44 44 44
44 44 44
44 44 44
44 44 44
44 44 44
44 44 44
44 44 44
44 44 44
44 44 44
44 44 44
44 44 44
44 44 44
44 44 44
44 44 44
44 44 44

84 84 84
84 84 84
84 84 84
84 84 84
84 84 84
84 84 84
72 72 72
220 220 220
220 220 220
220 220 220
220 220 220
220 220 220
220 220 220
220 220 220
220 220 220
220 220 220
220 220 220
220 220 220
220 220 220
220 220 220
220 220 220
220 220 220
220 220 220
220 220 220
220 220 220
220 220 220
220 220 220
220 220 220
220 220 220
220 220 220
220 220 220
220 220 220
220 220 220
220 220 220
220 220 220
72 72 72
72 72 72
72 72 72
72 72 72
72 72 72
72 72 72
72 72 72
72 72 72
72 72 72
72 72 72
72 72 72
72 72 72
72 72 72
72 72 72
72 72 72
72 72 72
72 72 72
72 72 72
72 72 72
84 84 84
84 84 84
84 84 84
84 84 84
84 84 84
84 84 84
84 84 84
84 84 84
84 84 84
84 84 84

84 84 84
84 84 84
84 84 84
84 84 84
84 84 84
84 84 84
72 72 72
220 220 220
208 208 208
208 208 208
208 208 208
192 192 192
208 208 208
208 208 208
208 208 208
208 208 208
208 208 208
208 208 208
192 192 192
208 208 208
208 208 208
208 208 208
140 140 140
208 208 208
208 208 208
208 208 208
140 140 140
192 192 192
168 168 168
140 140 140
180 180 180
140 140 140
168 168 168
140 140 140
140 140 140
56 56 56
56 56 56
112 112 112
140 140 140
140 140 140
140 140 140
140 140 140
140 140 140
140 140 140
140 140 140
140 140 140
140 140 140
140 140 140
140 140 140
140 140 140
140 140 140
140 140 140
124 124 124
112 112 112
100 100 100
72 72 72
72 72 72
72 72 72
72 72 72
72 72 72
72 72 72
72 72 72
72 72 72
72 72 72

140 140 140
140 140 140
140 140 140
140 140 140
32 32 32
84 84 84
72 72 72
220 220 220
208 208 208
192 192 192
180 180 180
208 208 208
180 180 180
208 208 208
192 192 192
180 180 180
208 208 208
192 192 192
192 192 192
180 180 180
208 208 208
140 140 140
192 192 192
180 180 180
208 208 208
140 140 140
192 192 192
168 168 168
140 140 140
168 168 168
168 168 168
140 140 140
168 168 168
140 140 140
168 168 168
56 56 56
56 56 56
140 140 140
220 220 220
220 220 220
220 220 220
220 220 220
220 220 220
220 220 220
220 220 220
220 220 220
220 220 220
220 220 220
220 220 220
220 220 220
220 220 220
220 220 220
192 192 192
180 180 180
168 168 168
140 140 140
140 140 140
140 140 140
140 140 140
140 140 140
140 140 140
140 140 140
140 140 140
140 140 140

180 180 180
208 208 208
140 140 140
140 140 140
32 32 32
84 84 84
72 72 72
220 220 220
208 208 208
168 168 168
168 168 168
168 168 168
168 168 168
140 140 140
168 168 168
168 168 168
168 168 168
168 168 168
152 152 152
168 168 168
168 168 168
168 168 168
140 140 140
168 168 168
168 168 168
168 168 168
140 140 140
168 168 168
192 192 192
140 140 140
140 140 140
140 140 140
140 140 140
168 168 168
168 168 168
56 56 56
56 56 56
140 140 140
220 220 220
220 220 220
192 192 192
192 192 192
192 192 192
192 192 192
192 192 192
192 192 192
192 192 192
192 192 192
192 192 192
192 192 192
192 192 192
208 208 208
220 220 220
220 220 220
220 220 220
220 220 220
220 220 220
208 208 208
208 208 208
208 208 208
208 208 208
208 208 208
208 208 208
208 208 208

168 168 168
168 168 168
124 124 124
112 112 112
32 32 32
84 84 84
72 72 72
236 236 236
192 192 192
152 152 152
168 168 168
168 168 168
168 168 168
168 168 168
168 168 168
168 168 168
152 152 152
168 168 168
140 140 140
140 140 140
140 140 140
140 140 140
192 192 192
140 140 140
140 140 140
140 140 140
192 192 192
168 168 168
140 140 140
168 168 168
140 140 140
168 168 168
168 168 168
140 140 140
140 140 140
56 56 56
56 56 56
140 140 140
220 220 220
180 180 180
168 168 168
140 140 140
168 168 168
140 140 140
168 168 168
168 168 168
168 168 168
140 140 140
168 168 168
168 168 168
168 168 168
140 140 140
168 168 168
168 168 168
168 168 168
140 140 140
140 140 140
168 168 168
140 140 140
168 168 168
140 140 140
168 168 168
140 140 140
152 152 152

168 168 168
140 140 140
124 124 124
112 112 112
32 32 32
84 84 84
72 72 72
180 180 180
180 180 180
168 168 168
140 140 140
168 168 168
152 152 152
168 168 168
140 140 140
152 152 152
152 152 152
152 152 152
140 140 140
152 152 152
168 168 168
168 168 168
140 140 140
152 152 152
168 168 168
168 168 168
140 140 140
140 140 140
192 192 192
140 140 140
140 140 140
140 140 140
168 168 168
140 140 140
168 168 168
56 56 56
56 56 56
140 140 140
220 220 220
180 180 180
140 140 140
168 168 168
140 140 140
152 152 152
140 140 140
140 140 140
124 124 124
152 152 152
140 140 140
124 124 124
140 140 140
152 152 152
140 140 140
140 140 140
124 124 124
168 168 168
140 140 140
140 140 140
152 152 152
152 152 152
168 168 168
152 152 152
140 140 140
168 168 168

140 140 140
152 152 152
100 100 100
84 84 84
32 32 32
84 84 84
72 72 72
180 180 180
140 140 140
140 140 140
152 152 152
140 140 140
168 168 168
168 168 168
168 168 168
140 140 140
124 124 124
140 140 140
152 152 152
168 168 168
140 140 140
140 140 140
192 192 192
168 168 168
140 140 140
140 140 140
192 192 192
140 140 140
140 140 140
168 168 168
140 140 140
168 168 168
168 168 168
168 168 168
140 140 140
56 56 56
56 56 56
140 140 140
220 220 220
180 180 180
168 168 168
140 140 140
152 152 152
124 124 124
168 168 168
124 124 124
168 168 168
140 140 140
168 168 168
152 152 152
152 152 152
140 140 140
168 168 168
152 152 152
124 124 124
140 140 140
168 168 168
140 140 140
168 168 168
168 168 168
140 140 140
124 124 124
168 168 168
152 152 152

152 152 152
112 112 112
72 72 72
72 72 72
32 32 32
84 84 84
72 72 72
112 112 112
84 84 84
84 84 84
84 84 84
84 84 84
84 84 84
84 84 84
84 84 84
84 84 84
84 84 84
84 84 84
84 84 84
84 84 84
84 84 84
84 84 84
84 84 84
84 84 84
84 84 84
84 84 84
84 84 84
84 84 84
84 84 84
84 84 84
84 84 84
84 84 84
84 84 84
84 84 84
56 56 56
56 56 56
56 56 56
124 124 124
220 220 220
220 220 220
140 140 140
168 168 168
140 140 140
124 124 124
152 152 152
168 168 168
140 140 140
124 124 124
152 152 152
124 124 124
168 168 168
124 124 124
152 152 152
124 124 124
152 152 152
140 140 140
168 168 168
140 140 140
152 152 152
124 124 124
168 168 168
168 168 168
124 124 124
140 140 140

112 112 112
84 84 84
72 72 72
72 72 72
32 32 32
84 84 84
72 72 72
56 56 56
56 56 56
56 56 56
56 56 56
56 56 56
56 56 56
56 56 56
56 56 56
56 56 56
56 56 56
56 56 56
56 56 56
56 56 56
56 56 56
56 56 56
56 56 56
56 56 56
56 56 56
56 56 56
56 56 56
56 56 56
56 56 56
56 56 56
56 56 56
56 56 56
56 56 56
56 56 56
56 56 56
72 72 72
72 72 72
72 72 72
192 192 192
208 208 208
140 140 140
140 140 140
140 140 140
152 152 152
168 168 168
168 168 168
124 124 124
152 152 152
168 168 168
152 152 152
140 140 140
152 152 152
152 152 152
152 152 152
152 152 152
140 140 140
140 140 140
168 168 168
140 140 140
168 168 168
168 168 168
140 140 140
168 168 168
140 140 140

84 84 84
72 72 72
56 56 56
56 56 56
32 32 32
84 84 84
72 72 72
32 32 32
32 32 32
32 32 32
32 32 32
32 32 32
32 32 32
32 32 32
32 32 32
32 32 32
32 32 32
32 32 32
32 32 32
32 32 32
32 32 32
32 32 32
32 32 32
32 32 32
32 32 32
32 32 32
32 32 32
32 32 32
32 32 32
32 32 32
32 32 32
32 32 32
32 32 32
32 32 32
32 32 32
32 32 32
84 84 84
72 72 72
192 192 192
180 180 180
140 140 140
168 168 168
140 140 140
168 168 168
140 140 140
140 140 140
140 140 140
168 168 168
140 140 140
140 140 140
124 124 124
168 168 168
140 140 140
140 140 140
140 140 140
112 112 112
112 112 112
100 100 100
100 100 100
100 100 100
100 100 100
100 100 100
100 100 100
100 100 100

72 72 72
32 32 32
32 32 32
32 32 32
44 44 44
84 84 84
84 84 84
84 84 84
84 84 84
84 84 84
84 84 84
84 84 84
84 84 84
84 84 84
84 84 84
84 84 84
84 84 84
84 84 84
112 112 112
112 112 112
140 140 140
140 140 140
168 168 168
168 168 168
220 220 220
220 220 220
220 220 220
220 220 220
220 220 220
220 220 220
220 220 220
220 220 220
220 220 220
220 220 220
220 220 220
220 220 220
84 84 84
72 72 72
180 180 180
140 140 140
112 112 112
112 112 112
100 100 100
100 100 100
100 100 100
84 84 84
100 100 100
100 100 100
100 100 100
84 84 84
100 100 100
100 100 100
100 100 100
84 84 84
84 84 84
84 84 84
84 84 84
72 72 72
72 72 72
72 72 72
72 72 72
72 72 72
72 72 72
72 72 72

32 32 32
44 44 44
44 44 44
44 44 44
44 44 44
84 84 84
84 84 84
84 84 84
84 84 84
112 112 112
112 112 112
220 220 220
220 220 220
220 220 220
220 220 220
220 220 220
220 220 220
220 220 220
220 220 220
220 220 220
220 220 220
220 220 220
220 220 220
220 220 220
180 180 180
180 180 180
180 180 180
180 180 180
168 168 168
180 180 180
180 180 180
180 180 180
180 180 180
180 180 180
220 220 220
220 220 220
84 84 84
72 72 72
140 140 140
112 112 112
100 100 100
100 100 100
84 84 84
72 72 72
72 72 72
72 72 72
84 84 84
72 72 72
72 72 72
72 72 72
84 84 84
72 72 72
72 72 72
72 72 72
56 56 56
56 56 56
56 56 56
56 56 56
56 56 56
44 44 44
44 44 44
44 44 44
44 44 44
44 44 44

44 44 44
44 44 44
44 44 44
44 44 44
72 72 72
84 84 84
84 84 84
84 84 84
84 84 84
112 112 112
208 208 208
180 180 180
180 180 180
180 180 180
180 180 180
180 180 180
112 0 0
112 0 0
112 0 0
112 0 0
112 0 0
112 0 0
112 0 0
112 0 0
112 0 0
112 0 0
112 0 0
112 0 0
112 0 0
112 0 0
112 0 0
112 0 0
112 0 0
112 0 0
112 0 0
112 0 0
112 0 0
112 0 0
112 0 0
112 0 0
112 0 0
112 0 0
112 0 0
112 0 0
112 0 0
112 0 0
112 0 0
112 0 0
112 0 0
112 0 0
56 56 56
56 56 56
56 56 56
56 56 56
56 56 56
44 44 44
44 44 44
32 32 32
32 32 32
32 32 32
32 32 32
32 32 32
32 32 32
32 32 32

56 56 56
56 56 56
56 56 56
56 56 56
56 56 56
84 84 84
84 84 84
84 84 84
84 84 84
112 112 112
208 208 208
168 168 168
140 140 140
168 168 168
152 152 152
112 0 0
112 108 0
252 244 0
252 244 0
252 244 0
252 244 0
252 244 0
252 244 0
252 244 0
252 244 0
252 244 0
252 244 0
252 244 0
252 244 0
252 244 0
252 244 0
252 244 0
252 244 0
252 244 0
252 244 0
252 244 0
252 244 0
252 244 0
252 244 0
252 244 0
252 244 0
252 244 0
252 244 0
252 244 0
252 244 0
252 244 0
252 244 0
252 244 0
252 244 0
112 108 0
112 0 0
44 44 44
44 44 44
44 44 44
44 44 44
56 56 56
56 56 56
56 56 56
56 56 56
56 56 56
56 56 56
56 56 56
56 56 56
56 56 56

84 84 84
72 72 72
56 56 56
56 56 56
56 56 56
84 84 84
84 84 84
84 84 84
84 84 84
112 112 112
192 192 192
140 140 140
168 168 168
152 152 152
140 140 140
112 0 0
252 244 0
112 108 0
112 0 0
112 0 0
112 0 0
112 0 0
112 0 0
112 0 0
112 0 0
112 0 0
112 0 0
112 0 0
112 0 0
112 0 0
112 0 0
112 0 0
112 0 0
112 0 0
112 0 0
112 0 0
112 0 0
112 0 0
112 0 0
112 0 0
112 0 0
112 0 0
112 0 0
112 0 0
112 0 0
112 0 0
112 0 0
112 0 0
112 108 0
252 244 0
112 0 0
84 84 84
72 72 72
72 72 72
72 72 72
72 72 72
72 72 72
72 72 72
72 72 72
72 72 72
72 72 72
72 72 72
72 72 72
72 72 72

152 152 152
152 152 152
152 152 152
152 152 152
152 152 152
152 152 152
84 84 84
84 84 84
84 84 84
72 72 72
192 192 192
192 192 192
152 152 152
140 140 140
140 140 140
112 0 0
252 244 0
112 0 0
208 208 208
112 0 0
208 208 208
112 0 0
208 208 208
208 208 208
112 0 0
208 208 208
208 208 208
112 0 0
112 0 0
208 208 208
208 208 208
112 0 0
112 0 0
112 0 0
208 208 208
112 0 0
208 208 208
208 208 208
208 208 208
112 0 0
208 208 208
208 208 208
112 0 0
208 208 208
112 0 0
208 208 208
112 0 0
208 208 208
112 0 0
252 244 0
112 0 0
100 100 100
168 168 168
152 152 152
152 152 152
152 152 152
152 152 152
152 152 152
152 152 152
152 152 152
152 152 152
152 152 152
152 152 152
152 152 152

208 208 208
208 208 208
208 208 208
208 208 208
208 208 208
208 208 208
84 84 84
84 84 84
84 84 84
72 72 72
140 140 140
192 192 192
140 140 140
168 168 168
140 140 140
112 0 0
252 244 0
112 0 0
208 208 208
112 0 0
208 208 208
112 0 0
208 208 208
112 0 0
112 0 0
208 208 208
112 0 0
208 208 208
112 0 0
208 208 208
112 0 0
208 208 208
112 0 0
208 208 208
112 0 0
208 208 208
112 0 0
208 208 208
112 0 0
112 0 0
208 208 208
112 0 0
112 0 0
208 208 208
208 208 208
208 208 208
112 0 0
208 208 208
112 0 0
252 244 0
112 0 0
100 100 100
220 220 220
220 220 220
220 220 220
220 220 220
220 220 220
220 220 220
220 220 220
220 220 220
220 220 220
220 220 220
220 220 220
220 220 220

168 168 168
152 152 152
140 140 140
168 168 168
140 140 140
168 168 168
56 56 56
84 84 84
84 84 84
72 72 72
112 112 112
152 152 152
168 168 168
140 140 140
168 168 168
112 0 0
252 244 0
112 0 0
208 208 208
112 0 0
208 208 208
112 0 0
208 208 208
208 208 208
112 0 0
208 208 208
208 208 208
112 0 0
112 0 0
208 208 208
208 208 208
112 0 0
112 0 0
208 208 208
112 0 0
208 208 208
112 0 0
208 208 208
112 0 0
112 0 0
208 208 208
208 208 208
112 0 0
208 208 208
208 208 208
208 208 208
112 0 0
208 208 208
112 0 0
252 244 0
112 0 0
100 100 100
152 152 152
140 140 140
140 140 140
140 140 140
180 180 180
180 180 180
180 180 180
180 180 180
180 180 180
180 180 180
180 180 180
180 180 180

168 168 168
140 140 140
168 168 168
140 140 140
168 168 168
140 140 140
56 56 56
84 84 84
84 84 84
84 84 84
72 72 72
152 152 152
152 152 152
112 112 112
112 112 112
112 0 0
252 244 0
112 0 0
208 208 208
112 0 0
208 208 208
112 0 0
208 208 208
112 0 0
112 0 0
208 208 208
112 0 0
208 208 208
112 0 0
208 208 208
112 0 0
208 208 208
112 0 0
208 208 208
112 0 0
208 208 208
112 0 0
208 208 208
112 0 0
112 0 0
208 208 208
112 0 0
112 0 0
208 208 208
112 0 0
208 208 208
112 0 0
112 0 0
112 0 0
252 244 0
112 0 0
100 100 100
124 124 124
124 124 124
124 124 124
124 124 124
168 168 168
152 152 152
168 168 168
140 140 140
152 152 152
140 140 140
152 152 152
152 152 152

168 168 168
152 152 152
140 140 140
168 168 168
140 140 140
168 168 168
56 56 56
84 84 84
84 84 84
84 84 84
72 72 72
72 72 72
84 84 84
84 84 84
84 84 84
112 0 0
252 244 0
112 0 0
112 0 0
208 208 208
112 0 0
112 0 0
208 208 208
208 208 208
112 0 0
208 208 208
112 0 0
208 208 208
112 0 0
208 208 208
208 208 208
112 0 0
112 0 0
112 0 0
208 208 208
112 0 0
112 0 0
208 208 208
112 0 0
112 0 0
208 208 208
208 208 208
112 0 0
208 208 208
112 0 0
208 208 208
112 0 0
208 208 208
112 0 0
252 244 0
112 0 0
100 100 100
168 168 168
140 140 140
140 140 140
140 140 140
152 152 152
140 140 140
140 140 140
152 152 152
124 124 124
124 124 124
140 140 140
140 140 140

168 168 168
140 140 140
168 168 168
140 140 140
168 168 168
100 100 100
56 56 56
84 84 84
84 84 84
84 84 84
72 72 72
56 56 56
56 56 56
44 44 44
44 44 44
112 0 0
252 244 0
112 0 0
112 0 0
112 0 0
112 0 0
112 0 0
112 0 0
112 0 0
112 0 0
112 0 0
112 0 0
112 0 0
112 0 0
112 0 0
112 0 0
112 0 0
112 0 0
112 0 0
112 0 0
112 0 0
112 0 0
112 0 0
112 0 0
112 0 0
112 0 0
112 0 0
112 0 0
112 0 0
112 0 0
112 0 0
112 0 0
112 0 0
112 0 0
252 244 0
112 0 0
100 100 100
140 140 140
152 152 152
152 152 152
152 152 152
168 168 168
124 124 124
168 168 168
140 140 140
152 152 152
140 140 140
152 152 152
152 152 152

140 140 140
168 168 168
124 124 124
124 124 124
140 140 140
100 100 100
56 56 56
84 84 84
84 84 84
84 84 84
84 84 84
84 84 84
84 84 84
56 56 56
56 56 56
112 0 0
252 244 0
112 0 0
112 0 0
112 0 0
112 0 0
112 0 0
112 0 0
112 0 0
112 0 0
112 0 0
112 0 0
112 0 0
112 0 0
112 0 0
112 0 0
112 0 0
112 0 0
112 0 0
112 0 0
112 0 0
112 0 0
112 0 0
112 0 0
112 0 0
112 0 0
112 0 0
112 0 0
112 0 0
112 0 0
112 0 0
112 0 0
112 0 0
112 0 0
252 244 0
112 0 0
100 100 100
168 168 168
140 140 140
140 140 140
140 140 140
152 152 152
140 140 140
140 140 140
152 152 152
124 124 124
124 124 124
140 140 140
140 140 140

140 140 140
140 140 140
124 124 124
124 124 124
140 140 140
56 56 56
32 32 32
84 84 84
84 84 84
84 84 84
84 84 84
84 84 84
84 84 84
84 84 84
84 84 84
112 0 0
252 244 0
112 0 0
112 0 0
112 0 0
112 0 0
112 0 0
112 0 0
112 0 0
112 0 0
112 0 0
112 0 0
112 0 0
112 0 0
112 0 0
112 0 0
112 0 0
112 0 0
112 0 0
112 0 0
112 0 0
112 0 0
112 0 0
112 0 0
112 0 0
112 0 0
112 0 0
112 0 0
112 0 0
112 0 0
112 0 0
112 0 0
112 0 0
112 0 0
252 244 0
112 0 0
100 100 100
168 168 168
152 152 152
152 152 152
152 152 152
124 124 124
124 124 124
168 168 168
140 140 140
124 124 124
124 124 124
140 140 140
152 152 152

140 140 140
140 140 140
168 168 168
168 168 168
100 100 100
56 56 56
32 32 32
84 84 84
84 84 84
84 84 84
84 84 84
84 84 84
84 84 84
84 84 84
84 84 84
112 0 0
252 244 0
112 0 0
112 0 0
112 0 0
112 0 0
112 0 0
124 124 124
124 124 124
124 124 124
112 0 0
124 124 124
112 0 0
124 124 124
124 124 124
124 124 124
124 124 124
124 124 124
112 0 0
124 124 124
124 124 124
112 0 0
124 124 124
124 124 124
124 124 124
124 124 124
124 124 124
124 124 124
112 0 0
124 124 124
124 124 124
112 0 0
112 0 0
112 0 0
252 244 0
112 0 0
100 100 100
168 168 168
140 140 140
140 140 140
140 140 140
124 124 124
124 124 124
140 140 140
140 140 140
168 168 168
140 140 140
168 168 168
140 140 140

152 152 152
168 168 168
140 140 140
100 100 100
56 56 56
32 32 32
56 56 56
84 84 84
84 84 84
152 152 152
220 220 220
220 220 220
220 220 220
220 220 220
192 192 192
112 0 0
252 244 0
112 0 0
112 0 0
112 0 0
112 0 0
112 0 0
112 0 0
112 0 0
112 0 0
112 0 0
112 0 0
112 0 0
112 0 0
112 0 0
112 0 0
112 0 0
112 0 0
112 0 0
112 0 0
112 0 0
112 0 0
112 0 0
112 0 0
112 0 0
112 0 0
112 0 0
112 0 0
112 0 0
112 0 0
112 0 0
112 0 0
112 0 0
112 0 0
252 244 0
112 0 0
44 44 44
140 140 140
140 140 140
140 140 140
140 140 140
168 168 168
140 140 140
100 100 100
100 100 100
112 112 112
124 124 124
140 140 140
140 140 140

100 100 100
100 100 100
100 100 100
56 56 56
32 32 32
56 56 56
84 84 84
84 84 84
152 152 152
220 220 220
220 220 220
192 192 192
168 168 168
168 168 168
168 168 168
112 0 0
252 244 0
112 0 0
112 0 0
112 0 0
124 124 124
124 124 124
124 124 124
124 124 124
124 124 124
124 124 124
112 0 0
124 124 124
124 124 124
124 124 124
112 0 0
124 124 124
124 124 124
112 0 0
124 124 124
124 124 124
124 124 124
124 124 124
124 124 124
112 0 0
124 124 124
124 124 124
124 124 124
124 124 124
124 124 124
124 124 124
112 0 0
112 0 0
112 0 0
252 244 0
112 0 0
84 84 84
72 72 72
72 72 72
72 72 72
72 72 72
72 72 72
72 72 72
72 72 72
72 72 72
72 72 72
84 84 84
84 84 84
84 84 84

84 84 84
56 56 56
56 56 56
32 32 32
56 56 56
84 84 84
152 152 152
152 152 152
220 220 220
192 192 192
168 168 168
168 168 168
152 152 152
168 168 168
124 124 124
112 0 0
252 244 0
112 0 0
112 0 0
112 0 0
112 0 0
112 0 0
112 0 0
112 0 0
112 0 0
112 0 0
112 0 0
112 0 0
112 0 0
112 0 0
112 0 0
112 0 0
112 0 0
112 0 0
112 0 0
112 0 0
112 0 0
112 0 0
112 0 0
112 0 0
112 0 0
112 0 0
112 0 0
112 0 0
112 0 0
112 0 0
112 0 0
112 0 0
112 0 0
252 244 0
112 0 0
100 100 100
32 32 32
32 32 32
32 32 32
32 32 32
32 32 32
32 32 32
32 32 32
32 32 32
32 32 32
56 56 56
56 56 56
72 72 72

32 32 32
32 32 32
56 56 56
84 84 84
100 100 100
152 152 152
220 220 220
220 220 220
192 192 192
168 168 168
140 140 140
124 124 124
140 140 140
152 152 152
152 152 152
112 0 0
252 244 0
112 0 0
112 0 0
112 0 0
124 124 124
124 124 124
124 124 124
112 0 0
124 124 124
124 124 124
124 124 124
124 124 124
124 124 124
124 124 124
124 124 124
112 0 0
124 124 124
124 124 124
124 124 124
112 0 0
124 124 124
112 0 0
124 124 124
124 124 124
124 124 124
124 124 124
112 0 0
124 124 124
124 124 124
124 124 124
112 0 0
112 0 0
112 0 0
252 244 0
112 0 0
100 100 100
72 72 72
32 32 32
56 56 56
56 56 56
56 56 56
56 56 56
44 44 44
44 44 44
44 44 44
32 32 32
32 32 32
32 32 32

72 72 72
100 100 100
100 100 100
112 112 112
152 152 152
220 220 220
220 220 220
192 192 192
192 192 192
168 168 168
140 140 140
152 152 152
168 168 168
168 168 168
140 140 140
112 0 0
252 244 0
112 0 0
112 0 0
112 0 0
112 0 0
112 0 0
112 0 0
112 0 0
112 0 0
112 0 0
112 0 0
112 0 0
112 0 0
112 0 0
112 0 0
112 0 0
112 0 0
112 0 0
112 0 0
112 0 0
112 0 0
112 0 0
112 0 0
112 0 0
112 0 0
112 0 0
112 0 0
112 0 0
112 0 0
112 0 0
112 0 0
112 0 0
112 0 0
252 244 0
112 0 0
100 100 100
112 112 112
32 32 32
84 84 84
236 236 236
236 236 236
236 236 236
192 192 192
192 192 192
152 152 152
56 56 56
56 56 56
56 56 56

100 100 100
140 140 140
180 180 180
220 220 220
220 220 220
220 220 220
192 192 192
168 168 168
152 152 152
152 152 152
168 168 168
140 140 140
140 140 140
152 152 152
140 140 140
112 0 0
252 244 0
112 0 0
112 0 0
112 0 0
112 0 0
112 0 0
112 0 0
112 0 0
112 0 0
112 0 0
112 0 0
112 0 0
112 0 0
112 0 0
112 0 0
112 0 0
112 0 0
112 0 0
112 0 0
112 0 0
112 0 0
112 0 0
112 0 0
112 0 0
112 0 0
112 0 0
112 0 0
112 0 0
112 0 0
112 0 0
112 0 0
112 0 0
112 0 0
252 244 0
112 0 0
100 100 100
72 72 72
32 32 32
84 84 84
236 236 236
192 192 192
192 192 192
236 236 236
236 236 236
236 236 236
152 152 152
56 56 56
84 84 84

100 100 100
180 180 180
208 208 208
208 208 208
192 192 192
180 180 180
152 152 152
140 140 140
152 152 152
124 124 124
168 168 168
140 140 140
124 124 124
124 124 124
140 140 140
112 0 0
252 244 0
112 0 0
112 0 0
112 0 0
112 0 0
112 0 0
124 124 124
124 124 124
124 124 124
112 0 0
124 124 124
124 124 124
124 124 124
124 124 124
124 124 124
124 124 124
124 124 124
124 124 124
112 0 0
124 124 124
112 0 0
124 124 124
124 124 124
112 0 0
124 124 124
124 124 124
124 124 124
112 0 0
124 124 124
124 124 124
112 0 0
112 0 0
112 0 0
252 244 0
112 0 0
100 100 100
56 56 56
32 32 32
84 84 84
236 236 236
168 168 168
168 168 168
168 168 168
168 168 168
168 168 168
152 152 152
56 56 56
84 84 84

100 100 100
220 220 220
180 180 180
168 168 168
168 168 168
140 140 140
140 140 140
168 168 168
152 152 152
140 140 140
168 168 168
140 140 140
168 168 168
124 124 124
140 140 140
112 0 0
252 244 0
112 0 0
112 0 0
112 0 0
112 0 0
112 0 0
112 0 0
112 0 0
112 0 0
112 0 0
112 0 0
112 0 0
112 0 0
112 0 0
112 0 0
112 0 0
112 0 0
112 0 0
112 0 0
112 0 0
112 0 0
112 0 0
112 0 0
112 0 0
112 0 0
112 0 0
112 0 0
112 0 0
112 0 0
112 0 0
112 0 0
112 0 0
112 0 0
252 244 0
112 0 0
100 100 100
56 56 56
44 44 44
84 84 84
236 236 236
140 140 140
140 140 140
168 168 168
140 140 140
140 140 140
124 124 124
56 56 56
84 84 84

100 100 100
100 100 100
180 180 180
152 152 152
140 140 140
140 140 140
140 140 140
140 140 140
140 140 140
168 168 168
152 152 152
140 140 140
152 152 152
168 168 168
140 140 140
112 0 0
252 244 0
112 0 0
112 0 0
112 0 0
124 124 124
124 124 124
112 0 0
124 124 124
124 124 124
124 124 124
124 124 124
124 124 124
112 0 0
124 124 124
124 124 124
124 124 124
124 124 124
112 0 0
124 124 124
124 124 124
124 124 124
124 124 124
124 124 124
124 124 124
124 124 124
124 124 124
112 0 0
124 124 124
124 124 124
124 124 124
112 0 0
112 0 0
112 0 0
252 244 0
112 0 0
100 100 100
56 56 56
44 44 44
84 84 84
236 236 236
168 168 168
168 168 168
140 140 140
168 168 168
140 140 140
100 100 100
56 56 56
72 72 72

100 100 100
72 72 72
100 100 100
152 152 152
168 168 168
140 140 140
168 168 168
168 168 168
152 152 152
152 152 152
124 124 124
168 168 168
124 124 124
124 124 124
124 124 124
112 0 0
252 244 0
112 0 0
112 0 0
112 0 0
112 0 0
112 0 0
112 0 0
112 0 0
112 0 0
112 0 0
112 0 0
112 0 0
112 0 0
112 0 0
112 0 0
112 0 0
112 0 0
112 0 0
112 0 0
112 0 0
112 0 0
112 0 0
112 0 0
112 0 0
112 0 0
112 0 0
112 0 0
112 0 0
112 0 0
112 0 0
112 0 0
112 0 0
112 0 0
252 244 0
112 0 0
100 100 100
44 44 44
44 44 44
84 84 84
236 236 236
140 140 140
140 140 140
168 168 168
140 140 140
168 168 168
100 100 100
56 56 56
72 72 72

100 100 100
100 100 100
72 72 72
100 100 100
100 100 100
100 100 100
100 100 100
100 100 100
100 100 100
100 100 100
100 100 100
100 100 100
100 100 100
100 100 100
100 100 100
112 0 0
252 244 0
112 0 0
112 0 0
112 0 0
124 124 124
124 124 124
124 124 124
124 124 124
112 0 0
124 124 124
124 124 124
124 124 124
124 124 124
124 124 124
124 124 124
124 124 124
124 124 124
124 124 124
124 124 124
112 0 0
124 124 124
112 0 0
124 124 124
124 124 124
124 124 124
124 124 124
112 0 0
124 124 124
124 124 124
124 124 124
112 0 0
112 0 0
112 0 0
252 244 0
112 0 0
84 84 84
32 32 32
44 44 44
84 84 84
236 236 236
168 168 168
140 140 140
140 140 140
168 168 168
168 168 168
84 84 84
56 56 56
72 72 72

100 100 100
72 72 72
72 72 72
56 56 56
56 56 56
44 44 44
44 44 44
44 44 44
44 44 44
44 44 44
44 44 44
44 44 44
44 44 44
32 32 32
32 32 32
112 0 0
252 244 0
112 0 0
112 0 0
112 0 0
112 0 0
112 0 0
112 0 0
112 0 0
112 0 0
112 0 0
112 0 0
112 0 0
112 0 0
112 0 0
112 0 0
112 0 0
112 0 0
112 0 0
112 0 0
112 0 0
112 0 0
112 0 0
112 0 0
112 0 0
112 0 0
112 0 0
112 0 0
112 0 0
112 0 0
112 0 0
112 0 0
112 0 0
112 0 0
252 244 0
112 0 0
84 84 84
32 32 32
44 44 44
84 84 84
236 236 236
140 140 140
168 168 168
140 140 140
140 140 140
168 168 168
84 84 84
56 56 56
56 56 56

100 100 100
84 84 84
84 84 84
84 84 84
84 84 84
72 72 72
72 72 72
72 72 72
72 72 72
72 72 72
72 72 72
72 72 72
72 72 72
72 72 72
72 72 72
112 0 0
252 244 0
112 0 0
112 0 0
112 0 0
124 124 124
124 124 124
124 124 124
112 0 0
124 124 124
124 124 124
112 0 0
124 124 124
124 124 124
124 124 124
124 124 124
124 124 124
112 0 0
124 124 124
112 0 0
124 124 124
124 124 124
112 0 0
124 124 124
124 124 124
124 124 124
124 124 124
124 124 124
124 124 124
112 0 0
124 124 124
112 0 0
112 0 0
112 0 0
252 244 0
112 0 0
32 32 32
56 56 56
32 32 32
84 84 84
84 84 84
84 84 84
84 84 84
84 84 84
84 84 84
84 84 84
84 84 84
56 56 56
56 56 56

100 100 100
220 220 220
220 220 220
220 220 220
220 220 220
220 220 220
220 220 220
220 220 220
220 220 220
220 220 220
220 220 220
220 220 220
220 220 220
220 220 220
220 220 220
112 0 0
252 244 0
112 0 0
112 0 0
112 0 0
112 0 0
112 0 0
112 0 0
112 0 0
112 0 0
112 0 0
112 0 0
112 0 0
112 0 0
112 0 0
112 0 0
112 0 0
112 0 0
112 0 0
112 0 0
112 0 0
112 0 0
112 0 0
112 0 0
112 0 0
112 0 0
112 0 0
112 0 0
112 0 0
112 0 0
112 0 0
112 0 0
112 0 0
112 0 0
252 244 0
112 0 0
32 32 32
32 32 32
32 32 32
32 32 32
32 32 32
32 32 32
32 32 32
32 32 32
32 32 32
32 32 32
32 32 32
32 32 32
56 56 56

100 100 100
220 220 220
208 208 208
208 208 208
180 180 180
180 180 180
180 180 180
180 180 180
180 180 180
180 180 180
180 180 180
140 140 140
140 140 140
140 140 140
168 168 168
112 0 0
252 244 0
112 0 0
112 0 0
112 0 0
124 124 124
124 124 124
124 124 124
124 124 124
112 0 0
124 124 124
112 0 0
124 124 124
124 124 124
124 124 124
124 124 124
112 0 0
124 124 124
124 124 124
124 124 124
112 0 0
124 124 124
124 124 124
124 124 124
124 124 124
124 124 124
112 0 0
124 124 124
124 124 124
124 124 124
124 124 124
112 0 0
112 0 0
112 0 0
252 244 0
112 0 0
72 72 72
72 72 72
72 72 72
56 56 56
56 56 56
56 56 56
56 56 56
56 56 56
56 56 56
56 56 56
56 56 56
56 56 56
56 56 56

100 100 100
220 220 220
180 180 180
168 168 168
168 168 168
140 140 140
168 168 168
140 140 140
140 140 140
124 124 124
140 140 140
168 168 168
140 140 140
124 124 124
140 140 140
112 0 0
252 244 0
112 0 0
112 0 0
112 0 0
112 0 0
112 0 0
112 0 0
112 0 0
112 0 0
112 0 0
112 0 0
112 0 0
112 0 0
112 0 0
112 0 0
112 0 0
112 0 0
112 0 0
112 0 0
112 0 0
112 0 0
112 0 0
112 0 0
112 0 0
112 0 0
112 0 0
112 0 0
112 0 0
112 0 0
112 0 0
112 0 0
112 0 0
112 0 0
252 244 0
112 0 0
100 100 100
124 124 124
124 124 124
124 124 124
124 124 124
124 124 124
124 124 124
124 124 124
124 124 124
124 124 124
124 124 124
56 56 56
84 84 84

100 100 100
220 220 220
180 180 180
140 140 140
140 140 140
168 168 168
140 140 140
140 140 140
168 168 168
140 140 140
168 168 168
140 140 140
140 140 140
168 168 168
140 140 140
112 0 0
252 244 0
112 0 0
112 0 0
112 0 0
112 0 0
112 0 0
112 0 0
112 0 0
112 0 0
112 0 0
112 0 0
112 0 0
112 0 0
112 0 0
112 0 0
112 0 0
112 0 0
112 0 0
112 0 0
112 0 0
112 0 0
112 0 0
112 0 0
112 0 0
112 0 0
112 0 0
112 0 0
112 0 0
112 0 0
112 0 0
112 0 0
112 0 0
112 0 0
252 244 0
112 0 0
100 100 100
192 192 192
180 180 180
192 192 192
192 192 192
192 192 192
192 192 192
192 192 192
192 192 192
192 192 192
124 124 124
56 56 56
84 84 84

100 100 100
208 208 208
180 180 180
168 168 168
168 168 168
152 152 152
168 168 168
168 168 168
140 140 140
168 168 168
140 140 140
140 140 140
124 124 124
140 140 140
168 168 168
112 0 0
252 244 0
112 0 0
112 0 0
112 0 0
112 0 0
112 0 0
112 0 0
112 0 0
112 0 0
112 0 0
112 0 0
112 0 0
112 0 0
112 0 0
112 0 0
112 0 0
112 0 0
112 0 0
112 0 0
112 0 0
208 208 208
140 140 140
208 208 208
140 140 140
180 180 180
208 208 208
152 152 152
208 208 208
180 180 180
208 208 208
112 0 0
112 0 0
112 0 0
252 244 0
112 0 0
100 100 100
236 236 236
236 236 236
236 236 236
236 236 236
220 220 220
220 220 220
208 208 208
208 208 208
152 152 152
100 100 100
44 44 44
72 72 72

100 100 100
208 208 208
180 180 180
152 152 152
168 168 168
140 140 140
168 168 168
168 168 168
140 140 140
168 168 168
140 140 140
168 168 168
140 140 140
140 140 140
140 140 140
112 0 0
252 244 0
112 108 0
112 0 0
112 0 0
112 0 0
112 0 0
112 0 0
112 0 0
112 0 0
112 0 0
112 0 0
112 0 0
112 0 0
112 0 0
112 0 0
112 0 0
112 0 0
112 0 0
112 0 0
112 0 0
112 0 0
112 0 0
112 0 0
112 0 0
112 0 0
112 0 0
112 0 0
112 0 0
112 0 0
112 0 0
112 0 0
112 0 0
112 108 0
252 244 0
112 0 0
100 100 100
192 192 192
168 168 168
192 192 192
192 192 192
180 180 180
192 192 192
192 192 192
180 180 180
124 124 124
84 84 84
44 44 44
72 72 72

100 100 100
192 192 192
180 180 180
168 168 168
140 140 140
168 168 168
140 140 140
140 140 140
168 168 168
140 140 140
168 168 168
124 124 124
152 152 152
140 140 140
168 168 168
112 0 0
112 108 0
252 244 0
252 244 0
252 244 0
252 244 0
252 244 0
252 244 0
252 244 0
252 244 0
252 244 0
252 244 0
252 244 0
252 244 0
252 244 0
252 244 0
252 244 0
252 244 0
252 244 0
252 244 0
252 244 0
252 244 0
252 244 0
252 244 0
252 244 0
252 244 0
252 244 0
252 244 0
252 244 0
252 244 0
252 244 0
252 244 0
252 244 0
252 244 0
112 108 0
112 0 0
100 100 100
140 140 140
140 140 140
140 140 140
168 168 168
140 140 140
168 168 168
140 140 140
168 168 168
112 112 112
84 84 84
44 44 44
56 56 56

72 72 72
192 192 192
140 140 140
140 140 140
168 168 168
140 140 140
168 168 168
168 168 168
168 168 168
168 168 168
168 168 168
140 140 140
168 168 168
140 140 140
140 140 140
100 100 100
112 0 0
112 0 0
112 0 0
112 0 0
112 0 0
112 0 0
112 0 0
112 0 0
112 0 0
112 0 0
112 0 0
112 0 0
112 0 0
112 0 0
112 0 0
112 0 0
112 0 0
112 0 0
112 0 0
112 0 0
112 0 0
112 0 0
112 0 0
112 0 0
112 0 0
112 0 0
112 0 0
112 0 0
112 0 0
112 0 0
112 0 0
112 0 0
112 0 0
112 0 0
100 100 100
100 100 100
152 152 152
140 140 140
168 168 168
140 140 140
168 168 168
168 168 168
168 168 168
140 140 140
112 112 112
84 84 84
44 44 44
56 56 56

72 72 72
180 180 180
168 168 168
168 168 168
168 168 168
140 140 140
140 140 140
140 140 140
140 140 140
140 140 140
140 140 140
168 168 168
140 140 140
168 168 168
140 140 140
140 140 140
100 100 100
100 100 100
100 100 100
84 84 84
84 84 84
84 84 84
56 56 56
32 32 32
32 32 32
32 32 32
72 72 72
100 100 100
100 100 100
100 100 100
100 100 100
100 100 100
100 100 100
100 100 100
100 100 100
100 100 100
100 100 100
100 100 100
100 100 100
100 100 100
100 100 100
100 100 100
100 100 100
100 100 100
100 100 100
100 100 100
100 100 100
100 100 100
100 100 100
100 100 100
100 100 100
140 140 140
152 152 152
152 152 152
140 140 140
168 168 168
140 140 140
168 168 168
140 140 140
168 168 168
112 112 112
84 84 84
44 44 44
56 56 56

72 72 72
124 124 124
124 124 124
124 124 124
84 84 84
84 84 84
168 168 168
168 168 168
140 140 140
168 168 168
140 140 140
140 140 140
168 168 168
140 140 140
140 140 140
168 168 168
140 140 140
140 140 140
140 140 140
112 112 112
100 100 100
84 84 84
56 56 56
32 32 32
32 32 32
32 32 32
44 44 44
180 180 180
220 220 220
208 208 208
168 168 168
168 168 168
140 140 140
140 140 140
140 140 140
140 140 140
124 124 124
140 140 140
140 140 140
168 168 168
140 140 140
152 152 152
140 140 140
168 168 168
152 152 152
124 124 124
140 140 140
140 140 140
168 168 168
140 140 140
140 140 140
168 168 168
140 140 140
124 124 124
124 124 124
140 140 140
124 124 124
152 152 152
140 140 140
152 152 152
112 112 112
84 84 84
32 32 32
56 56 56

72 72 72
56 56 56
32 32 32
32 32 32
32 32 32
84 84 84
84 84 84
84 84 84
84 84 84
84 84 84
100 100 100
100 100 100
100 100 100
100 100 100
100 100 100
100 100 100
100 100 100
100 100 100
100 100 100
100 100 100
84 84 84
84 84 84
56 56 56
32 32 32
32 32 32
32 32 32
44 44 44
168 168 168
220 220 220
208 208 208
140 140 140
140 140 140
168 168 168
140 140 140
168 168 168
140 140 140
140 140 140
168 168 168
140 140 140
124 124 124
124 124 124
152 152 152
152 152 152
140 140 140
168 168 168
140 140 140
168 168 168
152 152 152
140 140 140
168 168 168
140 140 140
140 140 140
124 124 124
140 140 140
140 140 140
140 140 140
168 168 168
140 140 140
124 124 124
124 124 124
112 112 112
84 84 84
32 32 32
56 56 56

84 84 84
84 84 84
84 84 84
72 72 72
56 56 56
32 32 32
32 32 32
44 44 44
32 32 32
56 56 56
56 56 56
56 56 56
56 56 56
56 56 56
56 56 56
56 56 56
56 56 56
56 56 56
56 56 56
56 56 56
56 56 56
56 56 56
56 56 56
32 32 32
32 32 32
32 32 32
44 44 44
140 140 140
208 208 208
180 180 180
180 180 180
140 140 140
140 140 140
168 168 168
140 140 140
168 168 168
124 124 124
140 140 140
140 140 140
152 152 152
124 124 124
152 152 152
140 140 140
152 152 152
124 124 124
168 168 168
140 140 140
140 140 140
124 124 124
140 140 140
140 140 140
140 140 140
140 140 140
168 168 168
140 140 140
124 124 124
140 140 140
152 152 152
124 124 124
124 124 124
112 112 112
84 84 84
32 32 32
56 56 56

72 72 72
72 72 72
72 72 72
72 72 72
72 72 72
72 72 72
72 72 72
44 44 44
44 44 44
44 44 44
32 32 32
32 32 32
32 32 32
32 32 32
32 32 32
32 32 32
32 32 32
32 32 32
32 32 32
32 32 32
32 32 32
32 32 32
32 32 32
32 32 32
32 32 32
32 32 32
44 44 44
140 140 140
152 152 152
112 112 112
112 112 112
112 112 112
112 112 112
112 112 112
112 112 112
112 112 112
168 168 168
140 140 140
168 168 168
168 168 168
140 140 140
140 140 140
124 124 124
140 140 140
140 140 140
140 140 140
124 124 124
140 140 140
140 140 140
168 168 168
140 140 140
168 168 168
140 140 140
140 140 140
168 168 168
140 140 140
140 140 140
140 140 140
140 140 140
152 152 152
112 112 112
84 84 84
32 32 32
56 56 56

72 72 72
124 124 124
168 168 168
168 168 168
168 168 168
168 168 168
152 152 152
140 140 140
100 100 100
72 72 72
72 72 72
84 84 84
56 56 56
56 56 56
44 44 44
44 44 44
44 44 44
44 44 44
44 44 44
44 44 44
44 44 44
44 44 44
44 44 44
44 44 44
44 44 44
44 44 44
56 56 56
84 84 84
72 72 72
56 56 56
56 56 56
44 44 44
44 44 44
44 44 44
44 44 44
44 44 44
84 84 84
112 112 112
112 112 112
124 124 124
140 140 140
124 124 124
124 124 124
124 124 124
124 124 124
124 124 124
124 124 124
124 124 124
124 124 124
124 124 124
124 124 124
124 124 124
124 124 124
124 124 124
124 124 124
124 124 124
124 124 124
124 124 124
124 124 124
124 124 124
100 100 100
84 84 84
32 32 32
56 56 56

72 72 72
168 168 168
192 192 192
220 220 220
220 220 220
220 220 220
220 220 220
220 220 220
192 192 192
168 168 168
168 168 168
140 140 140
112 112 112
100 100 100
84 84 84
72 72 72
56 56 56
56 56 56
56 56 56
56 56 56
56 56 56
56 56 56
56 56 56
56 56 56
56 56 56
56 56 56
72 72 72
84 84 84
72 72 72
72 72 72
56 56 56
56 56 56
56 56 56
56 56 56
56 56 56
56 56 56
44 44 44
72 72 72
84 84 84
84 84 84
84 84 84
84 84 84
84 84 84
84 84 84
84 84 84
84 84 84
84 84 84
84 84 84
84 84 84
84 84 84
84 84 84
84 84 84
84 84 84
84 84 84
84 84 84
84 84 84
84 84 84
84 84 84
84 84 84
84 84 84
84 84 84
32 32 32
44 44 44
56 56 56

72 72 72
168 168 168
220 220 220
168 168 168
168 168 168
140 140 140
192 192 192
208 208 208
220 220 220
220 220 220
220 220 220
192 192 192
168 168 168
168 168 168
168 168 168
168 168 168
168 168 168
168 168 168
168 168 168
168 168 168
140 140 140
140 140 140
140 140 140
124 124 124
124 124 124
112 112 112
100 100 100
100 100 100
84 84 84
84 84 84
72 72 72
72 72 72
72 72 72
72 72 72
72 72 72
56 56 56
56 56 56
44 44 44
44 44 44
44 44 44
44 44 44
44 44 44
44 44 44
44 44 44
44 44 44
44 44 44
44 44 44
44 44 44
44 44 44
44 44 44
32 32 32
32 32 32
32 32 32
32 32 32
32 32 32
32 32 32
32 32 32
32 32 32
32 32 32
32 32 32
32 32 32
44 44 44
56 56 56
72 72 72

72 72 72
168 168 168
220 220 220
168 168 168
168 168 168
168 168 168
180 180 180
180 180 180
140 140 140
168 168 168
192 192 192
220 220 220
220 220 220
220 220 220
220 220 220
220 220 220
220 220 220
220 220 220
220 220 220
220 220 220
220 220 220
220 220 220
220 220 220
208 208 208
208 208 208
192 192 192
192 192 192
168 168 168
168 168 168
168 168 168
168 168 168
168 168 168
140 140 140
72 72 72
84 84 84
72 72 72
56 56 56
56 56 56
56 56 56
56 56 56
56 56 56
56 56 56
56 56 56
56 56 56
56 56 56
44 44 44
44 44 44
44 44 44
44 44 44
44 44 44
44 44 44
44 44 44
44 44 44
44 44 44
44 44 44
44 44 44
44 44 44
44 44 44
44 44 44
44 44 44
56 56 56
56 56 56
72 72 72
72 72 72

72 72 72
168 168 168
220 220 220
168 168 168
140 140 140
168 168 168
124 124 124
124 124 124
168 168 168
152 152 152
140 140 140
124 124 124
168 168 168
140 140 140
168 168 168
140 140 140
168 168 168
140 140 140
168 168 168
168 168 168
140 140 140
168 168 168
140 140 140
168 168 168
168 168 168
180 180 180
192 192 192
220 220 220
220 220 220
220 220 220
208 208 208
192 192 192
124 124 124
56 56 56
72 72 72
84 84 84
72 72 72
220 220 220
220 220 220
220 220 220
220 220 220
220 220 220
220 220 220
220 220 220
220 220 220
220 220 220
220 220 220
220 220 220
220 220 220
220 220 220
220 220 220
220 220 220
220 220 220
220 220 220
220 220 220
220 220 220
220 220 220
220 220 220
220 220 220
220 220 220
220 220 220
220 220 220
72 72 72
84 84 84

72 72 72
168 168 168
208 208 208
168 168 168
168 168 168
168 168 168
152 152 152
168 168 168
140 140 140
152 152 152
140 140 140
152 152 152
168 168 168
140 140 140
140 140 140
168 168 168
124 124 124
124 124 124
140 140 140
168 168 168
124 124 124
140 140 140
140 140 140
140 140 140
168 168 168
140 140 140
168 168 168
140 140 140
168 168 168
168 168 168
168 168 168
124 124 124
100 100 100
32 32 32
56 56 56
84 84 84
72 72 72
168 168 168
220 220 220
220 220 220
168 168 168
168 168 168
168 168 168
168 168 168
140 140 140
168 168 168
140 140 140
168 168 168
152 152 152
168 168 168
140 140 140
168 168 168
168 168 168
140 140 140
168 168 168
140 140 140
168 168 168
152 152 152
168 168 168
140 140 140
220 220 220
220 220 220
84 84 84
84 84 84

72 72 72
168 168 168
192 192 192
168 168 168
140 140 140
168 168 168
124 124 124
124 124 124
152 152 152
168 168 168
140 140 140
168 168 168
168 168 168
152 152 152
140 140 140
124 124 124
168 168 168
124 124 124
140 140 140
124 124 124
152 152 152
140 140 140
168 168 168
140 140 140
168 168 168
140 140 140
168 168 168
140 140 140
168 168 168
168 168 168
168 168 168
100 100 100
84 84 84
32 32 32
56 56 56
72 72 72
72 72 72
220 220 220
168 168 168
168 168 168
220 220 220
140 140 140
168 168 168
140 140 140
168 168 168
168 168 168
168 168 168
140 140 140
168 168 168
140 140 140
168 168 168
168 168 168
140 140 140
168 168 168
168 168 168
168 168 168
140 140 140
168 168 168
140 140 140
168 168 168
124 124 124
124 124 124
72 72 72
84 84 84

72 72 72
168 168 168
140 140 140
100 100 100
100 100 100
100 100 100
100 100 100
100 100 100
100 100 100
100 100 100
100 100 100
100 100 100
100 100 100
100 100 100
100 100 100
100 100 100
100 100 100
100 100 100
100 100 100
100 100 100
100 100 100
100 100 100
100 100 100
100 100 100
100 100 100
100 100 100
100 100 100
100 100 100
100 100 100
100 100 100
100 100 100
84 84 84
84 84 84
56 56 56
32 32 32
56 56 56
72 72 72
220 220 220
180 180 180
180 180 180
180 180 180
152 152 152
152 152 152
140 140 140
168 168 168
152 152 152
152 152 152
168 168 168
152 152 152
168 168 168
168 168 168
152 152 152
168 168 168
168 168 168
152 152 152
152 152 152
168 168 168
152 152 152
168 168 168
168 168 168
220 220 220
152 152 152
32 32 32
84 84 84

72 72 72
140 140 140
100 100 100
56 56 56
56 56 56
56 56 56
56 56 56
56 56 56
56 56 56
56 56 56
56 56 56
56 56 56
56 56 56
56 56 56
56 56 56
56 56 56
56 56 56
56 56 56
56 56 56
56 56 56
56 56 56
56 56 56
56 56 56
56 56 56
56 56 56
56 56 56
56 56 56
56 56 56
56 56 56
56 56 56
56 56 56
56 56 56
56 56 56
56 56 56
32 32 32
44 44 44
72 72 72
180 180 180
168 168 168
180 180 180
180 180 180
152 152 152
152 152 152
168 168 168
168 168 168
140 140 140
152 152 152
168 168 168
140 140 140
140 140 140
168 168 168
140 140 140
168 168 168
168 168 168
168 168 168
140 140 140
168 168 168
140 140 140
168 168 168
140 140 140
168 168 168
84 84 84
32 32 32
84 84 84

72 72 72
56 56 56
32 32 32
32 32 32
32 32 32
32 32 32
32 32 32
32 32 32
32 32 32
32 32 32
32 32 32
32 32 32
32 32 32
32 32 32
32 32 32
32 32 32
32 32 32
32 32 32
32 32 32
32 32 32
32 32 32
32 32 32
32 32 32
32 32 32
32 32 32
32 32 32
32 32 32
32 32 32
32 32 32
32 32 32
32 32 32
32 32 32
32 32 32
32 32 32
32 32 32
44 44 44
72 72 72
56 56 56
72 72 72
56 56 56
84 84 84
100 100 100
100 100 100
100 100 100
124 124 124
124 124 124
152 152 152
168 168 168
168 168 168
152 152 152
152 152 152
168 168 168
168 168 168
152 152 152
152 152 152
168 168 168
152 152 152
168 168 168
168 168 168
140 140 140
140 140 140
84 84 84
32 32 32
84 84 84

84 84 84
72 72 72
56 56 56
56 56 56
56 56 56
44 44 44
44 44 44
44 44 44
44 44 44
44 44 44
44 44 44
44 44 44
44 44 44
44 44 44
44 44 44
44 44 44
44 44 44
44 44 44
44 44 44
44 44 44
44 44 44
44 44 44
44 44 44
44 44 44
44 44 44
44 44 44
44 44 44
44 44 44
44 44 44
44 44 44
44 44 44
44 44 44
44 44 44
44 44 44
44 44 44
44 44 44
56 56 56
84 84 84
84 84 84
56 56 56
56 56 56
32 32 32
32 32 32
32 32 32
32 32 32
32 32 32
56 56 56
84 84 84
84 84 84
84 84 84
84 84 84
84 84 84
84 84 84
84 84 84
84 84 84
84 84 84
84 84 84
84 84 84
84 84 84
84 84 84
84 84 84
84 84 84
32 32 32
84 84 84

84 84 84
84 84 84
84 84 84
84 84 84
72 72 72
72 72 72
72 72 72
72 72 72
72 72 72
72 72 72
72 72 72
72 72 72
56 56 56
56 56 56
56 56 56
56 56 56
56 56 56
56 56 56
56 56 56
56 56 56
56 56 56
56 56 56
56 56 56
56 56 56
56 56 56
56 56 56
56 56 56
56 56 56
56 56 56
56 56 56
56 56 56
56 56 56
56 56 56
56 56 56
56 56 56
56 56 56
56 56 56
84 84 84
84 84 84
84 84 84
84 84 84
56 56 56
56 56 56
56 56 56
56 56 56
56 56 56
56 56 56
32 32 32
32 32 32
32 32 32
32 32 32
32 32 32
32 32 32
32 32 32
32 32 32
32 32 32
32 32 32
32 32 32
32 32 32
32 32 32
32 32 32
32 32 32
32 32 32
84 84 84

56 56 56
56 56 56
56 56 56
56 56 56
56 56 56
56 56 56
56 56 56
56 56 56
56 56 56
56 56 56
56 56 56
56 56 56
56 56 56
56 56 56
56 56 56
56 56 56
56 56 56
56 56 56
56 56 56
56 56 56
56 56 56
56 56 56
56 56 56
56 56 56
56 56 56
56 56 56
56 56 56
56 56 56
56 56 56
56 56 56
56 56 56
56 56 56
56 56 56
56 56 56
56 56 56
56 56 56
56 56 56
56 56 56
56 56 56
56 56 56
56 56 56
56 56 56
56 56 56
56 56 56
56 56 56
56 56 56
56 56 56
56 56 56
56 56 56
56 56 56
56 56 56
56 56 56
56 56 56
56 56 56
56 56 56
56 56 56
56 56 56
56 56 56
56 56 56
56 56 56
56 56 56
56 56 56
56 56 56
56 56 56

