P3
# ASCII PPM file
64 64
255

56 56 56
56 56 56
56 56 56
56 56 56
56 56 56
56 56 56
56 56 56
56 56 56
56 56 56
56 56 56
56 56 56
56 56 56
56 56 56
56 56 56
56 56 56
56 56 56
56 56 56
56 56 56
56 56 56
56 56 56
56 56 56
56 56 56
56 56 56
56 56 56
56 56 56
56 56 56
56 56 56
56 56 56
56 56 56
56 56 56
56 56 56
56 56 56
56 56 56
56 56 56
56 56 56
56 56 56
56 56 56
56 56 56
56 56 56
56 56 56
56 56 56
56 56 56
56 56 56
56 56 56
56 56 56
56 56 56
56 56 56
56 56 56
56 56 56
56 56 56
56 56 56
56 56 56
56 56 56
56 56 56
56 56 56
56 56 56
56 56 56
56 56 56
56 56 56
56 56 56
56 56 56
56 56 56
56 56 56
56 56 56

56 56 56
0 108 108
0 108 108
0 108 108
0 108 108
0 108 108
0 108 108
0 108 108
0 108 108
0 108 108
0 108 108
0 108 108
0 108 108
0 108 108
0 108 108
0 108 108
0 108 108
0 108 108
0 108 108
0 108 108
0 108 108
0 108 108
0 108 108
0 108 108
0 108 108
0 108 108
0 108 108
0 108 108
0 108 108
0 108 108
0 108 108
0 108 108
0 108 108
0 108 108
0 108 108
0 108 108
0 108 108
0 108 108
0 108 108
0 108 108
0 108 108
0 108 108
0 108 108
0 108 108
0 108 108
0 108 108
0 108 108
0 108 108
0 108 108
0 108 108
0 108 108
0 108 108
0 108 108
0 108 108
0 108 108
0 108 108
0 108 108
0 108 108
0 108 108
0 108 108
0 108 108
0 108 108
0 108 108
56 56 56

56 56 56
0 124 124
0 116 116
0 116 116
0 112 112
0 108 108
0 88 88
0 124 124
0 112 112
0 112 112
0 112 112
0 112 112
0 112 112
0 108 108
0 88 88
0 124 124
0 116 116
0 112 112
0 112 112
0 112 112
0 112 112
0 108 108
0 88 88
0 124 124
0 112 112
0 112 112
0 112 112
0 112 112
0 112 112
0 108 108
0 88 88
0 124 124
0 112 112
0 112 112
0 112 112
0 112 112
0 112 112
0 108 108
0 88 88
0 124 124
0 112 112
0 112 112
0 112 112
0 112 112
0 112 112
0 108 108
0 88 88
0 124 124
0 112 112
0 112 112
0 112 112
0 112 112
0 112 112
0 108 108
0 88 88
0 124 124
0 112 112
0 112 112
0 112 112
0 112 112
0 112 112
0 112 112
0 108 108
56 56 56

56 56 56
0 124 124
0 124 124
0 124 124
0 124 124
0 108 108
0 64 64
0 88 88
0 124 124
0 124 124
0 124 124
0 124 124
0 124 124
0 108 108
0 64 64
0 88 88
0 124 124
0 124 124
0 124 124
0 124 124
0 124 124
0 108 108
0 64 64
0 88 88
0 124 124
0 124 124
0 124 124
0 124 124
0 124 124
0 108 108
0 64 64
0 88 88
0 132 132
0 132 132
0 140 140
0 140 140
0 124 124
0 108 108
0 64 64
0 88 88
0 140 140
0 140 140
0 140 140
0 124 124
0 124 124
0 108 108
0 64 64
0 88 88
0 124 124
0 124 124
0 124 124
0 124 124
0 124 124
0 108 108
0 64 64
0 88 88
0 124 124
0 116 116
0 112 112
0 112 112
0 116 116
0 112 112
0 108 108
56 56 56

56 56 56
0 124 124
0 124 124
0 124 124
0 124 124
0 108 108
0 108 108
0 112 112
0 124 124
0 124 124
0 124 124
0 124 124
0 124 124
0 108 108
0 108 108
0 112 112
0 124 124
0 124 124
0 124 124
0 124 124
0 124 124
0 108 108
0 108 108
0 112 112
0 124 124
0 124 124
0 124 124
0 124 124
0 124 124
0 108 108
0 108 108
0 112 112
0 132 132
0 140 140
0 152 152
0 164 164
0 124 124
0 108 108
0 108 108
0 112 112
0 140 140
0 140 140
0 124 124
0 124 124
0 124 124
0 108 108
0 108 108
0 112 112
0 124 124
0 124 124
0 124 124
0 124 124
0 124 124
0 108 108
0 108 108
0 112 112
0 116 116
0 112 112
0 112 112
0 112 112
0 116 116
0 112 112
0 108 108
56 56 56

56 56 56
0 124 124
0 124 124
0 124 124
0 124 124
0 88 88
0 64 64
0 64 64
0 64 64
0 64 64
0 64 64
0 64 64
0 64 64
0 64 64
0 64 64
0 64 64
0 64 64
0 64 64
0 64 64
0 64 64
0 64 64
0 64 64
0 64 64
0 64 64
0 64 64
0 64 64
0 64 64
0 64 64
0 64 64
0 64 64
0 64 64
0 64 64
0 64 64
0 64 64
0 64 64
0 64 64
0 64 64
0 64 64
0 64 64
0 64 64
0 64 64
0 64 64
0 64 64
0 64 64
0 64 64
0 64 64
0 64 64
0 64 64
0 64 64
0 64 64
0 64 64
0 64 64
0 64 64
0 64 64
0 64 64
0 64 64
0 64 64
0 64 64
0 112 112
0 116 116
0 116 116
0 112 112
0 108 108
56 56 56

56 56 56
0 124 124
0 124 124
0 124 124
0 124 124
0 124 124
0 88 88
0 88 88
0 88 88
0 88 88
0 88 88
0 88 88
0 88 88
0 88 88
0 88 88
0 88 88
0 88 88
0 88 88
0 88 88
0 88 88
0 88 88
0 88 88
0 88 88
0 88 88
0 88 88
0 88 88
0 88 88
0 88 88
0 88 88
0 88 88
0 88 88
0 88 88
0 88 88
0 88 88
0 88 88
0 88 88
0 88 88
0 88 88
0 88 88
0 88 88
0 88 88
0 88 88
0 88 88
0 88 88
0 88 88
0 88 88
0 88 88
0 88 88
0 88 88
0 88 88
0 88 88
0 88 88
0 88 88
0 88 88
0 88 88
0 88 88
0 88 88
0 64 64
0 112 112
0 116 116
0 116 116
0 112 112
0 108 108
56 56 56

56 56 56
0 116 116
0 88 88
32 176 176
0 124 124
0 140 140
0 124 124
0 112 112
0 112 112
0 112 112
0 112 112
0 112 112
0 112 112
0 112 112
0 112 112
0 112 112
0 112 112
0 112 112
0 112 112
0 112 112
0 112 112
0 112 112
0 112 112
0 112 112
0 112 112
0 112 112
0 112 112
0 112 112
0 112 112
0 112 112
0 112 112
0 112 112
0 112 112
0 112 112
0 112 112
0 112 112
0 112 112
0 112 112
0 112 112
0 112 112
0 112 112
0 112 112
0 112 112
0 112 112
0 112 112
0 112 112
0 112 112
0 112 112
0 112 112
0 112 112
0 112 112
0 112 112
0 112 112
0 112 112
0 112 112
0 112 112
0 88 88
0 64 64
0 116 116
0 88 88
0 152 152
0 112 112
0 108 108
56 56 56

56 56 56
0 108 108
0 64 64
0 88 88
0 124 124
0 140 140
0 132 132
0 120 120
0 120 120
0 120 120
0 120 120
0 120 120
0 120 120
0 120 120
0 120 120
0 120 120
0 120 120
0 120 120
0 124 124
0 120 120
0 124 124
0 120 120
0 124 124
0 120 120
0 124 124
0 124 124
0 132 132
0 124 124
0 132 132
0 132 132
0 132 132
0 132 132
0 132 132
0 140 140
0 132 132
0 140 140
0 132 132
0 140 140
0 132 132
0 140 140
0 132 132
0 132 132
0 132 132
0 132 132
0 124 124
0 124 124
0 124 124
0 120 120
0 120 120
0 120 120
0 120 120
0 120 120
0 116 116
0 116 116
0 116 116
0 112 112
0 88 88
0 64 64
0 108 108
0 64 64
0 88 88
0 112 112
0 108 108
56 56 56

56 56 56
0 108 108
0 108 108
0 112 112
0 124 124
0 140 140
0 140 140
0 120 120
0 120 120
0 120 120
0 120 120
0 120 120
0 120 120
0 120 120
0 120 120
0 120 120
0 120 120
0 124 124
0 120 120
0 124 124
0 120 120
0 124 124
0 124 124
0 124 124
0 124 124
0 132 132
0 124 124
0 132 132
0 132 132
0 132 132
0 140 140
0 132 132
0 140 140
0 132 132
0 140 140
0 140 140
0 140 140
0 132 132
0 140 140
0 132 132
0 132 132
0 132 132
0 132 132
0 124 124
0 124 124
0 124 124
0 120 120
0 120 120
0 120 120
0 120 120
0 120 120
0 116 116
0 116 116
0 116 116
0 116 116
0 112 112
0 88 88
0 64 64
0 108 108
0 108 108
0 112 112
0 112 112
0 108 108
56 56 56

56 56 56
0 120 120
0 120 120
0 124 124
0 124 124
0 140 140
0 132 132
0 120 120
0 120 120
0 120 120
0 120 120
0 120 120
0 120 120
0 120 120
0 124 124
0 120 120
0 124 124
0 120 120
0 124 124
0 120 120
0 124 124
0 124 124
0 132 132
0 124 124
0 132 132
0 132 132
0 132 132
0 132 132
0 132 132
0 140 140
0 132 132
0 140 140
0 132 132
0 140 140
0 140 140
0 140 140
0 132 132
0 140 140
0 132 132
0 132 132
0 132 132
0 132 132
0 124 124
0 124 124
0 124 124
0 120 120
0 120 120
0 120 120
0 120 120
0 120 120
0 116 116
0 120 120
0 116 116
0 116 116
0 116 116
0 112 112
0 88 88
0 64 64
0 116 116
0 120 120
0 120 120
0 112 112
0 108 108
56 56 56

56 56 56
0 124 124
0 124 124
0 124 124
0 124 124
0 152 152
0 140 140
0 120 120
0 120 120
0 120 120
0 120 120
0 124 124
0 120 120
0 124 124
0 120 120
0 124 124
0 120 120
0 124 124
0 124 124
0 124 124
0 124 124
0 132 132
0 124 124
0 132 132
0 132 132
0 132 132
0 140 140
0 132 132
0 140 140
0 132 132
0 140 140
0 132 132
0 140 140
0 140 140
0 140 140
0 132 132
0 140 140
0 132 132
0 132 132
0 132 132
0 132 132
0 124 124
0 124 124
0 124 124
0 120 120
0 124 124
0 120 120
0 120 120
0 120 120
0 116 116
0 120 120
0 116 116
0 116 116
0 116 116
0 116 116
0 112 112
0 88 88
0 64 64
0 116 116
0 120 120
0 120 120
0 112 112
0 108 108
56 56 56

56 56 56
0 124 124
0 124 124
0 124 124
0 124 124
0 152 152
0 132 132
0 120 120
0 120 120
0 120 120
0 124 124
0 120 120
0 124 124
0 120 120
0 124 124
0 120 120
0 124 124
0 124 124
0 132 132
0 124 124
0 132 132
0 124 124
0 132 132
0 132 132
0 132 132
0 140 140
0 132 132
0 140 140
0 132 132
0 140 140
0 132 132
0 140 140
0 140 140
0 140 140
0 132 132
0 140 140
0 132 132
0 132 132
0 132 132
0 132 132
0 124 124
0 124 124
0 124 124
0 120 120
0 124 124
0 120 120
0 120 120
0 120 120
0 116 116
0 120 120
0 116 116
0 116 116
0 116 116
0 116 116
0 116 116
0 112 112
0 88 88
0 64 64
0 116 116
0 120 120
0 124 124
0 112 112
0 108 108
56 56 56

56 56 56
0 124 124
0 124 124
0 124 124
0 124 124
0 152 152
0 140 140
0 124 124
0 120 120
0 124 124
0 120 120
0 124 124
0 120 120
0 124 124
0 124 124
0 124 124
0 124 124
0 132 132
0 124 124
0 132 132
0 132 132
0 132 132
0 132 132
0 132 132
0 140 140
0 132 132
0 140 140
0 132 132
0 140 140
0 132 132
0 140 140
0 140 140
0 140 140
0 132 132
0 140 140
0 132 132
0 132 132
0 132 132
0 132 132
0 124 124
0 124 124
0 124 124
0 120 120
0 124 124
0 120 120
0 120 120
0 120 120
0 116 116
0 120 120
0 116 116
0 116 116
0 116 116
0 116 116
0 116 116
0 116 116
0 112 112
0 88 88
0 64 64
0 120 120
0 120 120
0 124 124
0 112 112
0 108 108
56 56 56

56 56 56
0 124 124
0 124 124
0 124 124
0 124 124
0 152 152
0 132 132
0 120 120
0 124 124
0 120 120
0 124 124
0 124 124
0 124 124
0 124 124
0 132 132
0 124 124
0 132 132
0 124 124
0 132 132
0 132 132
0 132 132
0 132 132
0 132 132
0 140 140
0 132 132
0 140 140
0 132 132
0 140 140
0 140 140
0 140 140
0 140 140
0 140 140
0 132 132
0 140 140
0 132 132
0 132 132
0 132 132
0 132 132
0 124 124
0 124 124
0 124 124
0 120 120
0 124 124
0 120 120
0 120 120
0 120 120
0 116 116
0 120 120
0 116 116
0 116 116
0 116 116
0 116 116
0 116 116
0 116 116
0 112 112
0 112 112
0 88 88
0 64 64
0 120 120
0 124 124
0 124 124
0 112 112
0 108 108
56 56 56

56 56 56
0 116 116
0 88 88
32 176 176
0 124 124
0 152 152
0 140 140
0 124 124
0 120 120
0 124 124
0 124 124
0 124 124
0 124 124
0 132 132
0 124 124
0 132 132
0 124 124
0 132 132
0 132 132
0 132 132
0 132 132
0 132 132
0 140 140
0 132 132
0 140 140
0 132 132
0 140 140
0 140 140
0 140 140
0 140 140
0 140 140
0 132 132
0 140 140
0 132 132
0 132 132
0 132 132
0 132 132
0 124 124
0 124 124
0 124 124
0 120 120
0 124 124
0 120 120
0 120 120
0 120 120
0 116 116
0 120 120
0 116 116
0 116 116
0 116 116
0 116 116
0 116 116
0 116 116
0 112 112
0 116 116
0 112 112
0 88 88
0 64 64
0 116 116
0 88 88
0 152 152
0 112 112
0 108 108
56 56 56

56 56 56
0 108 108
0 64 64
0 88 88
0 124 124
0 152 152
0 132 132
0 124 124
0 124 124
0 124 124
0 132 132
0 124 124
0 132 132
0 124 124
0 132 132
0 132 132
0 132 132
0 132 132
0 132 132
0 140 140
0 132 132
0 140 140
0 132 132
0 140 140
0 132 132
0 140 140
0 140 140
0 140 140
0 140 140
0 140 140
0 132 132
0 140 140
0 132 132
0 132 132
0 132 132
0 132 132
0 124 124
0 124 124
0 124 124
0 124 124
0 124 124
0 120 120
0 120 120
0 120 120
0 120 120
0 120 120
0 116 116
0 116 116
0 116 116
0 116 116
0 116 116
0 116 116
0 112 112
0 116 116
0 112 112
0 112 112
0 88 88
0 64 64
0 108 108
0 64 64
0 88 88
0 112 112
0 108 108
56 56 56

56 56 56
0 108 108
0 108 108
0 112 112
0 124 124
0 152 152
0 140 140
0 124 124
0 124 124
0 132 132
0 124 124
0 132 132
0 124 124
0 132 132
0 132 132
0 132 132
0 132 132
0 132 132
0 140 140
0 132 132
0 140 140
0 132 132
0 140 140
0 132 132
0 140 140
0 140 140
0 140 140
0 140 140
0 140 140
0 132 132
0 140 140
0 132 132
0 132 132
0 132 132
0 132 132
0 124 124
0 132 132
0 124 124
0 124 124
0 124 124
0 120 120
0 120 120
0 120 120
0 120 120
0 120 120
0 116 116
0 116 116
0 116 116
0 116 116
0 116 116
0 116 116
0 112 112
0 116 116
0 112 112
0 112 112
0 112 112
0 88 88
0 64 64
0 108 108
0 108 108
0 112 112
0 112 112
0 108 108
56 56 56

56 56 56
0 120 120
0 120 120
0 124 124
0 124 124
0 152 152
0 132 132
0 124 124
0 132 132
0 124 124
0 132 132
0 124 124
0 132 132
0 132 132
0 132 132
0 132 132
0 132 132
0 140 140
0 132 132
0 140 140
0 132 132
0 140 140
0 132 132
0 140 140
0 140 140
0 140 140
0 140 140
0 140 140
0 132 132
0 140 140
0 132 132
0 132 132
0 132 132
0 132 132
0 124 124
0 132 132
0 124 124
0 124 124
0 124 124
0 120 120
0 120 120
0 120 120
0 120 120
0 120 120
0 116 116
0 120 120
0 116 116
0 116 116
0 116 116
0 116 116
0 116 116
0 116 116
0 112 112
0 112 112
0 112 112
0 108 108
0 88 88
0 64 64
0 120 120
0 120 120
0 124 124
0 112 112
0 108 108
56 56 56

56 56 56
0 124 124
0 124 124
0 124 124
0 124 124
0 152 152
0 140 140
0 132 132
0 124 124
0 132 132
0 132 132
0 132 132
0 132 132
0 132 132
0 132 132
0 132 132
0 140 140
0 132 132
0 140 140
0 132 132
0 140 140
0 132 132
0 140 140
0 140 140
0 140 140
0 140 140
0 140 140
0 132 132
0 140 140
0 132 132
0 132 132
0 132 132
0 132 132
0 124 124
0 132 132
0 124 124
0 124 124
0 124 124
0 120 120
0 120 120
0 120 120
0 120 120
0 120 120
0 116 116
0 120 120
0 116 116
0 116 116
0 116 116
0 116 116
0 116 116
0 116 116
0 112 112
0 116 116
0 112 112
0 108 108
0 112 112
0 88 88
0 64 64
0 120 120
0 124 124
0 124 124
0 112 112
0 108 108
56 56 56

56 56 56
0 124 124
0 124 124
0 124 124
0 124 124
0 164 164
0 132 132
0 124 124
0 132 132
0 132 132
0 132 132
0 132 132
0 132 132
0 132 132
0 132 132
0 140 140
0 132 132
0 140 140
0 132 132
0 140 140
0 140 140
0 140 140
0 140 140
0 140 140
0 140 140
0 140 140
0 132 132
0 140 140
0 132 132
0 140 140
0 132 132
0 132 132
0 124 124
0 132 132
0 124 124
0 124 124
0 124 124
0 120 120
0 120 120
0 120 120
0 120 120
0 120 120
0 116 116
0 120 120
0 116 116
0 116 116
0 116 116
0 116 116
0 116 116
0 116 116
0 112 112
0 116 116
0 112 112
0 112 112
0 108 108
0 116 116
0 88 88
0 64 64
0 120 120
0 124 124
0 124 124
0 112 112
0 108 108
56 56 56

56 56 56
0 124 124
0 124 124
0 124 124
0 124 124
0 164 164
0 140 140
0 132 132
0 132 132
0 132 132
0 132 132
0 132 132
0 140 140
0 132 132
0 140 140
0 132 132
0 140 140
0 132 132
0 140 140
0 140 140
0 140 140
0 140 140
0 140 140
0 140 140
0 140 140
0 132 132
0 140 140
0 132 132
0 140 140
0 132 132
0 132 132
0 124 124
0 132 132
0 124 124
0 124 124
0 124 124
0 120 120
0 124 124
0 120 120
0 120 120
0 120 120
0 116 116
0 120 120
0 116 116
0 116 116
0 116 116
0 116 116
0 116 116
0 116 116
0 112 112
0 116 116
0 112 112
0 108 108
0 108 108
0 108 108
0 112 112
0 88 88
0 64 64
0 124 124
0 124 124
0 124 124
0 112 112
0 108 108
56 56 56

56 56 56
0 124 124
0 124 124
0 124 124
0 124 124
0 164 164
0 132 132
0 132 132
0 132 132
0 132 132
0 132 132
0 140 140
0 132 132
0 140 140
0 132 132
0 140 140
0 140 140
0 140 140
0 140 140
0 140 140
0 140 140
0 140 140
0 140 140
0 140 140
0 132 132
0 140 140
0 132 132
0 140 140
0 132 132
0 132 132
0 124 124
0 132 132
0 124 124
0 124 124
0 124 124
0 120 120
0 124 124
0 120 120
0 120 120
0 120 120
0 120 120
0 120 120
0 116 116
0 116 116
0 116 116
0 116 116
0 116 116
0 116 116
0 112 112
0 116 116
0 112 112
0 108 108
0 112 112
0 108 108
0 112 112
0 116 116
0 88 88
0 64 64
0 124 124
0 124 124
0 124 124
0 112 112
0 108 108
56 56 56

56 56 56
0 116 116
0 88 88
32 176 176
0 124 124
0 164 164
0 140 140
0 132 132
0 132 132
0 132 132
0 140 140
0 132 132
0 140 140
0 132 132
0 140 140
0 140 140
0 140 140
0 140 140
0 140 140
0 132 132
0 140 140
0 140 140
0 140 140
0 132 132
0 140 140
0 132 132
0 140 140
0 132 132
0 132 132
0 124 124
0 132 132
0 124 124
0 124 124
0 124 124
0 120 120
0 124 124
0 120 120
0 120 120
0 120 120
0 120 120
0 120 120
0 116 116
0 116 116
0 116 116
0 116 116
0 116 116
0 116 116
0 112 112
0 116 116
0 112 112
0 108 108
0 112 112
0 108 108
0 112 112
0 108 108
0 112 112
0 88 88
0 64 64
0 116 116
0 88 88
0 152 152
0 112 112
0 108 108
56 56 56

56 56 56
0 108 108
0 64 64
0 88 88
0 124 124
0 164 164
0 132 132
0 132 132
0 132 132
0 140 140
0 132 132
0 140 140
0 132 132
0 140 140
0 140 140
0 140 140
0 140 140
0 140 140
0 132 132
0 140 140
0 140 140
0 140 140
0 132 132
0 140 140
0 132 132
0 140 140
0 132 132
0 132 132
0 124 124
0 132 132
0 124 124
0 124 124
0 124 124
0 120 120
0 124 124
0 120 120
0 120 120
0 120 120
0 120 120
0 120 120
0 116 116
0 116 116
0 116 116
0 116 116
0 116 116
0 116 116
0 116 116
0 116 116
0 112 112
0 108 108
0 112 112
0 108 108
0 108 108
0 108 108
0 112 112
0 112 112
0 88 88
0 64 64
0 108 108
0 64 64
0 88 88
0 112 112
0 108 108
56 56 56

56 56 56
0 108 108
0 108 108
0 112 112
0 124 124
0 164 164
0 140 140
0 132 132
0 140 140
0 132 132
0 140 140
0 132 132
0 140 140
0 140 140
0 140 140
0 140 140
0 140 140
0 132 132
0 140 140
0 140 140
0 140 140
0 132 132
0 140 140
0 132 132
0 140 140
0 132 132
0 132 132
0 124 124
0 132 132
0 124 124
0 124 124
0 124 124
0 120 120
0 124 124
0 120 120
0 120 120
0 120 120
0 120 120
0 120 120
0 116 116
0 116 116
0 116 116
0 116 116
0 116 116
0 116 116
0 116 116
0 116 116
0 112 112
0 116 116
0 112 112
0 108 108
0 108 108
0 108 108
0 112 112
0 116 116
0 112 112
0 88 88
0 64 64
0 108 108
0 108 108
0 112 112
0 112 112
0 108 108
56 56 56

56 56 56
0 120 120
0 120 120
0 124 124
0 124 124
0 164 164
0 132 132
0 140 140
0 132 132
0 140 140
0 140 140
0 140 140
0 140 140
0 140 140
0 140 140
0 140 140
0 132 132
0 140 140
0 140 140
0 140 140
0 132 132
0 140 140
0 132 132
0 140 140
0 132 132
0 132 132
0 124 124
0 132 132
0 124 124
0 124 124
0 124 124
0 124 124
0 124 124
0 120 120
0 120 120
0 120 120
0 120 120
0 120 120
0 116 116
0 120 120
0 116 116
0 116 116
0 116 116
0 116 116
0 116 116
0 116 116
0 112 112
0 116 116
0 112 112
0 108 108
0 108 108
0 108 108
0 112 112
0 112 112
0 112 112
0 112 112
0 88 88
0 64 64
0 120 120
0 120 120
0 120 120
0 112 112
0 108 108
56 56 56

56 56 56
0 124 124
0 124 124
0 124 124
0 124 124
32 176 176
0 140 140
0 132 132
0 140 140
0 140 140
0 140 140
0 140 140
0 140 140
0 140 140
0 140 140
140 140 140
180 180 180
180 180 180
180 180 180
180 180 180
180 180 180
180 180 180
180 180 180
168 168 168
168 168 168
0 124 124
0 132 132
0 124 124
0 124 124
0 124 124
0 124 124
0 124 124
0 120 120
0 120 120
0 120 120
0 120 120
0 120 120
0 116 116
0 120 120
0 116 116
0 116 116
0 116 116
0 116 116
0 116 116
0 116 116
0 112 112
0 116 116
0 112 112
0 108 108
0 112 112
0 108 108
0 112 112
0 108 108
0 112 112
0 116 116
0 112 112
0 88 88
0 64 64
0 124 124
0 120 120
0 120 120
0 112 112
0 108 108
56 56 56

56 56 56
0 124 124
0 124 124
0 132 132
0 132 132
32 176 176
0 132 132
0 140 140
0 140 140
0 140 140
0 140 140
0 140 140
0 140 140
0 140 140
0 124 124
100 100 100
72 72 72
84 84 84
84 84 84
100 100 100
100 100 100
112 112 112
124 124 124
140 140 140
168 168 168
0 132 132
0 124 124
0 124 124
0 124 124
0 124 124
0 124 124
0 120 120
0 120 120
0 120 120
0 120 120
0 120 120
0 116 116
0 120 120
0 116 116
0 116 116
0 116 116
0 116 116
0 116 116
0 116 116
0 112 112
0 116 116
0 112 112
0 108 108
0 112 112
0 108 108
0 108 108
0 108 108
0 112 112
0 116 116
0 112 112
0 112 112
0 88 88
0 64 64
0 120 120
0 120 120
0 116 116
0 112 112
0 108 108
56 56 56

56 56 56
0 124 124
0 132 132
0 132 132
0 132 132
32 176 176
0 140 140
0 140 140
0 140 140
156 156 0
204 196 0
228 216 0
0 140 140
0 124 124
0 108 108
32 32 32
72 72 72
32 32 32
140 140 140
84 84 84
100 100 100
56 56 56
180 180 180
124 124 124
152 152 152
0 124 124
0 124 124
0 124 124
0 124 124
0 124 124
0 120 120
0 120 120
0 120 120
0 120 120
0 120 120
0 116 116
0 120 120
0 116 116
0 116 116
0 116 116
0 116 116
0 116 116
0 116 116
0 112 112
0 116 116
0 112 112
0 112 112
0 112 112
0 108 108
0 108 108
0 108 108
0 112 112
0 116 116
0 112 112
0 116 116
0 112 112
0 88 88
0 64 64
0 120 120
0 116 116
0 108 108
0 112 112
0 108 108
56 56 56

56 56 56
0 132 132
0 132 132
0 132 132
0 132 132
32 176 176
0 140 140
0 140 140
0 120 120
64 64 0
88 84 0
228 216 0
0 132 132
0 120 120
0 108 108
32 32 32
72 72 72
72 72 72
72 72 72
84 84 84
84 84 84
100 100 100
100 100 100
112 112 112
152 152 152
0 124 124
0 124 124
0 124 124
0 124 124
0 120 120
0 124 124
0 120 120
0 120 120
0 120 120
0 116 116
0 120 120
0 116 116
0 116 116
0 116 116
0 116 116
0 116 116
0 116 116
0 116 116
0 116 116
0 112 112
0 116 116
0 112 112
0 108 108
0 108 108
0 108 108
0 112 112
0 112 112
0 112 112
0 116 116
0 116 116
0 112 112
0 88 88
0 64 64
0 120 120
0 112 112
0 108 108
0 112 112
0 108 108
56 56 56

56 56 56
0 116 116
0 88 88
32 176 176
0 132 132
32 176 176
0 140 140
0 120 120
0 108 108
64 64 0
88 84 0
204 196 0
0 140 140
0 112 112
0 108 108
32 32 32
72 72 72
72 72 72
72 72 72
72 72 72
84 84 84
84 84 84
100 100 100
100 100 100
152 152 152
0 124 124
0 124 124
0 124 124
0 120 120
0 124 124
0 120 120
0 120 120
0 120 120
0 120 120
0 120 120
0 116 116
0 116 116
0 116 116
0 116 116
0 116 116
0 116 116
0 116 116
0 116 116
0 112 112
0 116 116
0 112 112
0 108 108
0 108 108
0 108 108
0 112 112
0 108 108
0 112 112
0 116 116
0 112 112
0 116 116
0 112 112
0 88 88
0 64 64
0 112 112
0 88 88
0 132 132
0 112 112
0 108 108
56 56 56

56 56 56
0 108 108
0 64 64
0 88 88
0 132 132
32 176 176
0 132 132
0 108 108
0 112 112
64 64 0
88 84 0
204 196 0
0 132 132
0 112 112
0 108 108
32 32 32
72 72 72
72 72 72
72 72 72
72 72 72
72 72 72
84 84 84
84 84 84
100 100 100
140 140 140
0 124 124
0 124 124
0 120 120
0 124 124
0 120 120
0 120 120
0 120 120
0 120 120
0 120 120
0 116 116
0 116 116
0 116 116
0 116 116
0 116 116
0 116 116
0 116 116
0 116 116
0 112 112
0 116 116
0 112 112
0 108 108
0 112 112
0 108 108
0 108 108
0 108 108
0 112 112
0 116 116
0 112 112
0 116 116
0 116 116
0 112 112
0 88 88
0 64 64
0 108 108
72 72 72
0 88 88
0 112 112
0 108 108
56 56 56

56 56 56
0 108 108
0 108 108
0 112 112
0 140 140
0 152 152
0 124 124
0 108 108
0 164 164
64 64 0
88 84 0
204 196 0
0 140 140
0 112 112
0 108 108
32 32 32
56 56 56
32 32 32
88 84 0
180 172 0
180 172 0
228 216 0
84 84 84
84 84 84
140 140 140
0 124 124
0 120 120
0 124 124
0 120 120
0 120 120
0 120 120
0 120 120
0 120 120
0 116 116
0 116 116
0 116 116
0 116 116
0 116 116
0 116 116
0 116 116
0 116 116
0 112 112
0 116 116
0 112 112
0 108 108
0 112 112
0 108 108
0 108 108
0 108 108
0 112 112
0 116 116
0 112 112
0 116 116
0 116 116
0 116 116
0 112 112
0 88 88
0 64 64
0 108 108
0 108 108
0 112 112
0 112 112
0 108 108
56 56 56

56 56 56
0 120 120
0 120 120
0 140 140
0 152 152
0 152 152
0 116 116
0 108 108
0 152 152
64 64 0
88 84 0
180 172 0
0 132 132
0 112 112
0 108 108
32 32 32
32 32 32
32 32 32
88 84 0
0 0 0
0 0 0
180 172 0
72 72 72
84 84 84
140 140 140
0 120 120
0 124 124
0 120 120
0 120 120
0 120 120
0 120 120
0 120 120
0 116 116
0 120 120
0 116 116
0 116 116
0 116 116
0 116 116
0 116 116
0 116 116
0 112 112
0 116 116
0 112 112
0 112 112
0 112 112
0 108 108
0 108 108
0 108 108
0 112 112
0 112 112
0 112 112
0 116 116
0 112 112
0 116 116
0 116 116
0 112 112
0 88 88
0 64 64
0 108 108
0 108 108
0 116 116
0 112 112
0 108 108
56 56 56

56 56 56
0 140 140
0 152 152
0 152 152
0 164 164
0 132 132
0 116 116
0 108 108
0 152 152
64 64 0
88 84 0
180 172 0
0 140 140
0 112 112
0 108 108
32 32 32
32 32 32
32 32 32
88 84 0
0 0 0
0 0 0
180 172 0
72 72 72
72 72 72
140 140 140
0 124 124
0 120 120
0 120 120
0 120 120
0 120 120
0 120 120
0 116 116
0 120 120
0 116 116
0 116 116
0 116 116
0 116 116
0 116 116
0 116 116
0 112 112
0 116 116
0 112 112
0 112 112
0 112 112
0 108 108
0 108 108
0 108 108
0 112 112
0 112 112
0 112 112
0 116 116
0 112 112
0 116 116
0 116 116
0 116 116
0 112 112
0 88 88
0 64 64
0 108 108
0 112 112
0 116 116
0 112 112
0 108 108
56 56 56

56 56 56
0 152 152
0 152 152
0 164 164
0 164 164
0 132 132
0 116 116
0 108 108
0 152 152
64 64 0
88 84 0
180 172 0
0 132 132
0 112 112
0 108 108
32 32 32
32 32 32
32 32 32
64 64 0
32 32 32
32 32 32
180 172 0
72 72 72
72 72 72
140 140 140
0 120 120
0 120 120
0 120 120
0 120 120
0 120 120
0 116 116
0 120 120
0 116 116
0 116 116
0 116 116
0 116 116
0 116 116
0 116 116
0 112 112
0 116 116
0 112 112
0 116 116
0 112 112
0 108 108
0 112 112
0 108 108
0 108 108
0 108 108
0 112 112
0 116 116
0 112 112
0 116 116
0 116 116
0 116 116
0 116 116
0 112 112
0 88 88
0 64 64
0 108 108
0 112 112
0 120 120
0 112 112
0 108 108
56 56 56

56 56 56
0 152 152
0 164 164
0 164 164
32 176 176
0 124 124
0 116 116
0 108 108
0 140 140
64 64 0
88 84 0
156 156 0
0 140 140
0 112 112
0 108 108
32 32 32
32 32 32
32 32 32
64 64 0
64 64 0
88 84 0
88 84 0
72 72 72
72 72 72
140 140 140
0 120 120
0 120 120
0 120 120
0 120 120
0 116 116
0 120 120
0 116 116
0 116 116
0 116 116
0 116 116
0 116 116
0 116 116
0 116 116
0 116 116
0 112 112
0 116 116
0 112 112
0 108 108
0 112 112
0 108 108
0 108 108
0 108 108
0 112 112
0 112 112
0 112 112
0 116 116
0 112 112
0 116 116
0 116 116
0 116 116
0 112 112
0 88 88
0 64 64
0 108 108
0 112 112
0 120 120
0 112 112
0 108 108
56 56 56

56 56 56
0 164 164
32 176 176
32 176 176
32 176 176
0 124 124
0 116 116
0 108 108
0 140 140
64 64 0
88 84 0
156 156 0
0 132 132
0 112 112
0 108 108
32 32 32
32 32 32
32 32 32
32 32 32
32 32 32
32 32 32
32 32 32
72 72 72
72 72 72
124 124 124
0 120 120
0 120 120
0 120 120
0 116 116
0 120 120
0 116 116
0 116 116
0 116 116
0 116 116
0 116 116
0 116 116
0 116 116
0 116 116
0 112 112
0 116 116
0 112 112
0 108 108
0 112 112
0 108 108
0 108 108
0 108 108
0 112 112
0 112 112
0 112 112
0 116 116
0 112 112
0 116 116
0 116 116
0 116 116
0 116 116
0 112 112
0 88 88
0 64 64
0 112 112
0 116 116
0 124 124
0 112 112
0 108 108
56 56 56

56 56 56
0 152 152
0 132 132
116 200 200
32 176 176
0 124 124
0 116 116
0 108 108
0 140 140
64 64 0
88 84 0
88 84 0
0 140 140
0 112 112
0 108 108
32 32 32
32 32 32
32 32 32
32 32 32
32 32 32
32 32 32
32 32 32
72 72 72
72 72 72
124 124 124
0 120 120
0 120 120
0 116 116
0 120 120
0 116 116
0 116 116
0 116 116
0 116 116
0 116 116
0 116 116
0 116 116
0 116 116
0 112 112
0 116 116
0 112 112
0 112 112
0 112 112
0 108 108
0 108 108
0 108 108
0 112 112
0 112 112
0 112 112
0 116 116
0 112 112
0 116 116
0 116 116
0 116 116
0 116 116
0 116 116
0 112 112
0 88 88
0 64 64
0 112 112
0 88 88
0 152 152
0 112 112
0 108 108
56 56 56

56 56 56
0 124 124
0 64 64
0 132 132
32 176 176
0 124 124
0 116 116
0 108 108
0 112 112
0 108 108
64 64 0
88 84 0
0 132 132
0 112 112
0 108 108
32 32 32
32 32 32
32 32 32
32 32 32
32 32 32
56 56 56
72 72 72
72 72 72
72 72 72
124 124 124
0 120 120
0 120 120
0 120 120
0 116 116
0 116 116
0 116 116
0 116 116
0 116 116
0 116 116
0 116 116
0 116 116
0 112 112
0 116 116
0 112 112
0 112 112
0 112 112
0 108 108
0 108 108
0 108 108
0 112 112
0 108 108
0 112 112
0 116 116
0 112 112
0 116 116
0 112 112
0 116 116
0 116 116
0 116 116
0 116 116
0 112 112
0 88 88
0 64 64
0 108 108
0 64 64
0 88 88
0 112 112
0 108 108
56 56 56

56 56 56
0 124 124
0 124 124
0 152 152
32 176 176
0 132 132
0 116 116
0 108 108
0 108 108
0 108 108
0 108 108
0 132 132
0 132 132
0 112 112
0 108 108
32 32 32
32 32 32
32 32 32
84 84 84
56 56 56
72 72 72
32 32 32
112 112 112
72 72 72
112 112 112
0 120 120
0 120 120
0 116 116
0 120 120
0 116 116
0 116 116
0 116 116
0 116 116
0 116 116
0 116 116
0 112 112
0 116 116
0 112 112
0 116 116
0 112 112
0 108 108
0 112 112
0 108 108
0 108 108
0 108 108
0 112 112
0 112 112
0 112 112
0 116 116
0 112 112
0 116 116
0 116 116
0 116 116
0 116 116
0 120 120
0 112 112
0 88 88
0 64 64
0 108 108
0 108 108
0 112 112
0 112 112
0 108 108
56 56 56

56 56 56
0 152 152
0 152 152
32 176 176
0 164 164
0 132 132
0 116 116
0 108 108
0 108 108
0 108 108
0 132 132
0 132 132
0 132 132
0 112 112
0 108 108
32 32 32
32 32 32
32 32 32
56 56 56
56 56 56
56 56 56
72 72 72
72 72 72
72 72 72
112 112 112
0 120 120
0 116 116
0 120 120
0 116 116
0 116 116
0 116 116
0 116 116
0 116 116
0 116 116
0 112 112
0 116 116
0 112 112
0 116 116
0 112 112
0 108 108
0 112 112
0 108 108
0 108 108
0 112 112
0 112 112
0 112 112
0 112 112
0 116 116
0 112 112
0 116 116
0 116 116
0 116 116
0 116 116
0 116 116
0 116 116
0 112 112
0 88 88
0 64 64
0 108 108
0 116 116
0 120 120
0 112 112
0 108 108
56 56 56

56 56 56
116 200 200
32 176 176
0 164 164
0 164 164
0 132 132
0 116 116
0 108 108
0 112 112
0 132 132
0 132 132
0 132 132
0 124 124
0 112 112
0 108 108
32 32 32
32 32 32
32 32 32
32 32 32
32 32 32
32 32 32
32 32 32
32 32 32
32 32 32
72 72 72
0 116 116
0 120 120
0 116 116
0 116 116
0 116 116
0 116 116
0 116 116
0 116 116
0 116 116
0 116 116
0 112 112
0 116 116
0 112 112
0 108 108
0 112 112
0 108 108
0 108 108
0 108 108
0 112 112
0 108 108
0 112 112
0 116 116
0 112 112
0 116 116
0 112 112
0 116 116
0 116 116
0 116 116
0 116 116
0 120 120
0 112 112
0 88 88
0 64 64
0 112 112
0 116 116
0 120 120
0 112 112
0 108 108
56 56 56

56 56 56
32 176 176
0 164 164
0 164 164
0 152 152
0 140 140
0 116 116
0 116 116
0 132 132
0 132 132
0 132 132
0 132 132
0 124 124
0 112 112
0 108 108
0 108 108
0 108 108
0 108 108
0 108 108
0 108 108
0 108 108
0 108 108
0 108 108
0 108 108
0 116 116
0 120 120
0 116 116
0 116 116
0 116 116
0 116 116
0 116 116
0 116 116
0 116 116
0 116 116
0 112 112
0 116 116
0 112 112
0 112 112
0 112 112
0 108 108
0 108 108
0 108 108
0 112 112
0 108 108
0 112 112
0 116 116
0 112 112
0 116 116
0 112 112
0 116 116
0 116 116
0 116 116
0 116 116
0 120 120
0 116 116
0 112 112
0 88 88
0 64 64
0 116 116
0 120 120
0 124 124
0 112 112
0 108 108
56 56 56

56 56 56
0 164 164
0 164 164
0 152 152
0 152 152
0 152 152
0 116 116
0 132 132
0 132 132
0 132 132
0 132 132
0 124 124
0 124 124
0 112 112
0 112 112
0 112 112
0 112 112
0 112 112
0 112 112
0 112 112
0 112 112
0 112 112
0 112 112
0 120 120
0 120 120
0 116 116
0 116 116
0 116 116
0 116 116
0 116 116
0 116 116
0 116 116
0 116 116
0 112 112
0 116 116
0 112 112
0 112 112
0 112 112
0 108 108
0 108 108
0 108 108
0 108 108
0 108 108
0 112 112
0 112 112
0 112 112
0 116 116
0 112 112
0 116 116
0 116 116
0 116 116
0 116 116
0 116 116
0 116 116
0 120 120
0 112 112
0 88 88
0 64 64
0 116 116
0 120 120
0 124 124
0 112 112
0 108 108
56 56 56

56 56 56
0 164 164
0 152 152
0 140 140
0 140 140
32 176 176
0 116 116
0 132 132
0 132 132
0 132 132
0 124 124
0 124 124
0 124 124
0 124 124
0 124 124
0 124 124
0 124 124
0 120 120
0 124 124
0 120 120
0 120 120
0 120 120
0 120 120
0 120 120
0 116 116
0 116 116
0 116 116
0 116 116
0 116 116
0 116 116
0 116 116
0 116 116
0 112 112
0 116 116
0 112 112
0 112 112
0 112 112
0 108 108
0 112 112
0 108 108
0 108 108
0 108 108
0 112 112
0 112 112
0 112 112
0 116 116
0 112 112
0 116 116
0 112 112
0 116 116
0 116 116
0 116 116
0 116 116
0 120 120
0 116 116
0 112 112
0 88 88
0 64 64
0 120 120
0 120 120
0 124 124
0 112 112
0 108 108
56 56 56

56 56 56
0 116 116
0 88 88
32 176 176
0 140 140
32 176 176
0 124 124
0 132 132
0 132 132
0 124 124
0 124 124
0 124 124
0 124 124
0 124 124
0 124 124
0 124 124
0 120 120
0 124 124
0 120 120
0 120 120
0 120 120
0 120 120
0 120 120
0 116 116
0 116 116
0 116 116
0 116 116
0 116 116
0 116 116
0 116 116
0 116 116
0 112 112
0 116 116
0 112 112
0 116 116
0 112 112
0 108 108
0 112 112
0 108 108
0 108 108
0 108 108
0 112 112
0 108 108
0 112 112
0 116 116
0 112 112
0 116 116
0 112 112
0 116 116
0 116 116
0 116 116
0 116 116
0 116 116
0 116 116
0 120 120
0 112 112
0 88 88
0 64 64
0 116 116
0 88 88
0 152 152
0 112 112
0 108 108
56 56 56

56 56 56
0 108 108
0 64 64
0 88 88
0 140 140
32 176 176
0 140 140
0 132 132
0 124 124
0 124 124
0 124 124
0 124 124
0 124 124
0 124 124
0 124 124
0 120 120
0 124 124
0 120 120
0 120 120
0 120 120
0 120 120
0 120 120
0 116 116
0 116 116
0 116 116
0 116 116
0 116 116
0 116 116
0 116 116
0 116 116
0 112 112
0 116 116
0 112 112
0 116 116
0 112 112
0 116 116
0 112 112
0 108 108
0 108 108
0 108 108
0 112 112
0 108 108
0 112 112
0 112 112
0 112 112
0 116 116
0 112 112
0 116 116
0 116 116
0 116 116
0 116 116
0 116 116
0 116 116
0 120 120
0 120 120
0 112 112
0 88 88
0 64 64
0 108 108
0 64 64
0 88 88
0 112 112
0 108 108
56 56 56

56 56 56
0 108 108
0 108 108
0 112 112
0 140 140
32 176 176
0 152 152
0 124 124
0 124 124
0 124 124
0 124 124
0 124 124
0 124 124
0 124 124
0 120 120
0 124 124
0 120 120
0 124 124
0 120 120
0 120 120
0 120 120
0 116 116
0 120 120
0 116 116
0 116 116
0 116 116
0 116 116
0 116 116
0 116 116
0 116 116
0 116 116
0 112 112
0 116 116
0 112 112
0 116 116
0 112 112
0 108 108
0 108 108
0 108 108
0 108 108
0 108 108
0 112 112
0 112 112
0 112 112
0 116 116
0 112 112
0 116 116
0 112 112
0 116 116
0 116 116
0 116 116
0 116 116
0 120 120
0 116 116
0 120 120
0 112 112
0 88 88
0 64 64
0 108 108
0 108 108
0 112 112
0 112 112
0 108 108
56 56 56

56 56 56
0 120 120
0 120 120
0 140 140
0 140 140
32 176 176
0 152 152
0 124 124
0 124 124
0 124 124
0 124 124
0 124 124
0 124 124
0 120 120
0 124 124
0 120 120
0 124 124
0 120 120
0 120 120
0 120 120
0 116 116
0 120 120
0 116 116
0 116 116
0 116 116
0 116 116
0 116 116
0 116 116
0 116 116
0 116 116
0 112 112
0 116 116
0 112 112
0 112 112
0 112 112
0 108 108
0 108 108
0 108 108
0 108 108
0 108 108
0 112 112
0 112 112
0 112 112
0 116 116
0 112 112
0 116 116
0 112 112
0 116 116
0 116 116
0 116 116
0 116 116
0 116 116
0 116 116
0 120 120
0 120 120
0 112 112
0 88 88
0 64 64
0 120 120
0 120 120
0 124 124
0 112 112
0 108 108
56 56 56

56 56 56
0 140 140
0 140 140
0 140 140
0 132 132
32 176 176
0 152 152
0 124 124
0 124 124
0 124 124
0 124 124
0 124 124
0 120 120
0 124 124
0 120 120
0 124 124
0 120 120
0 120 120
0 120 120
0 116 116
0 120 120
0 116 116
0 116 116
0 116 116
0 116 116
0 116 116
0 116 116
0 116 116
0 116 116
0 112 112
0 116 116
0 112 112
0 112 112
0 112 112
0 108 108
0 112 112
0 108 108
0 108 108
0 108 108
0 112 112
0 108 108
0 112 112
0 116 116
0 112 112
0 116 116
0 112 112
0 116 116
0 116 116
0 116 116
0 116 116
0 116 116
0 116 116
0 120 120
0 116 116
0 120 120
0 112 112
0 88 88
0 64 64
0 120 120
0 120 120
0 124 124
0 112 112
0 108 108
56 56 56

56 56 56
0 140 140
0 140 140
0 132 132
0 132 132
32 176 176
0 152 152
0 124 124
0 124 124
0 124 124
0 124 124
0 120 120
0 124 124
0 120 120
0 124 124
0 120 120
0 120 120
0 120 120
0 116 116
0 120 120
0 116 116
0 116 116
0 116 116
0 116 116
0 116 116
0 116 116
0 116 116
0 116 116
0 112 112
0 116 116
0 112 112
0 116 116
0 112 112
0 108 108
0 112 112
0 108 108
0 108 108
0 108 108
0 112 112
0 108 108
0 112 112
0 112 112
0 112 112
0 116 116
0 112 112
0 116 116
0 112 112
0 116 116
0 116 116
0 116 116
0 116 116
0 116 116
0 116 116
0 120 120
0 120 120
0 112 112
0 88 88
0 64 64
0 120 120
0 120 120
0 124 124
0 112 112
0 108 108
56 56 56

56 56 56
0 132 132
0 132 132
0 132 132
0 132 132
32 176 176
0 152 152
0 124 124
0 124 124
0 124 124
0 120 120
0 124 124
0 120 120
0 124 124
0 120 120
0 124 124
0 120 120
0 116 116
0 120 120
0 116 116
0 116 116
0 116 116
0 116 116
0 116 116
0 116 116
0 116 116
0 116 116
0 112 112
0 116 116
0 112 112
0 116 116
0 112 112
0 116 116
0 112 112
0 108 108
0 108 108
0 108 108
0 108 108
0 108 108
0 112 112
0 112 112
0 112 112
0 116 116
0 112 112
0 116 116
0 112 112
0 116 116
0 116 116
0 116 116
0 116 116
0 116 116
0 116 116
0 120 120
0 120 120
0 120 120
0 112 112
0 88 88
0 64 64
0 120 120
0 120 120
0 124 124
0 112 112
0 108 108
56 56 56

56 56 56
0 132 132
0 132 132
0 132 132
0 132 132
32 176 176
0 152 152
0 124 124
0 124 124
0 120 120
0 124 124
0 120 120
0 124 124
0 120 120
0 124 124
0 120 120
0 120 120
0 120 120
0 116 116
0 116 116
0 116 116
0 116 116
0 116 116
0 116 116
0 116 116
0 116 116
0 112 112
0 116 116
0 112 112
0 116 116
0 112 112
0 116 116
0 112 112
0 108 108
0 108 108
0 108 108
0 108 108
0 108 108
0 112 112
0 112 112
0 112 112
0 116 116
0 112 112
0 116 116
0 112 112
0 116 116
0 116 116
0 116 116
0 116 116
0 116 116
0 116 116
0 120 120
0 116 116
0 120 120
0 120 120
0 112 112
0 88 88
0 64 64
0 120 120
0 124 124
0 124 124
0 112 112
0 108 108
56 56 56

56 56 56
0 116 116
0 88 88
32 176 176
0 132 132
32 176 176
0 152 152
0 124 124
0 124 124
0 124 124
0 120 120
0 124 124
0 120 120
0 124 124
0 120 120
0 120 120
0 120 120
0 116 116
0 116 116
0 116 116
0 116 116
0 116 116
0 116 116
0 116 116
0 116 116
0 116 116
0 116 116
0 112 112
0 116 116
0 112 112
0 112 112
0 112 112
0 108 108
0 112 112
0 108 108
0 108 108
0 108 108
0 112 112
0 108 108
0 112 112
0 116 116
0 112 112
0 116 116
0 112 112
0 116 116
0 112 112
0 116 116
0 116 116
0 116 116
0 116 116
0 116 116
0 116 116
0 120 120
0 120 120
0 120 120
0 112 112
0 88 88
0 64 64
0 116 116
0 88 88
32 176 176
0 112 112
0 108 108
56 56 56

56 56 56
0 108 108
0 64 64
0 88 88
0 132 132
32 176 176
0 152 152
0 124 124
0 124 124
0 120 120
0 124 124
0 120 120
0 124 124
0 120 120
0 120 120
0 120 120
0 116 116
0 116 116
0 116 116
0 116 116
0 116 116
0 116 116
0 116 116
0 116 116
0 116 116
0 116 116
0 112 112
0 116 116
0 112 112
0 112 112
0 112 112
0 108 108
0 112 112
0 108 108
0 108 108
0 108 108
0 112 112
0 108 108
0 112 112
0 112 112
0 112 112
0 116 116
0 112 112
0 116 116
0 112 112
0 116 116
0 116 116
0 116 116
0 116 116
0 116 116
0 116 116
0 120 120
0 116 116
0 120 120
0 120 120
0 120 120
0 88 88
0 64 64
0 108 108
0 64 64
0 88 88
0 112 112
0 108 108
56 56 56

56 56 56
0 108 108
0 108 108
0 112 112
0 124 124
32 176 176
0 152 152
0 152 152
0 152 152
0 152 152
0 152 152
0 152 152
0 152 152
0 152 152
0 152 152
0 152 152
0 152 152
0 152 152
0 152 152
0 152 152
0 140 140
0 140 140
0 140 140
0 132 132
0 132 132
0 132 132
0 124 124
0 124 124
0 124 124
0 120 120
0 120 120
0 116 116
0 116 116
0 120 120
0 120 120
0 120 120
0 124 124
0 124 124
0 132 132
0 132 132
0 132 132
0 140 140
0 140 140
0 140 140
0 140 140
0 140 140
0 140 140
0 140 140
0 140 140
0 140 140
0 140 140
0 140 140
0 132 132
0 132 132
0 132 132
0 132 132
0 108 108
0 64 64
0 108 108
0 108 108
0 112 112
0 112 112
0 108 108
56 56 56

56 56 56
0 120 120
0 120 120
0 124 124
0 124 124
32 176 176
32 176 176
32 176 176
32 176 176
32 176 176
32 176 176
32 176 176
32 176 176
32 176 176
32 176 176
32 176 176
32 176 176
32 176 176
32 176 176
32 176 176
0 164 164
0 164 164
0 164 164
0 164 164
0 152 152
0 152 152
0 152 152
0 140 140
0 140 140
0 132 132
0 132 132
0 132 132
0 132 132
0 140 140
0 140 140
0 152 152
0 152 152
0 164 164
0 164 164
0 164 164
0 164 164
0 164 164
0 164 164
0 164 164
0 164 164
0 164 164
0 164 164
0 164 164
0 152 152
0 152 152
0 152 152
0 152 152
0 152 152
0 152 152
0 152 152
0 140 140
0 112 112
0 108 108
0 120 120
0 120 120
0 124 124
0 112 112
0 108 108
56 56 56

56 56 56
0 124 124
0 124 124
0 124 124
0 124 124
0 124 124
0 124 124
0 124 124
0 124 124
0 124 124
0 124 124
0 124 124
0 124 124
0 124 124
0 120 120
0 120 120
0 120 120
0 120 120
0 116 116
0 116 116
0 116 116
0 116 116
0 116 116
0 116 116
0 116 116
0 116 116
0 112 112
0 108 108
0 108 108
0 108 108
0 108 108
0 108 108
0 108 108
0 108 108
0 108 108
0 112 112
0 112 112
0 116 116
0 116 116
0 116 116
0 116 116
0 116 116
0 116 116
0 120 120
0 120 120
0 124 124
0 124 124
0 124 124
0 124 124
0 124 124
0 124 124
0 124 124
0 124 124
0 124 124
0 124 124
0 124 124
0 124 124
0 124 124
0 124 124
0 124 124
0 124 124
0 112 112
0 108 108
56 56 56

56 56 56
0 124 124
0 124 124
0 124 124
0 124 124
0 116 116
0 88 88
32 176 176
0 124 124
0 124 124
0 124 124
0 124 124
0 124 124
0 116 116
0 88 88
32 176 176
0 120 120
0 116 116
0 116 116
0 116 116
0 116 116
0 116 116
0 88 88
0 132 132
0 116 116
0 112 112
0 108 108
0 108 108
0 108 108
0 108 108
0 88 88
0 116 116
0 108 108
0 108 108
0 108 108
0 112 112
0 116 116
0 116 116
0 88 88
0 132 132
0 116 116
0 116 116
0 116 116
0 120 120
0 124 124
0 116 116
0 88 88
32 176 176
0 124 124
0 124 124
0 124 124
0 124 124
0 124 124
0 116 116
0 88 88
32 176 176
0 124 124
0 124 124
0 124 124
0 124 124
0 124 124
0 112 112
0 108 108
56 56 56

56 56 56
0 124 124
0 124 124
0 124 124
0 124 124
0 108 108
0 64 64
0 88 88
0 124 124
0 124 124
0 124 124
0 124 124
0 124 124
0 108 108
0 64 64
0 88 88
0 116 116
0 116 116
0 116 116
0 116 116
0 116 116
0 108 108
0 64 64
0 88 88
0 112 112
0 108 108
0 108 108
0 108 108
0 108 108
0 108 108
0 64 64
0 88 88
0 108 108
0 108 108
0 108 108
0 112 112
0 116 116
0 108 108
0 64 64
0 88 88
0 116 116
0 116 116
0 120 120
0 120 120
0 124 124
0 108 108
0 64 64
0 88 88
0 124 124
0 124 124
0 124 124
0 124 124
0 124 124
0 108 108
0 64 64
0 88 88
0 124 124
0 124 124
0 124 124
0 124 124
0 124 124
0 112 112
0 108 108
56 56 56

72 72 72
0 124 124
0 124 124
0 124 124
0 124 124
0 108 108
0 108 108
0 112 112
0 124 124
0 124 124
0 124 124
0 124 124
0 124 124
0 108 108
0 108 108
0 112 112
0 116 116
0 116 116
0 116 116
0 116 116
0 116 116
0 108 108
0 108 108
0 112 112
0 112 112
0 108 108
0 108 108
0 108 108
0 108 108
0 108 108
0 108 108
0 108 108
0 108 108
0 108 108
0 112 112
0 116 116
0 116 116
0 108 108
0 108 108
0 112 112
0 116 116
0 116 116
0 120 120
0 124 124
0 124 124
0 108 108
0 108 108
0 112 112
0 124 124
0 124 124
0 124 124
0 124 124
0 124 124
0 108 108
0 108 108
0 112 112
0 124 124
0 124 124
0 124 124
0 124 124
0 124 124
0 112 112
0 108 108
72 72 72

84 84 84
84 84 84
84 84 84
84 84 84
84 84 84
84 84 84
84 84 84
84 84 84
84 84 84
84 84 84
84 84 84
84 84 84
84 84 84
84 84 84
84 84 84
84 84 84
84 84 84
84 84 84
84 84 84
84 84 84
84 84 84
84 84 84
84 84 84
84 84 84
84 84 84
84 84 84
84 84 84
84 84 84
84 84 84
84 84 84
84 84 84
84 84 84
84 84 84
84 84 84
84 84 84
84 84 84
84 84 84
84 84 84
84 84 84
84 84 84
84 84 84
84 84 84
84 84 84
84 84 84
84 84 84
84 84 84
84 84 84
84 84 84
84 84 84
84 84 84
84 84 84
84 84 84
84 84 84
84 84 84
84 84 84
84 84 84
84 84 84
84 84 84
84 84 84
84 84 84
84 84 84
84 84 84
84 84 84
84 84 84

