P3
# ASCII PPM file
64 64
255

44 44 44
44 44 44
44 44 44
44 44 44
44 44 44
44 44 44
44 44 44
44 44 44
44 44 44
44 44 44
44 44 44
44 44 44
44 44 44
44 44 44
44 44 44
44 44 44
44 44 44
44 44 44
44 44 44
44 44 44
44 44 44
44 44 44
44 44 44
44 44 44
44 44 44
44 44 44
44 44 44
44 44 44
44 44 44
44 44 44
44 44 44
44 44 44
44 44 44
44 44 44
44 44 44
44 44 44
44 44 44
44 44 44
44 44 44
44 44 44
44 44 44
44 44 44
44 44 44
44 44 44
44 44 44
44 44 44
44 44 44
44 44 44
44 44 44
44 44 44
44 44 44
44 44 44
44 44 44
44 44 44
44 44 44
44 44 44
44 44 44
44 44 44
44 44 44
44 44 44
44 44 44
44 44 44
44 44 44
44 44 44

44 44 44
56 56 56
56 56 56
56 56 56
56 56 56
56 56 56
56 56 56
56 56 56
56 56 56
56 56 56
56 56 56
56 56 56
56 56 56
56 56 56
56 56 56
56 56 56
56 56 56
56 56 56
56 56 56
56 56 56
56 56 56
56 56 56
56 56 56
56 56 56
56 56 56
56 56 56
56 56 56
56 56 56
56 56 56
56 56 56
56 56 56
56 56 56
56 56 56
56 56 56
56 56 56
56 56 56
56 56 56
56 56 56
56 56 56
56 56 56
56 56 56
56 56 56
56 56 56
56 56 56
56 56 56
56 56 56
56 56 56
56 56 56
56 56 56
56 56 56
56 56 56
56 56 56
56 56 56
56 56 56
56 56 56
56 56 56
56 56 56
56 56 56
56 56 56
56 56 56
56 56 56
56 56 56
56 56 56
44 44 44

44 44 44
56 56 56
72 72 72
72 72 72
72 72 72
72 72 72
72 72 72
72 72 72
72 72 72
72 72 72
72 72 72
72 72 72
72 72 72
72 72 72
72 72 72
72 72 72
72 72 72
72 72 72
72 72 72
72 72 72
72 72 72
72 72 72
72 72 72
72 72 72
72 72 72
72 72 72
72 72 72
72 72 72
72 72 72
72 72 72
72 72 72
72 72 72
72 72 72
72 72 72
72 72 72
72 72 72
72 72 72
72 72 72
72 72 72
72 72 72
72 72 72
72 72 72
72 72 72
72 72 72
72 72 72
72 72 72
72 72 72
72 72 72
72 72 72
72 72 72
72 72 72
72 72 72
72 72 72
72 72 72
72 72 72
72 72 72
72 72 72
72 72 72
72 72 72
72 72 72
72 72 72
72 72 72
56 56 56
44 44 44

44 44 44
56 56 56
72 72 72
100 100 100
100 100 100
100 100 100
100 100 100
100 100 100
100 100 100
100 100 100
100 100 100
100 100 100
100 100 100
100 100 100
100 100 100
100 100 100
100 100 100
100 100 100
100 100 100
100 100 100
100 100 100
112 112 112
112 112 112
124 124 124
124 124 124
124 124 124
124 124 124
124 124 124
124 124 124
124 124 124
124 124 124
124 124 124
140 140 140
124 124 124
140 140 140
124 124 124
140 140 140
124 124 124
140 140 140
124 124 124
140 140 140
124 124 124
124 124 124
124 124 124
124 124 124
124 124 124
124 124 124
112 112 112
112 112 112
112 112 112
112 112 112
100 100 100
100 100 100
100 100 100
100 100 100
100 100 100
100 100 100
84 84 84
100 100 100
84 84 84
84 84 84
72 72 72
56 56 56
44 44 44

44 44 44
56 56 56
72 72 72
100 100 100
100 100 100
100 100 100
124 124 124
124 124 124
100 100 100
100 100 100
100 100 100
100 100 100
100 100 100
100 100 100
100 100 100
100 100 100
100 100 100
100 100 100
100 100 100
100 100 100
112 112 112
112 112 112
112 112 112
140 140 140
140 140 140
124 124 124
124 124 124
124 124 124
124 124 124
124 124 124
124 124 124
140 140 140
124 124 124
140 140 140
124 124 124
140 140 140
124 124 124
140 140 140
124 124 124
140 140 140
152 152 152
152 152 152
124 124 124
124 124 124
124 124 124
124 124 124
112 112 112
112 112 112
112 112 112
112 112 112
100 100 100
100 100 100
100 100 100
100 100 100
100 100 100
100 100 100
124 124 124
124 124 124
84 84 84
84 84 84
84 84 84
72 72 72
56 56 56
44 44 44

44 44 44
56 56 56
72 72 72
100 100 100
100 100 100
84 84 84
124 124 124
152 152 152
124 124 124
100 100 100
100 100 100
100 100 100
100 100 100
100 100 100
100 100 100
100 100 100
100 100 100
112 112 112
100 100 100
112 112 112
112 112 112
112 112 112
100 100 100
124 124 124
152 152 152
140 140 140
124 124 124
124 124 124
124 124 124
124 124 124
140 140 140
124 124 124
140 140 140
124 124 124
140 140 140
124 124 124
140 140 140
124 124 124
140 140 140
100 100 100
124 124 124
152 152 152
152 152 152
124 124 124
124 124 124
112 112 112
112 112 112
112 112 112
112 112 112
100 100 100
100 100 100
100 100 100
100 100 100
100 100 100
100 100 100
84 84 84
124 124 124
152 152 152
112 112 112
84 84 84
84 84 84
72 72 72
56 56 56
44 44 44

44 44 44
56 56 56
72 72 72
100 100 100
100 100 100
44 44 44
84 84 84
124 124 124
72 72 72
100 100 100
100 100 100
100 100 100
100 100 100
100 100 100
100 100 100
100 100 100
112 112 112
100 100 100
112 112 112
112 112 112
112 112 112
124 124 124
44 44 44
84 84 84
124 124 124
84 84 84
124 124 124
124 124 124
124 124 124
140 140 140
124 124 124
140 140 140
124 124 124
140 140 140
124 124 124
140 140 140
124 124 124
140 140 140
124 124 124
44 44 44
84 84 84
124 124 124
84 84 84
124 124 124
112 112 112
112 112 112
112 112 112
112 112 112
100 100 100
100 100 100
100 100 100
100 100 100
100 100 100
100 100 100
84 84 84
44 44 44
84 84 84
124 124 124
56 56 56
84 84 84
72 72 72
72 72 72
56 56 56
44 44 44

44 44 44
56 56 56
72 72 72
100 100 100
100 100 100
72 72 72
44 44 44
56 56 56
100 100 100
100 100 100
100 100 100
100 100 100
100 100 100
100 100 100
100 100 100
112 112 112
100 100 100
112 112 112
112 112 112
112 112 112
124 124 124
124 124 124
84 84 84
44 44 44
56 56 56
124 124 124
124 124 124
124 124 124
140 140 140
124 124 124
140 140 140
124 124 124
140 140 140
124 124 124
140 140 140
124 124 124
140 140 140
124 124 124
124 124 124
84 84 84
44 44 44
56 56 56
124 124 124
112 112 112
112 112 112
112 112 112
112 112 112
100 100 100
100 100 100
100 100 100
100 100 100
100 100 100
100 100 100
84 84 84
100 100 100
56 56 56
44 44 44
56 56 56
84 84 84
72 72 72
84 84 84
72 72 72
56 56 56
44 44 44

44 44 44
56 56 56
72 72 72
100 100 100
100 100 100
100 100 100
100 100 100
100 100 100
100 100 100
100 100 100
100 100 100
100 100 100
112 112 112
100 100 100
112 112 112
100 100 100
112 112 112
112 112 112
112 112 112
124 124 124
124 124 124
124 124 124
124 124 124
124 124 124
124 124 124
124 124 124
124 124 124
140 140 140
124 124 124
140 140 140
124 124 124
140 140 140
124 124 124
140 140 140
124 124 124
140 140 140
124 124 124
124 124 124
124 124 124
124 124 124
124 124 124
124 124 124
112 112 112
112 112 112
112 112 112
112 112 112
100 100 100
100 100 100
100 100 100
100 100 100
100 100 100
100 100 100
84 84 84
100 100 100
84 84 84
84 84 84
84 84 84
84 84 84
72 72 72
84 84 84
72 72 72
72 72 72
56 56 56
44 44 44

44 44 44
56 56 56
72 72 72
100 100 100
100 100 100
100 100 100
100 100 100
100 100 100
100 100 100
100 100 100
100 100 100
112 112 112
100 100 100
112 112 112
100 100 100
112 112 112
112 112 112
112 112 112
124 124 124
124 124 124
124 124 124
124 124 124
124 124 124
124 124 124
124 124 124
124 124 124
140 140 140
124 124 124
140 140 140
124 124 124
140 140 140
124 124 124
140 140 140
124 124 124
140 140 140
124 124 124
124 124 124
124 124 124
124 124 124
124 124 124
124 124 124
112 112 112
112 112 112
112 112 112
112 112 112
100 100 100
100 100 100
100 100 100
100 100 100
100 100 100
100 100 100
84 84 84
100 100 100
84 84 84
84 84 84
84 84 84
84 84 84
72 72 72
84 84 84
72 72 72
84 84 84
72 72 72
56 56 56
44 44 44

44 44 44
56 56 56
72 72 72
100 100 100
100 100 100
100 100 100
100 100 100
100 100 100
100 100 100
100 100 100
112 112 112
100 100 100
112 112 112
100 100 100
112 112 112
112 112 112
112 112 112
112 112 112
124 124 124
84 84 84
72 72 72
56 56 56
56 56 56
56 56 56
56 56 56
56 56 56
56 56 56
56 56 56
56 56 56
56 56 56
56 56 56
56 56 56
56 56 56
56 56 56
56 56 56
56 56 56
56 56 56
56 56 56
56 56 56
56 56 56
56 56 56
56 56 56
56 56 56
72 72 72
100 100 100
100 100 100
100 100 100
100 100 100
100 100 100
100 100 100
84 84 84
100 100 100
84 84 84
84 84 84
84 84 84
84 84 84
72 72 72
84 84 84
72 72 72
84 84 84
72 72 72
72 72 72
56 56 56
44 44 44

44 44 44
56 56 56
72 72 72
100 100 100
100 100 100
100 100 100
100 100 100
100 100 100
100 100 100
112 112 112
100 100 100
112 112 112
100 100 100
112 112 112
112 112 112
112 112 112
112 112 112
124 124 124
124 124 124
152 152 152
100 100 100
32 32 32
32 32 32
0 0 0
0 0 0
0 0 0
0 0 0
0 0 0
0 0 0
0 0 0
0 0 0
0 0 0
0 0 0
0 0 0
0 0 0
0 0 0
0 0 0
0 0 0
0 0 0
0 0 0
32 32 32
44 44 44
124 124 124
100 100 100
100 100 100
100 100 100
100 100 100
100 100 100
100 100 100
84 84 84
100 100 100
84 84 84
84 84 84
84 84 84
84 84 84
72 72 72
84 84 84
72 72 72
84 84 84
72 72 72
72 72 72
72 72 72
56 56 56
44 44 44

44 44 44
56 56 56
72 72 72
100 100 100
100 100 100
100 100 100
112 112 112
100 100 100
112 112 112
100 100 100
112 112 112
100 100 100
112 112 112
112 112 112
112 112 112
112 112 112
124 124 124
124 124 124
124 124 124
124 124 124
152 152 152
100 100 100
84 84 84
84 84 84
84 84 84
84 84 84
84 84 84
84 84 84
84 84 84
84 84 84
84 84 84
84 84 84
84 84 84
84 84 84
84 84 84
84 84 84
84 84 84
84 84 84
84 84 84
84 84 84
84 84 84
124 124 124
100 100 100
100 100 100
124 124 124
100 100 100
100 100 100
100 100 100
84 84 84
100 100 100
84 84 84
84 84 84
84 84 84
84 84 84
72 72 72
84 84 84
72 72 72
84 84 84
72 72 72
72 72 72
72 72 72
72 72 72
56 56 56
44 44 44

44 44 44
56 56 56
72 72 72
100 100 100
100 100 100
112 112 112
100 100 100
112 112 112
100 100 100
112 112 112
100 100 100
112 112 112
112 112 112
112 112 112
112 112 112
124 124 124
124 124 124
124 124 124
124 124 124
124 124 124
124 124 124
152 152 152
140 140 140
124 124 124
140 140 140
124 124 124
140 140 140
124 124 124
140 140 140
124 124 124
140 140 140
124 124 124
140 140 140
124 124 124
124 124 124
124 124 124
124 124 124
124 124 124
124 124 124
112 112 112
124 124 124
112 112 112
100 100 100
112 112 112
100 100 100
100 100 100
100 100 100
84 84 84
100 100 100
84 84 84
84 84 84
84 84 84
84 84 84
72 72 72
84 84 84
72 72 72
84 84 84
72 72 72
72 72 72
72 72 72
72 72 72
72 72 72
56 56 56
44 44 44

44 44 44
56 56 56
72 72 72
100 100 100
112 112 112
100 100 100
112 112 112
100 100 100
112 112 112
100 100 100
112 112 112
112 112 112
112 112 112
112 112 112
124 124 124
124 124 124
124 124 124
124 124 124
124 124 124
124 124 124
124 124 124
124 124 124
152 152 152
152 152 152
124 124 124
140 140 140
124 124 124
140 140 140
124 124 124
140 140 140
124 124 124
140 140 140
124 124 124
124 124 124
124 124 124
124 124 124
124 124 124
124 124 124
112 112 112
112 112 112
152 152 152
100 100 100
112 112 112
100 100 100
100 100 100
100 100 100
84 84 84
100 100 100
84 84 84
84 84 84
84 84 84
84 84 84
72 72 72
84 84 84
72 72 72
84 84 84
72 72 72
72 72 72
72 72 72
72 72 72
72 72 72
72 72 72
56 56 56
44 44 44

44 44 44
56 56 56
72 72 72
112 112 112
100 100 100
112 112 112
100 100 100
112 112 112
100 100 100
112 112 112
112 112 112
112 112 112
112 112 112
124 124 124
124 124 124
124 124 124
124 124 124
124 124 124
124 124 124
124 124 124
124 124 124
124 124 124
152 152 152
152 152 152
140 140 140
124 124 124
140 140 140
124 124 124
140 140 140
124 124 124
140 140 140
124 124 124
124 124 124
124 124 124
124 124 124
124 124 124
124 124 124
112 112 112
112 112 112
152 152 152
100 100 100
112 112 112
100 100 100
100 100 100
100 100 100
84 84 84
100 100 100
84 84 84
84 84 84
84 84 84
84 84 84
72 72 72
84 84 84
72 72 72
84 84 84
72 72 72
72 72 72
72 72 72
72 72 72
72 72 72
72 72 72
72 72 72
56 56 56
44 44 44

44 44 44
56 56 56
72 72 72
100 100 100
112 112 112
100 100 100
112 112 112
100 100 100
112 112 112
112 112 112
112 112 112
112 112 112
124 124 124
124 124 124
124 124 124
124 124 124
124 124 124
124 124 124
124 124 124
140 140 140
124 124 124
140 140 140
124 124 124
152 152 152
152 152 152
140 140 140
124 124 124
140 140 140
124 124 124
140 140 140
124 124 124
124 124 124
124 124 124
124 124 124
124 124 124
124 124 124
112 112 112
112 112 112
152 152 152
112 112 112
112 112 112
100 100 100
100 100 100
100 100 100
100 100 100
100 100 100
84 84 84
84 84 84
84 84 84
84 84 84
72 72 72
84 84 84
72 72 72
84 84 84
72 72 72
72 72 72
72 72 72
72 72 72
72 72 72
72 72 72
72 72 72
72 72 72
56 56 56
44 44 44

44 44 44
56 56 56
72 72 72
112 112 112
100 100 100
112 112 112
100 100 100
112 112 112
112 112 112
112 112 112
112 112 112
124 124 124
72 72 72
100 100 100
124 124 124
124 124 124
124 124 124
124 124 124
140 140 140
124 124 124
140 140 140
124 124 124
140 140 140
124 124 124
152 152 152
152 152 152
140 140 140
124 124 124
140 140 140
124 124 124
124 124 124
124 124 124
124 124 124
124 124 124
124 124 124
112 112 112
124 124 124
152 152 152
112 112 112
112 112 112
100 100 100
100 100 100
100 100 100
100 100 100
100 100 100
84 84 84
84 84 84
84 84 84
84 84 84
72 72 72
84 84 84
44 44 44
84 84 84
72 72 72
72 72 72
72 72 72
72 72 72
72 72 72
72 72 72
72 72 72
72 72 72
72 72 72
56 56 56
44 44 44

44 44 44
56 56 56
72 72 72
100 100 100
112 112 112
100 100 100
112 112 112
112 112 112
112 112 112
112 112 112
124 124 124
124 124 124
100 100 100
56 56 56
72 72 72
124 124 124
124 124 124
140 140 140
124 124 124
140 140 140
124 124 124
140 140 140
124 124 124
140 140 140
124 124 124
152 152 152
152 152 152
140 140 140
124 124 124
124 124 124
124 124 124
124 124 124
124 124 124
124 124 124
112 112 112
124 124 124
152 152 152
112 112 112
112 112 112
100 100 100
100 100 100
100 100 100
100 100 100
100 100 100
84 84 84
100 100 100
84 84 84
84 84 84
72 72 72
84 84 84
56 56 56
44 44 44
72 72 72
72 72 72
72 72 72
72 72 72
72 72 72
72 72 72
72 72 72
72 72 72
72 72 72
72 72 72
56 56 56
44 44 44

44 44 44
56 56 56
72 72 72
112 112 112
100 100 100
112 112 112
112 112 112
112 112 112
112 112 112
124 124 124
124 124 124
124 124 124
112 112 112
72 72 72
56 56 56
72 72 72
140 140 140
124 124 124
140 140 140
124 124 124
140 140 140
124 124 124
152 152 152
152 152 152
140 140 140
124 124 124
152 152 152
152 152 152
140 140 140
124 124 124
124 124 124
124 124 124
124 124 124
112 112 112
124 124 124
152 152 152
124 124 124
112 112 112
100 100 100
100 100 100
100 100 100
140 140 140
140 140 140
84 84 84
100 100 100
84 84 84
84 84 84
72 72 72
84 84 84
56 56 56
0 0 0
44 44 44
72 72 72
72 72 72
72 72 72
72 72 72
72 72 72
72 72 72
72 72 72
72 72 72
72 72 72
72 72 72
56 56 56
44 44 44

44 44 44
56 56 56
72 72 72
100 100 100
112 112 112
112 112 112
112 112 112
112 112 112
124 124 124
124 124 124
124 124 124
124 124 124
140 140 140
100 100 100
32 32 32
56 56 56
124 124 124
140 140 140
124 124 124
140 140 140
124 124 124
100 100 100
124 124 124
152 152 152
152 152 152
140 140 140
124 124 124
152 152 152
140 140 140
112 112 112
124 124 124
124 124 124
112 112 112
124 124 124
124 124 124
152 152 152
112 112 112
100 100 100
100 100 100
100 100 100
72 72 72
124 124 124
152 152 152
112 112 112
84 84 84
84 84 84
72 72 72
84 84 84
56 56 56
0 0 0
0 0 0
44 44 44
72 72 72
72 72 72
72 72 72
72 72 72
72 72 72
72 72 72
72 72 72
72 72 72
72 72 72
72 72 72
56 56 56
44 44 44

44 44 44
56 56 56
72 72 72
112 112 112
112 112 112
112 112 112
112 112 112
124 124 124
124 124 124
124 124 124
124 124 124
124 124 124
152 152 152
112 112 112
72 72 72
0 0 0
56 56 56
124 124 124
140 140 140
124 124 124
140 140 140
44 44 44
84 84 84
124 124 124
84 84 84
124 124 124
140 140 140
152 152 152
152 152 152
140 140 140
124 124 124
112 112 112
124 124 124
112 112 112
152 152 152
112 112 112
100 100 100
112 112 112
100 100 100
100 100 100
44 44 44
84 84 84
112 112 112
56 56 56
84 84 84
84 84 84
84 84 84
56 56 56
0 0 0
0 0 0
0 0 0
44 44 44
72 72 72
72 72 72
72 72 72
72 72 72
72 72 72
72 72 72
72 72 72
72 72 72
72 72 72
72 72 72
56 56 56
44 44 44

44 44 44
56 56 56
72 72 72
112 112 112
112 112 112
112 112 112
124 124 124
124 124 124
124 124 124
124 124 124
124 124 124
124 124 124
152 152 152
140 140 140
112 112 112
32 32 32
0 0 0
56 56 56
124 124 124
140 140 140
124 124 124
72 72 72
44 44 44
56 56 56
124 124 124
124 124 124
124 124 124
124 124 124
152 152 152
152 152 152
112 112 112
124 124 124
112 112 112
152 152 152
112 112 112
100 100 100
112 112 112
100 100 100
100 100 100
100 100 100
56 56 56
44 44 44
56 56 56
84 84 84
84 84 84
84 84 84
72 72 72
0 0 0
32 32 32
44 44 44
0 0 0
44 44 44
72 72 72
72 72 72
72 72 72
72 72 72
72 72 72
72 72 72
72 72 72
72 72 72
72 72 72
72 72 72
56 56 56
44 44 44

44 44 44
56 56 56
72 72 72
112 112 112
112 112 112
124 124 124
152 152 152
152 152 152
124 124 124
124 124 124
124 124 124
124 124 124
152 152 152
140 140 140
140 140 140
84 84 84
32 32 32
0 0 0
56 56 56
124 124 124
140 140 140
124 124 124
140 140 140
124 124 124
140 140 140
124 124 124
124 124 124
124 124 124
124 124 124
152 152 152
152 152 152
112 112 112
152 152 152
112 112 112
100 100 100
112 112 112
100 100 100
100 100 100
100 100 100
100 100 100
100 100 100
84 84 84
84 84 84
84 84 84
84 84 84
72 72 72
32 32 32
0 0 0
44 44 44
56 56 56
0 0 0
44 44 44
72 72 72
72 72 72
72 72 72
72 72 72
84 84 84
84 84 84
72 72 72
72 72 72
72 72 72
72 72 72
56 56 56
44 44 44

44 44 44
56 56 56
72 72 72
112 112 112
124 124 124
100 100 100
124 124 124
152 152 152
152 152 152
124 124 124
124 124 124
140 140 140
152 152 152
140 140 140
140 140 140
140 140 140
84 84 84
32 32 32
0 0 0
56 56 56
124 124 124
140 140 140
124 124 124
140 140 140
124 124 124
124 124 124
124 124 124
124 124 124
112 112 112
124 124 124
152 152 152
152 152 152
124 124 124
100 100 100
112 112 112
100 100 100
100 100 100
100 100 100
100 100 100
100 100 100
84 84 84
84 84 84
84 84 84
84 84 84
72 72 72
32 32 32
0 0 0
44 44 44
56 56 56
56 56 56
0 0 0
44 44 44
72 72 72
72 72 72
72 72 72
84 84 84
112 112 112
124 124 124
84 84 84
72 72 72
84 84 84
72 72 72
56 56 56
44 44 44

44 44 44
56 56 56
72 72 72
124 124 124
124 124 124
44 44 44
84 84 84
124 124 124
100 100 100
124 124 124
140 140 140
124 124 124
152 152 152
152 152 152
140 140 140
124 124 124
140 140 140
84 84 84
32 32 32
0 0 0
56 56 56
124 124 124
140 140 140
124 124 124
124 124 124
124 124 124
124 124 124
112 112 112
124 124 124
112 112 112
112 112 112
124 124 124
124 124 124
112 112 112
100 100 100
100 100 100
100 100 100
100 100 100
100 100 100
84 84 84
84 84 84
84 84 84
84 84 84
72 72 72
32 32 32
0 0 0
44 44 44
56 56 56
72 72 72
56 56 56
0 0 0
44 44 44
72 72 72
72 72 72
72 72 72
44 44 44
84 84 84
112 112 112
56 56 56
84 84 84
72 72 72
72 72 72
56 56 56
44 44 44

44 44 44
56 56 56
72 72 72
124 124 124
124 124 124
100 100 100
44 44 44
56 56 56
124 124 124
140 140 140
124 124 124
140 140 140
152 152 152
152 152 152
140 140 140
140 140 140
124 124 124
140 140 140
84 84 84
32 32 32
0 0 0
56 56 56
124 124 124
124 124 124
124 124 124
124 124 124
112 112 112
124 124 124
112 112 112
112 112 112
124 124 124
124 124 124
112 112 112
100 100 100
100 100 100
100 100 100
100 100 100
100 100 100
84 84 84
100 100 100
84 84 84
84 84 84
72 72 72
32 32 32
0 0 0
44 44 44
56 56 56
72 72 72
72 72 72
56 56 56
0 0 0
44 44 44
72 72 72
72 72 72
72 72 72
56 56 56
44 44 44
56 56 56
84 84 84
72 72 72
84 84 84
72 72 72
56 56 56
44 44 44

44 44 44
56 56 56
72 72 72
124 124 124
124 124 124
124 124 124
124 124 124
124 124 124
140 140 140
124 124 124
140 140 140
124 124 124
152 152 152
152 152 152
140 140 140
124 124 124
140 140 140
124 124 124
140 140 140
84 84 84
32 32 32
0 0 0
56 56 56
124 124 124
124 124 124
112 112 112
124 124 124
112 112 112
112 112 112
124 124 124
124 124 124
112 112 112
100 100 100
100 100 100
100 100 100
100 100 100
100 100 100
84 84 84
100 100 100
84 84 84
84 84 84
72 72 72
32 32 32
0 0 0
44 44 44
56 56 56
72 72 72
72 72 72
72 72 72
56 56 56
0 0 0
44 44 44
72 72 72
72 72 72
72 72 72
72 72 72
72 72 72
84 84 84
72 72 72
84 84 84
72 72 72
72 72 72
56 56 56
44 44 44

44 44 44
56 56 56
72 72 72
124 124 124
112 112 112
72 72 72
32 32 32
32 32 32
84 84 84
140 140 140
124 124 124
140 140 140
152 152 152
152 152 152
140 140 140
140 140 140
124 124 124
140 140 140
124 124 124
140 140 140
84 84 84
32 32 32
0 0 0
56 56 56
112 112 112
124 124 124
112 112 112
112 112 112
124 124 124
32 32 32
44 44 44
56 56 56
56 56 56
56 56 56
56 56 56
100 100 100
84 84 84
100 100 100
84 84 84
84 84 84
84 84 84
44 44 44
0 0 0
44 44 44
56 56 56
72 72 72
72 72 72
72 72 72
72 72 72
56 56 56
0 0 0
44 44 44
72 72 72
72 72 72
72 72 72
72 72 72
72 72 72
72 72 72
84 84 84
72 72 72
84 84 84
72 72 72
56 56 56
44 44 44

44 44 44
56 56 56
72 72 72
112 112 112
84 84 84
0 0 0
44 44 44
44 44 44
32 32 32
124 124 124
140 140 140
124 124 124
152 152 152
152 152 152
140 140 140
124 124 124
140 140 140
124 124 124
140 140 140
124 124 124
124 124 124
56 56 56
0 0 0
0 0 0
56 56 56
112 112 112
112 112 112
124 124 124
84 84 84
0 0 0
0 0 0
0 0 0
32 32 32
32 32 32
56 56 56
84 84 84
100 100 100
84 84 84
84 84 84
84 84 84
44 44 44
0 0 0
44 44 44
56 56 56
72 72 72
72 72 72
72 72 72
72 72 72
72 72 72
56 56 56
0 0 0
44 44 44
72 72 72
72 72 72
72 72 72
72 72 72
72 72 72
84 84 84
72 72 72
84 84 84
72 72 72
72 72 72
56 56 56
44 44 44

44 44 44
56 56 56
72 72 72
84 84 84
72 72 72
0 0 0
0 0 0
32 32 32
32 32 32
140 140 140
124 124 124
140 140 140
152 152 152
152 152 152
140 140 140
140 140 140
124 124 124
140 140 140
124 124 124
124 124 124
124 124 124
84 84 84
56 56 56
0 0 0
0 0 0
56 56 56
112 112 112
124 124 124
56 56 56
0 0 0
0 0 0
0 0 0
0 0 0
32 32 32
56 56 56
100 100 100
84 84 84
84 84 84
84 84 84
44 44 44
0 0 0
44 44 44
56 56 56
72 72 72
72 72 72
72 72 72
72 72 72
72 72 72
72 72 72
56 56 56
0 0 0
44 44 44
72 72 72
72 72 72
72 72 72
72 72 72
84 84 84
72 72 72
84 84 84
72 72 72
84 84 84
72 72 72
56 56 56
44 44 44

44 44 44
56 56 56
72 72 72
72 72 72
84 84 84
0 0 0
0 0 0
0 0 0
32 32 32
124 124 124
140 140 140
124 124 124
152 152 152
152 152 152
140 140 140
124 124 124
140 140 140
124 124 124
124 124 124
124 124 124
124 124 124
112 112 112
84 84 84
56 56 56
32 32 32
56 56 56
124 124 124
124 124 124
44 44 44
0 0 0
0 0 0
0 0 0
0 0 0
0 0 0
56 56 56
84 84 84
84 84 84
84 84 84
44 44 44
0 0 0
44 44 44
56 56 56
72 72 72
72 72 72
72 72 72
72 72 72
72 72 72
72 72 72
72 72 72
56 56 56
0 0 0
44 44 44
72 72 72
72 72 72
72 72 72
84 84 84
72 72 72
84 84 84
72 72 72
84 84 84
84 84 84
72 72 72
56 56 56
44 44 44

44 44 44
56 56 56
72 72 72
84 84 84
112 112 112
0 0 0
0 0 0
0 0 0
32 32 32
140 140 140
124 124 124
140 140 140
152 152 152
152 152 152
140 140 140
140 140 140
124 124 124
124 124 124
124 124 124
124 124 124
112 112 112
124 124 124
112 112 112
84 84 84
56 56 56
100 100 100
112 112 112
100 100 100
32 32 32
0 0 0
0 0 0
0 0 0
0 0 0
0 0 0
56 56 56
84 84 84
84 84 84
84 84 84
32 32 32
44 44 44
56 56 56
72 72 72
72 72 72
72 72 72
72 72 72
72 72 72
72 72 72
72 72 72
72 72 72
56 56 56
0 0 0
44 44 44
72 72 72
72 72 72
72 72 72
72 72 72
84 84 84
72 72 72
84 84 84
84 84 84
84 84 84
72 72 72
56 56 56
44 44 44

44 44 44
56 56 56
72 72 72
112 112 112
140 140 140
0 0 0
0 0 0
0 0 0
32 32 32
124 124 124
140 140 140
124 124 124
152 152 152
152 152 152
140 140 140
124 124 124
124 124 124
124 124 124
124 124 124
112 112 112
124 124 124
112 112 112
112 112 112
124 124 124
152 152 152
112 112 112
100 100 100
112 112 112
32 32 32
0 0 0
0 0 0
0 0 0
0 0 0
0 0 0
44 44 44
84 84 84
84 84 84
72 72 72
100 100 100
124 124 124
100 100 100
72 72 72
72 72 72
72 72 72
72 72 72
72 72 72
72 72 72
72 72 72
72 72 72
56 56 56
0 0 0
44 44 44
72 72 72
72 72 72
72 72 72
84 84 84
72 72 72
84 84 84
84 84 84
84 84 84
84 84 84
72 72 72
56 56 56
44 44 44

44 44 44
56 56 56
72 72 72
140 140 140
124 124 124
0 0 0
0 0 0
0 0 0
32 32 32
140 140 140
124 124 124
140 140 140
152 152 152
152 152 152
140 140 140
124 124 124
124 124 124
124 124 124
112 112 112
124 124 124
112 112 112
112 112 112
112 112 112
152 152 152
124 124 124
100 100 100
112 112 112
100 100 100
32 32 32
0 0 0
0 0 0
0 0 0
0 0 0
0 0 0
32 32 32
84 84 84
72 72 72
84 84 84
72 72 72
100 100 100
124 124 124
100 100 100
72 72 72
72 72 72
72 72 72
72 72 72
72 72 72
72 72 72
72 72 72
56 56 56
0 0 0
44 44 44
72 72 72
72 72 72
84 84 84
72 72 72
84 84 84
84 84 84
84 84 84
84 84 84
84 84 84
72 72 72
56 56 56
44 44 44

44 44 44
56 56 56
72 72 72
124 124 124
140 140 140
0 0 0
0 0 0
0 0 0
32 32 32
124 124 124
140 140 140
124 124 124
152 152 152
152 152 152
140 140 140
124 124 124
124 124 124
112 112 112
124 124 124
112 112 112
112 112 112
112 112 112
124 124 124
152 152 152
100 100 100
112 112 112
100 100 100
100 100 100
32 32 32
0 0 0
0 0 0
0 0 0
0 0 0
0 0 0
0 0 0
72 72 72
84 84 84
72 72 72
84 84 84
72 72 72
100 100 100
124 124 124
100 100 100
72 72 72
72 72 72
72 72 72
72 72 72
72 72 72
72 72 72
56 56 56
0 0 0
44 44 44
72 72 72
84 84 84
72 72 72
84 84 84
72 72 72
84 84 84
84 84 84
84 84 84
84 84 84
72 72 72
56 56 56
44 44 44

44 44 44
56 56 56
72 72 72
140 140 140
124 124 124
0 0 0
0 0 0
0 0 0
32 32 32
140 140 140
124 124 124
124 124 124
152 152 152
152 152 152
140 140 140
124 124 124
112 112 112
124 124 124
112 112 112
112 112 112
112 112 112
124 124 124
152 152 152
124 124 124
112 112 112
112 112 112
100 100 100
100 100 100
32 32 32
32 32 32
32 32 32
32 32 32
44 44 44
56 56 56
72 72 72
84 84 84
72 72 72
84 84 84
72 72 72
72 72 72
72 72 72
112 112 112
124 124 124
72 72 72
72 72 72
72 72 72
72 72 72
72 72 72
72 72 72
56 56 56
0 0 0
44 44 44
84 84 84
72 72 72
84 84 84
72 72 72
84 84 84
84 84 84
84 84 84
84 84 84
84 84 84
72 72 72
56 56 56
44 44 44

44 44 44
56 56 56
72 72 72
124 124 124
112 112 112
0 0 0
0 0 0
0 0 0
0 0 0
124 124 124
124 124 124
124 124 124
152 152 152
152 152 152
140 140 140
112 112 112
124 124 124
112 112 112
112 112 112
112 112 112
124 124 124
152 152 152
124 124 124
112 112 112
112 112 112
100 100 100
100 100 100
100 100 100
100 100 100
84 84 84
100 100 100
84 84 84
84 84 84
84 84 84
84 84 84
72 72 72
84 84 84
72 72 72
72 72 72
72 72 72
72 72 72
100 100 100
124 124 124
100 100 100
72 72 72
72 72 72
72 72 72
72 72 72
72 72 72
56 56 56
0 0 0
44 44 44
72 72 72
84 84 84
72 72 72
84 84 84
84 84 84
84 84 84
84 84 84
84 84 84
84 84 84
72 72 72
56 56 56
44 44 44

44 44 44
56 56 56
72 72 72
112 112 112
84 84 84
44 44 44
0 0 0
0 0 0
84 84 84
124 124 124
124 124 124
124 124 124
152 152 152
152 152 152
140 140 140
124 124 124
112 112 112
112 112 112
112 112 112
124 124 124
152 152 152
124 124 124
112 112 112
112 112 112
100 100 100
100 100 100
100 100 100
100 100 100
84 84 84
100 100 100
84 84 84
84 84 84
84 84 84
84 84 84
72 72 72
84 84 84
72 72 72
72 72 72
72 72 72
72 72 72
72 72 72
72 72 72
100 100 100
124 124 124
100 100 100
72 72 72
72 72 72
72 72 72
72 72 72
56 56 56
0 0 0
44 44 44
84 84 84
72 72 72
84 84 84
72 72 72
84 84 84
84 84 84
84 84 84
84 84 84
84 84 84
72 72 72
56 56 56
44 44 44

44 44 44
56 56 56
72 72 72
84 84 84
72 72 72
72 72 72
84 84 84
124 124 124
124 124 124
124 124 124
124 124 124
124 124 124
152 152 152
152 152 152
140 140 140
112 112 112
112 112 112
112 112 112
124 124 124
152 152 152
124 124 124
112 112 112
112 112 112
112 112 112
100 100 100
100 100 100
100 100 100
84 84 84
100 100 100
84 84 84
84 84 84
84 84 84
84 84 84
72 72 72
84 84 84
72 72 72
72 72 72
72 72 72
72 72 72
72 72 72
72 72 72
72 72 72
72 72 72
100 100 100
124 124 124
100 100 100
72 72 72
72 72 72
72 72 72
56 56 56
0 0 0
44 44 44
72 72 72
84 84 84
72 72 72
84 84 84
100 100 100
100 100 100
84 84 84
84 84 84
84 84 84
72 72 72
56 56 56
44 44 44

44 44 44
56 56 56
72 72 72
72 72 72
72 72 72
84 84 84
152 152 152
152 152 152
124 124 124
124 124 124
124 124 124
124 124 124
152 152 152
152 152 152
140 140 140
112 112 112
112 112 112
112 112 112
152 152 152
152 152 152
112 112 112
112 112 112
112 112 112
100 100 100
100 100 100
100 100 100
100 100 100
100 100 100
84 84 84
84 84 84
84 84 84
84 84 84
44 44 44
44 44 44
72 72 72
72 72 72
72 72 72
72 72 72
72 72 72
72 72 72
72 72 72
72 72 72
72 72 72
72 72 72
100 100 100
124 124 124
100 100 100
72 72 72
72 72 72
56 56 56
0 0 0
44 44 44
84 84 84
72 72 72
84 84 84
72 72 72
112 112 112
124 124 124
100 100 100
84 84 84
84 84 84
72 72 72
56 56 56
44 44 44

44 44 44
56 56 56
72 72 72
72 72 72
84 84 84
100 100 100
124 124 124
152 152 152
152 152 152
124 124 124
124 124 124
112 112 112
152 152 152
152 152 152
140 140 140
112 112 112
112 112 112
124 124 124
152 152 152
124 124 124
112 112 112
112 112 112
100 100 100
100 100 100
100 100 100
100 100 100
100 100 100
84 84 84
100 100 100
84 84 84
84 84 84
44 44 44
0 0 0
0 0 0
44 44 44
72 72 72
72 72 72
72 72 72
72 72 72
72 72 72
72 72 72
72 72 72
72 72 72
72 72 72
72 72 72
100 100 100
124 124 124
100 100 100
84 84 84
56 56 56
0 0 0
44 44 44
72 72 72
84 84 84
72 72 72
44 44 44
84 84 84
112 112 112
56 56 56
84 84 84
84 84 84
72 72 72
56 56 56
44 44 44

44 44 44
56 56 56
72 72 72
84 84 84
124 124 124
44 44 44
84 84 84
124 124 124
100 100 100
124 124 124
112 112 112
124 124 124
152 152 152
152 152 152
140 140 140
112 112 112
124 124 124
152 152 152
124 124 124
112 112 112
112 112 112
100 100 100
100 100 100
100 100 100
100 100 100
100 100 100
84 84 84
100 100 100
84 84 84
84 84 84
32 32 32
0 0 0
32 32 32
0 0 0
0 0 0
44 44 44
72 72 72
72 72 72
72 72 72
72 72 72
72 72 72
72 72 72
72 72 72
72 72 72
72 72 72
72 72 72
100 100 100
124 124 124
84 84 84
56 56 56
44 44 44
44 44 44
84 84 84
72 72 72
84 84 84
56 56 56
44 44 44
56 56 56
72 72 72
84 84 84
84 84 84
72 72 72
56 56 56
44 44 44

44 44 44
56 56 56
72 72 72
124 124 124
140 140 140
100 100 100
44 44 44
56 56 56
124 124 124
112 112 112
124 124 124
112 112 112
152 152 152
152 152 152
140 140 140
124 124 124
152 152 152
124 124 124
112 112 112
112 112 112
100 100 100
100 100 100
112 112 112
124 124 124
100 100 100
84 84 84
100 100 100
84 84 84
84 84 84
32 32 32
0 0 0
32 32 32
56 56 56
32 32 32
0 0 0
44 44 44
72 72 72
72 72 72
72 72 72
72 72 72
84 84 84
100 100 100
100 100 100
84 84 84
72 72 72
72 72 72
100 100 100
124 124 124
100 100 100
84 84 84
44 44 44
44 44 44
72 72 72
84 84 84
84 84 84
84 84 84
84 84 84
84 84 84
84 84 84
84 84 84
84 84 84
72 72 72
56 56 56
44 44 44

44 44 44
56 56 56
72 72 72
140 140 140
124 124 124
124 124 124
124 124 124
124 124 124
112 112 112
124 124 124
112 112 112
112 112 112
152 152 152
152 152 152
140 140 140
152 152 152
124 124 124
112 112 112
112 112 112
100 100 100
112 112 112
100 100 100
124 124 124
124 124 124
112 112 112
100 100 100
84 84 84
84 84 84
56 56 56
0 0 0
32 32 32
56 56 56
72 72 72
56 56 56
32 32 32
0 0 0
44 44 44
72 72 72
72 72 72
72 72 72
84 84 84
112 112 112
124 124 124
100 100 100
72 72 72
72 72 72
72 72 72
100 100 100
124 124 124
112 112 112
44 44 44
44 44 44
84 84 84
84 84 84
84 84 84
84 84 84
84 84 84
84 84 84
84 84 84
84 84 84
84 84 84
72 72 72
56 56 56
44 44 44

44 44 44
56 56 56
72 72 72
124 124 124
124 124 124
124 124 124
124 124 124
112 112 112
124 124 124
112 112 112
112 112 112
112 112 112
152 152 152
152 152 152
140 140 140
152 152 152
112 112 112
112 112 112
100 100 100
112 112 112
100 100 100
44 44 44
84 84 84
100 100 100
56 56 56
84 84 84
84 84 84
44 44 44
0 0 0
32 32 32
56 56 56
72 72 72
72 72 72
72 72 72
56 56 56
0 0 0
0 0 0
44 44 44
72 72 72
72 72 72
44 44 44
84 84 84
112 112 112
84 84 84
72 72 72
72 72 72
84 84 84
72 72 72
100 100 100
124 124 124
84 84 84
44 44 44
84 84 84
84 84 84
84 84 84
84 84 84
84 84 84
84 84 84
84 84 84
84 84 84
84 84 84
72 72 72
56 56 56
44 44 44

44 44 44
56 56 56
72 72 72
124 124 124
124 124 124
124 124 124
112 112 112
124 124 124
112 112 112
112 112 112
112 112 112
112 112 112
152 152 152
152 152 152
152 152 152
112 112 112
112 112 112
100 100 100
112 112 112
100 100 100
100 100 100
72 72 72
44 44 44
56 56 56
84 84 84
84 84 84
44 44 44
0 0 0
32 32 32
56 56 56
72 72 72
72 72 72
72 72 72
72 72 72
56 56 56
44 44 44
0 0 0
0 0 0
44 44 44
72 72 72
72 72 72
44 44 44
56 56 56
72 72 72
72 72 72
72 72 72
72 72 72
84 84 84
72 72 72
100 100 100
124 124 124
44 44 44
84 84 84
84 84 84
84 84 84
84 84 84
84 84 84
84 84 84
84 84 84
84 84 84
84 84 84
72 72 72
56 56 56
44 44 44

44 44 44
56 56 56
72 72 72
124 124 124
124 124 124
112 112 112
124 124 124
112 112 112
112 112 112
112 112 112
112 112 112
112 112 112
152 152 152
152 152 152
112 112 112
112 112 112
100 100 100
112 112 112
100 100 100
100 100 100
100 100 100
100 100 100
100 100 100
84 84 84
84 84 84
72 72 72
32 32 32
0 0 0
56 56 56
72 72 72
72 72 72
72 72 72
72 72 72
72 72 72
72 72 72
56 56 56
44 44 44
0 0 0
0 0 0
44 44 44
72 72 72
72 72 72
72 72 72
72 72 72
72 72 72
72 72 72
84 84 84
72 72 72
84 84 84
84 84 84
100 100 100
56 56 56
84 84 84
84 84 84
84 84 84
84 84 84
84 84 84
84 84 84
84 84 84
84 84 84
84 84 84
72 72 72
56 56 56
44 44 44

44 44 44
56 56 56
72 72 72
124 124 124
112 112 112
124 124 124
112 112 112
112 112 112
112 112 112
112 112 112
112 112 112
112 112 112
152 152 152
112 112 112
112 112 112
100 100 100
112 112 112
100 100 100
112 112 112
100 100 100
100 100 100
100 100 100
84 84 84
84 84 84
72 72 72
32 32 32
0 0 0
56 56 56
72 72 72
72 72 72
72 72 72
72 72 72
72 72 72
72 72 72
72 72 72
72 72 72
56 56 56
44 44 44
0 0 0
0 0 0
44 44 44
72 72 72
72 72 72
72 72 72
72 72 72
84 84 84
72 72 72
84 84 84
84 84 84
84 84 84
84 84 84
84 84 84
84 84 84
84 84 84
84 84 84
84 84 84
84 84 84
84 84 84
84 84 84
84 84 84
84 84 84
72 72 72
56 56 56
44 44 44

44 44 44
56 56 56
72 72 72
112 112 112
124 124 124
112 112 112
112 112 112
112 112 112
112 112 112
112 112 112
112 112 112
112 112 112
112 112 112
112 112 112
100 100 100
112 112 112
100 100 100
112 112 112
100 100 100
100 100 100
100 100 100
84 84 84
100 100 100
84 84 84
32 32 32
0 0 0
56 56 56
72 72 72
84 84 84
72 72 72
72 72 72
72 72 72
72 72 72
72 72 72
72 72 72
72 72 72
72 72 72
56 56 56
44 44 44
0 0 0
44 44 44
72 72 72
72 72 72
72 72 72
72 72 72
72 72 72
84 84 84
72 72 72
84 84 84
84 84 84
72 72 72
84 84 84
84 84 84
84 84 84
84 84 84
84 84 84
84 84 84
84 84 84
84 84 84
84 84 84
84 84 84
72 72 72
56 56 56
44 44 44

44 44 44
56 56 56
72 72 72
124 124 124
112 112 112
112 112 112
112 112 112
112 112 112
112 112 112
112 112 112
112 112 112
112 112 112
112 112 112
100 100 100
112 112 112
100 100 100
112 112 112
100 100 100
100 100 100
100 100 100
84 84 84
100 100 100
84 84 84
56 56 56
0 0 0
32 32 32
72 72 72
84 84 84
72 72 72
72 72 72
72 72 72
72 72 72
72 72 72
72 72 72
72 72 72
72 72 72
72 72 72
72 72 72
56 56 56
44 44 44
0 0 0
44 44 44
72 72 72
72 72 72
72 72 72
84 84 84
72 72 72
84 84 84
84 84 84
72 72 72
84 84 84
84 84 84
84 84 84
84 84 84
84 84 84
84 84 84
84 84 84
84 84 84
84 84 84
84 84 84
84 84 84
72 72 72
56 56 56
44 44 44

44 44 44
56 56 56
72 72 72
112 112 112
112 112 112
112 112 112
112 112 112
112 112 112
112 112 112
112 112 112
112 112 112
112 112 112
100 100 100
112 112 112
100 100 100
112 112 112
100 100 100
100 100 100
100 100 100
84 84 84
100 100 100
84 84 84
72 72 72
32 32 32
32 32 32
72 72 72
84 84 84
72 72 72
72 72 72
72 72 72
72 72 72
72 72 72
72 72 72
72 72 72
72 72 72
72 72 72
72 72 72
72 72 72
72 72 72
56 56 56
44 44 44
0 0 0
44 44 44
72 72 72
84 84 84
72 72 72
84 84 84
84 84 84
72 72 72
84 84 84
84 84 84
84 84 84
84 84 84
84 84 84
84 84 84
84 84 84
84 84 84
84 84 84
84 84 84
84 84 84
84 84 84
72 72 72
56 56 56
44 44 44

44 44 44
56 56 56
72 72 72
112 112 112
112 112 112
112 112 112
112 112 112
112 112 112
112 112 112
112 112 112
112 112 112
100 100 100
112 112 112
100 100 100
112 112 112
100 100 100
100 100 100
100 100 100
84 84 84
100 100 100
84 84 84
72 72 72
32 32 32
56 56 56
100 100 100
112 112 112
112 112 112
112 112 112
100 100 100
100 100 100
100 100 100
100 100 100
100 100 100
100 100 100
112 112 112
112 112 112
112 112 112
112 112 112
112 112 112
112 112 112
84 84 84
56 56 56
0 0 0
44 44 44
72 72 72
84 84 84
84 84 84
72 72 72
84 84 84
84 84 84
84 84 84
84 84 84
84 84 84
84 84 84
84 84 84
84 84 84
84 84 84
84 84 84
84 84 84
84 84 84
84 84 84
72 72 72
56 56 56
44 44 44

44 44 44
56 56 56
72 72 72
112 112 112
112 112 112
112 112 112
112 112 112
112 112 112
112 112 112
112 112 112
100 100 100
112 112 112
100 100 100
112 112 112
100 100 100
100 100 100
100 100 100
100 100 100
100 100 100
84 84 84
100 100 100
56 56 56
100 100 100
140 140 140
140 140 140
152 152 152
140 140 140
124 124 124
124 124 124
124 124 124
124 124 124
124 124 124
124 124 124
124 124 124
124 124 124
140 140 140
140 140 140
152 152 152
152 152 152
152 152 152
140 140 140
124 124 124
56 56 56
0 0 0
84 84 84
84 84 84
72 72 72
84 84 84
84 84 84
84 84 84
84 84 84
84 84 84
84 84 84
84 84 84
84 84 84
84 84 84
84 84 84
84 84 84
84 84 84
84 84 84
84 84 84
72 72 72
56 56 56
44 44 44

44 44 44
56 56 56
72 72 72
112 112 112
112 112 112
112 112 112
112 112 112
112 112 112
112 112 112
100 100 100
112 112 112
100 100 100
112 112 112
100 100 100
100 100 100
100 100 100
100 100 100
100 100 100
84 84 84
100 100 100
84 84 84
124 124 124
140 140 140
152 152 152
140 140 140
124 124 124
124 124 124
124 124 124
124 124 124
124 124 124
124 124 124
124 124 124
124 124 124
124 124 124
124 124 124
124 124 124
140 140 140
140 140 140
140 140 140
152 152 152
152 152 152
152 152 152
124 124 124
100 100 100
84 84 84
72 72 72
84 84 84
72 72 72
84 84 84
84 84 84
84 84 84
84 84 84
84 84 84
84 84 84
84 84 84
84 84 84
84 84 84
84 84 84
84 84 84
84 84 84
84 84 84
72 72 72
56 56 56
44 44 44

44 44 44
56 56 56
72 72 72
112 112 112
112 112 112
112 112 112
112 112 112
112 112 112
100 100 100
112 112 112
100 100 100
112 112 112
100 100 100
100 100 100
100 100 100
100 100 100
100 100 100
84 84 84
100 100 100
84 84 84
100 100 100
84 84 84
100 100 100
84 84 84
84 84 84
84 84 84
72 72 72
72 72 72
72 72 72
72 72 72
72 72 72
72 72 72
72 72 72
72 72 72
72 72 72
72 72 72
72 72 72
72 72 72
72 72 72
84 84 84
72 72 72
84 84 84
72 72 72
84 84 84
72 72 72
84 84 84
72 72 72
84 84 84
84 84 84
84 84 84
84 84 84
84 84 84
84 84 84
84 84 84
84 84 84
84 84 84
84 84 84
84 84 84
84 84 84
84 84 84
84 84 84
72 72 72
56 56 56
44 44 44

44 44 44
56 56 56
72 72 72
112 112 112
112 112 112
112 112 112
140 140 140
140 140 140
112 112 112
100 100 100
112 112 112
100 100 100
100 100 100
100 100 100
100 100 100
100 100 100
84 84 84
100 100 100
84 84 84
100 100 100
84 84 84
100 100 100
84 84 84
100 100 100
100 100 100
72 72 72
72 72 72
72 72 72
72 72 72
72 72 72
72 72 72
72 72 72
72 72 72
72 72 72
72 72 72
72 72 72
72 72 72
72 72 72
84 84 84
72 72 72
100 100 100
100 100 100
84 84 84
72 72 72
84 84 84
72 72 72
84 84 84
84 84 84
84 84 84
84 84 84
84 84 84
84 84 84
84 84 84
84 84 84
84 84 84
84 84 84
100 100 100
100 100 100
84 84 84
84 84 84
84 84 84
72 72 72
56 56 56
44 44 44

44 44 44
56 56 56
72 72 72
112 112 112
112 112 112
100 100 100
124 124 124
152 152 152
124 124 124
112 112 112
100 100 100
100 100 100
100 100 100
100 100 100
100 100 100
84 84 84
100 100 100
84 84 84
100 100 100
84 84 84
100 100 100
84 84 84
100 100 100
112 112 112
124 124 124
84 84 84
72 72 72
72 72 72
72 72 72
72 72 72
72 72 72
72 72 72
72 72 72
72 72 72
72 72 72
72 72 72
72 72 72
72 72 72
72 72 72
84 84 84
112 112 112
124 124 124
100 100 100
84 84 84
72 72 72
84 84 84
84 84 84
84 84 84
84 84 84
84 84 84
84 84 84
84 84 84
84 84 84
84 84 84
84 84 84
100 100 100
112 112 112
124 124 124
100 100 100
84 84 84
84 84 84
72 72 72
56 56 56
44 44 44

44 44 44
56 56 56
72 72 72
112 112 112
112 112 112
44 44 44
84 84 84
100 100 100
56 56 56
100 100 100
100 100 100
100 100 100
100 100 100
100 100 100
84 84 84
100 100 100
84 84 84
100 100 100
84 84 84
100 100 100
84 84 84
84 84 84
44 44 44
84 84 84
100 100 100
56 56 56
72 72 72
72 72 72
72 72 72
72 72 72
72 72 72
72 72 72
72 72 72
72 72 72
72 72 72
72 72 72
72 72 72
72 72 72
84 84 84
44 44 44
84 84 84
112 112 112
56 56 56
72 72 72
84 84 84
72 72 72
84 84 84
84 84 84
84 84 84
84 84 84
84 84 84
84 84 84
84 84 84
84 84 84
84 84 84
44 44 44
84 84 84
112 112 112
56 56 56
84 84 84
84 84 84
72 72 72
56 56 56
44 44 44

44 44 44
56 56 56
72 72 72
112 112 112
100 100 100
72 72 72
44 44 44
56 56 56
100 100 100
100 100 100
100 100 100
100 100 100
100 100 100
84 84 84
100 100 100
84 84 84
100 100 100
84 84 84
100 100 100
84 84 84
84 84 84
84 84 84
56 56 56
44 44 44
56 56 56
72 72 72
72 72 72
72 72 72
72 72 72
72 72 72
72 72 72
72 72 72
72 72 72
72 72 72
72 72 72
72 72 72
72 72 72
84 84 84
72 72 72
56 56 56
44 44 44
56 56 56
72 72 72
84 84 84
72 72 72
84 84 84
84 84 84
84 84 84
84 84 84
84 84 84
84 84 84
84 84 84
84 84 84
84 84 84
84 84 84
56 56 56
44 44 44
56 56 56
72 72 72
84 84 84
84 84 84
72 72 72
56 56 56
44 44 44

44 44 44
56 56 56
72 72 72
100 100 100
112 112 112
100 100 100
112 112 112
100 100 100
100 100 100
100 100 100
100 100 100
100 100 100
84 84 84
100 100 100
84 84 84
100 100 100
84 84 84
100 100 100
84 84 84
84 84 84
84 84 84
72 72 72
72 72 72
72 72 72
72 72 72
72 72 72
72 72 72
72 72 72
72 72 72
72 72 72
72 72 72
72 72 72
72 72 72
72 72 72
72 72 72
72 72 72
84 84 84
72 72 72
84 84 84
72 72 72
84 84 84
72 72 72
84 84 84
72 72 72
84 84 84
84 84 84
84 84 84
84 84 84
84 84 84
84 84 84
84 84 84
84 84 84
84 84 84
84 84 84
84 84 84
84 84 84
84 84 84
84 84 84
84 84 84
84 84 84
84 84 84
72 72 72
56 56 56
44 44 44

44 44 44
56 56 56
72 72 72
72 72 72
72 72 72
72 72 72
72 72 72
72 72 72
72 72 72
72 72 72
72 72 72
72 72 72
72 72 72
72 72 72
72 72 72
72 72 72
72 72 72
72 72 72
72 72 72
72 72 72
72 72 72
72 72 72
72 72 72
72 72 72
72 72 72
72 72 72
72 72 72
72 72 72
72 72 72
72 72 72
72 72 72
72 72 72
72 72 72
72 72 72
72 72 72
72 72 72
72 72 72
72 72 72
72 72 72
72 72 72
72 72 72
72 72 72
72 72 72
72 72 72
72 72 72
72 72 72
72 72 72
72 72 72
72 72 72
72 72 72
72 72 72
72 72 72
72 72 72
72 72 72
72 72 72
72 72 72
72 72 72
72 72 72
72 72 72
72 72 72
72 72 72
72 72 72
56 56 56
44 44 44

44 44 44
56 56 56
56 56 56
56 56 56
56 56 56
56 56 56
56 56 56
56 56 56
56 56 56
56 56 56
56 56 56
56 56 56
56 56 56
56 56 56
56 56 56
56 56 56
56 56 56
56 56 56
56 56 56
56 56 56
56 56 56
56 56 56
56 56 56
56 56 56
56 56 56
56 56 56
56 56 56
56 56 56
56 56 56
56 56 56
56 56 56
56 56 56
56 56 56
56 56 56
56 56 56
56 56 56
56 56 56
56 56 56
56 56 56
56 56 56
56 56 56
56 56 56
56 56 56
56 56 56
56 56 56
56 56 56
56 56 56
56 56 56
56 56 56
56 56 56
56 56 56
56 56 56
56 56 56
56 56 56
56 56 56
56 56 56
56 56 56
56 56 56
56 56 56
56 56 56
56 56 56
56 56 56
56 56 56
44 44 44

44 44 44
44 44 44
44 44 44
44 44 44
44 44 44
44 44 44
44 44 44
44 44 44
44 44 44
44 44 44
44 44 44
44 44 44
44 44 44
44 44 44
44 44 44
44 44 44
44 44 44
44 44 44
44 44 44
44 44 44
44 44 44
44 44 44
44 44 44
44 44 44
44 44 44
44 44 44
44 44 44
44 44 44
44 44 44
44 44 44
44 44 44
44 44 44
44 44 44
44 44 44
44 44 44
44 44 44
44 44 44
44 44 44
44 44 44
44 44 44
44 44 44
44 44 44
44 44 44
44 44 44
44 44 44
44 44 44
44 44 44
44 44 44
44 44 44
44 44 44
44 44 44
44 44 44
44 44 44
44 44 44
44 44 44
44 44 44
44 44 44
44 44 44
44 44 44
44 44 44
44 44 44
44 44 44
44 44 44
44 44 44

