P3
# ASCII PPM file
64 64
255

0 0 0
0 0 0
0 0 0
0 0 0
0 0 0
0 0 0
0 0 0
0 0 0
0 0 0
0 0 0
0 0 0
0 0 0
0 0 0
0 0 0
0 0 0
0 0 0
0 0 0
0 0 0
0 0 0
0 0 0
0 0 0
0 0 0
0 0 0
0 0 0
0 0 0
0 0 0
0 0 0
0 0 0
0 0 0
0 0 0
0 0 0
0 0 0
0 0 0
0 0 0
0 0 0
0 0 0
0 0 0
0 0 0
0 0 0
0 0 0
0 0 0
0 0 0
0 0 0
0 0 0
0 0 0
0 0 0
0 0 0
0 0 0
0 0 0
0 0 0
0 0 0
0 0 0
0 0 0
0 0 0
0 0 0
0 0 0
0 0 0
0 0 0
0 0 0
0 0 0
0 0 0
0 0 0
0 0 0
0 0 0

0 0 0
32 32 32
32 32 32
32 32 32
32 32 32
32 32 32
32 32 32
32 32 32
32 32 32
32 32 32
32 32 32
32 32 32
32 32 32
32 32 32
32 32 32
32 32 32
32 32 32
32 32 32
32 32 32
32 32 32
32 32 32
32 32 32
32 32 32
32 32 32
32 32 32
32 32 32
32 32 32
32 32 32
32 32 32
32 32 32
32 32 32
32 32 32
32 32 32
32 32 32
32 32 32
32 32 32
32 32 32
32 32 32
32 32 32
32 32 32
32 32 32
32 32 32
32 32 32
32 32 32
32 32 32
32 32 32
32 32 32
32 32 32
32 32 32
32 32 32
32 32 32
32 32 32
32 32 32
32 32 32
32 32 32
32 32 32
32 32 32
32 32 32
32 32 32
32 32 32
32 32 32
32 32 32
32 32 32
0 0 0

0 0 0
32 32 32
32 32 32
44 44 44
44 44 44
44 44 44
44 44 44
44 44 44
44 44 44
44 44 44
44 44 44
44 44 44
44 44 44
44 44 44
44 44 44
44 44 44
44 44 44
44 44 44
44 44 44
44 44 44
44 44 44
44 44 44
44 44 44
44 44 44
44 44 44
44 44 44
44 44 44
44 44 44
44 44 44
44 44 44
44 44 44
44 44 44
44 44 44
44 44 44
44 44 44
44 44 44
44 44 44
44 44 44
44 44 44
44 44 44
44 44 44
44 44 44
44 44 44
44 44 44
44 44 44
44 44 44
44 44 44
44 44 44
44 44 44
44 44 44
44 44 44
44 44 44
44 44 44
44 44 44
44 44 44
44 44 44
44 44 44
44 44 44
44 44 44
44 44 44
44 44 44
44 44 44
44 44 44
0 0 0

0 0 0
32 32 32
0 0 0
72 72 72
72 72 72
72 72 72
72 72 72
72 72 72
72 72 72
72 72 72
72 72 72
72 72 72
72 72 72
72 72 72
72 72 72
72 72 72
72 72 72
72 72 72
84 84 84
72 72 72
84 84 84
72 72 72
84 84 84
72 72 72
84 84 84
92 92 92
92 92 92
92 92 92
100 100 100
92 92 92
100 100 100
100 100 100
100 100 100
100 100 100
92 92 92
92 92 92
84 84 84
84 84 84
76 76 76
76 76 76
84 84 84
72 72 72
76 76 76
76 76 76
76 76 76
76 76 76
72 72 72
72 72 72
64 64 64
72 72 72
64 64 64
64 64 64
64 64 64
64 64 64
56 56 56
64 64 64
56 56 56
56 56 56
52 52 52
56 56 56
52 52 52
52 52 52
48 48 48
0 0 0

0 0 0
32 32 32
0 0 0
72 72 72
72 72 72
100 100 100
124 124 124
100 100 100
72 72 72
72 72 72
72 72 72
100 100 100
124 124 124
100 100 100
72 72 72
84 84 84
72 72 72
100 100 100
124 124 124
100 100 100
72 72 72
84 84 84
84 84 84
92 92 92
92 92 92
92 92 92
92 92 92
100 100 100
92 92 92
100 100 100
100 100 100
100 100 100
92 92 92
92 92 92
92 92 92
84 84 84
84 84 84
84 84 84
76 76 76
84 84 84
72 72 72
76 76 76
76 76 76
76 76 76
76 76 76
72 72 72
72 72 72
64 64 64
72 72 72
64 64 64
64 64 64
64 64 64
64 64 64
56 56 56
64 64 64
56 56 56
56 56 56
52 52 52
56 56 56
52 52 52
52 52 52
48 48 48
48 48 48
0 0 0

0 0 0
32 32 32
0 0 0
72 72 72
72 72 72
56 56 56
100 100 100
124 124 124
72 72 72
72 72 72
72 72 72
56 56 56
100 100 100
124 124 124
84 84 84
72 72 72
84 84 84
56 56 56
100 100 100
124 124 124
84 84 84
84 84 84
92 92 92
92 92 92
100 100 100
92 92 92
100 100 100
100 100 100
100 100 100
100 100 100
100 100 100
92 92 92
92 92 92
92 92 92
84 84 84
84 84 84
84 84 84
76 76 76
84 84 84
72 72 72
76 76 76
76 76 76
76 76 76
76 76 76
72 72 72
72 72 72
64 64 64
72 72 72
64 64 64
64 64 64
64 64 64
64 64 64
56 56 56
64 64 64
56 56 56
56 56 56
52 52 52
56 56 56
52 52 52
52 52 52
48 48 48
48 48 48
48 48 48
0 0 0

0 0 0
32 32 32
0 0 0
72 72 72
72 72 72
32 32 32
56 56 56
100 100 100
72 72 72
84 84 84
72 72 72
32 32 32
56 56 56
100 100 100
72 72 72
84 84 84
72 72 72
32 32 32
56 56 56
100 100 100
84 84 84
92 92 92
92 92 92
100 100 100
92 92 92
100 100 100
100 100 100
100 100 100
100 100 100
92 92 92
92 92 92
92 92 92
92 92 92
84 84 84
84 84 84
84 84 84
76 76 76
84 84 84
72 72 72
76 76 76
76 76 76
76 76 76
76 76 76
72 72 72
72 72 72
64 64 64
72 72 72
64 64 64
64 64 64
64 64 64
64 64 64
56 56 56
64 64 64
56 56 56
56 56 56
72 72 72
84 84 84
84 84 84
56 56 56
48 48 48
48 48 48
48 48 48
44 44 44
0 0 0

0 0 0
32 32 32
0 0 0
72 72 72
72 72 72
72 72 72
84 84 84
72 72 72
84 84 84
72 72 72
84 84 84
72 72 72
84 84 84
72 72 72
84 84 84
84 84 84
92 92 92
84 84 84
84 84 84
92 92 92
100 100 100
92 92 92
100 100 100
100 100 100
100 100 100
124 124 124
44 44 44
32 32 32
0 0 0
0 0 0
0 0 0
0 0 0
0 0 0
0 0 0
0 0 0
0 0 0
0 0 0
0 0 0
0 0 0
0 0 0
0 0 0
0 0 0
0 0 0
0 0 0
0 0 0
0 0 0
0 0 0
32 32 32
44 44 44
100 100 100
84 84 84
72 72 72
56 56 56
56 56 56
56 56 56
56 56 56
100 100 100
84 84 84
52 52 52
48 48 48
48 48 48
44 44 44
48 48 48
0 0 0

0 0 0
32 32 32
0 0 0
84 84 84
72 72 72
84 84 84
72 72 72
84 84 84
72 72 72
84 84 84
72 72 72
84 84 84
84 84 84
84 84 84
84 84 84
92 92 92
92 92 92
92 92 92
92 92 92
100 100 100
92 92 92
100 100 100
100 100 100
100 100 100
100 100 100
100 100 100
124 124 124
56 56 56
56 56 56
56 56 56
56 56 56
56 56 56
56 56 56
56 56 56
56 56 56
56 56 56
56 56 56
56 56 56
44 44 44
44 44 44
44 44 44
44 44 44
44 44 44
44 44 44
44 44 44
44 44 44
44 44 44
56 56 56
100 100 100
84 84 84
72 72 72
56 56 56
56 56 56
56 56 56
56 56 56
32 32 32
56 56 56
72 72 72
48 48 48
48 48 48
44 44 44
48 48 48
44 44 44
0 0 0

0 0 0
32 32 32
0 0 0
72 72 72
84 84 84
72 72 72
84 84 84
72 72 72
84 84 84
84 84 84
84 84 84
84 84 84
92 92 92
84 84 84
92 92 92
92 92 92
100 100 100
92 92 92
100 100 100
92 92 92
100 100 100
100 100 100
100 100 100
100 100 100
100 100 100
92 92 92
100 100 100
124 124 124
84 84 84
84 84 84
84 84 84
76 76 76
84 84 84
76 76 76
84 84 84
76 76 76
76 76 76
76 76 76
76 76 76
76 76 76
72 72 72
72 72 72
72 72 72
72 72 72
64 64 64
72 72 72
64 64 64
100 100 100
84 84 84
72 72 72
56 56 56
56 56 56
56 56 56
56 56 56
52 52 52
56 56 56
44 44 44
44 44 44
48 48 48
44 44 44
48 48 48
44 44 44
48 48 48
0 0 0

0 0 0
32 32 32
0 0 0
84 84 84
72 72 72
84 84 84
72 72 72
84 84 84
84 84 84
84 84 84
84 84 84
92 92 92
92 92 92
92 92 92
92 92 92
100 100 100
92 92 92
100 100 100
100 100 100
100 100 100
100 100 100
100 100 100
100 100 100
100 100 100
92 92 92
84 84 84
100 100 100
124 124 124
100 100 100
84 84 84
76 76 76
84 84 84
76 76 76
84 84 84
76 76 76
76 76 76
76 76 76
76 76 76
76 76 76
72 72 72
72 72 72
72 72 72
72 72 72
64 64 64
72 72 72
64 64 64
84 84 84
100 100 100
72 72 72
56 56 56
56 56 56
56 56 56
56 56 56
52 52 52
56 56 56
52 52 52
52 52 52
48 48 48
44 44 44
48 48 48
44 44 44
48 48 48
48 48 48
0 0 0

0 0 0
32 32 32
0 0 0
72 72 72
84 84 84
84 84 84
92 92 92
84 84 84
84 84 84
84 84 84
92 92 92
92 92 92
100 100 100
92 92 92
100 100 100
92 92 92
100 100 100
100 100 100
100 100 100
100 100 100
100 100 100
100 100 100
100 100 100
92 92 92
84 84 84
92 92 92
84 84 84
100 100 100
124 124 124
100 100 100
84 84 84
76 76 76
84 84 84
76 76 76
76 76 76
76 76 76
76 76 76
76 76 76
72 72 72
72 72 72
72 72 72
72 72 72
64 64 64
72 72 72
64 64 64
84 84 84
100 100 100
84 84 84
56 56 56
64 64 64
56 56 56
56 56 56
52 52 52
56 56 56
52 52 52
52 52 52
48 48 48
44 44 44
48 48 48
44 44 44
48 48 48
44 44 44
48 48 48
0 0 0

0 0 0
32 32 32
0 0 0
84 84 84
84 84 84
92 92 92
84 84 84
84 84 84
124 0 0
92 92 92
92 92 92
100 100 100
92 92 92
100 100 100
100 100 100
100 100 100
100 100 100
100 100 100
100 100 100
100 100 100
92 92 92
100 100 100
92 92 92
84 84 84
92 92 92
84 84 84
84 84 84
84 84 84
100 100 100
124 124 124
100 100 100
84 84 84
76 76 76
76 76 76
76 76 76
76 76 76
76 76 76
72 72 72
72 72 72
72 72 72
72 72 72
64 64 64
72 72 72
64 64 64
84 84 84
100 100 100
84 84 84
56 56 56
64 64 64
56 56 56
56 56 56
52 52 52
56 56 56
52 52 52
52 52 52
48 48 48
44 44 44
48 48 48
44 44 44
44 44 44
44 44 44
48 48 48
52 52 52
0 0 0

0 0 0
32 32 32
0 0 0
84 84 84
92 92 92
92 92 92
92 92 92
124 0 0
124 0 0
152 0 0
100 100 100
92 92 92
100 100 100
100 100 100
100 100 100
100 100 100
100 100 100
72 72 72
72 72 72
92 92 92
100 100 100
92 92 92
84 84 84
92 92 92
84 84 84
84 84 84
84 84 84
76 76 76
84 84 84
100 100 100
124 124 124
76 76 76
76 76 76
76 76 76
76 76 76
76 76 76
72 72 72
72 72 72
72 72 72
72 72 72
64 64 64
72 72 72
64 64 64
72 72 72
100 100 100
84 84 84
56 56 56
64 64 64
56 56 56
56 56 56
56 56 56
56 56 56
52 52 52
52 52 52
48 48 48
44 44 44
48 48 48
0 0 0
44 44 44
44 44 44
48 48 48
48 48 48
48 48 48
0 0 0

0 0 0
32 32 32
0 0 0
92 92 92
92 92 92
92 92 92
124 0 0
136 0 0
136 0 0
136 0 0
152 0 0
100 100 100
100 100 100
100 100 100
100 100 100
100 100 100
100 100 100
112 112 112
44 44 44
72 72 72
92 92 92
84 84 84
92 92 92
84 84 84
100 100 100
124 124 124
100 100 100
84 84 84
76 76 76
84 84 84
112 112 112
84 84 84
76 76 76
76 76 76
76 76 76
72 72 72
72 72 72
72 72 72
72 72 72
72 72 72
72 72 72
64 64 64
72 72 72
84 84 84
100 100 100
56 56 56
64 64 64
56 56 56
56 56 56
72 72 72
84 84 84
84 84 84
52 52 52
48 48 48
44 44 44
48 48 48
32 32 32
0 0 0
44 44 44
48 48 48
44 44 44
48 48 48
52 52 52
0 0 0

0 0 0
32 32 32
0 0 0
92 92 92
100 100 100
152 0 0
136 0 0
136 0 0
136 0 0
136 0 0
136 0 0
152 0 0
100 100 100
100 100 100
100 100 100
100 100 100
92 92 92
124 124 124
72 72 72
44 44 44
84 84 84
92 92 92
84 84 84
84 84 84
56 56 56
100 100 100
124 124 124
76 76 76
84 84 84
76 76 76
84 84 84
112 112 112
84 84 84
76 76 76
72 72 72
72 72 72
72 72 72
72 72 72
72 72 72
72 72 72
64 64 64
72 72 72
84 84 84
100 100 100
84 84 84
64 64 64
56 56 56
56 56 56
56 56 56
56 56 56
100 100 100
84 84 84
48 48 48
52 52 52
48 48 48
32 32 32
32 32 32
0 0 0
48 48 48
44 44 44
48 48 48
52 52 52
48 48 48
0 0 0

0 0 0
32 32 32
0 0 0
100 100 100
152 0 0
136 0 0
136 0 0
136 0 0
136 0 0
136 0 0
136 0 0
136 0 0
152 0 0
100 100 100
100 100 100
100 100 100
92 92 92
124 124 124
84 84 84
32 32 32
44 44 44
84 84 84
84 84 84
84 84 84
32 32 32
56 56 56
100 100 100
84 84 84
76 76 76
84 84 84
76 76 76
84 84 84
112 112 112
84 84 84
72 72 72
72 72 72
72 72 72
72 72 72
72 72 72
64 64 64
72 72 72
84 84 84
100 100 100
84 84 84
64 64 64
56 56 56
56 56 56
56 56 56
56 56 56
32 32 32
56 56 56
72 72 72
52 52 52
48 48 48
44 44 44
32 32 32
32 32 32
0 0 0
44 44 44
48 48 48
48 48 48
48 48 48
52 52 52
0 0 0

0 0 0
32 32 32
0 0 0
100 100 100
100 100 100
100 100 100
100 100 100
100 100 100
100 100 100
100 100 100
100 100 100
100 100 100
100 100 100
92 92 92
100 100 100
92 92 92
92 92 92
124 124 124
84 84 84
72 72 72
32 32 32
44 44 44
84 84 84
76 76 76
84 84 84
76 76 76
84 84 84
76 76 76
84 84 84
76 76 76
76 76 76
76 76 76
84 84 84
112 112 112
84 84 84
72 72 72
72 72 72
72 72 72
64 64 64
72 72 72
84 84 84
100 100 100
84 84 84
64 64 64
56 56 56
56 56 56
56 56 56
56 56 56
56 56 56
56 56 56
52 52 52
52 52 52
48 48 48
44 44 44
32 32 32
44 44 44
32 32 32
0 0 0
44 44 44
48 48 48
48 48 48
52 52 52
48 48 48
0 0 0

0 0 0
32 32 32
0 0 0
100 100 100
100 100 100
100 100 100
100 100 100
100 100 100
100 100 100
100 100 100
100 100 100
100 100 100
92 92 92
100 100 100
92 92 92
92 92 92
92 92 92
124 124 124
84 84 84
84 84 84
72 72 72
32 32 32
44 44 44
84 84 84
76 76 76
84 84 84
76 76 76
84 84 84
76 76 76
76 76 76
76 76 76
76 76 76
72 72 72
84 84 84
112 112 112
72 72 72
72 72 72
72 72 72
72 72 72
64 64 64
100 100 100
84 84 84
64 64 64
56 56 56
56 56 56
56 56 56
56 56 56
56 56 56
56 56 56
52 52 52
52 52 52
48 48 48
44 44 44
32 32 32
44 44 44
44 44 44
32 32 32
0 0 0
48 48 48
48 48 48
52 52 52
48 48 48
52 52 52
0 0 0

0 0 0
32 32 32
0 0 0
100 100 100
136 0 0
136 0 0
136 0 0
136 0 0
136 0 0
136 0 0
136 0 0
124 0 0
112 0 0
92 92 92
92 92 92
92 92 92
84 84 84
124 124 124
84 84 84
84 84 84
84 84 84
44 44 44
32 32 32
72 72 72
84 84 84
76 76 76
84 84 84
76 76 76
76 76 76
76 76 76
76 76 76
72 72 72
72 72 72
72 72 72
112 112 112
84 84 84
72 72 72
72 72 72
64 64 64
84 84 84
100 100 100
64 64 64
56 56 56
56 56 56
56 56 56
56 56 56
56 56 56
56 56 56
52 52 52
52 52 52
52 52 52
44 44 44
32 32 32
44 44 44
44 44 44
44 44 44
32 32 32
0 0 0
48 48 48
48 48 48
48 48 48
52 52 52
48 48 48
0 0 0

0 0 0
32 32 32
0 0 0
100 100 100
100 100 100
136 0 0
136 0 0
136 0 0
136 0 0
136 0 0
124 0 0
112 0 0
92 92 92
92 92 92
92 92 92
84 84 84
92 92 92
124 124 124
84 84 84
84 84 84
76 76 76
84 84 84
0 0 0
44 44 44
72 72 72
84 84 84
76 76 76
76 76 76
76 76 76
76 76 76
72 72 72
72 72 72
72 72 72
72 72 72
84 84 84
112 112 112
84 84 84
64 64 64
84 84 84
100 100 100
84 84 84
56 56 56
64 64 64
56 56 56
56 56 56
56 56 56
56 56 56
52 52 52
56 56 56
52 52 52
52 52 52
44 44 44
32 32 32
44 44 44
44 44 44
44 44 44
32 32 32
0 0 0
48 48 48
48 48 48
52 52 52
48 48 48
52 52 52
0 0 0

0 0 0
32 32 32
0 0 0
100 100 100
100 100 100
100 100 100
136 0 0
136 0 0
124 0 0
124 0 0
112 0 0
92 92 92
92 92 92
92 92 92
84 84 84
92 92 92
84 84 84
124 124 124
84 84 84
76 76 76
84 84 84
72 72 72
44 44 44
0 0 0
44 44 44
72 72 72
76 76 76
76 76 76
76 76 76
72 72 72
72 72 72
72 72 72
72 72 72
72 72 72
64 64 64
84 84 84
112 112 112
84 84 84
100 100 100
84 84 84
56 56 56
64 64 64
56 56 56
56 56 56
56 56 56
56 56 56
52 52 52
56 56 56
52 52 52
52 52 52
44 44 44
32 32 32
44 44 44
44 44 44
44 44 44
44 44 44
32 32 32
0 0 0
48 48 48
52 52 52
48 48 48
52 52 52
52 52 52
0 0 0

0 0 0
32 32 32
0 0 0
100 100 100
100 100 100
100 100 100
92 92 92
124 0 0
124 0 0
112 0 0
92 92 92
92 92 92
92 92 92
84 84 84
92 92 92
84 84 84
84 84 84
124 124 124
76 76 76
84 84 84
76 76 76
84 84 84
72 72 72
44 44 44
0 0 0
44 44 44
72 72 72
76 76 76
72 72 72
72 72 72
100 100 100
112 112 112
100 100 100
64 64 64
72 72 72
64 64 64
84 84 84
112 112 112
84 84 84
56 56 56
64 64 64
56 56 56
72 72 72
84 84 84
84 84 84
52 52 52
56 56 56
52 52 52
52 52 52
44 44 44
32 32 32
44 44 44
44 44 44
48 48 48
44 44 44
44 44 44
32 32 32
0 0 0
48 48 48
48 48 48
52 52 52
48 48 48
52 52 52
0 0 0

0 0 0
32 32 32
0 0 0
100 100 100
100 100 100
92 92 92
100 100 100
92 92 92
112 0 0
92 92 92
92 92 92
92 92 92
84 84 84
92 92 92
84 84 84
84 84 84
84 84 84
124 124 124
84 84 84
76 76 76
84 84 84
76 76 76
84 84 84
72 72 72
44 44 44
0 0 0
44 44 44
72 72 72
72 72 72
72 72 72
56 56 56
100 100 100
112 112 112
72 72 72
64 64 64
64 64 64
64 64 64
64 64 64
56 56 56
64 64 64
56 56 56
56 56 56
56 56 56
100 100 100
84 84 84
56 56 56
52 52 52
52 52 52
44 44 44
32 32 32
44 44 44
44 44 44
48 48 48
44 44 44
44 44 44
44 44 44
32 32 32
0 0 0
48 48 48
52 52 52
48 48 48
52 52 52
56 56 56
0 0 0

0 0 0
32 32 32
0 0 0
100 100 100
92 92 92
100 100 100
92 92 92
92 92 92
92 92 92
92 92 92
92 92 92
84 84 84
84 84 84
84 84 84
84 84 84
84 84 84
76 76 76
124 124 124
76 76 76
84 84 84
76 76 76
84 84 84
76 76 76
76 76 76
76 76 76
44 44 44
0 0 0
72 72 72
72 72 72
72 72 72
32 32 32
56 56 56
100 100 100
64 64 64
64 64 64
64 64 64
64 64 64
56 56 56
64 64 64
56 56 56
56 56 56
56 56 56
32 32 32
56 56 56
72 72 72
56 56 56
52 52 52
48 48 48
32 32 32
32 32 32
44 44 44
48 48 48
44 44 44
48 48 48
44 44 44
44 44 44
32 32 32
0 0 0
52 52 52
48 48 48
52 52 52
52 52 52
52 52 52
0 0 0

0 0 0
32 32 32
0 0 0
92 92 92
100 100 100
84 84 84
100 100 100
100 100 100
112 112 112
112 112 112
112 112 112
112 112 112
84 84 84
76 76 76
84 84 84
76 76 76
84 84 84
124 124 124
84 84 84
76 76 76
84 84 84
76 76 76
76 76 76
76 76 76
76 76 76
76 76 76
0 0 0
44 44 44
72 72 72
72 72 72
64 64 64
72 72 72
64 64 64
64 64 64
64 64 64
64 64 64
56 56 56
64 64 64
56 56 56
56 56 56
56 56 56
56 56 56
56 56 56
56 56 56
56 56 56
52 52 52
48 48 48
44 44 44
32 32 32
44 44 44
48 48 48
48 48 48
48 48 48
44 44 44
44 44 44
44 44 44
32 32 32
0 0 0
48 48 48
52 52 52
48 48 48
52 52 52
56 56 56
0 0 0

0 0 0
32 32 32
0 0 0
100 100 100
92 92 92
44 44 44
84 84 84
84 84 84
84 84 84
84 84 84
84 84 84
112 112 112
76 76 76
84 84 84
76 76 76
84 84 84
76 76 76
124 124 124
76 76 76
76 76 76
76 76 76
76 76 76
76 76 76
76 76 76
76 76 76
72 72 72
44 44 44
0 0 0
44 44 44
64 64 64
72 72 72
64 64 64
64 64 64
64 64 64
64 64 64
56 56 56
64 64 64
56 56 56
56 56 56
56 56 56
56 56 56
56 56 56
56 56 56
56 56 56
52 52 52
48 48 48
44 44 44
32 32 32
44 44 44
48 48 48
48 48 48
48 48 48
44 44 44
44 44 44
44 44 44
44 44 44
32 32 32
0 0 0
52 52 52
48 48 48
52 52 52
56 56 56
56 56 56
0 0 0

0 0 0
32 32 32
0 0 0
92 92 92
92 92 92
44 44 44
84 84 84
84 84 84
84 84 84
84 84 84
84 84 84
112 112 112
84 84 84
76 76 76
84 84 84
76 76 76
84 84 84
124 124 124
84 84 84
76 76 76
76 76 76
76 76 76
76 76 76
76 76 76
72 72 72
72 72 72
72 72 72
44 44 44
0 0 0
44 44 44
64 64 64
64 64 64
64 64 64
64 64 64
56 56 56
64 64 64
56 56 56
56 56 56
56 56 56
56 56 56
56 56 56
56 56 56
56 56 56
52 52 52
48 48 48
44 44 44
32 32 32
44 44 44
48 48 48
48 48 48
48 48 48
44 44 44
44 44 44
44 44 44
44 44 44
44 44 44
32 32 32
0 0 0
48 48 48
52 52 52
56 56 56
56 56 56
56 56 56
0 0 0

0 0 0
32 32 32
0 0 0
92 92 92
84 84 84
32 32 32
84 84 84
84 84 84
84 84 84
84 84 84
84 84 84
112 112 112
76 76 76
84 84 84
76 76 76
84 84 84
76 76 76
112 112 112
76 76 76
76 76 76
76 76 76
76 76 76
76 76 76
76 76 76
72 72 72
72 72 72
72 72 72
72 72 72
44 44 44
0 0 0
64 64 64
64 64 64
64 64 64
56 56 56
64 64 64
56 56 56
56 56 56
56 56 56
56 56 56
56 56 56
56 56 56
56 56 56
52 52 52
48 48 48
52 52 52
32 32 32
32 32 32
44 44 44
48 48 48
48 48 48
44 44 44
48 48 48
44 44 44
44 44 44
44 44 44
44 44 44
32 32 32
0 0 0
52 52 52
48 48 48
52 52 52
56 56 56
56 56 56
0 0 0

0 0 0
32 32 32
0 0 0
84 84 84
84 84 84
32 32 32
44 44 44
124 0 0
124 0 0
124 0 0
56 56 56
112 112 112
84 84 84
76 76 76
84 84 84
76 76 76
84 84 84
112 112 112
76 76 76
76 76 76
76 76 76
76 76 76
76 76 76
72 72 72
72 72 72
72 72 72
72 72 72
72 72 72
72 72 72
0 0 0
44 44 44
64 64 64
56 56 56
64 64 64
56 56 56
56 56 56
72 72 72
84 84 84
84 84 84
56 56 56
56 56 56
56 56 56
56 56 56
52 52 52
48 48 48
32 32 32
44 44 44
48 48 48
48 48 48
44 44 44
48 48 48
44 44 44
44 44 44
44 44 44
44 44 44
44 44 44
32 32 32
0 0 0
48 48 48
52 52 52
56 56 56
64 64 64
56 56 56
0 0 0

0 0 0
32 32 32
0 0 0
84 84 84
84 84 84
32 32 32
88 0 0
124 0 0
136 0 0
164 0 0
124 0 0
112 112 112
76 76 76
84 84 84
76 76 76
84 84 84
76 76 76
112 112 112
76 76 76
76 76 76
76 76 76
76 76 76
72 72 72
72 72 72
72 72 72
72 72 72
72 72 72
72 72 72
72 72 72
44 44 44
0 0 0
56 56 56
64 64 64
56 56 56
64 64 64
56 56 56
56 56 56
100 100 100
84 84 84
56 56 56
56 56 56
56 56 56
52 52 52
48 48 48
32 32 32
44 44 44
48 48 48
48 48 48
48 48 48
48 48 48
44 44 44
44 44 44
44 44 44
44 44 44
44 44 44
48 48 48
32 32 32
0 0 0
52 52 52
56 56 56
64 64 64
56 56 56
64 64 64
0 0 0

0 0 0
32 32 32
0 0 0
84 84 84
84 84 84
0 0 0
76 0 0
112 0 0
112 0 0
124 0 0
124 0 0
100 100 100
84 84 84
76 76 76
84 84 84
76 76 76
76 76 76
112 112 112
76 76 76
76 76 76
76 76 76
72 72 72
72 72 72
72 72 72
72 72 72
72 72 72
72 72 72
72 72 72
64 64 64
72 72 72
84 84 84
72 72 72
56 56 56
64 64 64
56 56 56
56 56 56
32 32 32
56 56 56
72 72 72
56 56 56
56 56 56
52 52 52
48 48 48
52 52 52
72 72 72
48 48 48
48 48 48
48 48 48
48 48 48
44 44 44
44 44 44
44 44 44
44 44 44
44 44 44
48 48 48
48 48 48
32 32 32
0 0 0
48 48 48
56 56 56
56 56 56
64 64 64
56 56 56
0 0 0

0 0 0
32 32 32
0 0 0
84 84 84
76 76 76
0 0 0
76 0 0
88 0 0
100 0 0
100 0 0
100 0 0
100 100 100
76 76 76
84 84 84
76 76 76
76 76 76
76 76 76
112 112 112
76 76 76
76 76 76
72 72 72
72 72 72
72 72 72
72 72 72
72 72 72
72 72 72
72 72 72
64 64 64
72 72 72
84 84 84
100 100 100
84 84 84
64 64 64
56 56 56
56 56 56
56 56 56
56 56 56
56 56 56
56 56 56
56 56 56
52 52 52
48 48 48
52 52 52
48 48 48
84 84 84
72 72 72
48 48 48
48 48 48
44 44 44
48 48 48
44 44 44
44 44 44
44 44 44
48 48 48
44 44 44
48 48 48
32 32 32
0 0 0
52 52 52
56 56 56
64 64 64
56 56 56
64 64 64
0 0 0

0 0 0
32 32 32
0 0 0
76 76 76
84 84 84
0 0 0
32 32 32
76 0 0
76 0 0
88 0 0
56 56 56
100 100 100
84 84 84
76 76 76
76 76 76
76 76 76
76 76 76
112 112 112
76 76 76
72 72 72
72 72 72
72 72 72
72 72 72
72 72 72
72 72 72
72 72 72
64 64 64
72 72 72
84 84 84
100 100 100
84 84 84
64 64 64
56 56 56
56 56 56
56 56 56
56 56 56
56 56 56
56 56 56
56 56 56
56 56 56
56 56 56
52 52 52
48 48 48
52 52 52
72 72 72
84 84 84
72 72 72
44 44 44
48 48 48
44 44 44
44 44 44
44 44 44
44 44 44
44 44 44
48 48 48
52 52 52
32 32 32
0 0 0
56 56 56
64 64 64
56 56 56
64 64 64
56 56 56
0 0 0

0 0 0
32 32 32
0 0 0
84 84 84
76 76 76
0 0 0
44 44 44
32 32 32
32 32 32
44 44 44
84 84 84
84 84 84
76 76 76
76 76 76
76 76 76
76 76 76
76 76 76
112 112 112
72 72 72
72 72 72
72 72 72
72 72 72
72 72 72
72 72 72
72 72 72
64 64 64
72 72 72
84 84 84
100 100 100
84 84 84
64 64 64
56 56 56
56 56 56
56 56 56
56 56 56
56 56 56
56 56 56
56 56 56
56 56 56
56 56 56
52 52 52
48 48 48
52 52 52
48 48 48
48 48 48
72 72 72
84 84 84
72 72 72
44 44 44
44 44 44
44 44 44
44 44 44
44 44 44
48 48 48
44 44 44
48 48 48
32 32 32
0 0 0
56 56 56
56 56 56
64 64 64
56 56 56
64 64 64
0 0 0

0 0 0
32 32 32
0 0 0
76 76 76
84 84 84
0 0 0
84 84 84
84 84 84
84 84 84
84 84 84
84 84 84
72 72 72
76 76 76
76 76 76
76 76 76
76 76 76
76 76 76
112 112 112
72 72 72
72 72 72
72 72 72
72 72 72
72 72 72
72 72 72
64 64 64
72 72 72
64 64 64
84 84 84
100 100 100
64 64 64
56 56 56
56 56 56
56 56 56
56 56 56
56 56 56
56 56 56
56 56 56
56 56 56
56 56 56
52 52 52
48 48 48
52 52 52
48 48 48
48 48 48
48 48 48
48 48 48
72 72 72
72 72 72
44 44 44
44 44 44
44 44 44
44 44 44
48 48 48
44 44 44
48 48 48
52 52 52
32 32 32
0 0 0
56 56 56
64 64 64
56 56 56
64 64 64
64 64 64
0 0 0

0 0 0
32 32 32
0 0 0
84 84 84
76 76 76
0 0 0
0 0 0
0 0 0
0 0 0
32 32 32
32 32 32
56 56 56
76 76 76
76 76 76
76 76 76
76 76 76
72 72 72
112 112 112
72 72 72
72 72 72
72 72 72
72 72 72
72 72 72
64 64 64
72 72 72
64 64 64
84 84 84
100 100 100
72 72 72
56 56 56
56 56 56
56 56 56
56 56 56
56 56 56
56 56 56
56 56 56
56 56 56
56 56 56
52 52 52
48 48 48
52 52 52
48 48 48
48 48 48
48 48 48
48 48 48
48 48 48
48 48 48
72 72 72
72 72 72
44 44 44
44 44 44
44 44 44
44 44 44
48 48 48
52 52 52
48 48 48
32 32 32
0 0 0
64 64 64
56 56 56
64 64 64
64 64 64
64 64 64
0 0 0

0 0 0
32 32 32
0 0 0
76 76 76
84 84 84
76 76 76
84 84 84
76 76 76
84 84 84
76 76 76
76 76 76
76 76 76
76 76 76
76 76 76
76 76 76
72 72 72
72 72 72
112 112 112
72 72 72
72 72 72
72 72 72
72 72 72
64 64 64
72 72 72
64 64 64
84 84 84
100 100 100
84 84 84
56 56 56
56 56 56
72 72 72
84 84 84
84 84 84
56 56 56
56 56 56
56 56 56
56 56 56
52 52 52
48 48 48
52 52 52
48 48 48
48 48 48
56 56 56
84 84 84
72 72 72
48 48 48
44 44 44
72 72 72
84 84 84
72 72 72
44 44 44
44 44 44
44 44 44
48 48 48
48 48 48
52 52 52
32 32 32
0 0 0
56 56 56
64 64 64
64 64 64
64 64 64
64 64 64
0 0 0

0 0 0
32 32 32
0 0 0
84 84 84
76 76 76
84 84 84
76 76 76
84 84 84
76 76 76
76 76 76
76 76 76
76 76 76
76 76 76
76 76 76
72 72 72
72 72 72
72 72 72
112 112 112
72 72 72
72 72 72
72 72 72
64 64 64
72 72 72
64 64 64
84 84 84
100 100 100
84 84 84
56 56 56
56 56 56
56 56 56
56 56 56
100 100 100
84 84 84
56 56 56
56 56 56
56 56 56
52 52 52
48 48 48
52 52 52
48 48 48
52 52 52
48 48 48
56 56 56
84 84 84
84 84 84
44 44 44
44 44 44
44 44 44
72 72 72
84 84 84
72 72 72
44 44 44
48 48 48
48 48 48
52 52 52
48 48 48
32 32 32
0 0 0
64 64 64
64 64 64
64 64 64
64 64 64
72 72 72
0 0 0

0 0 0
32 32 32
0 0 0
76 76 76
84 84 84
76 76 76
84 84 84
76 76 76
76 76 76
76 76 76
76 76 76
76 76 76
76 76 76
72 72 72
72 72 72
72 72 72
72 72 72
112 112 112
72 72 72
72 72 72
64 64 64
72 72 72
64 64 64
84 84 84
100 100 100
84 84 84
56 56 56
64 64 64
56 56 56
56 56 56
32 32 32
56 56 56
72 72 72
56 56 56
56 56 56
52 52 52
44 44 44
32 32 32
32 32 32
52 52 52
48 48 48
48 48 48
32 32 32
56 56 56
56 56 56
44 44 44
44 44 44
44 44 44
44 44 44
72 72 72
84 84 84
72 72 72
48 48 48
52 52 52
48 48 48
52 52 52
32 32 32
0 0 0
64 64 64
64 64 64
64 64 64
72 72 72
64 64 64
0 0 0

0 0 0
32 32 32
0 0 0
84 84 84
76 76 76
84 84 84
76 76 76
76 76 76
76 76 76
76 76 76
76 76 76
76 76 76
72 72 72
72 72 72
72 72 72
72 72 72
72 72 72
112 112 112
72 72 72
64 64 64
72 72 72
64 64 64
72 72 72
84 84 84
100 100 100
56 56 56
64 64 64
56 56 56
56 56 56
56 56 56
56 56 56
56 56 56
56 56 56
56 56 56
52 52 52
44 44 44
32 32 32
44 44 44
0 0 0
32 32 32
48 48 48
48 48 48
48 48 48
44 44 44
48 48 48
44 44 44
44 44 44
44 44 44
44 44 44
44 44 44
72 72 72
84 84 84
48 48 48
48 48 48
52 52 52
48 48 48
32 32 32
0 0 0
64 64 64
64 64 64
72 72 72
64 64 64
72 72 72
0 0 0

0 0 0
32 32 32
0 0 0
76 76 76
84 84 84
76 76 76
76 76 76
76 76 76
76 76 76
76 76 76
76 76 76
72 72 72
72 72 72
72 72 72
72 72 72
72 72 72
72 72 72
112 112 112
64 64 64
72 72 72
64 64 64
72 72 72
84 84 84
100 100 100
56 56 56
64 64 64
56 56 56
56 56 56
56 56 56
56 56 56
56 56 56
56 56 56
56 56 56
56 56 56
44 44 44
32 32 32
44 44 44
52 52 52
32 32 32
0 0 0
32 32 32
48 48 48
44 44 44
48 48 48
44 44 44
44 44 44
44 44 44
44 44 44
44 44 44
44 44 44
44 44 44
72 72 72
84 84 84
56 56 56
48 48 48
52 52 52
32 32 32
0 0 0
64 64 64
72 72 72
64 64 64
72 72 72
64 64 64
0 0 0

0 0 0
32 32 32
0 0 0
84 84 84
76 76 76
76 76 76
76 76 76
76 76 76
76 76 76
76 76 76
72 72 72
72 72 72
72 72 72
72 72 72
72 72 72
72 72 72
72 72 72
112 112 112
72 72 72
64 64 64
72 72 72
84 84 84
100 100 100
84 84 84
64 64 64
56 56 56
56 56 56
56 56 56
56 56 56
56 56 56
56 56 56
56 56 56
56 56 56
52 52 52
32 32 32
44 44 44
52 52 52
48 48 48
52 52 52
32 32 32
0 0 0
44 44 44
48 48 48
44 44 44
44 44 44
44 44 44
44 44 44
44 44 44
44 44 44
44 44 44
44 44 44
72 72 72
100 100 100
84 84 84
52 52 52
52 52 52
32 32 32
0 0 0
72 72 72
64 64 64
72 72 72
64 64 64
72 72 72
0 0 0

0 0 0
32 32 32
0 0 0
76 76 76
76 76 76
76 76 76
76 76 76
76 76 76
76 76 76
72 72 72
72 72 72
72 72 72
72 72 72
72 72 72
72 72 72
72 72 72
64 64 64
112 112 112
64 64 64
72 72 72
84 84 84
100 100 100
84 84 84
64 64 64
56 56 56
56 56 56
56 56 56
56 56 56
56 56 56
56 56 56
56 56 56
56 56 56
52 52 52
44 44 44
32 32 32
52 52 52
48 48 48
52 52 52
48 48 48
44 44 44
0 0 0
32 32 32
44 44 44
44 44 44
44 44 44
44 44 44
44 44 44
44 44 44
44 44 44
44 44 44
44 44 44
48 48 48
84 84 84
100 100 100
84 84 84
52 52 52
44 44 44
0 0 0
64 64 64
72 72 72
64 64 64
72 72 72
64 64 64
0 0 0

0 0 0
32 32 32
0 0 0
76 76 76
76 76 76
76 76 76
76 76 76
76 76 76
72 72 72
76 76 76
72 72 72
72 72 72
72 72 72
72 72 72
72 72 72
64 64 64
72 72 72
112 112 112
72 72 72
56 56 56
100 100 100
84 84 84
64 64 64
56 56 56
56 56 56
56 56 56
56 56 56
56 56 56
56 56 56
56 56 56
56 56 56
52 52 52
44 44 44
32 32 32
44 44 44
48 48 48
52 52 52
48 48 48
48 48 48
48 48 48
32 32 32
0 0 0
32 32 32
44 44 44
44 44 44
44 44 44
44 44 44
44 44 44
44 44 44
44 44 44
48 48 48
48 48 48
52 52 52
84 84 84
100 100 100
56 56 56
44 44 44
0 0 0
72 72 72
64 64 64
72 72 72
64 64 64
72 72 72
0 0 0

0 0 0
32 32 32
0 0 0
76 76 76
76 76 76
76 76 76
76 76 76
72 72 72
76 76 76
72 72 72
72 72 72
72 72 72
72 72 72
72 72 72
64 64 64
72 72 72
64 64 64
112 112 112
56 56 56
84 84 84
100 100 100
64 64 64
56 56 56
56 56 56
56 56 56
56 56 56
56 56 56
56 56 56
56 56 56
56 56 56
52 52 52
44 44 44
32 32 32
44 44 44
48 48 48
52 52 52
48 48 48
48 48 48
48 48 48
44 44 44
44 44 44
32 32 32
0 0 0
32 32 32
44 44 44
44 44 44
44 44 44
44 44 44
44 44 44
48 48 48
48 48 48
52 52 52
48 48 48
52 52 52
100 100 100
84 84 84
56 56 56
32 32 32
64 64 64
72 72 72
64 64 64
72 72 72
64 64 64
0 0 0

0 0 0
32 32 32
0 0 0
76 76 76
76 76 76
76 76 76
72 72 72
76 76 76
72 72 72
72 72 72
72 72 72
72 72 72
72 72 72
64 64 64
72 72 72
64 64 64
64 64 64
112 112 112
84 84 84
100 100 100
84 84 84
56 56 56
56 56 56
72 72 72
84 84 84
84 84 84
56 56 56
56 56 56
56 56 56
52 52 52
44 44 44
32 32 32
44 44 44
48 48 48
52 52 52
48 48 48
48 48 48
48 48 48
44 44 44
44 44 44
44 44 44
44 44 44
32 32 32
0 0 0
32 32 32
44 44 44
44 44 44
44 44 44
44 44 44
56 56 56
84 84 84
72 72 72
52 52 52
48 48 48
84 84 84
100 100 100
84 84 84
44 44 44
72 72 72
64 64 64
72 72 72
64 64 64
72 72 72
0 0 0

0 0 0
32 32 32
0 0 0
76 76 76
76 76 76
72 72 72
76 76 76
72 72 72
72 72 72
72 72 72
72 72 72
72 72 72
64 64 64
72 72 72
64 64 64
72 72 72
64 64 64
112 112 112
100 100 100
84 84 84
56 56 56
56 56 56
56 56 56
56 56 56
100 100 100
84 84 84
56 56 56
56 56 56
52 52 52
56 56 56
32 32 32
44 44 44
52 52 52
52 52 52
48 48 48
48 48 48
48 48 48
44 44 44
44 44 44
44 44 44
44 44 44
44 44 44
44 44 44
32 32 32
0 0 0
44 44 44
44 44 44
44 44 44
48 48 48
56 56 56
84 84 84
84 84 84
48 48 48
52 52 52
52 52 52
84 84 84
100 100 100
56 56 56
64 64 64
72 72 72
64 64 64
72 72 72
72 72 72
0 0 0

0 0 0
32 32 32
0 0 0
76 76 76
72 72 72
100 100 100
124 124 124
100 100 100
72 72 72
72 72 72
72 72 72
64 64 64
72 72 72
64 64 64
72 72 72
64 64 64
64 64 64
112 112 112
84 84 84
56 56 56
56 56 56
56 56 56
56 56 56
32 32 32
56 56 56
72 72 72
56 56 56
52 52 52
56 56 56
44 44 44
32 32 32
52 52 52
52 52 52
48 48 48
48 48 48
48 48 48
44 44 44
48 48 48
44 44 44
44 44 44
44 44 44
44 44 44
44 44 44
44 44 44
0 0 0
32 32 32
44 44 44
48 48 48
48 48 48
32 32 32
52 52 52
52 52 52
52 52 52
52 52 52
52 52 52
56 56 56
84 84 84
56 56 56
64 64 64
64 64 64
72 72 72
64 64 64
72 72 72
0 0 0

0 0 0
32 32 32
0 0 0
72 72 72
76 76 76
56 56 56
100 100 100
124 124 124
72 72 72
72 72 72
64 64 64
72 72 72
64 64 64
72 72 72
64 64 64
64 64 64
56 56 56
112 112 112
56 56 56
64 64 64
56 56 56
56 56 56
56 56 56
56 56 56
56 56 56
56 56 56
52 52 52
56 56 56
44 44 44
32 32 32
44 44 44
52 52 52
48 48 48
52 52 52
48 48 48
48 48 48
48 48 48
44 44 44
44 44 44
44 44 44
44 44 44
44 44 44
44 44 44
44 44 44
32 32 32
0 0 0
32 32 32
48 48 48
48 48 48
48 48 48
48 48 48
52 52 52
48 48 48
52 52 52
56 56 56
64 64 64
56 56 56
64 64 64
64 64 64
72 72 72
64 64 64
72 72 72
72 72 72
0 0 0

0 0 0
32 32 32
0 0 0
76 76 76
72 72 72
32 32 32
56 56 56
100 100 100
72 72 72
64 64 64
72 72 72
64 64 64
72 72 72
64 64 64
64 64 64
56 56 56
64 64 64
56 56 56
64 64 64
56 56 56
56 56 56
56 56 56
56 56 56
56 56 56
56 56 56
52 52 52
56 56 56
44 44 44
32 32 32
44 44 44
52 52 52
48 48 48
52 52 52
48 48 48
48 48 48
48 48 48
44 44 44
48 48 48
44 44 44
44 44 44
44 44 44
44 44 44
44 44 44
44 44 44
44 44 44
32 32 32
0 0 0
32 32 32
48 48 48
48 48 48
52 52 52
48 48 48
52 52 52
52 52 52
56 56 56
56 56 56
64 64 64
64 64 64
64 64 64
64 64 64
72 72 72
64 64 64
72 72 72
0 0 0

0 0 0
32 32 32
0 0 0
72 72 72
72 72 72
72 72 72
72 72 72
72 72 72
64 64 64
72 72 72
64 64 64
72 72 72
64 64 64
64 64 64
56 56 56
64 64 64
56 56 56
64 64 64
56 56 56
56 56 56
56 56 56
56 56 56
56 56 56
56 56 56
52 52 52
56 56 56
52 52 52
32 32 32
44 44 44
52 52 52
48 48 48
52 52 52
48 48 48
48 48 48
48 48 48
48 48 48
48 48 48
44 44 44
44 44 44
44 44 44
44 44 44
44 44 44
44 44 44
44 44 44
44 44 44
44 44 44
32 32 32
0 0 0
48 48 48
52 52 52
48 48 48
52 52 52
52 52 52
52 52 52
56 56 56
64 64 64
56 56 56
64 64 64
64 64 64
72 72 72
64 64 64
72 72 72
72 72 72
0 0 0

0 0 0
32 32 32
0 0 0
72 72 72
72 72 72
72 72 72
72 72 72
64 64 64
72 72 72
64 64 64
72 72 72
64 64 64
64 64 64
56 56 56
64 64 64
56 56 56
64 64 64
56 56 56
56 56 56
56 56 56
56 56 56
56 56 56
56 56 56
52 52 52
56 56 56
52 52 52
44 44 44
32 32 32
52 52 52
52 52 52
52 52 52
48 48 48
52 52 52
48 48 48
48 48 48
48 48 48
44 44 44
44 44 44
44 44 44
44 44 44
44 44 44
44 44 44
44 44 44
44 44 44
44 44 44
44 44 44
44 44 44
0 0 0
32 32 32
48 48 48
52 52 52
48 48 48
52 52 52
56 56 56
56 56 56
56 56 56
72 72 72
56 56 56
72 72 72
64 64 64
72 72 72
72 72 72
72 72 72
0 0 0

0 0 0
32 32 32
0 0 0
72 72 72
72 72 72
72 72 72
64 64 64
72 72 72
64 64 64
72 72 72
64 64 64
64 64 64
56 56 56
64 64 64
56 56 56
64 64 64
56 56 56
56 56 56
56 56 56
56 56 56
56 56 56
56 56 56
56 56 56
56 56 56
52 52 52
44 44 44
32 32 32
44 44 44
52 52 52
52 52 52
48 48 48
52 52 52
48 48 48
48 48 48
48 48 48
44 44 44
44 44 44
44 44 44
44 44 44
44 44 44
44 44 44
44 44 44
44 44 44
44 44 44
44 44 44
44 44 44
44 44 44
32 32 32
0 0 0
32 32 32
48 48 48
52 52 52
52 52 52
56 56 56
56 56 56
100 100 100
124 124 124
100 100 100
64 64 64
72 72 72
64 64 64
72 72 72
72 72 72
0 0 0

0 0 0
32 32 32
0 0 0
72 72 72
72 72 72
100 100 100
124 124 124
100 100 100
72 72 72
64 64 64
72 72 72
84 84 84
100 100 100
100 100 100
64 64 64
56 56 56
56 56 56
72 72 72
84 84 84
84 84 84
56 56 56
56 56 56
56 56 56
52 52 52
56 56 56
32 32 32
56 56 56
100 100 100
100 100 100
100 100 100
100 100 100
100 100 100
84 84 84
84 84 84
84 84 84
84 84 84
84 84 84
84 84 84
84 84 84
84 84 84
84 84 84
84 84 84
84 84 84
84 84 84
84 84 84
84 84 84
84 84 84
84 84 84
56 56 56
0 0 0
52 52 52
52 52 52
52 52 52
56 56 56
56 56 56
56 56 56
100 100 100
124 124 124
72 72 72
64 64 64
72 72 72
72 72 72
72 72 72
0 0 0

0 0 0
32 32 32
0 0 0
72 72 72
72 72 72
56 56 56
100 100 100
124 124 124
64 64 64
64 64 64
56 56 56
56 56 56
100 100 100
100 100 100
56 56 56
56 56 56
56 56 56
56 56 56
100 100 100
84 84 84
56 56 56
56 56 56
52 52 52
56 56 56
52 52 52
52 52 52
52 52 52
52 52 52
48 48 48
52 52 52
48 48 48
48 48 48
48 48 48
48 48 48
48 48 48
44 44 44
48 48 48
44 44 44
44 44 44
44 44 44
44 44 44
44 44 44
44 44 44
44 44 44
44 44 44
48 48 48
44 44 44
48 48 48
48 48 48
52 52 52
48 48 48
52 52 52
52 52 52
56 56 56
56 56 56
32 32 32
56 56 56
100 100 100
64 64 64
72 72 72
64 64 64
72 72 72
72 72 72
0 0 0

0 0 0
32 32 32
0 0 0
72 72 72
64 64 64
32 32 32
56 56 56
100 100 100
64 64 64
56 56 56
64 64 64
32 32 32
56 56 56
84 84 84
56 56 56
56 56 56
56 56 56
32 32 32
56 56 56
72 72 72
56 56 56
52 52 52
56 56 56
52 52 52
52 52 52
52 52 52
52 52 52
52 52 52
52 52 52
48 48 48
52 52 52
48 48 48
48 48 48
48 48 48
44 44 44
48 48 48
44 44 44
44 44 44
44 44 44
44 44 44
44 44 44
44 44 44
44 44 44
44 44 44
48 48 48
44 44 44
48 48 48
48 48 48
52 52 52
48 48 48
52 52 52
52 52 52
56 56 56
56 56 56
64 64 64
56 56 56
64 64 64
64 64 64
64 64 64
64 64 64
72 72 72
72 72 72
72 72 72
0 0 0

0 0 0
32 32 32
0 0 0
64 64 64
72 72 72
64 64 64
64 64 64
64 64 64
56 56 56
64 64 64
56 56 56
64 64 64
56 56 56
56 56 56
56 56 56
56 56 56
56 56 56
56 56 56
56 56 56
56 56 56
52 52 52
56 56 56
52 52 52
52 52 52
52 52 52
52 52 52
52 52 52
52 52 52
48 48 48
52 52 52
48 48 48
48 48 48
48 48 48
44 44 44
48 48 48
44 44 44
44 44 44
44 44 44
44 44 44
44 44 44
44 44 44
44 44 44
44 44 44
48 48 48
44 44 44
48 48 48
48 48 48
52 52 52
48 48 48
52 52 52
52 52 52
56 56 56
52 52 52
64 64 64
56 56 56
64 64 64
64 64 64
64 64 64
64 64 64
72 72 72
64 64 64
72 72 72
72 72 72
0 0 0

0 0 0
32 32 32
0 0 0
72 72 72
64 64 64
64 64 64
64 64 64
56 56 56
64 64 64
56 56 56
64 64 64
56 56 56
64 64 64
56 56 56
56 56 56
56 56 56
56 56 56
56 56 56
56 56 56
52 52 52
56 56 56
52 52 52
52 52 52
52 52 52
52 52 52
52 52 52
52 52 52
48 48 48
52 52 52
48 48 48
48 48 48
48 48 48
44 44 44
48 48 48
44 44 44
44 44 44
44 44 44
44 44 44
44 44 44
44 44 44
44 44 44
44 44 44
48 48 48
44 44 44
48 48 48
48 48 48
44 44 44
48 48 48
52 52 52
48 48 48
52 52 52
52 52 52
64 64 64
56 56 56
64 64 64
64 64 64
64 64 64
64 64 64
72 72 72
64 64 64
72 72 72
72 72 72
72 72 72
0 0 0

0 0 0
32 32 32
0 0 0
44 44 44
44 44 44
44 44 44
44 44 44
44 44 44
44 44 44
44 44 44
44 44 44
44 44 44
44 44 44
44 44 44
44 44 44
44 44 44
44 44 44
44 44 44
44 44 44
44 44 44
44 44 44
44 44 44
44 44 44
44 44 44
44 44 44
44 44 44
44 44 44
44 44 44
44 44 44
44 44 44
44 44 44
44 44 44
44 44 44
44 44 44
44 44 44
44 44 44
44 44 44
44 44 44
44 44 44
44 44 44
44 44 44
44 44 44
44 44 44
44 44 44
44 44 44
44 44 44
44 44 44
44 44 44
44 44 44
44 44 44
44 44 44
44 44 44
44 44 44
44 44 44
44 44 44
44 44 44
44 44 44
44 44 44
44 44 44
44 44 44
44 44 44
44 44 44
44 44 44
0 0 0

0 0 0
32 32 32
0 0 0
0 0 0
0 0 0
0 0 0
0 0 0
0 0 0
0 0 0
0 0 0
0 0 0
0 0 0
0 0 0
0 0 0
0 0 0
0 0 0
0 0 0
0 0 0
0 0 0
0 0 0
0 0 0
0 0 0
0 0 0
0 0 0
0 0 0
0 0 0
0 0 0
0 0 0
0 0 0
0 0 0
0 0 0
0 0 0
0 0 0
0 0 0
0 0 0
0 0 0
0 0 0
0 0 0
0 0 0
0 0 0
0 0 0
0 0 0
0 0 0
0 0 0
0 0 0
0 0 0
0 0 0
0 0 0
0 0 0
0 0 0
0 0 0
0 0 0
0 0 0
0 0 0
0 0 0
0 0 0
0 0 0
0 0 0
0 0 0
0 0 0
0 0 0
0 0 0
0 0 0
0 0 0

0 0 0
32 32 32
32 32 32
32 32 32
32 32 32
32 32 32
32 32 32
32 32 32
32 32 32
32 32 32
32 32 32
32 32 32
32 32 32
32 32 32
32 32 32
32 32 32
32 32 32
32 32 32
32 32 32
32 32 32
32 32 32
32 32 32
32 32 32
32 32 32
32 32 32
32 32 32
32 32 32
32 32 32
32 32 32
32 32 32
32 32 32
32 32 32
32 32 32
32 32 32
32 32 32
32 32 32
32 32 32
32 32 32
32 32 32
32 32 32
32 32 32
32 32 32
32 32 32
32 32 32
32 32 32
32 32 32
32 32 32
32 32 32
32 32 32
32 32 32
32 32 32
32 32 32
32 32 32
32 32 32
32 32 32
32 32 32
32 32 32
32 32 32
32 32 32
32 32 32
32 32 32
32 32 32
32 32 32
0 0 0

0 0 0
32 32 32
32 32 32
32 32 32
32 32 32
32 32 32
32 32 32
32 32 32
32 32 32
32 32 32
32 32 32
32 32 32
32 32 32
32 32 32
32 32 32
32 32 32
32 32 32
32 32 32
32 32 32
32 32 32
32 32 32
32 32 32
32 32 32
32 32 32
32 32 32
32 32 32
32 32 32
32 32 32
32 32 32
32 32 32
32 32 32
32 32 32
32 32 32
32 32 32
32 32 32
32 32 32
32 32 32
32 32 32
32 32 32
32 32 32
32 32 32
32 32 32
32 32 32
32 32 32
32 32 32
32 32 32
32 32 32
32 32 32
32 32 32
32 32 32
32 32 32
32 32 32
32 32 32
32 32 32
32 32 32
32 32 32
32 32 32
32 32 32
32 32 32
32 32 32
32 32 32
32 32 32
32 32 32
0 0 0

0 0 0
0 0 0
0 0 0
0 0 0
0 0 0
0 0 0
0 0 0
0 0 0
0 0 0
0 0 0
0 0 0
0 0 0
0 0 0
0 0 0
0 0 0
0 0 0
0 0 0
0 0 0
0 0 0
0 0 0
0 0 0
0 0 0
0 0 0
0 0 0
0 0 0
0 0 0
0 0 0
0 0 0
0 0 0
0 0 0
0 0 0
0 0 0
0 0 0
0 0 0
0 0 0
0 0 0
0 0 0
0 0 0
0 0 0
0 0 0
0 0 0
0 0 0
0 0 0
0 0 0
0 0 0
0 0 0
0 0 0
0 0 0
0 0 0
0 0 0
0 0 0
0 0 0
0 0 0
0 0 0
0 0 0
0 0 0
0 0 0
0 0 0
0 0 0
0 0 0
0 0 0
0 0 0
0 0 0
0 0 0

